G04 #@! TF.FileFunction,Legend,Bot*
%FSLAX46Y46*%
G04 Gerber Fmt 4.6, Leading zero omitted, Abs format (unit mm)*
G04 Created by KiCad (PCBNEW 4.0.5+dfsg1-4) date Sat Sep 22 09:29:19 2018*
%MOMM*%
%LPD*%
G01*
G04 APERTURE LIST*
%ADD10C,0.100000*%
%ADD11C,0.200000*%
%ADD12C,0.150000*%
%ADD13C,0.120000*%
G04 APERTURE END LIST*
D10*
D11*
X53514428Y-39949381D02*
X53514428Y-38949381D01*
X53181094Y-39663667D01*
X52847761Y-38949381D01*
X52847761Y-39949381D01*
X52371571Y-39949381D02*
X52371571Y-38949381D01*
X51943000Y-39901762D02*
X51800143Y-39949381D01*
X51562047Y-39949381D01*
X51466809Y-39901762D01*
X51419190Y-39854143D01*
X51371571Y-39758905D01*
X51371571Y-39663667D01*
X51419190Y-39568429D01*
X51466809Y-39520810D01*
X51562047Y-39473190D01*
X51752524Y-39425571D01*
X51847762Y-39377952D01*
X51895381Y-39330333D01*
X51943000Y-39235095D01*
X51943000Y-39139857D01*
X51895381Y-39044619D01*
X51847762Y-38997000D01*
X51752524Y-38949381D01*
X51514428Y-38949381D01*
X51371571Y-38997000D01*
X50752524Y-38949381D02*
X50562047Y-38949381D01*
X50466809Y-38997000D01*
X50371571Y-39092238D01*
X50323952Y-39282714D01*
X50323952Y-39616048D01*
X50371571Y-39806524D01*
X50466809Y-39901762D01*
X50562047Y-39949381D01*
X50752524Y-39949381D01*
X50847762Y-39901762D01*
X50943000Y-39806524D01*
X50990619Y-39616048D01*
X50990619Y-39282714D01*
X50943000Y-39092238D01*
X50847762Y-38997000D01*
X50752524Y-38949381D01*
X39060381Y-40211572D02*
X38060381Y-40211572D01*
X38774667Y-40544906D01*
X38060381Y-40878239D01*
X39060381Y-40878239D01*
X38060381Y-41544905D02*
X38060381Y-41735382D01*
X38108000Y-41830620D01*
X38203238Y-41925858D01*
X38393714Y-41973477D01*
X38727048Y-41973477D01*
X38917524Y-41925858D01*
X39012762Y-41830620D01*
X39060381Y-41735382D01*
X39060381Y-41544905D01*
X39012762Y-41449667D01*
X38917524Y-41354429D01*
X38727048Y-41306810D01*
X38393714Y-41306810D01*
X38203238Y-41354429D01*
X38108000Y-41449667D01*
X38060381Y-41544905D01*
X39012762Y-42354429D02*
X39060381Y-42497286D01*
X39060381Y-42735382D01*
X39012762Y-42830620D01*
X38965143Y-42878239D01*
X38869905Y-42925858D01*
X38774667Y-42925858D01*
X38679429Y-42878239D01*
X38631810Y-42830620D01*
X38584190Y-42735382D01*
X38536571Y-42544905D01*
X38488952Y-42449667D01*
X38441333Y-42402048D01*
X38346095Y-42354429D01*
X38250857Y-42354429D01*
X38155619Y-42402048D01*
X38108000Y-42449667D01*
X38060381Y-42544905D01*
X38060381Y-42783001D01*
X38108000Y-42925858D01*
X39060381Y-43354429D02*
X38060381Y-43354429D01*
X41322476Y-37171381D02*
X40989143Y-38171381D01*
X40655809Y-37171381D01*
X39893904Y-38123762D02*
X39989142Y-38171381D01*
X40179619Y-38171381D01*
X40274857Y-38123762D01*
X40322476Y-38076143D01*
X40370095Y-37980905D01*
X40370095Y-37695190D01*
X40322476Y-37599952D01*
X40274857Y-37552333D01*
X40179619Y-37504714D01*
X39989142Y-37504714D01*
X39893904Y-37552333D01*
X39036761Y-38123762D02*
X39131999Y-38171381D01*
X39322476Y-38171381D01*
X39417714Y-38123762D01*
X39465333Y-38076143D01*
X39512952Y-37980905D01*
X39512952Y-37695190D01*
X39465333Y-37599952D01*
X39417714Y-37552333D01*
X39322476Y-37504714D01*
X39131999Y-37504714D01*
X39036761Y-37552333D01*
X48680619Y-46680381D02*
X49013953Y-46204190D01*
X49252048Y-46680381D02*
X49252048Y-45680381D01*
X48871095Y-45680381D01*
X48775857Y-45728000D01*
X48728238Y-45775619D01*
X48680619Y-45870857D01*
X48680619Y-46013714D01*
X48728238Y-46108952D01*
X48775857Y-46156571D01*
X48871095Y-46204190D01*
X49252048Y-46204190D01*
X48299667Y-46632762D02*
X48156810Y-46680381D01*
X47918714Y-46680381D01*
X47823476Y-46632762D01*
X47775857Y-46585143D01*
X47728238Y-46489905D01*
X47728238Y-46394667D01*
X47775857Y-46299429D01*
X47823476Y-46251810D01*
X47918714Y-46204190D01*
X48109191Y-46156571D01*
X48204429Y-46108952D01*
X48252048Y-46061333D01*
X48299667Y-45966095D01*
X48299667Y-45870857D01*
X48252048Y-45775619D01*
X48204429Y-45728000D01*
X48109191Y-45680381D01*
X47871095Y-45680381D01*
X47728238Y-45728000D01*
X47442524Y-45680381D02*
X46871095Y-45680381D01*
X47156810Y-46680381D02*
X47156810Y-45680381D01*
X42417904Y-45728000D02*
X42513142Y-45680381D01*
X42655999Y-45680381D01*
X42798857Y-45728000D01*
X42894095Y-45823238D01*
X42941714Y-45918476D01*
X42989333Y-46108952D01*
X42989333Y-46251810D01*
X42941714Y-46442286D01*
X42894095Y-46537524D01*
X42798857Y-46632762D01*
X42655999Y-46680381D01*
X42560761Y-46680381D01*
X42417904Y-46632762D01*
X42370285Y-46585143D01*
X42370285Y-46251810D01*
X42560761Y-46251810D01*
X41941714Y-46680381D02*
X41941714Y-45680381D01*
X41370285Y-46680381D01*
X41370285Y-45680381D01*
X40894095Y-46680381D02*
X40894095Y-45680381D01*
X40656000Y-45680381D01*
X40513142Y-45728000D01*
X40417904Y-45823238D01*
X40370285Y-45918476D01*
X40322666Y-46108952D01*
X40322666Y-46251810D01*
X40370285Y-46442286D01*
X40417904Y-46537524D01*
X40513142Y-46632762D01*
X40656000Y-46680381D01*
X40894095Y-46680381D01*
D12*
X43365000Y-24315000D02*
X43590000Y-24315000D01*
X43365000Y-31565000D02*
X43690000Y-31565000D01*
X50615000Y-31565000D02*
X50290000Y-31565000D01*
X50615000Y-24315000D02*
X50290000Y-24315000D01*
X43365000Y-24315000D02*
X43365000Y-24640000D01*
X50615000Y-24315000D02*
X50615000Y-24640000D01*
X50615000Y-31565000D02*
X50615000Y-31240000D01*
X43365000Y-31565000D02*
X43365000Y-31240000D01*
X43590000Y-24315000D02*
X43590000Y-22890000D01*
X68723000Y-44890000D02*
X70723000Y-44890000D01*
X70723000Y-42740000D02*
X68723000Y-42740000D01*
X36560000Y-23885000D02*
X34560000Y-23885000D01*
X34560000Y-21835000D02*
X36560000Y-21835000D01*
X68723000Y-27550000D02*
X70723000Y-27550000D01*
X70723000Y-29600000D02*
X68723000Y-29600000D01*
X80382000Y-32496000D02*
X80382000Y-30496000D01*
X82432000Y-30496000D02*
X82432000Y-32496000D01*
X76343000Y-27550000D02*
X78343000Y-27550000D01*
X78343000Y-29600000D02*
X76343000Y-29600000D01*
X78343000Y-41030000D02*
X76343000Y-41030000D01*
X76343000Y-38980000D02*
X78343000Y-38980000D01*
X70723000Y-41030000D02*
X68723000Y-41030000D01*
X68723000Y-38980000D02*
X70723000Y-38980000D01*
X47331000Y-38283000D02*
X49756000Y-38283000D01*
X47081000Y-40513000D02*
X42581000Y-40513000D01*
X42331000Y-45593000D02*
X42331000Y-45313000D01*
X42331000Y-45593000D02*
X47331000Y-45593000D01*
X47331000Y-45593000D02*
X47331000Y-45313000D01*
X47331000Y-37973000D02*
X47331000Y-38253000D01*
X42331000Y-37973000D02*
X47331000Y-37973000D01*
X42331000Y-40132000D02*
X42331000Y-40259000D01*
X42331000Y-40259000D02*
X42585000Y-40513000D01*
X42585000Y-40513000D02*
X42331000Y-40767000D01*
X42331000Y-40767000D02*
X42331000Y-40894000D01*
X42331000Y-37973000D02*
X42331000Y-38253000D01*
X42331000Y-42672000D02*
X42331000Y-42799000D01*
X47331000Y-40894000D02*
X47331000Y-40767000D01*
X42585000Y-43053000D02*
X42331000Y-43307000D01*
X47077000Y-40513000D02*
X47331000Y-40259000D01*
X42331000Y-43307000D02*
X42331000Y-43434000D01*
X47331000Y-40259000D02*
X47331000Y-40132000D01*
X42331000Y-42799000D02*
X42585000Y-43053000D01*
X47331000Y-40767000D02*
X47077000Y-40513000D01*
X47331000Y-43434000D02*
X47331000Y-43307000D01*
X47331000Y-42799000D02*
X47331000Y-42672000D01*
X47077000Y-43053000D02*
X47331000Y-42799000D01*
X47331000Y-43307000D02*
X47077000Y-43053000D01*
X47081000Y-43053000D02*
X42581000Y-43053000D01*
D13*
X49532000Y-38918000D02*
X49532000Y-37988000D01*
X49532000Y-35758000D02*
X49532000Y-36688000D01*
X49532000Y-35758000D02*
X51692000Y-35758000D01*
X49532000Y-38918000D02*
X50992000Y-38918000D01*
X48512000Y-33726000D02*
X48512000Y-34656000D01*
X48512000Y-36886000D02*
X48512000Y-35956000D01*
X48512000Y-36886000D02*
X46352000Y-36886000D01*
X48512000Y-33726000D02*
X47052000Y-33726000D01*
X62613000Y-45395000D02*
X62613000Y-44465000D01*
X62613000Y-42235000D02*
X62613000Y-43165000D01*
X62613000Y-42235000D02*
X64773000Y-42235000D01*
X62613000Y-45395000D02*
X64073000Y-45395000D01*
D12*
X70723000Y-25595000D02*
X68723000Y-25595000D01*
X68723000Y-27745000D02*
X70723000Y-27745000D01*
X78343000Y-25595000D02*
X76343000Y-25595000D01*
X76343000Y-27745000D02*
X78343000Y-27745000D01*
X76343000Y-42985000D02*
X78343000Y-42985000D01*
X78343000Y-40835000D02*
X76343000Y-40835000D01*
X68723000Y-42985000D02*
X70723000Y-42985000D01*
X70723000Y-40835000D02*
X68723000Y-40835000D01*
X41207000Y-25384000D02*
X41207000Y-23384000D01*
X39057000Y-23384000D02*
X39057000Y-25384000D01*
X70723000Y-23690000D02*
X68723000Y-23690000D01*
X68723000Y-25840000D02*
X70723000Y-25840000D01*
X78343000Y-23690000D02*
X76343000Y-23690000D01*
X76343000Y-25840000D02*
X78343000Y-25840000D01*
X76343000Y-44890000D02*
X78343000Y-44890000D01*
X78343000Y-42740000D02*
X76343000Y-42740000D01*
X42688000Y-35746000D02*
X44688000Y-35746000D01*
X44688000Y-33596000D02*
X42688000Y-33596000D01*
X42688000Y-38159000D02*
X44688000Y-38159000D01*
X44688000Y-36009000D02*
X42688000Y-36009000D01*
X39057000Y-33036000D02*
X39057000Y-35036000D01*
X41207000Y-35036000D02*
X41207000Y-33036000D01*
X41207000Y-30210000D02*
X41207000Y-28210000D01*
X39057000Y-28210000D02*
X39057000Y-30210000D01*
X58733000Y-25765000D02*
X58733000Y-23765000D01*
X56583000Y-23765000D02*
X56583000Y-25765000D01*
X56828000Y-25765000D02*
X56828000Y-23765000D01*
X54678000Y-23765000D02*
X54678000Y-25765000D01*
X54678000Y-40275000D02*
X54678000Y-42275000D01*
X56828000Y-42275000D02*
X56828000Y-40275000D01*
X56583000Y-40275000D02*
X56583000Y-42275000D01*
X58733000Y-42275000D02*
X58733000Y-40275000D01*
X60393000Y-40275000D02*
X60393000Y-42275000D01*
X62543000Y-42275000D02*
X62543000Y-40275000D01*
X64448000Y-25765000D02*
X64448000Y-23765000D01*
X62298000Y-23765000D02*
X62298000Y-25765000D01*
X62543000Y-25765000D02*
X62543000Y-23765000D01*
X60393000Y-23765000D02*
X60393000Y-25765000D01*
X59928000Y-43375000D02*
X57928000Y-43375000D01*
X57928000Y-45525000D02*
X59928000Y-45525000D01*
X77343000Y-36576000D02*
X77343000Y-31750000D01*
X77343000Y-31750000D02*
X67183000Y-31750000D01*
X67183000Y-31750000D02*
X67183000Y-36576000D01*
X67183000Y-36576000D02*
X77343000Y-36576000D01*
X67183000Y-34798000D02*
X67818000Y-34798000D01*
X67818000Y-34798000D02*
X67818000Y-33528000D01*
X67818000Y-33528000D02*
X67183000Y-33528000D01*
X60325000Y-38608000D02*
X60325000Y-37846000D01*
X60325000Y-37846000D02*
X58801000Y-37846000D01*
X58801000Y-37846000D02*
X58801000Y-38608000D01*
X61849000Y-27432000D02*
X57277000Y-27432000D01*
X57277000Y-27432000D02*
X57277000Y-38608000D01*
X57277000Y-38608000D02*
X61849000Y-38608000D01*
X61849000Y-38608000D02*
X61849000Y-27432000D01*
X41392381Y-26963810D02*
X40392381Y-26963810D01*
X41297143Y-28011429D02*
X41344762Y-27963810D01*
X41392381Y-27820953D01*
X41392381Y-27725715D01*
X41344762Y-27582857D01*
X41249524Y-27487619D01*
X41154286Y-27440000D01*
X40963810Y-27392381D01*
X40820952Y-27392381D01*
X40630476Y-27440000D01*
X40535238Y-27487619D01*
X40440000Y-27582857D01*
X40392381Y-27725715D01*
X40392381Y-27820953D01*
X40440000Y-27963810D01*
X40487619Y-28011429D01*
X41392381Y-28963810D02*
X41392381Y-28392381D01*
X41392381Y-28678095D02*
X40392381Y-28678095D01*
X40535238Y-28582857D01*
X40630476Y-28487619D01*
X40678095Y-28392381D01*
X70365857Y-41967381D02*
X70699191Y-41491190D01*
X70937286Y-41967381D02*
X70937286Y-40967381D01*
X70556333Y-40967381D01*
X70461095Y-41015000D01*
X70413476Y-41062619D01*
X70365857Y-41157857D01*
X70365857Y-41300714D01*
X70413476Y-41395952D01*
X70461095Y-41443571D01*
X70556333Y-41491190D01*
X70937286Y-41491190D01*
X69413476Y-41967381D02*
X69984905Y-41967381D01*
X69699191Y-41967381D02*
X69699191Y-40967381D01*
X69794429Y-41110238D01*
X69889667Y-41205476D01*
X69984905Y-41253095D01*
X69080143Y-40967381D02*
X68413476Y-40967381D01*
X68842048Y-41967381D01*
X35726666Y-23217143D02*
X35774285Y-23264762D01*
X35917142Y-23312381D01*
X36012380Y-23312381D01*
X36155238Y-23264762D01*
X36250476Y-23169524D01*
X36298095Y-23074286D01*
X36345714Y-22883810D01*
X36345714Y-22740952D01*
X36298095Y-22550476D01*
X36250476Y-22455238D01*
X36155238Y-22360000D01*
X36012380Y-22312381D01*
X35917142Y-22312381D01*
X35774285Y-22360000D01*
X35726666Y-22407619D01*
X34774285Y-23312381D02*
X35345714Y-23312381D01*
X35060000Y-23312381D02*
X35060000Y-22312381D01*
X35155238Y-22455238D01*
X35250476Y-22550476D01*
X35345714Y-22598095D01*
X69889666Y-26632143D02*
X69937285Y-26679762D01*
X70080142Y-26727381D01*
X70175380Y-26727381D01*
X70318238Y-26679762D01*
X70413476Y-26584524D01*
X70461095Y-26489286D01*
X70508714Y-26298810D01*
X70508714Y-26155952D01*
X70461095Y-25965476D01*
X70413476Y-25870238D01*
X70318238Y-25775000D01*
X70175380Y-25727381D01*
X70080142Y-25727381D01*
X69937285Y-25775000D01*
X69889666Y-25822619D01*
X69508714Y-25822619D02*
X69461095Y-25775000D01*
X69365857Y-25727381D01*
X69127761Y-25727381D01*
X69032523Y-25775000D01*
X68984904Y-25822619D01*
X68937285Y-25917857D01*
X68937285Y-26013095D01*
X68984904Y-26155952D01*
X69556333Y-26727381D01*
X68937285Y-26727381D01*
X79464143Y-31329334D02*
X79511762Y-31281715D01*
X79559381Y-31138858D01*
X79559381Y-31043620D01*
X79511762Y-30900762D01*
X79416524Y-30805524D01*
X79321286Y-30757905D01*
X79130810Y-30710286D01*
X78987952Y-30710286D01*
X78797476Y-30757905D01*
X78702238Y-30805524D01*
X78607000Y-30900762D01*
X78559381Y-31043620D01*
X78559381Y-31138858D01*
X78607000Y-31281715D01*
X78654619Y-31329334D01*
X78559381Y-31662667D02*
X78559381Y-32281715D01*
X78940333Y-31948381D01*
X78940333Y-32091239D01*
X78987952Y-32186477D01*
X79035571Y-32234096D01*
X79130810Y-32281715D01*
X79368905Y-32281715D01*
X79464143Y-32234096D01*
X79511762Y-32186477D01*
X79559381Y-32091239D01*
X79559381Y-31805524D01*
X79511762Y-31710286D01*
X79464143Y-31662667D01*
X77509666Y-26632143D02*
X77557285Y-26679762D01*
X77700142Y-26727381D01*
X77795380Y-26727381D01*
X77938238Y-26679762D01*
X78033476Y-26584524D01*
X78081095Y-26489286D01*
X78128714Y-26298810D01*
X78128714Y-26155952D01*
X78081095Y-25965476D01*
X78033476Y-25870238D01*
X77938238Y-25775000D01*
X77795380Y-25727381D01*
X77700142Y-25727381D01*
X77557285Y-25775000D01*
X77509666Y-25822619D01*
X76652523Y-26060714D02*
X76652523Y-26727381D01*
X76890619Y-25679762D02*
X77128714Y-26394048D01*
X76509666Y-26394048D01*
X77509666Y-42662143D02*
X77557285Y-42709762D01*
X77700142Y-42757381D01*
X77795380Y-42757381D01*
X77938238Y-42709762D01*
X78033476Y-42614524D01*
X78081095Y-42519286D01*
X78128714Y-42328810D01*
X78128714Y-42185952D01*
X78081095Y-41995476D01*
X78033476Y-41900238D01*
X77938238Y-41805000D01*
X77795380Y-41757381D01*
X77700142Y-41757381D01*
X77557285Y-41805000D01*
X77509666Y-41852619D01*
X77176333Y-41757381D02*
X76509666Y-41757381D01*
X76938238Y-42757381D01*
X69889666Y-42662143D02*
X69937285Y-42709762D01*
X70080142Y-42757381D01*
X70175380Y-42757381D01*
X70318238Y-42709762D01*
X70413476Y-42614524D01*
X70461095Y-42519286D01*
X70508714Y-42328810D01*
X70508714Y-42185952D01*
X70461095Y-41995476D01*
X70413476Y-41900238D01*
X70318238Y-41805000D01*
X70175380Y-41757381D01*
X70080142Y-41757381D01*
X69937285Y-41805000D01*
X69889666Y-41852619D01*
X69318238Y-42185952D02*
X69413476Y-42138333D01*
X69461095Y-42090714D01*
X69508714Y-41995476D01*
X69508714Y-41947857D01*
X69461095Y-41852619D01*
X69413476Y-41805000D01*
X69318238Y-41757381D01*
X69127761Y-41757381D01*
X69032523Y-41805000D01*
X68984904Y-41852619D01*
X68937285Y-41947857D01*
X68937285Y-41995476D01*
X68984904Y-42090714D01*
X69032523Y-42138333D01*
X69127761Y-42185952D01*
X69318238Y-42185952D01*
X69413476Y-42233571D01*
X69461095Y-42281190D01*
X69508714Y-42376429D01*
X69508714Y-42566905D01*
X69461095Y-42662143D01*
X69413476Y-42709762D01*
X69318238Y-42757381D01*
X69127761Y-42757381D01*
X69032523Y-42709762D01*
X68984904Y-42662143D01*
X68937285Y-42566905D01*
X68937285Y-42376429D01*
X68984904Y-42281190D01*
X69032523Y-42233571D01*
X69127761Y-42185952D01*
X51688143Y-42038715D02*
X51735762Y-41991096D01*
X51783381Y-41848239D01*
X51783381Y-41753001D01*
X51735762Y-41610143D01*
X51640524Y-41514905D01*
X51545286Y-41467286D01*
X51354810Y-41419667D01*
X51211952Y-41419667D01*
X51021476Y-41467286D01*
X50926238Y-41514905D01*
X50831000Y-41610143D01*
X50783381Y-41753001D01*
X50783381Y-41848239D01*
X50831000Y-41991096D01*
X50878619Y-42038715D01*
X50783381Y-42657762D02*
X50783381Y-42848239D01*
X50831000Y-42943477D01*
X50926238Y-43038715D01*
X51116714Y-43086334D01*
X51450048Y-43086334D01*
X51640524Y-43038715D01*
X51735762Y-42943477D01*
X51783381Y-42848239D01*
X51783381Y-42657762D01*
X51735762Y-42562524D01*
X51640524Y-42467286D01*
X51450048Y-42419667D01*
X51116714Y-42419667D01*
X50926238Y-42467286D01*
X50831000Y-42562524D01*
X50783381Y-42657762D01*
X51783381Y-43514905D02*
X50783381Y-43514905D01*
X51783381Y-44086334D01*
X50783381Y-44086334D01*
X51783381Y-45086334D02*
X51783381Y-44514905D01*
X51783381Y-44800619D02*
X50783381Y-44800619D01*
X50926238Y-44705381D01*
X51021476Y-44610143D01*
X51069095Y-44514905D01*
X50387238Y-35385619D02*
X50482476Y-35338000D01*
X50577714Y-35242762D01*
X50720571Y-35099905D01*
X50815810Y-35052286D01*
X50911048Y-35052286D01*
X50863429Y-35290381D02*
X50958667Y-35242762D01*
X51053905Y-35147524D01*
X51101524Y-34957048D01*
X51101524Y-34623714D01*
X51053905Y-34433238D01*
X50958667Y-34338000D01*
X50863429Y-34290381D01*
X50672952Y-34290381D01*
X50577714Y-34338000D01*
X50482476Y-34433238D01*
X50434857Y-34623714D01*
X50434857Y-34957048D01*
X50482476Y-35147524D01*
X50577714Y-35242762D01*
X50672952Y-35290381D01*
X50863429Y-35290381D01*
X49482476Y-35290381D02*
X50053905Y-35290381D01*
X49768191Y-35290381D02*
X49768191Y-34290381D01*
X49863429Y-34433238D01*
X49958667Y-34528476D01*
X50053905Y-34576095D01*
X47847238Y-38353619D02*
X47942476Y-38306000D01*
X48037714Y-38210762D01*
X48180571Y-38067905D01*
X48275810Y-38020286D01*
X48371048Y-38020286D01*
X48323429Y-38258381D02*
X48418667Y-38210762D01*
X48513905Y-38115524D01*
X48561524Y-37925048D01*
X48561524Y-37591714D01*
X48513905Y-37401238D01*
X48418667Y-37306000D01*
X48323429Y-37258381D01*
X48132952Y-37258381D01*
X48037714Y-37306000D01*
X47942476Y-37401238D01*
X47894857Y-37591714D01*
X47894857Y-37925048D01*
X47942476Y-38115524D01*
X48037714Y-38210762D01*
X48132952Y-38258381D01*
X48323429Y-38258381D01*
X47513905Y-37353619D02*
X47466286Y-37306000D01*
X47371048Y-37258381D01*
X47132952Y-37258381D01*
X47037714Y-37306000D01*
X46990095Y-37353619D01*
X46942476Y-37448857D01*
X46942476Y-37544095D01*
X46990095Y-37686952D01*
X47561524Y-38258381D01*
X46942476Y-38258381D01*
X63468238Y-41862619D02*
X63563476Y-41815000D01*
X63658714Y-41719762D01*
X63801571Y-41576905D01*
X63896810Y-41529286D01*
X63992048Y-41529286D01*
X63944429Y-41767381D02*
X64039667Y-41719762D01*
X64134905Y-41624524D01*
X64182524Y-41434048D01*
X64182524Y-41100714D01*
X64134905Y-40910238D01*
X64039667Y-40815000D01*
X63944429Y-40767381D01*
X63753952Y-40767381D01*
X63658714Y-40815000D01*
X63563476Y-40910238D01*
X63515857Y-41100714D01*
X63515857Y-41434048D01*
X63563476Y-41624524D01*
X63658714Y-41719762D01*
X63753952Y-41767381D01*
X63944429Y-41767381D01*
X63182524Y-40767381D02*
X62563476Y-40767381D01*
X62896810Y-41148333D01*
X62753952Y-41148333D01*
X62658714Y-41195952D01*
X62611095Y-41243571D01*
X62563476Y-41338810D01*
X62563476Y-41576905D01*
X62611095Y-41672143D01*
X62658714Y-41719762D01*
X62753952Y-41767381D01*
X63039667Y-41767381D01*
X63134905Y-41719762D01*
X63182524Y-41672143D01*
X69889666Y-29422381D02*
X70223000Y-28946190D01*
X70461095Y-29422381D02*
X70461095Y-28422381D01*
X70080142Y-28422381D01*
X69984904Y-28470000D01*
X69937285Y-28517619D01*
X69889666Y-28612857D01*
X69889666Y-28755714D01*
X69937285Y-28850952D01*
X69984904Y-28898571D01*
X70080142Y-28946190D01*
X70461095Y-28946190D01*
X68937285Y-29422381D02*
X69508714Y-29422381D01*
X69223000Y-29422381D02*
X69223000Y-28422381D01*
X69318238Y-28565238D01*
X69413476Y-28660476D01*
X69508714Y-28708095D01*
X77509666Y-29422381D02*
X77843000Y-28946190D01*
X78081095Y-29422381D02*
X78081095Y-28422381D01*
X77700142Y-28422381D01*
X77604904Y-28470000D01*
X77557285Y-28517619D01*
X77509666Y-28612857D01*
X77509666Y-28755714D01*
X77557285Y-28850952D01*
X77604904Y-28898571D01*
X77700142Y-28946190D01*
X78081095Y-28946190D01*
X77128714Y-28517619D02*
X77081095Y-28470000D01*
X76985857Y-28422381D01*
X76747761Y-28422381D01*
X76652523Y-28470000D01*
X76604904Y-28517619D01*
X76557285Y-28612857D01*
X76557285Y-28708095D01*
X76604904Y-28850952D01*
X77176333Y-29422381D01*
X76557285Y-29422381D01*
X77509666Y-40062381D02*
X77843000Y-39586190D01*
X78081095Y-40062381D02*
X78081095Y-39062381D01*
X77700142Y-39062381D01*
X77604904Y-39110000D01*
X77557285Y-39157619D01*
X77509666Y-39252857D01*
X77509666Y-39395714D01*
X77557285Y-39490952D01*
X77604904Y-39538571D01*
X77700142Y-39586190D01*
X78081095Y-39586190D01*
X76604904Y-39062381D02*
X77081095Y-39062381D01*
X77128714Y-39538571D01*
X77081095Y-39490952D01*
X76985857Y-39443333D01*
X76747761Y-39443333D01*
X76652523Y-39490952D01*
X76604904Y-39538571D01*
X76557285Y-39633810D01*
X76557285Y-39871905D01*
X76604904Y-39967143D01*
X76652523Y-40014762D01*
X76747761Y-40062381D01*
X76985857Y-40062381D01*
X77081095Y-40014762D01*
X77128714Y-39967143D01*
X69889666Y-40062381D02*
X70223000Y-39586190D01*
X70461095Y-40062381D02*
X70461095Y-39062381D01*
X70080142Y-39062381D01*
X69984904Y-39110000D01*
X69937285Y-39157619D01*
X69889666Y-39252857D01*
X69889666Y-39395714D01*
X69937285Y-39490952D01*
X69984904Y-39538571D01*
X70080142Y-39586190D01*
X70461095Y-39586190D01*
X69032523Y-39062381D02*
X69223000Y-39062381D01*
X69318238Y-39110000D01*
X69365857Y-39157619D01*
X69461095Y-39300476D01*
X69508714Y-39490952D01*
X69508714Y-39871905D01*
X69461095Y-39967143D01*
X69413476Y-40014762D01*
X69318238Y-40062381D01*
X69127761Y-40062381D01*
X69032523Y-40014762D01*
X68984904Y-39967143D01*
X68937285Y-39871905D01*
X68937285Y-39633810D01*
X68984904Y-39538571D01*
X69032523Y-39490952D01*
X69127761Y-39443333D01*
X69318238Y-39443333D01*
X69413476Y-39490952D01*
X69461095Y-39538571D01*
X69508714Y-39633810D01*
X38284381Y-24217334D02*
X37808190Y-23884000D01*
X38284381Y-23645905D02*
X37284381Y-23645905D01*
X37284381Y-24026858D01*
X37332000Y-24122096D01*
X37379619Y-24169715D01*
X37474857Y-24217334D01*
X37617714Y-24217334D01*
X37712952Y-24169715D01*
X37760571Y-24122096D01*
X37808190Y-24026858D01*
X37808190Y-23645905D01*
X38284381Y-24693524D02*
X38284381Y-24884000D01*
X38236762Y-24979239D01*
X38189143Y-25026858D01*
X38046286Y-25122096D01*
X37855810Y-25169715D01*
X37474857Y-25169715D01*
X37379619Y-25122096D01*
X37332000Y-25074477D01*
X37284381Y-24979239D01*
X37284381Y-24788762D01*
X37332000Y-24693524D01*
X37379619Y-24645905D01*
X37474857Y-24598286D01*
X37712952Y-24598286D01*
X37808190Y-24645905D01*
X37855810Y-24693524D01*
X37903429Y-24788762D01*
X37903429Y-24979239D01*
X37855810Y-25074477D01*
X37808190Y-25122096D01*
X37712952Y-25169715D01*
X70365857Y-27517381D02*
X70699191Y-27041190D01*
X70937286Y-27517381D02*
X70937286Y-26517381D01*
X70556333Y-26517381D01*
X70461095Y-26565000D01*
X70413476Y-26612619D01*
X70365857Y-26707857D01*
X70365857Y-26850714D01*
X70413476Y-26945952D01*
X70461095Y-26993571D01*
X70556333Y-27041190D01*
X70937286Y-27041190D01*
X69413476Y-27517381D02*
X69984905Y-27517381D01*
X69699191Y-27517381D02*
X69699191Y-26517381D01*
X69794429Y-26660238D01*
X69889667Y-26755476D01*
X69984905Y-26803095D01*
X69032524Y-26612619D02*
X68984905Y-26565000D01*
X68889667Y-26517381D01*
X68651571Y-26517381D01*
X68556333Y-26565000D01*
X68508714Y-26612619D01*
X68461095Y-26707857D01*
X68461095Y-26803095D01*
X68508714Y-26945952D01*
X69080143Y-27517381D01*
X68461095Y-27517381D01*
X77985857Y-27517381D02*
X78319191Y-27041190D01*
X78557286Y-27517381D02*
X78557286Y-26517381D01*
X78176333Y-26517381D01*
X78081095Y-26565000D01*
X78033476Y-26612619D01*
X77985857Y-26707857D01*
X77985857Y-26850714D01*
X78033476Y-26945952D01*
X78081095Y-26993571D01*
X78176333Y-27041190D01*
X78557286Y-27041190D01*
X77033476Y-27517381D02*
X77604905Y-27517381D01*
X77319191Y-27517381D02*
X77319191Y-26517381D01*
X77414429Y-26660238D01*
X77509667Y-26755476D01*
X77604905Y-26803095D01*
X76700143Y-26517381D02*
X76081095Y-26517381D01*
X76414429Y-26898333D01*
X76271571Y-26898333D01*
X76176333Y-26945952D01*
X76128714Y-26993571D01*
X76081095Y-27088810D01*
X76081095Y-27326905D01*
X76128714Y-27422143D01*
X76176333Y-27469762D01*
X76271571Y-27517381D01*
X76557286Y-27517381D01*
X76652524Y-27469762D01*
X76700143Y-27422143D01*
X77985857Y-41967381D02*
X78319191Y-41491190D01*
X78557286Y-41967381D02*
X78557286Y-40967381D01*
X78176333Y-40967381D01*
X78081095Y-41015000D01*
X78033476Y-41062619D01*
X77985857Y-41157857D01*
X77985857Y-41300714D01*
X78033476Y-41395952D01*
X78081095Y-41443571D01*
X78176333Y-41491190D01*
X78557286Y-41491190D01*
X77033476Y-41967381D02*
X77604905Y-41967381D01*
X77319191Y-41967381D02*
X77319191Y-40967381D01*
X77414429Y-41110238D01*
X77509667Y-41205476D01*
X77604905Y-41253095D01*
X76176333Y-40967381D02*
X76366810Y-40967381D01*
X76462048Y-41015000D01*
X76509667Y-41062619D01*
X76604905Y-41205476D01*
X76652524Y-41395952D01*
X76652524Y-41776905D01*
X76604905Y-41872143D01*
X76557286Y-41919762D01*
X76462048Y-41967381D01*
X76271571Y-41967381D01*
X76176333Y-41919762D01*
X76128714Y-41872143D01*
X76081095Y-41776905D01*
X76081095Y-41538810D01*
X76128714Y-41443571D01*
X76176333Y-41395952D01*
X76271571Y-41348333D01*
X76462048Y-41348333D01*
X76557286Y-41395952D01*
X76604905Y-41443571D01*
X76652524Y-41538810D01*
X44330857Y-32823381D02*
X44664191Y-32347190D01*
X44902286Y-32823381D02*
X44902286Y-31823381D01*
X44521333Y-31823381D01*
X44426095Y-31871000D01*
X44378476Y-31918619D01*
X44330857Y-32013857D01*
X44330857Y-32156714D01*
X44378476Y-32251952D01*
X44426095Y-32299571D01*
X44521333Y-32347190D01*
X44902286Y-32347190D01*
X43378476Y-32823381D02*
X43949905Y-32823381D01*
X43664191Y-32823381D02*
X43664191Y-31823381D01*
X43759429Y-31966238D01*
X43854667Y-32061476D01*
X43949905Y-32109095D01*
X42807048Y-32251952D02*
X42902286Y-32204333D01*
X42949905Y-32156714D01*
X42997524Y-32061476D01*
X42997524Y-32013857D01*
X42949905Y-31918619D01*
X42902286Y-31871000D01*
X42807048Y-31823381D01*
X42616571Y-31823381D01*
X42521333Y-31871000D01*
X42473714Y-31918619D01*
X42426095Y-32013857D01*
X42426095Y-32061476D01*
X42473714Y-32156714D01*
X42521333Y-32204333D01*
X42616571Y-32251952D01*
X42807048Y-32251952D01*
X42902286Y-32299571D01*
X42949905Y-32347190D01*
X42997524Y-32442429D01*
X42997524Y-32632905D01*
X42949905Y-32728143D01*
X42902286Y-32775762D01*
X42807048Y-32823381D01*
X42616571Y-32823381D01*
X42521333Y-32775762D01*
X42473714Y-32728143D01*
X42426095Y-32632905D01*
X42426095Y-32442429D01*
X42473714Y-32347190D01*
X42521333Y-32299571D01*
X42616571Y-32251952D01*
X44330857Y-35236381D02*
X44664191Y-34760190D01*
X44902286Y-35236381D02*
X44902286Y-34236381D01*
X44521333Y-34236381D01*
X44426095Y-34284000D01*
X44378476Y-34331619D01*
X44330857Y-34426857D01*
X44330857Y-34569714D01*
X44378476Y-34664952D01*
X44426095Y-34712571D01*
X44521333Y-34760190D01*
X44902286Y-34760190D01*
X43378476Y-35236381D02*
X43949905Y-35236381D01*
X43664191Y-35236381D02*
X43664191Y-34236381D01*
X43759429Y-34379238D01*
X43854667Y-34474476D01*
X43949905Y-34522095D01*
X42902286Y-35236381D02*
X42711810Y-35236381D01*
X42616571Y-35188762D01*
X42568952Y-35141143D01*
X42473714Y-34998286D01*
X42426095Y-34807810D01*
X42426095Y-34426857D01*
X42473714Y-34331619D01*
X42521333Y-34284000D01*
X42616571Y-34236381D01*
X42807048Y-34236381D01*
X42902286Y-34284000D01*
X42949905Y-34331619D01*
X42997524Y-34426857D01*
X42997524Y-34664952D01*
X42949905Y-34760190D01*
X42902286Y-34807810D01*
X42807048Y-34855429D01*
X42616571Y-34855429D01*
X42521333Y-34807810D01*
X42473714Y-34760190D01*
X42426095Y-34664952D01*
X42884381Y-33393143D02*
X42408190Y-33059809D01*
X42884381Y-32821714D02*
X41884381Y-32821714D01*
X41884381Y-33202667D01*
X41932000Y-33297905D01*
X41979619Y-33345524D01*
X42074857Y-33393143D01*
X42217714Y-33393143D01*
X42312952Y-33345524D01*
X42360571Y-33297905D01*
X42408190Y-33202667D01*
X42408190Y-32821714D01*
X41979619Y-33774095D02*
X41932000Y-33821714D01*
X41884381Y-33916952D01*
X41884381Y-34155048D01*
X41932000Y-34250286D01*
X41979619Y-34297905D01*
X42074857Y-34345524D01*
X42170095Y-34345524D01*
X42312952Y-34297905D01*
X42884381Y-33726476D01*
X42884381Y-34345524D01*
X41884381Y-34964571D02*
X41884381Y-35059810D01*
X41932000Y-35155048D01*
X41979619Y-35202667D01*
X42074857Y-35250286D01*
X42265333Y-35297905D01*
X42503429Y-35297905D01*
X42693905Y-35250286D01*
X42789143Y-35202667D01*
X42836762Y-35155048D01*
X42884381Y-35059810D01*
X42884381Y-34964571D01*
X42836762Y-34869333D01*
X42789143Y-34821714D01*
X42693905Y-34774095D01*
X42503429Y-34726476D01*
X42265333Y-34726476D01*
X42074857Y-34774095D01*
X41979619Y-34821714D01*
X41932000Y-34869333D01*
X41884381Y-34964571D01*
X38284381Y-28567143D02*
X37808190Y-28233809D01*
X38284381Y-27995714D02*
X37284381Y-27995714D01*
X37284381Y-28376667D01*
X37332000Y-28471905D01*
X37379619Y-28519524D01*
X37474857Y-28567143D01*
X37617714Y-28567143D01*
X37712952Y-28519524D01*
X37760571Y-28471905D01*
X37808190Y-28376667D01*
X37808190Y-27995714D01*
X37379619Y-28948095D02*
X37332000Y-28995714D01*
X37284381Y-29090952D01*
X37284381Y-29329048D01*
X37332000Y-29424286D01*
X37379619Y-29471905D01*
X37474857Y-29519524D01*
X37570095Y-29519524D01*
X37712952Y-29471905D01*
X38284381Y-28900476D01*
X38284381Y-29519524D01*
X38284381Y-30471905D02*
X38284381Y-29900476D01*
X38284381Y-30186190D02*
X37284381Y-30186190D01*
X37427238Y-30090952D01*
X37522476Y-29995714D01*
X37570095Y-29900476D01*
X55810381Y-24122143D02*
X55334190Y-23788809D01*
X55810381Y-23550714D02*
X54810381Y-23550714D01*
X54810381Y-23931667D01*
X54858000Y-24026905D01*
X54905619Y-24074524D01*
X55000857Y-24122143D01*
X55143714Y-24122143D01*
X55238952Y-24074524D01*
X55286571Y-24026905D01*
X55334190Y-23931667D01*
X55334190Y-23550714D01*
X54905619Y-24503095D02*
X54858000Y-24550714D01*
X54810381Y-24645952D01*
X54810381Y-24884048D01*
X54858000Y-24979286D01*
X54905619Y-25026905D01*
X55000857Y-25074524D01*
X55096095Y-25074524D01*
X55238952Y-25026905D01*
X55810381Y-24455476D01*
X55810381Y-25074524D01*
X55143714Y-25931667D02*
X55810381Y-25931667D01*
X54762762Y-25693571D02*
X55477048Y-25455476D01*
X55477048Y-26074524D01*
X53905381Y-24122143D02*
X53429190Y-23788809D01*
X53905381Y-23550714D02*
X52905381Y-23550714D01*
X52905381Y-23931667D01*
X52953000Y-24026905D01*
X53000619Y-24074524D01*
X53095857Y-24122143D01*
X53238714Y-24122143D01*
X53333952Y-24074524D01*
X53381571Y-24026905D01*
X53429190Y-23931667D01*
X53429190Y-23550714D01*
X53000619Y-24503095D02*
X52953000Y-24550714D01*
X52905381Y-24645952D01*
X52905381Y-24884048D01*
X52953000Y-24979286D01*
X53000619Y-25026905D01*
X53095857Y-25074524D01*
X53191095Y-25074524D01*
X53333952Y-25026905D01*
X53905381Y-24455476D01*
X53905381Y-25074524D01*
X52905381Y-25979286D02*
X52905381Y-25503095D01*
X53381571Y-25455476D01*
X53333952Y-25503095D01*
X53286333Y-25598333D01*
X53286333Y-25836429D01*
X53333952Y-25931667D01*
X53381571Y-25979286D01*
X53476810Y-26026905D01*
X53714905Y-26026905D01*
X53810143Y-25979286D01*
X53857762Y-25931667D01*
X53905381Y-25836429D01*
X53905381Y-25598333D01*
X53857762Y-25503095D01*
X53810143Y-25455476D01*
X58505381Y-40632143D02*
X58029190Y-40298809D01*
X58505381Y-40060714D02*
X57505381Y-40060714D01*
X57505381Y-40441667D01*
X57553000Y-40536905D01*
X57600619Y-40584524D01*
X57695857Y-40632143D01*
X57838714Y-40632143D01*
X57933952Y-40584524D01*
X57981571Y-40536905D01*
X58029190Y-40441667D01*
X58029190Y-40060714D01*
X57600619Y-41013095D02*
X57553000Y-41060714D01*
X57505381Y-41155952D01*
X57505381Y-41394048D01*
X57553000Y-41489286D01*
X57600619Y-41536905D01*
X57695857Y-41584524D01*
X57791095Y-41584524D01*
X57933952Y-41536905D01*
X58505381Y-40965476D01*
X58505381Y-41584524D01*
X57505381Y-42441667D02*
X57505381Y-42251190D01*
X57553000Y-42155952D01*
X57600619Y-42108333D01*
X57743476Y-42013095D01*
X57933952Y-41965476D01*
X58314905Y-41965476D01*
X58410143Y-42013095D01*
X58457762Y-42060714D01*
X58505381Y-42155952D01*
X58505381Y-42346429D01*
X58457762Y-42441667D01*
X58410143Y-42489286D01*
X58314905Y-42536905D01*
X58076810Y-42536905D01*
X57981571Y-42489286D01*
X57933952Y-42441667D01*
X57886333Y-42346429D01*
X57886333Y-42155952D01*
X57933952Y-42060714D01*
X57981571Y-42013095D01*
X58076810Y-41965476D01*
X60410381Y-40632143D02*
X59934190Y-40298809D01*
X60410381Y-40060714D02*
X59410381Y-40060714D01*
X59410381Y-40441667D01*
X59458000Y-40536905D01*
X59505619Y-40584524D01*
X59600857Y-40632143D01*
X59743714Y-40632143D01*
X59838952Y-40584524D01*
X59886571Y-40536905D01*
X59934190Y-40441667D01*
X59934190Y-40060714D01*
X59505619Y-41013095D02*
X59458000Y-41060714D01*
X59410381Y-41155952D01*
X59410381Y-41394048D01*
X59458000Y-41489286D01*
X59505619Y-41536905D01*
X59600857Y-41584524D01*
X59696095Y-41584524D01*
X59838952Y-41536905D01*
X60410381Y-40965476D01*
X60410381Y-41584524D01*
X59410381Y-41917857D02*
X59410381Y-42584524D01*
X60410381Y-42155952D01*
X64220381Y-40632143D02*
X63744190Y-40298809D01*
X64220381Y-40060714D02*
X63220381Y-40060714D01*
X63220381Y-40441667D01*
X63268000Y-40536905D01*
X63315619Y-40584524D01*
X63410857Y-40632143D01*
X63553714Y-40632143D01*
X63648952Y-40584524D01*
X63696571Y-40536905D01*
X63744190Y-40441667D01*
X63744190Y-40060714D01*
X63315619Y-41013095D02*
X63268000Y-41060714D01*
X63220381Y-41155952D01*
X63220381Y-41394048D01*
X63268000Y-41489286D01*
X63315619Y-41536905D01*
X63410857Y-41584524D01*
X63506095Y-41584524D01*
X63648952Y-41536905D01*
X64220381Y-40965476D01*
X64220381Y-41584524D01*
X63648952Y-42155952D02*
X63601333Y-42060714D01*
X63553714Y-42013095D01*
X63458476Y-41965476D01*
X63410857Y-41965476D01*
X63315619Y-42013095D01*
X63268000Y-42060714D01*
X63220381Y-42155952D01*
X63220381Y-42346429D01*
X63268000Y-42441667D01*
X63315619Y-42489286D01*
X63410857Y-42536905D01*
X63458476Y-42536905D01*
X63553714Y-42489286D01*
X63601333Y-42441667D01*
X63648952Y-42346429D01*
X63648952Y-42155952D01*
X63696571Y-42060714D01*
X63744190Y-42013095D01*
X63839429Y-41965476D01*
X64029905Y-41965476D01*
X64125143Y-42013095D01*
X64172762Y-42060714D01*
X64220381Y-42155952D01*
X64220381Y-42346429D01*
X64172762Y-42441667D01*
X64125143Y-42489286D01*
X64029905Y-42536905D01*
X63839429Y-42536905D01*
X63744190Y-42489286D01*
X63696571Y-42441667D01*
X63648952Y-42346429D01*
X61525381Y-24122143D02*
X61049190Y-23788809D01*
X61525381Y-23550714D02*
X60525381Y-23550714D01*
X60525381Y-23931667D01*
X60573000Y-24026905D01*
X60620619Y-24074524D01*
X60715857Y-24122143D01*
X60858714Y-24122143D01*
X60953952Y-24074524D01*
X61001571Y-24026905D01*
X61049190Y-23931667D01*
X61049190Y-23550714D01*
X60620619Y-24503095D02*
X60573000Y-24550714D01*
X60525381Y-24645952D01*
X60525381Y-24884048D01*
X60573000Y-24979286D01*
X60620619Y-25026905D01*
X60715857Y-25074524D01*
X60811095Y-25074524D01*
X60953952Y-25026905D01*
X61525381Y-24455476D01*
X61525381Y-25074524D01*
X61525381Y-25550714D02*
X61525381Y-25741190D01*
X61477762Y-25836429D01*
X61430143Y-25884048D01*
X61287286Y-25979286D01*
X61096810Y-26026905D01*
X60715857Y-26026905D01*
X60620619Y-25979286D01*
X60573000Y-25931667D01*
X60525381Y-25836429D01*
X60525381Y-25645952D01*
X60573000Y-25550714D01*
X60620619Y-25503095D01*
X60715857Y-25455476D01*
X60953952Y-25455476D01*
X61049190Y-25503095D01*
X61096810Y-25550714D01*
X61144429Y-25645952D01*
X61144429Y-25836429D01*
X61096810Y-25931667D01*
X61049190Y-25979286D01*
X60953952Y-26026905D01*
X59620381Y-24122143D02*
X59144190Y-23788809D01*
X59620381Y-23550714D02*
X58620381Y-23550714D01*
X58620381Y-23931667D01*
X58668000Y-24026905D01*
X58715619Y-24074524D01*
X58810857Y-24122143D01*
X58953714Y-24122143D01*
X59048952Y-24074524D01*
X59096571Y-24026905D01*
X59144190Y-23931667D01*
X59144190Y-23550714D01*
X58620381Y-24455476D02*
X58620381Y-25074524D01*
X59001333Y-24741190D01*
X59001333Y-24884048D01*
X59048952Y-24979286D01*
X59096571Y-25026905D01*
X59191810Y-25074524D01*
X59429905Y-25074524D01*
X59525143Y-25026905D01*
X59572762Y-24979286D01*
X59620381Y-24884048D01*
X59620381Y-24598333D01*
X59572762Y-24503095D01*
X59525143Y-24455476D01*
X58620381Y-25693571D02*
X58620381Y-25788810D01*
X58668000Y-25884048D01*
X58715619Y-25931667D01*
X58810857Y-25979286D01*
X59001333Y-26026905D01*
X59239429Y-26026905D01*
X59429905Y-25979286D01*
X59525143Y-25931667D01*
X59572762Y-25884048D01*
X59620381Y-25788810D01*
X59620381Y-25693571D01*
X59572762Y-25598333D01*
X59525143Y-25550714D01*
X59429905Y-25503095D01*
X59239429Y-25455476D01*
X59001333Y-25455476D01*
X58810857Y-25503095D01*
X58715619Y-25550714D01*
X58668000Y-25598333D01*
X58620381Y-25693571D01*
X59570857Y-47202381D02*
X59904191Y-46726190D01*
X60142286Y-47202381D02*
X60142286Y-46202381D01*
X59761333Y-46202381D01*
X59666095Y-46250000D01*
X59618476Y-46297619D01*
X59570857Y-46392857D01*
X59570857Y-46535714D01*
X59618476Y-46630952D01*
X59666095Y-46678571D01*
X59761333Y-46726190D01*
X60142286Y-46726190D01*
X58666095Y-46202381D02*
X59142286Y-46202381D01*
X59189905Y-46678571D01*
X59142286Y-46630952D01*
X59047048Y-46583333D01*
X58808952Y-46583333D01*
X58713714Y-46630952D01*
X58666095Y-46678571D01*
X58618476Y-46773810D01*
X58618476Y-47011905D01*
X58666095Y-47107143D01*
X58713714Y-47154762D01*
X58808952Y-47202381D01*
X59047048Y-47202381D01*
X59142286Y-47154762D01*
X59189905Y-47107143D01*
X58237524Y-46297619D02*
X58189905Y-46250000D01*
X58094667Y-46202381D01*
X57856571Y-46202381D01*
X57761333Y-46250000D01*
X57713714Y-46297619D01*
X57666095Y-46392857D01*
X57666095Y-46488095D01*
X57713714Y-46630952D01*
X58285143Y-47202381D01*
X57666095Y-47202381D01*
X73024905Y-35012381D02*
X73024905Y-35821905D01*
X72977286Y-35917143D01*
X72929667Y-35964762D01*
X72834429Y-36012381D01*
X72643952Y-36012381D01*
X72548714Y-35964762D01*
X72501095Y-35917143D01*
X72453476Y-35821905D01*
X72453476Y-35012381D01*
X71453476Y-36012381D02*
X72024905Y-36012381D01*
X71739191Y-36012381D02*
X71739191Y-35012381D01*
X71834429Y-35155238D01*
X71929667Y-35250476D01*
X72024905Y-35298095D01*
X60285381Y-31654905D02*
X61094905Y-31654905D01*
X61190143Y-31702524D01*
X61237762Y-31750143D01*
X61285381Y-31845381D01*
X61285381Y-32035858D01*
X61237762Y-32131096D01*
X61190143Y-32178715D01*
X61094905Y-32226334D01*
X60285381Y-32226334D01*
X61285381Y-33226334D02*
X61285381Y-32654905D01*
X61285381Y-32940619D02*
X60285381Y-32940619D01*
X60428238Y-32845381D01*
X60523476Y-32750143D01*
X60571095Y-32654905D01*
X60285381Y-33845381D02*
X60285381Y-33940620D01*
X60333000Y-34035858D01*
X60380619Y-34083477D01*
X60475857Y-34131096D01*
X60666333Y-34178715D01*
X60904429Y-34178715D01*
X61094905Y-34131096D01*
X61190143Y-34083477D01*
X61237762Y-34035858D01*
X61285381Y-33940620D01*
X61285381Y-33845381D01*
X61237762Y-33750143D01*
X61190143Y-33702524D01*
X61094905Y-33654905D01*
X60904429Y-33607286D01*
X60666333Y-33607286D01*
X60475857Y-33654905D01*
X60380619Y-33702524D01*
X60333000Y-33750143D01*
X60285381Y-33845381D01*
M02*
