G04 #@! TF.FileFunction,Legend,Top*
%FSLAX46Y46*%
G04 Gerber Fmt 4.6, Leading zero omitted, Abs format (unit mm)*
G04 Created by KiCad (PCBNEW 4.0.5+dfsg1-4) date Mon Sep 10 20:21:19 2018*
%MOMM*%
%LPD*%
G01*
G04 APERTURE LIST*
%ADD10C,0.100000*%
%ADD11C,0.300000*%
%ADD12C,0.150000*%
%ADD13C,0.010000*%
G04 APERTURE END LIST*
D10*
D11*
X38422429Y-24036571D02*
X38422429Y-23036571D01*
X38422429Y-22536571D02*
X38351000Y-22608000D01*
X38422429Y-22679429D01*
X38493857Y-22608000D01*
X38422429Y-22536571D01*
X38422429Y-22679429D01*
X39065286Y-22679429D02*
X39136715Y-22608000D01*
X39279572Y-22536571D01*
X39636715Y-22536571D01*
X39779572Y-22608000D01*
X39851001Y-22679429D01*
X39922429Y-22822286D01*
X39922429Y-22965143D01*
X39851001Y-23179429D01*
X38993858Y-24036571D01*
X39922429Y-24036571D01*
X41208143Y-23965143D02*
X41065286Y-24036571D01*
X40779572Y-24036571D01*
X40636714Y-23965143D01*
X40565286Y-23893714D01*
X40493857Y-23750857D01*
X40493857Y-23322286D01*
X40565286Y-23179429D01*
X40636714Y-23108000D01*
X40779572Y-23036571D01*
X41065286Y-23036571D01*
X41208143Y-23108000D01*
X42779571Y-23036571D02*
X43351000Y-23036571D01*
X42993857Y-24036571D02*
X42993857Y-22750857D01*
X43065285Y-22608000D01*
X43208143Y-22536571D01*
X43351000Y-22536571D01*
X43851000Y-24036571D02*
X43851000Y-23036571D01*
X43851000Y-23322286D02*
X43922428Y-23179429D01*
X43993857Y-23108000D01*
X44136714Y-23036571D01*
X44279571Y-23036571D01*
X44993857Y-24036571D02*
X44850999Y-23965143D01*
X44779571Y-23893714D01*
X44708142Y-23750857D01*
X44708142Y-23322286D01*
X44779571Y-23179429D01*
X44850999Y-23108000D01*
X44993857Y-23036571D01*
X45208142Y-23036571D01*
X45350999Y-23108000D01*
X45422428Y-23179429D01*
X45493857Y-23322286D01*
X45493857Y-23750857D01*
X45422428Y-23893714D01*
X45350999Y-23965143D01*
X45208142Y-24036571D01*
X44993857Y-24036571D01*
X46136714Y-23036571D02*
X46136714Y-24036571D01*
X46136714Y-23179429D02*
X46208142Y-23108000D01*
X46351000Y-23036571D01*
X46565285Y-23036571D01*
X46708142Y-23108000D01*
X46779571Y-23250857D01*
X46779571Y-24036571D01*
X47279571Y-23036571D02*
X47851000Y-23036571D01*
X47493857Y-22536571D02*
X47493857Y-23822286D01*
X47565285Y-23965143D01*
X47708143Y-24036571D01*
X47851000Y-24036571D01*
X48351000Y-23036571D02*
X48351000Y-24536571D01*
X48351000Y-23108000D02*
X48493857Y-23036571D01*
X48779571Y-23036571D01*
X48922428Y-23108000D01*
X48993857Y-23179429D01*
X49065286Y-23322286D01*
X49065286Y-23750857D01*
X48993857Y-23893714D01*
X48922428Y-23965143D01*
X48779571Y-24036571D01*
X48493857Y-24036571D01*
X48351000Y-23965143D01*
X50351000Y-24036571D02*
X50351000Y-23250857D01*
X50279571Y-23108000D01*
X50136714Y-23036571D01*
X49851000Y-23036571D01*
X49708143Y-23108000D01*
X50351000Y-23965143D02*
X50208143Y-24036571D01*
X49851000Y-24036571D01*
X49708143Y-23965143D01*
X49636714Y-23822286D01*
X49636714Y-23679429D01*
X49708143Y-23536571D01*
X49851000Y-23465143D01*
X50208143Y-23465143D01*
X50351000Y-23393714D01*
X51065286Y-23036571D02*
X51065286Y-24036571D01*
X51065286Y-23179429D02*
X51136714Y-23108000D01*
X51279572Y-23036571D01*
X51493857Y-23036571D01*
X51636714Y-23108000D01*
X51708143Y-23250857D01*
X51708143Y-24036571D01*
X52993857Y-23965143D02*
X52851000Y-24036571D01*
X52565286Y-24036571D01*
X52422429Y-23965143D01*
X52351000Y-23822286D01*
X52351000Y-23250857D01*
X52422429Y-23108000D01*
X52565286Y-23036571D01*
X52851000Y-23036571D01*
X52993857Y-23108000D01*
X53065286Y-23250857D01*
X53065286Y-23393714D01*
X52351000Y-23536571D01*
X53922429Y-24036571D02*
X53779571Y-23965143D01*
X53708143Y-23822286D01*
X53708143Y-22536571D01*
X40208143Y-26586571D02*
X39351000Y-26586571D01*
X39779572Y-26586571D02*
X39779572Y-25086571D01*
X39636715Y-25300857D01*
X39493857Y-25443714D01*
X39351000Y-25515143D01*
X40708143Y-26586571D02*
X41493857Y-25586571D01*
X40708143Y-25586571D02*
X41493857Y-26586571D01*
X41922429Y-25086571D02*
X42922429Y-25086571D01*
X42279572Y-26586571D01*
X43422428Y-26515143D02*
X43565285Y-26586571D01*
X43851000Y-26586571D01*
X43993857Y-26515143D01*
X44065285Y-26372286D01*
X44065285Y-26300857D01*
X43993857Y-26158000D01*
X43851000Y-26086571D01*
X43636714Y-26086571D01*
X43493857Y-26015143D01*
X43422428Y-25872286D01*
X43422428Y-25800857D01*
X43493857Y-25658000D01*
X43636714Y-25586571D01*
X43851000Y-25586571D01*
X43993857Y-25658000D01*
X45279571Y-26515143D02*
X45136714Y-26586571D01*
X44851000Y-26586571D01*
X44708143Y-26515143D01*
X44636714Y-26372286D01*
X44636714Y-25800857D01*
X44708143Y-25658000D01*
X44851000Y-25586571D01*
X45136714Y-25586571D01*
X45279571Y-25658000D01*
X45351000Y-25800857D01*
X45351000Y-25943714D01*
X44636714Y-26086571D01*
X46636714Y-25586571D02*
X46636714Y-26800857D01*
X46565285Y-26943714D01*
X46493857Y-27015143D01*
X46351000Y-27086571D01*
X46136714Y-27086571D01*
X45993857Y-27015143D01*
X46636714Y-26515143D02*
X46493857Y-26586571D01*
X46208143Y-26586571D01*
X46065285Y-26515143D01*
X45993857Y-26443714D01*
X45922428Y-26300857D01*
X45922428Y-25872286D01*
X45993857Y-25729429D01*
X46065285Y-25658000D01*
X46208143Y-25586571D01*
X46493857Y-25586571D01*
X46636714Y-25658000D01*
X46993857Y-26729429D02*
X48136714Y-26729429D01*
X49136714Y-25586571D02*
X49136714Y-26586571D01*
X48779571Y-25015143D02*
X48422428Y-26086571D01*
X49351000Y-26086571D01*
X49922428Y-26586571D02*
X49922428Y-25086571D01*
X49922428Y-25658000D02*
X50065285Y-25586571D01*
X50350999Y-25586571D01*
X50493856Y-25658000D01*
X50565285Y-25729429D01*
X50636714Y-25872286D01*
X50636714Y-26300857D01*
X50565285Y-26443714D01*
X50493856Y-26515143D01*
X50350999Y-26586571D01*
X50065285Y-26586571D01*
X49922428Y-26515143D01*
X51065285Y-25586571D02*
X51636714Y-25586571D01*
X51279571Y-25086571D02*
X51279571Y-26372286D01*
X51350999Y-26515143D01*
X51493857Y-26586571D01*
X51636714Y-26586571D01*
X52136714Y-25586571D02*
X52136714Y-26586571D01*
X52136714Y-25729429D02*
X52208142Y-25658000D01*
X52351000Y-25586571D01*
X52565285Y-25586571D01*
X52708142Y-25658000D01*
X52779571Y-25800857D01*
X52779571Y-26586571D01*
X39743858Y-28136571D02*
X40101001Y-29136571D01*
X40458143Y-28136571D01*
X41815286Y-29136571D02*
X40958143Y-29136571D01*
X41386715Y-29136571D02*
X41386715Y-27636571D01*
X41243858Y-27850857D01*
X41101000Y-27993714D01*
X40958143Y-28065143D01*
X42458143Y-28993714D02*
X42529571Y-29065143D01*
X42458143Y-29136571D01*
X42386714Y-29065143D01*
X42458143Y-28993714D01*
X42458143Y-29136571D01*
X43458143Y-27636571D02*
X43601000Y-27636571D01*
X43743857Y-27708000D01*
X43815286Y-27779429D01*
X43886715Y-27922286D01*
X43958143Y-28208000D01*
X43958143Y-28565143D01*
X43886715Y-28850857D01*
X43815286Y-28993714D01*
X43743857Y-29065143D01*
X43601000Y-29136571D01*
X43458143Y-29136571D01*
X43315286Y-29065143D01*
X43243857Y-28993714D01*
X43172429Y-28850857D01*
X43101000Y-28565143D01*
X43101000Y-28208000D01*
X43172429Y-27922286D01*
X43243857Y-27779429D01*
X43315286Y-27708000D01*
X43458143Y-27636571D01*
X45743857Y-28565143D02*
X46886714Y-28565143D01*
X48743857Y-29136571D02*
X48743857Y-27636571D01*
X49101000Y-27636571D01*
X49315285Y-27708000D01*
X49458143Y-27850857D01*
X49529571Y-27993714D01*
X49601000Y-28279429D01*
X49601000Y-28493714D01*
X49529571Y-28779429D01*
X49458143Y-28922286D01*
X49315285Y-29065143D01*
X49101000Y-29136571D01*
X48743857Y-29136571D01*
X50029571Y-27636571D02*
X50529571Y-29136571D01*
X51029571Y-27636571D01*
X52386714Y-29136571D02*
X51886714Y-28422286D01*
X51529571Y-29136571D02*
X51529571Y-27636571D01*
X52100999Y-27636571D01*
X52243857Y-27708000D01*
X52315285Y-27779429D01*
X52386714Y-27922286D01*
X52386714Y-28136571D01*
X52315285Y-28279429D01*
X52243857Y-28350857D01*
X52100999Y-28422286D01*
X51529571Y-28422286D01*
D12*
X64063000Y-38020000D02*
G75*
G03X64063000Y-38020000I-500000J0D01*
G01*
X62563000Y-37020000D02*
X62563000Y-34020000D01*
X57563000Y-38020000D02*
X61563000Y-38020000D01*
X56563000Y-34020000D02*
X56563000Y-37020000D01*
X57563000Y-33020000D02*
X61563000Y-33020000D01*
X62563000Y-29020000D02*
X62563000Y-32020000D01*
X56563000Y-29020000D02*
X56563000Y-32020000D01*
X57563000Y-28020000D02*
X61563000Y-28020000D01*
X54563000Y-27020000D02*
X54563000Y-39020000D01*
X54563000Y-39020000D02*
X64563000Y-39020000D01*
X64563000Y-39020000D02*
X64563000Y-27020000D01*
X64563000Y-27020000D02*
X54563000Y-27020000D01*
X45965000Y-38701000D02*
X42365000Y-38701000D01*
X45965000Y-40801000D02*
X42365000Y-40801000D01*
X43915000Y-40051000D02*
X43915000Y-39451000D01*
X43915000Y-39451000D02*
X44215000Y-39751000D01*
X44215000Y-39751000D02*
X44015000Y-39951000D01*
X44015000Y-39951000D02*
X44015000Y-39701000D01*
X44015000Y-39701000D02*
X44065000Y-39751000D01*
X44315000Y-40251000D02*
X44315000Y-39251000D01*
X43815000Y-39751000D02*
X43315000Y-39751000D01*
X44315000Y-39751000D02*
X43815000Y-40251000D01*
X43815000Y-40251000D02*
X43815000Y-39251000D01*
X43815000Y-39251000D02*
X44315000Y-39751000D01*
X45965000Y-41622000D02*
X42365000Y-41622000D01*
X45965000Y-43722000D02*
X42365000Y-43722000D01*
X43915000Y-42972000D02*
X43915000Y-42372000D01*
X43915000Y-42372000D02*
X44215000Y-42672000D01*
X44215000Y-42672000D02*
X44015000Y-42872000D01*
X44015000Y-42872000D02*
X44015000Y-42622000D01*
X44015000Y-42622000D02*
X44065000Y-42672000D01*
X44315000Y-43172000D02*
X44315000Y-42172000D01*
X43815000Y-42672000D02*
X43315000Y-42672000D01*
X44315000Y-42672000D02*
X43815000Y-43172000D01*
X43815000Y-43172000D02*
X43815000Y-42172000D01*
X43815000Y-42172000D02*
X44315000Y-42672000D01*
X42688000Y-36009000D02*
X44688000Y-36009000D01*
X44688000Y-38159000D02*
X42688000Y-38159000D01*
X42688000Y-33469000D02*
X44688000Y-33469000D01*
X44688000Y-35619000D02*
X42688000Y-35619000D01*
X72263000Y-31242000D02*
X72263000Y-27178000D01*
X67183000Y-31242000D02*
X67183000Y-27178000D01*
X79883000Y-31242000D02*
X79883000Y-27178000D01*
X74803000Y-31242000D02*
X74803000Y-27178000D01*
X74803000Y-37338000D02*
X74803000Y-41402000D01*
X79883000Y-37338000D02*
X79883000Y-41402000D01*
X67183000Y-37338000D02*
X67183000Y-41402000D01*
X72263000Y-37338000D02*
X72263000Y-41402000D01*
X82931000Y-32258000D02*
X82931000Y-39878000D01*
X85471000Y-32258000D02*
X85471000Y-39878000D01*
X85751000Y-29438000D02*
X85751000Y-30988000D01*
X82931000Y-39878000D02*
X85471000Y-39878000D01*
X85471000Y-32258000D02*
X82931000Y-32258000D01*
X82651000Y-30988000D02*
X82651000Y-29438000D01*
X82651000Y-29438000D02*
X85751000Y-29438000D01*
X33782000Y-32258000D02*
X33782000Y-39878000D01*
X36322000Y-32258000D02*
X36322000Y-39878000D01*
X36602000Y-29438000D02*
X36602000Y-30988000D01*
X33782000Y-39878000D02*
X36322000Y-39878000D01*
X36322000Y-32258000D02*
X33782000Y-32258000D01*
X33502000Y-30988000D02*
X33502000Y-29438000D01*
X33502000Y-29438000D02*
X36602000Y-29438000D01*
D13*
G36*
X47621241Y-35505184D02*
X47647753Y-35518282D01*
X47680447Y-35541106D01*
X47704275Y-35565996D01*
X47720594Y-35597249D01*
X47730760Y-35639166D01*
X47736128Y-35696044D01*
X47738056Y-35772184D01*
X47738169Y-35804917D01*
X47737839Y-35876656D01*
X47736473Y-35927927D01*
X47733500Y-35963404D01*
X47728351Y-35987763D01*
X47720457Y-36005680D01*
X47712243Y-36017902D01*
X47659813Y-36069905D01*
X47598070Y-36101184D01*
X47531464Y-36110592D01*
X47464442Y-36096980D01*
X47443208Y-36087354D01*
X47392376Y-36060859D01*
X47392376Y-36476052D01*
X47429475Y-36456868D01*
X47478357Y-36442025D01*
X47538439Y-36438222D01*
X47598436Y-36445243D01*
X47643744Y-36461013D01*
X47681325Y-36491047D01*
X47713436Y-36534024D01*
X47715850Y-36538436D01*
X47726033Y-36559221D01*
X47733470Y-36580170D01*
X47738589Y-36605548D01*
X47741819Y-36639618D01*
X47743587Y-36686641D01*
X47744323Y-36750882D01*
X47744456Y-36823176D01*
X47744456Y-37053822D01*
X47606139Y-37053822D01*
X47606139Y-36628533D01*
X47567451Y-36595979D01*
X47527262Y-36569940D01*
X47489203Y-36565205D01*
X47450934Y-36577389D01*
X47430538Y-36589320D01*
X47415358Y-36606313D01*
X47404562Y-36631995D01*
X47397317Y-36669991D01*
X47392792Y-36723926D01*
X47390156Y-36797425D01*
X47389228Y-36846347D01*
X47386089Y-37047535D01*
X47320074Y-37051336D01*
X47254060Y-37055136D01*
X47254060Y-35806650D01*
X47392376Y-35806650D01*
X47395903Y-35876254D01*
X47407785Y-35924569D01*
X47429980Y-35954631D01*
X47464441Y-35969471D01*
X47499258Y-35972436D01*
X47538671Y-35969028D01*
X47564829Y-35955617D01*
X47581186Y-35937896D01*
X47594063Y-35918835D01*
X47601728Y-35897601D01*
X47605139Y-35867849D01*
X47605251Y-35823236D01*
X47604103Y-35785880D01*
X47601468Y-35729604D01*
X47597544Y-35692658D01*
X47590937Y-35669223D01*
X47580251Y-35653480D01*
X47570167Y-35644380D01*
X47528030Y-35624537D01*
X47478160Y-35621332D01*
X47449524Y-35628168D01*
X47421172Y-35652464D01*
X47402391Y-35699728D01*
X47393288Y-35769624D01*
X47392376Y-35806650D01*
X47254060Y-35806650D01*
X47254060Y-35494614D01*
X47323218Y-35494614D01*
X47364740Y-35496256D01*
X47386162Y-35502087D01*
X47392374Y-35513461D01*
X47392376Y-35513798D01*
X47395258Y-35524938D01*
X47407970Y-35523673D01*
X47433243Y-35511433D01*
X47492131Y-35492707D01*
X47558385Y-35490739D01*
X47621241Y-35505184D01*
X47621241Y-35505184D01*
G37*
X47621241Y-35505184D02*
X47647753Y-35518282D01*
X47680447Y-35541106D01*
X47704275Y-35565996D01*
X47720594Y-35597249D01*
X47730760Y-35639166D01*
X47736128Y-35696044D01*
X47738056Y-35772184D01*
X47738169Y-35804917D01*
X47737839Y-35876656D01*
X47736473Y-35927927D01*
X47733500Y-35963404D01*
X47728351Y-35987763D01*
X47720457Y-36005680D01*
X47712243Y-36017902D01*
X47659813Y-36069905D01*
X47598070Y-36101184D01*
X47531464Y-36110592D01*
X47464442Y-36096980D01*
X47443208Y-36087354D01*
X47392376Y-36060859D01*
X47392376Y-36476052D01*
X47429475Y-36456868D01*
X47478357Y-36442025D01*
X47538439Y-36438222D01*
X47598436Y-36445243D01*
X47643744Y-36461013D01*
X47681325Y-36491047D01*
X47713436Y-36534024D01*
X47715850Y-36538436D01*
X47726033Y-36559221D01*
X47733470Y-36580170D01*
X47738589Y-36605548D01*
X47741819Y-36639618D01*
X47743587Y-36686641D01*
X47744323Y-36750882D01*
X47744456Y-36823176D01*
X47744456Y-37053822D01*
X47606139Y-37053822D01*
X47606139Y-36628533D01*
X47567451Y-36595979D01*
X47527262Y-36569940D01*
X47489203Y-36565205D01*
X47450934Y-36577389D01*
X47430538Y-36589320D01*
X47415358Y-36606313D01*
X47404562Y-36631995D01*
X47397317Y-36669991D01*
X47392792Y-36723926D01*
X47390156Y-36797425D01*
X47389228Y-36846347D01*
X47386089Y-37047535D01*
X47320074Y-37051336D01*
X47254060Y-37055136D01*
X47254060Y-35806650D01*
X47392376Y-35806650D01*
X47395903Y-35876254D01*
X47407785Y-35924569D01*
X47429980Y-35954631D01*
X47464441Y-35969471D01*
X47499258Y-35972436D01*
X47538671Y-35969028D01*
X47564829Y-35955617D01*
X47581186Y-35937896D01*
X47594063Y-35918835D01*
X47601728Y-35897601D01*
X47605139Y-35867849D01*
X47605251Y-35823236D01*
X47604103Y-35785880D01*
X47601468Y-35729604D01*
X47597544Y-35692658D01*
X47590937Y-35669223D01*
X47580251Y-35653480D01*
X47570167Y-35644380D01*
X47528030Y-35624537D01*
X47478160Y-35621332D01*
X47449524Y-35628168D01*
X47421172Y-35652464D01*
X47402391Y-35699728D01*
X47393288Y-35769624D01*
X47392376Y-35806650D01*
X47254060Y-35806650D01*
X47254060Y-35494614D01*
X47323218Y-35494614D01*
X47364740Y-35496256D01*
X47386162Y-35502087D01*
X47392374Y-35513461D01*
X47392376Y-35513798D01*
X47395258Y-35524938D01*
X47407970Y-35523673D01*
X47433243Y-35511433D01*
X47492131Y-35492707D01*
X47558385Y-35490739D01*
X47621241Y-35505184D01*
G36*
X48145790Y-36442555D02*
X48204945Y-36458339D01*
X48249977Y-36486948D01*
X48281754Y-36524419D01*
X48291634Y-36540411D01*
X48298927Y-36557163D01*
X48304026Y-36578592D01*
X48307321Y-36608616D01*
X48309203Y-36651154D01*
X48310063Y-36710122D01*
X48310293Y-36789440D01*
X48310297Y-36810484D01*
X48310297Y-37053822D01*
X48249941Y-37053822D01*
X48211443Y-37051126D01*
X48182977Y-37044295D01*
X48175845Y-37040083D01*
X48156348Y-37032813D01*
X48136434Y-37040083D01*
X48103647Y-37049160D01*
X48056022Y-37052813D01*
X48003236Y-37051228D01*
X47954964Y-37044589D01*
X47926782Y-37036072D01*
X47872247Y-37001063D01*
X47838165Y-36952479D01*
X47822843Y-36887882D01*
X47822701Y-36886223D01*
X47824045Y-36857566D01*
X47945644Y-36857566D01*
X47956274Y-36890161D01*
X47973590Y-36908505D01*
X48008348Y-36922379D01*
X48054227Y-36927917D01*
X48101012Y-36925191D01*
X48138486Y-36914274D01*
X48148985Y-36907269D01*
X48167332Y-36874904D01*
X48171980Y-36838111D01*
X48171980Y-36789763D01*
X48102418Y-36789763D01*
X48036333Y-36794850D01*
X47986236Y-36809263D01*
X47955071Y-36831729D01*
X47945644Y-36857566D01*
X47824045Y-36857566D01*
X47826013Y-36815647D01*
X47849290Y-36759845D01*
X47893052Y-36717647D01*
X47899101Y-36713808D01*
X47925093Y-36701309D01*
X47957265Y-36693740D01*
X48002240Y-36690061D01*
X48055669Y-36689216D01*
X48171980Y-36689169D01*
X48171980Y-36640411D01*
X48167047Y-36602581D01*
X48154457Y-36577236D01*
X48152983Y-36575887D01*
X48124966Y-36564800D01*
X48082674Y-36560503D01*
X48035936Y-36562615D01*
X47994582Y-36570756D01*
X47970043Y-36582965D01*
X47956747Y-36592746D01*
X47942706Y-36594613D01*
X47923329Y-36586600D01*
X47894024Y-36566739D01*
X47850197Y-36533063D01*
X47846175Y-36529909D01*
X47848236Y-36518236D01*
X47865432Y-36498822D01*
X47891567Y-36477248D01*
X47920448Y-36459096D01*
X47929522Y-36454809D01*
X47962620Y-36446256D01*
X48011120Y-36440155D01*
X48065305Y-36437708D01*
X48067839Y-36437703D01*
X48145790Y-36442555D01*
X48145790Y-36442555D01*
G37*
X48145790Y-36442555D02*
X48204945Y-36458339D01*
X48249977Y-36486948D01*
X48281754Y-36524419D01*
X48291634Y-36540411D01*
X48298927Y-36557163D01*
X48304026Y-36578592D01*
X48307321Y-36608616D01*
X48309203Y-36651154D01*
X48310063Y-36710122D01*
X48310293Y-36789440D01*
X48310297Y-36810484D01*
X48310297Y-37053822D01*
X48249941Y-37053822D01*
X48211443Y-37051126D01*
X48182977Y-37044295D01*
X48175845Y-37040083D01*
X48156348Y-37032813D01*
X48136434Y-37040083D01*
X48103647Y-37049160D01*
X48056022Y-37052813D01*
X48003236Y-37051228D01*
X47954964Y-37044589D01*
X47926782Y-37036072D01*
X47872247Y-37001063D01*
X47838165Y-36952479D01*
X47822843Y-36887882D01*
X47822701Y-36886223D01*
X47824045Y-36857566D01*
X47945644Y-36857566D01*
X47956274Y-36890161D01*
X47973590Y-36908505D01*
X48008348Y-36922379D01*
X48054227Y-36927917D01*
X48101012Y-36925191D01*
X48138486Y-36914274D01*
X48148985Y-36907269D01*
X48167332Y-36874904D01*
X48171980Y-36838111D01*
X48171980Y-36789763D01*
X48102418Y-36789763D01*
X48036333Y-36794850D01*
X47986236Y-36809263D01*
X47955071Y-36831729D01*
X47945644Y-36857566D01*
X47824045Y-36857566D01*
X47826013Y-36815647D01*
X47849290Y-36759845D01*
X47893052Y-36717647D01*
X47899101Y-36713808D01*
X47925093Y-36701309D01*
X47957265Y-36693740D01*
X48002240Y-36690061D01*
X48055669Y-36689216D01*
X48171980Y-36689169D01*
X48171980Y-36640411D01*
X48167047Y-36602581D01*
X48154457Y-36577236D01*
X48152983Y-36575887D01*
X48124966Y-36564800D01*
X48082674Y-36560503D01*
X48035936Y-36562615D01*
X47994582Y-36570756D01*
X47970043Y-36582965D01*
X47956747Y-36592746D01*
X47942706Y-36594613D01*
X47923329Y-36586600D01*
X47894024Y-36566739D01*
X47850197Y-36533063D01*
X47846175Y-36529909D01*
X47848236Y-36518236D01*
X47865432Y-36498822D01*
X47891567Y-36477248D01*
X47920448Y-36459096D01*
X47929522Y-36454809D01*
X47962620Y-36446256D01*
X48011120Y-36440155D01*
X48065305Y-36437708D01*
X48067839Y-36437703D01*
X48145790Y-36442555D01*
G36*
X48536644Y-36439020D02*
X48555461Y-36444660D01*
X48561527Y-36457053D01*
X48561782Y-36462647D01*
X48562871Y-36478230D01*
X48570368Y-36480676D01*
X48590619Y-36469993D01*
X48602649Y-36462694D01*
X48640600Y-36447063D01*
X48685928Y-36439334D01*
X48733456Y-36438740D01*
X48778005Y-36444513D01*
X48814398Y-36455884D01*
X48837457Y-36472088D01*
X48842004Y-36492355D01*
X48839709Y-36497843D01*
X48822980Y-36520626D01*
X48797037Y-36548647D01*
X48792345Y-36553177D01*
X48767617Y-36574005D01*
X48746282Y-36580735D01*
X48716445Y-36576038D01*
X48704492Y-36572917D01*
X48667295Y-36565421D01*
X48641141Y-36568792D01*
X48619054Y-36580681D01*
X48598822Y-36596635D01*
X48583921Y-36616700D01*
X48573566Y-36644702D01*
X48566971Y-36684467D01*
X48563351Y-36739823D01*
X48561922Y-36814594D01*
X48561782Y-36859740D01*
X48561782Y-37053822D01*
X48436040Y-37053822D01*
X48436040Y-36437683D01*
X48498911Y-36437683D01*
X48536644Y-36439020D01*
X48536644Y-36439020D01*
G37*
X48536644Y-36439020D02*
X48555461Y-36444660D01*
X48561527Y-36457053D01*
X48561782Y-36462647D01*
X48562871Y-36478230D01*
X48570368Y-36480676D01*
X48590619Y-36469993D01*
X48602649Y-36462694D01*
X48640600Y-36447063D01*
X48685928Y-36439334D01*
X48733456Y-36438740D01*
X48778005Y-36444513D01*
X48814398Y-36455884D01*
X48837457Y-36472088D01*
X48842004Y-36492355D01*
X48839709Y-36497843D01*
X48822980Y-36520626D01*
X48797037Y-36548647D01*
X48792345Y-36553177D01*
X48767617Y-36574005D01*
X48746282Y-36580735D01*
X48716445Y-36576038D01*
X48704492Y-36572917D01*
X48667295Y-36565421D01*
X48641141Y-36568792D01*
X48619054Y-36580681D01*
X48598822Y-36596635D01*
X48583921Y-36616700D01*
X48573566Y-36644702D01*
X48566971Y-36684467D01*
X48563351Y-36739823D01*
X48561922Y-36814594D01*
X48561782Y-36859740D01*
X48561782Y-37053822D01*
X48436040Y-37053822D01*
X48436040Y-36437683D01*
X48498911Y-36437683D01*
X48536644Y-36439020D01*
G36*
X49328812Y-37053822D02*
X49259654Y-37053822D01*
X49219512Y-37052645D01*
X49198606Y-37047772D01*
X49191078Y-37037186D01*
X49190495Y-37030029D01*
X49189226Y-37015676D01*
X49181221Y-37012923D01*
X49160185Y-37021771D01*
X49143827Y-37030029D01*
X49081023Y-37049597D01*
X49012752Y-37050729D01*
X48957248Y-37036135D01*
X48905562Y-37000877D01*
X48866162Y-36948835D01*
X48844587Y-36887450D01*
X48844038Y-36884018D01*
X48840833Y-36846571D01*
X48839239Y-36792813D01*
X48839367Y-36752155D01*
X48976721Y-36752155D01*
X48979903Y-36806194D01*
X48987141Y-36850735D01*
X48996940Y-36875888D01*
X49034011Y-36910260D01*
X49078026Y-36922582D01*
X49123416Y-36912618D01*
X49162203Y-36882895D01*
X49176892Y-36862905D01*
X49185481Y-36839050D01*
X49189504Y-36804230D01*
X49190495Y-36751930D01*
X49188722Y-36700139D01*
X49184037Y-36654634D01*
X49177397Y-36624181D01*
X49176290Y-36621452D01*
X49149509Y-36589000D01*
X49110421Y-36571183D01*
X49066685Y-36568306D01*
X49025962Y-36580674D01*
X48995913Y-36608593D01*
X48992796Y-36614148D01*
X48983039Y-36648022D01*
X48977723Y-36696728D01*
X48976721Y-36752155D01*
X48839367Y-36752155D01*
X48839432Y-36731540D01*
X48840336Y-36698563D01*
X48846486Y-36616981D01*
X48859267Y-36555730D01*
X48880529Y-36510449D01*
X48912122Y-36476779D01*
X48942793Y-36457014D01*
X48985646Y-36443120D01*
X49038944Y-36438354D01*
X49093520Y-36442236D01*
X49140208Y-36454282D01*
X49164876Y-36468693D01*
X49190495Y-36491878D01*
X49190495Y-36198773D01*
X49328812Y-36198773D01*
X49328812Y-37053822D01*
X49328812Y-37053822D01*
G37*
X49328812Y-37053822D02*
X49259654Y-37053822D01*
X49219512Y-37052645D01*
X49198606Y-37047772D01*
X49191078Y-37037186D01*
X49190495Y-37030029D01*
X49189226Y-37015676D01*
X49181221Y-37012923D01*
X49160185Y-37021771D01*
X49143827Y-37030029D01*
X49081023Y-37049597D01*
X49012752Y-37050729D01*
X48957248Y-37036135D01*
X48905562Y-37000877D01*
X48866162Y-36948835D01*
X48844587Y-36887450D01*
X48844038Y-36884018D01*
X48840833Y-36846571D01*
X48839239Y-36792813D01*
X48839367Y-36752155D01*
X48976721Y-36752155D01*
X48979903Y-36806194D01*
X48987141Y-36850735D01*
X48996940Y-36875888D01*
X49034011Y-36910260D01*
X49078026Y-36922582D01*
X49123416Y-36912618D01*
X49162203Y-36882895D01*
X49176892Y-36862905D01*
X49185481Y-36839050D01*
X49189504Y-36804230D01*
X49190495Y-36751930D01*
X49188722Y-36700139D01*
X49184037Y-36654634D01*
X49177397Y-36624181D01*
X49176290Y-36621452D01*
X49149509Y-36589000D01*
X49110421Y-36571183D01*
X49066685Y-36568306D01*
X49025962Y-36580674D01*
X48995913Y-36608593D01*
X48992796Y-36614148D01*
X48983039Y-36648022D01*
X48977723Y-36696728D01*
X48976721Y-36752155D01*
X48839367Y-36752155D01*
X48839432Y-36731540D01*
X48840336Y-36698563D01*
X48846486Y-36616981D01*
X48859267Y-36555730D01*
X48880529Y-36510449D01*
X48912122Y-36476779D01*
X48942793Y-36457014D01*
X48985646Y-36443120D01*
X49038944Y-36438354D01*
X49093520Y-36442236D01*
X49140208Y-36454282D01*
X49164876Y-36468693D01*
X49190495Y-36491878D01*
X49190495Y-36198773D01*
X49328812Y-36198773D01*
X49328812Y-37053822D01*
G36*
X49811524Y-36440237D02*
X49861255Y-36443971D01*
X49991291Y-36833773D01*
X50011678Y-36764614D01*
X50023946Y-36721874D01*
X50040085Y-36664115D01*
X50057512Y-36600625D01*
X50066726Y-36566570D01*
X50101388Y-36437683D01*
X50244391Y-36437683D01*
X50201646Y-36572857D01*
X50180596Y-36639342D01*
X50155167Y-36719539D01*
X50128610Y-36803193D01*
X50104902Y-36877782D01*
X50050902Y-37047535D01*
X49992598Y-37051328D01*
X49934295Y-37055122D01*
X49902679Y-36950734D01*
X49883182Y-36885889D01*
X49861904Y-36814400D01*
X49843308Y-36751263D01*
X49842574Y-36748750D01*
X49828684Y-36705969D01*
X49816429Y-36676779D01*
X49807846Y-36665741D01*
X49806082Y-36667018D01*
X49799891Y-36684130D01*
X49788128Y-36720787D01*
X49772225Y-36772378D01*
X49753614Y-36834294D01*
X49743543Y-36868352D01*
X49689007Y-37053822D01*
X49573264Y-37053822D01*
X49480737Y-36761471D01*
X49454744Y-36679462D01*
X49431066Y-36604987D01*
X49410820Y-36541544D01*
X49395126Y-36492632D01*
X49385102Y-36461749D01*
X49382055Y-36452726D01*
X49384467Y-36443487D01*
X49403408Y-36439441D01*
X49442823Y-36439846D01*
X49448993Y-36440152D01*
X49522086Y-36443971D01*
X49569957Y-36620010D01*
X49587553Y-36684211D01*
X49603277Y-36740649D01*
X49615746Y-36784422D01*
X49623574Y-36810630D01*
X49625020Y-36814903D01*
X49631014Y-36809990D01*
X49643101Y-36784532D01*
X49659893Y-36741997D01*
X49680003Y-36685850D01*
X49697003Y-36635130D01*
X49761794Y-36436504D01*
X49811524Y-36440237D01*
X49811524Y-36440237D01*
G37*
X49811524Y-36440237D02*
X49861255Y-36443971D01*
X49991291Y-36833773D01*
X50011678Y-36764614D01*
X50023946Y-36721874D01*
X50040085Y-36664115D01*
X50057512Y-36600625D01*
X50066726Y-36566570D01*
X50101388Y-36437683D01*
X50244391Y-36437683D01*
X50201646Y-36572857D01*
X50180596Y-36639342D01*
X50155167Y-36719539D01*
X50128610Y-36803193D01*
X50104902Y-36877782D01*
X50050902Y-37047535D01*
X49992598Y-37051328D01*
X49934295Y-37055122D01*
X49902679Y-36950734D01*
X49883182Y-36885889D01*
X49861904Y-36814400D01*
X49843308Y-36751263D01*
X49842574Y-36748750D01*
X49828684Y-36705969D01*
X49816429Y-36676779D01*
X49807846Y-36665741D01*
X49806082Y-36667018D01*
X49799891Y-36684130D01*
X49788128Y-36720787D01*
X49772225Y-36772378D01*
X49753614Y-36834294D01*
X49743543Y-36868352D01*
X49689007Y-37053822D01*
X49573264Y-37053822D01*
X49480737Y-36761471D01*
X49454744Y-36679462D01*
X49431066Y-36604987D01*
X49410820Y-36541544D01*
X49395126Y-36492632D01*
X49385102Y-36461749D01*
X49382055Y-36452726D01*
X49384467Y-36443487D01*
X49403408Y-36439441D01*
X49442823Y-36439846D01*
X49448993Y-36440152D01*
X49522086Y-36443971D01*
X49569957Y-36620010D01*
X49587553Y-36684211D01*
X49603277Y-36740649D01*
X49615746Y-36784422D01*
X49623574Y-36810630D01*
X49625020Y-36814903D01*
X49631014Y-36809990D01*
X49643101Y-36784532D01*
X49659893Y-36741997D01*
X49680003Y-36685850D01*
X49697003Y-36635130D01*
X49761794Y-36436504D01*
X49811524Y-36440237D01*
G36*
X50568411Y-36441417D02*
X50621411Y-36454290D01*
X50636731Y-36461110D01*
X50666428Y-36478974D01*
X50689220Y-36499093D01*
X50706083Y-36524962D01*
X50717998Y-36560073D01*
X50725942Y-36607920D01*
X50730894Y-36671996D01*
X50733831Y-36755794D01*
X50734947Y-36811768D01*
X50739052Y-37053822D01*
X50668932Y-37053822D01*
X50626393Y-37052038D01*
X50604476Y-37045942D01*
X50598812Y-37035706D01*
X50595821Y-37024637D01*
X50582451Y-37026754D01*
X50564233Y-37035629D01*
X50518624Y-37049233D01*
X50460007Y-37052899D01*
X50398354Y-37046903D01*
X50343638Y-37031521D01*
X50338730Y-37029386D01*
X50288723Y-36994255D01*
X50255756Y-36945419D01*
X50240587Y-36888333D01*
X50241746Y-36867824D01*
X50365508Y-36867824D01*
X50376413Y-36895425D01*
X50408745Y-36915204D01*
X50460910Y-36925819D01*
X50488787Y-36927228D01*
X50535247Y-36923620D01*
X50566129Y-36909597D01*
X50573664Y-36902931D01*
X50594076Y-36866666D01*
X50598812Y-36833773D01*
X50598812Y-36789763D01*
X50537513Y-36789763D01*
X50466256Y-36793395D01*
X50416276Y-36804818D01*
X50384696Y-36824824D01*
X50377626Y-36833743D01*
X50365508Y-36867824D01*
X50241746Y-36867824D01*
X50243971Y-36828456D01*
X50266663Y-36771244D01*
X50297624Y-36732580D01*
X50316376Y-36715864D01*
X50334733Y-36704878D01*
X50358619Y-36698180D01*
X50393957Y-36694326D01*
X50446669Y-36691873D01*
X50467577Y-36691168D01*
X50598812Y-36686879D01*
X50598620Y-36647158D01*
X50593537Y-36605405D01*
X50575162Y-36580158D01*
X50538039Y-36564030D01*
X50537043Y-36563742D01*
X50484410Y-36557400D01*
X50432906Y-36565684D01*
X50394630Y-36585827D01*
X50379272Y-36595773D01*
X50362730Y-36594397D01*
X50337275Y-36579987D01*
X50322328Y-36569817D01*
X50293091Y-36548088D01*
X50274980Y-36531800D01*
X50272074Y-36527137D01*
X50284040Y-36503005D01*
X50319396Y-36474185D01*
X50334753Y-36464461D01*
X50378901Y-36447714D01*
X50438398Y-36438227D01*
X50504487Y-36436095D01*
X50568411Y-36441417D01*
X50568411Y-36441417D01*
G37*
X50568411Y-36441417D02*
X50621411Y-36454290D01*
X50636731Y-36461110D01*
X50666428Y-36478974D01*
X50689220Y-36499093D01*
X50706083Y-36524962D01*
X50717998Y-36560073D01*
X50725942Y-36607920D01*
X50730894Y-36671996D01*
X50733831Y-36755794D01*
X50734947Y-36811768D01*
X50739052Y-37053822D01*
X50668932Y-37053822D01*
X50626393Y-37052038D01*
X50604476Y-37045942D01*
X50598812Y-37035706D01*
X50595821Y-37024637D01*
X50582451Y-37026754D01*
X50564233Y-37035629D01*
X50518624Y-37049233D01*
X50460007Y-37052899D01*
X50398354Y-37046903D01*
X50343638Y-37031521D01*
X50338730Y-37029386D01*
X50288723Y-36994255D01*
X50255756Y-36945419D01*
X50240587Y-36888333D01*
X50241746Y-36867824D01*
X50365508Y-36867824D01*
X50376413Y-36895425D01*
X50408745Y-36915204D01*
X50460910Y-36925819D01*
X50488787Y-36927228D01*
X50535247Y-36923620D01*
X50566129Y-36909597D01*
X50573664Y-36902931D01*
X50594076Y-36866666D01*
X50598812Y-36833773D01*
X50598812Y-36789763D01*
X50537513Y-36789763D01*
X50466256Y-36793395D01*
X50416276Y-36804818D01*
X50384696Y-36824824D01*
X50377626Y-36833743D01*
X50365508Y-36867824D01*
X50241746Y-36867824D01*
X50243971Y-36828456D01*
X50266663Y-36771244D01*
X50297624Y-36732580D01*
X50316376Y-36715864D01*
X50334733Y-36704878D01*
X50358619Y-36698180D01*
X50393957Y-36694326D01*
X50446669Y-36691873D01*
X50467577Y-36691168D01*
X50598812Y-36686879D01*
X50598620Y-36647158D01*
X50593537Y-36605405D01*
X50575162Y-36580158D01*
X50538039Y-36564030D01*
X50537043Y-36563742D01*
X50484410Y-36557400D01*
X50432906Y-36565684D01*
X50394630Y-36585827D01*
X50379272Y-36595773D01*
X50362730Y-36594397D01*
X50337275Y-36579987D01*
X50322328Y-36569817D01*
X50293091Y-36548088D01*
X50274980Y-36531800D01*
X50272074Y-36527137D01*
X50284040Y-36503005D01*
X50319396Y-36474185D01*
X50334753Y-36464461D01*
X50378901Y-36447714D01*
X50438398Y-36438227D01*
X50504487Y-36436095D01*
X50568411Y-36441417D01*
G36*
X51165255Y-36437486D02*
X51213595Y-36447015D01*
X51241114Y-36461125D01*
X51270064Y-36484568D01*
X51228876Y-36536571D01*
X51203482Y-36568064D01*
X51186238Y-36583428D01*
X51169102Y-36585776D01*
X51144027Y-36578217D01*
X51132257Y-36573941D01*
X51084270Y-36567631D01*
X51040324Y-36581156D01*
X51008060Y-36611710D01*
X51002819Y-36621452D01*
X50997112Y-36647258D01*
X50992706Y-36694817D01*
X50989811Y-36760758D01*
X50988631Y-36841710D01*
X50988614Y-36853226D01*
X50988614Y-37053822D01*
X50850297Y-37053822D01*
X50850297Y-36437683D01*
X50919456Y-36437683D01*
X50959333Y-36438725D01*
X50980107Y-36443358D01*
X50987789Y-36453849D01*
X50988614Y-36463745D01*
X50988614Y-36489806D01*
X51021745Y-36463745D01*
X51059735Y-36445965D01*
X51110770Y-36437174D01*
X51165255Y-36437486D01*
X51165255Y-36437486D01*
G37*
X51165255Y-36437486D02*
X51213595Y-36447015D01*
X51241114Y-36461125D01*
X51270064Y-36484568D01*
X51228876Y-36536571D01*
X51203482Y-36568064D01*
X51186238Y-36583428D01*
X51169102Y-36585776D01*
X51144027Y-36578217D01*
X51132257Y-36573941D01*
X51084270Y-36567631D01*
X51040324Y-36581156D01*
X51008060Y-36611710D01*
X51002819Y-36621452D01*
X50997112Y-36647258D01*
X50992706Y-36694817D01*
X50989811Y-36760758D01*
X50988631Y-36841710D01*
X50988614Y-36853226D01*
X50988614Y-37053822D01*
X50850297Y-37053822D01*
X50850297Y-36437683D01*
X50919456Y-36437683D01*
X50959333Y-36438725D01*
X50980107Y-36443358D01*
X50987789Y-36453849D01*
X50988614Y-36463745D01*
X50988614Y-36489806D01*
X51021745Y-36463745D01*
X51059735Y-36445965D01*
X51110770Y-36437174D01*
X51165255Y-36437486D01*
G36*
X51562581Y-36440970D02*
X51622685Y-36456597D01*
X51673021Y-36488848D01*
X51697393Y-36512940D01*
X51737345Y-36569895D01*
X51760242Y-36635965D01*
X51768108Y-36717182D01*
X51768148Y-36723748D01*
X51768218Y-36789763D01*
X51388264Y-36789763D01*
X51396363Y-36824342D01*
X51410987Y-36855659D01*
X51436581Y-36888291D01*
X51441935Y-36893500D01*
X51487943Y-36921694D01*
X51540410Y-36926475D01*
X51600803Y-36907926D01*
X51611040Y-36902931D01*
X51642439Y-36887745D01*
X51663470Y-36879094D01*
X51667139Y-36878293D01*
X51679948Y-36886063D01*
X51704378Y-36905072D01*
X51716779Y-36915460D01*
X51742476Y-36939321D01*
X51750915Y-36955077D01*
X51745058Y-36969571D01*
X51741928Y-36973534D01*
X51720725Y-36990879D01*
X51685738Y-37011959D01*
X51661337Y-37024265D01*
X51592072Y-37045946D01*
X51515388Y-37052971D01*
X51442765Y-37044647D01*
X51422426Y-37038686D01*
X51359476Y-37004952D01*
X51312815Y-36953045D01*
X51282173Y-36882459D01*
X51267282Y-36792692D01*
X51265647Y-36745753D01*
X51270421Y-36677413D01*
X51390990Y-36677413D01*
X51402652Y-36682465D01*
X51433998Y-36686429D01*
X51479571Y-36688768D01*
X51510446Y-36689169D01*
X51565981Y-36688783D01*
X51601033Y-36686975D01*
X51620262Y-36682773D01*
X51628330Y-36675203D01*
X51629901Y-36664218D01*
X51619121Y-36630381D01*
X51591980Y-36596940D01*
X51556277Y-36571272D01*
X51520560Y-36560772D01*
X51472048Y-36570086D01*
X51430053Y-36597013D01*
X51400936Y-36635827D01*
X51390990Y-36677413D01*
X51270421Y-36677413D01*
X51272599Y-36646236D01*
X51294055Y-36566949D01*
X51330470Y-36507263D01*
X51382297Y-36466549D01*
X51449990Y-36444179D01*
X51486662Y-36439871D01*
X51562581Y-36440970D01*
X51562581Y-36440970D01*
G37*
X51562581Y-36440970D02*
X51622685Y-36456597D01*
X51673021Y-36488848D01*
X51697393Y-36512940D01*
X51737345Y-36569895D01*
X51760242Y-36635965D01*
X51768108Y-36717182D01*
X51768148Y-36723748D01*
X51768218Y-36789763D01*
X51388264Y-36789763D01*
X51396363Y-36824342D01*
X51410987Y-36855659D01*
X51436581Y-36888291D01*
X51441935Y-36893500D01*
X51487943Y-36921694D01*
X51540410Y-36926475D01*
X51600803Y-36907926D01*
X51611040Y-36902931D01*
X51642439Y-36887745D01*
X51663470Y-36879094D01*
X51667139Y-36878293D01*
X51679948Y-36886063D01*
X51704378Y-36905072D01*
X51716779Y-36915460D01*
X51742476Y-36939321D01*
X51750915Y-36955077D01*
X51745058Y-36969571D01*
X51741928Y-36973534D01*
X51720725Y-36990879D01*
X51685738Y-37011959D01*
X51661337Y-37024265D01*
X51592072Y-37045946D01*
X51515388Y-37052971D01*
X51442765Y-37044647D01*
X51422426Y-37038686D01*
X51359476Y-37004952D01*
X51312815Y-36953045D01*
X51282173Y-36882459D01*
X51267282Y-36792692D01*
X51265647Y-36745753D01*
X51270421Y-36677413D01*
X51390990Y-36677413D01*
X51402652Y-36682465D01*
X51433998Y-36686429D01*
X51479571Y-36688768D01*
X51510446Y-36689169D01*
X51565981Y-36688783D01*
X51601033Y-36686975D01*
X51620262Y-36682773D01*
X51628330Y-36675203D01*
X51629901Y-36664218D01*
X51619121Y-36630381D01*
X51591980Y-36596940D01*
X51556277Y-36571272D01*
X51520560Y-36560772D01*
X51472048Y-36570086D01*
X51430053Y-36597013D01*
X51400936Y-36635827D01*
X51390990Y-36677413D01*
X51270421Y-36677413D01*
X51272599Y-36646236D01*
X51294055Y-36566949D01*
X51330470Y-36507263D01*
X51382297Y-36466549D01*
X51449990Y-36444179D01*
X51486662Y-36439871D01*
X51562581Y-36440970D01*
G36*
X46991739Y-35501148D02*
X47057521Y-35530231D01*
X47107460Y-35578793D01*
X47141626Y-35646908D01*
X47160093Y-35734651D01*
X47161417Y-35748351D01*
X47162454Y-35844939D01*
X47149007Y-35929602D01*
X47121892Y-35998221D01*
X47107373Y-36020294D01*
X47056799Y-36067011D01*
X46992391Y-36097268D01*
X46920334Y-36109824D01*
X46846815Y-36103439D01*
X46790928Y-36083772D01*
X46742868Y-36050629D01*
X46703588Y-36007175D01*
X46702908Y-36006158D01*
X46686956Y-35979338D01*
X46676590Y-35952368D01*
X46670312Y-35918332D01*
X46666627Y-35870310D01*
X46665003Y-35830931D01*
X46664328Y-35795219D01*
X46790045Y-35795219D01*
X46791274Y-35830770D01*
X46795734Y-35878094D01*
X46803603Y-35908465D01*
X46817793Y-35930072D01*
X46831083Y-35942694D01*
X46878198Y-35969122D01*
X46927495Y-35972653D01*
X46973407Y-35953639D01*
X46996362Y-35932331D01*
X47012904Y-35910859D01*
X47022579Y-35890313D01*
X47026826Y-35863574D01*
X47027080Y-35823523D01*
X47025772Y-35786638D01*
X47022957Y-35733947D01*
X47018495Y-35699772D01*
X47010452Y-35677480D01*
X46996897Y-35660442D01*
X46986155Y-35650703D01*
X46941223Y-35625123D01*
X46892751Y-35623847D01*
X46852106Y-35638999D01*
X46817433Y-35670642D01*
X46796776Y-35722620D01*
X46790045Y-35795219D01*
X46664328Y-35795219D01*
X46663521Y-35752621D01*
X46666052Y-35694056D01*
X46673638Y-35650007D01*
X46687319Y-35615248D01*
X46708135Y-35584551D01*
X46715853Y-35575436D01*
X46764111Y-35530021D01*
X46815872Y-35503493D01*
X46879172Y-35492379D01*
X46910039Y-35491471D01*
X46991739Y-35501148D01*
X46991739Y-35501148D01*
G37*
X46991739Y-35501148D02*
X47057521Y-35530231D01*
X47107460Y-35578793D01*
X47141626Y-35646908D01*
X47160093Y-35734651D01*
X47161417Y-35748351D01*
X47162454Y-35844939D01*
X47149007Y-35929602D01*
X47121892Y-35998221D01*
X47107373Y-36020294D01*
X47056799Y-36067011D01*
X46992391Y-36097268D01*
X46920334Y-36109824D01*
X46846815Y-36103439D01*
X46790928Y-36083772D01*
X46742868Y-36050629D01*
X46703588Y-36007175D01*
X46702908Y-36006158D01*
X46686956Y-35979338D01*
X46676590Y-35952368D01*
X46670312Y-35918332D01*
X46666627Y-35870310D01*
X46665003Y-35830931D01*
X46664328Y-35795219D01*
X46790045Y-35795219D01*
X46791274Y-35830770D01*
X46795734Y-35878094D01*
X46803603Y-35908465D01*
X46817793Y-35930072D01*
X46831083Y-35942694D01*
X46878198Y-35969122D01*
X46927495Y-35972653D01*
X46973407Y-35953639D01*
X46996362Y-35932331D01*
X47012904Y-35910859D01*
X47022579Y-35890313D01*
X47026826Y-35863574D01*
X47027080Y-35823523D01*
X47025772Y-35786638D01*
X47022957Y-35733947D01*
X47018495Y-35699772D01*
X47010452Y-35677480D01*
X46996897Y-35660442D01*
X46986155Y-35650703D01*
X46941223Y-35625123D01*
X46892751Y-35623847D01*
X46852106Y-35638999D01*
X46817433Y-35670642D01*
X46796776Y-35722620D01*
X46790045Y-35795219D01*
X46664328Y-35795219D01*
X46663521Y-35752621D01*
X46666052Y-35694056D01*
X46673638Y-35650007D01*
X46687319Y-35615248D01*
X46708135Y-35584551D01*
X46715853Y-35575436D01*
X46764111Y-35530021D01*
X46815872Y-35503493D01*
X46879172Y-35492379D01*
X46910039Y-35491471D01*
X46991739Y-35501148D01*
G36*
X48173301Y-35508614D02*
X48185832Y-35514514D01*
X48229201Y-35546283D01*
X48270210Y-35592646D01*
X48300832Y-35643696D01*
X48309541Y-35667166D01*
X48317488Y-35709091D01*
X48322226Y-35759757D01*
X48322801Y-35780679D01*
X48322871Y-35846693D01*
X47942917Y-35846693D01*
X47951017Y-35881273D01*
X47970896Y-35922170D01*
X48005653Y-35957514D01*
X48047002Y-35980282D01*
X48073351Y-35985010D01*
X48109084Y-35979273D01*
X48151718Y-35964882D01*
X48166201Y-35958262D01*
X48219760Y-35931513D01*
X48265467Y-35966376D01*
X48291842Y-35989955D01*
X48305876Y-36009417D01*
X48306586Y-36015129D01*
X48294049Y-36028973D01*
X48266572Y-36050012D01*
X48241634Y-36066425D01*
X48174336Y-36095930D01*
X48098890Y-36109284D01*
X48024112Y-36105812D01*
X47964505Y-36087663D01*
X47903059Y-36048784D01*
X47859392Y-35997595D01*
X47832074Y-35931367D01*
X47819678Y-35847371D01*
X47818579Y-35808936D01*
X47822978Y-35720861D01*
X47823518Y-35718299D01*
X47949418Y-35718299D01*
X47952885Y-35726558D01*
X47967137Y-35731113D01*
X47996530Y-35733065D01*
X48045425Y-35733517D01*
X48064252Y-35733525D01*
X48121533Y-35732843D01*
X48157859Y-35730364D01*
X48177396Y-35725443D01*
X48184310Y-35717434D01*
X48184555Y-35714862D01*
X48176664Y-35694423D01*
X48156915Y-35665789D01*
X48148425Y-35655763D01*
X48116906Y-35627408D01*
X48084051Y-35616259D01*
X48066349Y-35615327D01*
X48018461Y-35626981D01*
X47978301Y-35658285D01*
X47952827Y-35703752D01*
X47952375Y-35705233D01*
X47949418Y-35718299D01*
X47823518Y-35718299D01*
X47837608Y-35651510D01*
X47863962Y-35596025D01*
X47896193Y-35556639D01*
X47955783Y-35513931D01*
X48025832Y-35491109D01*
X48100339Y-35489046D01*
X48173301Y-35508614D01*
X48173301Y-35508614D01*
G37*
X48173301Y-35508614D02*
X48185832Y-35514514D01*
X48229201Y-35546283D01*
X48270210Y-35592646D01*
X48300832Y-35643696D01*
X48309541Y-35667166D01*
X48317488Y-35709091D01*
X48322226Y-35759757D01*
X48322801Y-35780679D01*
X48322871Y-35846693D01*
X47942917Y-35846693D01*
X47951017Y-35881273D01*
X47970896Y-35922170D01*
X48005653Y-35957514D01*
X48047002Y-35980282D01*
X48073351Y-35985010D01*
X48109084Y-35979273D01*
X48151718Y-35964882D01*
X48166201Y-35958262D01*
X48219760Y-35931513D01*
X48265467Y-35966376D01*
X48291842Y-35989955D01*
X48305876Y-36009417D01*
X48306586Y-36015129D01*
X48294049Y-36028973D01*
X48266572Y-36050012D01*
X48241634Y-36066425D01*
X48174336Y-36095930D01*
X48098890Y-36109284D01*
X48024112Y-36105812D01*
X47964505Y-36087663D01*
X47903059Y-36048784D01*
X47859392Y-35997595D01*
X47832074Y-35931367D01*
X47819678Y-35847371D01*
X47818579Y-35808936D01*
X47822978Y-35720861D01*
X47823518Y-35718299D01*
X47949418Y-35718299D01*
X47952885Y-35726558D01*
X47967137Y-35731113D01*
X47996530Y-35733065D01*
X48045425Y-35733517D01*
X48064252Y-35733525D01*
X48121533Y-35732843D01*
X48157859Y-35730364D01*
X48177396Y-35725443D01*
X48184310Y-35717434D01*
X48184555Y-35714862D01*
X48176664Y-35694423D01*
X48156915Y-35665789D01*
X48148425Y-35655763D01*
X48116906Y-35627408D01*
X48084051Y-35616259D01*
X48066349Y-35615327D01*
X48018461Y-35626981D01*
X47978301Y-35658285D01*
X47952827Y-35703752D01*
X47952375Y-35705233D01*
X47949418Y-35718299D01*
X47823518Y-35718299D01*
X47837608Y-35651510D01*
X47863962Y-35596025D01*
X47896193Y-35556639D01*
X47955783Y-35513931D01*
X48025832Y-35491109D01*
X48100339Y-35489046D01*
X48173301Y-35508614D01*
G36*
X49544017Y-35492452D02*
X49591634Y-35501482D01*
X49641034Y-35520370D01*
X49646312Y-35522777D01*
X49683774Y-35542476D01*
X49709717Y-35560781D01*
X49718103Y-35572508D01*
X49710117Y-35591632D01*
X49690720Y-35619850D01*
X49682110Y-35630384D01*
X49646628Y-35671847D01*
X49600885Y-35644858D01*
X49557350Y-35626878D01*
X49507050Y-35617267D01*
X49458812Y-35616660D01*
X49421467Y-35625691D01*
X49412505Y-35631327D01*
X49395437Y-35657171D01*
X49393363Y-35686941D01*
X49406134Y-35710197D01*
X49413688Y-35714708D01*
X49436325Y-35720309D01*
X49476115Y-35726892D01*
X49525166Y-35733183D01*
X49534215Y-35734170D01*
X49612996Y-35747798D01*
X49670136Y-35770946D01*
X49708030Y-35805752D01*
X49729079Y-35854354D01*
X49735635Y-35913718D01*
X49726577Y-35981198D01*
X49697164Y-36034188D01*
X49647278Y-36072783D01*
X49576800Y-36097081D01*
X49498565Y-36106667D01*
X49434766Y-36106552D01*
X49383016Y-36097845D01*
X49347673Y-36085825D01*
X49303017Y-36064880D01*
X49261747Y-36040574D01*
X49247079Y-36029876D01*
X49209357Y-35999084D01*
X49254852Y-35953049D01*
X49300347Y-35907013D01*
X49352072Y-35941243D01*
X49403952Y-35966952D01*
X49459351Y-35980399D01*
X49512605Y-35981818D01*
X49558049Y-35971443D01*
X49590016Y-35949507D01*
X49600338Y-35930998D01*
X49598789Y-35901314D01*
X49573140Y-35878615D01*
X49523460Y-35862940D01*
X49469031Y-35855695D01*
X49385264Y-35841873D01*
X49323033Y-35815796D01*
X49281507Y-35776699D01*
X49259853Y-35723820D01*
X49256853Y-35661126D01*
X49271671Y-35595642D01*
X49305454Y-35546144D01*
X49358505Y-35512408D01*
X49431126Y-35494207D01*
X49484928Y-35490639D01*
X49544017Y-35492452D01*
X49544017Y-35492452D01*
G37*
X49544017Y-35492452D02*
X49591634Y-35501482D01*
X49641034Y-35520370D01*
X49646312Y-35522777D01*
X49683774Y-35542476D01*
X49709717Y-35560781D01*
X49718103Y-35572508D01*
X49710117Y-35591632D01*
X49690720Y-35619850D01*
X49682110Y-35630384D01*
X49646628Y-35671847D01*
X49600885Y-35644858D01*
X49557350Y-35626878D01*
X49507050Y-35617267D01*
X49458812Y-35616660D01*
X49421467Y-35625691D01*
X49412505Y-35631327D01*
X49395437Y-35657171D01*
X49393363Y-35686941D01*
X49406134Y-35710197D01*
X49413688Y-35714708D01*
X49436325Y-35720309D01*
X49476115Y-35726892D01*
X49525166Y-35733183D01*
X49534215Y-35734170D01*
X49612996Y-35747798D01*
X49670136Y-35770946D01*
X49708030Y-35805752D01*
X49729079Y-35854354D01*
X49735635Y-35913718D01*
X49726577Y-35981198D01*
X49697164Y-36034188D01*
X49647278Y-36072783D01*
X49576800Y-36097081D01*
X49498565Y-36106667D01*
X49434766Y-36106552D01*
X49383016Y-36097845D01*
X49347673Y-36085825D01*
X49303017Y-36064880D01*
X49261747Y-36040574D01*
X49247079Y-36029876D01*
X49209357Y-35999084D01*
X49254852Y-35953049D01*
X49300347Y-35907013D01*
X49352072Y-35941243D01*
X49403952Y-35966952D01*
X49459351Y-35980399D01*
X49512605Y-35981818D01*
X49558049Y-35971443D01*
X49590016Y-35949507D01*
X49600338Y-35930998D01*
X49598789Y-35901314D01*
X49573140Y-35878615D01*
X49523460Y-35862940D01*
X49469031Y-35855695D01*
X49385264Y-35841873D01*
X49323033Y-35815796D01*
X49281507Y-35776699D01*
X49259853Y-35723820D01*
X49256853Y-35661126D01*
X49271671Y-35595642D01*
X49305454Y-35546144D01*
X49358505Y-35512408D01*
X49431126Y-35494207D01*
X49484928Y-35490639D01*
X49544017Y-35492452D01*
G36*
X50140762Y-35502055D02*
X50204363Y-35536692D01*
X50254123Y-35591372D01*
X50277568Y-35635842D01*
X50287634Y-35675121D01*
X50294156Y-35731116D01*
X50296951Y-35795621D01*
X50295836Y-35860429D01*
X50290626Y-35917334D01*
X50284541Y-35947727D01*
X50264014Y-35989306D01*
X50228463Y-36033468D01*
X50185619Y-36072087D01*
X50143211Y-36097034D01*
X50142177Y-36097430D01*
X50089553Y-36108331D01*
X50027188Y-36108601D01*
X49967924Y-36098676D01*
X49945040Y-36090722D01*
X49886102Y-36057300D01*
X49843890Y-36013511D01*
X49816156Y-35955538D01*
X49800651Y-35879565D01*
X49797143Y-35839771D01*
X49797590Y-35789766D01*
X49932376Y-35789766D01*
X49936917Y-35862732D01*
X49949986Y-35918334D01*
X49970756Y-35953861D01*
X49985552Y-35964020D01*
X50023464Y-35971104D01*
X50068527Y-35969007D01*
X50107487Y-35958812D01*
X50117704Y-35953204D01*
X50144659Y-35920538D01*
X50162451Y-35870545D01*
X50170024Y-35809705D01*
X50166325Y-35744497D01*
X50158057Y-35705253D01*
X50134320Y-35659805D01*
X50096849Y-35631396D01*
X50051720Y-35621573D01*
X50005011Y-35631887D01*
X49969132Y-35657112D01*
X49950277Y-35677925D01*
X49939272Y-35698439D01*
X49934026Y-35726203D01*
X49932449Y-35768762D01*
X49932376Y-35789766D01*
X49797590Y-35789766D01*
X49798094Y-35733580D01*
X49815388Y-35646501D01*
X49849029Y-35578530D01*
X49899018Y-35529664D01*
X49965356Y-35499899D01*
X49979601Y-35496448D01*
X50065210Y-35488345D01*
X50140762Y-35502055D01*
X50140762Y-35502055D01*
G37*
X50140762Y-35502055D02*
X50204363Y-35536692D01*
X50254123Y-35591372D01*
X50277568Y-35635842D01*
X50287634Y-35675121D01*
X50294156Y-35731116D01*
X50296951Y-35795621D01*
X50295836Y-35860429D01*
X50290626Y-35917334D01*
X50284541Y-35947727D01*
X50264014Y-35989306D01*
X50228463Y-36033468D01*
X50185619Y-36072087D01*
X50143211Y-36097034D01*
X50142177Y-36097430D01*
X50089553Y-36108331D01*
X50027188Y-36108601D01*
X49967924Y-36098676D01*
X49945040Y-36090722D01*
X49886102Y-36057300D01*
X49843890Y-36013511D01*
X49816156Y-35955538D01*
X49800651Y-35879565D01*
X49797143Y-35839771D01*
X49797590Y-35789766D01*
X49932376Y-35789766D01*
X49936917Y-35862732D01*
X49949986Y-35918334D01*
X49970756Y-35953861D01*
X49985552Y-35964020D01*
X50023464Y-35971104D01*
X50068527Y-35969007D01*
X50107487Y-35958812D01*
X50117704Y-35953204D01*
X50144659Y-35920538D01*
X50162451Y-35870545D01*
X50170024Y-35809705D01*
X50166325Y-35744497D01*
X50158057Y-35705253D01*
X50134320Y-35659805D01*
X50096849Y-35631396D01*
X50051720Y-35621573D01*
X50005011Y-35631887D01*
X49969132Y-35657112D01*
X49950277Y-35677925D01*
X49939272Y-35698439D01*
X49934026Y-35726203D01*
X49932449Y-35768762D01*
X49932376Y-35789766D01*
X49797590Y-35789766D01*
X49798094Y-35733580D01*
X49815388Y-35646501D01*
X49849029Y-35578530D01*
X49899018Y-35529664D01*
X49965356Y-35499899D01*
X49979601Y-35496448D01*
X50065210Y-35488345D01*
X50140762Y-35502055D01*
G36*
X50523367Y-35690342D02*
X50524555Y-35782563D01*
X50528897Y-35852610D01*
X50537558Y-35903381D01*
X50551704Y-35937772D01*
X50572500Y-35958679D01*
X50601110Y-35969000D01*
X50636535Y-35971636D01*
X50673636Y-35968682D01*
X50701818Y-35957889D01*
X50722243Y-35936360D01*
X50736079Y-35901199D01*
X50744491Y-35849510D01*
X50748643Y-35778394D01*
X50749703Y-35690342D01*
X50749703Y-35494614D01*
X50888020Y-35494614D01*
X50888020Y-36098179D01*
X50818862Y-36098179D01*
X50777170Y-36096489D01*
X50755701Y-36090556D01*
X50749703Y-36079293D01*
X50746091Y-36069261D01*
X50731714Y-36071383D01*
X50702736Y-36085580D01*
X50636319Y-36107480D01*
X50565875Y-36105928D01*
X50498377Y-36082147D01*
X50466233Y-36063362D01*
X50441715Y-36043022D01*
X50423804Y-36017573D01*
X50411479Y-35983458D01*
X50403723Y-35937121D01*
X50399516Y-35875007D01*
X50397840Y-35793561D01*
X50397624Y-35730578D01*
X50397624Y-35494614D01*
X50523367Y-35494614D01*
X50523367Y-35690342D01*
X50523367Y-35690342D01*
G37*
X50523367Y-35690342D02*
X50524555Y-35782563D01*
X50528897Y-35852610D01*
X50537558Y-35903381D01*
X50551704Y-35937772D01*
X50572500Y-35958679D01*
X50601110Y-35969000D01*
X50636535Y-35971636D01*
X50673636Y-35968682D01*
X50701818Y-35957889D01*
X50722243Y-35936360D01*
X50736079Y-35901199D01*
X50744491Y-35849510D01*
X50748643Y-35778394D01*
X50749703Y-35690342D01*
X50749703Y-35494614D01*
X50888020Y-35494614D01*
X50888020Y-36098179D01*
X50818862Y-36098179D01*
X50777170Y-36096489D01*
X50755701Y-36090556D01*
X50749703Y-36079293D01*
X50746091Y-36069261D01*
X50731714Y-36071383D01*
X50702736Y-36085580D01*
X50636319Y-36107480D01*
X50565875Y-36105928D01*
X50498377Y-36082147D01*
X50466233Y-36063362D01*
X50441715Y-36043022D01*
X50423804Y-36017573D01*
X50411479Y-35983458D01*
X50403723Y-35937121D01*
X50399516Y-35875007D01*
X50397840Y-35793561D01*
X50397624Y-35730578D01*
X50397624Y-35494614D01*
X50523367Y-35494614D01*
X50523367Y-35690342D01*
G36*
X51747226Y-35499880D02*
X51820080Y-35530830D01*
X51843027Y-35545895D01*
X51872354Y-35569048D01*
X51890764Y-35587253D01*
X51893961Y-35593183D01*
X51884935Y-35606340D01*
X51861837Y-35628667D01*
X51843344Y-35644250D01*
X51792728Y-35684926D01*
X51752760Y-35651295D01*
X51721874Y-35629584D01*
X51691759Y-35622090D01*
X51657292Y-35623920D01*
X51602561Y-35637528D01*
X51564886Y-35665772D01*
X51541991Y-35711433D01*
X51531597Y-35777289D01*
X51531595Y-35777331D01*
X51532494Y-35850939D01*
X51546463Y-35904946D01*
X51574328Y-35941716D01*
X51593325Y-35954168D01*
X51643776Y-35969673D01*
X51697663Y-35969683D01*
X51744546Y-35954638D01*
X51755644Y-35947287D01*
X51783476Y-35928511D01*
X51805236Y-35925434D01*
X51828704Y-35939409D01*
X51854649Y-35964510D01*
X51895716Y-36006880D01*
X51850121Y-36044464D01*
X51779674Y-36086882D01*
X51700233Y-36107785D01*
X51617215Y-36106272D01*
X51562694Y-36092411D01*
X51498970Y-36058135D01*
X51448005Y-36004212D01*
X51424851Y-35966149D01*
X51406099Y-35911536D01*
X51396715Y-35842369D01*
X51396643Y-35767407D01*
X51405824Y-35695409D01*
X51424199Y-35635137D01*
X51427093Y-35628958D01*
X51469952Y-35568351D01*
X51527979Y-35524224D01*
X51596591Y-35497493D01*
X51671201Y-35489073D01*
X51747226Y-35499880D01*
X51747226Y-35499880D01*
G37*
X51747226Y-35499880D02*
X51820080Y-35530830D01*
X51843027Y-35545895D01*
X51872354Y-35569048D01*
X51890764Y-35587253D01*
X51893961Y-35593183D01*
X51884935Y-35606340D01*
X51861837Y-35628667D01*
X51843344Y-35644250D01*
X51792728Y-35684926D01*
X51752760Y-35651295D01*
X51721874Y-35629584D01*
X51691759Y-35622090D01*
X51657292Y-35623920D01*
X51602561Y-35637528D01*
X51564886Y-35665772D01*
X51541991Y-35711433D01*
X51531597Y-35777289D01*
X51531595Y-35777331D01*
X51532494Y-35850939D01*
X51546463Y-35904946D01*
X51574328Y-35941716D01*
X51593325Y-35954168D01*
X51643776Y-35969673D01*
X51697663Y-35969683D01*
X51744546Y-35954638D01*
X51755644Y-35947287D01*
X51783476Y-35928511D01*
X51805236Y-35925434D01*
X51828704Y-35939409D01*
X51854649Y-35964510D01*
X51895716Y-36006880D01*
X51850121Y-36044464D01*
X51779674Y-36086882D01*
X51700233Y-36107785D01*
X51617215Y-36106272D01*
X51562694Y-36092411D01*
X51498970Y-36058135D01*
X51448005Y-36004212D01*
X51424851Y-35966149D01*
X51406099Y-35911536D01*
X51396715Y-35842369D01*
X51396643Y-35767407D01*
X51405824Y-35695409D01*
X51424199Y-35635137D01*
X51427093Y-35628958D01*
X51469952Y-35568351D01*
X51527979Y-35524224D01*
X51596591Y-35497493D01*
X51671201Y-35489073D01*
X51747226Y-35499880D01*
G36*
X52207898Y-35492457D02*
X52240096Y-35500279D01*
X52301825Y-35528921D01*
X52354610Y-35572667D01*
X52391141Y-35625117D01*
X52396160Y-35636893D01*
X52403045Y-35667740D01*
X52407864Y-35713371D01*
X52409505Y-35759492D01*
X52409505Y-35846693D01*
X52227178Y-35846693D01*
X52151979Y-35846978D01*
X52099003Y-35848704D01*
X52065325Y-35853181D01*
X52048020Y-35861720D01*
X52044163Y-35875630D01*
X52050829Y-35896222D01*
X52062770Y-35920315D01*
X52096080Y-35960525D01*
X52142368Y-35980558D01*
X52198944Y-35979905D01*
X52263031Y-35958101D01*
X52318417Y-35931193D01*
X52364375Y-35967532D01*
X52410333Y-36003872D01*
X52367096Y-36043819D01*
X52309374Y-36081563D01*
X52238386Y-36104320D01*
X52162029Y-36110688D01*
X52088199Y-36099268D01*
X52076287Y-36095393D01*
X52011399Y-36061506D01*
X51963130Y-36010986D01*
X51930465Y-35942325D01*
X51912385Y-35854014D01*
X51912175Y-35852121D01*
X51910556Y-35755878D01*
X51917100Y-35721542D01*
X52044852Y-35721542D01*
X52056584Y-35726822D01*
X52088438Y-35730867D01*
X52135397Y-35733176D01*
X52165154Y-35733525D01*
X52220648Y-35733306D01*
X52255346Y-35731916D01*
X52273601Y-35728251D01*
X52279766Y-35721210D01*
X52278195Y-35709690D01*
X52276878Y-35705233D01*
X52254382Y-35663355D01*
X52219003Y-35629604D01*
X52187780Y-35614773D01*
X52146301Y-35615668D01*
X52104269Y-35634164D01*
X52069012Y-35664786D01*
X52047854Y-35702062D01*
X52044852Y-35721542D01*
X51917100Y-35721542D01*
X51926690Y-35671229D01*
X51958698Y-35600191D01*
X52004701Y-35544779D01*
X52062821Y-35507009D01*
X52131180Y-35488896D01*
X52207898Y-35492457D01*
X52207898Y-35492457D01*
G37*
X52207898Y-35492457D02*
X52240096Y-35500279D01*
X52301825Y-35528921D01*
X52354610Y-35572667D01*
X52391141Y-35625117D01*
X52396160Y-35636893D01*
X52403045Y-35667740D01*
X52407864Y-35713371D01*
X52409505Y-35759492D01*
X52409505Y-35846693D01*
X52227178Y-35846693D01*
X52151979Y-35846978D01*
X52099003Y-35848704D01*
X52065325Y-35853181D01*
X52048020Y-35861720D01*
X52044163Y-35875630D01*
X52050829Y-35896222D01*
X52062770Y-35920315D01*
X52096080Y-35960525D01*
X52142368Y-35980558D01*
X52198944Y-35979905D01*
X52263031Y-35958101D01*
X52318417Y-35931193D01*
X52364375Y-35967532D01*
X52410333Y-36003872D01*
X52367096Y-36043819D01*
X52309374Y-36081563D01*
X52238386Y-36104320D01*
X52162029Y-36110688D01*
X52088199Y-36099268D01*
X52076287Y-36095393D01*
X52011399Y-36061506D01*
X51963130Y-36010986D01*
X51930465Y-35942325D01*
X51912385Y-35854014D01*
X51912175Y-35852121D01*
X51910556Y-35755878D01*
X51917100Y-35721542D01*
X52044852Y-35721542D01*
X52056584Y-35726822D01*
X52088438Y-35730867D01*
X52135397Y-35733176D01*
X52165154Y-35733525D01*
X52220648Y-35733306D01*
X52255346Y-35731916D01*
X52273601Y-35728251D01*
X52279766Y-35721210D01*
X52278195Y-35709690D01*
X52276878Y-35705233D01*
X52254382Y-35663355D01*
X52219003Y-35629604D01*
X52187780Y-35614773D01*
X52146301Y-35615668D01*
X52104269Y-35634164D01*
X52069012Y-35664786D01*
X52047854Y-35702062D01*
X52044852Y-35721542D01*
X51917100Y-35721542D01*
X51926690Y-35671229D01*
X51958698Y-35600191D01*
X52004701Y-35544779D01*
X52062821Y-35507009D01*
X52131180Y-35488896D01*
X52207898Y-35492457D01*
G36*
X48775988Y-35505002D02*
X48807283Y-35519950D01*
X48837591Y-35541541D01*
X48860682Y-35566391D01*
X48877500Y-35598087D01*
X48888994Y-35640214D01*
X48896109Y-35696358D01*
X48899793Y-35770106D01*
X48900992Y-35865044D01*
X48901011Y-35874985D01*
X48901287Y-36098179D01*
X48762970Y-36098179D01*
X48762970Y-35892418D01*
X48762872Y-35816189D01*
X48762191Y-35760939D01*
X48760349Y-35722501D01*
X48756767Y-35696706D01*
X48750868Y-35679384D01*
X48742073Y-35666368D01*
X48729820Y-35653507D01*
X48686953Y-35625873D01*
X48640157Y-35620745D01*
X48595576Y-35638217D01*
X48580072Y-35651221D01*
X48568690Y-35663447D01*
X48560519Y-35676540D01*
X48555026Y-35694615D01*
X48551680Y-35721787D01*
X48549949Y-35762170D01*
X48549303Y-35819879D01*
X48549208Y-35890132D01*
X48549208Y-36098179D01*
X48410891Y-36098179D01*
X48410891Y-35494614D01*
X48480050Y-35494614D01*
X48521572Y-35496256D01*
X48542994Y-35502087D01*
X48549205Y-35513461D01*
X48549208Y-35513798D01*
X48552090Y-35524938D01*
X48564801Y-35523674D01*
X48590074Y-35511434D01*
X48647395Y-35493424D01*
X48712963Y-35491421D01*
X48775988Y-35505002D01*
X48775988Y-35505002D01*
G37*
X48775988Y-35505002D02*
X48807283Y-35519950D01*
X48837591Y-35541541D01*
X48860682Y-35566391D01*
X48877500Y-35598087D01*
X48888994Y-35640214D01*
X48896109Y-35696358D01*
X48899793Y-35770106D01*
X48900992Y-35865044D01*
X48901011Y-35874985D01*
X48901287Y-36098179D01*
X48762970Y-36098179D01*
X48762970Y-35892418D01*
X48762872Y-35816189D01*
X48762191Y-35760939D01*
X48760349Y-35722501D01*
X48756767Y-35696706D01*
X48750868Y-35679384D01*
X48742073Y-35666368D01*
X48729820Y-35653507D01*
X48686953Y-35625873D01*
X48640157Y-35620745D01*
X48595576Y-35638217D01*
X48580072Y-35651221D01*
X48568690Y-35663447D01*
X48560519Y-35676540D01*
X48555026Y-35694615D01*
X48551680Y-35721787D01*
X48549949Y-35762170D01*
X48549303Y-35819879D01*
X48549208Y-35890132D01*
X48549208Y-36098179D01*
X48410891Y-36098179D01*
X48410891Y-35494614D01*
X48480050Y-35494614D01*
X48521572Y-35496256D01*
X48542994Y-35502087D01*
X48549205Y-35513461D01*
X48549208Y-35513798D01*
X48552090Y-35524938D01*
X48564801Y-35523674D01*
X48590074Y-35511434D01*
X48647395Y-35493424D01*
X48712963Y-35491421D01*
X48775988Y-35505002D01*
G36*
X51329460Y-35494030D02*
X51372711Y-35507245D01*
X51400558Y-35523941D01*
X51409629Y-35537145D01*
X51407132Y-35552797D01*
X51390931Y-35577385D01*
X51377232Y-35594800D01*
X51348992Y-35626283D01*
X51327775Y-35639529D01*
X51309688Y-35638664D01*
X51256035Y-35625010D01*
X51216630Y-35625630D01*
X51184632Y-35641104D01*
X51173890Y-35650161D01*
X51139505Y-35682027D01*
X51139505Y-36098179D01*
X51001188Y-36098179D01*
X51001188Y-35494614D01*
X51070347Y-35494614D01*
X51111869Y-35496256D01*
X51133291Y-35502087D01*
X51139502Y-35513461D01*
X51139505Y-35513798D01*
X51142439Y-35525713D01*
X51155704Y-35524159D01*
X51174084Y-35515563D01*
X51212046Y-35499568D01*
X51242872Y-35489945D01*
X51282536Y-35487478D01*
X51329460Y-35494030D01*
X51329460Y-35494030D01*
G37*
X51329460Y-35494030D02*
X51372711Y-35507245D01*
X51400558Y-35523941D01*
X51409629Y-35537145D01*
X51407132Y-35552797D01*
X51390931Y-35577385D01*
X51377232Y-35594800D01*
X51348992Y-35626283D01*
X51327775Y-35639529D01*
X51309688Y-35638664D01*
X51256035Y-35625010D01*
X51216630Y-35625630D01*
X51184632Y-35641104D01*
X51173890Y-35650161D01*
X51139505Y-35682027D01*
X51139505Y-36098179D01*
X51001188Y-36098179D01*
X51001188Y-35494614D01*
X51070347Y-35494614D01*
X51111869Y-35496256D01*
X51133291Y-35502087D01*
X51139502Y-35513461D01*
X51139505Y-35513798D01*
X51142439Y-35525713D01*
X51155704Y-35524159D01*
X51174084Y-35515563D01*
X51212046Y-35499568D01*
X51242872Y-35489945D01*
X51282536Y-35487478D01*
X51329460Y-35494030D01*
G36*
X49906964Y-31326018D02*
X49963812Y-31627570D01*
X50383338Y-31800512D01*
X50634984Y-31629395D01*
X50705458Y-31581750D01*
X50769163Y-31539210D01*
X50823126Y-31503715D01*
X50864373Y-31477210D01*
X50889934Y-31461636D01*
X50896895Y-31458278D01*
X50909435Y-31466914D01*
X50936231Y-31490792D01*
X50974280Y-31526859D01*
X51020579Y-31572067D01*
X51072123Y-31623364D01*
X51125909Y-31677701D01*
X51178935Y-31732028D01*
X51228195Y-31783295D01*
X51270687Y-31828451D01*
X51303407Y-31864446D01*
X51323351Y-31888230D01*
X51328119Y-31896190D01*
X51321257Y-31910865D01*
X51302020Y-31943014D01*
X51272430Y-31989492D01*
X51234510Y-32047156D01*
X51190282Y-32112860D01*
X51164654Y-32150336D01*
X51117941Y-32218768D01*
X51076432Y-32280520D01*
X51042140Y-32332519D01*
X51017080Y-32371692D01*
X51003264Y-32394965D01*
X51001188Y-32399855D01*
X51005895Y-32413755D01*
X51018723Y-32446150D01*
X51037738Y-32492485D01*
X51061003Y-32548206D01*
X51086584Y-32608758D01*
X51112545Y-32669586D01*
X51136950Y-32726136D01*
X51157863Y-32773852D01*
X51173349Y-32808181D01*
X51181472Y-32824568D01*
X51181952Y-32825212D01*
X51194707Y-32828341D01*
X51228677Y-32835321D01*
X51280340Y-32845467D01*
X51346176Y-32858092D01*
X51422664Y-32872509D01*
X51467290Y-32880823D01*
X51549021Y-32896384D01*
X51622843Y-32911192D01*
X51685021Y-32924436D01*
X51731822Y-32935305D01*
X51759509Y-32942989D01*
X51765074Y-32945427D01*
X51770526Y-32961930D01*
X51774924Y-32999200D01*
X51778272Y-33052880D01*
X51780574Y-33118612D01*
X51781832Y-33192037D01*
X51782048Y-33268796D01*
X51781227Y-33344532D01*
X51779371Y-33414886D01*
X51776482Y-33475500D01*
X51772565Y-33522016D01*
X51767622Y-33550075D01*
X51764657Y-33555916D01*
X51746934Y-33562917D01*
X51709381Y-33572927D01*
X51656964Y-33584769D01*
X51594652Y-33597267D01*
X51572900Y-33601310D01*
X51468024Y-33620520D01*
X51385180Y-33635991D01*
X51321630Y-33648337D01*
X51274637Y-33658173D01*
X51241463Y-33666114D01*
X51219371Y-33672776D01*
X51205624Y-33678773D01*
X51197484Y-33684719D01*
X51196345Y-33685894D01*
X51184977Y-33704826D01*
X51167635Y-33741669D01*
X51146050Y-33791913D01*
X51121954Y-33851046D01*
X51097079Y-33914556D01*
X51073157Y-33977932D01*
X51051919Y-34036662D01*
X51035097Y-34086235D01*
X51024422Y-34122139D01*
X51021627Y-34139862D01*
X51021860Y-34140483D01*
X51031331Y-34154970D01*
X51052818Y-34186844D01*
X51084063Y-34232789D01*
X51122807Y-34289485D01*
X51166793Y-34353617D01*
X51179319Y-34371842D01*
X51223984Y-34437914D01*
X51263288Y-34498200D01*
X51295088Y-34549235D01*
X51317245Y-34587560D01*
X51327617Y-34609711D01*
X51328119Y-34612432D01*
X51319405Y-34626736D01*
X51295325Y-34655072D01*
X51258976Y-34694396D01*
X51213453Y-34741661D01*
X51161852Y-34793823D01*
X51107267Y-34847835D01*
X51052794Y-34900653D01*
X51001529Y-34949231D01*
X50956567Y-34990523D01*
X50921004Y-35021485D01*
X50897935Y-35039070D01*
X50891554Y-35041941D01*
X50876699Y-35035178D01*
X50846286Y-35016939D01*
X50805268Y-34990297D01*
X50773709Y-34968852D01*
X50716525Y-34929503D01*
X50648806Y-34883171D01*
X50580880Y-34836913D01*
X50544361Y-34812155D01*
X50420752Y-34728547D01*
X50316991Y-34784650D01*
X50269720Y-34809228D01*
X50229523Y-34828331D01*
X50202326Y-34839227D01*
X50195402Y-34840743D01*
X50187077Y-34829549D01*
X50170654Y-34797917D01*
X50147357Y-34748765D01*
X50118414Y-34685010D01*
X50085050Y-34609571D01*
X50048491Y-34525364D01*
X50009964Y-34435308D01*
X49970694Y-34342321D01*
X49931908Y-34249320D01*
X49894830Y-34159223D01*
X49860689Y-34074948D01*
X49830708Y-33999413D01*
X49806116Y-33935534D01*
X49788136Y-33886231D01*
X49777997Y-33854421D01*
X49776366Y-33843496D01*
X49789291Y-33829561D01*
X49817589Y-33806940D01*
X49855346Y-33780333D01*
X49858515Y-33778228D01*
X49956100Y-33700114D01*
X50034786Y-33608982D01*
X50093891Y-33507745D01*
X50132732Y-33399318D01*
X50150628Y-33286614D01*
X50146897Y-33172548D01*
X50120857Y-33060034D01*
X50071825Y-32951985D01*
X50057400Y-32928345D01*
X49982369Y-32832887D01*
X49893730Y-32756232D01*
X49794549Y-32698780D01*
X49687895Y-32660929D01*
X49576836Y-32643078D01*
X49464439Y-32645625D01*
X49353773Y-32668970D01*
X49247906Y-32713510D01*
X49149905Y-32779645D01*
X49119590Y-32806487D01*
X49042438Y-32890512D01*
X48986218Y-32978966D01*
X48947653Y-33078115D01*
X48926174Y-33176303D01*
X48920872Y-33286697D01*
X48938552Y-33397640D01*
X48977419Y-33505381D01*
X49035677Y-33606169D01*
X49111531Y-33696256D01*
X49203183Y-33771892D01*
X49215228Y-33779864D01*
X49253389Y-33805974D01*
X49282399Y-33828595D01*
X49296268Y-33843039D01*
X49296469Y-33843496D01*
X49293492Y-33859121D01*
X49281689Y-33894582D01*
X49262286Y-33946962D01*
X49236512Y-34013345D01*
X49205591Y-34090814D01*
X49170751Y-34176450D01*
X49133217Y-34267337D01*
X49094217Y-34360559D01*
X49054977Y-34453197D01*
X49016724Y-34542335D01*
X48980683Y-34625055D01*
X48948083Y-34698441D01*
X48920148Y-34759575D01*
X48898105Y-34805541D01*
X48883182Y-34833421D01*
X48877172Y-34840743D01*
X48858809Y-34835041D01*
X48824448Y-34819749D01*
X48780016Y-34797599D01*
X48755583Y-34784650D01*
X48651822Y-34728547D01*
X48528213Y-34812155D01*
X48465114Y-34854987D01*
X48396030Y-34902122D01*
X48331293Y-34946503D01*
X48298866Y-34968852D01*
X48253259Y-34999477D01*
X48214640Y-35023747D01*
X48188048Y-35038587D01*
X48179410Y-35041724D01*
X48166839Y-35033261D01*
X48139016Y-35009636D01*
X48098639Y-34973302D01*
X48048405Y-34926711D01*
X47991012Y-34872317D01*
X47954714Y-34837392D01*
X47891210Y-34774996D01*
X47836327Y-34719188D01*
X47792286Y-34672354D01*
X47761305Y-34636882D01*
X47745602Y-34615161D01*
X47744095Y-34610752D01*
X47751086Y-34593985D01*
X47770406Y-34560082D01*
X47799909Y-34512476D01*
X47837455Y-34454599D01*
X47880900Y-34389884D01*
X47893255Y-34371842D01*
X47938273Y-34306267D01*
X47978660Y-34247228D01*
X48012160Y-34198042D01*
X48036514Y-34162028D01*
X48049464Y-34142502D01*
X48050715Y-34140483D01*
X48048844Y-34124922D01*
X48038913Y-34090709D01*
X48022653Y-34042355D01*
X48001795Y-33984371D01*
X47978073Y-33921270D01*
X47953216Y-33857563D01*
X47928958Y-33797761D01*
X47907029Y-33746376D01*
X47889162Y-33707919D01*
X47877087Y-33686902D01*
X47876229Y-33685894D01*
X47868846Y-33679888D01*
X47856375Y-33673948D01*
X47836080Y-33667460D01*
X47805222Y-33659809D01*
X47761066Y-33650380D01*
X47700874Y-33638559D01*
X47621907Y-33623729D01*
X47521430Y-33605277D01*
X47499675Y-33601310D01*
X47435198Y-33588853D01*
X47378989Y-33576666D01*
X47336013Y-33565926D01*
X47311240Y-33557809D01*
X47307918Y-33555916D01*
X47302444Y-33539138D01*
X47297994Y-33501645D01*
X47294572Y-33447794D01*
X47292181Y-33381944D01*
X47290823Y-33308453D01*
X47290501Y-33231680D01*
X47291219Y-33155983D01*
X47292979Y-33085720D01*
X47295784Y-33025250D01*
X47299638Y-32978930D01*
X47304543Y-32951119D01*
X47307500Y-32945427D01*
X47323963Y-32939686D01*
X47361449Y-32930345D01*
X47416225Y-32918215D01*
X47484555Y-32904107D01*
X47562706Y-32888830D01*
X47605284Y-32880823D01*
X47686071Y-32865721D01*
X47758113Y-32852040D01*
X47817889Y-32840467D01*
X47861879Y-32831687D01*
X47886561Y-32826387D01*
X47890623Y-32825212D01*
X47897489Y-32811965D01*
X47912002Y-32780057D01*
X47932229Y-32734047D01*
X47956234Y-32678492D01*
X47982082Y-32617953D01*
X48007840Y-32556986D01*
X48031573Y-32500151D01*
X48051346Y-32452006D01*
X48065224Y-32417110D01*
X48071274Y-32400021D01*
X48071386Y-32399274D01*
X48064528Y-32385793D01*
X48045302Y-32354770D01*
X48015728Y-32309289D01*
X47977827Y-32252432D01*
X47933620Y-32187283D01*
X47907921Y-32149862D01*
X47861093Y-32081247D01*
X47819501Y-32018952D01*
X47785175Y-31966129D01*
X47760143Y-31925927D01*
X47746435Y-31901500D01*
X47744456Y-31896024D01*
X47752966Y-31883278D01*
X47776493Y-31856063D01*
X47812032Y-31817428D01*
X47856577Y-31770423D01*
X47907123Y-31718095D01*
X47960664Y-31663495D01*
X48014195Y-31609670D01*
X48064711Y-31559670D01*
X48109206Y-31516543D01*
X48144675Y-31483339D01*
X48168113Y-31463106D01*
X48175954Y-31458278D01*
X48188720Y-31465067D01*
X48219256Y-31484142D01*
X48264590Y-31513561D01*
X48321756Y-31551381D01*
X48387784Y-31595661D01*
X48437590Y-31629395D01*
X48689236Y-31800512D01*
X48898999Y-31714041D01*
X49108763Y-31627570D01*
X49165611Y-31326018D01*
X49222460Y-31024466D01*
X49850115Y-31024466D01*
X49906964Y-31326018D01*
X49906964Y-31326018D01*
G37*
X49906964Y-31326018D02*
X49963812Y-31627570D01*
X50383338Y-31800512D01*
X50634984Y-31629395D01*
X50705458Y-31581750D01*
X50769163Y-31539210D01*
X50823126Y-31503715D01*
X50864373Y-31477210D01*
X50889934Y-31461636D01*
X50896895Y-31458278D01*
X50909435Y-31466914D01*
X50936231Y-31490792D01*
X50974280Y-31526859D01*
X51020579Y-31572067D01*
X51072123Y-31623364D01*
X51125909Y-31677701D01*
X51178935Y-31732028D01*
X51228195Y-31783295D01*
X51270687Y-31828451D01*
X51303407Y-31864446D01*
X51323351Y-31888230D01*
X51328119Y-31896190D01*
X51321257Y-31910865D01*
X51302020Y-31943014D01*
X51272430Y-31989492D01*
X51234510Y-32047156D01*
X51190282Y-32112860D01*
X51164654Y-32150336D01*
X51117941Y-32218768D01*
X51076432Y-32280520D01*
X51042140Y-32332519D01*
X51017080Y-32371692D01*
X51003264Y-32394965D01*
X51001188Y-32399855D01*
X51005895Y-32413755D01*
X51018723Y-32446150D01*
X51037738Y-32492485D01*
X51061003Y-32548206D01*
X51086584Y-32608758D01*
X51112545Y-32669586D01*
X51136950Y-32726136D01*
X51157863Y-32773852D01*
X51173349Y-32808181D01*
X51181472Y-32824568D01*
X51181952Y-32825212D01*
X51194707Y-32828341D01*
X51228677Y-32835321D01*
X51280340Y-32845467D01*
X51346176Y-32858092D01*
X51422664Y-32872509D01*
X51467290Y-32880823D01*
X51549021Y-32896384D01*
X51622843Y-32911192D01*
X51685021Y-32924436D01*
X51731822Y-32935305D01*
X51759509Y-32942989D01*
X51765074Y-32945427D01*
X51770526Y-32961930D01*
X51774924Y-32999200D01*
X51778272Y-33052880D01*
X51780574Y-33118612D01*
X51781832Y-33192037D01*
X51782048Y-33268796D01*
X51781227Y-33344532D01*
X51779371Y-33414886D01*
X51776482Y-33475500D01*
X51772565Y-33522016D01*
X51767622Y-33550075D01*
X51764657Y-33555916D01*
X51746934Y-33562917D01*
X51709381Y-33572927D01*
X51656964Y-33584769D01*
X51594652Y-33597267D01*
X51572900Y-33601310D01*
X51468024Y-33620520D01*
X51385180Y-33635991D01*
X51321630Y-33648337D01*
X51274637Y-33658173D01*
X51241463Y-33666114D01*
X51219371Y-33672776D01*
X51205624Y-33678773D01*
X51197484Y-33684719D01*
X51196345Y-33685894D01*
X51184977Y-33704826D01*
X51167635Y-33741669D01*
X51146050Y-33791913D01*
X51121954Y-33851046D01*
X51097079Y-33914556D01*
X51073157Y-33977932D01*
X51051919Y-34036662D01*
X51035097Y-34086235D01*
X51024422Y-34122139D01*
X51021627Y-34139862D01*
X51021860Y-34140483D01*
X51031331Y-34154970D01*
X51052818Y-34186844D01*
X51084063Y-34232789D01*
X51122807Y-34289485D01*
X51166793Y-34353617D01*
X51179319Y-34371842D01*
X51223984Y-34437914D01*
X51263288Y-34498200D01*
X51295088Y-34549235D01*
X51317245Y-34587560D01*
X51327617Y-34609711D01*
X51328119Y-34612432D01*
X51319405Y-34626736D01*
X51295325Y-34655072D01*
X51258976Y-34694396D01*
X51213453Y-34741661D01*
X51161852Y-34793823D01*
X51107267Y-34847835D01*
X51052794Y-34900653D01*
X51001529Y-34949231D01*
X50956567Y-34990523D01*
X50921004Y-35021485D01*
X50897935Y-35039070D01*
X50891554Y-35041941D01*
X50876699Y-35035178D01*
X50846286Y-35016939D01*
X50805268Y-34990297D01*
X50773709Y-34968852D01*
X50716525Y-34929503D01*
X50648806Y-34883171D01*
X50580880Y-34836913D01*
X50544361Y-34812155D01*
X50420752Y-34728547D01*
X50316991Y-34784650D01*
X50269720Y-34809228D01*
X50229523Y-34828331D01*
X50202326Y-34839227D01*
X50195402Y-34840743D01*
X50187077Y-34829549D01*
X50170654Y-34797917D01*
X50147357Y-34748765D01*
X50118414Y-34685010D01*
X50085050Y-34609571D01*
X50048491Y-34525364D01*
X50009964Y-34435308D01*
X49970694Y-34342321D01*
X49931908Y-34249320D01*
X49894830Y-34159223D01*
X49860689Y-34074948D01*
X49830708Y-33999413D01*
X49806116Y-33935534D01*
X49788136Y-33886231D01*
X49777997Y-33854421D01*
X49776366Y-33843496D01*
X49789291Y-33829561D01*
X49817589Y-33806940D01*
X49855346Y-33780333D01*
X49858515Y-33778228D01*
X49956100Y-33700114D01*
X50034786Y-33608982D01*
X50093891Y-33507745D01*
X50132732Y-33399318D01*
X50150628Y-33286614D01*
X50146897Y-33172548D01*
X50120857Y-33060034D01*
X50071825Y-32951985D01*
X50057400Y-32928345D01*
X49982369Y-32832887D01*
X49893730Y-32756232D01*
X49794549Y-32698780D01*
X49687895Y-32660929D01*
X49576836Y-32643078D01*
X49464439Y-32645625D01*
X49353773Y-32668970D01*
X49247906Y-32713510D01*
X49149905Y-32779645D01*
X49119590Y-32806487D01*
X49042438Y-32890512D01*
X48986218Y-32978966D01*
X48947653Y-33078115D01*
X48926174Y-33176303D01*
X48920872Y-33286697D01*
X48938552Y-33397640D01*
X48977419Y-33505381D01*
X49035677Y-33606169D01*
X49111531Y-33696256D01*
X49203183Y-33771892D01*
X49215228Y-33779864D01*
X49253389Y-33805974D01*
X49282399Y-33828595D01*
X49296268Y-33843039D01*
X49296469Y-33843496D01*
X49293492Y-33859121D01*
X49281689Y-33894582D01*
X49262286Y-33946962D01*
X49236512Y-34013345D01*
X49205591Y-34090814D01*
X49170751Y-34176450D01*
X49133217Y-34267337D01*
X49094217Y-34360559D01*
X49054977Y-34453197D01*
X49016724Y-34542335D01*
X48980683Y-34625055D01*
X48948083Y-34698441D01*
X48920148Y-34759575D01*
X48898105Y-34805541D01*
X48883182Y-34833421D01*
X48877172Y-34840743D01*
X48858809Y-34835041D01*
X48824448Y-34819749D01*
X48780016Y-34797599D01*
X48755583Y-34784650D01*
X48651822Y-34728547D01*
X48528213Y-34812155D01*
X48465114Y-34854987D01*
X48396030Y-34902122D01*
X48331293Y-34946503D01*
X48298866Y-34968852D01*
X48253259Y-34999477D01*
X48214640Y-35023747D01*
X48188048Y-35038587D01*
X48179410Y-35041724D01*
X48166839Y-35033261D01*
X48139016Y-35009636D01*
X48098639Y-34973302D01*
X48048405Y-34926711D01*
X47991012Y-34872317D01*
X47954714Y-34837392D01*
X47891210Y-34774996D01*
X47836327Y-34719188D01*
X47792286Y-34672354D01*
X47761305Y-34636882D01*
X47745602Y-34615161D01*
X47744095Y-34610752D01*
X47751086Y-34593985D01*
X47770406Y-34560082D01*
X47799909Y-34512476D01*
X47837455Y-34454599D01*
X47880900Y-34389884D01*
X47893255Y-34371842D01*
X47938273Y-34306267D01*
X47978660Y-34247228D01*
X48012160Y-34198042D01*
X48036514Y-34162028D01*
X48049464Y-34142502D01*
X48050715Y-34140483D01*
X48048844Y-34124922D01*
X48038913Y-34090709D01*
X48022653Y-34042355D01*
X48001795Y-33984371D01*
X47978073Y-33921270D01*
X47953216Y-33857563D01*
X47928958Y-33797761D01*
X47907029Y-33746376D01*
X47889162Y-33707919D01*
X47877087Y-33686902D01*
X47876229Y-33685894D01*
X47868846Y-33679888D01*
X47856375Y-33673948D01*
X47836080Y-33667460D01*
X47805222Y-33659809D01*
X47761066Y-33650380D01*
X47700874Y-33638559D01*
X47621907Y-33623729D01*
X47521430Y-33605277D01*
X47499675Y-33601310D01*
X47435198Y-33588853D01*
X47378989Y-33576666D01*
X47336013Y-33565926D01*
X47311240Y-33557809D01*
X47307918Y-33555916D01*
X47302444Y-33539138D01*
X47297994Y-33501645D01*
X47294572Y-33447794D01*
X47292181Y-33381944D01*
X47290823Y-33308453D01*
X47290501Y-33231680D01*
X47291219Y-33155983D01*
X47292979Y-33085720D01*
X47295784Y-33025250D01*
X47299638Y-32978930D01*
X47304543Y-32951119D01*
X47307500Y-32945427D01*
X47323963Y-32939686D01*
X47361449Y-32930345D01*
X47416225Y-32918215D01*
X47484555Y-32904107D01*
X47562706Y-32888830D01*
X47605284Y-32880823D01*
X47686071Y-32865721D01*
X47758113Y-32852040D01*
X47817889Y-32840467D01*
X47861879Y-32831687D01*
X47886561Y-32826387D01*
X47890623Y-32825212D01*
X47897489Y-32811965D01*
X47912002Y-32780057D01*
X47932229Y-32734047D01*
X47956234Y-32678492D01*
X47982082Y-32617953D01*
X48007840Y-32556986D01*
X48031573Y-32500151D01*
X48051346Y-32452006D01*
X48065224Y-32417110D01*
X48071274Y-32400021D01*
X48071386Y-32399274D01*
X48064528Y-32385793D01*
X48045302Y-32354770D01*
X48015728Y-32309289D01*
X47977827Y-32252432D01*
X47933620Y-32187283D01*
X47907921Y-32149862D01*
X47861093Y-32081247D01*
X47819501Y-32018952D01*
X47785175Y-31966129D01*
X47760143Y-31925927D01*
X47746435Y-31901500D01*
X47744456Y-31896024D01*
X47752966Y-31883278D01*
X47776493Y-31856063D01*
X47812032Y-31817428D01*
X47856577Y-31770423D01*
X47907123Y-31718095D01*
X47960664Y-31663495D01*
X48014195Y-31609670D01*
X48064711Y-31559670D01*
X48109206Y-31516543D01*
X48144675Y-31483339D01*
X48168113Y-31463106D01*
X48175954Y-31458278D01*
X48188720Y-31465067D01*
X48219256Y-31484142D01*
X48264590Y-31513561D01*
X48321756Y-31551381D01*
X48387784Y-31595661D01*
X48437590Y-31629395D01*
X48689236Y-31800512D01*
X48898999Y-31714041D01*
X49108763Y-31627570D01*
X49165611Y-31326018D01*
X49222460Y-31024466D01*
X49850115Y-31024466D01*
X49906964Y-31326018D01*
D12*
X57991571Y-36186667D02*
X58467762Y-36186667D01*
X57896333Y-36472381D02*
X58229666Y-35472381D01*
X58563000Y-36472381D01*
X59229667Y-35948571D02*
X58896333Y-35948571D01*
X58896333Y-36472381D02*
X58896333Y-35472381D01*
X59372524Y-35472381D01*
X60086810Y-35948571D02*
X59753476Y-35948571D01*
X59753476Y-36472381D02*
X59753476Y-35472381D01*
X60229667Y-35472381D01*
X61134429Y-36472381D02*
X60563000Y-36472381D01*
X60848714Y-36472381D02*
X60848714Y-35472381D01*
X60753476Y-35615238D01*
X60658238Y-35710476D01*
X60563000Y-35758095D01*
X43076905Y-42203381D02*
X43076905Y-41203381D01*
X43315000Y-41203381D01*
X43457858Y-41251000D01*
X43553096Y-41346238D01*
X43600715Y-41441476D01*
X43648334Y-41631952D01*
X43648334Y-41774810D01*
X43600715Y-41965286D01*
X43553096Y-42060524D01*
X43457858Y-42155762D01*
X43315000Y-42203381D01*
X43076905Y-42203381D01*
X44600715Y-42203381D02*
X44029286Y-42203381D01*
X44315000Y-42203381D02*
X44315000Y-41203381D01*
X44219762Y-41346238D01*
X44124524Y-41441476D01*
X44029286Y-41489095D01*
X43076905Y-45124381D02*
X43076905Y-44124381D01*
X43315000Y-44124381D01*
X43457858Y-44172000D01*
X43553096Y-44267238D01*
X43600715Y-44362476D01*
X43648334Y-44552952D01*
X43648334Y-44695810D01*
X43600715Y-44886286D01*
X43553096Y-44981524D01*
X43457858Y-45076762D01*
X43315000Y-45124381D01*
X43076905Y-45124381D01*
X44029286Y-44219619D02*
X44076905Y-44172000D01*
X44172143Y-44124381D01*
X44410239Y-44124381D01*
X44505477Y-44172000D01*
X44553096Y-44219619D01*
X44600715Y-44314857D01*
X44600715Y-44410095D01*
X44553096Y-44552952D01*
X43981667Y-45124381D01*
X44600715Y-45124381D01*
X43045143Y-39836381D02*
X42711809Y-39360190D01*
X42473714Y-39836381D02*
X42473714Y-38836381D01*
X42854667Y-38836381D01*
X42949905Y-38884000D01*
X42997524Y-38931619D01*
X43045143Y-39026857D01*
X43045143Y-39169714D01*
X42997524Y-39264952D01*
X42949905Y-39312571D01*
X42854667Y-39360190D01*
X42473714Y-39360190D01*
X43426095Y-38931619D02*
X43473714Y-38884000D01*
X43568952Y-38836381D01*
X43807048Y-38836381D01*
X43902286Y-38884000D01*
X43949905Y-38931619D01*
X43997524Y-39026857D01*
X43997524Y-39122095D01*
X43949905Y-39264952D01*
X43378476Y-39836381D01*
X43997524Y-39836381D01*
X44378476Y-38931619D02*
X44426095Y-38884000D01*
X44521333Y-38836381D01*
X44759429Y-38836381D01*
X44854667Y-38884000D01*
X44902286Y-38931619D01*
X44949905Y-39026857D01*
X44949905Y-39122095D01*
X44902286Y-39264952D01*
X44330857Y-39836381D01*
X44949905Y-39836381D01*
X43045143Y-37296381D02*
X42711809Y-36820190D01*
X42473714Y-37296381D02*
X42473714Y-36296381D01*
X42854667Y-36296381D01*
X42949905Y-36344000D01*
X42997524Y-36391619D01*
X43045143Y-36486857D01*
X43045143Y-36629714D01*
X42997524Y-36724952D01*
X42949905Y-36772571D01*
X42854667Y-36820190D01*
X42473714Y-36820190D01*
X43426095Y-36391619D02*
X43473714Y-36344000D01*
X43568952Y-36296381D01*
X43807048Y-36296381D01*
X43902286Y-36344000D01*
X43949905Y-36391619D01*
X43997524Y-36486857D01*
X43997524Y-36582095D01*
X43949905Y-36724952D01*
X43378476Y-37296381D01*
X43997524Y-37296381D01*
X44330857Y-36296381D02*
X44949905Y-36296381D01*
X44616571Y-36677333D01*
X44759429Y-36677333D01*
X44854667Y-36724952D01*
X44902286Y-36772571D01*
X44949905Y-36867810D01*
X44949905Y-37105905D01*
X44902286Y-37201143D01*
X44854667Y-37248762D01*
X44759429Y-37296381D01*
X44473714Y-37296381D01*
X44378476Y-37248762D01*
X44330857Y-37201143D01*
X65365381Y-29971905D02*
X66174905Y-29971905D01*
X66270143Y-29924286D01*
X66317762Y-29876667D01*
X66365381Y-29781429D01*
X66365381Y-29590952D01*
X66317762Y-29495714D01*
X66270143Y-29448095D01*
X66174905Y-29400476D01*
X65365381Y-29400476D01*
X65460619Y-28971905D02*
X65413000Y-28924286D01*
X65365381Y-28829048D01*
X65365381Y-28590952D01*
X65413000Y-28495714D01*
X65460619Y-28448095D01*
X65555857Y-28400476D01*
X65651095Y-28400476D01*
X65793952Y-28448095D01*
X66365381Y-29019524D01*
X66365381Y-28400476D01*
X72985381Y-29971905D02*
X73794905Y-29971905D01*
X73890143Y-29924286D01*
X73937762Y-29876667D01*
X73985381Y-29781429D01*
X73985381Y-29590952D01*
X73937762Y-29495714D01*
X73890143Y-29448095D01*
X73794905Y-29400476D01*
X72985381Y-29400476D01*
X72985381Y-29019524D02*
X72985381Y-28400476D01*
X73366333Y-28733810D01*
X73366333Y-28590952D01*
X73413952Y-28495714D01*
X73461571Y-28448095D01*
X73556810Y-28400476D01*
X73794905Y-28400476D01*
X73890143Y-28448095D01*
X73937762Y-28495714D01*
X73985381Y-28590952D01*
X73985381Y-28876667D01*
X73937762Y-28971905D01*
X73890143Y-29019524D01*
X80605381Y-40131905D02*
X81414905Y-40131905D01*
X81510143Y-40084286D01*
X81557762Y-40036667D01*
X81605381Y-39941429D01*
X81605381Y-39750952D01*
X81557762Y-39655714D01*
X81510143Y-39608095D01*
X81414905Y-39560476D01*
X80605381Y-39560476D01*
X80605381Y-38655714D02*
X80605381Y-38846191D01*
X80653000Y-38941429D01*
X80700619Y-38989048D01*
X80843476Y-39084286D01*
X81033952Y-39131905D01*
X81414905Y-39131905D01*
X81510143Y-39084286D01*
X81557762Y-39036667D01*
X81605381Y-38941429D01*
X81605381Y-38750952D01*
X81557762Y-38655714D01*
X81510143Y-38608095D01*
X81414905Y-38560476D01*
X81176810Y-38560476D01*
X81081571Y-38608095D01*
X81033952Y-38655714D01*
X80986333Y-38750952D01*
X80986333Y-38941429D01*
X81033952Y-39036667D01*
X81081571Y-39084286D01*
X81176810Y-39131905D01*
X72985381Y-40131905D02*
X73794905Y-40131905D01*
X73890143Y-40084286D01*
X73937762Y-40036667D01*
X73985381Y-39941429D01*
X73985381Y-39750952D01*
X73937762Y-39655714D01*
X73890143Y-39608095D01*
X73794905Y-39560476D01*
X72985381Y-39560476D01*
X72985381Y-39179524D02*
X72985381Y-38512857D01*
X73985381Y-38941429D01*
X83439095Y-27900381D02*
X83439095Y-28709905D01*
X83486714Y-28805143D01*
X83534333Y-28852762D01*
X83629571Y-28900381D01*
X83820048Y-28900381D01*
X83915286Y-28852762D01*
X83962905Y-28805143D01*
X84010524Y-28709905D01*
X84010524Y-27900381D01*
X84629571Y-28328952D02*
X84534333Y-28281333D01*
X84486714Y-28233714D01*
X84439095Y-28138476D01*
X84439095Y-28090857D01*
X84486714Y-27995619D01*
X84534333Y-27948000D01*
X84629571Y-27900381D01*
X84820048Y-27900381D01*
X84915286Y-27948000D01*
X84962905Y-27995619D01*
X85010524Y-28090857D01*
X85010524Y-28138476D01*
X84962905Y-28233714D01*
X84915286Y-28281333D01*
X84820048Y-28328952D01*
X84629571Y-28328952D01*
X84534333Y-28376571D01*
X84486714Y-28424190D01*
X84439095Y-28519429D01*
X84439095Y-28709905D01*
X84486714Y-28805143D01*
X84534333Y-28852762D01*
X84629571Y-28900381D01*
X84820048Y-28900381D01*
X84915286Y-28852762D01*
X84962905Y-28805143D01*
X85010524Y-28709905D01*
X85010524Y-28519429D01*
X84962905Y-28424190D01*
X84915286Y-28376571D01*
X84820048Y-28328952D01*
X34290095Y-27900381D02*
X34290095Y-28709905D01*
X34337714Y-28805143D01*
X34385333Y-28852762D01*
X34480571Y-28900381D01*
X34671048Y-28900381D01*
X34766286Y-28852762D01*
X34813905Y-28805143D01*
X34861524Y-28709905D01*
X34861524Y-27900381D01*
X35385333Y-28900381D02*
X35575809Y-28900381D01*
X35671048Y-28852762D01*
X35718667Y-28805143D01*
X35813905Y-28662286D01*
X35861524Y-28471810D01*
X35861524Y-28090857D01*
X35813905Y-27995619D01*
X35766286Y-27948000D01*
X35671048Y-27900381D01*
X35480571Y-27900381D01*
X35385333Y-27948000D01*
X35337714Y-27995619D01*
X35290095Y-28090857D01*
X35290095Y-28328952D01*
X35337714Y-28424190D01*
X35385333Y-28471810D01*
X35480571Y-28519429D01*
X35671048Y-28519429D01*
X35766286Y-28471810D01*
X35813905Y-28424190D01*
X35861524Y-28328952D01*
M02*
