G04 #@! TF.GenerationSoftware,KiCad,Pcbnew,5.0.2+dfsg1-1*
G04 #@! TF.CreationDate,2019-03-09T11:54:22-07:00*
G04 #@! TF.ProjectId,1x7seg_4btn,31783773-6567-45f3-9462-746e2e6b6963,rev?*
G04 #@! TF.SameCoordinates,Original*
G04 #@! TF.FileFunction,Legend,Bot*
G04 #@! TF.FilePolarity,Positive*
%FSLAX46Y46*%
G04 Gerber Fmt 4.6, Leading zero omitted, Abs format (unit mm)*
G04 Created by KiCad (PCBNEW 5.0.2+dfsg1-1) date Sat 09 Mar 2019 11:54:22 AM MST*
%MOMM*%
%LPD*%
G01*
G04 APERTURE LIST*
%ADD10C,0.200000*%
%ADD11C,0.150000*%
%ADD12C,0.120000*%
G04 APERTURE END LIST*
D10*
X53514428Y-39949380D02*
X53514428Y-38949380D01*
X53181095Y-39663666D01*
X52847761Y-38949380D01*
X52847761Y-39949380D01*
X52371571Y-39949380D02*
X52371571Y-38949380D01*
X51943000Y-39901761D02*
X51800142Y-39949380D01*
X51562047Y-39949380D01*
X51466809Y-39901761D01*
X51419190Y-39854142D01*
X51371571Y-39758904D01*
X51371571Y-39663666D01*
X51419190Y-39568428D01*
X51466809Y-39520809D01*
X51562047Y-39473190D01*
X51752523Y-39425571D01*
X51847761Y-39377952D01*
X51895380Y-39330333D01*
X51943000Y-39235095D01*
X51943000Y-39139857D01*
X51895380Y-39044619D01*
X51847761Y-38997000D01*
X51752523Y-38949380D01*
X51514428Y-38949380D01*
X51371571Y-38997000D01*
X50752523Y-38949380D02*
X50562047Y-38949380D01*
X50466809Y-38997000D01*
X50371571Y-39092238D01*
X50323952Y-39282714D01*
X50323952Y-39616047D01*
X50371571Y-39806523D01*
X50466809Y-39901761D01*
X50562047Y-39949380D01*
X50752523Y-39949380D01*
X50847761Y-39901761D01*
X50943000Y-39806523D01*
X50990619Y-39616047D01*
X50990619Y-39282714D01*
X50943000Y-39092238D01*
X50847761Y-38997000D01*
X50752523Y-38949380D01*
X39060380Y-40211571D02*
X38060380Y-40211571D01*
X38774666Y-40544904D01*
X38060380Y-40878238D01*
X39060380Y-40878238D01*
X38060380Y-41544904D02*
X38060380Y-41735380D01*
X38108000Y-41830619D01*
X38203238Y-41925857D01*
X38393714Y-41973476D01*
X38727047Y-41973476D01*
X38917523Y-41925857D01*
X39012761Y-41830619D01*
X39060380Y-41735380D01*
X39060380Y-41544904D01*
X39012761Y-41449666D01*
X38917523Y-41354428D01*
X38727047Y-41306809D01*
X38393714Y-41306809D01*
X38203238Y-41354428D01*
X38108000Y-41449666D01*
X38060380Y-41544904D01*
X39012761Y-42354428D02*
X39060380Y-42497285D01*
X39060380Y-42735380D01*
X39012761Y-42830619D01*
X38965142Y-42878238D01*
X38869904Y-42925857D01*
X38774666Y-42925857D01*
X38679428Y-42878238D01*
X38631809Y-42830619D01*
X38584190Y-42735380D01*
X38536571Y-42544904D01*
X38488952Y-42449666D01*
X38441333Y-42402047D01*
X38346095Y-42354428D01*
X38250857Y-42354428D01*
X38155619Y-42402047D01*
X38108000Y-42449666D01*
X38060380Y-42544904D01*
X38060380Y-42783000D01*
X38108000Y-42925857D01*
X39060380Y-43354428D02*
X38060380Y-43354428D01*
X41322476Y-37171380D02*
X40989142Y-38171380D01*
X40655809Y-37171380D01*
X39893904Y-38123761D02*
X39989142Y-38171380D01*
X40179619Y-38171380D01*
X40274857Y-38123761D01*
X40322476Y-38076142D01*
X40370095Y-37980904D01*
X40370095Y-37695190D01*
X40322476Y-37599952D01*
X40274857Y-37552333D01*
X40179619Y-37504714D01*
X39989142Y-37504714D01*
X39893904Y-37552333D01*
X39036761Y-38123761D02*
X39132000Y-38171380D01*
X39322476Y-38171380D01*
X39417714Y-38123761D01*
X39465333Y-38076142D01*
X39512952Y-37980904D01*
X39512952Y-37695190D01*
X39465333Y-37599952D01*
X39417714Y-37552333D01*
X39322476Y-37504714D01*
X39132000Y-37504714D01*
X39036761Y-37552333D01*
X48680619Y-46680380D02*
X49013952Y-46204190D01*
X49252047Y-46680380D02*
X49252047Y-45680380D01*
X48871095Y-45680380D01*
X48775857Y-45728000D01*
X48728238Y-45775619D01*
X48680619Y-45870857D01*
X48680619Y-46013714D01*
X48728238Y-46108952D01*
X48775857Y-46156571D01*
X48871095Y-46204190D01*
X49252047Y-46204190D01*
X48299666Y-46632761D02*
X48156809Y-46680380D01*
X47918714Y-46680380D01*
X47823476Y-46632761D01*
X47775857Y-46585142D01*
X47728238Y-46489904D01*
X47728238Y-46394666D01*
X47775857Y-46299428D01*
X47823476Y-46251809D01*
X47918714Y-46204190D01*
X48109190Y-46156571D01*
X48204428Y-46108952D01*
X48252047Y-46061333D01*
X48299666Y-45966095D01*
X48299666Y-45870857D01*
X48252047Y-45775619D01*
X48204428Y-45728000D01*
X48109190Y-45680380D01*
X47871095Y-45680380D01*
X47728238Y-45728000D01*
X47442523Y-45680380D02*
X46871095Y-45680380D01*
X47156809Y-46680380D02*
X47156809Y-45680380D01*
X42417904Y-45728000D02*
X42513142Y-45680380D01*
X42656000Y-45680380D01*
X42798857Y-45728000D01*
X42894095Y-45823238D01*
X42941714Y-45918476D01*
X42989333Y-46108952D01*
X42989333Y-46251809D01*
X42941714Y-46442285D01*
X42894095Y-46537523D01*
X42798857Y-46632761D01*
X42656000Y-46680380D01*
X42560761Y-46680380D01*
X42417904Y-46632761D01*
X42370285Y-46585142D01*
X42370285Y-46251809D01*
X42560761Y-46251809D01*
X41941714Y-46680380D02*
X41941714Y-45680380D01*
X41370285Y-46680380D01*
X41370285Y-45680380D01*
X40894095Y-46680380D02*
X40894095Y-45680380D01*
X40656000Y-45680380D01*
X40513142Y-45728000D01*
X40417904Y-45823238D01*
X40370285Y-45918476D01*
X40322666Y-46108952D01*
X40322666Y-46251809D01*
X40370285Y-46442285D01*
X40417904Y-46537523D01*
X40513142Y-46632761D01*
X40656000Y-46680380D01*
X40894095Y-46680380D01*
D11*
G04 #@! TO.C,IC1*
X43365000Y-24315000D02*
X43590000Y-24315000D01*
X43365000Y-31565000D02*
X43690000Y-31565000D01*
X50615000Y-31565000D02*
X50290000Y-31565000D01*
X50615000Y-24315000D02*
X50290000Y-24315000D01*
X43365000Y-24315000D02*
X43365000Y-24640000D01*
X50615000Y-24315000D02*
X50615000Y-24640000D01*
X50615000Y-31565000D02*
X50615000Y-31240000D01*
X43365000Y-31565000D02*
X43365000Y-31240000D01*
X43590000Y-24315000D02*
X43590000Y-22890000D01*
G04 #@! TO.C,R17*
X68723000Y-44890000D02*
X70723000Y-44890000D01*
X70723000Y-42740000D02*
X68723000Y-42740000D01*
G04 #@! TO.C,C1*
X36560000Y-23885000D02*
X34560000Y-23885000D01*
X34560000Y-21835000D02*
X36560000Y-21835000D01*
G04 #@! TO.C,C2*
X68723000Y-27550000D02*
X70723000Y-27550000D01*
X70723000Y-29600000D02*
X68723000Y-29600000D01*
G04 #@! TO.C,C3*
X80382000Y-32496000D02*
X80382000Y-30496000D01*
X82432000Y-30496000D02*
X82432000Y-32496000D01*
G04 #@! TO.C,C4*
X76343000Y-27550000D02*
X78343000Y-27550000D01*
X78343000Y-29600000D02*
X76343000Y-29600000D01*
G04 #@! TO.C,C7*
X78343000Y-41030000D02*
X76343000Y-41030000D01*
X76343000Y-38980000D02*
X78343000Y-38980000D01*
G04 #@! TO.C,C8*
X70723000Y-41030000D02*
X68723000Y-41030000D01*
X68723000Y-38980000D02*
X70723000Y-38980000D01*
G04 #@! TO.C,CON1*
X47331000Y-38283000D02*
X49756000Y-38283000D01*
X47081000Y-40513000D02*
X42581000Y-40513000D01*
X42331000Y-45593000D02*
X42331000Y-45313000D01*
X42331000Y-45593000D02*
X47331000Y-45593000D01*
X47331000Y-45593000D02*
X47331000Y-45313000D01*
X47331000Y-37973000D02*
X47331000Y-38253000D01*
X42331000Y-37973000D02*
X47331000Y-37973000D01*
X42331000Y-40132000D02*
X42331000Y-40259000D01*
X42331000Y-40259000D02*
X42585000Y-40513000D01*
X42585000Y-40513000D02*
X42331000Y-40767000D01*
X42331000Y-40767000D02*
X42331000Y-40894000D01*
X42331000Y-37973000D02*
X42331000Y-38253000D01*
X42331000Y-42672000D02*
X42331000Y-42799000D01*
X47331000Y-40894000D02*
X47331000Y-40767000D01*
X42585000Y-43053000D02*
X42331000Y-43307000D01*
X47077000Y-40513000D02*
X47331000Y-40259000D01*
X42331000Y-43307000D02*
X42331000Y-43434000D01*
X47331000Y-40259000D02*
X47331000Y-40132000D01*
X42331000Y-42799000D02*
X42585000Y-43053000D01*
X47331000Y-40767000D02*
X47077000Y-40513000D01*
X47331000Y-43434000D02*
X47331000Y-43307000D01*
X47331000Y-42799000D02*
X47331000Y-42672000D01*
X47077000Y-43053000D02*
X47331000Y-42799000D01*
X47331000Y-43307000D02*
X47077000Y-43053000D01*
X47081000Y-43053000D02*
X42581000Y-43053000D01*
D12*
G04 #@! TO.C,Q1*
X49532000Y-38918000D02*
X49532000Y-37988000D01*
X49532000Y-35758000D02*
X49532000Y-36688000D01*
X49532000Y-35758000D02*
X51692000Y-35758000D01*
X49532000Y-38918000D02*
X50992000Y-38918000D01*
G04 #@! TO.C,Q2*
X48512000Y-33726000D02*
X48512000Y-34656000D01*
X48512000Y-36886000D02*
X48512000Y-35956000D01*
X48512000Y-36886000D02*
X46352000Y-36886000D01*
X48512000Y-33726000D02*
X47052000Y-33726000D01*
G04 #@! TO.C,Q3*
X62613000Y-45395000D02*
X62613000Y-44465000D01*
X62613000Y-42235000D02*
X62613000Y-43165000D01*
X62613000Y-42235000D02*
X64773000Y-42235000D01*
X62613000Y-45395000D02*
X64073000Y-45395000D01*
D11*
G04 #@! TO.C,R1*
X70723000Y-25595000D02*
X68723000Y-25595000D01*
X68723000Y-27745000D02*
X70723000Y-27745000D01*
G04 #@! TO.C,R2*
X78343000Y-25595000D02*
X76343000Y-25595000D01*
X76343000Y-27745000D02*
X78343000Y-27745000D01*
G04 #@! TO.C,R5*
X76343000Y-42985000D02*
X78343000Y-42985000D01*
X78343000Y-40835000D02*
X76343000Y-40835000D01*
G04 #@! TO.C,R6*
X68723000Y-42985000D02*
X70723000Y-42985000D01*
X70723000Y-40835000D02*
X68723000Y-40835000D01*
G04 #@! TO.C,R9*
X41207000Y-25384000D02*
X41207000Y-23384000D01*
X39057000Y-23384000D02*
X39057000Y-25384000D01*
G04 #@! TO.C,R12*
X70723000Y-23690000D02*
X68723000Y-23690000D01*
X68723000Y-25840000D02*
X70723000Y-25840000D01*
G04 #@! TO.C,R13*
X78343000Y-23690000D02*
X76343000Y-23690000D01*
X76343000Y-25840000D02*
X78343000Y-25840000D01*
G04 #@! TO.C,R16*
X76343000Y-44890000D02*
X78343000Y-44890000D01*
X78343000Y-42740000D02*
X76343000Y-42740000D01*
G04 #@! TO.C,R18*
X42688000Y-35746000D02*
X44688000Y-35746000D01*
X44688000Y-33596000D02*
X42688000Y-33596000D01*
G04 #@! TO.C,R19*
X42688000Y-38159000D02*
X44688000Y-38159000D01*
X44688000Y-36009000D02*
X42688000Y-36009000D01*
G04 #@! TO.C,R20*
X39057000Y-33036000D02*
X39057000Y-35036000D01*
X41207000Y-35036000D02*
X41207000Y-33036000D01*
G04 #@! TO.C,R21*
X41207000Y-30210000D02*
X41207000Y-28210000D01*
X39057000Y-28210000D02*
X39057000Y-30210000D01*
G04 #@! TO.C,R24*
X58733000Y-25765000D02*
X58733000Y-23765000D01*
X56583000Y-23765000D02*
X56583000Y-25765000D01*
G04 #@! TO.C,R25*
X56828000Y-25765000D02*
X56828000Y-23765000D01*
X54678000Y-23765000D02*
X54678000Y-25765000D01*
G04 #@! TO.C,R26*
X54678000Y-40275000D02*
X54678000Y-42275000D01*
X56828000Y-42275000D02*
X56828000Y-40275000D01*
G04 #@! TO.C,R27*
X56583000Y-40275000D02*
X56583000Y-42275000D01*
X58733000Y-42275000D02*
X58733000Y-40275000D01*
G04 #@! TO.C,R28*
X60393000Y-40275000D02*
X60393000Y-42275000D01*
X62543000Y-42275000D02*
X62543000Y-40275000D01*
G04 #@! TO.C,R29*
X64448000Y-25765000D02*
X64448000Y-23765000D01*
X62298000Y-23765000D02*
X62298000Y-25765000D01*
G04 #@! TO.C,R30*
X62543000Y-25765000D02*
X62543000Y-23765000D01*
X60393000Y-23765000D02*
X60393000Y-25765000D01*
G04 #@! TO.C,R52*
X59928000Y-43375000D02*
X57928000Y-43375000D01*
X57928000Y-45525000D02*
X59928000Y-45525000D01*
G04 #@! TO.C,U1*
X77343000Y-36576000D02*
X77343000Y-31750000D01*
X77343000Y-31750000D02*
X67183000Y-31750000D01*
X67183000Y-31750000D02*
X67183000Y-36576000D01*
X67183000Y-36576000D02*
X77343000Y-36576000D01*
X67183000Y-34798000D02*
X67818000Y-34798000D01*
X67818000Y-34798000D02*
X67818000Y-33528000D01*
X67818000Y-33528000D02*
X67183000Y-33528000D01*
G04 #@! TO.C,U10*
X60325000Y-38608000D02*
X60325000Y-37846000D01*
X60325000Y-37846000D02*
X58801000Y-37846000D01*
X58801000Y-37846000D02*
X58801000Y-38608000D01*
X61849000Y-27432000D02*
X57277000Y-27432000D01*
X57277000Y-27432000D02*
X57277000Y-38608000D01*
X57277000Y-38608000D02*
X61849000Y-38608000D01*
X61849000Y-38608000D02*
X61849000Y-27432000D01*
G04 #@! TO.C,IC1*
X41392380Y-26963809D02*
X40392380Y-26963809D01*
X41297142Y-28011428D02*
X41344761Y-27963809D01*
X41392380Y-27820952D01*
X41392380Y-27725714D01*
X41344761Y-27582857D01*
X41249523Y-27487619D01*
X41154285Y-27440000D01*
X40963809Y-27392380D01*
X40820952Y-27392380D01*
X40630476Y-27440000D01*
X40535238Y-27487619D01*
X40440000Y-27582857D01*
X40392380Y-27725714D01*
X40392380Y-27820952D01*
X40440000Y-27963809D01*
X40487619Y-28011428D01*
X41392380Y-28963809D02*
X41392380Y-28392380D01*
X41392380Y-28678095D02*
X40392380Y-28678095D01*
X40535238Y-28582857D01*
X40630476Y-28487619D01*
X40678095Y-28392380D01*
G04 #@! TO.C,R17*
X70365857Y-41967380D02*
X70699190Y-41491190D01*
X70937285Y-41967380D02*
X70937285Y-40967380D01*
X70556333Y-40967380D01*
X70461095Y-41015000D01*
X70413476Y-41062619D01*
X70365857Y-41157857D01*
X70365857Y-41300714D01*
X70413476Y-41395952D01*
X70461095Y-41443571D01*
X70556333Y-41491190D01*
X70937285Y-41491190D01*
X69413476Y-41967380D02*
X69984904Y-41967380D01*
X69699190Y-41967380D02*
X69699190Y-40967380D01*
X69794428Y-41110238D01*
X69889666Y-41205476D01*
X69984904Y-41253095D01*
X69080142Y-40967380D02*
X68413476Y-40967380D01*
X68842047Y-41967380D01*
G04 #@! TO.C,C1*
X35726666Y-23217142D02*
X35774285Y-23264761D01*
X35917142Y-23312380D01*
X36012380Y-23312380D01*
X36155238Y-23264761D01*
X36250476Y-23169523D01*
X36298095Y-23074285D01*
X36345714Y-22883809D01*
X36345714Y-22740952D01*
X36298095Y-22550476D01*
X36250476Y-22455238D01*
X36155238Y-22360000D01*
X36012380Y-22312380D01*
X35917142Y-22312380D01*
X35774285Y-22360000D01*
X35726666Y-22407619D01*
X34774285Y-23312380D02*
X35345714Y-23312380D01*
X35060000Y-23312380D02*
X35060000Y-22312380D01*
X35155238Y-22455238D01*
X35250476Y-22550476D01*
X35345714Y-22598095D01*
G04 #@! TO.C,C2*
X69889666Y-26632142D02*
X69937285Y-26679761D01*
X70080142Y-26727380D01*
X70175380Y-26727380D01*
X70318238Y-26679761D01*
X70413476Y-26584523D01*
X70461095Y-26489285D01*
X70508714Y-26298809D01*
X70508714Y-26155952D01*
X70461095Y-25965476D01*
X70413476Y-25870238D01*
X70318238Y-25775000D01*
X70175380Y-25727380D01*
X70080142Y-25727380D01*
X69937285Y-25775000D01*
X69889666Y-25822619D01*
X69508714Y-25822619D02*
X69461095Y-25775000D01*
X69365857Y-25727380D01*
X69127761Y-25727380D01*
X69032523Y-25775000D01*
X68984904Y-25822619D01*
X68937285Y-25917857D01*
X68937285Y-26013095D01*
X68984904Y-26155952D01*
X69556333Y-26727380D01*
X68937285Y-26727380D01*
G04 #@! TO.C,C3*
X79464142Y-31329333D02*
X79511761Y-31281714D01*
X79559380Y-31138857D01*
X79559380Y-31043619D01*
X79511761Y-30900761D01*
X79416523Y-30805523D01*
X79321285Y-30757904D01*
X79130809Y-30710285D01*
X78987952Y-30710285D01*
X78797476Y-30757904D01*
X78702238Y-30805523D01*
X78607000Y-30900761D01*
X78559380Y-31043619D01*
X78559380Y-31138857D01*
X78607000Y-31281714D01*
X78654619Y-31329333D01*
X78559380Y-31662666D02*
X78559380Y-32281714D01*
X78940333Y-31948380D01*
X78940333Y-32091238D01*
X78987952Y-32186476D01*
X79035571Y-32234095D01*
X79130809Y-32281714D01*
X79368904Y-32281714D01*
X79464142Y-32234095D01*
X79511761Y-32186476D01*
X79559380Y-32091238D01*
X79559380Y-31805523D01*
X79511761Y-31710285D01*
X79464142Y-31662666D01*
G04 #@! TO.C,C4*
X77509666Y-26632142D02*
X77557285Y-26679761D01*
X77700142Y-26727380D01*
X77795380Y-26727380D01*
X77938238Y-26679761D01*
X78033476Y-26584523D01*
X78081095Y-26489285D01*
X78128714Y-26298809D01*
X78128714Y-26155952D01*
X78081095Y-25965476D01*
X78033476Y-25870238D01*
X77938238Y-25775000D01*
X77795380Y-25727380D01*
X77700142Y-25727380D01*
X77557285Y-25775000D01*
X77509666Y-25822619D01*
X76652523Y-26060714D02*
X76652523Y-26727380D01*
X76890619Y-25679761D02*
X77128714Y-26394047D01*
X76509666Y-26394047D01*
G04 #@! TO.C,C7*
X77509666Y-42662142D02*
X77557285Y-42709761D01*
X77700142Y-42757380D01*
X77795380Y-42757380D01*
X77938238Y-42709761D01*
X78033476Y-42614523D01*
X78081095Y-42519285D01*
X78128714Y-42328809D01*
X78128714Y-42185952D01*
X78081095Y-41995476D01*
X78033476Y-41900238D01*
X77938238Y-41805000D01*
X77795380Y-41757380D01*
X77700142Y-41757380D01*
X77557285Y-41805000D01*
X77509666Y-41852619D01*
X77176333Y-41757380D02*
X76509666Y-41757380D01*
X76938238Y-42757380D01*
G04 #@! TO.C,C8*
X69889666Y-42662142D02*
X69937285Y-42709761D01*
X70080142Y-42757380D01*
X70175380Y-42757380D01*
X70318238Y-42709761D01*
X70413476Y-42614523D01*
X70461095Y-42519285D01*
X70508714Y-42328809D01*
X70508714Y-42185952D01*
X70461095Y-41995476D01*
X70413476Y-41900238D01*
X70318238Y-41805000D01*
X70175380Y-41757380D01*
X70080142Y-41757380D01*
X69937285Y-41805000D01*
X69889666Y-41852619D01*
X69318238Y-42185952D02*
X69413476Y-42138333D01*
X69461095Y-42090714D01*
X69508714Y-41995476D01*
X69508714Y-41947857D01*
X69461095Y-41852619D01*
X69413476Y-41805000D01*
X69318238Y-41757380D01*
X69127761Y-41757380D01*
X69032523Y-41805000D01*
X68984904Y-41852619D01*
X68937285Y-41947857D01*
X68937285Y-41995476D01*
X68984904Y-42090714D01*
X69032523Y-42138333D01*
X69127761Y-42185952D01*
X69318238Y-42185952D01*
X69413476Y-42233571D01*
X69461095Y-42281190D01*
X69508714Y-42376428D01*
X69508714Y-42566904D01*
X69461095Y-42662142D01*
X69413476Y-42709761D01*
X69318238Y-42757380D01*
X69127761Y-42757380D01*
X69032523Y-42709761D01*
X68984904Y-42662142D01*
X68937285Y-42566904D01*
X68937285Y-42376428D01*
X68984904Y-42281190D01*
X69032523Y-42233571D01*
X69127761Y-42185952D01*
G04 #@! TO.C,CON1*
X51688142Y-42038714D02*
X51735761Y-41991095D01*
X51783380Y-41848238D01*
X51783380Y-41753000D01*
X51735761Y-41610142D01*
X51640523Y-41514904D01*
X51545285Y-41467285D01*
X51354809Y-41419666D01*
X51211952Y-41419666D01*
X51021476Y-41467285D01*
X50926238Y-41514904D01*
X50831000Y-41610142D01*
X50783380Y-41753000D01*
X50783380Y-41848238D01*
X50831000Y-41991095D01*
X50878619Y-42038714D01*
X50783380Y-42657761D02*
X50783380Y-42848238D01*
X50831000Y-42943476D01*
X50926238Y-43038714D01*
X51116714Y-43086333D01*
X51450047Y-43086333D01*
X51640523Y-43038714D01*
X51735761Y-42943476D01*
X51783380Y-42848238D01*
X51783380Y-42657761D01*
X51735761Y-42562523D01*
X51640523Y-42467285D01*
X51450047Y-42419666D01*
X51116714Y-42419666D01*
X50926238Y-42467285D01*
X50831000Y-42562523D01*
X50783380Y-42657761D01*
X51783380Y-43514904D02*
X50783380Y-43514904D01*
X51783380Y-44086333D01*
X50783380Y-44086333D01*
X51783380Y-45086333D02*
X51783380Y-44514904D01*
X51783380Y-44800619D02*
X50783380Y-44800619D01*
X50926238Y-44705380D01*
X51021476Y-44610142D01*
X51069095Y-44514904D01*
G04 #@! TO.C,Q1*
X50387238Y-35385619D02*
X50482476Y-35338000D01*
X50577714Y-35242761D01*
X50720571Y-35099904D01*
X50815809Y-35052285D01*
X50911047Y-35052285D01*
X50863428Y-35290380D02*
X50958666Y-35242761D01*
X51053904Y-35147523D01*
X51101523Y-34957047D01*
X51101523Y-34623714D01*
X51053904Y-34433238D01*
X50958666Y-34338000D01*
X50863428Y-34290380D01*
X50672952Y-34290380D01*
X50577714Y-34338000D01*
X50482476Y-34433238D01*
X50434857Y-34623714D01*
X50434857Y-34957047D01*
X50482476Y-35147523D01*
X50577714Y-35242761D01*
X50672952Y-35290380D01*
X50863428Y-35290380D01*
X49482476Y-35290380D02*
X50053904Y-35290380D01*
X49768190Y-35290380D02*
X49768190Y-34290380D01*
X49863428Y-34433238D01*
X49958666Y-34528476D01*
X50053904Y-34576095D01*
G04 #@! TO.C,Q2*
X47847238Y-38353619D02*
X47942476Y-38306000D01*
X48037714Y-38210761D01*
X48180571Y-38067904D01*
X48275809Y-38020285D01*
X48371047Y-38020285D01*
X48323428Y-38258380D02*
X48418666Y-38210761D01*
X48513904Y-38115523D01*
X48561523Y-37925047D01*
X48561523Y-37591714D01*
X48513904Y-37401238D01*
X48418666Y-37306000D01*
X48323428Y-37258380D01*
X48132952Y-37258380D01*
X48037714Y-37306000D01*
X47942476Y-37401238D01*
X47894857Y-37591714D01*
X47894857Y-37925047D01*
X47942476Y-38115523D01*
X48037714Y-38210761D01*
X48132952Y-38258380D01*
X48323428Y-38258380D01*
X47513904Y-37353619D02*
X47466285Y-37306000D01*
X47371047Y-37258380D01*
X47132952Y-37258380D01*
X47037714Y-37306000D01*
X46990095Y-37353619D01*
X46942476Y-37448857D01*
X46942476Y-37544095D01*
X46990095Y-37686952D01*
X47561523Y-38258380D01*
X46942476Y-38258380D01*
G04 #@! TO.C,Q3*
X63468238Y-41862619D02*
X63563476Y-41815000D01*
X63658714Y-41719761D01*
X63801571Y-41576904D01*
X63896809Y-41529285D01*
X63992047Y-41529285D01*
X63944428Y-41767380D02*
X64039666Y-41719761D01*
X64134904Y-41624523D01*
X64182523Y-41434047D01*
X64182523Y-41100714D01*
X64134904Y-40910238D01*
X64039666Y-40815000D01*
X63944428Y-40767380D01*
X63753952Y-40767380D01*
X63658714Y-40815000D01*
X63563476Y-40910238D01*
X63515857Y-41100714D01*
X63515857Y-41434047D01*
X63563476Y-41624523D01*
X63658714Y-41719761D01*
X63753952Y-41767380D01*
X63944428Y-41767380D01*
X63182523Y-40767380D02*
X62563476Y-40767380D01*
X62896809Y-41148333D01*
X62753952Y-41148333D01*
X62658714Y-41195952D01*
X62611095Y-41243571D01*
X62563476Y-41338809D01*
X62563476Y-41576904D01*
X62611095Y-41672142D01*
X62658714Y-41719761D01*
X62753952Y-41767380D01*
X63039666Y-41767380D01*
X63134904Y-41719761D01*
X63182523Y-41672142D01*
G04 #@! TO.C,R1*
X69889666Y-29422380D02*
X70223000Y-28946190D01*
X70461095Y-29422380D02*
X70461095Y-28422380D01*
X70080142Y-28422380D01*
X69984904Y-28470000D01*
X69937285Y-28517619D01*
X69889666Y-28612857D01*
X69889666Y-28755714D01*
X69937285Y-28850952D01*
X69984904Y-28898571D01*
X70080142Y-28946190D01*
X70461095Y-28946190D01*
X68937285Y-29422380D02*
X69508714Y-29422380D01*
X69223000Y-29422380D02*
X69223000Y-28422380D01*
X69318238Y-28565238D01*
X69413476Y-28660476D01*
X69508714Y-28708095D01*
G04 #@! TO.C,R2*
X77509666Y-29422380D02*
X77843000Y-28946190D01*
X78081095Y-29422380D02*
X78081095Y-28422380D01*
X77700142Y-28422380D01*
X77604904Y-28470000D01*
X77557285Y-28517619D01*
X77509666Y-28612857D01*
X77509666Y-28755714D01*
X77557285Y-28850952D01*
X77604904Y-28898571D01*
X77700142Y-28946190D01*
X78081095Y-28946190D01*
X77128714Y-28517619D02*
X77081095Y-28470000D01*
X76985857Y-28422380D01*
X76747761Y-28422380D01*
X76652523Y-28470000D01*
X76604904Y-28517619D01*
X76557285Y-28612857D01*
X76557285Y-28708095D01*
X76604904Y-28850952D01*
X77176333Y-29422380D01*
X76557285Y-29422380D01*
G04 #@! TO.C,R5*
X77509666Y-40062380D02*
X77843000Y-39586190D01*
X78081095Y-40062380D02*
X78081095Y-39062380D01*
X77700142Y-39062380D01*
X77604904Y-39110000D01*
X77557285Y-39157619D01*
X77509666Y-39252857D01*
X77509666Y-39395714D01*
X77557285Y-39490952D01*
X77604904Y-39538571D01*
X77700142Y-39586190D01*
X78081095Y-39586190D01*
X76604904Y-39062380D02*
X77081095Y-39062380D01*
X77128714Y-39538571D01*
X77081095Y-39490952D01*
X76985857Y-39443333D01*
X76747761Y-39443333D01*
X76652523Y-39490952D01*
X76604904Y-39538571D01*
X76557285Y-39633809D01*
X76557285Y-39871904D01*
X76604904Y-39967142D01*
X76652523Y-40014761D01*
X76747761Y-40062380D01*
X76985857Y-40062380D01*
X77081095Y-40014761D01*
X77128714Y-39967142D01*
G04 #@! TO.C,R6*
X69889666Y-40062380D02*
X70223000Y-39586190D01*
X70461095Y-40062380D02*
X70461095Y-39062380D01*
X70080142Y-39062380D01*
X69984904Y-39110000D01*
X69937285Y-39157619D01*
X69889666Y-39252857D01*
X69889666Y-39395714D01*
X69937285Y-39490952D01*
X69984904Y-39538571D01*
X70080142Y-39586190D01*
X70461095Y-39586190D01*
X69032523Y-39062380D02*
X69223000Y-39062380D01*
X69318238Y-39110000D01*
X69365857Y-39157619D01*
X69461095Y-39300476D01*
X69508714Y-39490952D01*
X69508714Y-39871904D01*
X69461095Y-39967142D01*
X69413476Y-40014761D01*
X69318238Y-40062380D01*
X69127761Y-40062380D01*
X69032523Y-40014761D01*
X68984904Y-39967142D01*
X68937285Y-39871904D01*
X68937285Y-39633809D01*
X68984904Y-39538571D01*
X69032523Y-39490952D01*
X69127761Y-39443333D01*
X69318238Y-39443333D01*
X69413476Y-39490952D01*
X69461095Y-39538571D01*
X69508714Y-39633809D01*
G04 #@! TO.C,R9*
X38284380Y-24217333D02*
X37808190Y-23884000D01*
X38284380Y-23645904D02*
X37284380Y-23645904D01*
X37284380Y-24026857D01*
X37332000Y-24122095D01*
X37379619Y-24169714D01*
X37474857Y-24217333D01*
X37617714Y-24217333D01*
X37712952Y-24169714D01*
X37760571Y-24122095D01*
X37808190Y-24026857D01*
X37808190Y-23645904D01*
X38284380Y-24693523D02*
X38284380Y-24884000D01*
X38236761Y-24979238D01*
X38189142Y-25026857D01*
X38046285Y-25122095D01*
X37855809Y-25169714D01*
X37474857Y-25169714D01*
X37379619Y-25122095D01*
X37332000Y-25074476D01*
X37284380Y-24979238D01*
X37284380Y-24788761D01*
X37332000Y-24693523D01*
X37379619Y-24645904D01*
X37474857Y-24598285D01*
X37712952Y-24598285D01*
X37808190Y-24645904D01*
X37855809Y-24693523D01*
X37903428Y-24788761D01*
X37903428Y-24979238D01*
X37855809Y-25074476D01*
X37808190Y-25122095D01*
X37712952Y-25169714D01*
G04 #@! TO.C,R12*
X70365857Y-27517380D02*
X70699190Y-27041190D01*
X70937285Y-27517380D02*
X70937285Y-26517380D01*
X70556333Y-26517380D01*
X70461095Y-26565000D01*
X70413476Y-26612619D01*
X70365857Y-26707857D01*
X70365857Y-26850714D01*
X70413476Y-26945952D01*
X70461095Y-26993571D01*
X70556333Y-27041190D01*
X70937285Y-27041190D01*
X69413476Y-27517380D02*
X69984904Y-27517380D01*
X69699190Y-27517380D02*
X69699190Y-26517380D01*
X69794428Y-26660238D01*
X69889666Y-26755476D01*
X69984904Y-26803095D01*
X69032523Y-26612619D02*
X68984904Y-26565000D01*
X68889666Y-26517380D01*
X68651571Y-26517380D01*
X68556333Y-26565000D01*
X68508714Y-26612619D01*
X68461095Y-26707857D01*
X68461095Y-26803095D01*
X68508714Y-26945952D01*
X69080142Y-27517380D01*
X68461095Y-27517380D01*
G04 #@! TO.C,R13*
X77985857Y-27517380D02*
X78319190Y-27041190D01*
X78557285Y-27517380D02*
X78557285Y-26517380D01*
X78176333Y-26517380D01*
X78081095Y-26565000D01*
X78033476Y-26612619D01*
X77985857Y-26707857D01*
X77985857Y-26850714D01*
X78033476Y-26945952D01*
X78081095Y-26993571D01*
X78176333Y-27041190D01*
X78557285Y-27041190D01*
X77033476Y-27517380D02*
X77604904Y-27517380D01*
X77319190Y-27517380D02*
X77319190Y-26517380D01*
X77414428Y-26660238D01*
X77509666Y-26755476D01*
X77604904Y-26803095D01*
X76700142Y-26517380D02*
X76081095Y-26517380D01*
X76414428Y-26898333D01*
X76271571Y-26898333D01*
X76176333Y-26945952D01*
X76128714Y-26993571D01*
X76081095Y-27088809D01*
X76081095Y-27326904D01*
X76128714Y-27422142D01*
X76176333Y-27469761D01*
X76271571Y-27517380D01*
X76557285Y-27517380D01*
X76652523Y-27469761D01*
X76700142Y-27422142D01*
G04 #@! TO.C,R16*
X77985857Y-41967380D02*
X78319190Y-41491190D01*
X78557285Y-41967380D02*
X78557285Y-40967380D01*
X78176333Y-40967380D01*
X78081095Y-41015000D01*
X78033476Y-41062619D01*
X77985857Y-41157857D01*
X77985857Y-41300714D01*
X78033476Y-41395952D01*
X78081095Y-41443571D01*
X78176333Y-41491190D01*
X78557285Y-41491190D01*
X77033476Y-41967380D02*
X77604904Y-41967380D01*
X77319190Y-41967380D02*
X77319190Y-40967380D01*
X77414428Y-41110238D01*
X77509666Y-41205476D01*
X77604904Y-41253095D01*
X76176333Y-40967380D02*
X76366809Y-40967380D01*
X76462047Y-41015000D01*
X76509666Y-41062619D01*
X76604904Y-41205476D01*
X76652523Y-41395952D01*
X76652523Y-41776904D01*
X76604904Y-41872142D01*
X76557285Y-41919761D01*
X76462047Y-41967380D01*
X76271571Y-41967380D01*
X76176333Y-41919761D01*
X76128714Y-41872142D01*
X76081095Y-41776904D01*
X76081095Y-41538809D01*
X76128714Y-41443571D01*
X76176333Y-41395952D01*
X76271571Y-41348333D01*
X76462047Y-41348333D01*
X76557285Y-41395952D01*
X76604904Y-41443571D01*
X76652523Y-41538809D01*
G04 #@! TO.C,R18*
X44330857Y-32823380D02*
X44664190Y-32347190D01*
X44902285Y-32823380D02*
X44902285Y-31823380D01*
X44521333Y-31823380D01*
X44426095Y-31871000D01*
X44378476Y-31918619D01*
X44330857Y-32013857D01*
X44330857Y-32156714D01*
X44378476Y-32251952D01*
X44426095Y-32299571D01*
X44521333Y-32347190D01*
X44902285Y-32347190D01*
X43378476Y-32823380D02*
X43949904Y-32823380D01*
X43664190Y-32823380D02*
X43664190Y-31823380D01*
X43759428Y-31966238D01*
X43854666Y-32061476D01*
X43949904Y-32109095D01*
X42807047Y-32251952D02*
X42902285Y-32204333D01*
X42949904Y-32156714D01*
X42997523Y-32061476D01*
X42997523Y-32013857D01*
X42949904Y-31918619D01*
X42902285Y-31871000D01*
X42807047Y-31823380D01*
X42616571Y-31823380D01*
X42521333Y-31871000D01*
X42473714Y-31918619D01*
X42426095Y-32013857D01*
X42426095Y-32061476D01*
X42473714Y-32156714D01*
X42521333Y-32204333D01*
X42616571Y-32251952D01*
X42807047Y-32251952D01*
X42902285Y-32299571D01*
X42949904Y-32347190D01*
X42997523Y-32442428D01*
X42997523Y-32632904D01*
X42949904Y-32728142D01*
X42902285Y-32775761D01*
X42807047Y-32823380D01*
X42616571Y-32823380D01*
X42521333Y-32775761D01*
X42473714Y-32728142D01*
X42426095Y-32632904D01*
X42426095Y-32442428D01*
X42473714Y-32347190D01*
X42521333Y-32299571D01*
X42616571Y-32251952D01*
G04 #@! TO.C,R19*
X44330857Y-35236380D02*
X44664190Y-34760190D01*
X44902285Y-35236380D02*
X44902285Y-34236380D01*
X44521333Y-34236380D01*
X44426095Y-34284000D01*
X44378476Y-34331619D01*
X44330857Y-34426857D01*
X44330857Y-34569714D01*
X44378476Y-34664952D01*
X44426095Y-34712571D01*
X44521333Y-34760190D01*
X44902285Y-34760190D01*
X43378476Y-35236380D02*
X43949904Y-35236380D01*
X43664190Y-35236380D02*
X43664190Y-34236380D01*
X43759428Y-34379238D01*
X43854666Y-34474476D01*
X43949904Y-34522095D01*
X42902285Y-35236380D02*
X42711809Y-35236380D01*
X42616571Y-35188761D01*
X42568952Y-35141142D01*
X42473714Y-34998285D01*
X42426095Y-34807809D01*
X42426095Y-34426857D01*
X42473714Y-34331619D01*
X42521333Y-34284000D01*
X42616571Y-34236380D01*
X42807047Y-34236380D01*
X42902285Y-34284000D01*
X42949904Y-34331619D01*
X42997523Y-34426857D01*
X42997523Y-34664952D01*
X42949904Y-34760190D01*
X42902285Y-34807809D01*
X42807047Y-34855428D01*
X42616571Y-34855428D01*
X42521333Y-34807809D01*
X42473714Y-34760190D01*
X42426095Y-34664952D01*
G04 #@! TO.C,R20*
X42884380Y-33393142D02*
X42408190Y-33059809D01*
X42884380Y-32821714D02*
X41884380Y-32821714D01*
X41884380Y-33202666D01*
X41932000Y-33297904D01*
X41979619Y-33345523D01*
X42074857Y-33393142D01*
X42217714Y-33393142D01*
X42312952Y-33345523D01*
X42360571Y-33297904D01*
X42408190Y-33202666D01*
X42408190Y-32821714D01*
X41979619Y-33774095D02*
X41932000Y-33821714D01*
X41884380Y-33916952D01*
X41884380Y-34155047D01*
X41932000Y-34250285D01*
X41979619Y-34297904D01*
X42074857Y-34345523D01*
X42170095Y-34345523D01*
X42312952Y-34297904D01*
X42884380Y-33726476D01*
X42884380Y-34345523D01*
X41884380Y-34964571D02*
X41884380Y-35059809D01*
X41932000Y-35155047D01*
X41979619Y-35202666D01*
X42074857Y-35250285D01*
X42265333Y-35297904D01*
X42503428Y-35297904D01*
X42693904Y-35250285D01*
X42789142Y-35202666D01*
X42836761Y-35155047D01*
X42884380Y-35059809D01*
X42884380Y-34964571D01*
X42836761Y-34869333D01*
X42789142Y-34821714D01*
X42693904Y-34774095D01*
X42503428Y-34726476D01*
X42265333Y-34726476D01*
X42074857Y-34774095D01*
X41979619Y-34821714D01*
X41932000Y-34869333D01*
X41884380Y-34964571D01*
G04 #@! TO.C,R21*
X38284380Y-28567142D02*
X37808190Y-28233809D01*
X38284380Y-27995714D02*
X37284380Y-27995714D01*
X37284380Y-28376666D01*
X37332000Y-28471904D01*
X37379619Y-28519523D01*
X37474857Y-28567142D01*
X37617714Y-28567142D01*
X37712952Y-28519523D01*
X37760571Y-28471904D01*
X37808190Y-28376666D01*
X37808190Y-27995714D01*
X37379619Y-28948095D02*
X37332000Y-28995714D01*
X37284380Y-29090952D01*
X37284380Y-29329047D01*
X37332000Y-29424285D01*
X37379619Y-29471904D01*
X37474857Y-29519523D01*
X37570095Y-29519523D01*
X37712952Y-29471904D01*
X38284380Y-28900476D01*
X38284380Y-29519523D01*
X38284380Y-30471904D02*
X38284380Y-29900476D01*
X38284380Y-30186190D02*
X37284380Y-30186190D01*
X37427238Y-30090952D01*
X37522476Y-29995714D01*
X37570095Y-29900476D01*
G04 #@! TO.C,R24*
X55810380Y-24122142D02*
X55334190Y-23788809D01*
X55810380Y-23550714D02*
X54810380Y-23550714D01*
X54810380Y-23931666D01*
X54858000Y-24026904D01*
X54905619Y-24074523D01*
X55000857Y-24122142D01*
X55143714Y-24122142D01*
X55238952Y-24074523D01*
X55286571Y-24026904D01*
X55334190Y-23931666D01*
X55334190Y-23550714D01*
X54905619Y-24503095D02*
X54858000Y-24550714D01*
X54810380Y-24645952D01*
X54810380Y-24884047D01*
X54858000Y-24979285D01*
X54905619Y-25026904D01*
X55000857Y-25074523D01*
X55096095Y-25074523D01*
X55238952Y-25026904D01*
X55810380Y-24455476D01*
X55810380Y-25074523D01*
X55143714Y-25931666D02*
X55810380Y-25931666D01*
X54762761Y-25693571D02*
X55477047Y-25455476D01*
X55477047Y-26074523D01*
G04 #@! TO.C,R25*
X53905380Y-24122142D02*
X53429190Y-23788809D01*
X53905380Y-23550714D02*
X52905380Y-23550714D01*
X52905380Y-23931666D01*
X52953000Y-24026904D01*
X53000619Y-24074523D01*
X53095857Y-24122142D01*
X53238714Y-24122142D01*
X53333952Y-24074523D01*
X53381571Y-24026904D01*
X53429190Y-23931666D01*
X53429190Y-23550714D01*
X53000619Y-24503095D02*
X52953000Y-24550714D01*
X52905380Y-24645952D01*
X52905380Y-24884047D01*
X52953000Y-24979285D01*
X53000619Y-25026904D01*
X53095857Y-25074523D01*
X53191095Y-25074523D01*
X53333952Y-25026904D01*
X53905380Y-24455476D01*
X53905380Y-25074523D01*
X52905380Y-25979285D02*
X52905380Y-25503095D01*
X53381571Y-25455476D01*
X53333952Y-25503095D01*
X53286333Y-25598333D01*
X53286333Y-25836428D01*
X53333952Y-25931666D01*
X53381571Y-25979285D01*
X53476809Y-26026904D01*
X53714904Y-26026904D01*
X53810142Y-25979285D01*
X53857761Y-25931666D01*
X53905380Y-25836428D01*
X53905380Y-25598333D01*
X53857761Y-25503095D01*
X53810142Y-25455476D01*
G04 #@! TO.C,R26*
X58505380Y-40632142D02*
X58029190Y-40298809D01*
X58505380Y-40060714D02*
X57505380Y-40060714D01*
X57505380Y-40441666D01*
X57553000Y-40536904D01*
X57600619Y-40584523D01*
X57695857Y-40632142D01*
X57838714Y-40632142D01*
X57933952Y-40584523D01*
X57981571Y-40536904D01*
X58029190Y-40441666D01*
X58029190Y-40060714D01*
X57600619Y-41013095D02*
X57553000Y-41060714D01*
X57505380Y-41155952D01*
X57505380Y-41394047D01*
X57553000Y-41489285D01*
X57600619Y-41536904D01*
X57695857Y-41584523D01*
X57791095Y-41584523D01*
X57933952Y-41536904D01*
X58505380Y-40965476D01*
X58505380Y-41584523D01*
X57505380Y-42441666D02*
X57505380Y-42251190D01*
X57553000Y-42155952D01*
X57600619Y-42108333D01*
X57743476Y-42013095D01*
X57933952Y-41965476D01*
X58314904Y-41965476D01*
X58410142Y-42013095D01*
X58457761Y-42060714D01*
X58505380Y-42155952D01*
X58505380Y-42346428D01*
X58457761Y-42441666D01*
X58410142Y-42489285D01*
X58314904Y-42536904D01*
X58076809Y-42536904D01*
X57981571Y-42489285D01*
X57933952Y-42441666D01*
X57886333Y-42346428D01*
X57886333Y-42155952D01*
X57933952Y-42060714D01*
X57981571Y-42013095D01*
X58076809Y-41965476D01*
G04 #@! TO.C,R27*
X60410380Y-40632142D02*
X59934190Y-40298809D01*
X60410380Y-40060714D02*
X59410380Y-40060714D01*
X59410380Y-40441666D01*
X59458000Y-40536904D01*
X59505619Y-40584523D01*
X59600857Y-40632142D01*
X59743714Y-40632142D01*
X59838952Y-40584523D01*
X59886571Y-40536904D01*
X59934190Y-40441666D01*
X59934190Y-40060714D01*
X59505619Y-41013095D02*
X59458000Y-41060714D01*
X59410380Y-41155952D01*
X59410380Y-41394047D01*
X59458000Y-41489285D01*
X59505619Y-41536904D01*
X59600857Y-41584523D01*
X59696095Y-41584523D01*
X59838952Y-41536904D01*
X60410380Y-40965476D01*
X60410380Y-41584523D01*
X59410380Y-41917857D02*
X59410380Y-42584523D01*
X60410380Y-42155952D01*
G04 #@! TO.C,R28*
X64220380Y-40632142D02*
X63744190Y-40298809D01*
X64220380Y-40060714D02*
X63220380Y-40060714D01*
X63220380Y-40441666D01*
X63268000Y-40536904D01*
X63315619Y-40584523D01*
X63410857Y-40632142D01*
X63553714Y-40632142D01*
X63648952Y-40584523D01*
X63696571Y-40536904D01*
X63744190Y-40441666D01*
X63744190Y-40060714D01*
X63315619Y-41013095D02*
X63268000Y-41060714D01*
X63220380Y-41155952D01*
X63220380Y-41394047D01*
X63268000Y-41489285D01*
X63315619Y-41536904D01*
X63410857Y-41584523D01*
X63506095Y-41584523D01*
X63648952Y-41536904D01*
X64220380Y-40965476D01*
X64220380Y-41584523D01*
X63648952Y-42155952D02*
X63601333Y-42060714D01*
X63553714Y-42013095D01*
X63458476Y-41965476D01*
X63410857Y-41965476D01*
X63315619Y-42013095D01*
X63268000Y-42060714D01*
X63220380Y-42155952D01*
X63220380Y-42346428D01*
X63268000Y-42441666D01*
X63315619Y-42489285D01*
X63410857Y-42536904D01*
X63458476Y-42536904D01*
X63553714Y-42489285D01*
X63601333Y-42441666D01*
X63648952Y-42346428D01*
X63648952Y-42155952D01*
X63696571Y-42060714D01*
X63744190Y-42013095D01*
X63839428Y-41965476D01*
X64029904Y-41965476D01*
X64125142Y-42013095D01*
X64172761Y-42060714D01*
X64220380Y-42155952D01*
X64220380Y-42346428D01*
X64172761Y-42441666D01*
X64125142Y-42489285D01*
X64029904Y-42536904D01*
X63839428Y-42536904D01*
X63744190Y-42489285D01*
X63696571Y-42441666D01*
X63648952Y-42346428D01*
G04 #@! TO.C,R29*
X61525380Y-24122142D02*
X61049190Y-23788809D01*
X61525380Y-23550714D02*
X60525380Y-23550714D01*
X60525380Y-23931666D01*
X60573000Y-24026904D01*
X60620619Y-24074523D01*
X60715857Y-24122142D01*
X60858714Y-24122142D01*
X60953952Y-24074523D01*
X61001571Y-24026904D01*
X61049190Y-23931666D01*
X61049190Y-23550714D01*
X60620619Y-24503095D02*
X60573000Y-24550714D01*
X60525380Y-24645952D01*
X60525380Y-24884047D01*
X60573000Y-24979285D01*
X60620619Y-25026904D01*
X60715857Y-25074523D01*
X60811095Y-25074523D01*
X60953952Y-25026904D01*
X61525380Y-24455476D01*
X61525380Y-25074523D01*
X61525380Y-25550714D02*
X61525380Y-25741190D01*
X61477761Y-25836428D01*
X61430142Y-25884047D01*
X61287285Y-25979285D01*
X61096809Y-26026904D01*
X60715857Y-26026904D01*
X60620619Y-25979285D01*
X60573000Y-25931666D01*
X60525380Y-25836428D01*
X60525380Y-25645952D01*
X60573000Y-25550714D01*
X60620619Y-25503095D01*
X60715857Y-25455476D01*
X60953952Y-25455476D01*
X61049190Y-25503095D01*
X61096809Y-25550714D01*
X61144428Y-25645952D01*
X61144428Y-25836428D01*
X61096809Y-25931666D01*
X61049190Y-25979285D01*
X60953952Y-26026904D01*
G04 #@! TO.C,R30*
X59620380Y-24122142D02*
X59144190Y-23788809D01*
X59620380Y-23550714D02*
X58620380Y-23550714D01*
X58620380Y-23931666D01*
X58668000Y-24026904D01*
X58715619Y-24074523D01*
X58810857Y-24122142D01*
X58953714Y-24122142D01*
X59048952Y-24074523D01*
X59096571Y-24026904D01*
X59144190Y-23931666D01*
X59144190Y-23550714D01*
X58620380Y-24455476D02*
X58620380Y-25074523D01*
X59001333Y-24741190D01*
X59001333Y-24884047D01*
X59048952Y-24979285D01*
X59096571Y-25026904D01*
X59191809Y-25074523D01*
X59429904Y-25074523D01*
X59525142Y-25026904D01*
X59572761Y-24979285D01*
X59620380Y-24884047D01*
X59620380Y-24598333D01*
X59572761Y-24503095D01*
X59525142Y-24455476D01*
X58620380Y-25693571D02*
X58620380Y-25788809D01*
X58668000Y-25884047D01*
X58715619Y-25931666D01*
X58810857Y-25979285D01*
X59001333Y-26026904D01*
X59239428Y-26026904D01*
X59429904Y-25979285D01*
X59525142Y-25931666D01*
X59572761Y-25884047D01*
X59620380Y-25788809D01*
X59620380Y-25693571D01*
X59572761Y-25598333D01*
X59525142Y-25550714D01*
X59429904Y-25503095D01*
X59239428Y-25455476D01*
X59001333Y-25455476D01*
X58810857Y-25503095D01*
X58715619Y-25550714D01*
X58668000Y-25598333D01*
X58620380Y-25693571D01*
G04 #@! TO.C,R52*
X59570857Y-47202380D02*
X59904190Y-46726190D01*
X60142285Y-47202380D02*
X60142285Y-46202380D01*
X59761333Y-46202380D01*
X59666095Y-46250000D01*
X59618476Y-46297619D01*
X59570857Y-46392857D01*
X59570857Y-46535714D01*
X59618476Y-46630952D01*
X59666095Y-46678571D01*
X59761333Y-46726190D01*
X60142285Y-46726190D01*
X58666095Y-46202380D02*
X59142285Y-46202380D01*
X59189904Y-46678571D01*
X59142285Y-46630952D01*
X59047047Y-46583333D01*
X58808952Y-46583333D01*
X58713714Y-46630952D01*
X58666095Y-46678571D01*
X58618476Y-46773809D01*
X58618476Y-47011904D01*
X58666095Y-47107142D01*
X58713714Y-47154761D01*
X58808952Y-47202380D01*
X59047047Y-47202380D01*
X59142285Y-47154761D01*
X59189904Y-47107142D01*
X58237523Y-46297619D02*
X58189904Y-46250000D01*
X58094666Y-46202380D01*
X57856571Y-46202380D01*
X57761333Y-46250000D01*
X57713714Y-46297619D01*
X57666095Y-46392857D01*
X57666095Y-46488095D01*
X57713714Y-46630952D01*
X58285142Y-47202380D01*
X57666095Y-47202380D01*
G04 #@! TO.C,U1*
X73024904Y-35012380D02*
X73024904Y-35821904D01*
X72977285Y-35917142D01*
X72929666Y-35964761D01*
X72834428Y-36012380D01*
X72643952Y-36012380D01*
X72548714Y-35964761D01*
X72501095Y-35917142D01*
X72453476Y-35821904D01*
X72453476Y-35012380D01*
X71453476Y-36012380D02*
X72024904Y-36012380D01*
X71739190Y-36012380D02*
X71739190Y-35012380D01*
X71834428Y-35155238D01*
X71929666Y-35250476D01*
X72024904Y-35298095D01*
G04 #@! TO.C,U10*
X60285380Y-31654904D02*
X61094904Y-31654904D01*
X61190142Y-31702523D01*
X61237761Y-31750142D01*
X61285380Y-31845380D01*
X61285380Y-32035857D01*
X61237761Y-32131095D01*
X61190142Y-32178714D01*
X61094904Y-32226333D01*
X60285380Y-32226333D01*
X61285380Y-33226333D02*
X61285380Y-32654904D01*
X61285380Y-32940619D02*
X60285380Y-32940619D01*
X60428238Y-32845380D01*
X60523476Y-32750142D01*
X60571095Y-32654904D01*
X60285380Y-33845380D02*
X60285380Y-33940619D01*
X60333000Y-34035857D01*
X60380619Y-34083476D01*
X60475857Y-34131095D01*
X60666333Y-34178714D01*
X60904428Y-34178714D01*
X61094904Y-34131095D01*
X61190142Y-34083476D01*
X61237761Y-34035857D01*
X61285380Y-33940619D01*
X61285380Y-33845380D01*
X61237761Y-33750142D01*
X61190142Y-33702523D01*
X61094904Y-33654904D01*
X60904428Y-33607285D01*
X60666333Y-33607285D01*
X60475857Y-33654904D01*
X60380619Y-33702523D01*
X60333000Y-33750142D01*
X60285380Y-33845380D01*
G04 #@! TD*
M02*
