G04 #@! TF.FileFunction,Legend,Top*
%FSLAX46Y46*%
G04 Gerber Fmt 4.6, Leading zero omitted, Abs format (unit mm)*
G04 Created by KiCad (PCBNEW 4.0.5+dfsg1-4) date Sun Sep  9 22:04:29 2018*
%MOMM*%
%LPD*%
G01*
G04 APERTURE LIST*
%ADD10C,0.100000*%
%ADD11C,0.300000*%
%ADD12C,0.150000*%
%ADD13C,0.010000*%
G04 APERTURE END LIST*
D10*
D11*
X35787287Y-24036571D02*
X35787287Y-23036571D01*
X35787287Y-22536571D02*
X35715858Y-22608000D01*
X35787287Y-22679429D01*
X35858715Y-22608000D01*
X35787287Y-22536571D01*
X35787287Y-22679429D01*
X36430144Y-22679429D02*
X36501573Y-22608000D01*
X36644430Y-22536571D01*
X37001573Y-22536571D01*
X37144430Y-22608000D01*
X37215859Y-22679429D01*
X37287287Y-22822286D01*
X37287287Y-22965143D01*
X37215859Y-23179429D01*
X36358716Y-24036571D01*
X37287287Y-24036571D01*
X38573001Y-23965143D02*
X38430144Y-24036571D01*
X38144430Y-24036571D01*
X38001572Y-23965143D01*
X37930144Y-23893714D01*
X37858715Y-23750857D01*
X37858715Y-23322286D01*
X37930144Y-23179429D01*
X38001572Y-23108000D01*
X38144430Y-23036571D01*
X38430144Y-23036571D01*
X38573001Y-23108000D01*
X40858715Y-23250857D02*
X40358715Y-23250857D01*
X40358715Y-24036571D02*
X40358715Y-22536571D01*
X41073001Y-22536571D01*
X41644429Y-24036571D02*
X41644429Y-23036571D01*
X41644429Y-23322286D02*
X41715857Y-23179429D01*
X41787286Y-23108000D01*
X41930143Y-23036571D01*
X42073000Y-23036571D01*
X42787286Y-24036571D02*
X42644428Y-23965143D01*
X42573000Y-23893714D01*
X42501571Y-23750857D01*
X42501571Y-23322286D01*
X42573000Y-23179429D01*
X42644428Y-23108000D01*
X42787286Y-23036571D01*
X43001571Y-23036571D01*
X43144428Y-23108000D01*
X43215857Y-23179429D01*
X43287286Y-23322286D01*
X43287286Y-23750857D01*
X43215857Y-23893714D01*
X43144428Y-23965143D01*
X43001571Y-24036571D01*
X42787286Y-24036571D01*
X43930143Y-23036571D02*
X43930143Y-24036571D01*
X43930143Y-23179429D02*
X44001571Y-23108000D01*
X44144429Y-23036571D01*
X44358714Y-23036571D01*
X44501571Y-23108000D01*
X44573000Y-23250857D01*
X44573000Y-24036571D01*
X45073000Y-23036571D02*
X45644429Y-23036571D01*
X45287286Y-22536571D02*
X45287286Y-23822286D01*
X45358714Y-23965143D01*
X45501572Y-24036571D01*
X45644429Y-24036571D01*
X47287286Y-24036571D02*
X47287286Y-22536571D01*
X47858714Y-22536571D01*
X48001572Y-22608000D01*
X48073000Y-22679429D01*
X48144429Y-22822286D01*
X48144429Y-23036571D01*
X48073000Y-23179429D01*
X48001572Y-23250857D01*
X47858714Y-23322286D01*
X47287286Y-23322286D01*
X49430143Y-24036571D02*
X49430143Y-23250857D01*
X49358714Y-23108000D01*
X49215857Y-23036571D01*
X48930143Y-23036571D01*
X48787286Y-23108000D01*
X49430143Y-23965143D02*
X49287286Y-24036571D01*
X48930143Y-24036571D01*
X48787286Y-23965143D01*
X48715857Y-23822286D01*
X48715857Y-23679429D01*
X48787286Y-23536571D01*
X48930143Y-23465143D01*
X49287286Y-23465143D01*
X49430143Y-23393714D01*
X50144429Y-23036571D02*
X50144429Y-24036571D01*
X50144429Y-23179429D02*
X50215857Y-23108000D01*
X50358715Y-23036571D01*
X50573000Y-23036571D01*
X50715857Y-23108000D01*
X50787286Y-23250857D01*
X50787286Y-24036571D01*
X52073000Y-23965143D02*
X51930143Y-24036571D01*
X51644429Y-24036571D01*
X51501572Y-23965143D01*
X51430143Y-23822286D01*
X51430143Y-23250857D01*
X51501572Y-23108000D01*
X51644429Y-23036571D01*
X51930143Y-23036571D01*
X52073000Y-23108000D01*
X52144429Y-23250857D01*
X52144429Y-23393714D01*
X51430143Y-23536571D01*
X53001572Y-24036571D02*
X52858714Y-23965143D01*
X52787286Y-23822286D01*
X52787286Y-22536571D01*
X38430143Y-26586571D02*
X37573000Y-26586571D01*
X38001572Y-26586571D02*
X38001572Y-25086571D01*
X37858715Y-25300857D01*
X37715857Y-25443714D01*
X37573000Y-25515143D01*
X38930143Y-26586571D02*
X39715857Y-25586571D01*
X38930143Y-25586571D02*
X39715857Y-26586571D01*
X40144429Y-25086571D02*
X41144429Y-25086571D01*
X40501572Y-26586571D01*
X41644428Y-26515143D02*
X41787285Y-26586571D01*
X42073000Y-26586571D01*
X42215857Y-26515143D01*
X42287285Y-26372286D01*
X42287285Y-26300857D01*
X42215857Y-26158000D01*
X42073000Y-26086571D01*
X41858714Y-26086571D01*
X41715857Y-26015143D01*
X41644428Y-25872286D01*
X41644428Y-25800857D01*
X41715857Y-25658000D01*
X41858714Y-25586571D01*
X42073000Y-25586571D01*
X42215857Y-25658000D01*
X43501571Y-26515143D02*
X43358714Y-26586571D01*
X43073000Y-26586571D01*
X42930143Y-26515143D01*
X42858714Y-26372286D01*
X42858714Y-25800857D01*
X42930143Y-25658000D01*
X43073000Y-25586571D01*
X43358714Y-25586571D01*
X43501571Y-25658000D01*
X43573000Y-25800857D01*
X43573000Y-25943714D01*
X42858714Y-26086571D01*
X44858714Y-25586571D02*
X44858714Y-26800857D01*
X44787285Y-26943714D01*
X44715857Y-27015143D01*
X44573000Y-27086571D01*
X44358714Y-27086571D01*
X44215857Y-27015143D01*
X44858714Y-26515143D02*
X44715857Y-26586571D01*
X44430143Y-26586571D01*
X44287285Y-26515143D01*
X44215857Y-26443714D01*
X44144428Y-26300857D01*
X44144428Y-25872286D01*
X44215857Y-25729429D01*
X44287285Y-25658000D01*
X44430143Y-25586571D01*
X44715857Y-25586571D01*
X44858714Y-25658000D01*
X45215857Y-26729429D02*
X46358714Y-26729429D01*
X47358714Y-25586571D02*
X47358714Y-26586571D01*
X47001571Y-25015143D02*
X46644428Y-26086571D01*
X47573000Y-26086571D01*
X48144428Y-26586571D02*
X48144428Y-25086571D01*
X48144428Y-25658000D02*
X48287285Y-25586571D01*
X48572999Y-25586571D01*
X48715856Y-25658000D01*
X48787285Y-25729429D01*
X48858714Y-25872286D01*
X48858714Y-26300857D01*
X48787285Y-26443714D01*
X48715856Y-26515143D01*
X48572999Y-26586571D01*
X48287285Y-26586571D01*
X48144428Y-26515143D01*
X49287285Y-25586571D02*
X49858714Y-25586571D01*
X49501571Y-25086571D02*
X49501571Y-26372286D01*
X49572999Y-26515143D01*
X49715857Y-26586571D01*
X49858714Y-26586571D01*
X50358714Y-25586571D02*
X50358714Y-26586571D01*
X50358714Y-25729429D02*
X50430142Y-25658000D01*
X50573000Y-25586571D01*
X50787285Y-25586571D01*
X50930142Y-25658000D01*
X51001571Y-25800857D01*
X51001571Y-26586571D01*
X37965858Y-28136571D02*
X38323001Y-29136571D01*
X38680143Y-28136571D01*
X40037286Y-29136571D02*
X39180143Y-29136571D01*
X39608715Y-29136571D02*
X39608715Y-27636571D01*
X39465858Y-27850857D01*
X39323000Y-27993714D01*
X39180143Y-28065143D01*
X40680143Y-28993714D02*
X40751571Y-29065143D01*
X40680143Y-29136571D01*
X40608714Y-29065143D01*
X40680143Y-28993714D01*
X40680143Y-29136571D01*
X41680143Y-27636571D02*
X41823000Y-27636571D01*
X41965857Y-27708000D01*
X42037286Y-27779429D01*
X42108715Y-27922286D01*
X42180143Y-28208000D01*
X42180143Y-28565143D01*
X42108715Y-28850857D01*
X42037286Y-28993714D01*
X41965857Y-29065143D01*
X41823000Y-29136571D01*
X41680143Y-29136571D01*
X41537286Y-29065143D01*
X41465857Y-28993714D01*
X41394429Y-28850857D01*
X41323000Y-28565143D01*
X41323000Y-28208000D01*
X41394429Y-27922286D01*
X41465857Y-27779429D01*
X41537286Y-27708000D01*
X41680143Y-27636571D01*
X43965857Y-28565143D02*
X45108714Y-28565143D01*
X46965857Y-29136571D02*
X46965857Y-27636571D01*
X47323000Y-27636571D01*
X47537285Y-27708000D01*
X47680143Y-27850857D01*
X47751571Y-27993714D01*
X47823000Y-28279429D01*
X47823000Y-28493714D01*
X47751571Y-28779429D01*
X47680143Y-28922286D01*
X47537285Y-29065143D01*
X47323000Y-29136571D01*
X46965857Y-29136571D01*
X48251571Y-27636571D02*
X48751571Y-29136571D01*
X49251571Y-27636571D01*
X50608714Y-29136571D02*
X50108714Y-28422286D01*
X49751571Y-29136571D02*
X49751571Y-27636571D01*
X50322999Y-27636571D01*
X50465857Y-27708000D01*
X50537285Y-27779429D01*
X50608714Y-27922286D01*
X50608714Y-28136571D01*
X50537285Y-28279429D01*
X50465857Y-28350857D01*
X50322999Y-28422286D01*
X49751571Y-28422286D01*
D12*
X64063000Y-38020000D02*
G75*
G03X64063000Y-38020000I-500000J0D01*
G01*
X62563000Y-37020000D02*
X62563000Y-34020000D01*
X57563000Y-38020000D02*
X61563000Y-38020000D01*
X56563000Y-34020000D02*
X56563000Y-37020000D01*
X57563000Y-33020000D02*
X61563000Y-33020000D01*
X62563000Y-29020000D02*
X62563000Y-32020000D01*
X56563000Y-29020000D02*
X56563000Y-32020000D01*
X57563000Y-28020000D02*
X61563000Y-28020000D01*
X54563000Y-27020000D02*
X54563000Y-39020000D01*
X54563000Y-39020000D02*
X64563000Y-39020000D01*
X64563000Y-39020000D02*
X64563000Y-27020000D01*
X64563000Y-27020000D02*
X54563000Y-27020000D01*
X45965000Y-38701000D02*
X42365000Y-38701000D01*
X45965000Y-40801000D02*
X42365000Y-40801000D01*
X43915000Y-40051000D02*
X43915000Y-39451000D01*
X43915000Y-39451000D02*
X44215000Y-39751000D01*
X44215000Y-39751000D02*
X44015000Y-39951000D01*
X44015000Y-39951000D02*
X44015000Y-39701000D01*
X44015000Y-39701000D02*
X44065000Y-39751000D01*
X44315000Y-40251000D02*
X44315000Y-39251000D01*
X43815000Y-39751000D02*
X43315000Y-39751000D01*
X44315000Y-39751000D02*
X43815000Y-40251000D01*
X43815000Y-40251000D02*
X43815000Y-39251000D01*
X43815000Y-39251000D02*
X44315000Y-39751000D01*
X45965000Y-41622000D02*
X42365000Y-41622000D01*
X45965000Y-43722000D02*
X42365000Y-43722000D01*
X43915000Y-42972000D02*
X43915000Y-42372000D01*
X43915000Y-42372000D02*
X44215000Y-42672000D01*
X44215000Y-42672000D02*
X44015000Y-42872000D01*
X44015000Y-42872000D02*
X44015000Y-42622000D01*
X44015000Y-42622000D02*
X44065000Y-42672000D01*
X44315000Y-43172000D02*
X44315000Y-42172000D01*
X43815000Y-42672000D02*
X43315000Y-42672000D01*
X44315000Y-42672000D02*
X43815000Y-43172000D01*
X43815000Y-43172000D02*
X43815000Y-42172000D01*
X43815000Y-42172000D02*
X44315000Y-42672000D01*
X42688000Y-36009000D02*
X44688000Y-36009000D01*
X44688000Y-38159000D02*
X42688000Y-38159000D01*
X42688000Y-33469000D02*
X44688000Y-33469000D01*
X44688000Y-35619000D02*
X42688000Y-35619000D01*
X72263000Y-31242000D02*
X72263000Y-27178000D01*
X67183000Y-31242000D02*
X67183000Y-27178000D01*
X79883000Y-31242000D02*
X79883000Y-27178000D01*
X74803000Y-31242000D02*
X74803000Y-27178000D01*
X74803000Y-37338000D02*
X74803000Y-41402000D01*
X79883000Y-37338000D02*
X79883000Y-41402000D01*
X67183000Y-37338000D02*
X67183000Y-41402000D01*
X72263000Y-37338000D02*
X72263000Y-41402000D01*
X82931000Y-32258000D02*
X82931000Y-39878000D01*
X85471000Y-32258000D02*
X85471000Y-39878000D01*
X85751000Y-29438000D02*
X85751000Y-30988000D01*
X82931000Y-39878000D02*
X85471000Y-39878000D01*
X85471000Y-32258000D02*
X82931000Y-32258000D01*
X82651000Y-30988000D02*
X82651000Y-29438000D01*
X82651000Y-29438000D02*
X85751000Y-29438000D01*
X33782000Y-32258000D02*
X33782000Y-39878000D01*
X36322000Y-32258000D02*
X36322000Y-39878000D01*
X36602000Y-29438000D02*
X36602000Y-30988000D01*
X33782000Y-39878000D02*
X36322000Y-39878000D01*
X36322000Y-32258000D02*
X33782000Y-32258000D01*
X33502000Y-30988000D02*
X33502000Y-29438000D01*
X33502000Y-29438000D02*
X36602000Y-29438000D01*
D13*
G36*
X48764241Y-42998184D02*
X48790753Y-43011282D01*
X48823447Y-43034106D01*
X48847275Y-43058996D01*
X48863594Y-43090249D01*
X48873760Y-43132166D01*
X48879128Y-43189044D01*
X48881056Y-43265184D01*
X48881169Y-43297917D01*
X48880839Y-43369656D01*
X48879473Y-43420927D01*
X48876500Y-43456404D01*
X48871351Y-43480763D01*
X48863457Y-43498680D01*
X48855243Y-43510902D01*
X48802813Y-43562905D01*
X48741070Y-43594184D01*
X48674464Y-43603592D01*
X48607442Y-43589980D01*
X48586208Y-43580354D01*
X48535376Y-43553859D01*
X48535376Y-43969052D01*
X48572475Y-43949868D01*
X48621357Y-43935025D01*
X48681439Y-43931222D01*
X48741436Y-43938243D01*
X48786744Y-43954013D01*
X48824325Y-43984047D01*
X48856436Y-44027024D01*
X48858850Y-44031436D01*
X48869033Y-44052221D01*
X48876470Y-44073170D01*
X48881589Y-44098548D01*
X48884819Y-44132618D01*
X48886587Y-44179641D01*
X48887323Y-44243882D01*
X48887456Y-44316176D01*
X48887456Y-44546822D01*
X48749139Y-44546822D01*
X48749139Y-44121533D01*
X48710451Y-44088979D01*
X48670262Y-44062940D01*
X48632203Y-44058205D01*
X48593934Y-44070389D01*
X48573538Y-44082320D01*
X48558358Y-44099313D01*
X48547562Y-44124995D01*
X48540317Y-44162991D01*
X48535792Y-44216926D01*
X48533156Y-44290425D01*
X48532228Y-44339347D01*
X48529089Y-44540535D01*
X48463074Y-44544336D01*
X48397060Y-44548136D01*
X48397060Y-43299650D01*
X48535376Y-43299650D01*
X48538903Y-43369254D01*
X48550785Y-43417569D01*
X48572980Y-43447631D01*
X48607441Y-43462471D01*
X48642258Y-43465436D01*
X48681671Y-43462028D01*
X48707829Y-43448617D01*
X48724186Y-43430896D01*
X48737063Y-43411835D01*
X48744728Y-43390601D01*
X48748139Y-43360849D01*
X48748251Y-43316236D01*
X48747103Y-43278880D01*
X48744468Y-43222604D01*
X48740544Y-43185658D01*
X48733937Y-43162223D01*
X48723251Y-43146480D01*
X48713167Y-43137380D01*
X48671030Y-43117537D01*
X48621160Y-43114332D01*
X48592524Y-43121168D01*
X48564172Y-43145464D01*
X48545391Y-43192728D01*
X48536288Y-43262624D01*
X48535376Y-43299650D01*
X48397060Y-43299650D01*
X48397060Y-42987614D01*
X48466218Y-42987614D01*
X48507740Y-42989256D01*
X48529162Y-42995087D01*
X48535374Y-43006461D01*
X48535376Y-43006798D01*
X48538258Y-43017938D01*
X48550970Y-43016673D01*
X48576243Y-43004433D01*
X48635131Y-42985707D01*
X48701385Y-42983739D01*
X48764241Y-42998184D01*
X48764241Y-42998184D01*
G37*
X48764241Y-42998184D02*
X48790753Y-43011282D01*
X48823447Y-43034106D01*
X48847275Y-43058996D01*
X48863594Y-43090249D01*
X48873760Y-43132166D01*
X48879128Y-43189044D01*
X48881056Y-43265184D01*
X48881169Y-43297917D01*
X48880839Y-43369656D01*
X48879473Y-43420927D01*
X48876500Y-43456404D01*
X48871351Y-43480763D01*
X48863457Y-43498680D01*
X48855243Y-43510902D01*
X48802813Y-43562905D01*
X48741070Y-43594184D01*
X48674464Y-43603592D01*
X48607442Y-43589980D01*
X48586208Y-43580354D01*
X48535376Y-43553859D01*
X48535376Y-43969052D01*
X48572475Y-43949868D01*
X48621357Y-43935025D01*
X48681439Y-43931222D01*
X48741436Y-43938243D01*
X48786744Y-43954013D01*
X48824325Y-43984047D01*
X48856436Y-44027024D01*
X48858850Y-44031436D01*
X48869033Y-44052221D01*
X48876470Y-44073170D01*
X48881589Y-44098548D01*
X48884819Y-44132618D01*
X48886587Y-44179641D01*
X48887323Y-44243882D01*
X48887456Y-44316176D01*
X48887456Y-44546822D01*
X48749139Y-44546822D01*
X48749139Y-44121533D01*
X48710451Y-44088979D01*
X48670262Y-44062940D01*
X48632203Y-44058205D01*
X48593934Y-44070389D01*
X48573538Y-44082320D01*
X48558358Y-44099313D01*
X48547562Y-44124995D01*
X48540317Y-44162991D01*
X48535792Y-44216926D01*
X48533156Y-44290425D01*
X48532228Y-44339347D01*
X48529089Y-44540535D01*
X48463074Y-44544336D01*
X48397060Y-44548136D01*
X48397060Y-43299650D01*
X48535376Y-43299650D01*
X48538903Y-43369254D01*
X48550785Y-43417569D01*
X48572980Y-43447631D01*
X48607441Y-43462471D01*
X48642258Y-43465436D01*
X48681671Y-43462028D01*
X48707829Y-43448617D01*
X48724186Y-43430896D01*
X48737063Y-43411835D01*
X48744728Y-43390601D01*
X48748139Y-43360849D01*
X48748251Y-43316236D01*
X48747103Y-43278880D01*
X48744468Y-43222604D01*
X48740544Y-43185658D01*
X48733937Y-43162223D01*
X48723251Y-43146480D01*
X48713167Y-43137380D01*
X48671030Y-43117537D01*
X48621160Y-43114332D01*
X48592524Y-43121168D01*
X48564172Y-43145464D01*
X48545391Y-43192728D01*
X48536288Y-43262624D01*
X48535376Y-43299650D01*
X48397060Y-43299650D01*
X48397060Y-42987614D01*
X48466218Y-42987614D01*
X48507740Y-42989256D01*
X48529162Y-42995087D01*
X48535374Y-43006461D01*
X48535376Y-43006798D01*
X48538258Y-43017938D01*
X48550970Y-43016673D01*
X48576243Y-43004433D01*
X48635131Y-42985707D01*
X48701385Y-42983739D01*
X48764241Y-42998184D01*
G36*
X49288790Y-43935555D02*
X49347945Y-43951339D01*
X49392977Y-43979948D01*
X49424754Y-44017419D01*
X49434634Y-44033411D01*
X49441927Y-44050163D01*
X49447026Y-44071592D01*
X49450321Y-44101616D01*
X49452203Y-44144154D01*
X49453063Y-44203122D01*
X49453293Y-44282440D01*
X49453297Y-44303484D01*
X49453297Y-44546822D01*
X49392941Y-44546822D01*
X49354443Y-44544126D01*
X49325977Y-44537295D01*
X49318845Y-44533083D01*
X49299348Y-44525813D01*
X49279434Y-44533083D01*
X49246647Y-44542160D01*
X49199022Y-44545813D01*
X49146236Y-44544228D01*
X49097964Y-44537589D01*
X49069782Y-44529072D01*
X49015247Y-44494063D01*
X48981165Y-44445479D01*
X48965843Y-44380882D01*
X48965701Y-44379223D01*
X48967045Y-44350566D01*
X49088644Y-44350566D01*
X49099274Y-44383161D01*
X49116590Y-44401505D01*
X49151348Y-44415379D01*
X49197227Y-44420917D01*
X49244012Y-44418191D01*
X49281486Y-44407274D01*
X49291985Y-44400269D01*
X49310332Y-44367904D01*
X49314980Y-44331111D01*
X49314980Y-44282763D01*
X49245418Y-44282763D01*
X49179333Y-44287850D01*
X49129236Y-44302263D01*
X49098071Y-44324729D01*
X49088644Y-44350566D01*
X48967045Y-44350566D01*
X48969013Y-44308647D01*
X48992290Y-44252845D01*
X49036052Y-44210647D01*
X49042101Y-44206808D01*
X49068093Y-44194309D01*
X49100265Y-44186740D01*
X49145240Y-44183061D01*
X49198669Y-44182216D01*
X49314980Y-44182169D01*
X49314980Y-44133411D01*
X49310047Y-44095581D01*
X49297457Y-44070236D01*
X49295983Y-44068887D01*
X49267966Y-44057800D01*
X49225674Y-44053503D01*
X49178936Y-44055615D01*
X49137582Y-44063756D01*
X49113043Y-44075965D01*
X49099747Y-44085746D01*
X49085706Y-44087613D01*
X49066329Y-44079600D01*
X49037024Y-44059739D01*
X48993197Y-44026063D01*
X48989175Y-44022909D01*
X48991236Y-44011236D01*
X49008432Y-43991822D01*
X49034567Y-43970248D01*
X49063448Y-43952096D01*
X49072522Y-43947809D01*
X49105620Y-43939256D01*
X49154120Y-43933155D01*
X49208305Y-43930708D01*
X49210839Y-43930703D01*
X49288790Y-43935555D01*
X49288790Y-43935555D01*
G37*
X49288790Y-43935555D02*
X49347945Y-43951339D01*
X49392977Y-43979948D01*
X49424754Y-44017419D01*
X49434634Y-44033411D01*
X49441927Y-44050163D01*
X49447026Y-44071592D01*
X49450321Y-44101616D01*
X49452203Y-44144154D01*
X49453063Y-44203122D01*
X49453293Y-44282440D01*
X49453297Y-44303484D01*
X49453297Y-44546822D01*
X49392941Y-44546822D01*
X49354443Y-44544126D01*
X49325977Y-44537295D01*
X49318845Y-44533083D01*
X49299348Y-44525813D01*
X49279434Y-44533083D01*
X49246647Y-44542160D01*
X49199022Y-44545813D01*
X49146236Y-44544228D01*
X49097964Y-44537589D01*
X49069782Y-44529072D01*
X49015247Y-44494063D01*
X48981165Y-44445479D01*
X48965843Y-44380882D01*
X48965701Y-44379223D01*
X48967045Y-44350566D01*
X49088644Y-44350566D01*
X49099274Y-44383161D01*
X49116590Y-44401505D01*
X49151348Y-44415379D01*
X49197227Y-44420917D01*
X49244012Y-44418191D01*
X49281486Y-44407274D01*
X49291985Y-44400269D01*
X49310332Y-44367904D01*
X49314980Y-44331111D01*
X49314980Y-44282763D01*
X49245418Y-44282763D01*
X49179333Y-44287850D01*
X49129236Y-44302263D01*
X49098071Y-44324729D01*
X49088644Y-44350566D01*
X48967045Y-44350566D01*
X48969013Y-44308647D01*
X48992290Y-44252845D01*
X49036052Y-44210647D01*
X49042101Y-44206808D01*
X49068093Y-44194309D01*
X49100265Y-44186740D01*
X49145240Y-44183061D01*
X49198669Y-44182216D01*
X49314980Y-44182169D01*
X49314980Y-44133411D01*
X49310047Y-44095581D01*
X49297457Y-44070236D01*
X49295983Y-44068887D01*
X49267966Y-44057800D01*
X49225674Y-44053503D01*
X49178936Y-44055615D01*
X49137582Y-44063756D01*
X49113043Y-44075965D01*
X49099747Y-44085746D01*
X49085706Y-44087613D01*
X49066329Y-44079600D01*
X49037024Y-44059739D01*
X48993197Y-44026063D01*
X48989175Y-44022909D01*
X48991236Y-44011236D01*
X49008432Y-43991822D01*
X49034567Y-43970248D01*
X49063448Y-43952096D01*
X49072522Y-43947809D01*
X49105620Y-43939256D01*
X49154120Y-43933155D01*
X49208305Y-43930708D01*
X49210839Y-43930703D01*
X49288790Y-43935555D01*
G36*
X49679644Y-43932020D02*
X49698461Y-43937660D01*
X49704527Y-43950053D01*
X49704782Y-43955647D01*
X49705871Y-43971230D01*
X49713368Y-43973676D01*
X49733619Y-43962993D01*
X49745649Y-43955694D01*
X49783600Y-43940063D01*
X49828928Y-43932334D01*
X49876456Y-43931740D01*
X49921005Y-43937513D01*
X49957398Y-43948884D01*
X49980457Y-43965088D01*
X49985004Y-43985355D01*
X49982709Y-43990843D01*
X49965980Y-44013626D01*
X49940037Y-44041647D01*
X49935345Y-44046177D01*
X49910617Y-44067005D01*
X49889282Y-44073735D01*
X49859445Y-44069038D01*
X49847492Y-44065917D01*
X49810295Y-44058421D01*
X49784141Y-44061792D01*
X49762054Y-44073681D01*
X49741822Y-44089635D01*
X49726921Y-44109700D01*
X49716566Y-44137702D01*
X49709971Y-44177467D01*
X49706351Y-44232823D01*
X49704922Y-44307594D01*
X49704782Y-44352740D01*
X49704782Y-44546822D01*
X49579040Y-44546822D01*
X49579040Y-43930683D01*
X49641911Y-43930683D01*
X49679644Y-43932020D01*
X49679644Y-43932020D01*
G37*
X49679644Y-43932020D02*
X49698461Y-43937660D01*
X49704527Y-43950053D01*
X49704782Y-43955647D01*
X49705871Y-43971230D01*
X49713368Y-43973676D01*
X49733619Y-43962993D01*
X49745649Y-43955694D01*
X49783600Y-43940063D01*
X49828928Y-43932334D01*
X49876456Y-43931740D01*
X49921005Y-43937513D01*
X49957398Y-43948884D01*
X49980457Y-43965088D01*
X49985004Y-43985355D01*
X49982709Y-43990843D01*
X49965980Y-44013626D01*
X49940037Y-44041647D01*
X49935345Y-44046177D01*
X49910617Y-44067005D01*
X49889282Y-44073735D01*
X49859445Y-44069038D01*
X49847492Y-44065917D01*
X49810295Y-44058421D01*
X49784141Y-44061792D01*
X49762054Y-44073681D01*
X49741822Y-44089635D01*
X49726921Y-44109700D01*
X49716566Y-44137702D01*
X49709971Y-44177467D01*
X49706351Y-44232823D01*
X49704922Y-44307594D01*
X49704782Y-44352740D01*
X49704782Y-44546822D01*
X49579040Y-44546822D01*
X49579040Y-43930683D01*
X49641911Y-43930683D01*
X49679644Y-43932020D01*
G36*
X50471812Y-44546822D02*
X50402654Y-44546822D01*
X50362512Y-44545645D01*
X50341606Y-44540772D01*
X50334078Y-44530186D01*
X50333495Y-44523029D01*
X50332226Y-44508676D01*
X50324221Y-44505923D01*
X50303185Y-44514771D01*
X50286827Y-44523029D01*
X50224023Y-44542597D01*
X50155752Y-44543729D01*
X50100248Y-44529135D01*
X50048562Y-44493877D01*
X50009162Y-44441835D01*
X49987587Y-44380450D01*
X49987038Y-44377018D01*
X49983833Y-44339571D01*
X49982239Y-44285813D01*
X49982367Y-44245155D01*
X50119721Y-44245155D01*
X50122903Y-44299194D01*
X50130141Y-44343735D01*
X50139940Y-44368888D01*
X50177011Y-44403260D01*
X50221026Y-44415582D01*
X50266416Y-44405618D01*
X50305203Y-44375895D01*
X50319892Y-44355905D01*
X50328481Y-44332050D01*
X50332504Y-44297230D01*
X50333495Y-44244930D01*
X50331722Y-44193139D01*
X50327037Y-44147634D01*
X50320397Y-44117181D01*
X50319290Y-44114452D01*
X50292509Y-44082000D01*
X50253421Y-44064183D01*
X50209685Y-44061306D01*
X50168962Y-44073674D01*
X50138913Y-44101593D01*
X50135796Y-44107148D01*
X50126039Y-44141022D01*
X50120723Y-44189728D01*
X50119721Y-44245155D01*
X49982367Y-44245155D01*
X49982432Y-44224540D01*
X49983336Y-44191563D01*
X49989486Y-44109981D01*
X50002267Y-44048730D01*
X50023529Y-44003449D01*
X50055122Y-43969779D01*
X50085793Y-43950014D01*
X50128646Y-43936120D01*
X50181944Y-43931354D01*
X50236520Y-43935236D01*
X50283208Y-43947282D01*
X50307876Y-43961693D01*
X50333495Y-43984878D01*
X50333495Y-43691773D01*
X50471812Y-43691773D01*
X50471812Y-44546822D01*
X50471812Y-44546822D01*
G37*
X50471812Y-44546822D02*
X50402654Y-44546822D01*
X50362512Y-44545645D01*
X50341606Y-44540772D01*
X50334078Y-44530186D01*
X50333495Y-44523029D01*
X50332226Y-44508676D01*
X50324221Y-44505923D01*
X50303185Y-44514771D01*
X50286827Y-44523029D01*
X50224023Y-44542597D01*
X50155752Y-44543729D01*
X50100248Y-44529135D01*
X50048562Y-44493877D01*
X50009162Y-44441835D01*
X49987587Y-44380450D01*
X49987038Y-44377018D01*
X49983833Y-44339571D01*
X49982239Y-44285813D01*
X49982367Y-44245155D01*
X50119721Y-44245155D01*
X50122903Y-44299194D01*
X50130141Y-44343735D01*
X50139940Y-44368888D01*
X50177011Y-44403260D01*
X50221026Y-44415582D01*
X50266416Y-44405618D01*
X50305203Y-44375895D01*
X50319892Y-44355905D01*
X50328481Y-44332050D01*
X50332504Y-44297230D01*
X50333495Y-44244930D01*
X50331722Y-44193139D01*
X50327037Y-44147634D01*
X50320397Y-44117181D01*
X50319290Y-44114452D01*
X50292509Y-44082000D01*
X50253421Y-44064183D01*
X50209685Y-44061306D01*
X50168962Y-44073674D01*
X50138913Y-44101593D01*
X50135796Y-44107148D01*
X50126039Y-44141022D01*
X50120723Y-44189728D01*
X50119721Y-44245155D01*
X49982367Y-44245155D01*
X49982432Y-44224540D01*
X49983336Y-44191563D01*
X49989486Y-44109981D01*
X50002267Y-44048730D01*
X50023529Y-44003449D01*
X50055122Y-43969779D01*
X50085793Y-43950014D01*
X50128646Y-43936120D01*
X50181944Y-43931354D01*
X50236520Y-43935236D01*
X50283208Y-43947282D01*
X50307876Y-43961693D01*
X50333495Y-43984878D01*
X50333495Y-43691773D01*
X50471812Y-43691773D01*
X50471812Y-44546822D01*
G36*
X50954524Y-43933237D02*
X51004255Y-43936971D01*
X51134291Y-44326773D01*
X51154678Y-44257614D01*
X51166946Y-44214874D01*
X51183085Y-44157115D01*
X51200512Y-44093625D01*
X51209726Y-44059570D01*
X51244388Y-43930683D01*
X51387391Y-43930683D01*
X51344646Y-44065857D01*
X51323596Y-44132342D01*
X51298167Y-44212539D01*
X51271610Y-44296193D01*
X51247902Y-44370782D01*
X51193902Y-44540535D01*
X51135598Y-44544328D01*
X51077295Y-44548122D01*
X51045679Y-44443734D01*
X51026182Y-44378889D01*
X51004904Y-44307400D01*
X50986308Y-44244263D01*
X50985574Y-44241750D01*
X50971684Y-44198969D01*
X50959429Y-44169779D01*
X50950846Y-44158741D01*
X50949082Y-44160018D01*
X50942891Y-44177130D01*
X50931128Y-44213787D01*
X50915225Y-44265378D01*
X50896614Y-44327294D01*
X50886543Y-44361352D01*
X50832007Y-44546822D01*
X50716264Y-44546822D01*
X50623737Y-44254471D01*
X50597744Y-44172462D01*
X50574066Y-44097987D01*
X50553820Y-44034544D01*
X50538126Y-43985632D01*
X50528102Y-43954749D01*
X50525055Y-43945726D01*
X50527467Y-43936487D01*
X50546408Y-43932441D01*
X50585823Y-43932846D01*
X50591993Y-43933152D01*
X50665086Y-43936971D01*
X50712957Y-44113010D01*
X50730553Y-44177211D01*
X50746277Y-44233649D01*
X50758746Y-44277422D01*
X50766574Y-44303630D01*
X50768020Y-44307903D01*
X50774014Y-44302990D01*
X50786101Y-44277532D01*
X50802893Y-44234997D01*
X50823003Y-44178850D01*
X50840003Y-44128130D01*
X50904794Y-43929504D01*
X50954524Y-43933237D01*
X50954524Y-43933237D01*
G37*
X50954524Y-43933237D02*
X51004255Y-43936971D01*
X51134291Y-44326773D01*
X51154678Y-44257614D01*
X51166946Y-44214874D01*
X51183085Y-44157115D01*
X51200512Y-44093625D01*
X51209726Y-44059570D01*
X51244388Y-43930683D01*
X51387391Y-43930683D01*
X51344646Y-44065857D01*
X51323596Y-44132342D01*
X51298167Y-44212539D01*
X51271610Y-44296193D01*
X51247902Y-44370782D01*
X51193902Y-44540535D01*
X51135598Y-44544328D01*
X51077295Y-44548122D01*
X51045679Y-44443734D01*
X51026182Y-44378889D01*
X51004904Y-44307400D01*
X50986308Y-44244263D01*
X50985574Y-44241750D01*
X50971684Y-44198969D01*
X50959429Y-44169779D01*
X50950846Y-44158741D01*
X50949082Y-44160018D01*
X50942891Y-44177130D01*
X50931128Y-44213787D01*
X50915225Y-44265378D01*
X50896614Y-44327294D01*
X50886543Y-44361352D01*
X50832007Y-44546822D01*
X50716264Y-44546822D01*
X50623737Y-44254471D01*
X50597744Y-44172462D01*
X50574066Y-44097987D01*
X50553820Y-44034544D01*
X50538126Y-43985632D01*
X50528102Y-43954749D01*
X50525055Y-43945726D01*
X50527467Y-43936487D01*
X50546408Y-43932441D01*
X50585823Y-43932846D01*
X50591993Y-43933152D01*
X50665086Y-43936971D01*
X50712957Y-44113010D01*
X50730553Y-44177211D01*
X50746277Y-44233649D01*
X50758746Y-44277422D01*
X50766574Y-44303630D01*
X50768020Y-44307903D01*
X50774014Y-44302990D01*
X50786101Y-44277532D01*
X50802893Y-44234997D01*
X50823003Y-44178850D01*
X50840003Y-44128130D01*
X50904794Y-43929504D01*
X50954524Y-43933237D01*
G36*
X51711411Y-43934417D02*
X51764411Y-43947290D01*
X51779731Y-43954110D01*
X51809428Y-43971974D01*
X51832220Y-43992093D01*
X51849083Y-44017962D01*
X51860998Y-44053073D01*
X51868942Y-44100920D01*
X51873894Y-44164996D01*
X51876831Y-44248794D01*
X51877947Y-44304768D01*
X51882052Y-44546822D01*
X51811932Y-44546822D01*
X51769393Y-44545038D01*
X51747476Y-44538942D01*
X51741812Y-44528706D01*
X51738821Y-44517637D01*
X51725451Y-44519754D01*
X51707233Y-44528629D01*
X51661624Y-44542233D01*
X51603007Y-44545899D01*
X51541354Y-44539903D01*
X51486638Y-44524521D01*
X51481730Y-44522386D01*
X51431723Y-44487255D01*
X51398756Y-44438419D01*
X51383587Y-44381333D01*
X51384746Y-44360824D01*
X51508508Y-44360824D01*
X51519413Y-44388425D01*
X51551745Y-44408204D01*
X51603910Y-44418819D01*
X51631787Y-44420228D01*
X51678247Y-44416620D01*
X51709129Y-44402597D01*
X51716664Y-44395931D01*
X51737076Y-44359666D01*
X51741812Y-44326773D01*
X51741812Y-44282763D01*
X51680513Y-44282763D01*
X51609256Y-44286395D01*
X51559276Y-44297818D01*
X51527696Y-44317824D01*
X51520626Y-44326743D01*
X51508508Y-44360824D01*
X51384746Y-44360824D01*
X51386971Y-44321456D01*
X51409663Y-44264244D01*
X51440624Y-44225580D01*
X51459376Y-44208864D01*
X51477733Y-44197878D01*
X51501619Y-44191180D01*
X51536957Y-44187326D01*
X51589669Y-44184873D01*
X51610577Y-44184168D01*
X51741812Y-44179879D01*
X51741620Y-44140158D01*
X51736537Y-44098405D01*
X51718162Y-44073158D01*
X51681039Y-44057030D01*
X51680043Y-44056742D01*
X51627410Y-44050400D01*
X51575906Y-44058684D01*
X51537630Y-44078827D01*
X51522272Y-44088773D01*
X51505730Y-44087397D01*
X51480275Y-44072987D01*
X51465328Y-44062817D01*
X51436091Y-44041088D01*
X51417980Y-44024800D01*
X51415074Y-44020137D01*
X51427040Y-43996005D01*
X51462396Y-43967185D01*
X51477753Y-43957461D01*
X51521901Y-43940714D01*
X51581398Y-43931227D01*
X51647487Y-43929095D01*
X51711411Y-43934417D01*
X51711411Y-43934417D01*
G37*
X51711411Y-43934417D02*
X51764411Y-43947290D01*
X51779731Y-43954110D01*
X51809428Y-43971974D01*
X51832220Y-43992093D01*
X51849083Y-44017962D01*
X51860998Y-44053073D01*
X51868942Y-44100920D01*
X51873894Y-44164996D01*
X51876831Y-44248794D01*
X51877947Y-44304768D01*
X51882052Y-44546822D01*
X51811932Y-44546822D01*
X51769393Y-44545038D01*
X51747476Y-44538942D01*
X51741812Y-44528706D01*
X51738821Y-44517637D01*
X51725451Y-44519754D01*
X51707233Y-44528629D01*
X51661624Y-44542233D01*
X51603007Y-44545899D01*
X51541354Y-44539903D01*
X51486638Y-44524521D01*
X51481730Y-44522386D01*
X51431723Y-44487255D01*
X51398756Y-44438419D01*
X51383587Y-44381333D01*
X51384746Y-44360824D01*
X51508508Y-44360824D01*
X51519413Y-44388425D01*
X51551745Y-44408204D01*
X51603910Y-44418819D01*
X51631787Y-44420228D01*
X51678247Y-44416620D01*
X51709129Y-44402597D01*
X51716664Y-44395931D01*
X51737076Y-44359666D01*
X51741812Y-44326773D01*
X51741812Y-44282763D01*
X51680513Y-44282763D01*
X51609256Y-44286395D01*
X51559276Y-44297818D01*
X51527696Y-44317824D01*
X51520626Y-44326743D01*
X51508508Y-44360824D01*
X51384746Y-44360824D01*
X51386971Y-44321456D01*
X51409663Y-44264244D01*
X51440624Y-44225580D01*
X51459376Y-44208864D01*
X51477733Y-44197878D01*
X51501619Y-44191180D01*
X51536957Y-44187326D01*
X51589669Y-44184873D01*
X51610577Y-44184168D01*
X51741812Y-44179879D01*
X51741620Y-44140158D01*
X51736537Y-44098405D01*
X51718162Y-44073158D01*
X51681039Y-44057030D01*
X51680043Y-44056742D01*
X51627410Y-44050400D01*
X51575906Y-44058684D01*
X51537630Y-44078827D01*
X51522272Y-44088773D01*
X51505730Y-44087397D01*
X51480275Y-44072987D01*
X51465328Y-44062817D01*
X51436091Y-44041088D01*
X51417980Y-44024800D01*
X51415074Y-44020137D01*
X51427040Y-43996005D01*
X51462396Y-43967185D01*
X51477753Y-43957461D01*
X51521901Y-43940714D01*
X51581398Y-43931227D01*
X51647487Y-43929095D01*
X51711411Y-43934417D01*
G36*
X52308255Y-43930486D02*
X52356595Y-43940015D01*
X52384114Y-43954125D01*
X52413064Y-43977568D01*
X52371876Y-44029571D01*
X52346482Y-44061064D01*
X52329238Y-44076428D01*
X52312102Y-44078776D01*
X52287027Y-44071217D01*
X52275257Y-44066941D01*
X52227270Y-44060631D01*
X52183324Y-44074156D01*
X52151060Y-44104710D01*
X52145819Y-44114452D01*
X52140112Y-44140258D01*
X52135706Y-44187817D01*
X52132811Y-44253758D01*
X52131631Y-44334710D01*
X52131614Y-44346226D01*
X52131614Y-44546822D01*
X51993297Y-44546822D01*
X51993297Y-43930683D01*
X52062456Y-43930683D01*
X52102333Y-43931725D01*
X52123107Y-43936358D01*
X52130789Y-43946849D01*
X52131614Y-43956745D01*
X52131614Y-43982806D01*
X52164745Y-43956745D01*
X52202735Y-43938965D01*
X52253770Y-43930174D01*
X52308255Y-43930486D01*
X52308255Y-43930486D01*
G37*
X52308255Y-43930486D02*
X52356595Y-43940015D01*
X52384114Y-43954125D01*
X52413064Y-43977568D01*
X52371876Y-44029571D01*
X52346482Y-44061064D01*
X52329238Y-44076428D01*
X52312102Y-44078776D01*
X52287027Y-44071217D01*
X52275257Y-44066941D01*
X52227270Y-44060631D01*
X52183324Y-44074156D01*
X52151060Y-44104710D01*
X52145819Y-44114452D01*
X52140112Y-44140258D01*
X52135706Y-44187817D01*
X52132811Y-44253758D01*
X52131631Y-44334710D01*
X52131614Y-44346226D01*
X52131614Y-44546822D01*
X51993297Y-44546822D01*
X51993297Y-43930683D01*
X52062456Y-43930683D01*
X52102333Y-43931725D01*
X52123107Y-43936358D01*
X52130789Y-43946849D01*
X52131614Y-43956745D01*
X52131614Y-43982806D01*
X52164745Y-43956745D01*
X52202735Y-43938965D01*
X52253770Y-43930174D01*
X52308255Y-43930486D01*
G36*
X52705581Y-43933970D02*
X52765685Y-43949597D01*
X52816021Y-43981848D01*
X52840393Y-44005940D01*
X52880345Y-44062895D01*
X52903242Y-44128965D01*
X52911108Y-44210182D01*
X52911148Y-44216748D01*
X52911218Y-44282763D01*
X52531264Y-44282763D01*
X52539363Y-44317342D01*
X52553987Y-44348659D01*
X52579581Y-44381291D01*
X52584935Y-44386500D01*
X52630943Y-44414694D01*
X52683410Y-44419475D01*
X52743803Y-44400926D01*
X52754040Y-44395931D01*
X52785439Y-44380745D01*
X52806470Y-44372094D01*
X52810139Y-44371293D01*
X52822948Y-44379063D01*
X52847378Y-44398072D01*
X52859779Y-44408460D01*
X52885476Y-44432321D01*
X52893915Y-44448077D01*
X52888058Y-44462571D01*
X52884928Y-44466534D01*
X52863725Y-44483879D01*
X52828738Y-44504959D01*
X52804337Y-44517265D01*
X52735072Y-44538946D01*
X52658388Y-44545971D01*
X52585765Y-44537647D01*
X52565426Y-44531686D01*
X52502476Y-44497952D01*
X52455815Y-44446045D01*
X52425173Y-44375459D01*
X52410282Y-44285692D01*
X52408647Y-44238753D01*
X52413421Y-44170413D01*
X52533990Y-44170413D01*
X52545652Y-44175465D01*
X52576998Y-44179429D01*
X52622571Y-44181768D01*
X52653446Y-44182169D01*
X52708981Y-44181783D01*
X52744033Y-44179975D01*
X52763262Y-44175773D01*
X52771330Y-44168203D01*
X52772901Y-44157218D01*
X52762121Y-44123381D01*
X52734980Y-44089940D01*
X52699277Y-44064272D01*
X52663560Y-44053772D01*
X52615048Y-44063086D01*
X52573053Y-44090013D01*
X52543936Y-44128827D01*
X52533990Y-44170413D01*
X52413421Y-44170413D01*
X52415599Y-44139236D01*
X52437055Y-44059949D01*
X52473470Y-44000263D01*
X52525297Y-43959549D01*
X52592990Y-43937179D01*
X52629662Y-43932871D01*
X52705581Y-43933970D01*
X52705581Y-43933970D01*
G37*
X52705581Y-43933970D02*
X52765685Y-43949597D01*
X52816021Y-43981848D01*
X52840393Y-44005940D01*
X52880345Y-44062895D01*
X52903242Y-44128965D01*
X52911108Y-44210182D01*
X52911148Y-44216748D01*
X52911218Y-44282763D01*
X52531264Y-44282763D01*
X52539363Y-44317342D01*
X52553987Y-44348659D01*
X52579581Y-44381291D01*
X52584935Y-44386500D01*
X52630943Y-44414694D01*
X52683410Y-44419475D01*
X52743803Y-44400926D01*
X52754040Y-44395931D01*
X52785439Y-44380745D01*
X52806470Y-44372094D01*
X52810139Y-44371293D01*
X52822948Y-44379063D01*
X52847378Y-44398072D01*
X52859779Y-44408460D01*
X52885476Y-44432321D01*
X52893915Y-44448077D01*
X52888058Y-44462571D01*
X52884928Y-44466534D01*
X52863725Y-44483879D01*
X52828738Y-44504959D01*
X52804337Y-44517265D01*
X52735072Y-44538946D01*
X52658388Y-44545971D01*
X52585765Y-44537647D01*
X52565426Y-44531686D01*
X52502476Y-44497952D01*
X52455815Y-44446045D01*
X52425173Y-44375459D01*
X52410282Y-44285692D01*
X52408647Y-44238753D01*
X52413421Y-44170413D01*
X52533990Y-44170413D01*
X52545652Y-44175465D01*
X52576998Y-44179429D01*
X52622571Y-44181768D01*
X52653446Y-44182169D01*
X52708981Y-44181783D01*
X52744033Y-44179975D01*
X52763262Y-44175773D01*
X52771330Y-44168203D01*
X52772901Y-44157218D01*
X52762121Y-44123381D01*
X52734980Y-44089940D01*
X52699277Y-44064272D01*
X52663560Y-44053772D01*
X52615048Y-44063086D01*
X52573053Y-44090013D01*
X52543936Y-44128827D01*
X52533990Y-44170413D01*
X52413421Y-44170413D01*
X52415599Y-44139236D01*
X52437055Y-44059949D01*
X52473470Y-44000263D01*
X52525297Y-43959549D01*
X52592990Y-43937179D01*
X52629662Y-43932871D01*
X52705581Y-43933970D01*
G36*
X48134739Y-42994148D02*
X48200521Y-43023231D01*
X48250460Y-43071793D01*
X48284626Y-43139908D01*
X48303093Y-43227651D01*
X48304417Y-43241351D01*
X48305454Y-43337939D01*
X48292007Y-43422602D01*
X48264892Y-43491221D01*
X48250373Y-43513294D01*
X48199799Y-43560011D01*
X48135391Y-43590268D01*
X48063334Y-43602824D01*
X47989815Y-43596439D01*
X47933928Y-43576772D01*
X47885868Y-43543629D01*
X47846588Y-43500175D01*
X47845908Y-43499158D01*
X47829956Y-43472338D01*
X47819590Y-43445368D01*
X47813312Y-43411332D01*
X47809627Y-43363310D01*
X47808003Y-43323931D01*
X47807328Y-43288219D01*
X47933045Y-43288219D01*
X47934274Y-43323770D01*
X47938734Y-43371094D01*
X47946603Y-43401465D01*
X47960793Y-43423072D01*
X47974083Y-43435694D01*
X48021198Y-43462122D01*
X48070495Y-43465653D01*
X48116407Y-43446639D01*
X48139362Y-43425331D01*
X48155904Y-43403859D01*
X48165579Y-43383313D01*
X48169826Y-43356574D01*
X48170080Y-43316523D01*
X48168772Y-43279638D01*
X48165957Y-43226947D01*
X48161495Y-43192772D01*
X48153452Y-43170480D01*
X48139897Y-43153442D01*
X48129155Y-43143703D01*
X48084223Y-43118123D01*
X48035751Y-43116847D01*
X47995106Y-43131999D01*
X47960433Y-43163642D01*
X47939776Y-43215620D01*
X47933045Y-43288219D01*
X47807328Y-43288219D01*
X47806521Y-43245621D01*
X47809052Y-43187056D01*
X47816638Y-43143007D01*
X47830319Y-43108248D01*
X47851135Y-43077551D01*
X47858853Y-43068436D01*
X47907111Y-43023021D01*
X47958872Y-42996493D01*
X48022172Y-42985379D01*
X48053039Y-42984471D01*
X48134739Y-42994148D01*
X48134739Y-42994148D01*
G37*
X48134739Y-42994148D02*
X48200521Y-43023231D01*
X48250460Y-43071793D01*
X48284626Y-43139908D01*
X48303093Y-43227651D01*
X48304417Y-43241351D01*
X48305454Y-43337939D01*
X48292007Y-43422602D01*
X48264892Y-43491221D01*
X48250373Y-43513294D01*
X48199799Y-43560011D01*
X48135391Y-43590268D01*
X48063334Y-43602824D01*
X47989815Y-43596439D01*
X47933928Y-43576772D01*
X47885868Y-43543629D01*
X47846588Y-43500175D01*
X47845908Y-43499158D01*
X47829956Y-43472338D01*
X47819590Y-43445368D01*
X47813312Y-43411332D01*
X47809627Y-43363310D01*
X47808003Y-43323931D01*
X47807328Y-43288219D01*
X47933045Y-43288219D01*
X47934274Y-43323770D01*
X47938734Y-43371094D01*
X47946603Y-43401465D01*
X47960793Y-43423072D01*
X47974083Y-43435694D01*
X48021198Y-43462122D01*
X48070495Y-43465653D01*
X48116407Y-43446639D01*
X48139362Y-43425331D01*
X48155904Y-43403859D01*
X48165579Y-43383313D01*
X48169826Y-43356574D01*
X48170080Y-43316523D01*
X48168772Y-43279638D01*
X48165957Y-43226947D01*
X48161495Y-43192772D01*
X48153452Y-43170480D01*
X48139897Y-43153442D01*
X48129155Y-43143703D01*
X48084223Y-43118123D01*
X48035751Y-43116847D01*
X47995106Y-43131999D01*
X47960433Y-43163642D01*
X47939776Y-43215620D01*
X47933045Y-43288219D01*
X47807328Y-43288219D01*
X47806521Y-43245621D01*
X47809052Y-43187056D01*
X47816638Y-43143007D01*
X47830319Y-43108248D01*
X47851135Y-43077551D01*
X47858853Y-43068436D01*
X47907111Y-43023021D01*
X47958872Y-42996493D01*
X48022172Y-42985379D01*
X48053039Y-42984471D01*
X48134739Y-42994148D01*
G36*
X49316301Y-43001614D02*
X49328832Y-43007514D01*
X49372201Y-43039283D01*
X49413210Y-43085646D01*
X49443832Y-43136696D01*
X49452541Y-43160166D01*
X49460488Y-43202091D01*
X49465226Y-43252757D01*
X49465801Y-43273679D01*
X49465871Y-43339693D01*
X49085917Y-43339693D01*
X49094017Y-43374273D01*
X49113896Y-43415170D01*
X49148653Y-43450514D01*
X49190002Y-43473282D01*
X49216351Y-43478010D01*
X49252084Y-43472273D01*
X49294718Y-43457882D01*
X49309201Y-43451262D01*
X49362760Y-43424513D01*
X49408467Y-43459376D01*
X49434842Y-43482955D01*
X49448876Y-43502417D01*
X49449586Y-43508129D01*
X49437049Y-43521973D01*
X49409572Y-43543012D01*
X49384634Y-43559425D01*
X49317336Y-43588930D01*
X49241890Y-43602284D01*
X49167112Y-43598812D01*
X49107505Y-43580663D01*
X49046059Y-43541784D01*
X49002392Y-43490595D01*
X48975074Y-43424367D01*
X48962678Y-43340371D01*
X48961579Y-43301936D01*
X48965978Y-43213861D01*
X48966518Y-43211299D01*
X49092418Y-43211299D01*
X49095885Y-43219558D01*
X49110137Y-43224113D01*
X49139530Y-43226065D01*
X49188425Y-43226517D01*
X49207252Y-43226525D01*
X49264533Y-43225843D01*
X49300859Y-43223364D01*
X49320396Y-43218443D01*
X49327310Y-43210434D01*
X49327555Y-43207862D01*
X49319664Y-43187423D01*
X49299915Y-43158789D01*
X49291425Y-43148763D01*
X49259906Y-43120408D01*
X49227051Y-43109259D01*
X49209349Y-43108327D01*
X49161461Y-43119981D01*
X49121301Y-43151285D01*
X49095827Y-43196752D01*
X49095375Y-43198233D01*
X49092418Y-43211299D01*
X48966518Y-43211299D01*
X48980608Y-43144510D01*
X49006962Y-43089025D01*
X49039193Y-43049639D01*
X49098783Y-43006931D01*
X49168832Y-42984109D01*
X49243339Y-42982046D01*
X49316301Y-43001614D01*
X49316301Y-43001614D01*
G37*
X49316301Y-43001614D02*
X49328832Y-43007514D01*
X49372201Y-43039283D01*
X49413210Y-43085646D01*
X49443832Y-43136696D01*
X49452541Y-43160166D01*
X49460488Y-43202091D01*
X49465226Y-43252757D01*
X49465801Y-43273679D01*
X49465871Y-43339693D01*
X49085917Y-43339693D01*
X49094017Y-43374273D01*
X49113896Y-43415170D01*
X49148653Y-43450514D01*
X49190002Y-43473282D01*
X49216351Y-43478010D01*
X49252084Y-43472273D01*
X49294718Y-43457882D01*
X49309201Y-43451262D01*
X49362760Y-43424513D01*
X49408467Y-43459376D01*
X49434842Y-43482955D01*
X49448876Y-43502417D01*
X49449586Y-43508129D01*
X49437049Y-43521973D01*
X49409572Y-43543012D01*
X49384634Y-43559425D01*
X49317336Y-43588930D01*
X49241890Y-43602284D01*
X49167112Y-43598812D01*
X49107505Y-43580663D01*
X49046059Y-43541784D01*
X49002392Y-43490595D01*
X48975074Y-43424367D01*
X48962678Y-43340371D01*
X48961579Y-43301936D01*
X48965978Y-43213861D01*
X48966518Y-43211299D01*
X49092418Y-43211299D01*
X49095885Y-43219558D01*
X49110137Y-43224113D01*
X49139530Y-43226065D01*
X49188425Y-43226517D01*
X49207252Y-43226525D01*
X49264533Y-43225843D01*
X49300859Y-43223364D01*
X49320396Y-43218443D01*
X49327310Y-43210434D01*
X49327555Y-43207862D01*
X49319664Y-43187423D01*
X49299915Y-43158789D01*
X49291425Y-43148763D01*
X49259906Y-43120408D01*
X49227051Y-43109259D01*
X49209349Y-43108327D01*
X49161461Y-43119981D01*
X49121301Y-43151285D01*
X49095827Y-43196752D01*
X49095375Y-43198233D01*
X49092418Y-43211299D01*
X48966518Y-43211299D01*
X48980608Y-43144510D01*
X49006962Y-43089025D01*
X49039193Y-43049639D01*
X49098783Y-43006931D01*
X49168832Y-42984109D01*
X49243339Y-42982046D01*
X49316301Y-43001614D01*
G36*
X50687017Y-42985452D02*
X50734634Y-42994482D01*
X50784034Y-43013370D01*
X50789312Y-43015777D01*
X50826774Y-43035476D01*
X50852717Y-43053781D01*
X50861103Y-43065508D01*
X50853117Y-43084632D01*
X50833720Y-43112850D01*
X50825110Y-43123384D01*
X50789628Y-43164847D01*
X50743885Y-43137858D01*
X50700350Y-43119878D01*
X50650050Y-43110267D01*
X50601812Y-43109660D01*
X50564467Y-43118691D01*
X50555505Y-43124327D01*
X50538437Y-43150171D01*
X50536363Y-43179941D01*
X50549134Y-43203197D01*
X50556688Y-43207708D01*
X50579325Y-43213309D01*
X50619115Y-43219892D01*
X50668166Y-43226183D01*
X50677215Y-43227170D01*
X50755996Y-43240798D01*
X50813136Y-43263946D01*
X50851030Y-43298752D01*
X50872079Y-43347354D01*
X50878635Y-43406718D01*
X50869577Y-43474198D01*
X50840164Y-43527188D01*
X50790278Y-43565783D01*
X50719800Y-43590081D01*
X50641565Y-43599667D01*
X50577766Y-43599552D01*
X50526016Y-43590845D01*
X50490673Y-43578825D01*
X50446017Y-43557880D01*
X50404747Y-43533574D01*
X50390079Y-43522876D01*
X50352357Y-43492084D01*
X50397852Y-43446049D01*
X50443347Y-43400013D01*
X50495072Y-43434243D01*
X50546952Y-43459952D01*
X50602351Y-43473399D01*
X50655605Y-43474818D01*
X50701049Y-43464443D01*
X50733016Y-43442507D01*
X50743338Y-43423998D01*
X50741789Y-43394314D01*
X50716140Y-43371615D01*
X50666460Y-43355940D01*
X50612031Y-43348695D01*
X50528264Y-43334873D01*
X50466033Y-43308796D01*
X50424507Y-43269699D01*
X50402853Y-43216820D01*
X50399853Y-43154126D01*
X50414671Y-43088642D01*
X50448454Y-43039144D01*
X50501505Y-43005408D01*
X50574126Y-42987207D01*
X50627928Y-42983639D01*
X50687017Y-42985452D01*
X50687017Y-42985452D01*
G37*
X50687017Y-42985452D02*
X50734634Y-42994482D01*
X50784034Y-43013370D01*
X50789312Y-43015777D01*
X50826774Y-43035476D01*
X50852717Y-43053781D01*
X50861103Y-43065508D01*
X50853117Y-43084632D01*
X50833720Y-43112850D01*
X50825110Y-43123384D01*
X50789628Y-43164847D01*
X50743885Y-43137858D01*
X50700350Y-43119878D01*
X50650050Y-43110267D01*
X50601812Y-43109660D01*
X50564467Y-43118691D01*
X50555505Y-43124327D01*
X50538437Y-43150171D01*
X50536363Y-43179941D01*
X50549134Y-43203197D01*
X50556688Y-43207708D01*
X50579325Y-43213309D01*
X50619115Y-43219892D01*
X50668166Y-43226183D01*
X50677215Y-43227170D01*
X50755996Y-43240798D01*
X50813136Y-43263946D01*
X50851030Y-43298752D01*
X50872079Y-43347354D01*
X50878635Y-43406718D01*
X50869577Y-43474198D01*
X50840164Y-43527188D01*
X50790278Y-43565783D01*
X50719800Y-43590081D01*
X50641565Y-43599667D01*
X50577766Y-43599552D01*
X50526016Y-43590845D01*
X50490673Y-43578825D01*
X50446017Y-43557880D01*
X50404747Y-43533574D01*
X50390079Y-43522876D01*
X50352357Y-43492084D01*
X50397852Y-43446049D01*
X50443347Y-43400013D01*
X50495072Y-43434243D01*
X50546952Y-43459952D01*
X50602351Y-43473399D01*
X50655605Y-43474818D01*
X50701049Y-43464443D01*
X50733016Y-43442507D01*
X50743338Y-43423998D01*
X50741789Y-43394314D01*
X50716140Y-43371615D01*
X50666460Y-43355940D01*
X50612031Y-43348695D01*
X50528264Y-43334873D01*
X50466033Y-43308796D01*
X50424507Y-43269699D01*
X50402853Y-43216820D01*
X50399853Y-43154126D01*
X50414671Y-43088642D01*
X50448454Y-43039144D01*
X50501505Y-43005408D01*
X50574126Y-42987207D01*
X50627928Y-42983639D01*
X50687017Y-42985452D01*
G36*
X51283762Y-42995055D02*
X51347363Y-43029692D01*
X51397123Y-43084372D01*
X51420568Y-43128842D01*
X51430634Y-43168121D01*
X51437156Y-43224116D01*
X51439951Y-43288621D01*
X51438836Y-43353429D01*
X51433626Y-43410334D01*
X51427541Y-43440727D01*
X51407014Y-43482306D01*
X51371463Y-43526468D01*
X51328619Y-43565087D01*
X51286211Y-43590034D01*
X51285177Y-43590430D01*
X51232553Y-43601331D01*
X51170188Y-43601601D01*
X51110924Y-43591676D01*
X51088040Y-43583722D01*
X51029102Y-43550300D01*
X50986890Y-43506511D01*
X50959156Y-43448538D01*
X50943651Y-43372565D01*
X50940143Y-43332771D01*
X50940590Y-43282766D01*
X51075376Y-43282766D01*
X51079917Y-43355732D01*
X51092986Y-43411334D01*
X51113756Y-43446861D01*
X51128552Y-43457020D01*
X51166464Y-43464104D01*
X51211527Y-43462007D01*
X51250487Y-43451812D01*
X51260704Y-43446204D01*
X51287659Y-43413538D01*
X51305451Y-43363545D01*
X51313024Y-43302705D01*
X51309325Y-43237497D01*
X51301057Y-43198253D01*
X51277320Y-43152805D01*
X51239849Y-43124396D01*
X51194720Y-43114573D01*
X51148011Y-43124887D01*
X51112132Y-43150112D01*
X51093277Y-43170925D01*
X51082272Y-43191439D01*
X51077026Y-43219203D01*
X51075449Y-43261762D01*
X51075376Y-43282766D01*
X50940590Y-43282766D01*
X50941094Y-43226580D01*
X50958388Y-43139501D01*
X50992029Y-43071530D01*
X51042018Y-43022664D01*
X51108356Y-42992899D01*
X51122601Y-42989448D01*
X51208210Y-42981345D01*
X51283762Y-42995055D01*
X51283762Y-42995055D01*
G37*
X51283762Y-42995055D02*
X51347363Y-43029692D01*
X51397123Y-43084372D01*
X51420568Y-43128842D01*
X51430634Y-43168121D01*
X51437156Y-43224116D01*
X51439951Y-43288621D01*
X51438836Y-43353429D01*
X51433626Y-43410334D01*
X51427541Y-43440727D01*
X51407014Y-43482306D01*
X51371463Y-43526468D01*
X51328619Y-43565087D01*
X51286211Y-43590034D01*
X51285177Y-43590430D01*
X51232553Y-43601331D01*
X51170188Y-43601601D01*
X51110924Y-43591676D01*
X51088040Y-43583722D01*
X51029102Y-43550300D01*
X50986890Y-43506511D01*
X50959156Y-43448538D01*
X50943651Y-43372565D01*
X50940143Y-43332771D01*
X50940590Y-43282766D01*
X51075376Y-43282766D01*
X51079917Y-43355732D01*
X51092986Y-43411334D01*
X51113756Y-43446861D01*
X51128552Y-43457020D01*
X51166464Y-43464104D01*
X51211527Y-43462007D01*
X51250487Y-43451812D01*
X51260704Y-43446204D01*
X51287659Y-43413538D01*
X51305451Y-43363545D01*
X51313024Y-43302705D01*
X51309325Y-43237497D01*
X51301057Y-43198253D01*
X51277320Y-43152805D01*
X51239849Y-43124396D01*
X51194720Y-43114573D01*
X51148011Y-43124887D01*
X51112132Y-43150112D01*
X51093277Y-43170925D01*
X51082272Y-43191439D01*
X51077026Y-43219203D01*
X51075449Y-43261762D01*
X51075376Y-43282766D01*
X50940590Y-43282766D01*
X50941094Y-43226580D01*
X50958388Y-43139501D01*
X50992029Y-43071530D01*
X51042018Y-43022664D01*
X51108356Y-42992899D01*
X51122601Y-42989448D01*
X51208210Y-42981345D01*
X51283762Y-42995055D01*
G36*
X51666367Y-43183342D02*
X51667555Y-43275563D01*
X51671897Y-43345610D01*
X51680558Y-43396381D01*
X51694704Y-43430772D01*
X51715500Y-43451679D01*
X51744110Y-43462000D01*
X51779535Y-43464636D01*
X51816636Y-43461682D01*
X51844818Y-43450889D01*
X51865243Y-43429360D01*
X51879079Y-43394199D01*
X51887491Y-43342510D01*
X51891643Y-43271394D01*
X51892703Y-43183342D01*
X51892703Y-42987614D01*
X52031020Y-42987614D01*
X52031020Y-43591179D01*
X51961862Y-43591179D01*
X51920170Y-43589489D01*
X51898701Y-43583556D01*
X51892703Y-43572293D01*
X51889091Y-43562261D01*
X51874714Y-43564383D01*
X51845736Y-43578580D01*
X51779319Y-43600480D01*
X51708875Y-43598928D01*
X51641377Y-43575147D01*
X51609233Y-43556362D01*
X51584715Y-43536022D01*
X51566804Y-43510573D01*
X51554479Y-43476458D01*
X51546723Y-43430121D01*
X51542516Y-43368007D01*
X51540840Y-43286561D01*
X51540624Y-43223578D01*
X51540624Y-42987614D01*
X51666367Y-42987614D01*
X51666367Y-43183342D01*
X51666367Y-43183342D01*
G37*
X51666367Y-43183342D02*
X51667555Y-43275563D01*
X51671897Y-43345610D01*
X51680558Y-43396381D01*
X51694704Y-43430772D01*
X51715500Y-43451679D01*
X51744110Y-43462000D01*
X51779535Y-43464636D01*
X51816636Y-43461682D01*
X51844818Y-43450889D01*
X51865243Y-43429360D01*
X51879079Y-43394199D01*
X51887491Y-43342510D01*
X51891643Y-43271394D01*
X51892703Y-43183342D01*
X51892703Y-42987614D01*
X52031020Y-42987614D01*
X52031020Y-43591179D01*
X51961862Y-43591179D01*
X51920170Y-43589489D01*
X51898701Y-43583556D01*
X51892703Y-43572293D01*
X51889091Y-43562261D01*
X51874714Y-43564383D01*
X51845736Y-43578580D01*
X51779319Y-43600480D01*
X51708875Y-43598928D01*
X51641377Y-43575147D01*
X51609233Y-43556362D01*
X51584715Y-43536022D01*
X51566804Y-43510573D01*
X51554479Y-43476458D01*
X51546723Y-43430121D01*
X51542516Y-43368007D01*
X51540840Y-43286561D01*
X51540624Y-43223578D01*
X51540624Y-42987614D01*
X51666367Y-42987614D01*
X51666367Y-43183342D01*
G36*
X52890226Y-42992880D02*
X52963080Y-43023830D01*
X52986027Y-43038895D01*
X53015354Y-43062048D01*
X53033764Y-43080253D01*
X53036961Y-43086183D01*
X53027935Y-43099340D01*
X53004837Y-43121667D01*
X52986344Y-43137250D01*
X52935728Y-43177926D01*
X52895760Y-43144295D01*
X52864874Y-43122584D01*
X52834759Y-43115090D01*
X52800292Y-43116920D01*
X52745561Y-43130528D01*
X52707886Y-43158772D01*
X52684991Y-43204433D01*
X52674597Y-43270289D01*
X52674595Y-43270331D01*
X52675494Y-43343939D01*
X52689463Y-43397946D01*
X52717328Y-43434716D01*
X52736325Y-43447168D01*
X52786776Y-43462673D01*
X52840663Y-43462683D01*
X52887546Y-43447638D01*
X52898644Y-43440287D01*
X52926476Y-43421511D01*
X52948236Y-43418434D01*
X52971704Y-43432409D01*
X52997649Y-43457510D01*
X53038716Y-43499880D01*
X52993121Y-43537464D01*
X52922674Y-43579882D01*
X52843233Y-43600785D01*
X52760215Y-43599272D01*
X52705694Y-43585411D01*
X52641970Y-43551135D01*
X52591005Y-43497212D01*
X52567851Y-43459149D01*
X52549099Y-43404536D01*
X52539715Y-43335369D01*
X52539643Y-43260407D01*
X52548824Y-43188409D01*
X52567199Y-43128137D01*
X52570093Y-43121958D01*
X52612952Y-43061351D01*
X52670979Y-43017224D01*
X52739591Y-42990493D01*
X52814201Y-42982073D01*
X52890226Y-42992880D01*
X52890226Y-42992880D01*
G37*
X52890226Y-42992880D02*
X52963080Y-43023830D01*
X52986027Y-43038895D01*
X53015354Y-43062048D01*
X53033764Y-43080253D01*
X53036961Y-43086183D01*
X53027935Y-43099340D01*
X53004837Y-43121667D01*
X52986344Y-43137250D01*
X52935728Y-43177926D01*
X52895760Y-43144295D01*
X52864874Y-43122584D01*
X52834759Y-43115090D01*
X52800292Y-43116920D01*
X52745561Y-43130528D01*
X52707886Y-43158772D01*
X52684991Y-43204433D01*
X52674597Y-43270289D01*
X52674595Y-43270331D01*
X52675494Y-43343939D01*
X52689463Y-43397946D01*
X52717328Y-43434716D01*
X52736325Y-43447168D01*
X52786776Y-43462673D01*
X52840663Y-43462683D01*
X52887546Y-43447638D01*
X52898644Y-43440287D01*
X52926476Y-43421511D01*
X52948236Y-43418434D01*
X52971704Y-43432409D01*
X52997649Y-43457510D01*
X53038716Y-43499880D01*
X52993121Y-43537464D01*
X52922674Y-43579882D01*
X52843233Y-43600785D01*
X52760215Y-43599272D01*
X52705694Y-43585411D01*
X52641970Y-43551135D01*
X52591005Y-43497212D01*
X52567851Y-43459149D01*
X52549099Y-43404536D01*
X52539715Y-43335369D01*
X52539643Y-43260407D01*
X52548824Y-43188409D01*
X52567199Y-43128137D01*
X52570093Y-43121958D01*
X52612952Y-43061351D01*
X52670979Y-43017224D01*
X52739591Y-42990493D01*
X52814201Y-42982073D01*
X52890226Y-42992880D01*
G36*
X53350898Y-42985457D02*
X53383096Y-42993279D01*
X53444825Y-43021921D01*
X53497610Y-43065667D01*
X53534141Y-43118117D01*
X53539160Y-43129893D01*
X53546045Y-43160740D01*
X53550864Y-43206371D01*
X53552505Y-43252492D01*
X53552505Y-43339693D01*
X53370178Y-43339693D01*
X53294979Y-43339978D01*
X53242003Y-43341704D01*
X53208325Y-43346181D01*
X53191020Y-43354720D01*
X53187163Y-43368630D01*
X53193829Y-43389222D01*
X53205770Y-43413315D01*
X53239080Y-43453525D01*
X53285368Y-43473558D01*
X53341944Y-43472905D01*
X53406031Y-43451101D01*
X53461417Y-43424193D01*
X53507375Y-43460532D01*
X53553333Y-43496872D01*
X53510096Y-43536819D01*
X53452374Y-43574563D01*
X53381386Y-43597320D01*
X53305029Y-43603688D01*
X53231199Y-43592268D01*
X53219287Y-43588393D01*
X53154399Y-43554506D01*
X53106130Y-43503986D01*
X53073465Y-43435325D01*
X53055385Y-43347014D01*
X53055175Y-43345121D01*
X53053556Y-43248878D01*
X53060100Y-43214542D01*
X53187852Y-43214542D01*
X53199584Y-43219822D01*
X53231438Y-43223867D01*
X53278397Y-43226176D01*
X53308154Y-43226525D01*
X53363648Y-43226306D01*
X53398346Y-43224916D01*
X53416601Y-43221251D01*
X53422766Y-43214210D01*
X53421195Y-43202690D01*
X53419878Y-43198233D01*
X53397382Y-43156355D01*
X53362003Y-43122604D01*
X53330780Y-43107773D01*
X53289301Y-43108668D01*
X53247269Y-43127164D01*
X53212012Y-43157786D01*
X53190854Y-43195062D01*
X53187852Y-43214542D01*
X53060100Y-43214542D01*
X53069690Y-43164229D01*
X53101698Y-43093191D01*
X53147701Y-43037779D01*
X53205821Y-43000009D01*
X53274180Y-42981896D01*
X53350898Y-42985457D01*
X53350898Y-42985457D01*
G37*
X53350898Y-42985457D02*
X53383096Y-42993279D01*
X53444825Y-43021921D01*
X53497610Y-43065667D01*
X53534141Y-43118117D01*
X53539160Y-43129893D01*
X53546045Y-43160740D01*
X53550864Y-43206371D01*
X53552505Y-43252492D01*
X53552505Y-43339693D01*
X53370178Y-43339693D01*
X53294979Y-43339978D01*
X53242003Y-43341704D01*
X53208325Y-43346181D01*
X53191020Y-43354720D01*
X53187163Y-43368630D01*
X53193829Y-43389222D01*
X53205770Y-43413315D01*
X53239080Y-43453525D01*
X53285368Y-43473558D01*
X53341944Y-43472905D01*
X53406031Y-43451101D01*
X53461417Y-43424193D01*
X53507375Y-43460532D01*
X53553333Y-43496872D01*
X53510096Y-43536819D01*
X53452374Y-43574563D01*
X53381386Y-43597320D01*
X53305029Y-43603688D01*
X53231199Y-43592268D01*
X53219287Y-43588393D01*
X53154399Y-43554506D01*
X53106130Y-43503986D01*
X53073465Y-43435325D01*
X53055385Y-43347014D01*
X53055175Y-43345121D01*
X53053556Y-43248878D01*
X53060100Y-43214542D01*
X53187852Y-43214542D01*
X53199584Y-43219822D01*
X53231438Y-43223867D01*
X53278397Y-43226176D01*
X53308154Y-43226525D01*
X53363648Y-43226306D01*
X53398346Y-43224916D01*
X53416601Y-43221251D01*
X53422766Y-43214210D01*
X53421195Y-43202690D01*
X53419878Y-43198233D01*
X53397382Y-43156355D01*
X53362003Y-43122604D01*
X53330780Y-43107773D01*
X53289301Y-43108668D01*
X53247269Y-43127164D01*
X53212012Y-43157786D01*
X53190854Y-43195062D01*
X53187852Y-43214542D01*
X53060100Y-43214542D01*
X53069690Y-43164229D01*
X53101698Y-43093191D01*
X53147701Y-43037779D01*
X53205821Y-43000009D01*
X53274180Y-42981896D01*
X53350898Y-42985457D01*
G36*
X49918988Y-42998002D02*
X49950283Y-43012950D01*
X49980591Y-43034541D01*
X50003682Y-43059391D01*
X50020500Y-43091087D01*
X50031994Y-43133214D01*
X50039109Y-43189358D01*
X50042793Y-43263106D01*
X50043992Y-43358044D01*
X50044011Y-43367985D01*
X50044287Y-43591179D01*
X49905970Y-43591179D01*
X49905970Y-43385418D01*
X49905872Y-43309189D01*
X49905191Y-43253939D01*
X49903349Y-43215501D01*
X49899767Y-43189706D01*
X49893868Y-43172384D01*
X49885073Y-43159368D01*
X49872820Y-43146507D01*
X49829953Y-43118873D01*
X49783157Y-43113745D01*
X49738576Y-43131217D01*
X49723072Y-43144221D01*
X49711690Y-43156447D01*
X49703519Y-43169540D01*
X49698026Y-43187615D01*
X49694680Y-43214787D01*
X49692949Y-43255170D01*
X49692303Y-43312879D01*
X49692208Y-43383132D01*
X49692208Y-43591179D01*
X49553891Y-43591179D01*
X49553891Y-42987614D01*
X49623050Y-42987614D01*
X49664572Y-42989256D01*
X49685994Y-42995087D01*
X49692205Y-43006461D01*
X49692208Y-43006798D01*
X49695090Y-43017938D01*
X49707801Y-43016674D01*
X49733074Y-43004434D01*
X49790395Y-42986424D01*
X49855963Y-42984421D01*
X49918988Y-42998002D01*
X49918988Y-42998002D01*
G37*
X49918988Y-42998002D02*
X49950283Y-43012950D01*
X49980591Y-43034541D01*
X50003682Y-43059391D01*
X50020500Y-43091087D01*
X50031994Y-43133214D01*
X50039109Y-43189358D01*
X50042793Y-43263106D01*
X50043992Y-43358044D01*
X50044011Y-43367985D01*
X50044287Y-43591179D01*
X49905970Y-43591179D01*
X49905970Y-43385418D01*
X49905872Y-43309189D01*
X49905191Y-43253939D01*
X49903349Y-43215501D01*
X49899767Y-43189706D01*
X49893868Y-43172384D01*
X49885073Y-43159368D01*
X49872820Y-43146507D01*
X49829953Y-43118873D01*
X49783157Y-43113745D01*
X49738576Y-43131217D01*
X49723072Y-43144221D01*
X49711690Y-43156447D01*
X49703519Y-43169540D01*
X49698026Y-43187615D01*
X49694680Y-43214787D01*
X49692949Y-43255170D01*
X49692303Y-43312879D01*
X49692208Y-43383132D01*
X49692208Y-43591179D01*
X49553891Y-43591179D01*
X49553891Y-42987614D01*
X49623050Y-42987614D01*
X49664572Y-42989256D01*
X49685994Y-42995087D01*
X49692205Y-43006461D01*
X49692208Y-43006798D01*
X49695090Y-43017938D01*
X49707801Y-43016674D01*
X49733074Y-43004434D01*
X49790395Y-42986424D01*
X49855963Y-42984421D01*
X49918988Y-42998002D01*
G36*
X52472460Y-42987030D02*
X52515711Y-43000245D01*
X52543558Y-43016941D01*
X52552629Y-43030145D01*
X52550132Y-43045797D01*
X52533931Y-43070385D01*
X52520232Y-43087800D01*
X52491992Y-43119283D01*
X52470775Y-43132529D01*
X52452688Y-43131664D01*
X52399035Y-43118010D01*
X52359630Y-43118630D01*
X52327632Y-43134104D01*
X52316890Y-43143161D01*
X52282505Y-43175027D01*
X52282505Y-43591179D01*
X52144188Y-43591179D01*
X52144188Y-42987614D01*
X52213347Y-42987614D01*
X52254869Y-42989256D01*
X52276291Y-42995087D01*
X52282502Y-43006461D01*
X52282505Y-43006798D01*
X52285439Y-43018713D01*
X52298704Y-43017159D01*
X52317084Y-43008563D01*
X52355046Y-42992568D01*
X52385872Y-42982945D01*
X52425536Y-42980478D01*
X52472460Y-42987030D01*
X52472460Y-42987030D01*
G37*
X52472460Y-42987030D02*
X52515711Y-43000245D01*
X52543558Y-43016941D01*
X52552629Y-43030145D01*
X52550132Y-43045797D01*
X52533931Y-43070385D01*
X52520232Y-43087800D01*
X52491992Y-43119283D01*
X52470775Y-43132529D01*
X52452688Y-43131664D01*
X52399035Y-43118010D01*
X52359630Y-43118630D01*
X52327632Y-43134104D01*
X52316890Y-43143161D01*
X52282505Y-43175027D01*
X52282505Y-43591179D01*
X52144188Y-43591179D01*
X52144188Y-42987614D01*
X52213347Y-42987614D01*
X52254869Y-42989256D01*
X52276291Y-42995087D01*
X52282502Y-43006461D01*
X52282505Y-43006798D01*
X52285439Y-43018713D01*
X52298704Y-43017159D01*
X52317084Y-43008563D01*
X52355046Y-42992568D01*
X52385872Y-42982945D01*
X52425536Y-42980478D01*
X52472460Y-42987030D01*
G36*
X51049964Y-38819018D02*
X51106812Y-39120570D01*
X51526338Y-39293512D01*
X51777984Y-39122395D01*
X51848458Y-39074750D01*
X51912163Y-39032210D01*
X51966126Y-38996715D01*
X52007373Y-38970210D01*
X52032934Y-38954636D01*
X52039895Y-38951278D01*
X52052435Y-38959914D01*
X52079231Y-38983792D01*
X52117280Y-39019859D01*
X52163579Y-39065067D01*
X52215123Y-39116364D01*
X52268909Y-39170701D01*
X52321935Y-39225028D01*
X52371195Y-39276295D01*
X52413687Y-39321451D01*
X52446407Y-39357446D01*
X52466351Y-39381230D01*
X52471119Y-39389190D01*
X52464257Y-39403865D01*
X52445020Y-39436014D01*
X52415430Y-39482492D01*
X52377510Y-39540156D01*
X52333282Y-39605860D01*
X52307654Y-39643336D01*
X52260941Y-39711768D01*
X52219432Y-39773520D01*
X52185140Y-39825519D01*
X52160080Y-39864692D01*
X52146264Y-39887965D01*
X52144188Y-39892855D01*
X52148895Y-39906755D01*
X52161723Y-39939150D01*
X52180738Y-39985485D01*
X52204003Y-40041206D01*
X52229584Y-40101758D01*
X52255545Y-40162586D01*
X52279950Y-40219136D01*
X52300863Y-40266852D01*
X52316349Y-40301181D01*
X52324472Y-40317568D01*
X52324952Y-40318212D01*
X52337707Y-40321341D01*
X52371677Y-40328321D01*
X52423340Y-40338467D01*
X52489176Y-40351092D01*
X52565664Y-40365509D01*
X52610290Y-40373823D01*
X52692021Y-40389384D01*
X52765843Y-40404192D01*
X52828021Y-40417436D01*
X52874822Y-40428305D01*
X52902509Y-40435989D01*
X52908074Y-40438427D01*
X52913526Y-40454930D01*
X52917924Y-40492200D01*
X52921272Y-40545880D01*
X52923574Y-40611612D01*
X52924832Y-40685037D01*
X52925048Y-40761796D01*
X52924227Y-40837532D01*
X52922371Y-40907886D01*
X52919482Y-40968500D01*
X52915565Y-41015016D01*
X52910622Y-41043075D01*
X52907657Y-41048916D01*
X52889934Y-41055917D01*
X52852381Y-41065927D01*
X52799964Y-41077769D01*
X52737652Y-41090267D01*
X52715900Y-41094310D01*
X52611024Y-41113520D01*
X52528180Y-41128991D01*
X52464630Y-41141337D01*
X52417637Y-41151173D01*
X52384463Y-41159114D01*
X52362371Y-41165776D01*
X52348624Y-41171773D01*
X52340484Y-41177719D01*
X52339345Y-41178894D01*
X52327977Y-41197826D01*
X52310635Y-41234669D01*
X52289050Y-41284913D01*
X52264954Y-41344046D01*
X52240079Y-41407556D01*
X52216157Y-41470932D01*
X52194919Y-41529662D01*
X52178097Y-41579235D01*
X52167422Y-41615139D01*
X52164627Y-41632862D01*
X52164860Y-41633483D01*
X52174331Y-41647970D01*
X52195818Y-41679844D01*
X52227063Y-41725789D01*
X52265807Y-41782485D01*
X52309793Y-41846617D01*
X52322319Y-41864842D01*
X52366984Y-41930914D01*
X52406288Y-41991200D01*
X52438088Y-42042235D01*
X52460245Y-42080560D01*
X52470617Y-42102711D01*
X52471119Y-42105432D01*
X52462405Y-42119736D01*
X52438325Y-42148072D01*
X52401976Y-42187396D01*
X52356453Y-42234661D01*
X52304852Y-42286823D01*
X52250267Y-42340835D01*
X52195794Y-42393653D01*
X52144529Y-42442231D01*
X52099567Y-42483523D01*
X52064004Y-42514485D01*
X52040935Y-42532070D01*
X52034554Y-42534941D01*
X52019699Y-42528178D01*
X51989286Y-42509939D01*
X51948268Y-42483297D01*
X51916709Y-42461852D01*
X51859525Y-42422503D01*
X51791806Y-42376171D01*
X51723880Y-42329913D01*
X51687361Y-42305155D01*
X51563752Y-42221547D01*
X51459991Y-42277650D01*
X51412720Y-42302228D01*
X51372523Y-42321331D01*
X51345326Y-42332227D01*
X51338402Y-42333743D01*
X51330077Y-42322549D01*
X51313654Y-42290917D01*
X51290357Y-42241765D01*
X51261414Y-42178010D01*
X51228050Y-42102571D01*
X51191491Y-42018364D01*
X51152964Y-41928308D01*
X51113694Y-41835321D01*
X51074908Y-41742320D01*
X51037830Y-41652223D01*
X51003689Y-41567948D01*
X50973708Y-41492413D01*
X50949116Y-41428534D01*
X50931136Y-41379231D01*
X50920997Y-41347421D01*
X50919366Y-41336496D01*
X50932291Y-41322561D01*
X50960589Y-41299940D01*
X50998346Y-41273333D01*
X51001515Y-41271228D01*
X51099100Y-41193114D01*
X51177786Y-41101982D01*
X51236891Y-41000745D01*
X51275732Y-40892318D01*
X51293628Y-40779614D01*
X51289897Y-40665548D01*
X51263857Y-40553034D01*
X51214825Y-40444985D01*
X51200400Y-40421345D01*
X51125369Y-40325887D01*
X51036730Y-40249232D01*
X50937549Y-40191780D01*
X50830895Y-40153929D01*
X50719836Y-40136078D01*
X50607439Y-40138625D01*
X50496773Y-40161970D01*
X50390906Y-40206510D01*
X50292905Y-40272645D01*
X50262590Y-40299487D01*
X50185438Y-40383512D01*
X50129218Y-40471966D01*
X50090653Y-40571115D01*
X50069174Y-40669303D01*
X50063872Y-40779697D01*
X50081552Y-40890640D01*
X50120419Y-40998381D01*
X50178677Y-41099169D01*
X50254531Y-41189256D01*
X50346183Y-41264892D01*
X50358228Y-41272864D01*
X50396389Y-41298974D01*
X50425399Y-41321595D01*
X50439268Y-41336039D01*
X50439469Y-41336496D01*
X50436492Y-41352121D01*
X50424689Y-41387582D01*
X50405286Y-41439962D01*
X50379512Y-41506345D01*
X50348591Y-41583814D01*
X50313751Y-41669450D01*
X50276217Y-41760337D01*
X50237217Y-41853559D01*
X50197977Y-41946197D01*
X50159724Y-42035335D01*
X50123683Y-42118055D01*
X50091083Y-42191441D01*
X50063148Y-42252575D01*
X50041105Y-42298541D01*
X50026182Y-42326421D01*
X50020172Y-42333743D01*
X50001809Y-42328041D01*
X49967448Y-42312749D01*
X49923016Y-42290599D01*
X49898583Y-42277650D01*
X49794822Y-42221547D01*
X49671213Y-42305155D01*
X49608114Y-42347987D01*
X49539030Y-42395122D01*
X49474293Y-42439503D01*
X49441866Y-42461852D01*
X49396259Y-42492477D01*
X49357640Y-42516747D01*
X49331048Y-42531587D01*
X49322410Y-42534724D01*
X49309839Y-42526261D01*
X49282016Y-42502636D01*
X49241639Y-42466302D01*
X49191405Y-42419711D01*
X49134012Y-42365317D01*
X49097714Y-42330392D01*
X49034210Y-42267996D01*
X48979327Y-42212188D01*
X48935286Y-42165354D01*
X48904305Y-42129882D01*
X48888602Y-42108161D01*
X48887095Y-42103752D01*
X48894086Y-42086985D01*
X48913406Y-42053082D01*
X48942909Y-42005476D01*
X48980455Y-41947599D01*
X49023900Y-41882884D01*
X49036255Y-41864842D01*
X49081273Y-41799267D01*
X49121660Y-41740228D01*
X49155160Y-41691042D01*
X49179514Y-41655028D01*
X49192464Y-41635502D01*
X49193715Y-41633483D01*
X49191844Y-41617922D01*
X49181913Y-41583709D01*
X49165653Y-41535355D01*
X49144795Y-41477371D01*
X49121073Y-41414270D01*
X49096216Y-41350563D01*
X49071958Y-41290761D01*
X49050029Y-41239376D01*
X49032162Y-41200919D01*
X49020087Y-41179902D01*
X49019229Y-41178894D01*
X49011846Y-41172888D01*
X48999375Y-41166948D01*
X48979080Y-41160460D01*
X48948222Y-41152809D01*
X48904066Y-41143380D01*
X48843874Y-41131559D01*
X48764907Y-41116729D01*
X48664430Y-41098277D01*
X48642675Y-41094310D01*
X48578198Y-41081853D01*
X48521989Y-41069666D01*
X48479013Y-41058926D01*
X48454240Y-41050809D01*
X48450918Y-41048916D01*
X48445444Y-41032138D01*
X48440994Y-40994645D01*
X48437572Y-40940794D01*
X48435181Y-40874944D01*
X48433823Y-40801453D01*
X48433501Y-40724680D01*
X48434219Y-40648983D01*
X48435979Y-40578720D01*
X48438784Y-40518250D01*
X48442638Y-40471930D01*
X48447543Y-40444119D01*
X48450500Y-40438427D01*
X48466963Y-40432686D01*
X48504449Y-40423345D01*
X48559225Y-40411215D01*
X48627555Y-40397107D01*
X48705706Y-40381830D01*
X48748284Y-40373823D01*
X48829071Y-40358721D01*
X48901113Y-40345040D01*
X48960889Y-40333467D01*
X49004879Y-40324687D01*
X49029561Y-40319387D01*
X49033623Y-40318212D01*
X49040489Y-40304965D01*
X49055002Y-40273057D01*
X49075229Y-40227047D01*
X49099234Y-40171492D01*
X49125082Y-40110953D01*
X49150840Y-40049986D01*
X49174573Y-39993151D01*
X49194346Y-39945006D01*
X49208224Y-39910110D01*
X49214274Y-39893021D01*
X49214386Y-39892274D01*
X49207528Y-39878793D01*
X49188302Y-39847770D01*
X49158728Y-39802289D01*
X49120827Y-39745432D01*
X49076620Y-39680283D01*
X49050921Y-39642862D01*
X49004093Y-39574247D01*
X48962501Y-39511952D01*
X48928175Y-39459129D01*
X48903143Y-39418927D01*
X48889435Y-39394500D01*
X48887456Y-39389024D01*
X48895966Y-39376278D01*
X48919493Y-39349063D01*
X48955032Y-39310428D01*
X48999577Y-39263423D01*
X49050123Y-39211095D01*
X49103664Y-39156495D01*
X49157195Y-39102670D01*
X49207711Y-39052670D01*
X49252206Y-39009543D01*
X49287675Y-38976339D01*
X49311113Y-38956106D01*
X49318954Y-38951278D01*
X49331720Y-38958067D01*
X49362256Y-38977142D01*
X49407590Y-39006561D01*
X49464756Y-39044381D01*
X49530784Y-39088661D01*
X49580590Y-39122395D01*
X49832236Y-39293512D01*
X50041999Y-39207041D01*
X50251763Y-39120570D01*
X50308611Y-38819018D01*
X50365460Y-38517466D01*
X50993115Y-38517466D01*
X51049964Y-38819018D01*
X51049964Y-38819018D01*
G37*
X51049964Y-38819018D02*
X51106812Y-39120570D01*
X51526338Y-39293512D01*
X51777984Y-39122395D01*
X51848458Y-39074750D01*
X51912163Y-39032210D01*
X51966126Y-38996715D01*
X52007373Y-38970210D01*
X52032934Y-38954636D01*
X52039895Y-38951278D01*
X52052435Y-38959914D01*
X52079231Y-38983792D01*
X52117280Y-39019859D01*
X52163579Y-39065067D01*
X52215123Y-39116364D01*
X52268909Y-39170701D01*
X52321935Y-39225028D01*
X52371195Y-39276295D01*
X52413687Y-39321451D01*
X52446407Y-39357446D01*
X52466351Y-39381230D01*
X52471119Y-39389190D01*
X52464257Y-39403865D01*
X52445020Y-39436014D01*
X52415430Y-39482492D01*
X52377510Y-39540156D01*
X52333282Y-39605860D01*
X52307654Y-39643336D01*
X52260941Y-39711768D01*
X52219432Y-39773520D01*
X52185140Y-39825519D01*
X52160080Y-39864692D01*
X52146264Y-39887965D01*
X52144188Y-39892855D01*
X52148895Y-39906755D01*
X52161723Y-39939150D01*
X52180738Y-39985485D01*
X52204003Y-40041206D01*
X52229584Y-40101758D01*
X52255545Y-40162586D01*
X52279950Y-40219136D01*
X52300863Y-40266852D01*
X52316349Y-40301181D01*
X52324472Y-40317568D01*
X52324952Y-40318212D01*
X52337707Y-40321341D01*
X52371677Y-40328321D01*
X52423340Y-40338467D01*
X52489176Y-40351092D01*
X52565664Y-40365509D01*
X52610290Y-40373823D01*
X52692021Y-40389384D01*
X52765843Y-40404192D01*
X52828021Y-40417436D01*
X52874822Y-40428305D01*
X52902509Y-40435989D01*
X52908074Y-40438427D01*
X52913526Y-40454930D01*
X52917924Y-40492200D01*
X52921272Y-40545880D01*
X52923574Y-40611612D01*
X52924832Y-40685037D01*
X52925048Y-40761796D01*
X52924227Y-40837532D01*
X52922371Y-40907886D01*
X52919482Y-40968500D01*
X52915565Y-41015016D01*
X52910622Y-41043075D01*
X52907657Y-41048916D01*
X52889934Y-41055917D01*
X52852381Y-41065927D01*
X52799964Y-41077769D01*
X52737652Y-41090267D01*
X52715900Y-41094310D01*
X52611024Y-41113520D01*
X52528180Y-41128991D01*
X52464630Y-41141337D01*
X52417637Y-41151173D01*
X52384463Y-41159114D01*
X52362371Y-41165776D01*
X52348624Y-41171773D01*
X52340484Y-41177719D01*
X52339345Y-41178894D01*
X52327977Y-41197826D01*
X52310635Y-41234669D01*
X52289050Y-41284913D01*
X52264954Y-41344046D01*
X52240079Y-41407556D01*
X52216157Y-41470932D01*
X52194919Y-41529662D01*
X52178097Y-41579235D01*
X52167422Y-41615139D01*
X52164627Y-41632862D01*
X52164860Y-41633483D01*
X52174331Y-41647970D01*
X52195818Y-41679844D01*
X52227063Y-41725789D01*
X52265807Y-41782485D01*
X52309793Y-41846617D01*
X52322319Y-41864842D01*
X52366984Y-41930914D01*
X52406288Y-41991200D01*
X52438088Y-42042235D01*
X52460245Y-42080560D01*
X52470617Y-42102711D01*
X52471119Y-42105432D01*
X52462405Y-42119736D01*
X52438325Y-42148072D01*
X52401976Y-42187396D01*
X52356453Y-42234661D01*
X52304852Y-42286823D01*
X52250267Y-42340835D01*
X52195794Y-42393653D01*
X52144529Y-42442231D01*
X52099567Y-42483523D01*
X52064004Y-42514485D01*
X52040935Y-42532070D01*
X52034554Y-42534941D01*
X52019699Y-42528178D01*
X51989286Y-42509939D01*
X51948268Y-42483297D01*
X51916709Y-42461852D01*
X51859525Y-42422503D01*
X51791806Y-42376171D01*
X51723880Y-42329913D01*
X51687361Y-42305155D01*
X51563752Y-42221547D01*
X51459991Y-42277650D01*
X51412720Y-42302228D01*
X51372523Y-42321331D01*
X51345326Y-42332227D01*
X51338402Y-42333743D01*
X51330077Y-42322549D01*
X51313654Y-42290917D01*
X51290357Y-42241765D01*
X51261414Y-42178010D01*
X51228050Y-42102571D01*
X51191491Y-42018364D01*
X51152964Y-41928308D01*
X51113694Y-41835321D01*
X51074908Y-41742320D01*
X51037830Y-41652223D01*
X51003689Y-41567948D01*
X50973708Y-41492413D01*
X50949116Y-41428534D01*
X50931136Y-41379231D01*
X50920997Y-41347421D01*
X50919366Y-41336496D01*
X50932291Y-41322561D01*
X50960589Y-41299940D01*
X50998346Y-41273333D01*
X51001515Y-41271228D01*
X51099100Y-41193114D01*
X51177786Y-41101982D01*
X51236891Y-41000745D01*
X51275732Y-40892318D01*
X51293628Y-40779614D01*
X51289897Y-40665548D01*
X51263857Y-40553034D01*
X51214825Y-40444985D01*
X51200400Y-40421345D01*
X51125369Y-40325887D01*
X51036730Y-40249232D01*
X50937549Y-40191780D01*
X50830895Y-40153929D01*
X50719836Y-40136078D01*
X50607439Y-40138625D01*
X50496773Y-40161970D01*
X50390906Y-40206510D01*
X50292905Y-40272645D01*
X50262590Y-40299487D01*
X50185438Y-40383512D01*
X50129218Y-40471966D01*
X50090653Y-40571115D01*
X50069174Y-40669303D01*
X50063872Y-40779697D01*
X50081552Y-40890640D01*
X50120419Y-40998381D01*
X50178677Y-41099169D01*
X50254531Y-41189256D01*
X50346183Y-41264892D01*
X50358228Y-41272864D01*
X50396389Y-41298974D01*
X50425399Y-41321595D01*
X50439268Y-41336039D01*
X50439469Y-41336496D01*
X50436492Y-41352121D01*
X50424689Y-41387582D01*
X50405286Y-41439962D01*
X50379512Y-41506345D01*
X50348591Y-41583814D01*
X50313751Y-41669450D01*
X50276217Y-41760337D01*
X50237217Y-41853559D01*
X50197977Y-41946197D01*
X50159724Y-42035335D01*
X50123683Y-42118055D01*
X50091083Y-42191441D01*
X50063148Y-42252575D01*
X50041105Y-42298541D01*
X50026182Y-42326421D01*
X50020172Y-42333743D01*
X50001809Y-42328041D01*
X49967448Y-42312749D01*
X49923016Y-42290599D01*
X49898583Y-42277650D01*
X49794822Y-42221547D01*
X49671213Y-42305155D01*
X49608114Y-42347987D01*
X49539030Y-42395122D01*
X49474293Y-42439503D01*
X49441866Y-42461852D01*
X49396259Y-42492477D01*
X49357640Y-42516747D01*
X49331048Y-42531587D01*
X49322410Y-42534724D01*
X49309839Y-42526261D01*
X49282016Y-42502636D01*
X49241639Y-42466302D01*
X49191405Y-42419711D01*
X49134012Y-42365317D01*
X49097714Y-42330392D01*
X49034210Y-42267996D01*
X48979327Y-42212188D01*
X48935286Y-42165354D01*
X48904305Y-42129882D01*
X48888602Y-42108161D01*
X48887095Y-42103752D01*
X48894086Y-42086985D01*
X48913406Y-42053082D01*
X48942909Y-42005476D01*
X48980455Y-41947599D01*
X49023900Y-41882884D01*
X49036255Y-41864842D01*
X49081273Y-41799267D01*
X49121660Y-41740228D01*
X49155160Y-41691042D01*
X49179514Y-41655028D01*
X49192464Y-41635502D01*
X49193715Y-41633483D01*
X49191844Y-41617922D01*
X49181913Y-41583709D01*
X49165653Y-41535355D01*
X49144795Y-41477371D01*
X49121073Y-41414270D01*
X49096216Y-41350563D01*
X49071958Y-41290761D01*
X49050029Y-41239376D01*
X49032162Y-41200919D01*
X49020087Y-41179902D01*
X49019229Y-41178894D01*
X49011846Y-41172888D01*
X48999375Y-41166948D01*
X48979080Y-41160460D01*
X48948222Y-41152809D01*
X48904066Y-41143380D01*
X48843874Y-41131559D01*
X48764907Y-41116729D01*
X48664430Y-41098277D01*
X48642675Y-41094310D01*
X48578198Y-41081853D01*
X48521989Y-41069666D01*
X48479013Y-41058926D01*
X48454240Y-41050809D01*
X48450918Y-41048916D01*
X48445444Y-41032138D01*
X48440994Y-40994645D01*
X48437572Y-40940794D01*
X48435181Y-40874944D01*
X48433823Y-40801453D01*
X48433501Y-40724680D01*
X48434219Y-40648983D01*
X48435979Y-40578720D01*
X48438784Y-40518250D01*
X48442638Y-40471930D01*
X48447543Y-40444119D01*
X48450500Y-40438427D01*
X48466963Y-40432686D01*
X48504449Y-40423345D01*
X48559225Y-40411215D01*
X48627555Y-40397107D01*
X48705706Y-40381830D01*
X48748284Y-40373823D01*
X48829071Y-40358721D01*
X48901113Y-40345040D01*
X48960889Y-40333467D01*
X49004879Y-40324687D01*
X49029561Y-40319387D01*
X49033623Y-40318212D01*
X49040489Y-40304965D01*
X49055002Y-40273057D01*
X49075229Y-40227047D01*
X49099234Y-40171492D01*
X49125082Y-40110953D01*
X49150840Y-40049986D01*
X49174573Y-39993151D01*
X49194346Y-39945006D01*
X49208224Y-39910110D01*
X49214274Y-39893021D01*
X49214386Y-39892274D01*
X49207528Y-39878793D01*
X49188302Y-39847770D01*
X49158728Y-39802289D01*
X49120827Y-39745432D01*
X49076620Y-39680283D01*
X49050921Y-39642862D01*
X49004093Y-39574247D01*
X48962501Y-39511952D01*
X48928175Y-39459129D01*
X48903143Y-39418927D01*
X48889435Y-39394500D01*
X48887456Y-39389024D01*
X48895966Y-39376278D01*
X48919493Y-39349063D01*
X48955032Y-39310428D01*
X48999577Y-39263423D01*
X49050123Y-39211095D01*
X49103664Y-39156495D01*
X49157195Y-39102670D01*
X49207711Y-39052670D01*
X49252206Y-39009543D01*
X49287675Y-38976339D01*
X49311113Y-38956106D01*
X49318954Y-38951278D01*
X49331720Y-38958067D01*
X49362256Y-38977142D01*
X49407590Y-39006561D01*
X49464756Y-39044381D01*
X49530784Y-39088661D01*
X49580590Y-39122395D01*
X49832236Y-39293512D01*
X50041999Y-39207041D01*
X50251763Y-39120570D01*
X50308611Y-38819018D01*
X50365460Y-38517466D01*
X50993115Y-38517466D01*
X51049964Y-38819018D01*
D12*
X57991571Y-36186667D02*
X58467762Y-36186667D01*
X57896333Y-36472381D02*
X58229666Y-35472381D01*
X58563000Y-36472381D01*
X59229667Y-35948571D02*
X58896333Y-35948571D01*
X58896333Y-36472381D02*
X58896333Y-35472381D01*
X59372524Y-35472381D01*
X60086810Y-35948571D02*
X59753476Y-35948571D01*
X59753476Y-36472381D02*
X59753476Y-35472381D01*
X60229667Y-35472381D01*
X61134429Y-36472381D02*
X60563000Y-36472381D01*
X60848714Y-36472381D02*
X60848714Y-35472381D01*
X60753476Y-35615238D01*
X60658238Y-35710476D01*
X60563000Y-35758095D01*
X43076905Y-42203381D02*
X43076905Y-41203381D01*
X43315000Y-41203381D01*
X43457858Y-41251000D01*
X43553096Y-41346238D01*
X43600715Y-41441476D01*
X43648334Y-41631952D01*
X43648334Y-41774810D01*
X43600715Y-41965286D01*
X43553096Y-42060524D01*
X43457858Y-42155762D01*
X43315000Y-42203381D01*
X43076905Y-42203381D01*
X44600715Y-42203381D02*
X44029286Y-42203381D01*
X44315000Y-42203381D02*
X44315000Y-41203381D01*
X44219762Y-41346238D01*
X44124524Y-41441476D01*
X44029286Y-41489095D01*
X43076905Y-45124381D02*
X43076905Y-44124381D01*
X43315000Y-44124381D01*
X43457858Y-44172000D01*
X43553096Y-44267238D01*
X43600715Y-44362476D01*
X43648334Y-44552952D01*
X43648334Y-44695810D01*
X43600715Y-44886286D01*
X43553096Y-44981524D01*
X43457858Y-45076762D01*
X43315000Y-45124381D01*
X43076905Y-45124381D01*
X44029286Y-44219619D02*
X44076905Y-44172000D01*
X44172143Y-44124381D01*
X44410239Y-44124381D01*
X44505477Y-44172000D01*
X44553096Y-44219619D01*
X44600715Y-44314857D01*
X44600715Y-44410095D01*
X44553096Y-44552952D01*
X43981667Y-45124381D01*
X44600715Y-45124381D01*
X43045143Y-39836381D02*
X42711809Y-39360190D01*
X42473714Y-39836381D02*
X42473714Y-38836381D01*
X42854667Y-38836381D01*
X42949905Y-38884000D01*
X42997524Y-38931619D01*
X43045143Y-39026857D01*
X43045143Y-39169714D01*
X42997524Y-39264952D01*
X42949905Y-39312571D01*
X42854667Y-39360190D01*
X42473714Y-39360190D01*
X43426095Y-38931619D02*
X43473714Y-38884000D01*
X43568952Y-38836381D01*
X43807048Y-38836381D01*
X43902286Y-38884000D01*
X43949905Y-38931619D01*
X43997524Y-39026857D01*
X43997524Y-39122095D01*
X43949905Y-39264952D01*
X43378476Y-39836381D01*
X43997524Y-39836381D01*
X44378476Y-38931619D02*
X44426095Y-38884000D01*
X44521333Y-38836381D01*
X44759429Y-38836381D01*
X44854667Y-38884000D01*
X44902286Y-38931619D01*
X44949905Y-39026857D01*
X44949905Y-39122095D01*
X44902286Y-39264952D01*
X44330857Y-39836381D01*
X44949905Y-39836381D01*
X43045143Y-37296381D02*
X42711809Y-36820190D01*
X42473714Y-37296381D02*
X42473714Y-36296381D01*
X42854667Y-36296381D01*
X42949905Y-36344000D01*
X42997524Y-36391619D01*
X43045143Y-36486857D01*
X43045143Y-36629714D01*
X42997524Y-36724952D01*
X42949905Y-36772571D01*
X42854667Y-36820190D01*
X42473714Y-36820190D01*
X43426095Y-36391619D02*
X43473714Y-36344000D01*
X43568952Y-36296381D01*
X43807048Y-36296381D01*
X43902286Y-36344000D01*
X43949905Y-36391619D01*
X43997524Y-36486857D01*
X43997524Y-36582095D01*
X43949905Y-36724952D01*
X43378476Y-37296381D01*
X43997524Y-37296381D01*
X44330857Y-36296381D02*
X44949905Y-36296381D01*
X44616571Y-36677333D01*
X44759429Y-36677333D01*
X44854667Y-36724952D01*
X44902286Y-36772571D01*
X44949905Y-36867810D01*
X44949905Y-37105905D01*
X44902286Y-37201143D01*
X44854667Y-37248762D01*
X44759429Y-37296381D01*
X44473714Y-37296381D01*
X44378476Y-37248762D01*
X44330857Y-37201143D01*
X65365381Y-29971905D02*
X66174905Y-29971905D01*
X66270143Y-29924286D01*
X66317762Y-29876667D01*
X66365381Y-29781429D01*
X66365381Y-29590952D01*
X66317762Y-29495714D01*
X66270143Y-29448095D01*
X66174905Y-29400476D01*
X65365381Y-29400476D01*
X65460619Y-28971905D02*
X65413000Y-28924286D01*
X65365381Y-28829048D01*
X65365381Y-28590952D01*
X65413000Y-28495714D01*
X65460619Y-28448095D01*
X65555857Y-28400476D01*
X65651095Y-28400476D01*
X65793952Y-28448095D01*
X66365381Y-29019524D01*
X66365381Y-28400476D01*
X72985381Y-29971905D02*
X73794905Y-29971905D01*
X73890143Y-29924286D01*
X73937762Y-29876667D01*
X73985381Y-29781429D01*
X73985381Y-29590952D01*
X73937762Y-29495714D01*
X73890143Y-29448095D01*
X73794905Y-29400476D01*
X72985381Y-29400476D01*
X72985381Y-29019524D02*
X72985381Y-28400476D01*
X73366333Y-28733810D01*
X73366333Y-28590952D01*
X73413952Y-28495714D01*
X73461571Y-28448095D01*
X73556810Y-28400476D01*
X73794905Y-28400476D01*
X73890143Y-28448095D01*
X73937762Y-28495714D01*
X73985381Y-28590952D01*
X73985381Y-28876667D01*
X73937762Y-28971905D01*
X73890143Y-29019524D01*
X80605381Y-40131905D02*
X81414905Y-40131905D01*
X81510143Y-40084286D01*
X81557762Y-40036667D01*
X81605381Y-39941429D01*
X81605381Y-39750952D01*
X81557762Y-39655714D01*
X81510143Y-39608095D01*
X81414905Y-39560476D01*
X80605381Y-39560476D01*
X80605381Y-38655714D02*
X80605381Y-38846191D01*
X80653000Y-38941429D01*
X80700619Y-38989048D01*
X80843476Y-39084286D01*
X81033952Y-39131905D01*
X81414905Y-39131905D01*
X81510143Y-39084286D01*
X81557762Y-39036667D01*
X81605381Y-38941429D01*
X81605381Y-38750952D01*
X81557762Y-38655714D01*
X81510143Y-38608095D01*
X81414905Y-38560476D01*
X81176810Y-38560476D01*
X81081571Y-38608095D01*
X81033952Y-38655714D01*
X80986333Y-38750952D01*
X80986333Y-38941429D01*
X81033952Y-39036667D01*
X81081571Y-39084286D01*
X81176810Y-39131905D01*
X72985381Y-40131905D02*
X73794905Y-40131905D01*
X73890143Y-40084286D01*
X73937762Y-40036667D01*
X73985381Y-39941429D01*
X73985381Y-39750952D01*
X73937762Y-39655714D01*
X73890143Y-39608095D01*
X73794905Y-39560476D01*
X72985381Y-39560476D01*
X72985381Y-39179524D02*
X72985381Y-38512857D01*
X73985381Y-38941429D01*
X83439095Y-27900381D02*
X83439095Y-28709905D01*
X83486714Y-28805143D01*
X83534333Y-28852762D01*
X83629571Y-28900381D01*
X83820048Y-28900381D01*
X83915286Y-28852762D01*
X83962905Y-28805143D01*
X84010524Y-28709905D01*
X84010524Y-27900381D01*
X84629571Y-28328952D02*
X84534333Y-28281333D01*
X84486714Y-28233714D01*
X84439095Y-28138476D01*
X84439095Y-28090857D01*
X84486714Y-27995619D01*
X84534333Y-27948000D01*
X84629571Y-27900381D01*
X84820048Y-27900381D01*
X84915286Y-27948000D01*
X84962905Y-27995619D01*
X85010524Y-28090857D01*
X85010524Y-28138476D01*
X84962905Y-28233714D01*
X84915286Y-28281333D01*
X84820048Y-28328952D01*
X84629571Y-28328952D01*
X84534333Y-28376571D01*
X84486714Y-28424190D01*
X84439095Y-28519429D01*
X84439095Y-28709905D01*
X84486714Y-28805143D01*
X84534333Y-28852762D01*
X84629571Y-28900381D01*
X84820048Y-28900381D01*
X84915286Y-28852762D01*
X84962905Y-28805143D01*
X85010524Y-28709905D01*
X85010524Y-28519429D01*
X84962905Y-28424190D01*
X84915286Y-28376571D01*
X84820048Y-28328952D01*
X34290095Y-27900381D02*
X34290095Y-28709905D01*
X34337714Y-28805143D01*
X34385333Y-28852762D01*
X34480571Y-28900381D01*
X34671048Y-28900381D01*
X34766286Y-28852762D01*
X34813905Y-28805143D01*
X34861524Y-28709905D01*
X34861524Y-27900381D01*
X35385333Y-28900381D02*
X35575809Y-28900381D01*
X35671048Y-28852762D01*
X35718667Y-28805143D01*
X35813905Y-28662286D01*
X35861524Y-28471810D01*
X35861524Y-28090857D01*
X35813905Y-27995619D01*
X35766286Y-27948000D01*
X35671048Y-27900381D01*
X35480571Y-27900381D01*
X35385333Y-27948000D01*
X35337714Y-27995619D01*
X35290095Y-28090857D01*
X35290095Y-28328952D01*
X35337714Y-28424190D01*
X35385333Y-28471810D01*
X35480571Y-28519429D01*
X35671048Y-28519429D01*
X35766286Y-28471810D01*
X35813905Y-28424190D01*
X35861524Y-28328952D01*
M02*
