M48
;DRILL file {KiCad 4.0.5+dfsg1-4} date Sun Sep  9 22:04:31 2018
;FORMAT={-:-/ absolute / metric / decimal}
FMAT,2
METRIC,TZ
T1C0.400
T2C1.016
%
G90
G05
M71
T1
X34.29Y-26.162
X34.417Y-28.702
X35.687Y-22.479
X36.576Y-32.004
X36.576Y-33.909
X37.211Y-26.289
X38.1Y-26.416
X38.1Y-31.75
X38.227Y-37.338
X38.608Y-35.941
X38.862Y-36.703
X39.243Y-33.782
X39.497Y-32.512
X40.132Y-25.908
X40.767Y-36.576
X41.402Y-44.323
X42.164Y-31.623
X42.395Y-39.751
X42.418Y-33.147
X43.18Y-31.75
X43.307Y-35.306
X43.307Y-37.211
X43.942Y-34.671
X44.069Y-37.465
X44.196Y-25.781
X44.45Y-29.972
X44.577Y-28.575
X44.958Y-25.4
X45.085Y-27.94
X45.72Y-25.019
X46.355Y-29.591
X46.482Y-33.528
X47.371Y-37.592
X48.26Y-33.909
X48.26Y-37.084
X48.623Y-22.334
X50.292Y-37.465
X50.292Y-41.275
X50.8Y-23.495
X52.705Y-24.13
X52.705Y-26.67
X53.34Y-27.305
X55.118Y-27.305
X55.118Y-36.83
X55.753Y-23.315
X55.753Y-42.725
X57.658Y-23.315
X57.658Y-27.94
X57.658Y-42.725
X58.293Y-29.21
X58.293Y-33.02
X58.801Y-45.085
X58.928Y-38.735
X59.563Y-25.4
X59.563Y-27.94
X60.198Y-29.21
X61.468Y-23.315
X61.468Y-33.02
X61.468Y-42.725
X62.738Y-43.815
X63.373Y-23.315
X65.278Y-29.21
X65.278Y-30.48
X65.278Y-31.75
X65.278Y-33.02
X65.278Y-34.29
X65.278Y-35.56
X65.278Y-40.005
X65.278Y-41.275
X66.548Y-27.305
X66.548Y-29.21
X67.183Y-38.1
X68.273Y-26.67
X69.088Y-28.575
X69.723Y-24.13
X69.723Y-44.45
X70.358Y-40.005
X71.173Y-41.91
X75.893Y-26.67
X77.343Y-24.13
X77.343Y-28.575
X77.343Y-32.258
X77.343Y-39.37
X77.343Y-44.45
X78.793Y-41.91
X81.407Y-32.996
T2
X35.052Y-30.988
X35.052Y-33.528
X35.052Y-36.068
X35.052Y-38.608
X84.201Y-30.988
X84.201Y-33.528
X84.201Y-36.068
X84.201Y-38.608
T0
M30
