G04 #@! TF.GenerationSoftware,KiCad,Pcbnew,5.0.2+dfsg1-1*
G04 #@! TF.CreationDate,2019-03-09T11:54:22-07:00*
G04 #@! TF.ProjectId,1x7seg_4btn,31783773-6567-45f3-9462-746e2e6b6963,rev?*
G04 #@! TF.SameCoordinates,Original*
G04 #@! TF.FileFunction,Copper,L1,Top*
G04 #@! TF.FilePolarity,Positive*
%FSLAX46Y46*%
G04 Gerber Fmt 4.6, Leading zero omitted, Abs format (unit mm)*
G04 Created by KiCad (PCBNEW 5.0.2+dfsg1-1) date Sat 09 Mar 2019 11:54:22 AM MST*
%MOMM*%
%LPD*%
G01*
G04 APERTURE LIST*
G04 #@! TA.AperFunction,SMDPad,CuDef*
%ADD10R,1.600000X2.500000*%
G04 #@! TD*
G04 #@! TA.AperFunction,SMDPad,CuDef*
%ADD11R,1.597660X1.800860*%
G04 #@! TD*
G04 #@! TA.AperFunction,SMDPad,CuDef*
%ADD12R,0.900000X1.700000*%
G04 #@! TD*
G04 #@! TA.AperFunction,SMDPad,CuDef*
%ADD13R,4.700000X2.450000*%
G04 #@! TD*
G04 #@! TA.AperFunction,ComponentPad*
%ADD14R,2.032000X1.727200*%
G04 #@! TD*
G04 #@! TA.AperFunction,ComponentPad*
%ADD15O,2.032000X1.727200*%
G04 #@! TD*
G04 #@! TA.AperFunction,ViaPad*
%ADD16C,0.600000*%
G04 #@! TD*
G04 #@! TA.AperFunction,Conductor*
%ADD17C,0.250000*%
G04 #@! TD*
G04 APERTURE END LIST*
D10*
G04 #@! TO.P,AFF1,8*
G04 #@! TO.N,VCC*
X59563000Y-25520000D03*
G04 #@! TO.P,AFF1,9*
G04 #@! TO.N,Net-(AFF1-Pad9)*
X57663000Y-25520000D03*
G04 #@! TO.P,AFF1,10*
G04 #@! TO.N,Net-(AFF1-Pad10)*
X55763000Y-25520000D03*
G04 #@! TO.P,AFF1,7*
G04 #@! TO.N,Net-(AFF1-Pad7)*
X61463000Y-25520000D03*
G04 #@! TO.P,AFF1,6*
G04 #@! TO.N,Net-(AFF1-Pad6)*
X63363000Y-25520000D03*
G04 #@! TO.P,AFF1,3*
G04 #@! TO.N,VCC*
X59563000Y-40520000D03*
G04 #@! TO.P,AFF1,2*
G04 #@! TO.N,Net-(AFF1-Pad2)*
X57663000Y-40520000D03*
G04 #@! TO.P,AFF1,1*
G04 #@! TO.N,Net-(AFF1-Pad1)*
X55763000Y-40520000D03*
G04 #@! TO.P,AFF1,4*
G04 #@! TO.N,Net-(AFF1-Pad4)*
X61463000Y-40520000D03*
G04 #@! TO.P,AFF1,5*
G04 #@! TO.N,Net-(AFF1-Pad5)*
X63363000Y-40520000D03*
G04 #@! TD*
D11*
G04 #@! TO.P,D1,2*
G04 #@! TO.N,VCC*
X42395140Y-39751000D03*
G04 #@! TO.P,D1,1*
G04 #@! TO.N,Net-(D1-Pad1)*
X45234860Y-39751000D03*
G04 #@! TD*
G04 #@! TO.P,D2,2*
G04 #@! TO.N,VCC*
X42395140Y-42672000D03*
G04 #@! TO.P,D2,1*
G04 #@! TO.N,Net-(D2-Pad1)*
X45234860Y-42672000D03*
G04 #@! TD*
D12*
G04 #@! TO.P,R22,1*
G04 #@! TO.N,GND*
X45138000Y-37084000D03*
G04 #@! TO.P,R22,2*
G04 #@! TO.N,Net-(Q1-Pad2)*
X42238000Y-37084000D03*
G04 #@! TD*
G04 #@! TO.P,R23,1*
G04 #@! TO.N,GND*
X45138000Y-34544000D03*
G04 #@! TO.P,R23,2*
G04 #@! TO.N,Net-(Q2-Pad2)*
X42238000Y-34544000D03*
G04 #@! TD*
D13*
G04 #@! TO.P,U2,1*
G04 #@! TO.N,GND*
X69723000Y-32258000D03*
G04 #@! TO.P,U2,2*
G04 #@! TO.N,/S1*
X69723000Y-26162000D03*
G04 #@! TD*
G04 #@! TO.P,U3,1*
G04 #@! TO.N,GND*
X77343000Y-32258000D03*
G04 #@! TO.P,U3,2*
G04 #@! TO.N,/S2*
X77343000Y-26162000D03*
G04 #@! TD*
G04 #@! TO.P,U6,1*
G04 #@! TO.N,GND*
X77343000Y-36322000D03*
G04 #@! TO.P,U6,2*
G04 #@! TO.N,/S5*
X77343000Y-42418000D03*
G04 #@! TD*
G04 #@! TO.P,U7,1*
G04 #@! TO.N,GND*
X69723000Y-36322000D03*
G04 #@! TO.P,U7,2*
G04 #@! TO.N,/S6*
X69723000Y-42418000D03*
G04 #@! TD*
D14*
G04 #@! TO.P,U8,1*
G04 #@! TO.N,VCC*
X84201000Y-30988000D03*
D15*
G04 #@! TO.P,U8,2*
G04 #@! TO.N,GND*
X84201000Y-33528000D03*
G04 #@! TO.P,U8,3*
G04 #@! TO.N,/SDA*
X84201000Y-36068000D03*
G04 #@! TO.P,U8,4*
G04 #@! TO.N,/SCL*
X84201000Y-38608000D03*
G04 #@! TD*
D14*
G04 #@! TO.P,U9,1*
G04 #@! TO.N,VCC*
X35052000Y-30988000D03*
D15*
G04 #@! TO.P,U9,2*
G04 #@! TO.N,GND*
X35052000Y-33528000D03*
G04 #@! TO.P,U9,3*
G04 #@! TO.N,/SDA*
X35052000Y-36068000D03*
G04 #@! TO.P,U9,4*
G04 #@! TO.N,/SCL*
X35052000Y-38608000D03*
G04 #@! TD*
D16*
G04 #@! TO.N,VCC*
X35687000Y-22479000D03*
X42395140Y-39751000D03*
X65278000Y-40005000D03*
X34417000Y-28702000D03*
X34290000Y-26162000D03*
X66548000Y-29210000D03*
X66548000Y-27305000D03*
X77343000Y-44450000D03*
X69723000Y-44450000D03*
X58928000Y-38735000D03*
X77343000Y-24130000D03*
X69723000Y-24130000D03*
X59563000Y-25400000D03*
X60198000Y-29210000D03*
X58293000Y-29210000D03*
G04 #@! TO.N,Net-(AFF1-Pad9)*
X57658000Y-23315000D03*
G04 #@! TO.N,Net-(AFF1-Pad10)*
X55753000Y-23315000D03*
G04 #@! TO.N,Net-(AFF1-Pad7)*
X61468000Y-23315000D03*
G04 #@! TO.N,Net-(AFF1-Pad6)*
X63373000Y-23315000D03*
G04 #@! TO.N,Net-(AFF1-Pad2)*
X57658000Y-42725000D03*
G04 #@! TO.N,Net-(AFF1-Pad1)*
X55753000Y-42725000D03*
G04 #@! TO.N,Net-(AFF1-Pad4)*
X61468000Y-42725000D03*
G04 #@! TO.N,Net-(AFF1-Pad5)*
X62738000Y-43815000D03*
G04 #@! TO.N,GND*
X81407000Y-32996000D03*
X77343000Y-28575000D03*
X41402000Y-44323000D03*
X77343000Y-32258000D03*
X65278000Y-41275000D03*
X67183000Y-38100000D03*
X58801000Y-45085000D03*
X44450000Y-29972000D03*
X44577000Y-28575000D03*
X55118000Y-27305000D03*
X69088000Y-28575000D03*
X77343000Y-39370000D03*
X70358000Y-40005000D03*
G04 #@! TO.N,/SCK*
X50292000Y-41275000D03*
X50292000Y-37465000D03*
G04 #@! TO.N,/RST*
X40132000Y-25908000D03*
X38227000Y-37338000D03*
G04 #@! TO.N,/B*
X39243000Y-33782000D03*
X46355000Y-29591000D03*
X42164000Y-31623000D03*
X38862000Y-36703000D03*
G04 #@! TO.N,Net-(D1-Pad1)*
X47371000Y-37592000D03*
G04 #@! TO.N,Net-(D2-Pad1)*
X48260000Y-37084000D03*
G04 #@! TO.N,/SW6*
X65278000Y-35560000D03*
X44196000Y-25781000D03*
G04 #@! TO.N,/SW5*
X65278000Y-34290000D03*
X44958000Y-25400000D03*
G04 #@! TO.N,/SW4*
X45720000Y-25019000D03*
X65278000Y-33020000D03*
G04 #@! TO.N,/SW3*
X48623220Y-22334220D03*
X52705000Y-24130000D03*
X52705000Y-26670000D03*
X65278000Y-31750000D03*
G04 #@! TO.N,/SW2*
X53340000Y-27305000D03*
X65278000Y-30480000D03*
G04 #@! TO.N,/SW1*
X50800000Y-23495000D03*
X65278000Y-29210000D03*
G04 #@! TO.N,/LD0*
X55118000Y-36830000D03*
X45085000Y-27940000D03*
G04 #@! TO.N,Net-(IC1-Pad19)*
X48260000Y-33909000D03*
G04 #@! TO.N,Net-(IC1-Pad22)*
X43942000Y-34671000D03*
G04 #@! TO.N,/SDA*
X39497000Y-32512000D03*
X38608000Y-35941000D03*
G04 #@! TO.N,/SCL*
X36576000Y-32004000D03*
X36576000Y-33909000D03*
G04 #@! TO.N,/LED1*
X38100000Y-26416000D03*
X38100000Y-31750000D03*
G04 #@! TO.N,/LED2*
X40767000Y-36576000D03*
X37211000Y-26289000D03*
G04 #@! TO.N,Net-(Q1-Pad2)*
X43307000Y-37211000D03*
G04 #@! TO.N,Net-(Q2-Pad2)*
X42418000Y-33147000D03*
X46482000Y-33528000D03*
X43180000Y-31750000D03*
X44069000Y-37465000D03*
X43307000Y-35306000D03*
G04 #@! TO.N,/S1*
X68273000Y-26670000D03*
G04 #@! TO.N,/S2*
X75893000Y-26670000D03*
G04 #@! TO.N,/S5*
X78793000Y-41910000D03*
G04 #@! TO.N,/S6*
X71173000Y-41910000D03*
G04 #@! TO.N,Net-(R25-Pad2)*
X57658000Y-27940000D03*
X59563000Y-27940000D03*
G04 #@! TO.N,Net-(R26-Pad2)*
X61468000Y-33020000D03*
X58293000Y-33020000D03*
G04 #@! TD*
D17*
G04 #@! TO.N,*
X51943000Y-40259000D02*
X51943000Y-40513000D01*
X49714998Y-29969249D02*
X49717749Y-29969249D01*
X49717749Y-29969249D02*
X49714998Y-29969249D01*
X49714998Y-29969249D02*
X49717749Y-29972000D01*
G04 #@! TO.N,VCC*
X42395140Y-42672000D02*
X42395140Y-42903140D01*
X42395140Y-42903140D02*
X43561000Y-44069000D01*
X59563000Y-43942000D02*
X59563000Y-40520000D01*
X59690000Y-44069000D02*
X59563000Y-43942000D01*
X43561000Y-44069000D02*
X59690000Y-44069000D01*
X84201000Y-30988000D02*
X84201000Y-30353000D01*
X84201000Y-30353000D02*
X83693000Y-29845000D01*
X58166000Y-21590000D02*
X52070000Y-21590000D01*
X52070000Y-21590000D02*
X51943000Y-21590000D01*
X36576000Y-21590000D02*
X51943000Y-21590000D01*
X35687000Y-22479000D02*
X36576000Y-21590000D01*
X77343000Y-24130000D02*
X79883000Y-24130000D01*
X80518000Y-26670000D02*
X80518000Y-24765000D01*
X80518000Y-24765000D02*
X79883000Y-24130000D01*
X80518000Y-26670000D02*
X83693000Y-29845000D01*
X42395140Y-42672000D02*
X42395140Y-39751000D01*
X66548000Y-24130000D02*
X66548000Y-22987000D01*
X65151000Y-21590000D02*
X58166000Y-21590000D01*
X66548000Y-22987000D02*
X65151000Y-21590000D01*
X58166000Y-21590000D02*
X58674000Y-21590000D01*
X58674000Y-21590000D02*
X59563000Y-22479000D01*
X59563000Y-22479000D02*
X59563000Y-25520000D01*
X34417000Y-26289000D02*
X34417000Y-28702000D01*
X34290000Y-26162000D02*
X34417000Y-26289000D01*
X65278000Y-40005000D02*
X65278000Y-38735000D01*
X65278000Y-38735000D02*
X58928000Y-38735000D01*
X69723000Y-24130000D02*
X66548000Y-24130000D01*
X66548000Y-29210000D02*
X66548000Y-41275000D01*
X66548000Y-24130000D02*
X66548000Y-27305000D01*
X69723000Y-44450000D02*
X77343000Y-44450000D01*
X65278000Y-40005000D02*
X66548000Y-41275000D01*
X67183000Y-44450000D02*
X69723000Y-44450000D01*
X66548000Y-41275000D02*
X66548000Y-43815000D01*
X66548000Y-43815000D02*
X67183000Y-44450000D01*
X58928000Y-38735000D02*
X59563000Y-39370000D01*
X59563000Y-39370000D02*
X59563000Y-40520000D01*
X69723000Y-24130000D02*
X77343000Y-24130000D01*
X59563000Y-25400000D02*
X59563000Y-25520000D01*
X58293000Y-29210000D02*
X60198000Y-29210000D01*
G04 #@! TO.N,Net-(AFF1-Pad9)*
X57663000Y-25520000D02*
X57663000Y-23320000D01*
X57663000Y-23320000D02*
X57658000Y-23315000D01*
G04 #@! TO.N,Net-(AFF1-Pad10)*
X55763000Y-25520000D02*
X55763000Y-23325000D01*
X55763000Y-23325000D02*
X55753000Y-23315000D01*
G04 #@! TO.N,Net-(AFF1-Pad7)*
X61463000Y-25520000D02*
X61463000Y-23320000D01*
X61463000Y-23320000D02*
X61468000Y-23315000D01*
G04 #@! TO.N,Net-(AFF1-Pad6)*
X63363000Y-25520000D02*
X63363000Y-23325000D01*
X63363000Y-23325000D02*
X63373000Y-23315000D01*
G04 #@! TO.N,Net-(AFF1-Pad2)*
X57663000Y-40520000D02*
X57663000Y-42720000D01*
X57663000Y-42720000D02*
X57658000Y-42725000D01*
G04 #@! TO.N,Net-(AFF1-Pad1)*
X55763000Y-40520000D02*
X55763000Y-42715000D01*
X55763000Y-42715000D02*
X55753000Y-42725000D01*
G04 #@! TO.N,Net-(AFF1-Pad4)*
X61463000Y-40520000D02*
X61463000Y-42720000D01*
X61463000Y-42720000D02*
X61468000Y-42725000D01*
G04 #@! TO.N,Net-(AFF1-Pad5)*
X63363000Y-40520000D02*
X63363000Y-41285000D01*
X63363000Y-41285000D02*
X62738000Y-41910000D01*
X62738000Y-41910000D02*
X62738000Y-43815000D01*
G04 #@! TO.N,GND*
X41402000Y-44323000D02*
X42926000Y-44323000D01*
X43688000Y-45085000D02*
X58801000Y-45085000D01*
X42926000Y-44323000D02*
X43688000Y-45085000D01*
X80669000Y-32258000D02*
X81407000Y-32996000D01*
X77343000Y-32258000D02*
X80669000Y-32258000D01*
X77343000Y-28575000D02*
X77343000Y-32258000D01*
X39878000Y-44323000D02*
X39878000Y-41148000D01*
X39878000Y-41148000D02*
X36576000Y-37846000D01*
X42164000Y-32512000D02*
X41402000Y-32512000D01*
X43079500Y-32512000D02*
X42164000Y-32512000D01*
X43688000Y-29972000D02*
X41656000Y-29972000D01*
X41656000Y-29972000D02*
X41402000Y-30226000D01*
X41402000Y-30226000D02*
X41402000Y-32258000D01*
X41402000Y-32258000D02*
X41402000Y-32512000D01*
X41402000Y-32512000D02*
X41402000Y-33274000D01*
X43079500Y-32512000D02*
X43079500Y-33882500D01*
X44577000Y-34036000D02*
X44577000Y-33983000D01*
X44630000Y-34036000D02*
X44577000Y-34036000D01*
X43233000Y-34036000D02*
X44630000Y-34036000D01*
X43079500Y-33882500D02*
X43233000Y-34036000D01*
X45138000Y-37084000D02*
X44956602Y-37084000D01*
X44956602Y-37084000D02*
X44067602Y-36195000D01*
X42926000Y-35814000D02*
X43307000Y-36195000D01*
X42799000Y-35814000D02*
X41402000Y-35814000D01*
X41402000Y-33274000D02*
X41402000Y-34671000D01*
X41402000Y-35814000D02*
X41402000Y-34671000D01*
X42799000Y-35814000D02*
X42926000Y-35814000D01*
X44067602Y-36195000D02*
X43307000Y-36195000D01*
X44577000Y-33983000D02*
X45138000Y-34544000D01*
X39878000Y-44323000D02*
X41402000Y-44323000D01*
X36576000Y-37846000D02*
X36576000Y-35179000D01*
X44450000Y-29972000D02*
X43688000Y-29972000D01*
X35052000Y-33655000D02*
X36576000Y-35179000D01*
X35052000Y-33528000D02*
X35052000Y-33655000D01*
X83717000Y-32996000D02*
X84328000Y-32385000D01*
X84201000Y-32258000D02*
X84328000Y-32385000D01*
X55245000Y-28575000D02*
X55245000Y-27432000D01*
X55245000Y-27432000D02*
X55118000Y-27305000D01*
X58801000Y-45085000D02*
X64389000Y-45085000D01*
X64389000Y-45085000D02*
X65278000Y-44196000D01*
X65278000Y-44196000D02*
X65278000Y-41275000D01*
X67183000Y-38100000D02*
X68961000Y-36322000D01*
X44450000Y-28702000D02*
X44450000Y-29972000D01*
X44577000Y-28575000D02*
X44450000Y-28702000D01*
X84201000Y-32258000D02*
X84328000Y-32385000D01*
X68961000Y-36322000D02*
X69723000Y-36322000D01*
X55118000Y-28575000D02*
X55245000Y-28575000D01*
X55245000Y-28575000D02*
X69088000Y-28575000D01*
X69723000Y-36322000D02*
X77343000Y-36322000D01*
X69723000Y-32258000D02*
X77343000Y-32258000D01*
X77343000Y-32258000D02*
X77343000Y-36322000D01*
X69723000Y-32258000D02*
X69723000Y-36322000D01*
X69723000Y-29210000D02*
X69723000Y-32258000D01*
X69088000Y-28575000D02*
X69723000Y-29210000D01*
X77343000Y-39370000D02*
X77343000Y-36322000D01*
X70358000Y-40005000D02*
X69723000Y-39370000D01*
X69723000Y-39370000D02*
X69723000Y-36322000D01*
G04 #@! TO.N,/SCK*
X50292000Y-41021000D02*
X50292000Y-41275000D01*
X50292000Y-37465000D02*
X50292000Y-41021000D01*
G04 #@! TO.N,/RST*
X39497000Y-36703000D02*
X39497000Y-36068000D01*
X40386000Y-26162000D02*
X40132000Y-25908000D01*
X40767000Y-33020000D02*
X40386000Y-32639000D01*
X40767000Y-34671000D02*
X40767000Y-33020000D01*
X39878000Y-35560000D02*
X40767000Y-34671000D01*
X40386000Y-32639000D02*
X40386000Y-26162000D01*
X38354000Y-37465000D02*
X38227000Y-37338000D01*
X38354000Y-37465000D02*
X39497000Y-37465000D01*
X39497000Y-36703000D02*
X39497000Y-37465000D01*
X39497000Y-36068000D02*
X39878000Y-35687000D01*
X39878000Y-35687000D02*
X39878000Y-35560000D01*
G04 #@! TO.N,/B*
X42164000Y-31623000D02*
X42164000Y-30988000D01*
X42545000Y-30607000D02*
X45339000Y-30607000D01*
X42164000Y-30988000D02*
X42545000Y-30607000D01*
X37973000Y-35306000D02*
X37973000Y-36449000D01*
X39243000Y-33782000D02*
X37973000Y-35052000D01*
X37973000Y-35052000D02*
X37973000Y-35306000D01*
X46355000Y-29591000D02*
X45339000Y-30607000D01*
X38227000Y-36703000D02*
X38862000Y-36703000D01*
X37973000Y-36449000D02*
X38227000Y-36703000D01*
G04 #@! TO.N,Net-(D1-Pad1)*
X45234860Y-39751000D02*
X45339000Y-39751000D01*
X45339000Y-39751000D02*
X47371000Y-37592000D01*
X45234860Y-39751000D02*
X45234860Y-39093140D01*
G04 #@! TO.N,Net-(D2-Pad1)*
X46482000Y-40005000D02*
X46482000Y-41424860D01*
X48260000Y-37084000D02*
X48133000Y-37211000D01*
X48133000Y-37211000D02*
X48133000Y-37846000D01*
X48133000Y-37846000D02*
X46482000Y-39497000D01*
X46482000Y-39497000D02*
X46482000Y-40005000D01*
X46482000Y-41424860D02*
X45234860Y-42672000D01*
G04 #@! TO.N,/SW6*
X54610000Y-35560000D02*
X65278000Y-35560000D01*
X53975000Y-35560000D02*
X54610000Y-35560000D01*
X53975000Y-35560000D02*
X53467000Y-35052000D01*
X50800000Y-27305000D02*
X50800000Y-26289000D01*
X44196000Y-25781000D02*
X44418250Y-26162000D01*
X50800000Y-32385000D02*
X51435000Y-33020000D01*
X50800000Y-27940000D02*
X50800000Y-32385000D01*
X53340000Y-33020000D02*
X53467000Y-33147000D01*
X53467000Y-33147000D02*
X53467000Y-35052000D01*
X51435000Y-33020000D02*
X53340000Y-33020000D01*
X50800000Y-27305000D02*
X50800000Y-27940000D01*
X50800000Y-26289000D02*
X50546000Y-26035000D01*
X50546000Y-26035000D02*
X46482000Y-26035000D01*
X46482000Y-26035000D02*
X46355000Y-26162000D01*
X46355000Y-26162000D02*
X44418250Y-26162000D01*
X53467000Y-35052000D02*
X53467000Y-34925000D01*
X53467000Y-34925000D02*
X53467000Y-35052000D01*
G04 #@! TO.N,/SW5*
X54610000Y-34290000D02*
X65278000Y-34290000D01*
X51435000Y-26670000D02*
X51435000Y-25781000D01*
X45110400Y-25654000D02*
X44958000Y-25400000D01*
X46101000Y-25654000D02*
X45110400Y-25654000D01*
X46228000Y-25527000D02*
X46101000Y-25654000D01*
X51181000Y-25527000D02*
X46228000Y-25527000D01*
X51435000Y-25781000D02*
X51181000Y-25527000D01*
X52133500Y-32448500D02*
X51435000Y-31750000D01*
X53975000Y-34290000D02*
X54610000Y-34290000D01*
X53657500Y-32448500D02*
X53975000Y-32766000D01*
X53975000Y-32766000D02*
X53975000Y-34290000D01*
X52133500Y-32448500D02*
X53657500Y-32448500D01*
X51435000Y-31750000D02*
X51435000Y-26670000D01*
G04 #@! TO.N,/SW4*
X64008000Y-31750000D02*
X54610000Y-31750000D01*
X65278000Y-33020000D02*
X64008000Y-31750000D01*
X52070000Y-26670000D02*
X52070000Y-31115000D01*
X52070000Y-31115000D02*
X52705000Y-31750000D01*
X52070000Y-26162000D02*
X52070000Y-26670000D01*
X51435000Y-25019000D02*
X52070000Y-25654000D01*
X52070000Y-25654000D02*
X52070000Y-26162000D01*
X45720000Y-25019000D02*
X51435000Y-25019000D01*
X52705000Y-31750000D02*
X54610000Y-31750000D01*
G04 #@! TO.N,/SW3*
X54610000Y-31115000D02*
X64643000Y-31115000D01*
X53340000Y-31115000D02*
X54610000Y-31115000D01*
X48895000Y-22860000D02*
X49530000Y-22860000D01*
X48623220Y-22334220D02*
X48895000Y-22860000D01*
X52705000Y-26670000D02*
X52705000Y-28575000D01*
X52705000Y-28575000D02*
X53340000Y-29210000D01*
X53340000Y-29210000D02*
X53340000Y-31115000D01*
X65278000Y-31750000D02*
X64643000Y-31115000D01*
X49530000Y-22860000D02*
X51435000Y-22860000D01*
X51435000Y-22860000D02*
X52705000Y-24130000D01*
G04 #@! TO.N,/SW2*
X54610000Y-30480000D02*
X65278000Y-30480000D01*
X54610000Y-30480000D02*
X53975000Y-30480000D01*
X53340000Y-27940000D02*
X53340000Y-27305000D01*
X53975000Y-28575000D02*
X53340000Y-27940000D01*
X53975000Y-30480000D02*
X53975000Y-28575000D01*
G04 #@! TO.N,/SW1*
X64643000Y-29845000D02*
X54610000Y-29845000D01*
X54610000Y-29845000D02*
X54610000Y-27940000D01*
X54610000Y-27940000D02*
X53975000Y-27305000D01*
X53975000Y-26670000D02*
X50800000Y-23495000D01*
X65278000Y-29210000D02*
X64643000Y-29845000D01*
X53975000Y-27305000D02*
X53975000Y-26670000D01*
G04 #@! TO.N,/LD0*
X54483000Y-36830000D02*
X55118000Y-36830000D01*
X54610000Y-36830000D02*
X54483000Y-36830000D01*
X54483000Y-36830000D02*
X54102000Y-36830000D01*
X54102000Y-36830000D02*
X53975000Y-36830000D01*
X50167751Y-28067000D02*
X50167751Y-26614753D01*
X46355000Y-26670000D02*
X45085000Y-27940000D01*
X50112504Y-26670000D02*
X46355000Y-26670000D01*
X50167751Y-26614753D02*
X50112504Y-26670000D01*
X50167751Y-32509249D02*
X50167751Y-28067000D01*
X52959000Y-35814000D02*
X52959000Y-33782000D01*
X52959000Y-33782000D02*
X52831301Y-33654301D01*
X52831301Y-33654301D02*
X51312803Y-33654301D01*
X51312803Y-33654301D02*
X50167751Y-32509249D01*
X53975000Y-36830000D02*
X52959000Y-35814000D01*
X53975000Y-36830000D02*
X53467000Y-36322000D01*
X52959000Y-35814000D02*
X53340000Y-36195000D01*
G04 #@! TO.N,Net-(IC1-Pad19)*
X51562000Y-39571000D02*
X51562000Y-37719000D01*
X50927000Y-37084000D02*
X51562000Y-37719000D01*
X50038000Y-35814000D02*
X50927000Y-35814000D01*
X48260000Y-33909000D02*
X50038000Y-35814000D01*
X50927000Y-35814000D02*
X50927000Y-37084000D01*
X51562000Y-39571000D02*
X51128000Y-40005000D01*
G04 #@! TO.N,Net-(IC1-Pad22)*
X44323000Y-35687000D02*
X44323000Y-35814000D01*
X43942000Y-34671000D02*
X44323000Y-35052000D01*
X44323000Y-35052000D02*
X44323000Y-35687000D01*
X44323000Y-35814000D02*
X44450000Y-35941000D01*
G04 #@! TO.N,/SDA*
X40132000Y-34417000D02*
X40132000Y-33147000D01*
X40132000Y-33147000D02*
X39497000Y-32512000D01*
X40132000Y-34417000D02*
X40132000Y-34290000D01*
X38608000Y-35941000D02*
X40132000Y-34417000D01*
G04 #@! TO.N,/SCL*
X36576000Y-33909000D02*
X36576000Y-32004000D01*
G04 #@! TO.N,/LED1*
X38100000Y-31750000D02*
X38100000Y-26416000D01*
G04 #@! TO.N,/LED2*
X40132000Y-37973000D02*
X40132000Y-37211000D01*
X40132000Y-37211000D02*
X40767000Y-36576000D01*
X37211000Y-35560000D02*
X37211000Y-37592000D01*
X37592000Y-37973000D02*
X40132000Y-37973000D01*
X37211000Y-37592000D02*
X37592000Y-37973000D01*
X37211000Y-27305000D02*
X37211000Y-35560000D01*
X37211000Y-26289000D02*
X37211000Y-27305000D01*
G04 #@! TO.N,Net-(Q1-Pad2)*
X42926000Y-37084000D02*
X42238000Y-37084000D01*
X43307000Y-37211000D02*
X42926000Y-37084000D01*
G04 #@! TO.N,Net-(Q2-Pad2)*
X42238000Y-33327000D02*
X42418000Y-33147000D01*
X42238000Y-34544000D02*
X42238000Y-33327000D01*
X46482000Y-33528000D02*
X46482000Y-32258000D01*
X46482000Y-32258000D02*
X43688000Y-32258000D01*
X43180000Y-31750000D02*
X43688000Y-32258000D01*
X43942000Y-37592000D02*
X43942000Y-38354000D01*
X43942000Y-38354000D02*
X43942000Y-38481000D01*
X44069000Y-37465000D02*
X43942000Y-37592000D01*
X42672000Y-34544000D02*
X43307000Y-35306000D01*
X42238000Y-34544000D02*
X42672000Y-34544000D01*
G04 #@! TO.N,/S1*
X68273000Y-26670000D02*
X68781000Y-26162000D01*
X68781000Y-26162000D02*
X69723000Y-26162000D01*
G04 #@! TO.N,/S2*
X75893000Y-26670000D02*
X76401000Y-26162000D01*
X76401000Y-26162000D02*
X77343000Y-26162000D01*
G04 #@! TO.N,/S5*
X78793000Y-41910000D02*
X78285000Y-42418000D01*
X78285000Y-42418000D02*
X77343000Y-42418000D01*
G04 #@! TO.N,/S6*
X71173000Y-41910000D02*
X70665000Y-42418000D01*
X70665000Y-42418000D02*
X69723000Y-42418000D01*
G04 #@! TO.N,Net-(R25-Pad2)*
X59563000Y-27940000D02*
X57658000Y-27940000D01*
G04 #@! TO.N,Net-(R26-Pad2)*
X58293000Y-33020000D02*
X61468000Y-33020000D01*
G04 #@! TD*
M02*
