G04 #@! TF.GenerationSoftware,KiCad,Pcbnew,5.0.2+dfsg1-1*
G04 #@! TF.CreationDate,2019-03-09T11:54:22-07:00*
G04 #@! TF.ProjectId,1x7seg_4btn,31783773-6567-45f3-9462-746e2e6b6963,rev?*
G04 #@! TF.SameCoordinates,Original*
G04 #@! TF.FileFunction,Soldermask,Bot*
G04 #@! TF.FilePolarity,Negative*
%FSLAX46Y46*%
G04 Gerber Fmt 4.6, Leading zero omitted, Abs format (unit mm)*
G04 Created by KiCad (PCBNEW 5.0.2+dfsg1-1) date Sat 09 Mar 2019 11:54:22 AM MST*
%MOMM*%
%LPD*%
G01*
G04 APERTURE LIST*
%ADD10C,0.100000*%
G04 APERTURE END LIST*
D10*
G36*
X83818196Y-43326958D02*
X84054780Y-43424954D01*
X84267705Y-43567226D01*
X84448774Y-43748295D01*
X84591046Y-43961220D01*
X84689042Y-44197804D01*
X84739000Y-44448960D01*
X84739000Y-44705040D01*
X84689042Y-44956196D01*
X84591046Y-45192780D01*
X84448774Y-45405705D01*
X84267705Y-45586774D01*
X84054780Y-45729046D01*
X83818196Y-45827042D01*
X83567040Y-45877000D01*
X83310960Y-45877000D01*
X83059804Y-45827042D01*
X82823220Y-45729046D01*
X82610295Y-45586774D01*
X82429226Y-45405705D01*
X82286954Y-45192780D01*
X82188958Y-44956196D01*
X82139000Y-44705040D01*
X82139000Y-44448960D01*
X82188958Y-44197804D01*
X82286954Y-43961220D01*
X82429226Y-43748295D01*
X82610295Y-43567226D01*
X82823220Y-43424954D01*
X83059804Y-43326958D01*
X83310960Y-43277000D01*
X83567040Y-43277000D01*
X83818196Y-43326958D01*
X83818196Y-43326958D01*
G37*
G36*
X35939196Y-43326958D02*
X36175780Y-43424954D01*
X36388705Y-43567226D01*
X36569774Y-43748295D01*
X36712046Y-43961220D01*
X36810042Y-44197804D01*
X36860000Y-44448960D01*
X36860000Y-44705040D01*
X36810042Y-44956196D01*
X36712046Y-45192780D01*
X36569774Y-45405705D01*
X36388705Y-45586774D01*
X36175780Y-45729046D01*
X35939196Y-45827042D01*
X35688040Y-45877000D01*
X35431960Y-45877000D01*
X35180804Y-45827042D01*
X34944220Y-45729046D01*
X34731295Y-45586774D01*
X34550226Y-45405705D01*
X34407954Y-45192780D01*
X34309958Y-44956196D01*
X34260000Y-44705040D01*
X34260000Y-44448960D01*
X34309958Y-44197804D01*
X34407954Y-43961220D01*
X34550226Y-43748295D01*
X34731295Y-43567226D01*
X34944220Y-43424954D01*
X35180804Y-43326958D01*
X35431960Y-43277000D01*
X35688040Y-43277000D01*
X35939196Y-43326958D01*
X35939196Y-43326958D01*
G37*
G36*
X62518000Y-43090000D02*
X62520402Y-43114386D01*
X62527515Y-43137835D01*
X62539066Y-43159446D01*
X62554612Y-43178388D01*
X62573554Y-43193934D01*
X62595165Y-43205485D01*
X62618614Y-43212598D01*
X62643000Y-43215000D01*
X63023000Y-43215000D01*
X63023000Y-44415000D01*
X61723000Y-44415000D01*
X61723000Y-43500000D01*
X61720598Y-43475614D01*
X61713485Y-43452165D01*
X61701934Y-43430554D01*
X61686388Y-43411612D01*
X61667446Y-43396066D01*
X61645835Y-43384515D01*
X61622386Y-43377402D01*
X61598000Y-43375000D01*
X61153000Y-43375000D01*
X61128614Y-43377402D01*
X61105165Y-43384515D01*
X61083554Y-43396066D01*
X61064612Y-43411612D01*
X61049066Y-43430554D01*
X61037515Y-43452165D01*
X61030402Y-43475614D01*
X61028000Y-43500000D01*
X61028000Y-45500000D01*
X59728000Y-45500000D01*
X59728000Y-43400000D01*
X60293000Y-43400000D01*
X60317386Y-43397598D01*
X60340835Y-43390485D01*
X60362446Y-43378934D01*
X60381388Y-43363388D01*
X60396934Y-43344446D01*
X60408485Y-43322835D01*
X60415598Y-43299386D01*
X60418000Y-43275000D01*
X60418000Y-42075000D01*
X62518000Y-42075000D01*
X62518000Y-43090000D01*
X62518000Y-43090000D01*
G37*
G36*
X58708000Y-43375000D02*
X58253000Y-43375000D01*
X58228614Y-43377402D01*
X58205165Y-43384515D01*
X58183554Y-43396066D01*
X58164612Y-43411612D01*
X58149066Y-43430554D01*
X58137515Y-43452165D01*
X58130402Y-43475614D01*
X58128000Y-43500000D01*
X58128000Y-45500000D01*
X56828000Y-45500000D01*
X56828000Y-43500000D01*
X56825598Y-43475614D01*
X56818485Y-43452165D01*
X56806934Y-43430554D01*
X56791388Y-43411612D01*
X56772446Y-43396066D01*
X56750835Y-43384515D01*
X56727386Y-43377402D01*
X56703000Y-43375000D01*
X54703000Y-43375000D01*
X54703000Y-42075000D01*
X58708000Y-42075000D01*
X58708000Y-43375000D01*
X58708000Y-43375000D01*
G37*
G36*
X65023000Y-45365000D02*
X63723000Y-45365000D01*
X63723000Y-44165000D01*
X65023000Y-44165000D01*
X65023000Y-45365000D01*
X65023000Y-45365000D01*
G37*
G36*
X43631000Y-45158000D02*
X39631000Y-45158000D01*
X39631000Y-43488000D01*
X43631000Y-43488000D01*
X43631000Y-45158000D01*
X43631000Y-45158000D01*
G37*
G36*
X50031000Y-45158000D02*
X46031000Y-45158000D01*
X46031000Y-43488000D01*
X50031000Y-43488000D01*
X50031000Y-45158000D01*
X50031000Y-45158000D01*
G37*
G36*
X79543000Y-41007588D02*
X79520165Y-41014515D01*
X79498554Y-41026066D01*
X79479612Y-41041612D01*
X79464066Y-41060554D01*
X79452515Y-41082165D01*
X79445402Y-41105614D01*
X79443000Y-41130000D01*
X79443000Y-44865000D01*
X78143000Y-44865000D01*
X78143000Y-39005000D01*
X79543000Y-39005000D01*
X79543000Y-41007588D01*
X79543000Y-41007588D01*
G37*
G36*
X76543000Y-44865000D02*
X75243000Y-44865000D01*
X75243000Y-41130000D01*
X75240598Y-41105614D01*
X75233485Y-41082165D01*
X75221934Y-41060554D01*
X75206388Y-41041612D01*
X75187446Y-41026066D01*
X75165835Y-41014515D01*
X75143000Y-41007588D01*
X75143000Y-39005000D01*
X76543000Y-39005000D01*
X76543000Y-44865000D01*
X76543000Y-44865000D01*
G37*
G36*
X68923000Y-44865000D02*
X67623000Y-44865000D01*
X67623000Y-41130000D01*
X67620598Y-41105614D01*
X67613485Y-41082165D01*
X67601934Y-41060554D01*
X67586388Y-41041612D01*
X67567446Y-41026066D01*
X67545835Y-41014515D01*
X67523000Y-41007588D01*
X67523000Y-39005000D01*
X68923000Y-39005000D01*
X68923000Y-44865000D01*
X68923000Y-44865000D01*
G37*
G36*
X71923000Y-41007588D02*
X71900165Y-41014515D01*
X71878554Y-41026066D01*
X71859612Y-41041612D01*
X71844066Y-41060554D01*
X71832515Y-41082165D01*
X71825402Y-41105614D01*
X71823000Y-41130000D01*
X71823000Y-44865000D01*
X70523000Y-44865000D01*
X70523000Y-39005000D01*
X71923000Y-39005000D01*
X71923000Y-41007588D01*
X71923000Y-41007588D01*
G37*
G36*
X65023000Y-43465000D02*
X63723000Y-43465000D01*
X63723000Y-42265000D01*
X65023000Y-42265000D01*
X65023000Y-43465000D01*
X65023000Y-43465000D01*
G37*
G36*
X50031000Y-42618000D02*
X46031000Y-42618000D01*
X46031000Y-40948000D01*
X50031000Y-40948000D01*
X50031000Y-42618000D01*
X50031000Y-42618000D01*
G37*
G36*
X43631000Y-42618000D02*
X39631000Y-42618000D01*
X39631000Y-40948000D01*
X43631000Y-40948000D01*
X43631000Y-42618000D01*
X43631000Y-42618000D01*
G37*
G36*
X58708000Y-40475000D02*
X54703000Y-40475000D01*
X54703000Y-39175000D01*
X58708000Y-39175000D01*
X58708000Y-40475000D01*
X58708000Y-40475000D01*
G37*
G36*
X62518000Y-40475000D02*
X60418000Y-40475000D01*
X60418000Y-39175000D01*
X62518000Y-39175000D01*
X62518000Y-40475000D01*
X62518000Y-40475000D01*
G37*
G36*
X43631000Y-40078000D02*
X39631000Y-40078000D01*
X39631000Y-38408000D01*
X43631000Y-38408000D01*
X43631000Y-40078000D01*
X43631000Y-40078000D01*
G37*
G36*
X50031000Y-40078000D02*
X46031000Y-40078000D01*
X46031000Y-38408000D01*
X50031000Y-38408000D01*
X50031000Y-40078000D01*
X50031000Y-40078000D01*
G37*
G36*
X35412903Y-37559789D02*
X35613391Y-37620607D01*
X35798164Y-37719369D01*
X35960118Y-37852282D01*
X36093031Y-38014236D01*
X36191793Y-38199009D01*
X36252611Y-38399497D01*
X36273146Y-38608000D01*
X36252611Y-38816503D01*
X36191793Y-39016991D01*
X36093031Y-39201764D01*
X35960118Y-39363718D01*
X35798164Y-39496631D01*
X35613391Y-39595393D01*
X35412903Y-39656211D01*
X35256651Y-39671600D01*
X34847349Y-39671600D01*
X34691097Y-39656211D01*
X34490609Y-39595393D01*
X34305836Y-39496631D01*
X34143882Y-39363718D01*
X34010969Y-39201764D01*
X33912207Y-39016991D01*
X33851389Y-38816503D01*
X33830854Y-38608000D01*
X33851389Y-38399497D01*
X33912207Y-38199009D01*
X34010969Y-38014236D01*
X34143882Y-37852282D01*
X34305836Y-37719369D01*
X34490609Y-37620607D01*
X34691097Y-37559789D01*
X34847349Y-37544400D01*
X35256651Y-37544400D01*
X35412903Y-37559789D01*
X35412903Y-37559789D01*
G37*
G36*
X84561903Y-37559789D02*
X84762391Y-37620607D01*
X84947164Y-37719369D01*
X85109118Y-37852282D01*
X85242031Y-38014236D01*
X85340793Y-38199009D01*
X85401611Y-38399497D01*
X85422146Y-38608000D01*
X85401611Y-38816503D01*
X85340793Y-39016991D01*
X85242031Y-39201764D01*
X85109118Y-39363718D01*
X84947164Y-39496631D01*
X84762391Y-39595393D01*
X84561903Y-39656211D01*
X84405651Y-39671600D01*
X83996349Y-39671600D01*
X83840097Y-39656211D01*
X83639609Y-39595393D01*
X83454836Y-39496631D01*
X83292882Y-39363718D01*
X83159969Y-39201764D01*
X83061207Y-39016991D01*
X83000389Y-38816503D01*
X82979854Y-38608000D01*
X83000389Y-38399497D01*
X83061207Y-38199009D01*
X83159969Y-38014236D01*
X83292882Y-37852282D01*
X83454836Y-37719369D01*
X83639609Y-37620607D01*
X83840097Y-37559789D01*
X83996349Y-37544400D01*
X84405651Y-37544400D01*
X84561903Y-37559789D01*
X84561903Y-37559789D01*
G37*
G36*
X51942000Y-38888000D02*
X50642000Y-38888000D01*
X50642000Y-37688000D01*
X51942000Y-37688000D01*
X51942000Y-38888000D01*
X51942000Y-38888000D01*
G37*
G36*
X45788000Y-38134000D02*
X44488000Y-38134000D01*
X44488000Y-36034000D01*
X45788000Y-36034000D01*
X45788000Y-38134000D01*
X45788000Y-38134000D01*
G37*
G36*
X42888000Y-38134000D02*
X41588000Y-38134000D01*
X41588000Y-36034000D01*
X42888000Y-36034000D01*
X42888000Y-38134000D01*
X42888000Y-38134000D01*
G37*
G36*
X72717000Y-38109500D02*
X71809000Y-38109500D01*
X71809000Y-36566500D01*
X72717000Y-36566500D01*
X72717000Y-38109500D01*
X72717000Y-38109500D01*
G37*
G36*
X73987000Y-38109500D02*
X73079000Y-38109500D01*
X73079000Y-36566500D01*
X73987000Y-36566500D01*
X73987000Y-38109500D01*
X73987000Y-38109500D01*
G37*
G36*
X68907000Y-38109500D02*
X67999000Y-38109500D01*
X67999000Y-36566500D01*
X68907000Y-36566500D01*
X68907000Y-38109500D01*
X68907000Y-38109500D01*
G37*
G36*
X70177000Y-38109500D02*
X69269000Y-38109500D01*
X69269000Y-36566500D01*
X70177000Y-36566500D01*
X70177000Y-38109500D01*
X70177000Y-38109500D01*
G37*
G36*
X71447000Y-38109500D02*
X70539000Y-38109500D01*
X70539000Y-36566500D01*
X71447000Y-36566500D01*
X71447000Y-38109500D01*
X71447000Y-38109500D01*
G37*
G36*
X75257000Y-38109500D02*
X74349000Y-38109500D01*
X74349000Y-36566500D01*
X75257000Y-36566500D01*
X75257000Y-38109500D01*
X75257000Y-38109500D01*
G37*
G36*
X76527000Y-38109500D02*
X75619000Y-38109500D01*
X75619000Y-36566500D01*
X76527000Y-36566500D01*
X76527000Y-38109500D01*
X76527000Y-38109500D01*
G37*
G36*
X49942000Y-37938000D02*
X48642000Y-37938000D01*
X48642000Y-36738000D01*
X49942000Y-36738000D01*
X49942000Y-37938000D01*
X49942000Y-37938000D01*
G37*
G36*
X57159500Y-37919000D02*
X55616500Y-37919000D01*
X55616500Y-37011000D01*
X57159500Y-37011000D01*
X57159500Y-37919000D01*
X57159500Y-37919000D01*
G37*
G36*
X63509500Y-37919000D02*
X61966500Y-37919000D01*
X61966500Y-37011000D01*
X63509500Y-37011000D01*
X63509500Y-37919000D01*
X63509500Y-37919000D01*
G37*
G36*
X84561903Y-35019789D02*
X84762391Y-35080607D01*
X84947164Y-35179369D01*
X85109118Y-35312282D01*
X85242031Y-35474236D01*
X85340793Y-35659009D01*
X85401611Y-35859497D01*
X85422146Y-36068000D01*
X85401611Y-36276503D01*
X85340793Y-36476991D01*
X85242031Y-36661764D01*
X85109118Y-36823718D01*
X84947164Y-36956631D01*
X84762391Y-37055393D01*
X84561903Y-37116211D01*
X84405651Y-37131600D01*
X83996349Y-37131600D01*
X83840097Y-37116211D01*
X83639609Y-37055393D01*
X83454836Y-36956631D01*
X83292882Y-36823718D01*
X83159969Y-36661764D01*
X83061207Y-36476991D01*
X83000389Y-36276503D01*
X82979854Y-36068000D01*
X83000389Y-35859497D01*
X83061207Y-35659009D01*
X83159969Y-35474236D01*
X83292882Y-35312282D01*
X83454836Y-35179369D01*
X83639609Y-35080607D01*
X83840097Y-35019789D01*
X83996349Y-35004400D01*
X84405651Y-35004400D01*
X84561903Y-35019789D01*
X84561903Y-35019789D01*
G37*
G36*
X35412903Y-35019789D02*
X35613391Y-35080607D01*
X35798164Y-35179369D01*
X35960118Y-35312282D01*
X36093031Y-35474236D01*
X36191793Y-35659009D01*
X36252611Y-35859497D01*
X36273146Y-36068000D01*
X36252611Y-36276503D01*
X36191793Y-36476991D01*
X36093031Y-36661764D01*
X35960118Y-36823718D01*
X35798164Y-36956631D01*
X35613391Y-37055393D01*
X35412903Y-37116211D01*
X35256651Y-37131600D01*
X34847349Y-37131600D01*
X34691097Y-37116211D01*
X34490609Y-37055393D01*
X34305836Y-36956631D01*
X34143882Y-36823718D01*
X34010969Y-36661764D01*
X33912207Y-36476991D01*
X33851389Y-36276503D01*
X33830854Y-36068000D01*
X33851389Y-35859497D01*
X33912207Y-35659009D01*
X34010969Y-35474236D01*
X34143882Y-35312282D01*
X34305836Y-35179369D01*
X34490609Y-35080607D01*
X34691097Y-35019789D01*
X34847349Y-35004400D01*
X35256651Y-35004400D01*
X35412903Y-35019789D01*
X35412903Y-35019789D01*
G37*
G36*
X51942000Y-36988000D02*
X50642000Y-36988000D01*
X50642000Y-35788000D01*
X51942000Y-35788000D01*
X51942000Y-36988000D01*
X51942000Y-36988000D01*
G37*
G36*
X47402000Y-36856000D02*
X46102000Y-36856000D01*
X46102000Y-35656000D01*
X47402000Y-35656000D01*
X47402000Y-36856000D01*
X47402000Y-36856000D01*
G37*
G36*
X57159500Y-36649000D02*
X55616500Y-36649000D01*
X55616500Y-35741000D01*
X57159500Y-35741000D01*
X57159500Y-36649000D01*
X57159500Y-36649000D01*
G37*
G36*
X63509500Y-36649000D02*
X61966500Y-36649000D01*
X61966500Y-35741000D01*
X63509500Y-35741000D01*
X63509500Y-36649000D01*
X63509500Y-36649000D01*
G37*
G36*
X41182000Y-36136000D02*
X39082000Y-36136000D01*
X39082000Y-34836000D01*
X41182000Y-34836000D01*
X41182000Y-36136000D01*
X41182000Y-36136000D01*
G37*
G36*
X49402000Y-35906000D02*
X48102000Y-35906000D01*
X48102000Y-34706000D01*
X49402000Y-34706000D01*
X49402000Y-35906000D01*
X49402000Y-35906000D01*
G37*
G36*
X45788000Y-35721000D02*
X44488000Y-35721000D01*
X44488000Y-33621000D01*
X45788000Y-33621000D01*
X45788000Y-35721000D01*
X45788000Y-35721000D01*
G37*
G36*
X42888000Y-35721000D02*
X41588000Y-35721000D01*
X41588000Y-33621000D01*
X42888000Y-33621000D01*
X42888000Y-35721000D01*
X42888000Y-35721000D01*
G37*
G36*
X63509500Y-35379000D02*
X61966500Y-35379000D01*
X61966500Y-34471000D01*
X63509500Y-34471000D01*
X63509500Y-35379000D01*
X63509500Y-35379000D01*
G37*
G36*
X57159500Y-35379000D02*
X55616500Y-35379000D01*
X55616500Y-34471000D01*
X57159500Y-34471000D01*
X57159500Y-35379000D01*
X57159500Y-35379000D01*
G37*
G36*
X47402000Y-34956000D02*
X46102000Y-34956000D01*
X46102000Y-33756000D01*
X47402000Y-33756000D01*
X47402000Y-34956000D01*
X47402000Y-34956000D01*
G37*
G36*
X84561903Y-32479789D02*
X84762391Y-32540607D01*
X84947164Y-32639369D01*
X85109118Y-32772282D01*
X85242031Y-32934236D01*
X85340793Y-33119009D01*
X85401611Y-33319497D01*
X85422146Y-33528000D01*
X85401611Y-33736503D01*
X85340793Y-33936991D01*
X85242031Y-34121764D01*
X85109118Y-34283718D01*
X84947164Y-34416631D01*
X84762391Y-34515393D01*
X84561903Y-34576211D01*
X84405651Y-34591600D01*
X83996349Y-34591600D01*
X83840097Y-34576211D01*
X83639609Y-34515393D01*
X83454836Y-34416631D01*
X83292882Y-34283718D01*
X83159969Y-34121764D01*
X83061207Y-33936991D01*
X83000389Y-33736503D01*
X82979854Y-33528000D01*
X83000389Y-33319497D01*
X83061207Y-33119009D01*
X83159969Y-32934236D01*
X83292882Y-32772282D01*
X83454836Y-32639369D01*
X83639609Y-32540607D01*
X83840097Y-32479789D01*
X83996349Y-32464400D01*
X84405651Y-32464400D01*
X84561903Y-32479789D01*
X84561903Y-32479789D01*
G37*
G36*
X35412903Y-32479789D02*
X35613391Y-32540607D01*
X35798164Y-32639369D01*
X35960118Y-32772282D01*
X36093031Y-32934236D01*
X36191793Y-33119009D01*
X36252611Y-33319497D01*
X36273146Y-33528000D01*
X36252611Y-33736503D01*
X36191793Y-33936991D01*
X36093031Y-34121764D01*
X35960118Y-34283718D01*
X35798164Y-34416631D01*
X35613391Y-34515393D01*
X35412903Y-34576211D01*
X35256651Y-34591600D01*
X34847349Y-34591600D01*
X34691097Y-34576211D01*
X34490609Y-34515393D01*
X34305836Y-34416631D01*
X34143882Y-34283718D01*
X34010969Y-34121764D01*
X33912207Y-33936991D01*
X33851389Y-33736503D01*
X33830854Y-33528000D01*
X33851389Y-33319497D01*
X33912207Y-33119009D01*
X34010969Y-32934236D01*
X34143882Y-32772282D01*
X34305836Y-32639369D01*
X34490609Y-32540607D01*
X34691097Y-32479789D01*
X34847349Y-32464400D01*
X35256651Y-32464400D01*
X35412903Y-32479789D01*
X35412903Y-32479789D01*
G37*
G36*
X63509500Y-34109000D02*
X61966500Y-34109000D01*
X61966500Y-33201000D01*
X63509500Y-33201000D01*
X63509500Y-34109000D01*
X63509500Y-34109000D01*
G37*
G36*
X57159500Y-34109000D02*
X55616500Y-34109000D01*
X55616500Y-33201000D01*
X57159500Y-33201000D01*
X57159500Y-34109000D01*
X57159500Y-34109000D01*
G37*
G36*
X82407000Y-33696000D02*
X80407000Y-33696000D01*
X80407000Y-32296000D01*
X82407000Y-32296000D01*
X82407000Y-33696000D01*
X82407000Y-33696000D01*
G37*
G36*
X41182000Y-33236000D02*
X39082000Y-33236000D01*
X39082000Y-31936000D01*
X41182000Y-31936000D01*
X41182000Y-33236000D01*
X41182000Y-33236000D01*
G37*
G36*
X50265000Y-24540000D02*
X50267402Y-24564386D01*
X50274515Y-24587835D01*
X50286066Y-24609446D01*
X50301612Y-24628388D01*
X50320554Y-24643934D01*
X50342165Y-24655485D01*
X50365614Y-24662598D01*
X50390000Y-24665000D01*
X52240000Y-24665000D01*
X52240000Y-31215000D01*
X50390000Y-31215000D01*
X50365614Y-31217402D01*
X50342165Y-31224515D01*
X50320554Y-31236066D01*
X50301612Y-31251612D01*
X50286066Y-31270554D01*
X50274515Y-31292165D01*
X50267402Y-31315614D01*
X50265000Y-31340000D01*
X50265000Y-33190000D01*
X43715000Y-33190000D01*
X43715000Y-31340000D01*
X43712598Y-31315614D01*
X43705485Y-31292165D01*
X43693934Y-31270554D01*
X43678388Y-31251612D01*
X43659446Y-31236066D01*
X43637835Y-31224515D01*
X43614386Y-31217402D01*
X43590000Y-31215000D01*
X41740000Y-31215000D01*
X41740000Y-24815000D01*
X43740000Y-24815000D01*
X43740000Y-31065000D01*
X43742402Y-31089386D01*
X43749515Y-31112835D01*
X43761066Y-31134446D01*
X43776612Y-31153388D01*
X43795554Y-31168934D01*
X43817165Y-31180485D01*
X43840614Y-31187598D01*
X43865000Y-31190000D01*
X50115000Y-31190000D01*
X50139386Y-31187598D01*
X50162835Y-31180485D01*
X50184446Y-31168934D01*
X50203388Y-31153388D01*
X50218934Y-31134446D01*
X50230485Y-31112835D01*
X50237598Y-31089386D01*
X50240000Y-31065000D01*
X50240000Y-24815000D01*
X50237598Y-24790614D01*
X50230485Y-24767165D01*
X50218934Y-24745554D01*
X50203388Y-24726612D01*
X50184446Y-24711066D01*
X50162835Y-24699515D01*
X50139386Y-24692402D01*
X50115000Y-24690000D01*
X43865000Y-24690000D01*
X43840614Y-24692402D01*
X43817165Y-24699515D01*
X43795554Y-24711066D01*
X43776612Y-24726612D01*
X43761066Y-24745554D01*
X43749515Y-24767165D01*
X43742402Y-24790614D01*
X43740000Y-24815000D01*
X41740000Y-24815000D01*
X41740000Y-24665000D01*
X43590000Y-24665000D01*
X43614386Y-24662598D01*
X43637835Y-24655485D01*
X43659446Y-24643934D01*
X43678388Y-24628388D01*
X43693934Y-24609446D01*
X43705485Y-24587835D01*
X43712598Y-24564386D01*
X43715000Y-24540000D01*
X43715000Y-22690000D01*
X50265000Y-22690000D01*
X50265000Y-24540000D01*
X50265000Y-24540000D01*
G37*
G36*
X63509500Y-32839000D02*
X61966500Y-32839000D01*
X61966500Y-31931000D01*
X63509500Y-31931000D01*
X63509500Y-32839000D01*
X63509500Y-32839000D01*
G37*
G36*
X57159500Y-32839000D02*
X55616500Y-32839000D01*
X55616500Y-31931000D01*
X57159500Y-31931000D01*
X57159500Y-32839000D01*
X57159500Y-32839000D01*
G37*
G36*
X85417000Y-32051600D02*
X82985000Y-32051600D01*
X82985000Y-29924400D01*
X85417000Y-29924400D01*
X85417000Y-32051600D01*
X85417000Y-32051600D01*
G37*
G36*
X36268000Y-32051600D02*
X33836000Y-32051600D01*
X33836000Y-29924400D01*
X36268000Y-29924400D01*
X36268000Y-32051600D01*
X36268000Y-32051600D01*
G37*
G36*
X71447000Y-31759500D02*
X70539000Y-31759500D01*
X70539000Y-30216500D01*
X71447000Y-30216500D01*
X71447000Y-31759500D01*
X71447000Y-31759500D01*
G37*
G36*
X68907000Y-31759500D02*
X67999000Y-31759500D01*
X67999000Y-30216500D01*
X68907000Y-30216500D01*
X68907000Y-31759500D01*
X68907000Y-31759500D01*
G37*
G36*
X75257000Y-31759500D02*
X74349000Y-31759500D01*
X74349000Y-30216500D01*
X75257000Y-30216500D01*
X75257000Y-31759500D01*
X75257000Y-31759500D01*
G37*
G36*
X73987000Y-31759500D02*
X73079000Y-31759500D01*
X73079000Y-30216500D01*
X73987000Y-30216500D01*
X73987000Y-31759500D01*
X73987000Y-31759500D01*
G37*
G36*
X72717000Y-31759500D02*
X71809000Y-31759500D01*
X71809000Y-30216500D01*
X72717000Y-30216500D01*
X72717000Y-31759500D01*
X72717000Y-31759500D01*
G37*
G36*
X70177000Y-31759500D02*
X69269000Y-31759500D01*
X69269000Y-30216500D01*
X70177000Y-30216500D01*
X70177000Y-31759500D01*
X70177000Y-31759500D01*
G37*
G36*
X76527000Y-31759500D02*
X75619000Y-31759500D01*
X75619000Y-30216500D01*
X76527000Y-30216500D01*
X76527000Y-31759500D01*
X76527000Y-31759500D01*
G37*
G36*
X63509500Y-31569000D02*
X61966500Y-31569000D01*
X61966500Y-30661000D01*
X63509500Y-30661000D01*
X63509500Y-31569000D01*
X63509500Y-31569000D01*
G37*
G36*
X57159500Y-31569000D02*
X55616500Y-31569000D01*
X55616500Y-30661000D01*
X57159500Y-30661000D01*
X57159500Y-31569000D01*
X57159500Y-31569000D01*
G37*
G36*
X41182000Y-31310000D02*
X39082000Y-31310000D01*
X39082000Y-30010000D01*
X41182000Y-30010000D01*
X41182000Y-31310000D01*
X41182000Y-31310000D01*
G37*
G36*
X82407000Y-30696000D02*
X80407000Y-30696000D01*
X80407000Y-29296000D01*
X82407000Y-29296000D01*
X82407000Y-30696000D01*
X82407000Y-30696000D01*
G37*
G36*
X63509500Y-30299000D02*
X61966500Y-30299000D01*
X61966500Y-29391000D01*
X63509500Y-29391000D01*
X63509500Y-30299000D01*
X63509500Y-30299000D01*
G37*
G36*
X57159500Y-30299000D02*
X55616500Y-30299000D01*
X55616500Y-29391000D01*
X57159500Y-29391000D01*
X57159500Y-30299000D01*
X57159500Y-30299000D01*
G37*
G36*
X76543000Y-29575000D02*
X75143000Y-29575000D01*
X75143000Y-27572412D01*
X75165835Y-27565485D01*
X75187446Y-27553934D01*
X75206388Y-27538388D01*
X75221934Y-27519446D01*
X75233485Y-27497835D01*
X75240598Y-27474386D01*
X75243000Y-27450000D01*
X75243000Y-23715000D01*
X76543000Y-23715000D01*
X76543000Y-29575000D01*
X76543000Y-29575000D01*
G37*
G36*
X71823000Y-27450000D02*
X71825402Y-27474386D01*
X71832515Y-27497835D01*
X71844066Y-27519446D01*
X71859612Y-27538388D01*
X71878554Y-27553934D01*
X71900165Y-27565485D01*
X71923000Y-27572412D01*
X71923000Y-29575000D01*
X70523000Y-29575000D01*
X70523000Y-23715000D01*
X71823000Y-23715000D01*
X71823000Y-27450000D01*
X71823000Y-27450000D01*
G37*
G36*
X68923000Y-29575000D02*
X67523000Y-29575000D01*
X67523000Y-27572412D01*
X67545835Y-27565485D01*
X67567446Y-27553934D01*
X67586388Y-27538388D01*
X67601934Y-27519446D01*
X67613485Y-27497835D01*
X67620598Y-27474386D01*
X67623000Y-27450000D01*
X67623000Y-23715000D01*
X68923000Y-23715000D01*
X68923000Y-29575000D01*
X68923000Y-29575000D01*
G37*
G36*
X79443000Y-27450000D02*
X79445402Y-27474386D01*
X79452515Y-27497835D01*
X79464066Y-27519446D01*
X79479612Y-27538388D01*
X79498554Y-27553934D01*
X79520165Y-27565485D01*
X79543000Y-27572412D01*
X79543000Y-29575000D01*
X78143000Y-29575000D01*
X78143000Y-23715000D01*
X79443000Y-23715000D01*
X79443000Y-27450000D01*
X79443000Y-27450000D01*
G37*
G36*
X63509500Y-29029000D02*
X61966500Y-29029000D01*
X61966500Y-28121000D01*
X63509500Y-28121000D01*
X63509500Y-29029000D01*
X63509500Y-29029000D01*
G37*
G36*
X57159500Y-29029000D02*
X55616500Y-29029000D01*
X55616500Y-28121000D01*
X57159500Y-28121000D01*
X57159500Y-29029000D01*
X57159500Y-29029000D01*
G37*
G36*
X41182000Y-28410000D02*
X39082000Y-28410000D01*
X39082000Y-27110000D01*
X41182000Y-27110000D01*
X41182000Y-28410000D01*
X41182000Y-28410000D01*
G37*
G36*
X58708000Y-26865000D02*
X54703000Y-26865000D01*
X54703000Y-25565000D01*
X58708000Y-25565000D01*
X58708000Y-26865000D01*
X58708000Y-26865000D01*
G37*
G36*
X64423000Y-26865000D02*
X60418000Y-26865000D01*
X60418000Y-25565000D01*
X64423000Y-25565000D01*
X64423000Y-26865000D01*
X64423000Y-26865000D01*
G37*
G36*
X41182000Y-26484000D02*
X39082000Y-26484000D01*
X39082000Y-25184000D01*
X41182000Y-25184000D01*
X41182000Y-26484000D01*
X41182000Y-26484000D01*
G37*
G36*
X83818196Y-22752958D02*
X84054780Y-22850954D01*
X84267705Y-22993226D01*
X84448774Y-23174295D01*
X84591046Y-23387220D01*
X84689042Y-23623804D01*
X84739000Y-23874960D01*
X84739000Y-24131040D01*
X84689042Y-24382196D01*
X84591046Y-24618780D01*
X84448774Y-24831705D01*
X84267705Y-25012774D01*
X84054780Y-25155046D01*
X83818196Y-25253042D01*
X83567040Y-25303000D01*
X83310960Y-25303000D01*
X83059804Y-25253042D01*
X82823220Y-25155046D01*
X82610295Y-25012774D01*
X82429226Y-24831705D01*
X82286954Y-24618780D01*
X82188958Y-24382196D01*
X82139000Y-24131040D01*
X82139000Y-23874960D01*
X82188958Y-23623804D01*
X82286954Y-23387220D01*
X82429226Y-23174295D01*
X82610295Y-22993226D01*
X82823220Y-22850954D01*
X83059804Y-22752958D01*
X83310960Y-22703000D01*
X83567040Y-22703000D01*
X83818196Y-22752958D01*
X83818196Y-22752958D01*
G37*
G36*
X64423000Y-23965000D02*
X60418000Y-23965000D01*
X60418000Y-22665000D01*
X64423000Y-22665000D01*
X64423000Y-23965000D01*
X64423000Y-23965000D01*
G37*
G36*
X58708000Y-23965000D02*
X54703000Y-23965000D01*
X54703000Y-22665000D01*
X58708000Y-22665000D01*
X58708000Y-23965000D01*
X58708000Y-23965000D01*
G37*
G36*
X34760000Y-23860000D02*
X33360000Y-23860000D01*
X33360000Y-21860000D01*
X34760000Y-21860000D01*
X34760000Y-23860000D01*
X34760000Y-23860000D01*
G37*
G36*
X37760000Y-23860000D02*
X36360000Y-23860000D01*
X36360000Y-21860000D01*
X37760000Y-21860000D01*
X37760000Y-23860000D01*
X37760000Y-23860000D01*
G37*
G36*
X41182000Y-23584000D02*
X39082000Y-23584000D01*
X39082000Y-22284000D01*
X41182000Y-22284000D01*
X41182000Y-23584000D01*
X41182000Y-23584000D01*
G37*
M02*
