G04 #@! TF.GenerationSoftware,KiCad,Pcbnew,5.0.2+dfsg1-1*
G04 #@! TF.CreationDate,2019-03-09T11:54:22-07:00*
G04 #@! TF.ProjectId,1x7seg_4btn,31783773-6567-45f3-9462-746e2e6b6963,rev?*
G04 #@! TF.SameCoordinates,Original*
G04 #@! TF.FileFunction,Paste,Bot*
G04 #@! TF.FilePolarity,Positive*
%FSLAX46Y46*%
G04 Gerber Fmt 4.6, Leading zero omitted, Abs format (unit mm)*
G04 Created by KiCad (PCBNEW 5.0.2+dfsg1-1) date Sat 09 Mar 2019 11:54:22 AM MST*
%MOMM*%
%LPD*%
G01*
G04 APERTURE LIST*
%ADD10R,0.550000X1.600000*%
%ADD11R,1.600000X0.550000*%
%ADD12R,0.900000X1.700000*%
%ADD13R,1.000000X1.600000*%
%ADD14R,1.600000X1.000000*%
%ADD15R,3.600000X1.270000*%
%ADD16R,0.900000X0.800000*%
%ADD17R,1.700000X0.900000*%
%ADD18R,0.508000X1.143000*%
%ADD19R,1.143000X0.508000*%
G04 APERTURE END LIST*
D10*
G04 #@! TO.C,IC1*
X44190000Y-23690000D03*
X44990000Y-23690000D03*
X45790000Y-23690000D03*
X46590000Y-23690000D03*
X47390000Y-23690000D03*
X48190000Y-23690000D03*
X48990000Y-23690000D03*
X49790000Y-23690000D03*
D11*
X51240000Y-25140000D03*
X51240000Y-25940000D03*
X51240000Y-26740000D03*
X51240000Y-27540000D03*
X51240000Y-28340000D03*
X51240000Y-29140000D03*
X51240000Y-29940000D03*
X51240000Y-30740000D03*
D10*
X49790000Y-32190000D03*
X48990000Y-32190000D03*
X48190000Y-32190000D03*
X47390000Y-32190000D03*
X46590000Y-32190000D03*
X45790000Y-32190000D03*
X44990000Y-32190000D03*
X44190000Y-32190000D03*
D11*
X42740000Y-30740000D03*
X42740000Y-29940000D03*
X42740000Y-29140000D03*
X42740000Y-28340000D03*
X42740000Y-27540000D03*
X42740000Y-26740000D03*
X42740000Y-25940000D03*
X42740000Y-25140000D03*
G04 #@! TD*
D12*
G04 #@! TO.C,R17*
X71173000Y-43815000D03*
X68273000Y-43815000D03*
G04 #@! TD*
D13*
G04 #@! TO.C,C1*
X34060000Y-22860000D03*
X37060000Y-22860000D03*
G04 #@! TD*
G04 #@! TO.C,C2*
X71223000Y-28575000D03*
X68223000Y-28575000D03*
G04 #@! TD*
D14*
G04 #@! TO.C,C3*
X81407000Y-29996000D03*
X81407000Y-32996000D03*
G04 #@! TD*
D13*
G04 #@! TO.C,C4*
X78843000Y-28575000D03*
X75843000Y-28575000D03*
G04 #@! TD*
G04 #@! TO.C,C7*
X75843000Y-40005000D03*
X78843000Y-40005000D03*
G04 #@! TD*
G04 #@! TO.C,C8*
X68223000Y-40005000D03*
X71223000Y-40005000D03*
G04 #@! TD*
D15*
G04 #@! TO.C,CON1*
X48031000Y-39243000D03*
X48031000Y-41783000D03*
X48031000Y-44323000D03*
X41631000Y-44323000D03*
X41631000Y-41783000D03*
X41631000Y-39243000D03*
G04 #@! TD*
D16*
G04 #@! TO.C,Q1*
X51292000Y-36388000D03*
X51292000Y-38288000D03*
X49292000Y-37338000D03*
G04 #@! TD*
G04 #@! TO.C,Q2*
X46752000Y-36256000D03*
X46752000Y-34356000D03*
X48752000Y-35306000D03*
G04 #@! TD*
G04 #@! TO.C,Q3*
X64373000Y-42865000D03*
X64373000Y-44765000D03*
X62373000Y-43815000D03*
G04 #@! TD*
D12*
G04 #@! TO.C,R1*
X68273000Y-26670000D03*
X71173000Y-26670000D03*
G04 #@! TD*
G04 #@! TO.C,R2*
X75893000Y-26670000D03*
X78793000Y-26670000D03*
G04 #@! TD*
G04 #@! TO.C,R5*
X78793000Y-41910000D03*
X75893000Y-41910000D03*
G04 #@! TD*
G04 #@! TO.C,R6*
X71173000Y-41910000D03*
X68273000Y-41910000D03*
G04 #@! TD*
D17*
G04 #@! TO.C,R9*
X40132000Y-22934000D03*
X40132000Y-25834000D03*
G04 #@! TD*
D12*
G04 #@! TO.C,R12*
X68273000Y-24765000D03*
X71173000Y-24765000D03*
G04 #@! TD*
G04 #@! TO.C,R13*
X75893000Y-24765000D03*
X78793000Y-24765000D03*
G04 #@! TD*
G04 #@! TO.C,R16*
X78793000Y-43815000D03*
X75893000Y-43815000D03*
G04 #@! TD*
G04 #@! TO.C,R18*
X45138000Y-34671000D03*
X42238000Y-34671000D03*
G04 #@! TD*
G04 #@! TO.C,R19*
X45138000Y-37084000D03*
X42238000Y-37084000D03*
G04 #@! TD*
D17*
G04 #@! TO.C,R20*
X40132000Y-35486000D03*
X40132000Y-32586000D03*
G04 #@! TD*
G04 #@! TO.C,R21*
X40132000Y-27760000D03*
X40132000Y-30660000D03*
G04 #@! TD*
G04 #@! TO.C,R24*
X57658000Y-23315000D03*
X57658000Y-26215000D03*
G04 #@! TD*
G04 #@! TO.C,R25*
X55753000Y-23315000D03*
X55753000Y-26215000D03*
G04 #@! TD*
G04 #@! TO.C,R26*
X55753000Y-42725000D03*
X55753000Y-39825000D03*
G04 #@! TD*
G04 #@! TO.C,R27*
X57658000Y-42725000D03*
X57658000Y-39825000D03*
G04 #@! TD*
G04 #@! TO.C,R28*
X61468000Y-42725000D03*
X61468000Y-39825000D03*
G04 #@! TD*
G04 #@! TO.C,R29*
X63373000Y-23315000D03*
X63373000Y-26215000D03*
G04 #@! TD*
G04 #@! TO.C,R30*
X61468000Y-23315000D03*
X61468000Y-26215000D03*
G04 #@! TD*
D12*
G04 #@! TO.C,R52*
X57478000Y-44450000D03*
X60378000Y-44450000D03*
G04 #@! TD*
D18*
G04 #@! TO.C,U1*
X68453000Y-30988000D03*
X69723000Y-30988000D03*
X70993000Y-30988000D03*
X72263000Y-30988000D03*
X73533000Y-30988000D03*
X74803000Y-30988000D03*
X76073000Y-30988000D03*
X76073000Y-37338000D03*
X74803000Y-37338000D03*
X72263000Y-37338000D03*
X70993000Y-37338000D03*
X69723000Y-37338000D03*
X68453000Y-37338000D03*
X73533000Y-37338000D03*
G04 #@! TD*
D19*
G04 #@! TO.C,U10*
X62738000Y-37465000D03*
X62738000Y-34925000D03*
X62738000Y-33655000D03*
X62738000Y-32385000D03*
X62738000Y-31115000D03*
X62738000Y-29845000D03*
X62738000Y-28575000D03*
X56388000Y-28575000D03*
X56388000Y-29845000D03*
X56388000Y-31115000D03*
X56388000Y-32385000D03*
X56388000Y-33655000D03*
X56388000Y-34925000D03*
X56388000Y-36195000D03*
X56388000Y-37465000D03*
X62738000Y-36195000D03*
G04 #@! TD*
M02*
