G04 #@! TF.FileFunction,Soldermask,Bot*
%FSLAX46Y46*%
G04 Gerber Fmt 4.6, Leading zero omitted, Abs format (unit mm)*
G04 Created by KiCad (PCBNEW 4.0.5+dfsg1-4) date Mon Sep 10 20:21:19 2018*
%MOMM*%
%LPD*%
G01*
G04 APERTURE LIST*
%ADD10C,0.100000*%
%ADD11R,0.950000X2.000000*%
%ADD12R,2.000000X0.950000*%
%ADD13R,1.300000X2.100000*%
%ADD14R,1.400000X2.000000*%
%ADD15R,2.000000X1.400000*%
%ADD16R,4.000000X1.670000*%
%ADD17R,1.300000X1.200000*%
%ADD18R,2.100000X1.300000*%
%ADD19R,0.908000X1.543000*%
%ADD20R,2.432000X2.127200*%
%ADD21O,2.432000X2.127200*%
%ADD22R,1.543000X0.908000*%
%ADD23C,2.600000*%
G04 APERTURE END LIST*
D10*
D11*
X44190000Y-23690000D03*
X44990000Y-23690000D03*
X45790000Y-23690000D03*
X46590000Y-23690000D03*
X47390000Y-23690000D03*
X48190000Y-23690000D03*
X48990000Y-23690000D03*
X49790000Y-23690000D03*
D12*
X51240000Y-25140000D03*
X51240000Y-25940000D03*
X51240000Y-26740000D03*
X51240000Y-27540000D03*
X51240000Y-28340000D03*
X51240000Y-29140000D03*
X51240000Y-29940000D03*
X51240000Y-30740000D03*
D11*
X49790000Y-32190000D03*
X48990000Y-32190000D03*
X48190000Y-32190000D03*
X47390000Y-32190000D03*
X46590000Y-32190000D03*
X45790000Y-32190000D03*
X44990000Y-32190000D03*
X44190000Y-32190000D03*
D12*
X42740000Y-30740000D03*
X42740000Y-29940000D03*
X42740000Y-29140000D03*
X42740000Y-28340000D03*
X42740000Y-27540000D03*
X42740000Y-26740000D03*
X42740000Y-25940000D03*
X42740000Y-25140000D03*
D13*
X71173000Y-43815000D03*
X68273000Y-43815000D03*
D14*
X34060000Y-22860000D03*
X37060000Y-22860000D03*
X71223000Y-28575000D03*
X68223000Y-28575000D03*
D15*
X81407000Y-29996000D03*
X81407000Y-32996000D03*
D14*
X78843000Y-28575000D03*
X75843000Y-28575000D03*
X75843000Y-40005000D03*
X78843000Y-40005000D03*
X68223000Y-40005000D03*
X71223000Y-40005000D03*
D16*
X48031000Y-39243000D03*
X48031000Y-41783000D03*
X48031000Y-44323000D03*
X41631000Y-44323000D03*
X41631000Y-41783000D03*
X41631000Y-39243000D03*
D17*
X51292000Y-36388000D03*
X51292000Y-38288000D03*
X49292000Y-37338000D03*
X46752000Y-36256000D03*
X46752000Y-34356000D03*
X48752000Y-35306000D03*
X64373000Y-42865000D03*
X64373000Y-44765000D03*
X62373000Y-43815000D03*
D13*
X68273000Y-26670000D03*
X71173000Y-26670000D03*
X75893000Y-26670000D03*
X78793000Y-26670000D03*
X78793000Y-41910000D03*
X75893000Y-41910000D03*
X71173000Y-41910000D03*
X68273000Y-41910000D03*
D18*
X40132000Y-22934000D03*
X40132000Y-25834000D03*
D13*
X68273000Y-24765000D03*
X71173000Y-24765000D03*
X75893000Y-24765000D03*
X78793000Y-24765000D03*
X78793000Y-43815000D03*
X75893000Y-43815000D03*
X45138000Y-34671000D03*
X42238000Y-34671000D03*
X45138000Y-37084000D03*
X42238000Y-37084000D03*
D18*
X40132000Y-35486000D03*
X40132000Y-32586000D03*
X40132000Y-27760000D03*
X40132000Y-30660000D03*
X57658000Y-23315000D03*
X57658000Y-26215000D03*
X55753000Y-23315000D03*
X55753000Y-26215000D03*
X55753000Y-42725000D03*
X55753000Y-39825000D03*
X57658000Y-42725000D03*
X57658000Y-39825000D03*
X61468000Y-42725000D03*
X61468000Y-39825000D03*
X63373000Y-23315000D03*
X63373000Y-26215000D03*
X61468000Y-23315000D03*
X61468000Y-26215000D03*
D13*
X57478000Y-44450000D03*
X60378000Y-44450000D03*
D19*
X68453000Y-30988000D03*
X69723000Y-30988000D03*
X70993000Y-30988000D03*
X72263000Y-30988000D03*
X73533000Y-30988000D03*
X74803000Y-30988000D03*
X76073000Y-30988000D03*
X76073000Y-37338000D03*
X74803000Y-37338000D03*
X72263000Y-37338000D03*
X70993000Y-37338000D03*
X69723000Y-37338000D03*
X68453000Y-37338000D03*
X73533000Y-37338000D03*
D20*
X84201000Y-30988000D03*
D21*
X84201000Y-33528000D03*
X84201000Y-36068000D03*
X84201000Y-38608000D03*
D20*
X35052000Y-30988000D03*
D21*
X35052000Y-33528000D03*
X35052000Y-36068000D03*
X35052000Y-38608000D03*
D22*
X62738000Y-37465000D03*
X62738000Y-34925000D03*
X62738000Y-33655000D03*
X62738000Y-32385000D03*
X62738000Y-31115000D03*
X62738000Y-29845000D03*
X62738000Y-28575000D03*
X56388000Y-28575000D03*
X56388000Y-29845000D03*
X56388000Y-31115000D03*
X56388000Y-32385000D03*
X56388000Y-33655000D03*
X56388000Y-34925000D03*
X56388000Y-36195000D03*
X56388000Y-37465000D03*
X62738000Y-36195000D03*
D23*
X35560000Y-44577000D03*
X83439000Y-24003000D03*
X83439000Y-44577000D03*
M02*
