G04 #@! TF.GenerationSoftware,KiCad,Pcbnew,5.0.2+dfsg1-1*
G04 #@! TF.CreationDate,2019-03-09T11:54:22-07:00*
G04 #@! TF.ProjectId,1x7seg_4btn,31783773-6567-45f3-9462-746e2e6b6963,rev?*
G04 #@! TF.SameCoordinates,Original*
G04 #@! TF.FileFunction,Soldermask,Top*
G04 #@! TF.FilePolarity,Negative*
%FSLAX46Y46*%
G04 Gerber Fmt 4.6, Leading zero omitted, Abs format (unit mm)*
G04 Created by KiCad (PCBNEW 5.0.2+dfsg1-1) date Sat 09 Mar 2019 11:54:22 AM MST*
%MOMM*%
%LPD*%
G01*
G04 APERTURE LIST*
%ADD10C,0.100000*%
G04 APERTURE END LIST*
D10*
G36*
X83818196Y-43326958D02*
X84054780Y-43424954D01*
X84267705Y-43567226D01*
X84448774Y-43748295D01*
X84591046Y-43961220D01*
X84689042Y-44197804D01*
X84739000Y-44448960D01*
X84739000Y-44705040D01*
X84689042Y-44956196D01*
X84591046Y-45192780D01*
X84448774Y-45405705D01*
X84267705Y-45586774D01*
X84054780Y-45729046D01*
X83818196Y-45827042D01*
X83567040Y-45877000D01*
X83310960Y-45877000D01*
X83059804Y-45827042D01*
X82823220Y-45729046D01*
X82610295Y-45586774D01*
X82429226Y-45405705D01*
X82286954Y-45192780D01*
X82188958Y-44956196D01*
X82139000Y-44705040D01*
X82139000Y-44448960D01*
X82188958Y-44197804D01*
X82286954Y-43961220D01*
X82429226Y-43748295D01*
X82610295Y-43567226D01*
X82823220Y-43424954D01*
X83059804Y-43326958D01*
X83310960Y-43277000D01*
X83567040Y-43277000D01*
X83818196Y-43326958D01*
X83818196Y-43326958D01*
G37*
G36*
X35939196Y-43326958D02*
X36175780Y-43424954D01*
X36388705Y-43567226D01*
X36569774Y-43748295D01*
X36712046Y-43961220D01*
X36810042Y-44197804D01*
X36860000Y-44448960D01*
X36860000Y-44705040D01*
X36810042Y-44956196D01*
X36712046Y-45192780D01*
X36569774Y-45405705D01*
X36388705Y-45586774D01*
X36175780Y-45729046D01*
X35939196Y-45827042D01*
X35688040Y-45877000D01*
X35431960Y-45877000D01*
X35180804Y-45827042D01*
X34944220Y-45729046D01*
X34731295Y-45586774D01*
X34550226Y-45405705D01*
X34407954Y-45192780D01*
X34309958Y-44956196D01*
X34260000Y-44705040D01*
X34260000Y-44448960D01*
X34309958Y-44197804D01*
X34407954Y-43961220D01*
X34550226Y-43748295D01*
X34731295Y-43567226D01*
X34944220Y-43424954D01*
X35180804Y-43326958D01*
X35431960Y-43277000D01*
X35688040Y-43277000D01*
X35939196Y-43326958D01*
X35939196Y-43326958D01*
G37*
G36*
X72273000Y-43843000D02*
X67173000Y-43843000D01*
X67173000Y-40993000D01*
X72273000Y-40993000D01*
X72273000Y-43843000D01*
X72273000Y-43843000D01*
G37*
G36*
X79893000Y-43843000D02*
X74793000Y-43843000D01*
X74793000Y-40993000D01*
X79893000Y-40993000D01*
X79893000Y-43843000D01*
X79893000Y-43843000D01*
G37*
G36*
X46233690Y-43772430D02*
X44236030Y-43772430D01*
X44236030Y-41571570D01*
X46233690Y-41571570D01*
X46233690Y-43772430D01*
X46233690Y-43772430D01*
G37*
G36*
X43393970Y-43772430D02*
X41396310Y-43772430D01*
X41396310Y-41571570D01*
X43393970Y-41571570D01*
X43393970Y-43772430D01*
X43393970Y-43772430D01*
G37*
G36*
X64363000Y-41970000D02*
X54763000Y-41970000D01*
X54763000Y-39070000D01*
X64363000Y-39070000D01*
X64363000Y-41970000D01*
X64363000Y-41970000D01*
G37*
G36*
X46233690Y-40851430D02*
X44236030Y-40851430D01*
X44236030Y-38650570D01*
X46233690Y-38650570D01*
X46233690Y-40851430D01*
X46233690Y-40851430D01*
G37*
G36*
X43393970Y-40851430D02*
X41396310Y-40851430D01*
X41396310Y-38650570D01*
X43393970Y-38650570D01*
X43393970Y-40851430D01*
X43393970Y-40851430D01*
G37*
G36*
X35412903Y-37559789D02*
X35613391Y-37620607D01*
X35798164Y-37719369D01*
X35960118Y-37852282D01*
X36093031Y-38014236D01*
X36191793Y-38199009D01*
X36252611Y-38399497D01*
X36273146Y-38608000D01*
X36252611Y-38816503D01*
X36191793Y-39016991D01*
X36093031Y-39201764D01*
X35960118Y-39363718D01*
X35798164Y-39496631D01*
X35613391Y-39595393D01*
X35412903Y-39656211D01*
X35256651Y-39671600D01*
X34847349Y-39671600D01*
X34691097Y-39656211D01*
X34490609Y-39595393D01*
X34305836Y-39496631D01*
X34143882Y-39363718D01*
X34010969Y-39201764D01*
X33912207Y-39016991D01*
X33851389Y-38816503D01*
X33830854Y-38608000D01*
X33851389Y-38399497D01*
X33912207Y-38199009D01*
X34010969Y-38014236D01*
X34143882Y-37852282D01*
X34305836Y-37719369D01*
X34490609Y-37620607D01*
X34691097Y-37559789D01*
X34847349Y-37544400D01*
X35256651Y-37544400D01*
X35412903Y-37559789D01*
X35412903Y-37559789D01*
G37*
G36*
X84561903Y-37559789D02*
X84762391Y-37620607D01*
X84947164Y-37719369D01*
X85109118Y-37852282D01*
X85242031Y-38014236D01*
X85340793Y-38199009D01*
X85401611Y-38399497D01*
X85422146Y-38608000D01*
X85401611Y-38816503D01*
X85340793Y-39016991D01*
X85242031Y-39201764D01*
X85109118Y-39363718D01*
X84947164Y-39496631D01*
X84762391Y-39595393D01*
X84561903Y-39656211D01*
X84405651Y-39671600D01*
X83996349Y-39671600D01*
X83840097Y-39656211D01*
X83639609Y-39595393D01*
X83454836Y-39496631D01*
X83292882Y-39363718D01*
X83159969Y-39201764D01*
X83061207Y-39016991D01*
X83000389Y-38816503D01*
X82979854Y-38608000D01*
X83000389Y-38399497D01*
X83061207Y-38199009D01*
X83159969Y-38014236D01*
X83292882Y-37852282D01*
X83454836Y-37719369D01*
X83639609Y-37620607D01*
X83840097Y-37559789D01*
X83996349Y-37544400D01*
X84405651Y-37544400D01*
X84561903Y-37559789D01*
X84561903Y-37559789D01*
G37*
G36*
X42888000Y-38134000D02*
X41588000Y-38134000D01*
X41588000Y-36034000D01*
X42888000Y-36034000D01*
X42888000Y-38134000D01*
X42888000Y-38134000D01*
G37*
G36*
X45788000Y-38134000D02*
X44488000Y-38134000D01*
X44488000Y-36034000D01*
X45788000Y-36034000D01*
X45788000Y-38134000D01*
X45788000Y-38134000D01*
G37*
G36*
X79893000Y-37747000D02*
X74793000Y-37747000D01*
X74793000Y-34897000D01*
X79893000Y-34897000D01*
X79893000Y-37747000D01*
X79893000Y-37747000D01*
G37*
G36*
X72273000Y-37747000D02*
X67173000Y-37747000D01*
X67173000Y-34897000D01*
X72273000Y-34897000D01*
X72273000Y-37747000D01*
X72273000Y-37747000D01*
G37*
G36*
X35412903Y-35019789D02*
X35613391Y-35080607D01*
X35798164Y-35179369D01*
X35960118Y-35312282D01*
X36093031Y-35474236D01*
X36191793Y-35659009D01*
X36252611Y-35859497D01*
X36273146Y-36068000D01*
X36252611Y-36276503D01*
X36191793Y-36476991D01*
X36093031Y-36661764D01*
X35960118Y-36823718D01*
X35798164Y-36956631D01*
X35613391Y-37055393D01*
X35412903Y-37116211D01*
X35256651Y-37131600D01*
X34847349Y-37131600D01*
X34691097Y-37116211D01*
X34490609Y-37055393D01*
X34305836Y-36956631D01*
X34143882Y-36823718D01*
X34010969Y-36661764D01*
X33912207Y-36476991D01*
X33851389Y-36276503D01*
X33830854Y-36068000D01*
X33851389Y-35859497D01*
X33912207Y-35659009D01*
X34010969Y-35474236D01*
X34143882Y-35312282D01*
X34305836Y-35179369D01*
X34490609Y-35080607D01*
X34691097Y-35019789D01*
X34847349Y-35004400D01*
X35256651Y-35004400D01*
X35412903Y-35019789D01*
X35412903Y-35019789D01*
G37*
G36*
X84561903Y-35019789D02*
X84762391Y-35080607D01*
X84947164Y-35179369D01*
X85109118Y-35312282D01*
X85242031Y-35474236D01*
X85340793Y-35659009D01*
X85401611Y-35859497D01*
X85422146Y-36068000D01*
X85401611Y-36276503D01*
X85340793Y-36476991D01*
X85242031Y-36661764D01*
X85109118Y-36823718D01*
X84947164Y-36956631D01*
X84762391Y-37055393D01*
X84561903Y-37116211D01*
X84405651Y-37131600D01*
X83996349Y-37131600D01*
X83840097Y-37116211D01*
X83639609Y-37055393D01*
X83454836Y-36956631D01*
X83292882Y-36823718D01*
X83159969Y-36661764D01*
X83061207Y-36476991D01*
X83000389Y-36276503D01*
X82979854Y-36068000D01*
X83000389Y-35859497D01*
X83061207Y-35659009D01*
X83159969Y-35474236D01*
X83292882Y-35312282D01*
X83454836Y-35179369D01*
X83639609Y-35080607D01*
X83840097Y-35019789D01*
X83996349Y-35004400D01*
X84405651Y-35004400D01*
X84561903Y-35019789D01*
X84561903Y-35019789D01*
G37*
G36*
X42888000Y-35594000D02*
X41588000Y-35594000D01*
X41588000Y-33494000D01*
X42888000Y-33494000D01*
X42888000Y-35594000D01*
X42888000Y-35594000D01*
G37*
G36*
X45788000Y-35594000D02*
X44488000Y-35594000D01*
X44488000Y-33494000D01*
X45788000Y-33494000D01*
X45788000Y-35594000D01*
X45788000Y-35594000D01*
G37*
G36*
X35412903Y-32479789D02*
X35613391Y-32540607D01*
X35798164Y-32639369D01*
X35960118Y-32772282D01*
X36093031Y-32934236D01*
X36191793Y-33119009D01*
X36252611Y-33319497D01*
X36273146Y-33528000D01*
X36252611Y-33736503D01*
X36191793Y-33936991D01*
X36093031Y-34121764D01*
X35960118Y-34283718D01*
X35798164Y-34416631D01*
X35613391Y-34515393D01*
X35412903Y-34576211D01*
X35256651Y-34591600D01*
X34847349Y-34591600D01*
X34691097Y-34576211D01*
X34490609Y-34515393D01*
X34305836Y-34416631D01*
X34143882Y-34283718D01*
X34010969Y-34121764D01*
X33912207Y-33936991D01*
X33851389Y-33736503D01*
X33830854Y-33528000D01*
X33851389Y-33319497D01*
X33912207Y-33119009D01*
X34010969Y-32934236D01*
X34143882Y-32772282D01*
X34305836Y-32639369D01*
X34490609Y-32540607D01*
X34691097Y-32479789D01*
X34847349Y-32464400D01*
X35256651Y-32464400D01*
X35412903Y-32479789D01*
X35412903Y-32479789D01*
G37*
G36*
X84561903Y-32479789D02*
X84762391Y-32540607D01*
X84947164Y-32639369D01*
X85109118Y-32772282D01*
X85242031Y-32934236D01*
X85340793Y-33119009D01*
X85401611Y-33319497D01*
X85422146Y-33528000D01*
X85401611Y-33736503D01*
X85340793Y-33936991D01*
X85242031Y-34121764D01*
X85109118Y-34283718D01*
X84947164Y-34416631D01*
X84762391Y-34515393D01*
X84561903Y-34576211D01*
X84405651Y-34591600D01*
X83996349Y-34591600D01*
X83840097Y-34576211D01*
X83639609Y-34515393D01*
X83454836Y-34416631D01*
X83292882Y-34283718D01*
X83159969Y-34121764D01*
X83061207Y-33936991D01*
X83000389Y-33736503D01*
X82979854Y-33528000D01*
X83000389Y-33319497D01*
X83061207Y-33119009D01*
X83159969Y-32934236D01*
X83292882Y-32772282D01*
X83454836Y-32639369D01*
X83639609Y-32540607D01*
X83840097Y-32479789D01*
X83996349Y-32464400D01*
X84405651Y-32464400D01*
X84561903Y-32479789D01*
X84561903Y-32479789D01*
G37*
G36*
X72273000Y-33683000D02*
X67173000Y-33683000D01*
X67173000Y-30833000D01*
X72273000Y-30833000D01*
X72273000Y-33683000D01*
X72273000Y-33683000D01*
G37*
G36*
X79893000Y-33683000D02*
X74793000Y-33683000D01*
X74793000Y-30833000D01*
X79893000Y-30833000D01*
X79893000Y-33683000D01*
X79893000Y-33683000D01*
G37*
G36*
X36268000Y-32051600D02*
X33836000Y-32051600D01*
X33836000Y-29924400D01*
X36268000Y-29924400D01*
X36268000Y-32051600D01*
X36268000Y-32051600D01*
G37*
G36*
X85417000Y-32051600D02*
X82985000Y-32051600D01*
X82985000Y-29924400D01*
X85417000Y-29924400D01*
X85417000Y-32051600D01*
X85417000Y-32051600D01*
G37*
G36*
X72273000Y-27587000D02*
X67173000Y-27587000D01*
X67173000Y-24737000D01*
X72273000Y-24737000D01*
X72273000Y-27587000D01*
X72273000Y-27587000D01*
G37*
G36*
X79893000Y-27587000D02*
X74793000Y-27587000D01*
X74793000Y-24737000D01*
X79893000Y-24737000D01*
X79893000Y-27587000D01*
X79893000Y-27587000D01*
G37*
G36*
X64363000Y-26970000D02*
X54763000Y-26970000D01*
X54763000Y-24070000D01*
X64363000Y-24070000D01*
X64363000Y-26970000D01*
X64363000Y-26970000D01*
G37*
G36*
X83818196Y-22752958D02*
X84054780Y-22850954D01*
X84267705Y-22993226D01*
X84448774Y-23174295D01*
X84591046Y-23387220D01*
X84689042Y-23623804D01*
X84739000Y-23874960D01*
X84739000Y-24131040D01*
X84689042Y-24382196D01*
X84591046Y-24618780D01*
X84448774Y-24831705D01*
X84267705Y-25012774D01*
X84054780Y-25155046D01*
X83818196Y-25253042D01*
X83567040Y-25303000D01*
X83310960Y-25303000D01*
X83059804Y-25253042D01*
X82823220Y-25155046D01*
X82610295Y-25012774D01*
X82429226Y-24831705D01*
X82286954Y-24618780D01*
X82188958Y-24382196D01*
X82139000Y-24131040D01*
X82139000Y-23874960D01*
X82188958Y-23623804D01*
X82286954Y-23387220D01*
X82429226Y-23174295D01*
X82610295Y-22993226D01*
X82823220Y-22850954D01*
X83059804Y-22752958D01*
X83310960Y-22703000D01*
X83567040Y-22703000D01*
X83818196Y-22752958D01*
X83818196Y-22752958D01*
G37*
M02*
