G04 #@! TF.GenerationSoftware,KiCad,Pcbnew,5.0.2+dfsg1-1*
G04 #@! TF.CreationDate,2019-03-09T11:45:52-07:00*
G04 #@! TF.ProjectId,i2c_frontpanel,6932635f-6672-46f6-9e74-70616e656c2e,rev?*
G04 #@! TF.SameCoordinates,Original*
G04 #@! TF.FileFunction,Paste,Bot*
G04 #@! TF.FilePolarity,Positive*
%FSLAX46Y46*%
G04 Gerber Fmt 4.6, Leading zero omitted, Abs format (unit mm)*
G04 Created by KiCad (PCBNEW 5.0.2+dfsg1-1) date Sat 09 Mar 2019 11:45:52 AM MST*
%MOMM*%
%LPD*%
G01*
G04 APERTURE LIST*
%ADD10R,0.550000X1.600000*%
%ADD11R,1.600000X0.550000*%
%ADD12R,0.900000X1.700000*%
%ADD13R,1.000000X1.600000*%
%ADD14R,1.600000X1.000000*%
%ADD15R,3.600000X1.270000*%
%ADD16R,0.900000X0.800000*%
%ADD17R,1.700000X0.900000*%
%ADD18R,0.508000X1.143000*%
%ADD19R,1.143000X0.508000*%
G04 APERTURE END LIST*
D10*
G04 #@! TO.C,IC1*
X44190000Y-23690000D03*
X44990000Y-23690000D03*
X45790000Y-23690000D03*
X46590000Y-23690000D03*
X47390000Y-23690000D03*
X48190000Y-23690000D03*
X48990000Y-23690000D03*
X49790000Y-23690000D03*
D11*
X51240000Y-25140000D03*
X51240000Y-25940000D03*
X51240000Y-26740000D03*
X51240000Y-27540000D03*
X51240000Y-28340000D03*
X51240000Y-29140000D03*
X51240000Y-29940000D03*
X51240000Y-30740000D03*
D10*
X49790000Y-32190000D03*
X48990000Y-32190000D03*
X48190000Y-32190000D03*
X47390000Y-32190000D03*
X46590000Y-32190000D03*
X45790000Y-32190000D03*
X44990000Y-32190000D03*
X44190000Y-32190000D03*
D11*
X42740000Y-30740000D03*
X42740000Y-29940000D03*
X42740000Y-29140000D03*
X42740000Y-28340000D03*
X42740000Y-27540000D03*
X42740000Y-26740000D03*
X42740000Y-25940000D03*
X42740000Y-25140000D03*
G04 #@! TD*
D12*
G04 #@! TO.C,R17*
X101780000Y-43815000D03*
X98880000Y-43815000D03*
G04 #@! TD*
D13*
G04 #@! TO.C,C1*
X34060000Y-22860000D03*
X37060000Y-22860000D03*
G04 #@! TD*
G04 #@! TO.C,C2*
X101830000Y-28575000D03*
X98830000Y-28575000D03*
G04 #@! TD*
D14*
G04 #@! TO.C,C3*
X119634000Y-29996000D03*
X119634000Y-32996000D03*
G04 #@! TD*
D13*
G04 #@! TO.C,C4*
X109450000Y-28575000D03*
X106450000Y-28575000D03*
G04 #@! TD*
G04 #@! TO.C,C5*
X117070000Y-28575000D03*
X114070000Y-28575000D03*
G04 #@! TD*
G04 #@! TO.C,C6*
X114070000Y-40005000D03*
X117070000Y-40005000D03*
G04 #@! TD*
G04 #@! TO.C,C7*
X106450000Y-40005000D03*
X109450000Y-40005000D03*
G04 #@! TD*
G04 #@! TO.C,C8*
X98830000Y-40005000D03*
X101830000Y-40005000D03*
G04 #@! TD*
D15*
G04 #@! TO.C,CON1*
X48031000Y-39243000D03*
X48031000Y-41783000D03*
X48031000Y-44323000D03*
X41631000Y-44323000D03*
X41631000Y-41783000D03*
X41631000Y-39243000D03*
G04 #@! TD*
D16*
G04 #@! TO.C,Q1*
X51292000Y-36388000D03*
X51292000Y-38288000D03*
X49292000Y-37338000D03*
G04 #@! TD*
G04 #@! TO.C,Q2*
X46752000Y-36256000D03*
X46752000Y-34356000D03*
X48752000Y-35306000D03*
G04 #@! TD*
G04 #@! TO.C,Q3*
X94980000Y-42865000D03*
X94980000Y-44765000D03*
X92980000Y-43815000D03*
G04 #@! TD*
G04 #@! TO.C,Q4*
X84820000Y-42865000D03*
X84820000Y-44765000D03*
X82820000Y-43815000D03*
G04 #@! TD*
G04 #@! TO.C,Q5*
X74660000Y-42865000D03*
X74660000Y-44765000D03*
X72660000Y-43815000D03*
G04 #@! TD*
G04 #@! TO.C,Q6*
X64500000Y-42865000D03*
X64500000Y-44765000D03*
X62500000Y-43815000D03*
G04 #@! TD*
D12*
G04 #@! TO.C,R1*
X98880000Y-26670000D03*
X101780000Y-26670000D03*
G04 #@! TD*
G04 #@! TO.C,R2*
X106500000Y-26670000D03*
X109400000Y-26670000D03*
G04 #@! TD*
G04 #@! TO.C,R3*
X114120000Y-26670000D03*
X117020000Y-26670000D03*
G04 #@! TD*
G04 #@! TO.C,R4*
X117020000Y-41910000D03*
X114120000Y-41910000D03*
G04 #@! TD*
G04 #@! TO.C,R5*
X109400000Y-41910000D03*
X106500000Y-41910000D03*
G04 #@! TD*
G04 #@! TO.C,R6*
X101780000Y-41910000D03*
X98880000Y-41910000D03*
G04 #@! TD*
G04 #@! TO.C,R8*
X54028000Y-42545000D03*
X51128000Y-42545000D03*
G04 #@! TD*
D17*
G04 #@! TO.C,R9*
X40132000Y-22934000D03*
X40132000Y-25834000D03*
G04 #@! TD*
D12*
G04 #@! TO.C,R10*
X56060000Y-44450000D03*
X53160000Y-44450000D03*
G04 #@! TD*
G04 #@! TO.C,R12*
X98880000Y-24765000D03*
X101780000Y-24765000D03*
G04 #@! TD*
G04 #@! TO.C,R13*
X106500000Y-24765000D03*
X109400000Y-24765000D03*
G04 #@! TD*
G04 #@! TO.C,R14*
X114120000Y-24765000D03*
X117020000Y-24765000D03*
G04 #@! TD*
G04 #@! TO.C,R15*
X117020000Y-43815000D03*
X114120000Y-43815000D03*
G04 #@! TD*
G04 #@! TO.C,R16*
X109400000Y-43815000D03*
X106500000Y-43815000D03*
G04 #@! TD*
G04 #@! TO.C,R18*
X45138000Y-34671000D03*
X42238000Y-34671000D03*
G04 #@! TD*
G04 #@! TO.C,R19*
X45138000Y-37084000D03*
X42238000Y-37084000D03*
G04 #@! TD*
D17*
G04 #@! TO.C,R20*
X40132000Y-35486000D03*
X40132000Y-32586000D03*
G04 #@! TD*
G04 #@! TO.C,R21*
X40132000Y-27760000D03*
X40132000Y-30660000D03*
G04 #@! TD*
G04 #@! TO.C,R24*
X88265000Y-23315000D03*
X88265000Y-26215000D03*
G04 #@! TD*
G04 #@! TO.C,R25*
X86360000Y-23315000D03*
X86360000Y-26215000D03*
G04 #@! TD*
G04 #@! TO.C,R26*
X86360000Y-42725000D03*
X86360000Y-39825000D03*
G04 #@! TD*
G04 #@! TO.C,R27*
X88265000Y-42725000D03*
X88265000Y-39825000D03*
G04 #@! TD*
G04 #@! TO.C,R28*
X92075000Y-42725000D03*
X92075000Y-39825000D03*
G04 #@! TD*
G04 #@! TO.C,R29*
X93980000Y-23315000D03*
X93980000Y-26215000D03*
G04 #@! TD*
G04 #@! TO.C,R30*
X92075000Y-23315000D03*
X92075000Y-26215000D03*
G04 #@! TD*
G04 #@! TO.C,R31*
X78105000Y-23315000D03*
X78105000Y-26215000D03*
G04 #@! TD*
G04 #@! TO.C,R32*
X76200000Y-23315000D03*
X76200000Y-26215000D03*
G04 #@! TD*
G04 #@! TO.C,R33*
X76200000Y-42725000D03*
X76200000Y-39825000D03*
G04 #@! TD*
G04 #@! TO.C,R34*
X78105000Y-42725000D03*
X78105000Y-39825000D03*
G04 #@! TD*
G04 #@! TO.C,R35*
X81915000Y-42725000D03*
X81915000Y-39825000D03*
G04 #@! TD*
G04 #@! TO.C,R36*
X83820000Y-23315000D03*
X83820000Y-26215000D03*
G04 #@! TD*
G04 #@! TO.C,R37*
X81915000Y-23315000D03*
X81915000Y-26215000D03*
G04 #@! TD*
G04 #@! TO.C,R38*
X67945000Y-23315000D03*
X67945000Y-26215000D03*
G04 #@! TD*
G04 #@! TO.C,R39*
X66040000Y-23315000D03*
X66040000Y-26215000D03*
G04 #@! TD*
G04 #@! TO.C,R40*
X66040000Y-42725000D03*
X66040000Y-39825000D03*
G04 #@! TD*
G04 #@! TO.C,R41*
X67945000Y-42725000D03*
X67945000Y-39825000D03*
G04 #@! TD*
G04 #@! TO.C,R42*
X71755000Y-42725000D03*
X71755000Y-39825000D03*
G04 #@! TD*
G04 #@! TO.C,R43*
X73660000Y-23315000D03*
X73660000Y-26215000D03*
G04 #@! TD*
G04 #@! TO.C,R44*
X71755000Y-23315000D03*
X71755000Y-26215000D03*
G04 #@! TD*
G04 #@! TO.C,R45*
X57785000Y-23315000D03*
X57785000Y-26215000D03*
G04 #@! TD*
G04 #@! TO.C,R46*
X55880000Y-23315000D03*
X55880000Y-26215000D03*
G04 #@! TD*
G04 #@! TO.C,R47*
X55880000Y-42725000D03*
X55880000Y-39825000D03*
G04 #@! TD*
G04 #@! TO.C,R48*
X57785000Y-42725000D03*
X57785000Y-39825000D03*
G04 #@! TD*
G04 #@! TO.C,R49*
X61595000Y-42725000D03*
X61595000Y-39825000D03*
G04 #@! TD*
G04 #@! TO.C,R50*
X63500000Y-23315000D03*
X63500000Y-26215000D03*
G04 #@! TD*
G04 #@! TO.C,R51*
X61595000Y-23315000D03*
X61595000Y-26215000D03*
G04 #@! TD*
D12*
G04 #@! TO.C,R52*
X88085000Y-44450000D03*
X90985000Y-44450000D03*
G04 #@! TD*
G04 #@! TO.C,R53*
X77925000Y-44450000D03*
X80825000Y-44450000D03*
G04 #@! TD*
G04 #@! TO.C,R54*
X67765000Y-44450000D03*
X70665000Y-44450000D03*
G04 #@! TD*
G04 #@! TO.C,R55*
X57605000Y-44450000D03*
X60505000Y-44450000D03*
G04 #@! TD*
D18*
G04 #@! TO.C,U1*
X99060000Y-30988000D03*
X100330000Y-30988000D03*
X101600000Y-30988000D03*
X102870000Y-30988000D03*
X104140000Y-30988000D03*
X105410000Y-30988000D03*
X106680000Y-30988000D03*
X106680000Y-37338000D03*
X105410000Y-37338000D03*
X102870000Y-37338000D03*
X101600000Y-37338000D03*
X100330000Y-37338000D03*
X99060000Y-37338000D03*
X104140000Y-37338000D03*
G04 #@! TD*
D19*
G04 #@! TO.C,U10*
X93345000Y-37465000D03*
X93345000Y-34925000D03*
X93345000Y-33655000D03*
X93345000Y-32385000D03*
X93345000Y-31115000D03*
X93345000Y-29845000D03*
X93345000Y-28575000D03*
X86995000Y-28575000D03*
X86995000Y-29845000D03*
X86995000Y-31115000D03*
X86995000Y-32385000D03*
X86995000Y-33655000D03*
X86995000Y-34925000D03*
X86995000Y-36195000D03*
X86995000Y-37465000D03*
X93345000Y-36195000D03*
G04 #@! TD*
G04 #@! TO.C,U11*
X83185000Y-37465000D03*
X83185000Y-34925000D03*
X83185000Y-33655000D03*
X83185000Y-32385000D03*
X83185000Y-31115000D03*
X83185000Y-29845000D03*
X83185000Y-28575000D03*
X76835000Y-28575000D03*
X76835000Y-29845000D03*
X76835000Y-31115000D03*
X76835000Y-32385000D03*
X76835000Y-33655000D03*
X76835000Y-34925000D03*
X76835000Y-36195000D03*
X76835000Y-37465000D03*
X83185000Y-36195000D03*
G04 #@! TD*
G04 #@! TO.C,U12*
X73025000Y-37465000D03*
X73025000Y-34925000D03*
X73025000Y-33655000D03*
X73025000Y-32385000D03*
X73025000Y-31115000D03*
X73025000Y-29845000D03*
X73025000Y-28575000D03*
X66675000Y-28575000D03*
X66675000Y-29845000D03*
X66675000Y-31115000D03*
X66675000Y-32385000D03*
X66675000Y-33655000D03*
X66675000Y-34925000D03*
X66675000Y-36195000D03*
X66675000Y-37465000D03*
X73025000Y-36195000D03*
G04 #@! TD*
G04 #@! TO.C,U13*
X62865000Y-37465000D03*
X62865000Y-34925000D03*
X62865000Y-33655000D03*
X62865000Y-32385000D03*
X62865000Y-31115000D03*
X62865000Y-29845000D03*
X62865000Y-28575000D03*
X56515000Y-28575000D03*
X56515000Y-29845000D03*
X56515000Y-31115000D03*
X56515000Y-32385000D03*
X56515000Y-33655000D03*
X56515000Y-34925000D03*
X56515000Y-36195000D03*
X56515000Y-37465000D03*
X62865000Y-36195000D03*
G04 #@! TD*
M02*
