G04 #@! TF.GenerationSoftware,KiCad,Pcbnew,5.0.2+dfsg1-1*
G04 #@! TF.CreationDate,2019-03-09T11:45:52-07:00*
G04 #@! TF.ProjectId,i2c_frontpanel,6932635f-6672-46f6-9e74-70616e656c2e,rev?*
G04 #@! TF.SameCoordinates,Original*
G04 #@! TF.FileFunction,Legend,Bot*
G04 #@! TF.FilePolarity,Positive*
%FSLAX46Y46*%
G04 Gerber Fmt 4.6, Leading zero omitted, Abs format (unit mm)*
G04 Created by KiCad (PCBNEW 5.0.2+dfsg1-1) date Sat 09 Mar 2019 11:45:52 AM MST*
%MOMM*%
%LPD*%
G01*
G04 APERTURE LIST*
%ADD10C,0.200000*%
%ADD11C,0.150000*%
%ADD12C,0.120000*%
G04 APERTURE END LIST*
D10*
X53514428Y-39949380D02*
X53514428Y-38949380D01*
X53181095Y-39663666D01*
X52847761Y-38949380D01*
X52847761Y-39949380D01*
X52371571Y-39949380D02*
X52371571Y-38949380D01*
X51943000Y-39901761D02*
X51800142Y-39949380D01*
X51562047Y-39949380D01*
X51466809Y-39901761D01*
X51419190Y-39854142D01*
X51371571Y-39758904D01*
X51371571Y-39663666D01*
X51419190Y-39568428D01*
X51466809Y-39520809D01*
X51562047Y-39473190D01*
X51752523Y-39425571D01*
X51847761Y-39377952D01*
X51895380Y-39330333D01*
X51943000Y-39235095D01*
X51943000Y-39139857D01*
X51895380Y-39044619D01*
X51847761Y-38997000D01*
X51752523Y-38949380D01*
X51514428Y-38949380D01*
X51371571Y-38997000D01*
X50752523Y-38949380D02*
X50562047Y-38949380D01*
X50466809Y-38997000D01*
X50371571Y-39092238D01*
X50323952Y-39282714D01*
X50323952Y-39616047D01*
X50371571Y-39806523D01*
X50466809Y-39901761D01*
X50562047Y-39949380D01*
X50752523Y-39949380D01*
X50847761Y-39901761D01*
X50943000Y-39806523D01*
X50990619Y-39616047D01*
X50990619Y-39282714D01*
X50943000Y-39092238D01*
X50847761Y-38997000D01*
X50752523Y-38949380D01*
X39060380Y-40211571D02*
X38060380Y-40211571D01*
X38774666Y-40544904D01*
X38060380Y-40878238D01*
X39060380Y-40878238D01*
X38060380Y-41544904D02*
X38060380Y-41735380D01*
X38108000Y-41830619D01*
X38203238Y-41925857D01*
X38393714Y-41973476D01*
X38727047Y-41973476D01*
X38917523Y-41925857D01*
X39012761Y-41830619D01*
X39060380Y-41735380D01*
X39060380Y-41544904D01*
X39012761Y-41449666D01*
X38917523Y-41354428D01*
X38727047Y-41306809D01*
X38393714Y-41306809D01*
X38203238Y-41354428D01*
X38108000Y-41449666D01*
X38060380Y-41544904D01*
X39012761Y-42354428D02*
X39060380Y-42497285D01*
X39060380Y-42735380D01*
X39012761Y-42830619D01*
X38965142Y-42878238D01*
X38869904Y-42925857D01*
X38774666Y-42925857D01*
X38679428Y-42878238D01*
X38631809Y-42830619D01*
X38584190Y-42735380D01*
X38536571Y-42544904D01*
X38488952Y-42449666D01*
X38441333Y-42402047D01*
X38346095Y-42354428D01*
X38250857Y-42354428D01*
X38155619Y-42402047D01*
X38108000Y-42449666D01*
X38060380Y-42544904D01*
X38060380Y-42783000D01*
X38108000Y-42925857D01*
X39060380Y-43354428D02*
X38060380Y-43354428D01*
X41322476Y-37171380D02*
X40989142Y-38171380D01*
X40655809Y-37171380D01*
X39893904Y-38123761D02*
X39989142Y-38171380D01*
X40179619Y-38171380D01*
X40274857Y-38123761D01*
X40322476Y-38076142D01*
X40370095Y-37980904D01*
X40370095Y-37695190D01*
X40322476Y-37599952D01*
X40274857Y-37552333D01*
X40179619Y-37504714D01*
X39989142Y-37504714D01*
X39893904Y-37552333D01*
X39036761Y-38123761D02*
X39132000Y-38171380D01*
X39322476Y-38171380D01*
X39417714Y-38123761D01*
X39465333Y-38076142D01*
X39512952Y-37980904D01*
X39512952Y-37695190D01*
X39465333Y-37599952D01*
X39417714Y-37552333D01*
X39322476Y-37504714D01*
X39132000Y-37504714D01*
X39036761Y-37552333D01*
X48680619Y-46680380D02*
X49013952Y-46204190D01*
X49252047Y-46680380D02*
X49252047Y-45680380D01*
X48871095Y-45680380D01*
X48775857Y-45728000D01*
X48728238Y-45775619D01*
X48680619Y-45870857D01*
X48680619Y-46013714D01*
X48728238Y-46108952D01*
X48775857Y-46156571D01*
X48871095Y-46204190D01*
X49252047Y-46204190D01*
X48299666Y-46632761D02*
X48156809Y-46680380D01*
X47918714Y-46680380D01*
X47823476Y-46632761D01*
X47775857Y-46585142D01*
X47728238Y-46489904D01*
X47728238Y-46394666D01*
X47775857Y-46299428D01*
X47823476Y-46251809D01*
X47918714Y-46204190D01*
X48109190Y-46156571D01*
X48204428Y-46108952D01*
X48252047Y-46061333D01*
X48299666Y-45966095D01*
X48299666Y-45870857D01*
X48252047Y-45775619D01*
X48204428Y-45728000D01*
X48109190Y-45680380D01*
X47871095Y-45680380D01*
X47728238Y-45728000D01*
X47442523Y-45680380D02*
X46871095Y-45680380D01*
X47156809Y-46680380D02*
X47156809Y-45680380D01*
X42417904Y-45728000D02*
X42513142Y-45680380D01*
X42656000Y-45680380D01*
X42798857Y-45728000D01*
X42894095Y-45823238D01*
X42941714Y-45918476D01*
X42989333Y-46108952D01*
X42989333Y-46251809D01*
X42941714Y-46442285D01*
X42894095Y-46537523D01*
X42798857Y-46632761D01*
X42656000Y-46680380D01*
X42560761Y-46680380D01*
X42417904Y-46632761D01*
X42370285Y-46585142D01*
X42370285Y-46251809D01*
X42560761Y-46251809D01*
X41941714Y-46680380D02*
X41941714Y-45680380D01*
X41370285Y-46680380D01*
X41370285Y-45680380D01*
X40894095Y-46680380D02*
X40894095Y-45680380D01*
X40656000Y-45680380D01*
X40513142Y-45728000D01*
X40417904Y-45823238D01*
X40370285Y-45918476D01*
X40322666Y-46108952D01*
X40322666Y-46251809D01*
X40370285Y-46442285D01*
X40417904Y-46537523D01*
X40513142Y-46632761D01*
X40656000Y-46680380D01*
X40894095Y-46680380D01*
D11*
G04 #@! TO.C,IC1*
X43365000Y-24315000D02*
X43590000Y-24315000D01*
X43365000Y-31565000D02*
X43690000Y-31565000D01*
X50615000Y-31565000D02*
X50290000Y-31565000D01*
X50615000Y-24315000D02*
X50290000Y-24315000D01*
X43365000Y-24315000D02*
X43365000Y-24640000D01*
X50615000Y-24315000D02*
X50615000Y-24640000D01*
X50615000Y-31565000D02*
X50615000Y-31240000D01*
X43365000Y-31565000D02*
X43365000Y-31240000D01*
X43590000Y-24315000D02*
X43590000Y-22890000D01*
G04 #@! TO.C,R17*
X99330000Y-44890000D02*
X101330000Y-44890000D01*
X101330000Y-42740000D02*
X99330000Y-42740000D01*
G04 #@! TO.C,C1*
X36560000Y-23885000D02*
X34560000Y-23885000D01*
X34560000Y-21835000D02*
X36560000Y-21835000D01*
G04 #@! TO.C,C2*
X99330000Y-27550000D02*
X101330000Y-27550000D01*
X101330000Y-29600000D02*
X99330000Y-29600000D01*
G04 #@! TO.C,C3*
X118609000Y-32496000D02*
X118609000Y-30496000D01*
X120659000Y-30496000D02*
X120659000Y-32496000D01*
G04 #@! TO.C,C4*
X106950000Y-27550000D02*
X108950000Y-27550000D01*
X108950000Y-29600000D02*
X106950000Y-29600000D01*
G04 #@! TO.C,C5*
X114570000Y-27550000D02*
X116570000Y-27550000D01*
X116570000Y-29600000D02*
X114570000Y-29600000D01*
G04 #@! TO.C,C6*
X116570000Y-41030000D02*
X114570000Y-41030000D01*
X114570000Y-38980000D02*
X116570000Y-38980000D01*
G04 #@! TO.C,C7*
X108950000Y-41030000D02*
X106950000Y-41030000D01*
X106950000Y-38980000D02*
X108950000Y-38980000D01*
G04 #@! TO.C,C8*
X101330000Y-41030000D02*
X99330000Y-41030000D01*
X99330000Y-38980000D02*
X101330000Y-38980000D01*
G04 #@! TO.C,CON1*
X47331000Y-38283000D02*
X49756000Y-38283000D01*
X47081000Y-40513000D02*
X42581000Y-40513000D01*
X42331000Y-45593000D02*
X42331000Y-45313000D01*
X42331000Y-45593000D02*
X47331000Y-45593000D01*
X47331000Y-45593000D02*
X47331000Y-45313000D01*
X47331000Y-37973000D02*
X47331000Y-38253000D01*
X42331000Y-37973000D02*
X47331000Y-37973000D01*
X42331000Y-40132000D02*
X42331000Y-40259000D01*
X42331000Y-40259000D02*
X42585000Y-40513000D01*
X42585000Y-40513000D02*
X42331000Y-40767000D01*
X42331000Y-40767000D02*
X42331000Y-40894000D01*
X42331000Y-37973000D02*
X42331000Y-38253000D01*
X42331000Y-42672000D02*
X42331000Y-42799000D01*
X47331000Y-40894000D02*
X47331000Y-40767000D01*
X42585000Y-43053000D02*
X42331000Y-43307000D01*
X47077000Y-40513000D02*
X47331000Y-40259000D01*
X42331000Y-43307000D02*
X42331000Y-43434000D01*
X47331000Y-40259000D02*
X47331000Y-40132000D01*
X42331000Y-42799000D02*
X42585000Y-43053000D01*
X47331000Y-40767000D02*
X47077000Y-40513000D01*
X47331000Y-43434000D02*
X47331000Y-43307000D01*
X47331000Y-42799000D02*
X47331000Y-42672000D01*
X47077000Y-43053000D02*
X47331000Y-42799000D01*
X47331000Y-43307000D02*
X47077000Y-43053000D01*
X47081000Y-43053000D02*
X42581000Y-43053000D01*
D12*
G04 #@! TO.C,Q1*
X49532000Y-38918000D02*
X49532000Y-37988000D01*
X49532000Y-35758000D02*
X49532000Y-36688000D01*
X49532000Y-35758000D02*
X51692000Y-35758000D01*
X49532000Y-38918000D02*
X50992000Y-38918000D01*
G04 #@! TO.C,Q2*
X48512000Y-33726000D02*
X48512000Y-34656000D01*
X48512000Y-36886000D02*
X48512000Y-35956000D01*
X48512000Y-36886000D02*
X46352000Y-36886000D01*
X48512000Y-33726000D02*
X47052000Y-33726000D01*
G04 #@! TO.C,Q3*
X93220000Y-45395000D02*
X93220000Y-44465000D01*
X93220000Y-42235000D02*
X93220000Y-43165000D01*
X93220000Y-42235000D02*
X95380000Y-42235000D01*
X93220000Y-45395000D02*
X94680000Y-45395000D01*
G04 #@! TO.C,Q4*
X83060000Y-45395000D02*
X83060000Y-44465000D01*
X83060000Y-42235000D02*
X83060000Y-43165000D01*
X83060000Y-42235000D02*
X85220000Y-42235000D01*
X83060000Y-45395000D02*
X84520000Y-45395000D01*
G04 #@! TO.C,Q5*
X72900000Y-45395000D02*
X72900000Y-44465000D01*
X72900000Y-42235000D02*
X72900000Y-43165000D01*
X72900000Y-42235000D02*
X75060000Y-42235000D01*
X72900000Y-45395000D02*
X74360000Y-45395000D01*
G04 #@! TO.C,Q6*
X62740000Y-45395000D02*
X62740000Y-44465000D01*
X62740000Y-42235000D02*
X62740000Y-43165000D01*
X62740000Y-42235000D02*
X64900000Y-42235000D01*
X62740000Y-45395000D02*
X64200000Y-45395000D01*
D11*
G04 #@! TO.C,R1*
X101330000Y-25595000D02*
X99330000Y-25595000D01*
X99330000Y-27745000D02*
X101330000Y-27745000D01*
G04 #@! TO.C,R2*
X108950000Y-25595000D02*
X106950000Y-25595000D01*
X106950000Y-27745000D02*
X108950000Y-27745000D01*
G04 #@! TO.C,R3*
X116570000Y-25595000D02*
X114570000Y-25595000D01*
X114570000Y-27745000D02*
X116570000Y-27745000D01*
G04 #@! TO.C,R4*
X114570000Y-42985000D02*
X116570000Y-42985000D01*
X116570000Y-40835000D02*
X114570000Y-40835000D01*
G04 #@! TO.C,R5*
X106950000Y-42985000D02*
X108950000Y-42985000D01*
X108950000Y-40835000D02*
X106950000Y-40835000D01*
G04 #@! TO.C,R6*
X99330000Y-42985000D02*
X101330000Y-42985000D01*
X101330000Y-40835000D02*
X99330000Y-40835000D01*
G04 #@! TO.C,R8*
X51578000Y-43620000D02*
X53578000Y-43620000D01*
X53578000Y-41470000D02*
X51578000Y-41470000D01*
G04 #@! TO.C,R9*
X41207000Y-25384000D02*
X41207000Y-23384000D01*
X39057000Y-23384000D02*
X39057000Y-25384000D01*
G04 #@! TO.C,R10*
X53610000Y-45525000D02*
X55610000Y-45525000D01*
X55610000Y-43375000D02*
X53610000Y-43375000D01*
G04 #@! TO.C,R12*
X101330000Y-23690000D02*
X99330000Y-23690000D01*
X99330000Y-25840000D02*
X101330000Y-25840000D01*
G04 #@! TO.C,R13*
X108950000Y-23690000D02*
X106950000Y-23690000D01*
X106950000Y-25840000D02*
X108950000Y-25840000D01*
G04 #@! TO.C,R14*
X116570000Y-23690000D02*
X114570000Y-23690000D01*
X114570000Y-25840000D02*
X116570000Y-25840000D01*
G04 #@! TO.C,R15*
X114570000Y-44890000D02*
X116570000Y-44890000D01*
X116570000Y-42740000D02*
X114570000Y-42740000D01*
G04 #@! TO.C,R16*
X106950000Y-44890000D02*
X108950000Y-44890000D01*
X108950000Y-42740000D02*
X106950000Y-42740000D01*
G04 #@! TO.C,R18*
X42688000Y-35746000D02*
X44688000Y-35746000D01*
X44688000Y-33596000D02*
X42688000Y-33596000D01*
G04 #@! TO.C,R19*
X42688000Y-38159000D02*
X44688000Y-38159000D01*
X44688000Y-36009000D02*
X42688000Y-36009000D01*
G04 #@! TO.C,R20*
X39057000Y-33036000D02*
X39057000Y-35036000D01*
X41207000Y-35036000D02*
X41207000Y-33036000D01*
G04 #@! TO.C,R21*
X41207000Y-30210000D02*
X41207000Y-28210000D01*
X39057000Y-28210000D02*
X39057000Y-30210000D01*
G04 #@! TO.C,R24*
X89340000Y-25765000D02*
X89340000Y-23765000D01*
X87190000Y-23765000D02*
X87190000Y-25765000D01*
G04 #@! TO.C,R25*
X87435000Y-25765000D02*
X87435000Y-23765000D01*
X85285000Y-23765000D02*
X85285000Y-25765000D01*
G04 #@! TO.C,R26*
X85285000Y-40275000D02*
X85285000Y-42275000D01*
X87435000Y-42275000D02*
X87435000Y-40275000D01*
G04 #@! TO.C,R27*
X87190000Y-40275000D02*
X87190000Y-42275000D01*
X89340000Y-42275000D02*
X89340000Y-40275000D01*
G04 #@! TO.C,R28*
X91000000Y-40275000D02*
X91000000Y-42275000D01*
X93150000Y-42275000D02*
X93150000Y-40275000D01*
G04 #@! TO.C,R29*
X95055000Y-25765000D02*
X95055000Y-23765000D01*
X92905000Y-23765000D02*
X92905000Y-25765000D01*
G04 #@! TO.C,R30*
X93150000Y-25765000D02*
X93150000Y-23765000D01*
X91000000Y-23765000D02*
X91000000Y-25765000D01*
G04 #@! TO.C,R31*
X79180000Y-25765000D02*
X79180000Y-23765000D01*
X77030000Y-23765000D02*
X77030000Y-25765000D01*
G04 #@! TO.C,R32*
X77275000Y-25765000D02*
X77275000Y-23765000D01*
X75125000Y-23765000D02*
X75125000Y-25765000D01*
G04 #@! TO.C,R33*
X75125000Y-40275000D02*
X75125000Y-42275000D01*
X77275000Y-42275000D02*
X77275000Y-40275000D01*
G04 #@! TO.C,R34*
X77030000Y-40275000D02*
X77030000Y-42275000D01*
X79180000Y-42275000D02*
X79180000Y-40275000D01*
G04 #@! TO.C,R35*
X80840000Y-40275000D02*
X80840000Y-42275000D01*
X82990000Y-42275000D02*
X82990000Y-40275000D01*
G04 #@! TO.C,R36*
X84895000Y-25765000D02*
X84895000Y-23765000D01*
X82745000Y-23765000D02*
X82745000Y-25765000D01*
G04 #@! TO.C,R37*
X82990000Y-25765000D02*
X82990000Y-23765000D01*
X80840000Y-23765000D02*
X80840000Y-25765000D01*
G04 #@! TO.C,R38*
X69020000Y-25765000D02*
X69020000Y-23765000D01*
X66870000Y-23765000D02*
X66870000Y-25765000D01*
G04 #@! TO.C,R39*
X67115000Y-25765000D02*
X67115000Y-23765000D01*
X64965000Y-23765000D02*
X64965000Y-25765000D01*
G04 #@! TO.C,R40*
X64965000Y-40275000D02*
X64965000Y-42275000D01*
X67115000Y-42275000D02*
X67115000Y-40275000D01*
G04 #@! TO.C,R41*
X66870000Y-40275000D02*
X66870000Y-42275000D01*
X69020000Y-42275000D02*
X69020000Y-40275000D01*
G04 #@! TO.C,R42*
X70680000Y-40275000D02*
X70680000Y-42275000D01*
X72830000Y-42275000D02*
X72830000Y-40275000D01*
G04 #@! TO.C,R43*
X74735000Y-25765000D02*
X74735000Y-23765000D01*
X72585000Y-23765000D02*
X72585000Y-25765000D01*
G04 #@! TO.C,R44*
X72830000Y-25765000D02*
X72830000Y-23765000D01*
X70680000Y-23765000D02*
X70680000Y-25765000D01*
G04 #@! TO.C,R45*
X58860000Y-25765000D02*
X58860000Y-23765000D01*
X56710000Y-23765000D02*
X56710000Y-25765000D01*
G04 #@! TO.C,R46*
X56955000Y-25765000D02*
X56955000Y-23765000D01*
X54805000Y-23765000D02*
X54805000Y-25765000D01*
G04 #@! TO.C,R47*
X54805000Y-40275000D02*
X54805000Y-42275000D01*
X56955000Y-42275000D02*
X56955000Y-40275000D01*
G04 #@! TO.C,R48*
X56710000Y-40275000D02*
X56710000Y-42275000D01*
X58860000Y-42275000D02*
X58860000Y-40275000D01*
G04 #@! TO.C,R49*
X60520000Y-40275000D02*
X60520000Y-42275000D01*
X62670000Y-42275000D02*
X62670000Y-40275000D01*
G04 #@! TO.C,R50*
X64575000Y-25765000D02*
X64575000Y-23765000D01*
X62425000Y-23765000D02*
X62425000Y-25765000D01*
G04 #@! TO.C,R51*
X62670000Y-25765000D02*
X62670000Y-23765000D01*
X60520000Y-23765000D02*
X60520000Y-25765000D01*
G04 #@! TO.C,R52*
X90535000Y-43375000D02*
X88535000Y-43375000D01*
X88535000Y-45525000D02*
X90535000Y-45525000D01*
G04 #@! TO.C,R53*
X80375000Y-43375000D02*
X78375000Y-43375000D01*
X78375000Y-45525000D02*
X80375000Y-45525000D01*
G04 #@! TO.C,R54*
X70215000Y-43375000D02*
X68215000Y-43375000D01*
X68215000Y-45525000D02*
X70215000Y-45525000D01*
G04 #@! TO.C,R55*
X60055000Y-43375000D02*
X58055000Y-43375000D01*
X58055000Y-45525000D02*
X60055000Y-45525000D01*
G04 #@! TO.C,U1*
X107950000Y-36576000D02*
X107950000Y-31750000D01*
X107950000Y-31750000D02*
X97790000Y-31750000D01*
X97790000Y-31750000D02*
X97790000Y-36576000D01*
X97790000Y-36576000D02*
X107950000Y-36576000D01*
X97790000Y-34798000D02*
X98425000Y-34798000D01*
X98425000Y-34798000D02*
X98425000Y-33528000D01*
X98425000Y-33528000D02*
X97790000Y-33528000D01*
G04 #@! TO.C,U10*
X90932000Y-38608000D02*
X90932000Y-37846000D01*
X90932000Y-37846000D02*
X89408000Y-37846000D01*
X89408000Y-37846000D02*
X89408000Y-38608000D01*
X92456000Y-27432000D02*
X87884000Y-27432000D01*
X87884000Y-27432000D02*
X87884000Y-38608000D01*
X87884000Y-38608000D02*
X92456000Y-38608000D01*
X92456000Y-38608000D02*
X92456000Y-27432000D01*
G04 #@! TO.C,U11*
X80772000Y-38608000D02*
X80772000Y-37846000D01*
X80772000Y-37846000D02*
X79248000Y-37846000D01*
X79248000Y-37846000D02*
X79248000Y-38608000D01*
X82296000Y-27432000D02*
X77724000Y-27432000D01*
X77724000Y-27432000D02*
X77724000Y-38608000D01*
X77724000Y-38608000D02*
X82296000Y-38608000D01*
X82296000Y-38608000D02*
X82296000Y-27432000D01*
G04 #@! TO.C,U12*
X70612000Y-38608000D02*
X70612000Y-37846000D01*
X70612000Y-37846000D02*
X69088000Y-37846000D01*
X69088000Y-37846000D02*
X69088000Y-38608000D01*
X72136000Y-27432000D02*
X67564000Y-27432000D01*
X67564000Y-27432000D02*
X67564000Y-38608000D01*
X67564000Y-38608000D02*
X72136000Y-38608000D01*
X72136000Y-38608000D02*
X72136000Y-27432000D01*
G04 #@! TO.C,U13*
X60452000Y-38608000D02*
X60452000Y-37846000D01*
X60452000Y-37846000D02*
X58928000Y-37846000D01*
X58928000Y-37846000D02*
X58928000Y-38608000D01*
X61976000Y-27432000D02*
X57404000Y-27432000D01*
X57404000Y-27432000D02*
X57404000Y-38608000D01*
X57404000Y-38608000D02*
X61976000Y-38608000D01*
X61976000Y-38608000D02*
X61976000Y-27432000D01*
G04 #@! TO.C,IC1*
X41392380Y-26963809D02*
X40392380Y-26963809D01*
X41297142Y-28011428D02*
X41344761Y-27963809D01*
X41392380Y-27820952D01*
X41392380Y-27725714D01*
X41344761Y-27582857D01*
X41249523Y-27487619D01*
X41154285Y-27440000D01*
X40963809Y-27392380D01*
X40820952Y-27392380D01*
X40630476Y-27440000D01*
X40535238Y-27487619D01*
X40440000Y-27582857D01*
X40392380Y-27725714D01*
X40392380Y-27820952D01*
X40440000Y-27963809D01*
X40487619Y-28011428D01*
X41392380Y-28963809D02*
X41392380Y-28392380D01*
X41392380Y-28678095D02*
X40392380Y-28678095D01*
X40535238Y-28582857D01*
X40630476Y-28487619D01*
X40678095Y-28392380D01*
G04 #@! TO.C,R17*
X100972857Y-41967380D02*
X101306190Y-41491190D01*
X101544285Y-41967380D02*
X101544285Y-40967380D01*
X101163333Y-40967380D01*
X101068095Y-41015000D01*
X101020476Y-41062619D01*
X100972857Y-41157857D01*
X100972857Y-41300714D01*
X101020476Y-41395952D01*
X101068095Y-41443571D01*
X101163333Y-41491190D01*
X101544285Y-41491190D01*
X100020476Y-41967380D02*
X100591904Y-41967380D01*
X100306190Y-41967380D02*
X100306190Y-40967380D01*
X100401428Y-41110238D01*
X100496666Y-41205476D01*
X100591904Y-41253095D01*
X99687142Y-40967380D02*
X99020476Y-40967380D01*
X99449047Y-41967380D01*
G04 #@! TO.C,C1*
X35726666Y-23217142D02*
X35774285Y-23264761D01*
X35917142Y-23312380D01*
X36012380Y-23312380D01*
X36155238Y-23264761D01*
X36250476Y-23169523D01*
X36298095Y-23074285D01*
X36345714Y-22883809D01*
X36345714Y-22740952D01*
X36298095Y-22550476D01*
X36250476Y-22455238D01*
X36155238Y-22360000D01*
X36012380Y-22312380D01*
X35917142Y-22312380D01*
X35774285Y-22360000D01*
X35726666Y-22407619D01*
X34774285Y-23312380D02*
X35345714Y-23312380D01*
X35060000Y-23312380D02*
X35060000Y-22312380D01*
X35155238Y-22455238D01*
X35250476Y-22550476D01*
X35345714Y-22598095D01*
G04 #@! TO.C,C2*
X100496666Y-26632142D02*
X100544285Y-26679761D01*
X100687142Y-26727380D01*
X100782380Y-26727380D01*
X100925238Y-26679761D01*
X101020476Y-26584523D01*
X101068095Y-26489285D01*
X101115714Y-26298809D01*
X101115714Y-26155952D01*
X101068095Y-25965476D01*
X101020476Y-25870238D01*
X100925238Y-25775000D01*
X100782380Y-25727380D01*
X100687142Y-25727380D01*
X100544285Y-25775000D01*
X100496666Y-25822619D01*
X100115714Y-25822619D02*
X100068095Y-25775000D01*
X99972857Y-25727380D01*
X99734761Y-25727380D01*
X99639523Y-25775000D01*
X99591904Y-25822619D01*
X99544285Y-25917857D01*
X99544285Y-26013095D01*
X99591904Y-26155952D01*
X100163333Y-26727380D01*
X99544285Y-26727380D01*
G04 #@! TO.C,C3*
X117691142Y-31329333D02*
X117738761Y-31281714D01*
X117786380Y-31138857D01*
X117786380Y-31043619D01*
X117738761Y-30900761D01*
X117643523Y-30805523D01*
X117548285Y-30757904D01*
X117357809Y-30710285D01*
X117214952Y-30710285D01*
X117024476Y-30757904D01*
X116929238Y-30805523D01*
X116834000Y-30900761D01*
X116786380Y-31043619D01*
X116786380Y-31138857D01*
X116834000Y-31281714D01*
X116881619Y-31329333D01*
X116786380Y-31662666D02*
X116786380Y-32281714D01*
X117167333Y-31948380D01*
X117167333Y-32091238D01*
X117214952Y-32186476D01*
X117262571Y-32234095D01*
X117357809Y-32281714D01*
X117595904Y-32281714D01*
X117691142Y-32234095D01*
X117738761Y-32186476D01*
X117786380Y-32091238D01*
X117786380Y-31805523D01*
X117738761Y-31710285D01*
X117691142Y-31662666D01*
G04 #@! TO.C,C4*
X108116666Y-26632142D02*
X108164285Y-26679761D01*
X108307142Y-26727380D01*
X108402380Y-26727380D01*
X108545238Y-26679761D01*
X108640476Y-26584523D01*
X108688095Y-26489285D01*
X108735714Y-26298809D01*
X108735714Y-26155952D01*
X108688095Y-25965476D01*
X108640476Y-25870238D01*
X108545238Y-25775000D01*
X108402380Y-25727380D01*
X108307142Y-25727380D01*
X108164285Y-25775000D01*
X108116666Y-25822619D01*
X107259523Y-26060714D02*
X107259523Y-26727380D01*
X107497619Y-25679761D02*
X107735714Y-26394047D01*
X107116666Y-26394047D01*
G04 #@! TO.C,C5*
X115736666Y-26632142D02*
X115784285Y-26679761D01*
X115927142Y-26727380D01*
X116022380Y-26727380D01*
X116165238Y-26679761D01*
X116260476Y-26584523D01*
X116308095Y-26489285D01*
X116355714Y-26298809D01*
X116355714Y-26155952D01*
X116308095Y-25965476D01*
X116260476Y-25870238D01*
X116165238Y-25775000D01*
X116022380Y-25727380D01*
X115927142Y-25727380D01*
X115784285Y-25775000D01*
X115736666Y-25822619D01*
X114831904Y-25727380D02*
X115308095Y-25727380D01*
X115355714Y-26203571D01*
X115308095Y-26155952D01*
X115212857Y-26108333D01*
X114974761Y-26108333D01*
X114879523Y-26155952D01*
X114831904Y-26203571D01*
X114784285Y-26298809D01*
X114784285Y-26536904D01*
X114831904Y-26632142D01*
X114879523Y-26679761D01*
X114974761Y-26727380D01*
X115212857Y-26727380D01*
X115308095Y-26679761D01*
X115355714Y-26632142D01*
G04 #@! TO.C,C6*
X115736666Y-42662142D02*
X115784285Y-42709761D01*
X115927142Y-42757380D01*
X116022380Y-42757380D01*
X116165238Y-42709761D01*
X116260476Y-42614523D01*
X116308095Y-42519285D01*
X116355714Y-42328809D01*
X116355714Y-42185952D01*
X116308095Y-41995476D01*
X116260476Y-41900238D01*
X116165238Y-41805000D01*
X116022380Y-41757380D01*
X115927142Y-41757380D01*
X115784285Y-41805000D01*
X115736666Y-41852619D01*
X114879523Y-41757380D02*
X115070000Y-41757380D01*
X115165238Y-41805000D01*
X115212857Y-41852619D01*
X115308095Y-41995476D01*
X115355714Y-42185952D01*
X115355714Y-42566904D01*
X115308095Y-42662142D01*
X115260476Y-42709761D01*
X115165238Y-42757380D01*
X114974761Y-42757380D01*
X114879523Y-42709761D01*
X114831904Y-42662142D01*
X114784285Y-42566904D01*
X114784285Y-42328809D01*
X114831904Y-42233571D01*
X114879523Y-42185952D01*
X114974761Y-42138333D01*
X115165238Y-42138333D01*
X115260476Y-42185952D01*
X115308095Y-42233571D01*
X115355714Y-42328809D01*
G04 #@! TO.C,C7*
X108116666Y-42662142D02*
X108164285Y-42709761D01*
X108307142Y-42757380D01*
X108402380Y-42757380D01*
X108545238Y-42709761D01*
X108640476Y-42614523D01*
X108688095Y-42519285D01*
X108735714Y-42328809D01*
X108735714Y-42185952D01*
X108688095Y-41995476D01*
X108640476Y-41900238D01*
X108545238Y-41805000D01*
X108402380Y-41757380D01*
X108307142Y-41757380D01*
X108164285Y-41805000D01*
X108116666Y-41852619D01*
X107783333Y-41757380D02*
X107116666Y-41757380D01*
X107545238Y-42757380D01*
G04 #@! TO.C,C8*
X100496666Y-42662142D02*
X100544285Y-42709761D01*
X100687142Y-42757380D01*
X100782380Y-42757380D01*
X100925238Y-42709761D01*
X101020476Y-42614523D01*
X101068095Y-42519285D01*
X101115714Y-42328809D01*
X101115714Y-42185952D01*
X101068095Y-41995476D01*
X101020476Y-41900238D01*
X100925238Y-41805000D01*
X100782380Y-41757380D01*
X100687142Y-41757380D01*
X100544285Y-41805000D01*
X100496666Y-41852619D01*
X99925238Y-42185952D02*
X100020476Y-42138333D01*
X100068095Y-42090714D01*
X100115714Y-41995476D01*
X100115714Y-41947857D01*
X100068095Y-41852619D01*
X100020476Y-41805000D01*
X99925238Y-41757380D01*
X99734761Y-41757380D01*
X99639523Y-41805000D01*
X99591904Y-41852619D01*
X99544285Y-41947857D01*
X99544285Y-41995476D01*
X99591904Y-42090714D01*
X99639523Y-42138333D01*
X99734761Y-42185952D01*
X99925238Y-42185952D01*
X100020476Y-42233571D01*
X100068095Y-42281190D01*
X100115714Y-42376428D01*
X100115714Y-42566904D01*
X100068095Y-42662142D01*
X100020476Y-42709761D01*
X99925238Y-42757380D01*
X99734761Y-42757380D01*
X99639523Y-42709761D01*
X99591904Y-42662142D01*
X99544285Y-42566904D01*
X99544285Y-42376428D01*
X99591904Y-42281190D01*
X99639523Y-42233571D01*
X99734761Y-42185952D01*
G04 #@! TO.C,CON1*
X51688142Y-42038714D02*
X51735761Y-41991095D01*
X51783380Y-41848238D01*
X51783380Y-41753000D01*
X51735761Y-41610142D01*
X51640523Y-41514904D01*
X51545285Y-41467285D01*
X51354809Y-41419666D01*
X51211952Y-41419666D01*
X51021476Y-41467285D01*
X50926238Y-41514904D01*
X50831000Y-41610142D01*
X50783380Y-41753000D01*
X50783380Y-41848238D01*
X50831000Y-41991095D01*
X50878619Y-42038714D01*
X50783380Y-42657761D02*
X50783380Y-42848238D01*
X50831000Y-42943476D01*
X50926238Y-43038714D01*
X51116714Y-43086333D01*
X51450047Y-43086333D01*
X51640523Y-43038714D01*
X51735761Y-42943476D01*
X51783380Y-42848238D01*
X51783380Y-42657761D01*
X51735761Y-42562523D01*
X51640523Y-42467285D01*
X51450047Y-42419666D01*
X51116714Y-42419666D01*
X50926238Y-42467285D01*
X50831000Y-42562523D01*
X50783380Y-42657761D01*
X51783380Y-43514904D02*
X50783380Y-43514904D01*
X51783380Y-44086333D01*
X50783380Y-44086333D01*
X51783380Y-45086333D02*
X51783380Y-44514904D01*
X51783380Y-44800619D02*
X50783380Y-44800619D01*
X50926238Y-44705380D01*
X51021476Y-44610142D01*
X51069095Y-44514904D01*
G04 #@! TO.C,Q1*
X50387238Y-35385619D02*
X50482476Y-35338000D01*
X50577714Y-35242761D01*
X50720571Y-35099904D01*
X50815809Y-35052285D01*
X50911047Y-35052285D01*
X50863428Y-35290380D02*
X50958666Y-35242761D01*
X51053904Y-35147523D01*
X51101523Y-34957047D01*
X51101523Y-34623714D01*
X51053904Y-34433238D01*
X50958666Y-34338000D01*
X50863428Y-34290380D01*
X50672952Y-34290380D01*
X50577714Y-34338000D01*
X50482476Y-34433238D01*
X50434857Y-34623714D01*
X50434857Y-34957047D01*
X50482476Y-35147523D01*
X50577714Y-35242761D01*
X50672952Y-35290380D01*
X50863428Y-35290380D01*
X49482476Y-35290380D02*
X50053904Y-35290380D01*
X49768190Y-35290380D02*
X49768190Y-34290380D01*
X49863428Y-34433238D01*
X49958666Y-34528476D01*
X50053904Y-34576095D01*
G04 #@! TO.C,Q2*
X47847238Y-38353619D02*
X47942476Y-38306000D01*
X48037714Y-38210761D01*
X48180571Y-38067904D01*
X48275809Y-38020285D01*
X48371047Y-38020285D01*
X48323428Y-38258380D02*
X48418666Y-38210761D01*
X48513904Y-38115523D01*
X48561523Y-37925047D01*
X48561523Y-37591714D01*
X48513904Y-37401238D01*
X48418666Y-37306000D01*
X48323428Y-37258380D01*
X48132952Y-37258380D01*
X48037714Y-37306000D01*
X47942476Y-37401238D01*
X47894857Y-37591714D01*
X47894857Y-37925047D01*
X47942476Y-38115523D01*
X48037714Y-38210761D01*
X48132952Y-38258380D01*
X48323428Y-38258380D01*
X47513904Y-37353619D02*
X47466285Y-37306000D01*
X47371047Y-37258380D01*
X47132952Y-37258380D01*
X47037714Y-37306000D01*
X46990095Y-37353619D01*
X46942476Y-37448857D01*
X46942476Y-37544095D01*
X46990095Y-37686952D01*
X47561523Y-38258380D01*
X46942476Y-38258380D01*
G04 #@! TO.C,Q3*
X94075238Y-41862619D02*
X94170476Y-41815000D01*
X94265714Y-41719761D01*
X94408571Y-41576904D01*
X94503809Y-41529285D01*
X94599047Y-41529285D01*
X94551428Y-41767380D02*
X94646666Y-41719761D01*
X94741904Y-41624523D01*
X94789523Y-41434047D01*
X94789523Y-41100714D01*
X94741904Y-40910238D01*
X94646666Y-40815000D01*
X94551428Y-40767380D01*
X94360952Y-40767380D01*
X94265714Y-40815000D01*
X94170476Y-40910238D01*
X94122857Y-41100714D01*
X94122857Y-41434047D01*
X94170476Y-41624523D01*
X94265714Y-41719761D01*
X94360952Y-41767380D01*
X94551428Y-41767380D01*
X93789523Y-40767380D02*
X93170476Y-40767380D01*
X93503809Y-41148333D01*
X93360952Y-41148333D01*
X93265714Y-41195952D01*
X93218095Y-41243571D01*
X93170476Y-41338809D01*
X93170476Y-41576904D01*
X93218095Y-41672142D01*
X93265714Y-41719761D01*
X93360952Y-41767380D01*
X93646666Y-41767380D01*
X93741904Y-41719761D01*
X93789523Y-41672142D01*
G04 #@! TO.C,Q4*
X83915238Y-41862619D02*
X84010476Y-41815000D01*
X84105714Y-41719761D01*
X84248571Y-41576904D01*
X84343809Y-41529285D01*
X84439047Y-41529285D01*
X84391428Y-41767380D02*
X84486666Y-41719761D01*
X84581904Y-41624523D01*
X84629523Y-41434047D01*
X84629523Y-41100714D01*
X84581904Y-40910238D01*
X84486666Y-40815000D01*
X84391428Y-40767380D01*
X84200952Y-40767380D01*
X84105714Y-40815000D01*
X84010476Y-40910238D01*
X83962857Y-41100714D01*
X83962857Y-41434047D01*
X84010476Y-41624523D01*
X84105714Y-41719761D01*
X84200952Y-41767380D01*
X84391428Y-41767380D01*
X83105714Y-41100714D02*
X83105714Y-41767380D01*
X83343809Y-40719761D02*
X83581904Y-41434047D01*
X82962857Y-41434047D01*
G04 #@! TO.C,Q5*
X73755238Y-41862619D02*
X73850476Y-41815000D01*
X73945714Y-41719761D01*
X74088571Y-41576904D01*
X74183809Y-41529285D01*
X74279047Y-41529285D01*
X74231428Y-41767380D02*
X74326666Y-41719761D01*
X74421904Y-41624523D01*
X74469523Y-41434047D01*
X74469523Y-41100714D01*
X74421904Y-40910238D01*
X74326666Y-40815000D01*
X74231428Y-40767380D01*
X74040952Y-40767380D01*
X73945714Y-40815000D01*
X73850476Y-40910238D01*
X73802857Y-41100714D01*
X73802857Y-41434047D01*
X73850476Y-41624523D01*
X73945714Y-41719761D01*
X74040952Y-41767380D01*
X74231428Y-41767380D01*
X72898095Y-40767380D02*
X73374285Y-40767380D01*
X73421904Y-41243571D01*
X73374285Y-41195952D01*
X73279047Y-41148333D01*
X73040952Y-41148333D01*
X72945714Y-41195952D01*
X72898095Y-41243571D01*
X72850476Y-41338809D01*
X72850476Y-41576904D01*
X72898095Y-41672142D01*
X72945714Y-41719761D01*
X73040952Y-41767380D01*
X73279047Y-41767380D01*
X73374285Y-41719761D01*
X73421904Y-41672142D01*
G04 #@! TO.C,Q6*
X63595238Y-41862619D02*
X63690476Y-41815000D01*
X63785714Y-41719761D01*
X63928571Y-41576904D01*
X64023809Y-41529285D01*
X64119047Y-41529285D01*
X64071428Y-41767380D02*
X64166666Y-41719761D01*
X64261904Y-41624523D01*
X64309523Y-41434047D01*
X64309523Y-41100714D01*
X64261904Y-40910238D01*
X64166666Y-40815000D01*
X64071428Y-40767380D01*
X63880952Y-40767380D01*
X63785714Y-40815000D01*
X63690476Y-40910238D01*
X63642857Y-41100714D01*
X63642857Y-41434047D01*
X63690476Y-41624523D01*
X63785714Y-41719761D01*
X63880952Y-41767380D01*
X64071428Y-41767380D01*
X62785714Y-40767380D02*
X62976190Y-40767380D01*
X63071428Y-40815000D01*
X63119047Y-40862619D01*
X63214285Y-41005476D01*
X63261904Y-41195952D01*
X63261904Y-41576904D01*
X63214285Y-41672142D01*
X63166666Y-41719761D01*
X63071428Y-41767380D01*
X62880952Y-41767380D01*
X62785714Y-41719761D01*
X62738095Y-41672142D01*
X62690476Y-41576904D01*
X62690476Y-41338809D01*
X62738095Y-41243571D01*
X62785714Y-41195952D01*
X62880952Y-41148333D01*
X63071428Y-41148333D01*
X63166666Y-41195952D01*
X63214285Y-41243571D01*
X63261904Y-41338809D01*
G04 #@! TO.C,R1*
X100496666Y-29422380D02*
X100830000Y-28946190D01*
X101068095Y-29422380D02*
X101068095Y-28422380D01*
X100687142Y-28422380D01*
X100591904Y-28470000D01*
X100544285Y-28517619D01*
X100496666Y-28612857D01*
X100496666Y-28755714D01*
X100544285Y-28850952D01*
X100591904Y-28898571D01*
X100687142Y-28946190D01*
X101068095Y-28946190D01*
X99544285Y-29422380D02*
X100115714Y-29422380D01*
X99830000Y-29422380D02*
X99830000Y-28422380D01*
X99925238Y-28565238D01*
X100020476Y-28660476D01*
X100115714Y-28708095D01*
G04 #@! TO.C,R2*
X108116666Y-29422380D02*
X108450000Y-28946190D01*
X108688095Y-29422380D02*
X108688095Y-28422380D01*
X108307142Y-28422380D01*
X108211904Y-28470000D01*
X108164285Y-28517619D01*
X108116666Y-28612857D01*
X108116666Y-28755714D01*
X108164285Y-28850952D01*
X108211904Y-28898571D01*
X108307142Y-28946190D01*
X108688095Y-28946190D01*
X107735714Y-28517619D02*
X107688095Y-28470000D01*
X107592857Y-28422380D01*
X107354761Y-28422380D01*
X107259523Y-28470000D01*
X107211904Y-28517619D01*
X107164285Y-28612857D01*
X107164285Y-28708095D01*
X107211904Y-28850952D01*
X107783333Y-29422380D01*
X107164285Y-29422380D01*
G04 #@! TO.C,R3*
X115736666Y-29422380D02*
X116070000Y-28946190D01*
X116308095Y-29422380D02*
X116308095Y-28422380D01*
X115927142Y-28422380D01*
X115831904Y-28470000D01*
X115784285Y-28517619D01*
X115736666Y-28612857D01*
X115736666Y-28755714D01*
X115784285Y-28850952D01*
X115831904Y-28898571D01*
X115927142Y-28946190D01*
X116308095Y-28946190D01*
X115403333Y-28422380D02*
X114784285Y-28422380D01*
X115117619Y-28803333D01*
X114974761Y-28803333D01*
X114879523Y-28850952D01*
X114831904Y-28898571D01*
X114784285Y-28993809D01*
X114784285Y-29231904D01*
X114831904Y-29327142D01*
X114879523Y-29374761D01*
X114974761Y-29422380D01*
X115260476Y-29422380D01*
X115355714Y-29374761D01*
X115403333Y-29327142D01*
G04 #@! TO.C,R4*
X115736666Y-40062380D02*
X116070000Y-39586190D01*
X116308095Y-40062380D02*
X116308095Y-39062380D01*
X115927142Y-39062380D01*
X115831904Y-39110000D01*
X115784285Y-39157619D01*
X115736666Y-39252857D01*
X115736666Y-39395714D01*
X115784285Y-39490952D01*
X115831904Y-39538571D01*
X115927142Y-39586190D01*
X116308095Y-39586190D01*
X114879523Y-39395714D02*
X114879523Y-40062380D01*
X115117619Y-39014761D02*
X115355714Y-39729047D01*
X114736666Y-39729047D01*
G04 #@! TO.C,R5*
X108116666Y-40062380D02*
X108450000Y-39586190D01*
X108688095Y-40062380D02*
X108688095Y-39062380D01*
X108307142Y-39062380D01*
X108211904Y-39110000D01*
X108164285Y-39157619D01*
X108116666Y-39252857D01*
X108116666Y-39395714D01*
X108164285Y-39490952D01*
X108211904Y-39538571D01*
X108307142Y-39586190D01*
X108688095Y-39586190D01*
X107211904Y-39062380D02*
X107688095Y-39062380D01*
X107735714Y-39538571D01*
X107688095Y-39490952D01*
X107592857Y-39443333D01*
X107354761Y-39443333D01*
X107259523Y-39490952D01*
X107211904Y-39538571D01*
X107164285Y-39633809D01*
X107164285Y-39871904D01*
X107211904Y-39967142D01*
X107259523Y-40014761D01*
X107354761Y-40062380D01*
X107592857Y-40062380D01*
X107688095Y-40014761D01*
X107735714Y-39967142D01*
G04 #@! TO.C,R6*
X100496666Y-40062380D02*
X100830000Y-39586190D01*
X101068095Y-40062380D02*
X101068095Y-39062380D01*
X100687142Y-39062380D01*
X100591904Y-39110000D01*
X100544285Y-39157619D01*
X100496666Y-39252857D01*
X100496666Y-39395714D01*
X100544285Y-39490952D01*
X100591904Y-39538571D01*
X100687142Y-39586190D01*
X101068095Y-39586190D01*
X99639523Y-39062380D02*
X99830000Y-39062380D01*
X99925238Y-39110000D01*
X99972857Y-39157619D01*
X100068095Y-39300476D01*
X100115714Y-39490952D01*
X100115714Y-39871904D01*
X100068095Y-39967142D01*
X100020476Y-40014761D01*
X99925238Y-40062380D01*
X99734761Y-40062380D01*
X99639523Y-40014761D01*
X99591904Y-39967142D01*
X99544285Y-39871904D01*
X99544285Y-39633809D01*
X99591904Y-39538571D01*
X99639523Y-39490952D01*
X99734761Y-39443333D01*
X99925238Y-39443333D01*
X100020476Y-39490952D01*
X100068095Y-39538571D01*
X100115714Y-39633809D01*
G04 #@! TO.C,R8*
X52744666Y-40697380D02*
X53078000Y-40221190D01*
X53316095Y-40697380D02*
X53316095Y-39697380D01*
X52935142Y-39697380D01*
X52839904Y-39745000D01*
X52792285Y-39792619D01*
X52744666Y-39887857D01*
X52744666Y-40030714D01*
X52792285Y-40125952D01*
X52839904Y-40173571D01*
X52935142Y-40221190D01*
X53316095Y-40221190D01*
X52173238Y-40125952D02*
X52268476Y-40078333D01*
X52316095Y-40030714D01*
X52363714Y-39935476D01*
X52363714Y-39887857D01*
X52316095Y-39792619D01*
X52268476Y-39745000D01*
X52173238Y-39697380D01*
X51982761Y-39697380D01*
X51887523Y-39745000D01*
X51839904Y-39792619D01*
X51792285Y-39887857D01*
X51792285Y-39935476D01*
X51839904Y-40030714D01*
X51887523Y-40078333D01*
X51982761Y-40125952D01*
X52173238Y-40125952D01*
X52268476Y-40173571D01*
X52316095Y-40221190D01*
X52363714Y-40316428D01*
X52363714Y-40506904D01*
X52316095Y-40602142D01*
X52268476Y-40649761D01*
X52173238Y-40697380D01*
X51982761Y-40697380D01*
X51887523Y-40649761D01*
X51839904Y-40602142D01*
X51792285Y-40506904D01*
X51792285Y-40316428D01*
X51839904Y-40221190D01*
X51887523Y-40173571D01*
X51982761Y-40125952D01*
G04 #@! TO.C,R9*
X38284380Y-24217333D02*
X37808190Y-23884000D01*
X38284380Y-23645904D02*
X37284380Y-23645904D01*
X37284380Y-24026857D01*
X37332000Y-24122095D01*
X37379619Y-24169714D01*
X37474857Y-24217333D01*
X37617714Y-24217333D01*
X37712952Y-24169714D01*
X37760571Y-24122095D01*
X37808190Y-24026857D01*
X37808190Y-23645904D01*
X38284380Y-24693523D02*
X38284380Y-24884000D01*
X38236761Y-24979238D01*
X38189142Y-25026857D01*
X38046285Y-25122095D01*
X37855809Y-25169714D01*
X37474857Y-25169714D01*
X37379619Y-25122095D01*
X37332000Y-25074476D01*
X37284380Y-24979238D01*
X37284380Y-24788761D01*
X37332000Y-24693523D01*
X37379619Y-24645904D01*
X37474857Y-24598285D01*
X37712952Y-24598285D01*
X37808190Y-24645904D01*
X37855809Y-24693523D01*
X37903428Y-24788761D01*
X37903428Y-24979238D01*
X37855809Y-25074476D01*
X37808190Y-25122095D01*
X37712952Y-25169714D01*
G04 #@! TO.C,R10*
X55252857Y-42602380D02*
X55586190Y-42126190D01*
X55824285Y-42602380D02*
X55824285Y-41602380D01*
X55443333Y-41602380D01*
X55348095Y-41650000D01*
X55300476Y-41697619D01*
X55252857Y-41792857D01*
X55252857Y-41935714D01*
X55300476Y-42030952D01*
X55348095Y-42078571D01*
X55443333Y-42126190D01*
X55824285Y-42126190D01*
X54300476Y-42602380D02*
X54871904Y-42602380D01*
X54586190Y-42602380D02*
X54586190Y-41602380D01*
X54681428Y-41745238D01*
X54776666Y-41840476D01*
X54871904Y-41888095D01*
X53681428Y-41602380D02*
X53586190Y-41602380D01*
X53490952Y-41650000D01*
X53443333Y-41697619D01*
X53395714Y-41792857D01*
X53348095Y-41983333D01*
X53348095Y-42221428D01*
X53395714Y-42411904D01*
X53443333Y-42507142D01*
X53490952Y-42554761D01*
X53586190Y-42602380D01*
X53681428Y-42602380D01*
X53776666Y-42554761D01*
X53824285Y-42507142D01*
X53871904Y-42411904D01*
X53919523Y-42221428D01*
X53919523Y-41983333D01*
X53871904Y-41792857D01*
X53824285Y-41697619D01*
X53776666Y-41650000D01*
X53681428Y-41602380D01*
G04 #@! TO.C,R12*
X100972857Y-27517380D02*
X101306190Y-27041190D01*
X101544285Y-27517380D02*
X101544285Y-26517380D01*
X101163333Y-26517380D01*
X101068095Y-26565000D01*
X101020476Y-26612619D01*
X100972857Y-26707857D01*
X100972857Y-26850714D01*
X101020476Y-26945952D01*
X101068095Y-26993571D01*
X101163333Y-27041190D01*
X101544285Y-27041190D01*
X100020476Y-27517380D02*
X100591904Y-27517380D01*
X100306190Y-27517380D02*
X100306190Y-26517380D01*
X100401428Y-26660238D01*
X100496666Y-26755476D01*
X100591904Y-26803095D01*
X99639523Y-26612619D02*
X99591904Y-26565000D01*
X99496666Y-26517380D01*
X99258571Y-26517380D01*
X99163333Y-26565000D01*
X99115714Y-26612619D01*
X99068095Y-26707857D01*
X99068095Y-26803095D01*
X99115714Y-26945952D01*
X99687142Y-27517380D01*
X99068095Y-27517380D01*
G04 #@! TO.C,R13*
X108592857Y-27517380D02*
X108926190Y-27041190D01*
X109164285Y-27517380D02*
X109164285Y-26517380D01*
X108783333Y-26517380D01*
X108688095Y-26565000D01*
X108640476Y-26612619D01*
X108592857Y-26707857D01*
X108592857Y-26850714D01*
X108640476Y-26945952D01*
X108688095Y-26993571D01*
X108783333Y-27041190D01*
X109164285Y-27041190D01*
X107640476Y-27517380D02*
X108211904Y-27517380D01*
X107926190Y-27517380D02*
X107926190Y-26517380D01*
X108021428Y-26660238D01*
X108116666Y-26755476D01*
X108211904Y-26803095D01*
X107307142Y-26517380D02*
X106688095Y-26517380D01*
X107021428Y-26898333D01*
X106878571Y-26898333D01*
X106783333Y-26945952D01*
X106735714Y-26993571D01*
X106688095Y-27088809D01*
X106688095Y-27326904D01*
X106735714Y-27422142D01*
X106783333Y-27469761D01*
X106878571Y-27517380D01*
X107164285Y-27517380D01*
X107259523Y-27469761D01*
X107307142Y-27422142D01*
G04 #@! TO.C,R14*
X116212857Y-27517380D02*
X116546190Y-27041190D01*
X116784285Y-27517380D02*
X116784285Y-26517380D01*
X116403333Y-26517380D01*
X116308095Y-26565000D01*
X116260476Y-26612619D01*
X116212857Y-26707857D01*
X116212857Y-26850714D01*
X116260476Y-26945952D01*
X116308095Y-26993571D01*
X116403333Y-27041190D01*
X116784285Y-27041190D01*
X115260476Y-27517380D02*
X115831904Y-27517380D01*
X115546190Y-27517380D02*
X115546190Y-26517380D01*
X115641428Y-26660238D01*
X115736666Y-26755476D01*
X115831904Y-26803095D01*
X114403333Y-26850714D02*
X114403333Y-27517380D01*
X114641428Y-26469761D02*
X114879523Y-27184047D01*
X114260476Y-27184047D01*
G04 #@! TO.C,R15*
X116212857Y-41967380D02*
X116546190Y-41491190D01*
X116784285Y-41967380D02*
X116784285Y-40967380D01*
X116403333Y-40967380D01*
X116308095Y-41015000D01*
X116260476Y-41062619D01*
X116212857Y-41157857D01*
X116212857Y-41300714D01*
X116260476Y-41395952D01*
X116308095Y-41443571D01*
X116403333Y-41491190D01*
X116784285Y-41491190D01*
X115260476Y-41967380D02*
X115831904Y-41967380D01*
X115546190Y-41967380D02*
X115546190Y-40967380D01*
X115641428Y-41110238D01*
X115736666Y-41205476D01*
X115831904Y-41253095D01*
X114355714Y-40967380D02*
X114831904Y-40967380D01*
X114879523Y-41443571D01*
X114831904Y-41395952D01*
X114736666Y-41348333D01*
X114498571Y-41348333D01*
X114403333Y-41395952D01*
X114355714Y-41443571D01*
X114308095Y-41538809D01*
X114308095Y-41776904D01*
X114355714Y-41872142D01*
X114403333Y-41919761D01*
X114498571Y-41967380D01*
X114736666Y-41967380D01*
X114831904Y-41919761D01*
X114879523Y-41872142D01*
G04 #@! TO.C,R16*
X108592857Y-41967380D02*
X108926190Y-41491190D01*
X109164285Y-41967380D02*
X109164285Y-40967380D01*
X108783333Y-40967380D01*
X108688095Y-41015000D01*
X108640476Y-41062619D01*
X108592857Y-41157857D01*
X108592857Y-41300714D01*
X108640476Y-41395952D01*
X108688095Y-41443571D01*
X108783333Y-41491190D01*
X109164285Y-41491190D01*
X107640476Y-41967380D02*
X108211904Y-41967380D01*
X107926190Y-41967380D02*
X107926190Y-40967380D01*
X108021428Y-41110238D01*
X108116666Y-41205476D01*
X108211904Y-41253095D01*
X106783333Y-40967380D02*
X106973809Y-40967380D01*
X107069047Y-41015000D01*
X107116666Y-41062619D01*
X107211904Y-41205476D01*
X107259523Y-41395952D01*
X107259523Y-41776904D01*
X107211904Y-41872142D01*
X107164285Y-41919761D01*
X107069047Y-41967380D01*
X106878571Y-41967380D01*
X106783333Y-41919761D01*
X106735714Y-41872142D01*
X106688095Y-41776904D01*
X106688095Y-41538809D01*
X106735714Y-41443571D01*
X106783333Y-41395952D01*
X106878571Y-41348333D01*
X107069047Y-41348333D01*
X107164285Y-41395952D01*
X107211904Y-41443571D01*
X107259523Y-41538809D01*
G04 #@! TO.C,R18*
X44330857Y-32823380D02*
X44664190Y-32347190D01*
X44902285Y-32823380D02*
X44902285Y-31823380D01*
X44521333Y-31823380D01*
X44426095Y-31871000D01*
X44378476Y-31918619D01*
X44330857Y-32013857D01*
X44330857Y-32156714D01*
X44378476Y-32251952D01*
X44426095Y-32299571D01*
X44521333Y-32347190D01*
X44902285Y-32347190D01*
X43378476Y-32823380D02*
X43949904Y-32823380D01*
X43664190Y-32823380D02*
X43664190Y-31823380D01*
X43759428Y-31966238D01*
X43854666Y-32061476D01*
X43949904Y-32109095D01*
X42807047Y-32251952D02*
X42902285Y-32204333D01*
X42949904Y-32156714D01*
X42997523Y-32061476D01*
X42997523Y-32013857D01*
X42949904Y-31918619D01*
X42902285Y-31871000D01*
X42807047Y-31823380D01*
X42616571Y-31823380D01*
X42521333Y-31871000D01*
X42473714Y-31918619D01*
X42426095Y-32013857D01*
X42426095Y-32061476D01*
X42473714Y-32156714D01*
X42521333Y-32204333D01*
X42616571Y-32251952D01*
X42807047Y-32251952D01*
X42902285Y-32299571D01*
X42949904Y-32347190D01*
X42997523Y-32442428D01*
X42997523Y-32632904D01*
X42949904Y-32728142D01*
X42902285Y-32775761D01*
X42807047Y-32823380D01*
X42616571Y-32823380D01*
X42521333Y-32775761D01*
X42473714Y-32728142D01*
X42426095Y-32632904D01*
X42426095Y-32442428D01*
X42473714Y-32347190D01*
X42521333Y-32299571D01*
X42616571Y-32251952D01*
G04 #@! TO.C,R19*
X44330857Y-35236380D02*
X44664190Y-34760190D01*
X44902285Y-35236380D02*
X44902285Y-34236380D01*
X44521333Y-34236380D01*
X44426095Y-34284000D01*
X44378476Y-34331619D01*
X44330857Y-34426857D01*
X44330857Y-34569714D01*
X44378476Y-34664952D01*
X44426095Y-34712571D01*
X44521333Y-34760190D01*
X44902285Y-34760190D01*
X43378476Y-35236380D02*
X43949904Y-35236380D01*
X43664190Y-35236380D02*
X43664190Y-34236380D01*
X43759428Y-34379238D01*
X43854666Y-34474476D01*
X43949904Y-34522095D01*
X42902285Y-35236380D02*
X42711809Y-35236380D01*
X42616571Y-35188761D01*
X42568952Y-35141142D01*
X42473714Y-34998285D01*
X42426095Y-34807809D01*
X42426095Y-34426857D01*
X42473714Y-34331619D01*
X42521333Y-34284000D01*
X42616571Y-34236380D01*
X42807047Y-34236380D01*
X42902285Y-34284000D01*
X42949904Y-34331619D01*
X42997523Y-34426857D01*
X42997523Y-34664952D01*
X42949904Y-34760190D01*
X42902285Y-34807809D01*
X42807047Y-34855428D01*
X42616571Y-34855428D01*
X42521333Y-34807809D01*
X42473714Y-34760190D01*
X42426095Y-34664952D01*
G04 #@! TO.C,R20*
X42884380Y-33393142D02*
X42408190Y-33059809D01*
X42884380Y-32821714D02*
X41884380Y-32821714D01*
X41884380Y-33202666D01*
X41932000Y-33297904D01*
X41979619Y-33345523D01*
X42074857Y-33393142D01*
X42217714Y-33393142D01*
X42312952Y-33345523D01*
X42360571Y-33297904D01*
X42408190Y-33202666D01*
X42408190Y-32821714D01*
X41979619Y-33774095D02*
X41932000Y-33821714D01*
X41884380Y-33916952D01*
X41884380Y-34155047D01*
X41932000Y-34250285D01*
X41979619Y-34297904D01*
X42074857Y-34345523D01*
X42170095Y-34345523D01*
X42312952Y-34297904D01*
X42884380Y-33726476D01*
X42884380Y-34345523D01*
X41884380Y-34964571D02*
X41884380Y-35059809D01*
X41932000Y-35155047D01*
X41979619Y-35202666D01*
X42074857Y-35250285D01*
X42265333Y-35297904D01*
X42503428Y-35297904D01*
X42693904Y-35250285D01*
X42789142Y-35202666D01*
X42836761Y-35155047D01*
X42884380Y-35059809D01*
X42884380Y-34964571D01*
X42836761Y-34869333D01*
X42789142Y-34821714D01*
X42693904Y-34774095D01*
X42503428Y-34726476D01*
X42265333Y-34726476D01*
X42074857Y-34774095D01*
X41979619Y-34821714D01*
X41932000Y-34869333D01*
X41884380Y-34964571D01*
G04 #@! TO.C,R21*
X38284380Y-28567142D02*
X37808190Y-28233809D01*
X38284380Y-27995714D02*
X37284380Y-27995714D01*
X37284380Y-28376666D01*
X37332000Y-28471904D01*
X37379619Y-28519523D01*
X37474857Y-28567142D01*
X37617714Y-28567142D01*
X37712952Y-28519523D01*
X37760571Y-28471904D01*
X37808190Y-28376666D01*
X37808190Y-27995714D01*
X37379619Y-28948095D02*
X37332000Y-28995714D01*
X37284380Y-29090952D01*
X37284380Y-29329047D01*
X37332000Y-29424285D01*
X37379619Y-29471904D01*
X37474857Y-29519523D01*
X37570095Y-29519523D01*
X37712952Y-29471904D01*
X38284380Y-28900476D01*
X38284380Y-29519523D01*
X38284380Y-30471904D02*
X38284380Y-29900476D01*
X38284380Y-30186190D02*
X37284380Y-30186190D01*
X37427238Y-30090952D01*
X37522476Y-29995714D01*
X37570095Y-29900476D01*
G04 #@! TO.C,R24*
X86417380Y-24122142D02*
X85941190Y-23788809D01*
X86417380Y-23550714D02*
X85417380Y-23550714D01*
X85417380Y-23931666D01*
X85465000Y-24026904D01*
X85512619Y-24074523D01*
X85607857Y-24122142D01*
X85750714Y-24122142D01*
X85845952Y-24074523D01*
X85893571Y-24026904D01*
X85941190Y-23931666D01*
X85941190Y-23550714D01*
X85512619Y-24503095D02*
X85465000Y-24550714D01*
X85417380Y-24645952D01*
X85417380Y-24884047D01*
X85465000Y-24979285D01*
X85512619Y-25026904D01*
X85607857Y-25074523D01*
X85703095Y-25074523D01*
X85845952Y-25026904D01*
X86417380Y-24455476D01*
X86417380Y-25074523D01*
X85750714Y-25931666D02*
X86417380Y-25931666D01*
X85369761Y-25693571D02*
X86084047Y-25455476D01*
X86084047Y-26074523D01*
G04 #@! TO.C,R25*
X84512380Y-24122142D02*
X84036190Y-23788809D01*
X84512380Y-23550714D02*
X83512380Y-23550714D01*
X83512380Y-23931666D01*
X83560000Y-24026904D01*
X83607619Y-24074523D01*
X83702857Y-24122142D01*
X83845714Y-24122142D01*
X83940952Y-24074523D01*
X83988571Y-24026904D01*
X84036190Y-23931666D01*
X84036190Y-23550714D01*
X83607619Y-24503095D02*
X83560000Y-24550714D01*
X83512380Y-24645952D01*
X83512380Y-24884047D01*
X83560000Y-24979285D01*
X83607619Y-25026904D01*
X83702857Y-25074523D01*
X83798095Y-25074523D01*
X83940952Y-25026904D01*
X84512380Y-24455476D01*
X84512380Y-25074523D01*
X83512380Y-25979285D02*
X83512380Y-25503095D01*
X83988571Y-25455476D01*
X83940952Y-25503095D01*
X83893333Y-25598333D01*
X83893333Y-25836428D01*
X83940952Y-25931666D01*
X83988571Y-25979285D01*
X84083809Y-26026904D01*
X84321904Y-26026904D01*
X84417142Y-25979285D01*
X84464761Y-25931666D01*
X84512380Y-25836428D01*
X84512380Y-25598333D01*
X84464761Y-25503095D01*
X84417142Y-25455476D01*
G04 #@! TO.C,R26*
X89112380Y-40632142D02*
X88636190Y-40298809D01*
X89112380Y-40060714D02*
X88112380Y-40060714D01*
X88112380Y-40441666D01*
X88160000Y-40536904D01*
X88207619Y-40584523D01*
X88302857Y-40632142D01*
X88445714Y-40632142D01*
X88540952Y-40584523D01*
X88588571Y-40536904D01*
X88636190Y-40441666D01*
X88636190Y-40060714D01*
X88207619Y-41013095D02*
X88160000Y-41060714D01*
X88112380Y-41155952D01*
X88112380Y-41394047D01*
X88160000Y-41489285D01*
X88207619Y-41536904D01*
X88302857Y-41584523D01*
X88398095Y-41584523D01*
X88540952Y-41536904D01*
X89112380Y-40965476D01*
X89112380Y-41584523D01*
X88112380Y-42441666D02*
X88112380Y-42251190D01*
X88160000Y-42155952D01*
X88207619Y-42108333D01*
X88350476Y-42013095D01*
X88540952Y-41965476D01*
X88921904Y-41965476D01*
X89017142Y-42013095D01*
X89064761Y-42060714D01*
X89112380Y-42155952D01*
X89112380Y-42346428D01*
X89064761Y-42441666D01*
X89017142Y-42489285D01*
X88921904Y-42536904D01*
X88683809Y-42536904D01*
X88588571Y-42489285D01*
X88540952Y-42441666D01*
X88493333Y-42346428D01*
X88493333Y-42155952D01*
X88540952Y-42060714D01*
X88588571Y-42013095D01*
X88683809Y-41965476D01*
G04 #@! TO.C,R27*
X91017380Y-40632142D02*
X90541190Y-40298809D01*
X91017380Y-40060714D02*
X90017380Y-40060714D01*
X90017380Y-40441666D01*
X90065000Y-40536904D01*
X90112619Y-40584523D01*
X90207857Y-40632142D01*
X90350714Y-40632142D01*
X90445952Y-40584523D01*
X90493571Y-40536904D01*
X90541190Y-40441666D01*
X90541190Y-40060714D01*
X90112619Y-41013095D02*
X90065000Y-41060714D01*
X90017380Y-41155952D01*
X90017380Y-41394047D01*
X90065000Y-41489285D01*
X90112619Y-41536904D01*
X90207857Y-41584523D01*
X90303095Y-41584523D01*
X90445952Y-41536904D01*
X91017380Y-40965476D01*
X91017380Y-41584523D01*
X90017380Y-41917857D02*
X90017380Y-42584523D01*
X91017380Y-42155952D01*
G04 #@! TO.C,R28*
X94827380Y-40632142D02*
X94351190Y-40298809D01*
X94827380Y-40060714D02*
X93827380Y-40060714D01*
X93827380Y-40441666D01*
X93875000Y-40536904D01*
X93922619Y-40584523D01*
X94017857Y-40632142D01*
X94160714Y-40632142D01*
X94255952Y-40584523D01*
X94303571Y-40536904D01*
X94351190Y-40441666D01*
X94351190Y-40060714D01*
X93922619Y-41013095D02*
X93875000Y-41060714D01*
X93827380Y-41155952D01*
X93827380Y-41394047D01*
X93875000Y-41489285D01*
X93922619Y-41536904D01*
X94017857Y-41584523D01*
X94113095Y-41584523D01*
X94255952Y-41536904D01*
X94827380Y-40965476D01*
X94827380Y-41584523D01*
X94255952Y-42155952D02*
X94208333Y-42060714D01*
X94160714Y-42013095D01*
X94065476Y-41965476D01*
X94017857Y-41965476D01*
X93922619Y-42013095D01*
X93875000Y-42060714D01*
X93827380Y-42155952D01*
X93827380Y-42346428D01*
X93875000Y-42441666D01*
X93922619Y-42489285D01*
X94017857Y-42536904D01*
X94065476Y-42536904D01*
X94160714Y-42489285D01*
X94208333Y-42441666D01*
X94255952Y-42346428D01*
X94255952Y-42155952D01*
X94303571Y-42060714D01*
X94351190Y-42013095D01*
X94446428Y-41965476D01*
X94636904Y-41965476D01*
X94732142Y-42013095D01*
X94779761Y-42060714D01*
X94827380Y-42155952D01*
X94827380Y-42346428D01*
X94779761Y-42441666D01*
X94732142Y-42489285D01*
X94636904Y-42536904D01*
X94446428Y-42536904D01*
X94351190Y-42489285D01*
X94303571Y-42441666D01*
X94255952Y-42346428D01*
G04 #@! TO.C,R29*
X92132380Y-24122142D02*
X91656190Y-23788809D01*
X92132380Y-23550714D02*
X91132380Y-23550714D01*
X91132380Y-23931666D01*
X91180000Y-24026904D01*
X91227619Y-24074523D01*
X91322857Y-24122142D01*
X91465714Y-24122142D01*
X91560952Y-24074523D01*
X91608571Y-24026904D01*
X91656190Y-23931666D01*
X91656190Y-23550714D01*
X91227619Y-24503095D02*
X91180000Y-24550714D01*
X91132380Y-24645952D01*
X91132380Y-24884047D01*
X91180000Y-24979285D01*
X91227619Y-25026904D01*
X91322857Y-25074523D01*
X91418095Y-25074523D01*
X91560952Y-25026904D01*
X92132380Y-24455476D01*
X92132380Y-25074523D01*
X92132380Y-25550714D02*
X92132380Y-25741190D01*
X92084761Y-25836428D01*
X92037142Y-25884047D01*
X91894285Y-25979285D01*
X91703809Y-26026904D01*
X91322857Y-26026904D01*
X91227619Y-25979285D01*
X91180000Y-25931666D01*
X91132380Y-25836428D01*
X91132380Y-25645952D01*
X91180000Y-25550714D01*
X91227619Y-25503095D01*
X91322857Y-25455476D01*
X91560952Y-25455476D01*
X91656190Y-25503095D01*
X91703809Y-25550714D01*
X91751428Y-25645952D01*
X91751428Y-25836428D01*
X91703809Y-25931666D01*
X91656190Y-25979285D01*
X91560952Y-26026904D01*
G04 #@! TO.C,R30*
X90227380Y-24122142D02*
X89751190Y-23788809D01*
X90227380Y-23550714D02*
X89227380Y-23550714D01*
X89227380Y-23931666D01*
X89275000Y-24026904D01*
X89322619Y-24074523D01*
X89417857Y-24122142D01*
X89560714Y-24122142D01*
X89655952Y-24074523D01*
X89703571Y-24026904D01*
X89751190Y-23931666D01*
X89751190Y-23550714D01*
X89227380Y-24455476D02*
X89227380Y-25074523D01*
X89608333Y-24741190D01*
X89608333Y-24884047D01*
X89655952Y-24979285D01*
X89703571Y-25026904D01*
X89798809Y-25074523D01*
X90036904Y-25074523D01*
X90132142Y-25026904D01*
X90179761Y-24979285D01*
X90227380Y-24884047D01*
X90227380Y-24598333D01*
X90179761Y-24503095D01*
X90132142Y-24455476D01*
X89227380Y-25693571D02*
X89227380Y-25788809D01*
X89275000Y-25884047D01*
X89322619Y-25931666D01*
X89417857Y-25979285D01*
X89608333Y-26026904D01*
X89846428Y-26026904D01*
X90036904Y-25979285D01*
X90132142Y-25931666D01*
X90179761Y-25884047D01*
X90227380Y-25788809D01*
X90227380Y-25693571D01*
X90179761Y-25598333D01*
X90132142Y-25550714D01*
X90036904Y-25503095D01*
X89846428Y-25455476D01*
X89608333Y-25455476D01*
X89417857Y-25503095D01*
X89322619Y-25550714D01*
X89275000Y-25598333D01*
X89227380Y-25693571D01*
G04 #@! TO.C,R31*
X76257380Y-24122142D02*
X75781190Y-23788809D01*
X76257380Y-23550714D02*
X75257380Y-23550714D01*
X75257380Y-23931666D01*
X75305000Y-24026904D01*
X75352619Y-24074523D01*
X75447857Y-24122142D01*
X75590714Y-24122142D01*
X75685952Y-24074523D01*
X75733571Y-24026904D01*
X75781190Y-23931666D01*
X75781190Y-23550714D01*
X75257380Y-24455476D02*
X75257380Y-25074523D01*
X75638333Y-24741190D01*
X75638333Y-24884047D01*
X75685952Y-24979285D01*
X75733571Y-25026904D01*
X75828809Y-25074523D01*
X76066904Y-25074523D01*
X76162142Y-25026904D01*
X76209761Y-24979285D01*
X76257380Y-24884047D01*
X76257380Y-24598333D01*
X76209761Y-24503095D01*
X76162142Y-24455476D01*
X76257380Y-26026904D02*
X76257380Y-25455476D01*
X76257380Y-25741190D02*
X75257380Y-25741190D01*
X75400238Y-25645952D01*
X75495476Y-25550714D01*
X75543095Y-25455476D01*
G04 #@! TO.C,R32*
X74352380Y-24122142D02*
X73876190Y-23788809D01*
X74352380Y-23550714D02*
X73352380Y-23550714D01*
X73352380Y-23931666D01*
X73400000Y-24026904D01*
X73447619Y-24074523D01*
X73542857Y-24122142D01*
X73685714Y-24122142D01*
X73780952Y-24074523D01*
X73828571Y-24026904D01*
X73876190Y-23931666D01*
X73876190Y-23550714D01*
X73352380Y-24455476D02*
X73352380Y-25074523D01*
X73733333Y-24741190D01*
X73733333Y-24884047D01*
X73780952Y-24979285D01*
X73828571Y-25026904D01*
X73923809Y-25074523D01*
X74161904Y-25074523D01*
X74257142Y-25026904D01*
X74304761Y-24979285D01*
X74352380Y-24884047D01*
X74352380Y-24598333D01*
X74304761Y-24503095D01*
X74257142Y-24455476D01*
X73447619Y-25455476D02*
X73400000Y-25503095D01*
X73352380Y-25598333D01*
X73352380Y-25836428D01*
X73400000Y-25931666D01*
X73447619Y-25979285D01*
X73542857Y-26026904D01*
X73638095Y-26026904D01*
X73780952Y-25979285D01*
X74352380Y-25407857D01*
X74352380Y-26026904D01*
G04 #@! TO.C,R33*
X78952380Y-40632142D02*
X78476190Y-40298809D01*
X78952380Y-40060714D02*
X77952380Y-40060714D01*
X77952380Y-40441666D01*
X78000000Y-40536904D01*
X78047619Y-40584523D01*
X78142857Y-40632142D01*
X78285714Y-40632142D01*
X78380952Y-40584523D01*
X78428571Y-40536904D01*
X78476190Y-40441666D01*
X78476190Y-40060714D01*
X77952380Y-40965476D02*
X77952380Y-41584523D01*
X78333333Y-41251190D01*
X78333333Y-41394047D01*
X78380952Y-41489285D01*
X78428571Y-41536904D01*
X78523809Y-41584523D01*
X78761904Y-41584523D01*
X78857142Y-41536904D01*
X78904761Y-41489285D01*
X78952380Y-41394047D01*
X78952380Y-41108333D01*
X78904761Y-41013095D01*
X78857142Y-40965476D01*
X77952380Y-41917857D02*
X77952380Y-42536904D01*
X78333333Y-42203571D01*
X78333333Y-42346428D01*
X78380952Y-42441666D01*
X78428571Y-42489285D01*
X78523809Y-42536904D01*
X78761904Y-42536904D01*
X78857142Y-42489285D01*
X78904761Y-42441666D01*
X78952380Y-42346428D01*
X78952380Y-42060714D01*
X78904761Y-41965476D01*
X78857142Y-41917857D01*
G04 #@! TO.C,R34*
X80857380Y-40632142D02*
X80381190Y-40298809D01*
X80857380Y-40060714D02*
X79857380Y-40060714D01*
X79857380Y-40441666D01*
X79905000Y-40536904D01*
X79952619Y-40584523D01*
X80047857Y-40632142D01*
X80190714Y-40632142D01*
X80285952Y-40584523D01*
X80333571Y-40536904D01*
X80381190Y-40441666D01*
X80381190Y-40060714D01*
X79857380Y-40965476D02*
X79857380Y-41584523D01*
X80238333Y-41251190D01*
X80238333Y-41394047D01*
X80285952Y-41489285D01*
X80333571Y-41536904D01*
X80428809Y-41584523D01*
X80666904Y-41584523D01*
X80762142Y-41536904D01*
X80809761Y-41489285D01*
X80857380Y-41394047D01*
X80857380Y-41108333D01*
X80809761Y-41013095D01*
X80762142Y-40965476D01*
X80190714Y-42441666D02*
X80857380Y-42441666D01*
X79809761Y-42203571D02*
X80524047Y-41965476D01*
X80524047Y-42584523D01*
G04 #@! TO.C,R35*
X84667380Y-40632142D02*
X84191190Y-40298809D01*
X84667380Y-40060714D02*
X83667380Y-40060714D01*
X83667380Y-40441666D01*
X83715000Y-40536904D01*
X83762619Y-40584523D01*
X83857857Y-40632142D01*
X84000714Y-40632142D01*
X84095952Y-40584523D01*
X84143571Y-40536904D01*
X84191190Y-40441666D01*
X84191190Y-40060714D01*
X83667380Y-40965476D02*
X83667380Y-41584523D01*
X84048333Y-41251190D01*
X84048333Y-41394047D01*
X84095952Y-41489285D01*
X84143571Y-41536904D01*
X84238809Y-41584523D01*
X84476904Y-41584523D01*
X84572142Y-41536904D01*
X84619761Y-41489285D01*
X84667380Y-41394047D01*
X84667380Y-41108333D01*
X84619761Y-41013095D01*
X84572142Y-40965476D01*
X83667380Y-42489285D02*
X83667380Y-42013095D01*
X84143571Y-41965476D01*
X84095952Y-42013095D01*
X84048333Y-42108333D01*
X84048333Y-42346428D01*
X84095952Y-42441666D01*
X84143571Y-42489285D01*
X84238809Y-42536904D01*
X84476904Y-42536904D01*
X84572142Y-42489285D01*
X84619761Y-42441666D01*
X84667380Y-42346428D01*
X84667380Y-42108333D01*
X84619761Y-42013095D01*
X84572142Y-41965476D01*
G04 #@! TO.C,R36*
X81972380Y-24122142D02*
X81496190Y-23788809D01*
X81972380Y-23550714D02*
X80972380Y-23550714D01*
X80972380Y-23931666D01*
X81020000Y-24026904D01*
X81067619Y-24074523D01*
X81162857Y-24122142D01*
X81305714Y-24122142D01*
X81400952Y-24074523D01*
X81448571Y-24026904D01*
X81496190Y-23931666D01*
X81496190Y-23550714D01*
X80972380Y-24455476D02*
X80972380Y-25074523D01*
X81353333Y-24741190D01*
X81353333Y-24884047D01*
X81400952Y-24979285D01*
X81448571Y-25026904D01*
X81543809Y-25074523D01*
X81781904Y-25074523D01*
X81877142Y-25026904D01*
X81924761Y-24979285D01*
X81972380Y-24884047D01*
X81972380Y-24598333D01*
X81924761Y-24503095D01*
X81877142Y-24455476D01*
X80972380Y-25931666D02*
X80972380Y-25741190D01*
X81020000Y-25645952D01*
X81067619Y-25598333D01*
X81210476Y-25503095D01*
X81400952Y-25455476D01*
X81781904Y-25455476D01*
X81877142Y-25503095D01*
X81924761Y-25550714D01*
X81972380Y-25645952D01*
X81972380Y-25836428D01*
X81924761Y-25931666D01*
X81877142Y-25979285D01*
X81781904Y-26026904D01*
X81543809Y-26026904D01*
X81448571Y-25979285D01*
X81400952Y-25931666D01*
X81353333Y-25836428D01*
X81353333Y-25645952D01*
X81400952Y-25550714D01*
X81448571Y-25503095D01*
X81543809Y-25455476D01*
G04 #@! TO.C,R37*
X80067380Y-24122142D02*
X79591190Y-23788809D01*
X80067380Y-23550714D02*
X79067380Y-23550714D01*
X79067380Y-23931666D01*
X79115000Y-24026904D01*
X79162619Y-24074523D01*
X79257857Y-24122142D01*
X79400714Y-24122142D01*
X79495952Y-24074523D01*
X79543571Y-24026904D01*
X79591190Y-23931666D01*
X79591190Y-23550714D01*
X79067380Y-24455476D02*
X79067380Y-25074523D01*
X79448333Y-24741190D01*
X79448333Y-24884047D01*
X79495952Y-24979285D01*
X79543571Y-25026904D01*
X79638809Y-25074523D01*
X79876904Y-25074523D01*
X79972142Y-25026904D01*
X80019761Y-24979285D01*
X80067380Y-24884047D01*
X80067380Y-24598333D01*
X80019761Y-24503095D01*
X79972142Y-24455476D01*
X79067380Y-25407857D02*
X79067380Y-26074523D01*
X80067380Y-25645952D01*
G04 #@! TO.C,R38*
X66097380Y-24122142D02*
X65621190Y-23788809D01*
X66097380Y-23550714D02*
X65097380Y-23550714D01*
X65097380Y-23931666D01*
X65145000Y-24026904D01*
X65192619Y-24074523D01*
X65287857Y-24122142D01*
X65430714Y-24122142D01*
X65525952Y-24074523D01*
X65573571Y-24026904D01*
X65621190Y-23931666D01*
X65621190Y-23550714D01*
X65097380Y-24455476D02*
X65097380Y-25074523D01*
X65478333Y-24741190D01*
X65478333Y-24884047D01*
X65525952Y-24979285D01*
X65573571Y-25026904D01*
X65668809Y-25074523D01*
X65906904Y-25074523D01*
X66002142Y-25026904D01*
X66049761Y-24979285D01*
X66097380Y-24884047D01*
X66097380Y-24598333D01*
X66049761Y-24503095D01*
X66002142Y-24455476D01*
X65525952Y-25645952D02*
X65478333Y-25550714D01*
X65430714Y-25503095D01*
X65335476Y-25455476D01*
X65287857Y-25455476D01*
X65192619Y-25503095D01*
X65145000Y-25550714D01*
X65097380Y-25645952D01*
X65097380Y-25836428D01*
X65145000Y-25931666D01*
X65192619Y-25979285D01*
X65287857Y-26026904D01*
X65335476Y-26026904D01*
X65430714Y-25979285D01*
X65478333Y-25931666D01*
X65525952Y-25836428D01*
X65525952Y-25645952D01*
X65573571Y-25550714D01*
X65621190Y-25503095D01*
X65716428Y-25455476D01*
X65906904Y-25455476D01*
X66002142Y-25503095D01*
X66049761Y-25550714D01*
X66097380Y-25645952D01*
X66097380Y-25836428D01*
X66049761Y-25931666D01*
X66002142Y-25979285D01*
X65906904Y-26026904D01*
X65716428Y-26026904D01*
X65621190Y-25979285D01*
X65573571Y-25931666D01*
X65525952Y-25836428D01*
G04 #@! TO.C,R39*
X64192380Y-24122142D02*
X63716190Y-23788809D01*
X64192380Y-23550714D02*
X63192380Y-23550714D01*
X63192380Y-23931666D01*
X63240000Y-24026904D01*
X63287619Y-24074523D01*
X63382857Y-24122142D01*
X63525714Y-24122142D01*
X63620952Y-24074523D01*
X63668571Y-24026904D01*
X63716190Y-23931666D01*
X63716190Y-23550714D01*
X63192380Y-24455476D02*
X63192380Y-25074523D01*
X63573333Y-24741190D01*
X63573333Y-24884047D01*
X63620952Y-24979285D01*
X63668571Y-25026904D01*
X63763809Y-25074523D01*
X64001904Y-25074523D01*
X64097142Y-25026904D01*
X64144761Y-24979285D01*
X64192380Y-24884047D01*
X64192380Y-24598333D01*
X64144761Y-24503095D01*
X64097142Y-24455476D01*
X64192380Y-25550714D02*
X64192380Y-25741190D01*
X64144761Y-25836428D01*
X64097142Y-25884047D01*
X63954285Y-25979285D01*
X63763809Y-26026904D01*
X63382857Y-26026904D01*
X63287619Y-25979285D01*
X63240000Y-25931666D01*
X63192380Y-25836428D01*
X63192380Y-25645952D01*
X63240000Y-25550714D01*
X63287619Y-25503095D01*
X63382857Y-25455476D01*
X63620952Y-25455476D01*
X63716190Y-25503095D01*
X63763809Y-25550714D01*
X63811428Y-25645952D01*
X63811428Y-25836428D01*
X63763809Y-25931666D01*
X63716190Y-25979285D01*
X63620952Y-26026904D01*
G04 #@! TO.C,R40*
X68792380Y-40632142D02*
X68316190Y-40298809D01*
X68792380Y-40060714D02*
X67792380Y-40060714D01*
X67792380Y-40441666D01*
X67840000Y-40536904D01*
X67887619Y-40584523D01*
X67982857Y-40632142D01*
X68125714Y-40632142D01*
X68220952Y-40584523D01*
X68268571Y-40536904D01*
X68316190Y-40441666D01*
X68316190Y-40060714D01*
X68125714Y-41489285D02*
X68792380Y-41489285D01*
X67744761Y-41251190D02*
X68459047Y-41013095D01*
X68459047Y-41632142D01*
X67792380Y-42203571D02*
X67792380Y-42298809D01*
X67840000Y-42394047D01*
X67887619Y-42441666D01*
X67982857Y-42489285D01*
X68173333Y-42536904D01*
X68411428Y-42536904D01*
X68601904Y-42489285D01*
X68697142Y-42441666D01*
X68744761Y-42394047D01*
X68792380Y-42298809D01*
X68792380Y-42203571D01*
X68744761Y-42108333D01*
X68697142Y-42060714D01*
X68601904Y-42013095D01*
X68411428Y-41965476D01*
X68173333Y-41965476D01*
X67982857Y-42013095D01*
X67887619Y-42060714D01*
X67840000Y-42108333D01*
X67792380Y-42203571D01*
G04 #@! TO.C,R41*
X70697380Y-40632142D02*
X70221190Y-40298809D01*
X70697380Y-40060714D02*
X69697380Y-40060714D01*
X69697380Y-40441666D01*
X69745000Y-40536904D01*
X69792619Y-40584523D01*
X69887857Y-40632142D01*
X70030714Y-40632142D01*
X70125952Y-40584523D01*
X70173571Y-40536904D01*
X70221190Y-40441666D01*
X70221190Y-40060714D01*
X70030714Y-41489285D02*
X70697380Y-41489285D01*
X69649761Y-41251190D02*
X70364047Y-41013095D01*
X70364047Y-41632142D01*
X70697380Y-42536904D02*
X70697380Y-41965476D01*
X70697380Y-42251190D02*
X69697380Y-42251190D01*
X69840238Y-42155952D01*
X69935476Y-42060714D01*
X69983095Y-41965476D01*
G04 #@! TO.C,R42*
X74507380Y-40632142D02*
X74031190Y-40298809D01*
X74507380Y-40060714D02*
X73507380Y-40060714D01*
X73507380Y-40441666D01*
X73555000Y-40536904D01*
X73602619Y-40584523D01*
X73697857Y-40632142D01*
X73840714Y-40632142D01*
X73935952Y-40584523D01*
X73983571Y-40536904D01*
X74031190Y-40441666D01*
X74031190Y-40060714D01*
X73840714Y-41489285D02*
X74507380Y-41489285D01*
X73459761Y-41251190D02*
X74174047Y-41013095D01*
X74174047Y-41632142D01*
X73602619Y-41965476D02*
X73555000Y-42013095D01*
X73507380Y-42108333D01*
X73507380Y-42346428D01*
X73555000Y-42441666D01*
X73602619Y-42489285D01*
X73697857Y-42536904D01*
X73793095Y-42536904D01*
X73935952Y-42489285D01*
X74507380Y-41917857D01*
X74507380Y-42536904D01*
G04 #@! TO.C,R43*
X71812380Y-24122142D02*
X71336190Y-23788809D01*
X71812380Y-23550714D02*
X70812380Y-23550714D01*
X70812380Y-23931666D01*
X70860000Y-24026904D01*
X70907619Y-24074523D01*
X71002857Y-24122142D01*
X71145714Y-24122142D01*
X71240952Y-24074523D01*
X71288571Y-24026904D01*
X71336190Y-23931666D01*
X71336190Y-23550714D01*
X71145714Y-24979285D02*
X71812380Y-24979285D01*
X70764761Y-24741190D02*
X71479047Y-24503095D01*
X71479047Y-25122142D01*
X70812380Y-25407857D02*
X70812380Y-26026904D01*
X71193333Y-25693571D01*
X71193333Y-25836428D01*
X71240952Y-25931666D01*
X71288571Y-25979285D01*
X71383809Y-26026904D01*
X71621904Y-26026904D01*
X71717142Y-25979285D01*
X71764761Y-25931666D01*
X71812380Y-25836428D01*
X71812380Y-25550714D01*
X71764761Y-25455476D01*
X71717142Y-25407857D01*
G04 #@! TO.C,R44*
X69907380Y-24122142D02*
X69431190Y-23788809D01*
X69907380Y-23550714D02*
X68907380Y-23550714D01*
X68907380Y-23931666D01*
X68955000Y-24026904D01*
X69002619Y-24074523D01*
X69097857Y-24122142D01*
X69240714Y-24122142D01*
X69335952Y-24074523D01*
X69383571Y-24026904D01*
X69431190Y-23931666D01*
X69431190Y-23550714D01*
X69240714Y-24979285D02*
X69907380Y-24979285D01*
X68859761Y-24741190D02*
X69574047Y-24503095D01*
X69574047Y-25122142D01*
X69240714Y-25931666D02*
X69907380Y-25931666D01*
X68859761Y-25693571D02*
X69574047Y-25455476D01*
X69574047Y-26074523D01*
G04 #@! TO.C,R45*
X55937380Y-24122142D02*
X55461190Y-23788809D01*
X55937380Y-23550714D02*
X54937380Y-23550714D01*
X54937380Y-23931666D01*
X54985000Y-24026904D01*
X55032619Y-24074523D01*
X55127857Y-24122142D01*
X55270714Y-24122142D01*
X55365952Y-24074523D01*
X55413571Y-24026904D01*
X55461190Y-23931666D01*
X55461190Y-23550714D01*
X55270714Y-24979285D02*
X55937380Y-24979285D01*
X54889761Y-24741190D02*
X55604047Y-24503095D01*
X55604047Y-25122142D01*
X54937380Y-25979285D02*
X54937380Y-25503095D01*
X55413571Y-25455476D01*
X55365952Y-25503095D01*
X55318333Y-25598333D01*
X55318333Y-25836428D01*
X55365952Y-25931666D01*
X55413571Y-25979285D01*
X55508809Y-26026904D01*
X55746904Y-26026904D01*
X55842142Y-25979285D01*
X55889761Y-25931666D01*
X55937380Y-25836428D01*
X55937380Y-25598333D01*
X55889761Y-25503095D01*
X55842142Y-25455476D01*
G04 #@! TO.C,R46*
X54032380Y-24122142D02*
X53556190Y-23788809D01*
X54032380Y-23550714D02*
X53032380Y-23550714D01*
X53032380Y-23931666D01*
X53080000Y-24026904D01*
X53127619Y-24074523D01*
X53222857Y-24122142D01*
X53365714Y-24122142D01*
X53460952Y-24074523D01*
X53508571Y-24026904D01*
X53556190Y-23931666D01*
X53556190Y-23550714D01*
X53365714Y-24979285D02*
X54032380Y-24979285D01*
X52984761Y-24741190D02*
X53699047Y-24503095D01*
X53699047Y-25122142D01*
X53032380Y-25931666D02*
X53032380Y-25741190D01*
X53080000Y-25645952D01*
X53127619Y-25598333D01*
X53270476Y-25503095D01*
X53460952Y-25455476D01*
X53841904Y-25455476D01*
X53937142Y-25503095D01*
X53984761Y-25550714D01*
X54032380Y-25645952D01*
X54032380Y-25836428D01*
X53984761Y-25931666D01*
X53937142Y-25979285D01*
X53841904Y-26026904D01*
X53603809Y-26026904D01*
X53508571Y-25979285D01*
X53460952Y-25931666D01*
X53413333Y-25836428D01*
X53413333Y-25645952D01*
X53460952Y-25550714D01*
X53508571Y-25503095D01*
X53603809Y-25455476D01*
G04 #@! TO.C,R47*
X58632380Y-40632142D02*
X58156190Y-40298809D01*
X58632380Y-40060714D02*
X57632380Y-40060714D01*
X57632380Y-40441666D01*
X57680000Y-40536904D01*
X57727619Y-40584523D01*
X57822857Y-40632142D01*
X57965714Y-40632142D01*
X58060952Y-40584523D01*
X58108571Y-40536904D01*
X58156190Y-40441666D01*
X58156190Y-40060714D01*
X57965714Y-41489285D02*
X58632380Y-41489285D01*
X57584761Y-41251190D02*
X58299047Y-41013095D01*
X58299047Y-41632142D01*
X57632380Y-41917857D02*
X57632380Y-42584523D01*
X58632380Y-42155952D01*
G04 #@! TO.C,R48*
X60537380Y-40632142D02*
X60061190Y-40298809D01*
X60537380Y-40060714D02*
X59537380Y-40060714D01*
X59537380Y-40441666D01*
X59585000Y-40536904D01*
X59632619Y-40584523D01*
X59727857Y-40632142D01*
X59870714Y-40632142D01*
X59965952Y-40584523D01*
X60013571Y-40536904D01*
X60061190Y-40441666D01*
X60061190Y-40060714D01*
X59870714Y-41489285D02*
X60537380Y-41489285D01*
X59489761Y-41251190D02*
X60204047Y-41013095D01*
X60204047Y-41632142D01*
X59965952Y-42155952D02*
X59918333Y-42060714D01*
X59870714Y-42013095D01*
X59775476Y-41965476D01*
X59727857Y-41965476D01*
X59632619Y-42013095D01*
X59585000Y-42060714D01*
X59537380Y-42155952D01*
X59537380Y-42346428D01*
X59585000Y-42441666D01*
X59632619Y-42489285D01*
X59727857Y-42536904D01*
X59775476Y-42536904D01*
X59870714Y-42489285D01*
X59918333Y-42441666D01*
X59965952Y-42346428D01*
X59965952Y-42155952D01*
X60013571Y-42060714D01*
X60061190Y-42013095D01*
X60156428Y-41965476D01*
X60346904Y-41965476D01*
X60442142Y-42013095D01*
X60489761Y-42060714D01*
X60537380Y-42155952D01*
X60537380Y-42346428D01*
X60489761Y-42441666D01*
X60442142Y-42489285D01*
X60346904Y-42536904D01*
X60156428Y-42536904D01*
X60061190Y-42489285D01*
X60013571Y-42441666D01*
X59965952Y-42346428D01*
G04 #@! TO.C,R49*
X64347380Y-40632142D02*
X63871190Y-40298809D01*
X64347380Y-40060714D02*
X63347380Y-40060714D01*
X63347380Y-40441666D01*
X63395000Y-40536904D01*
X63442619Y-40584523D01*
X63537857Y-40632142D01*
X63680714Y-40632142D01*
X63775952Y-40584523D01*
X63823571Y-40536904D01*
X63871190Y-40441666D01*
X63871190Y-40060714D01*
X63680714Y-41489285D02*
X64347380Y-41489285D01*
X63299761Y-41251190D02*
X64014047Y-41013095D01*
X64014047Y-41632142D01*
X64347380Y-42060714D02*
X64347380Y-42251190D01*
X64299761Y-42346428D01*
X64252142Y-42394047D01*
X64109285Y-42489285D01*
X63918809Y-42536904D01*
X63537857Y-42536904D01*
X63442619Y-42489285D01*
X63395000Y-42441666D01*
X63347380Y-42346428D01*
X63347380Y-42155952D01*
X63395000Y-42060714D01*
X63442619Y-42013095D01*
X63537857Y-41965476D01*
X63775952Y-41965476D01*
X63871190Y-42013095D01*
X63918809Y-42060714D01*
X63966428Y-42155952D01*
X63966428Y-42346428D01*
X63918809Y-42441666D01*
X63871190Y-42489285D01*
X63775952Y-42536904D01*
G04 #@! TO.C,R50*
X61652380Y-24122142D02*
X61176190Y-23788809D01*
X61652380Y-23550714D02*
X60652380Y-23550714D01*
X60652380Y-23931666D01*
X60700000Y-24026904D01*
X60747619Y-24074523D01*
X60842857Y-24122142D01*
X60985714Y-24122142D01*
X61080952Y-24074523D01*
X61128571Y-24026904D01*
X61176190Y-23931666D01*
X61176190Y-23550714D01*
X60652380Y-25026904D02*
X60652380Y-24550714D01*
X61128571Y-24503095D01*
X61080952Y-24550714D01*
X61033333Y-24645952D01*
X61033333Y-24884047D01*
X61080952Y-24979285D01*
X61128571Y-25026904D01*
X61223809Y-25074523D01*
X61461904Y-25074523D01*
X61557142Y-25026904D01*
X61604761Y-24979285D01*
X61652380Y-24884047D01*
X61652380Y-24645952D01*
X61604761Y-24550714D01*
X61557142Y-24503095D01*
X60652380Y-25693571D02*
X60652380Y-25788809D01*
X60700000Y-25884047D01*
X60747619Y-25931666D01*
X60842857Y-25979285D01*
X61033333Y-26026904D01*
X61271428Y-26026904D01*
X61461904Y-25979285D01*
X61557142Y-25931666D01*
X61604761Y-25884047D01*
X61652380Y-25788809D01*
X61652380Y-25693571D01*
X61604761Y-25598333D01*
X61557142Y-25550714D01*
X61461904Y-25503095D01*
X61271428Y-25455476D01*
X61033333Y-25455476D01*
X60842857Y-25503095D01*
X60747619Y-25550714D01*
X60700000Y-25598333D01*
X60652380Y-25693571D01*
G04 #@! TO.C,R51*
X59747380Y-24122142D02*
X59271190Y-23788809D01*
X59747380Y-23550714D02*
X58747380Y-23550714D01*
X58747380Y-23931666D01*
X58795000Y-24026904D01*
X58842619Y-24074523D01*
X58937857Y-24122142D01*
X59080714Y-24122142D01*
X59175952Y-24074523D01*
X59223571Y-24026904D01*
X59271190Y-23931666D01*
X59271190Y-23550714D01*
X58747380Y-25026904D02*
X58747380Y-24550714D01*
X59223571Y-24503095D01*
X59175952Y-24550714D01*
X59128333Y-24645952D01*
X59128333Y-24884047D01*
X59175952Y-24979285D01*
X59223571Y-25026904D01*
X59318809Y-25074523D01*
X59556904Y-25074523D01*
X59652142Y-25026904D01*
X59699761Y-24979285D01*
X59747380Y-24884047D01*
X59747380Y-24645952D01*
X59699761Y-24550714D01*
X59652142Y-24503095D01*
X59747380Y-26026904D02*
X59747380Y-25455476D01*
X59747380Y-25741190D02*
X58747380Y-25741190D01*
X58890238Y-25645952D01*
X58985476Y-25550714D01*
X59033095Y-25455476D01*
G04 #@! TO.C,R52*
X90177857Y-47202380D02*
X90511190Y-46726190D01*
X90749285Y-47202380D02*
X90749285Y-46202380D01*
X90368333Y-46202380D01*
X90273095Y-46250000D01*
X90225476Y-46297619D01*
X90177857Y-46392857D01*
X90177857Y-46535714D01*
X90225476Y-46630952D01*
X90273095Y-46678571D01*
X90368333Y-46726190D01*
X90749285Y-46726190D01*
X89273095Y-46202380D02*
X89749285Y-46202380D01*
X89796904Y-46678571D01*
X89749285Y-46630952D01*
X89654047Y-46583333D01*
X89415952Y-46583333D01*
X89320714Y-46630952D01*
X89273095Y-46678571D01*
X89225476Y-46773809D01*
X89225476Y-47011904D01*
X89273095Y-47107142D01*
X89320714Y-47154761D01*
X89415952Y-47202380D01*
X89654047Y-47202380D01*
X89749285Y-47154761D01*
X89796904Y-47107142D01*
X88844523Y-46297619D02*
X88796904Y-46250000D01*
X88701666Y-46202380D01*
X88463571Y-46202380D01*
X88368333Y-46250000D01*
X88320714Y-46297619D01*
X88273095Y-46392857D01*
X88273095Y-46488095D01*
X88320714Y-46630952D01*
X88892142Y-47202380D01*
X88273095Y-47202380D01*
G04 #@! TO.C,R53*
X80017857Y-47202380D02*
X80351190Y-46726190D01*
X80589285Y-47202380D02*
X80589285Y-46202380D01*
X80208333Y-46202380D01*
X80113095Y-46250000D01*
X80065476Y-46297619D01*
X80017857Y-46392857D01*
X80017857Y-46535714D01*
X80065476Y-46630952D01*
X80113095Y-46678571D01*
X80208333Y-46726190D01*
X80589285Y-46726190D01*
X79113095Y-46202380D02*
X79589285Y-46202380D01*
X79636904Y-46678571D01*
X79589285Y-46630952D01*
X79494047Y-46583333D01*
X79255952Y-46583333D01*
X79160714Y-46630952D01*
X79113095Y-46678571D01*
X79065476Y-46773809D01*
X79065476Y-47011904D01*
X79113095Y-47107142D01*
X79160714Y-47154761D01*
X79255952Y-47202380D01*
X79494047Y-47202380D01*
X79589285Y-47154761D01*
X79636904Y-47107142D01*
X78732142Y-46202380D02*
X78113095Y-46202380D01*
X78446428Y-46583333D01*
X78303571Y-46583333D01*
X78208333Y-46630952D01*
X78160714Y-46678571D01*
X78113095Y-46773809D01*
X78113095Y-47011904D01*
X78160714Y-47107142D01*
X78208333Y-47154761D01*
X78303571Y-47202380D01*
X78589285Y-47202380D01*
X78684523Y-47154761D01*
X78732142Y-47107142D01*
G04 #@! TO.C,R54*
X69857857Y-47202380D02*
X70191190Y-46726190D01*
X70429285Y-47202380D02*
X70429285Y-46202380D01*
X70048333Y-46202380D01*
X69953095Y-46250000D01*
X69905476Y-46297619D01*
X69857857Y-46392857D01*
X69857857Y-46535714D01*
X69905476Y-46630952D01*
X69953095Y-46678571D01*
X70048333Y-46726190D01*
X70429285Y-46726190D01*
X68953095Y-46202380D02*
X69429285Y-46202380D01*
X69476904Y-46678571D01*
X69429285Y-46630952D01*
X69334047Y-46583333D01*
X69095952Y-46583333D01*
X69000714Y-46630952D01*
X68953095Y-46678571D01*
X68905476Y-46773809D01*
X68905476Y-47011904D01*
X68953095Y-47107142D01*
X69000714Y-47154761D01*
X69095952Y-47202380D01*
X69334047Y-47202380D01*
X69429285Y-47154761D01*
X69476904Y-47107142D01*
X68048333Y-46535714D02*
X68048333Y-47202380D01*
X68286428Y-46154761D02*
X68524523Y-46869047D01*
X67905476Y-46869047D01*
G04 #@! TO.C,R55*
X59697857Y-47202380D02*
X60031190Y-46726190D01*
X60269285Y-47202380D02*
X60269285Y-46202380D01*
X59888333Y-46202380D01*
X59793095Y-46250000D01*
X59745476Y-46297619D01*
X59697857Y-46392857D01*
X59697857Y-46535714D01*
X59745476Y-46630952D01*
X59793095Y-46678571D01*
X59888333Y-46726190D01*
X60269285Y-46726190D01*
X58793095Y-46202380D02*
X59269285Y-46202380D01*
X59316904Y-46678571D01*
X59269285Y-46630952D01*
X59174047Y-46583333D01*
X58935952Y-46583333D01*
X58840714Y-46630952D01*
X58793095Y-46678571D01*
X58745476Y-46773809D01*
X58745476Y-47011904D01*
X58793095Y-47107142D01*
X58840714Y-47154761D01*
X58935952Y-47202380D01*
X59174047Y-47202380D01*
X59269285Y-47154761D01*
X59316904Y-47107142D01*
X57840714Y-46202380D02*
X58316904Y-46202380D01*
X58364523Y-46678571D01*
X58316904Y-46630952D01*
X58221666Y-46583333D01*
X57983571Y-46583333D01*
X57888333Y-46630952D01*
X57840714Y-46678571D01*
X57793095Y-46773809D01*
X57793095Y-47011904D01*
X57840714Y-47107142D01*
X57888333Y-47154761D01*
X57983571Y-47202380D01*
X58221666Y-47202380D01*
X58316904Y-47154761D01*
X58364523Y-47107142D01*
G04 #@! TO.C,U1*
X103631904Y-35012380D02*
X103631904Y-35821904D01*
X103584285Y-35917142D01*
X103536666Y-35964761D01*
X103441428Y-36012380D01*
X103250952Y-36012380D01*
X103155714Y-35964761D01*
X103108095Y-35917142D01*
X103060476Y-35821904D01*
X103060476Y-35012380D01*
X102060476Y-36012380D02*
X102631904Y-36012380D01*
X102346190Y-36012380D02*
X102346190Y-35012380D01*
X102441428Y-35155238D01*
X102536666Y-35250476D01*
X102631904Y-35298095D01*
G04 #@! TO.C,U10*
X90892380Y-31654904D02*
X91701904Y-31654904D01*
X91797142Y-31702523D01*
X91844761Y-31750142D01*
X91892380Y-31845380D01*
X91892380Y-32035857D01*
X91844761Y-32131095D01*
X91797142Y-32178714D01*
X91701904Y-32226333D01*
X90892380Y-32226333D01*
X91892380Y-33226333D02*
X91892380Y-32654904D01*
X91892380Y-32940619D02*
X90892380Y-32940619D01*
X91035238Y-32845380D01*
X91130476Y-32750142D01*
X91178095Y-32654904D01*
X90892380Y-33845380D02*
X90892380Y-33940619D01*
X90940000Y-34035857D01*
X90987619Y-34083476D01*
X91082857Y-34131095D01*
X91273333Y-34178714D01*
X91511428Y-34178714D01*
X91701904Y-34131095D01*
X91797142Y-34083476D01*
X91844761Y-34035857D01*
X91892380Y-33940619D01*
X91892380Y-33845380D01*
X91844761Y-33750142D01*
X91797142Y-33702523D01*
X91701904Y-33654904D01*
X91511428Y-33607285D01*
X91273333Y-33607285D01*
X91082857Y-33654904D01*
X90987619Y-33702523D01*
X90940000Y-33750142D01*
X90892380Y-33845380D01*
G04 #@! TO.C,U11*
X80732380Y-31654904D02*
X81541904Y-31654904D01*
X81637142Y-31702523D01*
X81684761Y-31750142D01*
X81732380Y-31845380D01*
X81732380Y-32035857D01*
X81684761Y-32131095D01*
X81637142Y-32178714D01*
X81541904Y-32226333D01*
X80732380Y-32226333D01*
X81732380Y-33226333D02*
X81732380Y-32654904D01*
X81732380Y-32940619D02*
X80732380Y-32940619D01*
X80875238Y-32845380D01*
X80970476Y-32750142D01*
X81018095Y-32654904D01*
X81732380Y-34178714D02*
X81732380Y-33607285D01*
X81732380Y-33893000D02*
X80732380Y-33893000D01*
X80875238Y-33797761D01*
X80970476Y-33702523D01*
X81018095Y-33607285D01*
G04 #@! TO.C,U12*
X70572380Y-31654904D02*
X71381904Y-31654904D01*
X71477142Y-31702523D01*
X71524761Y-31750142D01*
X71572380Y-31845380D01*
X71572380Y-32035857D01*
X71524761Y-32131095D01*
X71477142Y-32178714D01*
X71381904Y-32226333D01*
X70572380Y-32226333D01*
X71572380Y-33226333D02*
X71572380Y-32654904D01*
X71572380Y-32940619D02*
X70572380Y-32940619D01*
X70715238Y-32845380D01*
X70810476Y-32750142D01*
X70858095Y-32654904D01*
X70667619Y-33607285D02*
X70620000Y-33654904D01*
X70572380Y-33750142D01*
X70572380Y-33988238D01*
X70620000Y-34083476D01*
X70667619Y-34131095D01*
X70762857Y-34178714D01*
X70858095Y-34178714D01*
X71000952Y-34131095D01*
X71572380Y-33559666D01*
X71572380Y-34178714D01*
G04 #@! TO.C,U13*
X60412380Y-31654904D02*
X61221904Y-31654904D01*
X61317142Y-31702523D01*
X61364761Y-31750142D01*
X61412380Y-31845380D01*
X61412380Y-32035857D01*
X61364761Y-32131095D01*
X61317142Y-32178714D01*
X61221904Y-32226333D01*
X60412380Y-32226333D01*
X61412380Y-33226333D02*
X61412380Y-32654904D01*
X61412380Y-32940619D02*
X60412380Y-32940619D01*
X60555238Y-32845380D01*
X60650476Y-32750142D01*
X60698095Y-32654904D01*
X60412380Y-33559666D02*
X60412380Y-34178714D01*
X60793333Y-33845380D01*
X60793333Y-33988238D01*
X60840952Y-34083476D01*
X60888571Y-34131095D01*
X60983809Y-34178714D01*
X61221904Y-34178714D01*
X61317142Y-34131095D01*
X61364761Y-34083476D01*
X61412380Y-33988238D01*
X61412380Y-33702523D01*
X61364761Y-33607285D01*
X61317142Y-33559666D01*
G04 #@! TD*
M02*
