G04 #@! TF.GenerationSoftware,KiCad,Pcbnew,5.0.2+dfsg1-1*
G04 #@! TF.CreationDate,2019-03-09T11:45:52-07:00*
G04 #@! TF.ProjectId,i2c_frontpanel,6932635f-6672-46f6-9e74-70616e656c2e,rev?*
G04 #@! TF.SameCoordinates,Original*
G04 #@! TF.FileFunction,Soldermask,Bot*
G04 #@! TF.FilePolarity,Negative*
%FSLAX46Y46*%
G04 Gerber Fmt 4.6, Leading zero omitted, Abs format (unit mm)*
G04 Created by KiCad (PCBNEW 5.0.2+dfsg1-1) date Sat 09 Mar 2019 11:45:52 AM MST*
%MOMM*%
%LPD*%
G01*
G04 APERTURE LIST*
%ADD10C,0.100000*%
G04 APERTURE END LIST*
D10*
G36*
X122045196Y-43326958D02*
X122281780Y-43424954D01*
X122494705Y-43567226D01*
X122675774Y-43748295D01*
X122818046Y-43961220D01*
X122916042Y-44197804D01*
X122966000Y-44448960D01*
X122966000Y-44705040D01*
X122916042Y-44956196D01*
X122818046Y-45192780D01*
X122675774Y-45405705D01*
X122494705Y-45586774D01*
X122281780Y-45729046D01*
X122045196Y-45827042D01*
X121794040Y-45877000D01*
X121537960Y-45877000D01*
X121286804Y-45827042D01*
X121050220Y-45729046D01*
X120837295Y-45586774D01*
X120656226Y-45405705D01*
X120513954Y-45192780D01*
X120415958Y-44956196D01*
X120366000Y-44705040D01*
X120366000Y-44448960D01*
X120415958Y-44197804D01*
X120513954Y-43961220D01*
X120656226Y-43748295D01*
X120837295Y-43567226D01*
X121050220Y-43424954D01*
X121286804Y-43326958D01*
X121537960Y-43277000D01*
X121794040Y-43277000D01*
X122045196Y-43326958D01*
X122045196Y-43326958D01*
G37*
G36*
X35939196Y-43326958D02*
X36175780Y-43424954D01*
X36388705Y-43567226D01*
X36569774Y-43748295D01*
X36712046Y-43961220D01*
X36810042Y-44197804D01*
X36860000Y-44448960D01*
X36860000Y-44705040D01*
X36810042Y-44956196D01*
X36712046Y-45192780D01*
X36569774Y-45405705D01*
X36388705Y-45586774D01*
X36175780Y-45729046D01*
X35939196Y-45827042D01*
X35688040Y-45877000D01*
X35431960Y-45877000D01*
X35180804Y-45827042D01*
X34944220Y-45729046D01*
X34731295Y-45586774D01*
X34550226Y-45405705D01*
X34407954Y-45192780D01*
X34309958Y-44956196D01*
X34260000Y-44705040D01*
X34260000Y-44448960D01*
X34309958Y-44197804D01*
X34407954Y-43961220D01*
X34550226Y-43748295D01*
X34731295Y-43567226D01*
X34944220Y-43424954D01*
X35180804Y-43326958D01*
X35431960Y-43277000D01*
X35688040Y-43277000D01*
X35939196Y-43326958D01*
X35939196Y-43326958D01*
G37*
G36*
X89315000Y-43375000D02*
X88860000Y-43375000D01*
X88835614Y-43377402D01*
X88812165Y-43384515D01*
X88790554Y-43396066D01*
X88771612Y-43411612D01*
X88756066Y-43430554D01*
X88744515Y-43452165D01*
X88737402Y-43475614D01*
X88735000Y-43500000D01*
X88735000Y-45500000D01*
X87435000Y-45500000D01*
X87435000Y-43500000D01*
X87432598Y-43475614D01*
X87425485Y-43452165D01*
X87413934Y-43430554D01*
X87398388Y-43411612D01*
X87379446Y-43396066D01*
X87357835Y-43384515D01*
X87334386Y-43377402D01*
X87310000Y-43375000D01*
X85595000Y-43375000D01*
X85570614Y-43377402D01*
X85547165Y-43384515D01*
X85525554Y-43396066D01*
X85506612Y-43411612D01*
X85491066Y-43430554D01*
X85479515Y-43452165D01*
X85475622Y-43465000D01*
X84170000Y-43465000D01*
X84170000Y-42265000D01*
X85185000Y-42265000D01*
X85209386Y-42262598D01*
X85232835Y-42255485D01*
X85254446Y-42243934D01*
X85273388Y-42228388D01*
X85288934Y-42209446D01*
X85300485Y-42187835D01*
X85307598Y-42164386D01*
X85310000Y-42140000D01*
X85310000Y-42075000D01*
X89315000Y-42075000D01*
X89315000Y-43375000D01*
X89315000Y-43375000D01*
G37*
G36*
X62645000Y-43090000D02*
X62647402Y-43114386D01*
X62654515Y-43137835D01*
X62666066Y-43159446D01*
X62681612Y-43178388D01*
X62700554Y-43193934D01*
X62722165Y-43205485D01*
X62745614Y-43212598D01*
X62770000Y-43215000D01*
X63150000Y-43215000D01*
X63150000Y-44415000D01*
X61850000Y-44415000D01*
X61850000Y-43500000D01*
X61847598Y-43475614D01*
X61840485Y-43452165D01*
X61828934Y-43430554D01*
X61813388Y-43411612D01*
X61794446Y-43396066D01*
X61772835Y-43384515D01*
X61749386Y-43377402D01*
X61725000Y-43375000D01*
X61280000Y-43375000D01*
X61255614Y-43377402D01*
X61232165Y-43384515D01*
X61210554Y-43396066D01*
X61191612Y-43411612D01*
X61176066Y-43430554D01*
X61164515Y-43452165D01*
X61157402Y-43475614D01*
X61155000Y-43500000D01*
X61155000Y-45500000D01*
X59855000Y-45500000D01*
X59855000Y-43400000D01*
X60420000Y-43400000D01*
X60444386Y-43397598D01*
X60467835Y-43390485D01*
X60489446Y-43378934D01*
X60508388Y-43363388D01*
X60523934Y-43344446D01*
X60535485Y-43322835D01*
X60542598Y-43299386D01*
X60545000Y-43275000D01*
X60545000Y-42075000D01*
X62645000Y-42075000D01*
X62645000Y-43090000D01*
X62645000Y-43090000D01*
G37*
G36*
X54678000Y-41950000D02*
X54680402Y-41974386D01*
X54687515Y-41997835D01*
X54699066Y-42019446D01*
X54714612Y-42038388D01*
X54733554Y-42053934D01*
X54755165Y-42065485D01*
X54778614Y-42072598D01*
X54803000Y-42075000D01*
X58835000Y-42075000D01*
X58835000Y-43375000D01*
X58380000Y-43375000D01*
X58355614Y-43377402D01*
X58332165Y-43384515D01*
X58310554Y-43396066D01*
X58291612Y-43411612D01*
X58276066Y-43430554D01*
X58264515Y-43452165D01*
X58257402Y-43475614D01*
X58255000Y-43500000D01*
X58255000Y-45500000D01*
X55410000Y-45500000D01*
X55410000Y-43500000D01*
X55407598Y-43475614D01*
X55400485Y-43452165D01*
X55388934Y-43430554D01*
X55373388Y-43411612D01*
X55354446Y-43396066D01*
X55332835Y-43384515D01*
X55309386Y-43377402D01*
X55285000Y-43375000D01*
X54803000Y-43375000D01*
X54778614Y-43377402D01*
X54755165Y-43384515D01*
X54733554Y-43396066D01*
X54714612Y-43411612D01*
X54699066Y-43430554D01*
X54687515Y-43452165D01*
X54680402Y-43475614D01*
X54678000Y-43500000D01*
X54678000Y-43595000D01*
X53935000Y-43595000D01*
X53910614Y-43597402D01*
X53887165Y-43604515D01*
X53865554Y-43616066D01*
X53846612Y-43631612D01*
X53831066Y-43650554D01*
X53819515Y-43672165D01*
X53812402Y-43695614D01*
X53810000Y-43720000D01*
X53810000Y-45500000D01*
X52510000Y-45500000D01*
X52510000Y-43400000D01*
X53253000Y-43400000D01*
X53277386Y-43397598D01*
X53300835Y-43390485D01*
X53322446Y-43378934D01*
X53341388Y-43363388D01*
X53356934Y-43344446D01*
X53368485Y-43322835D01*
X53375598Y-43299386D01*
X53378000Y-43275000D01*
X53378000Y-41495000D01*
X54678000Y-41495000D01*
X54678000Y-41950000D01*
X54678000Y-41950000D01*
G37*
G36*
X72805000Y-43090000D02*
X72807402Y-43114386D01*
X72814515Y-43137835D01*
X72826066Y-43159446D01*
X72841612Y-43178388D01*
X72860554Y-43193934D01*
X72882165Y-43205485D01*
X72905614Y-43212598D01*
X72930000Y-43215000D01*
X73310000Y-43215000D01*
X73310000Y-44415000D01*
X72010000Y-44415000D01*
X72010000Y-43500000D01*
X72007598Y-43475614D01*
X72000485Y-43452165D01*
X71988934Y-43430554D01*
X71973388Y-43411612D01*
X71954446Y-43396066D01*
X71932835Y-43384515D01*
X71909386Y-43377402D01*
X71885000Y-43375000D01*
X71440000Y-43375000D01*
X71415614Y-43377402D01*
X71392165Y-43384515D01*
X71370554Y-43396066D01*
X71351612Y-43411612D01*
X71336066Y-43430554D01*
X71324515Y-43452165D01*
X71317402Y-43475614D01*
X71315000Y-43500000D01*
X71315000Y-45500000D01*
X70015000Y-45500000D01*
X70015000Y-43400000D01*
X70580000Y-43400000D01*
X70604386Y-43397598D01*
X70627835Y-43390485D01*
X70649446Y-43378934D01*
X70668388Y-43363388D01*
X70683934Y-43344446D01*
X70695485Y-43322835D01*
X70702598Y-43299386D01*
X70705000Y-43275000D01*
X70705000Y-42075000D01*
X72805000Y-42075000D01*
X72805000Y-43090000D01*
X72805000Y-43090000D01*
G37*
G36*
X68995000Y-43375000D02*
X68540000Y-43375000D01*
X68515614Y-43377402D01*
X68492165Y-43384515D01*
X68470554Y-43396066D01*
X68451612Y-43411612D01*
X68436066Y-43430554D01*
X68424515Y-43452165D01*
X68417402Y-43475614D01*
X68415000Y-43500000D01*
X68415000Y-45500000D01*
X67115000Y-45500000D01*
X67115000Y-43500000D01*
X67112598Y-43475614D01*
X67105485Y-43452165D01*
X67093934Y-43430554D01*
X67078388Y-43411612D01*
X67059446Y-43396066D01*
X67037835Y-43384515D01*
X67014386Y-43377402D01*
X66990000Y-43375000D01*
X65275000Y-43375000D01*
X65250614Y-43377402D01*
X65227165Y-43384515D01*
X65205554Y-43396066D01*
X65186612Y-43411612D01*
X65171066Y-43430554D01*
X65159515Y-43452165D01*
X65155622Y-43465000D01*
X63850000Y-43465000D01*
X63850000Y-42265000D01*
X64865000Y-42265000D01*
X64889386Y-42262598D01*
X64912835Y-42255485D01*
X64934446Y-42243934D01*
X64953388Y-42228388D01*
X64968934Y-42209446D01*
X64980485Y-42187835D01*
X64987598Y-42164386D01*
X64990000Y-42140000D01*
X64990000Y-42075000D01*
X68995000Y-42075000D01*
X68995000Y-43375000D01*
X68995000Y-43375000D01*
G37*
G36*
X82965000Y-43090000D02*
X82967402Y-43114386D01*
X82974515Y-43137835D01*
X82986066Y-43159446D01*
X83001612Y-43178388D01*
X83020554Y-43193934D01*
X83042165Y-43205485D01*
X83065614Y-43212598D01*
X83090000Y-43215000D01*
X83470000Y-43215000D01*
X83470000Y-44415000D01*
X82170000Y-44415000D01*
X82170000Y-43500000D01*
X82167598Y-43475614D01*
X82160485Y-43452165D01*
X82148934Y-43430554D01*
X82133388Y-43411612D01*
X82114446Y-43396066D01*
X82092835Y-43384515D01*
X82069386Y-43377402D01*
X82045000Y-43375000D01*
X81600000Y-43375000D01*
X81575614Y-43377402D01*
X81552165Y-43384515D01*
X81530554Y-43396066D01*
X81511612Y-43411612D01*
X81496066Y-43430554D01*
X81484515Y-43452165D01*
X81477402Y-43475614D01*
X81475000Y-43500000D01*
X81475000Y-45500000D01*
X80175000Y-45500000D01*
X80175000Y-43400000D01*
X80740000Y-43400000D01*
X80764386Y-43397598D01*
X80787835Y-43390485D01*
X80809446Y-43378934D01*
X80828388Y-43363388D01*
X80843934Y-43344446D01*
X80855485Y-43322835D01*
X80862598Y-43299386D01*
X80865000Y-43275000D01*
X80865000Y-42075000D01*
X82965000Y-42075000D01*
X82965000Y-43090000D01*
X82965000Y-43090000D01*
G37*
G36*
X79155000Y-43375000D02*
X78700000Y-43375000D01*
X78675614Y-43377402D01*
X78652165Y-43384515D01*
X78630554Y-43396066D01*
X78611612Y-43411612D01*
X78596066Y-43430554D01*
X78584515Y-43452165D01*
X78577402Y-43475614D01*
X78575000Y-43500000D01*
X78575000Y-45500000D01*
X77275000Y-45500000D01*
X77275000Y-43500000D01*
X77272598Y-43475614D01*
X77265485Y-43452165D01*
X77253934Y-43430554D01*
X77238388Y-43411612D01*
X77219446Y-43396066D01*
X77197835Y-43384515D01*
X77174386Y-43377402D01*
X77150000Y-43375000D01*
X75435000Y-43375000D01*
X75410614Y-43377402D01*
X75387165Y-43384515D01*
X75365554Y-43396066D01*
X75346612Y-43411612D01*
X75331066Y-43430554D01*
X75319515Y-43452165D01*
X75315622Y-43465000D01*
X74010000Y-43465000D01*
X74010000Y-42265000D01*
X75025000Y-42265000D01*
X75049386Y-42262598D01*
X75072835Y-42255485D01*
X75094446Y-42243934D01*
X75113388Y-42228388D01*
X75128934Y-42209446D01*
X75140485Y-42187835D01*
X75147598Y-42164386D01*
X75150000Y-42140000D01*
X75150000Y-42075000D01*
X79155000Y-42075000D01*
X79155000Y-43375000D01*
X79155000Y-43375000D01*
G37*
G36*
X93125000Y-43090000D02*
X93127402Y-43114386D01*
X93134515Y-43137835D01*
X93146066Y-43159446D01*
X93161612Y-43178388D01*
X93180554Y-43193934D01*
X93202165Y-43205485D01*
X93225614Y-43212598D01*
X93250000Y-43215000D01*
X93630000Y-43215000D01*
X93630000Y-44415000D01*
X92330000Y-44415000D01*
X92330000Y-43500000D01*
X92327598Y-43475614D01*
X92320485Y-43452165D01*
X92308934Y-43430554D01*
X92293388Y-43411612D01*
X92274446Y-43396066D01*
X92252835Y-43384515D01*
X92229386Y-43377402D01*
X92205000Y-43375000D01*
X91760000Y-43375000D01*
X91735614Y-43377402D01*
X91712165Y-43384515D01*
X91690554Y-43396066D01*
X91671612Y-43411612D01*
X91656066Y-43430554D01*
X91644515Y-43452165D01*
X91637402Y-43475614D01*
X91635000Y-43500000D01*
X91635000Y-45500000D01*
X90335000Y-45500000D01*
X90335000Y-43400000D01*
X90900000Y-43400000D01*
X90924386Y-43397598D01*
X90947835Y-43390485D01*
X90969446Y-43378934D01*
X90988388Y-43363388D01*
X91003934Y-43344446D01*
X91015485Y-43322835D01*
X91022598Y-43299386D01*
X91025000Y-43275000D01*
X91025000Y-42075000D01*
X93125000Y-42075000D01*
X93125000Y-43090000D01*
X93125000Y-43090000D01*
G37*
G36*
X65150000Y-45365000D02*
X63850000Y-45365000D01*
X63850000Y-44165000D01*
X65150000Y-44165000D01*
X65150000Y-45365000D01*
X65150000Y-45365000D01*
G37*
G36*
X75310000Y-45365000D02*
X74010000Y-45365000D01*
X74010000Y-44165000D01*
X75310000Y-44165000D01*
X75310000Y-45365000D01*
X75310000Y-45365000D01*
G37*
G36*
X85470000Y-45365000D02*
X84170000Y-45365000D01*
X84170000Y-44165000D01*
X85470000Y-44165000D01*
X85470000Y-45365000D01*
X85470000Y-45365000D01*
G37*
G36*
X95630000Y-45365000D02*
X94330000Y-45365000D01*
X94330000Y-44165000D01*
X95630000Y-44165000D01*
X95630000Y-45365000D01*
X95630000Y-45365000D01*
G37*
G36*
X43631000Y-45158000D02*
X39631000Y-45158000D01*
X39631000Y-43488000D01*
X43631000Y-43488000D01*
X43631000Y-45158000D01*
X43631000Y-45158000D01*
G37*
G36*
X50031000Y-45158000D02*
X46031000Y-45158000D01*
X46031000Y-43488000D01*
X50031000Y-43488000D01*
X50031000Y-45158000D01*
X50031000Y-45158000D01*
G37*
G36*
X102530000Y-41007588D02*
X102507165Y-41014515D01*
X102485554Y-41026066D01*
X102466612Y-41041612D01*
X102451066Y-41060554D01*
X102439515Y-41082165D01*
X102432402Y-41105614D01*
X102430000Y-41130000D01*
X102430000Y-44865000D01*
X101130000Y-44865000D01*
X101130000Y-39005000D01*
X102530000Y-39005000D01*
X102530000Y-41007588D01*
X102530000Y-41007588D01*
G37*
G36*
X99530000Y-44865000D02*
X98230000Y-44865000D01*
X98230000Y-41130000D01*
X98227598Y-41105614D01*
X98220485Y-41082165D01*
X98208934Y-41060554D01*
X98193388Y-41041612D01*
X98174446Y-41026066D01*
X98152835Y-41014515D01*
X98130000Y-41007588D01*
X98130000Y-39005000D01*
X99530000Y-39005000D01*
X99530000Y-44865000D01*
X99530000Y-44865000D01*
G37*
G36*
X117770000Y-41007588D02*
X117747165Y-41014515D01*
X117725554Y-41026066D01*
X117706612Y-41041612D01*
X117691066Y-41060554D01*
X117679515Y-41082165D01*
X117672402Y-41105614D01*
X117670000Y-41130000D01*
X117670000Y-44865000D01*
X116370000Y-44865000D01*
X116370000Y-39005000D01*
X117770000Y-39005000D01*
X117770000Y-41007588D01*
X117770000Y-41007588D01*
G37*
G36*
X114770000Y-44865000D02*
X113470000Y-44865000D01*
X113470000Y-41130000D01*
X113467598Y-41105614D01*
X113460485Y-41082165D01*
X113448934Y-41060554D01*
X113433388Y-41041612D01*
X113414446Y-41026066D01*
X113392835Y-41014515D01*
X113370000Y-41007588D01*
X113370000Y-39005000D01*
X114770000Y-39005000D01*
X114770000Y-44865000D01*
X114770000Y-44865000D01*
G37*
G36*
X110150000Y-41007588D02*
X110127165Y-41014515D01*
X110105554Y-41026066D01*
X110086612Y-41041612D01*
X110071066Y-41060554D01*
X110059515Y-41082165D01*
X110052402Y-41105614D01*
X110050000Y-41130000D01*
X110050000Y-44865000D01*
X108750000Y-44865000D01*
X108750000Y-39005000D01*
X110150000Y-39005000D01*
X110150000Y-41007588D01*
X110150000Y-41007588D01*
G37*
G36*
X107150000Y-44865000D02*
X105850000Y-44865000D01*
X105850000Y-41130000D01*
X105847598Y-41105614D01*
X105840485Y-41082165D01*
X105828934Y-41060554D01*
X105813388Y-41041612D01*
X105794446Y-41026066D01*
X105772835Y-41014515D01*
X105750000Y-41007588D01*
X105750000Y-39005000D01*
X107150000Y-39005000D01*
X107150000Y-44865000D01*
X107150000Y-44865000D01*
G37*
G36*
X51778000Y-43595000D02*
X50478000Y-43595000D01*
X50478000Y-41495000D01*
X51778000Y-41495000D01*
X51778000Y-43595000D01*
X51778000Y-43595000D01*
G37*
G36*
X95630000Y-43465000D02*
X94330000Y-43465000D01*
X94330000Y-42265000D01*
X95630000Y-42265000D01*
X95630000Y-43465000D01*
X95630000Y-43465000D01*
G37*
G36*
X50031000Y-42618000D02*
X46031000Y-42618000D01*
X46031000Y-40948000D01*
X50031000Y-40948000D01*
X50031000Y-42618000D01*
X50031000Y-42618000D01*
G37*
G36*
X43631000Y-42618000D02*
X39631000Y-42618000D01*
X39631000Y-40948000D01*
X43631000Y-40948000D01*
X43631000Y-42618000D01*
X43631000Y-42618000D01*
G37*
G36*
X89315000Y-40475000D02*
X85310000Y-40475000D01*
X85310000Y-39175000D01*
X89315000Y-39175000D01*
X89315000Y-40475000D01*
X89315000Y-40475000D01*
G37*
G36*
X93125000Y-40475000D02*
X91025000Y-40475000D01*
X91025000Y-39175000D01*
X93125000Y-39175000D01*
X93125000Y-40475000D01*
X93125000Y-40475000D01*
G37*
G36*
X79155000Y-40475000D02*
X75150000Y-40475000D01*
X75150000Y-39175000D01*
X79155000Y-39175000D01*
X79155000Y-40475000D01*
X79155000Y-40475000D01*
G37*
G36*
X82965000Y-40475000D02*
X80865000Y-40475000D01*
X80865000Y-39175000D01*
X82965000Y-39175000D01*
X82965000Y-40475000D01*
X82965000Y-40475000D01*
G37*
G36*
X68995000Y-40475000D02*
X64990000Y-40475000D01*
X64990000Y-39175000D01*
X68995000Y-39175000D01*
X68995000Y-40475000D01*
X68995000Y-40475000D01*
G37*
G36*
X72805000Y-40475000D02*
X70705000Y-40475000D01*
X70705000Y-39175000D01*
X72805000Y-39175000D01*
X72805000Y-40475000D01*
X72805000Y-40475000D01*
G37*
G36*
X58835000Y-40475000D02*
X54830000Y-40475000D01*
X54830000Y-39175000D01*
X58835000Y-39175000D01*
X58835000Y-40475000D01*
X58835000Y-40475000D01*
G37*
G36*
X62645000Y-40475000D02*
X60545000Y-40475000D01*
X60545000Y-39175000D01*
X62645000Y-39175000D01*
X62645000Y-40475000D01*
X62645000Y-40475000D01*
G37*
G36*
X43631000Y-40078000D02*
X39631000Y-40078000D01*
X39631000Y-38408000D01*
X43631000Y-38408000D01*
X43631000Y-40078000D01*
X43631000Y-40078000D01*
G37*
G36*
X50031000Y-40078000D02*
X46031000Y-40078000D01*
X46031000Y-38408000D01*
X50031000Y-38408000D01*
X50031000Y-40078000D01*
X50031000Y-40078000D01*
G37*
G36*
X35412903Y-37559789D02*
X35613391Y-37620607D01*
X35798164Y-37719369D01*
X35960118Y-37852282D01*
X36093031Y-38014236D01*
X36191793Y-38199009D01*
X36252611Y-38399497D01*
X36273146Y-38608000D01*
X36252611Y-38816503D01*
X36191793Y-39016991D01*
X36093031Y-39201764D01*
X35960118Y-39363718D01*
X35798164Y-39496631D01*
X35613391Y-39595393D01*
X35412903Y-39656211D01*
X35256651Y-39671600D01*
X34847349Y-39671600D01*
X34691097Y-39656211D01*
X34490609Y-39595393D01*
X34305836Y-39496631D01*
X34143882Y-39363718D01*
X34010969Y-39201764D01*
X33912207Y-39016991D01*
X33851389Y-38816503D01*
X33830854Y-38608000D01*
X33851389Y-38399497D01*
X33912207Y-38199009D01*
X34010969Y-38014236D01*
X34143882Y-37852282D01*
X34305836Y-37719369D01*
X34490609Y-37620607D01*
X34691097Y-37559789D01*
X34847349Y-37544400D01*
X35256651Y-37544400D01*
X35412903Y-37559789D01*
X35412903Y-37559789D01*
G37*
G36*
X122915903Y-37559789D02*
X123116391Y-37620607D01*
X123301164Y-37719369D01*
X123463118Y-37852282D01*
X123596031Y-38014236D01*
X123694793Y-38199009D01*
X123755611Y-38399497D01*
X123776146Y-38608000D01*
X123755611Y-38816503D01*
X123694793Y-39016991D01*
X123596031Y-39201764D01*
X123463118Y-39363718D01*
X123301164Y-39496631D01*
X123116391Y-39595393D01*
X122915903Y-39656211D01*
X122759651Y-39671600D01*
X122350349Y-39671600D01*
X122194097Y-39656211D01*
X121993609Y-39595393D01*
X121808836Y-39496631D01*
X121646882Y-39363718D01*
X121513969Y-39201764D01*
X121415207Y-39016991D01*
X121354389Y-38816503D01*
X121333854Y-38608000D01*
X121354389Y-38399497D01*
X121415207Y-38199009D01*
X121513969Y-38014236D01*
X121646882Y-37852282D01*
X121808836Y-37719369D01*
X121993609Y-37620607D01*
X122194097Y-37559789D01*
X122350349Y-37544400D01*
X122759651Y-37544400D01*
X122915903Y-37559789D01*
X122915903Y-37559789D01*
G37*
G36*
X51942000Y-38888000D02*
X50642000Y-38888000D01*
X50642000Y-37688000D01*
X51942000Y-37688000D01*
X51942000Y-38888000D01*
X51942000Y-38888000D01*
G37*
G36*
X45788000Y-38134000D02*
X44488000Y-38134000D01*
X44488000Y-36034000D01*
X45788000Y-36034000D01*
X45788000Y-38134000D01*
X45788000Y-38134000D01*
G37*
G36*
X42888000Y-38134000D02*
X41588000Y-38134000D01*
X41588000Y-36034000D01*
X42888000Y-36034000D01*
X42888000Y-38134000D01*
X42888000Y-38134000D01*
G37*
G36*
X99514000Y-38109500D02*
X98606000Y-38109500D01*
X98606000Y-36566500D01*
X99514000Y-36566500D01*
X99514000Y-38109500D01*
X99514000Y-38109500D01*
G37*
G36*
X102054000Y-38109500D02*
X101146000Y-38109500D01*
X101146000Y-36566500D01*
X102054000Y-36566500D01*
X102054000Y-38109500D01*
X102054000Y-38109500D01*
G37*
G36*
X107134000Y-38109500D02*
X106226000Y-38109500D01*
X106226000Y-36566500D01*
X107134000Y-36566500D01*
X107134000Y-38109500D01*
X107134000Y-38109500D01*
G37*
G36*
X105864000Y-38109500D02*
X104956000Y-38109500D01*
X104956000Y-36566500D01*
X105864000Y-36566500D01*
X105864000Y-38109500D01*
X105864000Y-38109500D01*
G37*
G36*
X100784000Y-38109500D02*
X99876000Y-38109500D01*
X99876000Y-36566500D01*
X100784000Y-36566500D01*
X100784000Y-38109500D01*
X100784000Y-38109500D01*
G37*
G36*
X103324000Y-38109500D02*
X102416000Y-38109500D01*
X102416000Y-36566500D01*
X103324000Y-36566500D01*
X103324000Y-38109500D01*
X103324000Y-38109500D01*
G37*
G36*
X104594000Y-38109500D02*
X103686000Y-38109500D01*
X103686000Y-36566500D01*
X104594000Y-36566500D01*
X104594000Y-38109500D01*
X104594000Y-38109500D01*
G37*
G36*
X49942000Y-37938000D02*
X48642000Y-37938000D01*
X48642000Y-36738000D01*
X49942000Y-36738000D01*
X49942000Y-37938000D01*
X49942000Y-37938000D01*
G37*
G36*
X83956500Y-37919000D02*
X82413500Y-37919000D01*
X82413500Y-37011000D01*
X83956500Y-37011000D01*
X83956500Y-37919000D01*
X83956500Y-37919000D01*
G37*
G36*
X87766500Y-37919000D02*
X86223500Y-37919000D01*
X86223500Y-37011000D01*
X87766500Y-37011000D01*
X87766500Y-37919000D01*
X87766500Y-37919000D01*
G37*
G36*
X94116500Y-37919000D02*
X92573500Y-37919000D01*
X92573500Y-37011000D01*
X94116500Y-37011000D01*
X94116500Y-37919000D01*
X94116500Y-37919000D01*
G37*
G36*
X73796500Y-37919000D02*
X72253500Y-37919000D01*
X72253500Y-37011000D01*
X73796500Y-37011000D01*
X73796500Y-37919000D01*
X73796500Y-37919000D01*
G37*
G36*
X67446500Y-37919000D02*
X65903500Y-37919000D01*
X65903500Y-37011000D01*
X67446500Y-37011000D01*
X67446500Y-37919000D01*
X67446500Y-37919000D01*
G37*
G36*
X63636500Y-37919000D02*
X62093500Y-37919000D01*
X62093500Y-37011000D01*
X63636500Y-37011000D01*
X63636500Y-37919000D01*
X63636500Y-37919000D01*
G37*
G36*
X77606500Y-37919000D02*
X76063500Y-37919000D01*
X76063500Y-37011000D01*
X77606500Y-37011000D01*
X77606500Y-37919000D01*
X77606500Y-37919000D01*
G37*
G36*
X57286500Y-37919000D02*
X55743500Y-37919000D01*
X55743500Y-37011000D01*
X57286500Y-37011000D01*
X57286500Y-37919000D01*
X57286500Y-37919000D01*
G37*
G36*
X122915903Y-35019789D02*
X123116391Y-35080607D01*
X123301164Y-35179369D01*
X123463118Y-35312282D01*
X123596031Y-35474236D01*
X123694793Y-35659009D01*
X123755611Y-35859497D01*
X123776146Y-36068000D01*
X123755611Y-36276503D01*
X123694793Y-36476991D01*
X123596031Y-36661764D01*
X123463118Y-36823718D01*
X123301164Y-36956631D01*
X123116391Y-37055393D01*
X122915903Y-37116211D01*
X122759651Y-37131600D01*
X122350349Y-37131600D01*
X122194097Y-37116211D01*
X121993609Y-37055393D01*
X121808836Y-36956631D01*
X121646882Y-36823718D01*
X121513969Y-36661764D01*
X121415207Y-36476991D01*
X121354389Y-36276503D01*
X121333854Y-36068000D01*
X121354389Y-35859497D01*
X121415207Y-35659009D01*
X121513969Y-35474236D01*
X121646882Y-35312282D01*
X121808836Y-35179369D01*
X121993609Y-35080607D01*
X122194097Y-35019789D01*
X122350349Y-35004400D01*
X122759651Y-35004400D01*
X122915903Y-35019789D01*
X122915903Y-35019789D01*
G37*
G36*
X35412903Y-35019789D02*
X35613391Y-35080607D01*
X35798164Y-35179369D01*
X35960118Y-35312282D01*
X36093031Y-35474236D01*
X36191793Y-35659009D01*
X36252611Y-35859497D01*
X36273146Y-36068000D01*
X36252611Y-36276503D01*
X36191793Y-36476991D01*
X36093031Y-36661764D01*
X35960118Y-36823718D01*
X35798164Y-36956631D01*
X35613391Y-37055393D01*
X35412903Y-37116211D01*
X35256651Y-37131600D01*
X34847349Y-37131600D01*
X34691097Y-37116211D01*
X34490609Y-37055393D01*
X34305836Y-36956631D01*
X34143882Y-36823718D01*
X34010969Y-36661764D01*
X33912207Y-36476991D01*
X33851389Y-36276503D01*
X33830854Y-36068000D01*
X33851389Y-35859497D01*
X33912207Y-35659009D01*
X34010969Y-35474236D01*
X34143882Y-35312282D01*
X34305836Y-35179369D01*
X34490609Y-35080607D01*
X34691097Y-35019789D01*
X34847349Y-35004400D01*
X35256651Y-35004400D01*
X35412903Y-35019789D01*
X35412903Y-35019789D01*
G37*
G36*
X51942000Y-36988000D02*
X50642000Y-36988000D01*
X50642000Y-35788000D01*
X51942000Y-35788000D01*
X51942000Y-36988000D01*
X51942000Y-36988000D01*
G37*
G36*
X47402000Y-36856000D02*
X46102000Y-36856000D01*
X46102000Y-35656000D01*
X47402000Y-35656000D01*
X47402000Y-36856000D01*
X47402000Y-36856000D01*
G37*
G36*
X73796500Y-36649000D02*
X72253500Y-36649000D01*
X72253500Y-35741000D01*
X73796500Y-35741000D01*
X73796500Y-36649000D01*
X73796500Y-36649000D01*
G37*
G36*
X57286500Y-36649000D02*
X55743500Y-36649000D01*
X55743500Y-35741000D01*
X57286500Y-35741000D01*
X57286500Y-36649000D01*
X57286500Y-36649000D01*
G37*
G36*
X63636500Y-36649000D02*
X62093500Y-36649000D01*
X62093500Y-35741000D01*
X63636500Y-35741000D01*
X63636500Y-36649000D01*
X63636500Y-36649000D01*
G37*
G36*
X67446500Y-36649000D02*
X65903500Y-36649000D01*
X65903500Y-35741000D01*
X67446500Y-35741000D01*
X67446500Y-36649000D01*
X67446500Y-36649000D01*
G37*
G36*
X77606500Y-36649000D02*
X76063500Y-36649000D01*
X76063500Y-35741000D01*
X77606500Y-35741000D01*
X77606500Y-36649000D01*
X77606500Y-36649000D01*
G37*
G36*
X83956500Y-36649000D02*
X82413500Y-36649000D01*
X82413500Y-35741000D01*
X83956500Y-35741000D01*
X83956500Y-36649000D01*
X83956500Y-36649000D01*
G37*
G36*
X87766500Y-36649000D02*
X86223500Y-36649000D01*
X86223500Y-35741000D01*
X87766500Y-35741000D01*
X87766500Y-36649000D01*
X87766500Y-36649000D01*
G37*
G36*
X94116500Y-36649000D02*
X92573500Y-36649000D01*
X92573500Y-35741000D01*
X94116500Y-35741000D01*
X94116500Y-36649000D01*
X94116500Y-36649000D01*
G37*
G36*
X41182000Y-36136000D02*
X39082000Y-36136000D01*
X39082000Y-34836000D01*
X41182000Y-34836000D01*
X41182000Y-36136000D01*
X41182000Y-36136000D01*
G37*
G36*
X49402000Y-35906000D02*
X48102000Y-35906000D01*
X48102000Y-34706000D01*
X49402000Y-34706000D01*
X49402000Y-35906000D01*
X49402000Y-35906000D01*
G37*
G36*
X45788000Y-35721000D02*
X44488000Y-35721000D01*
X44488000Y-33621000D01*
X45788000Y-33621000D01*
X45788000Y-35721000D01*
X45788000Y-35721000D01*
G37*
G36*
X42888000Y-35721000D02*
X41588000Y-35721000D01*
X41588000Y-33621000D01*
X42888000Y-33621000D01*
X42888000Y-35721000D01*
X42888000Y-35721000D01*
G37*
G36*
X63636500Y-35379000D02*
X62093500Y-35379000D01*
X62093500Y-34471000D01*
X63636500Y-34471000D01*
X63636500Y-35379000D01*
X63636500Y-35379000D01*
G37*
G36*
X67446500Y-35379000D02*
X65903500Y-35379000D01*
X65903500Y-34471000D01*
X67446500Y-34471000D01*
X67446500Y-35379000D01*
X67446500Y-35379000D01*
G37*
G36*
X73796500Y-35379000D02*
X72253500Y-35379000D01*
X72253500Y-34471000D01*
X73796500Y-34471000D01*
X73796500Y-35379000D01*
X73796500Y-35379000D01*
G37*
G36*
X77606500Y-35379000D02*
X76063500Y-35379000D01*
X76063500Y-34471000D01*
X77606500Y-34471000D01*
X77606500Y-35379000D01*
X77606500Y-35379000D01*
G37*
G36*
X57286500Y-35379000D02*
X55743500Y-35379000D01*
X55743500Y-34471000D01*
X57286500Y-34471000D01*
X57286500Y-35379000D01*
X57286500Y-35379000D01*
G37*
G36*
X83956500Y-35379000D02*
X82413500Y-35379000D01*
X82413500Y-34471000D01*
X83956500Y-34471000D01*
X83956500Y-35379000D01*
X83956500Y-35379000D01*
G37*
G36*
X87766500Y-35379000D02*
X86223500Y-35379000D01*
X86223500Y-34471000D01*
X87766500Y-34471000D01*
X87766500Y-35379000D01*
X87766500Y-35379000D01*
G37*
G36*
X94116500Y-35379000D02*
X92573500Y-35379000D01*
X92573500Y-34471000D01*
X94116500Y-34471000D01*
X94116500Y-35379000D01*
X94116500Y-35379000D01*
G37*
G36*
X47402000Y-34956000D02*
X46102000Y-34956000D01*
X46102000Y-33756000D01*
X47402000Y-33756000D01*
X47402000Y-34956000D01*
X47402000Y-34956000D01*
G37*
G36*
X122915903Y-32479789D02*
X123116391Y-32540607D01*
X123301164Y-32639369D01*
X123463118Y-32772282D01*
X123596031Y-32934236D01*
X123694793Y-33119009D01*
X123755611Y-33319497D01*
X123776146Y-33528000D01*
X123755611Y-33736503D01*
X123694793Y-33936991D01*
X123596031Y-34121764D01*
X123463118Y-34283718D01*
X123301164Y-34416631D01*
X123116391Y-34515393D01*
X122915903Y-34576211D01*
X122759651Y-34591600D01*
X122350349Y-34591600D01*
X122194097Y-34576211D01*
X121993609Y-34515393D01*
X121808836Y-34416631D01*
X121646882Y-34283718D01*
X121513969Y-34121764D01*
X121415207Y-33936991D01*
X121354389Y-33736503D01*
X121333854Y-33528000D01*
X121354389Y-33319497D01*
X121415207Y-33119009D01*
X121513969Y-32934236D01*
X121646882Y-32772282D01*
X121808836Y-32639369D01*
X121993609Y-32540607D01*
X122194097Y-32479789D01*
X122350349Y-32464400D01*
X122759651Y-32464400D01*
X122915903Y-32479789D01*
X122915903Y-32479789D01*
G37*
G36*
X35412903Y-32479789D02*
X35613391Y-32540607D01*
X35798164Y-32639369D01*
X35960118Y-32772282D01*
X36093031Y-32934236D01*
X36191793Y-33119009D01*
X36252611Y-33319497D01*
X36273146Y-33528000D01*
X36252611Y-33736503D01*
X36191793Y-33936991D01*
X36093031Y-34121764D01*
X35960118Y-34283718D01*
X35798164Y-34416631D01*
X35613391Y-34515393D01*
X35412903Y-34576211D01*
X35256651Y-34591600D01*
X34847349Y-34591600D01*
X34691097Y-34576211D01*
X34490609Y-34515393D01*
X34305836Y-34416631D01*
X34143882Y-34283718D01*
X34010969Y-34121764D01*
X33912207Y-33936991D01*
X33851389Y-33736503D01*
X33830854Y-33528000D01*
X33851389Y-33319497D01*
X33912207Y-33119009D01*
X34010969Y-32934236D01*
X34143882Y-32772282D01*
X34305836Y-32639369D01*
X34490609Y-32540607D01*
X34691097Y-32479789D01*
X34847349Y-32464400D01*
X35256651Y-32464400D01*
X35412903Y-32479789D01*
X35412903Y-32479789D01*
G37*
G36*
X67446500Y-34109000D02*
X65903500Y-34109000D01*
X65903500Y-33201000D01*
X67446500Y-33201000D01*
X67446500Y-34109000D01*
X67446500Y-34109000D01*
G37*
G36*
X57286500Y-34109000D02*
X55743500Y-34109000D01*
X55743500Y-33201000D01*
X57286500Y-33201000D01*
X57286500Y-34109000D01*
X57286500Y-34109000D01*
G37*
G36*
X94116500Y-34109000D02*
X92573500Y-34109000D01*
X92573500Y-33201000D01*
X94116500Y-33201000D01*
X94116500Y-34109000D01*
X94116500Y-34109000D01*
G37*
G36*
X83956500Y-34109000D02*
X82413500Y-34109000D01*
X82413500Y-33201000D01*
X83956500Y-33201000D01*
X83956500Y-34109000D01*
X83956500Y-34109000D01*
G37*
G36*
X63636500Y-34109000D02*
X62093500Y-34109000D01*
X62093500Y-33201000D01*
X63636500Y-33201000D01*
X63636500Y-34109000D01*
X63636500Y-34109000D01*
G37*
G36*
X77606500Y-34109000D02*
X76063500Y-34109000D01*
X76063500Y-33201000D01*
X77606500Y-33201000D01*
X77606500Y-34109000D01*
X77606500Y-34109000D01*
G37*
G36*
X73796500Y-34109000D02*
X72253500Y-34109000D01*
X72253500Y-33201000D01*
X73796500Y-33201000D01*
X73796500Y-34109000D01*
X73796500Y-34109000D01*
G37*
G36*
X87766500Y-34109000D02*
X86223500Y-34109000D01*
X86223500Y-33201000D01*
X87766500Y-33201000D01*
X87766500Y-34109000D01*
X87766500Y-34109000D01*
G37*
G36*
X120634000Y-33696000D02*
X118634000Y-33696000D01*
X118634000Y-32296000D01*
X120634000Y-32296000D01*
X120634000Y-33696000D01*
X120634000Y-33696000D01*
G37*
G36*
X41182000Y-33236000D02*
X39082000Y-33236000D01*
X39082000Y-31936000D01*
X41182000Y-31936000D01*
X41182000Y-33236000D01*
X41182000Y-33236000D01*
G37*
G36*
X50265000Y-24540000D02*
X50267402Y-24564386D01*
X50274515Y-24587835D01*
X50286066Y-24609446D01*
X50301612Y-24628388D01*
X50320554Y-24643934D01*
X50342165Y-24655485D01*
X50365614Y-24662598D01*
X50390000Y-24665000D01*
X52240000Y-24665000D01*
X52240000Y-31215000D01*
X50390000Y-31215000D01*
X50365614Y-31217402D01*
X50342165Y-31224515D01*
X50320554Y-31236066D01*
X50301612Y-31251612D01*
X50286066Y-31270554D01*
X50274515Y-31292165D01*
X50267402Y-31315614D01*
X50265000Y-31340000D01*
X50265000Y-33190000D01*
X43715000Y-33190000D01*
X43715000Y-31340000D01*
X43712598Y-31315614D01*
X43705485Y-31292165D01*
X43693934Y-31270554D01*
X43678388Y-31251612D01*
X43659446Y-31236066D01*
X43637835Y-31224515D01*
X43614386Y-31217402D01*
X43590000Y-31215000D01*
X41740000Y-31215000D01*
X41740000Y-24815000D01*
X43740000Y-24815000D01*
X43740000Y-31065000D01*
X43742402Y-31089386D01*
X43749515Y-31112835D01*
X43761066Y-31134446D01*
X43776612Y-31153388D01*
X43795554Y-31168934D01*
X43817165Y-31180485D01*
X43840614Y-31187598D01*
X43865000Y-31190000D01*
X50115000Y-31190000D01*
X50139386Y-31187598D01*
X50162835Y-31180485D01*
X50184446Y-31168934D01*
X50203388Y-31153388D01*
X50218934Y-31134446D01*
X50230485Y-31112835D01*
X50237598Y-31089386D01*
X50240000Y-31065000D01*
X50240000Y-24815000D01*
X50237598Y-24790614D01*
X50230485Y-24767165D01*
X50218934Y-24745554D01*
X50203388Y-24726612D01*
X50184446Y-24711066D01*
X50162835Y-24699515D01*
X50139386Y-24692402D01*
X50115000Y-24690000D01*
X43865000Y-24690000D01*
X43840614Y-24692402D01*
X43817165Y-24699515D01*
X43795554Y-24711066D01*
X43776612Y-24726612D01*
X43761066Y-24745554D01*
X43749515Y-24767165D01*
X43742402Y-24790614D01*
X43740000Y-24815000D01*
X41740000Y-24815000D01*
X41740000Y-24665000D01*
X43590000Y-24665000D01*
X43614386Y-24662598D01*
X43637835Y-24655485D01*
X43659446Y-24643934D01*
X43678388Y-24628388D01*
X43693934Y-24609446D01*
X43705485Y-24587835D01*
X43712598Y-24564386D01*
X43715000Y-24540000D01*
X43715000Y-22690000D01*
X50265000Y-22690000D01*
X50265000Y-24540000D01*
X50265000Y-24540000D01*
G37*
G36*
X67446500Y-32839000D02*
X65903500Y-32839000D01*
X65903500Y-31931000D01*
X67446500Y-31931000D01*
X67446500Y-32839000D01*
X67446500Y-32839000D01*
G37*
G36*
X87766500Y-32839000D02*
X86223500Y-32839000D01*
X86223500Y-31931000D01*
X87766500Y-31931000D01*
X87766500Y-32839000D01*
X87766500Y-32839000D01*
G37*
G36*
X94116500Y-32839000D02*
X92573500Y-32839000D01*
X92573500Y-31931000D01*
X94116500Y-31931000D01*
X94116500Y-32839000D01*
X94116500Y-32839000D01*
G37*
G36*
X77606500Y-32839000D02*
X76063500Y-32839000D01*
X76063500Y-31931000D01*
X77606500Y-31931000D01*
X77606500Y-32839000D01*
X77606500Y-32839000D01*
G37*
G36*
X73796500Y-32839000D02*
X72253500Y-32839000D01*
X72253500Y-31931000D01*
X73796500Y-31931000D01*
X73796500Y-32839000D01*
X73796500Y-32839000D01*
G37*
G36*
X63636500Y-32839000D02*
X62093500Y-32839000D01*
X62093500Y-31931000D01*
X63636500Y-31931000D01*
X63636500Y-32839000D01*
X63636500Y-32839000D01*
G37*
G36*
X57286500Y-32839000D02*
X55743500Y-32839000D01*
X55743500Y-31931000D01*
X57286500Y-31931000D01*
X57286500Y-32839000D01*
X57286500Y-32839000D01*
G37*
G36*
X83956500Y-32839000D02*
X82413500Y-32839000D01*
X82413500Y-31931000D01*
X83956500Y-31931000D01*
X83956500Y-32839000D01*
X83956500Y-32839000D01*
G37*
G36*
X36268000Y-32051600D02*
X33836000Y-32051600D01*
X33836000Y-29924400D01*
X36268000Y-29924400D01*
X36268000Y-32051600D01*
X36268000Y-32051600D01*
G37*
G36*
X123771000Y-32051600D02*
X121339000Y-32051600D01*
X121339000Y-29924400D01*
X123771000Y-29924400D01*
X123771000Y-32051600D01*
X123771000Y-32051600D01*
G37*
G36*
X103324000Y-31759500D02*
X102416000Y-31759500D01*
X102416000Y-30216500D01*
X103324000Y-30216500D01*
X103324000Y-31759500D01*
X103324000Y-31759500D01*
G37*
G36*
X104594000Y-31759500D02*
X103686000Y-31759500D01*
X103686000Y-30216500D01*
X104594000Y-30216500D01*
X104594000Y-31759500D01*
X104594000Y-31759500D01*
G37*
G36*
X102054000Y-31759500D02*
X101146000Y-31759500D01*
X101146000Y-30216500D01*
X102054000Y-30216500D01*
X102054000Y-31759500D01*
X102054000Y-31759500D01*
G37*
G36*
X107134000Y-31759500D02*
X106226000Y-31759500D01*
X106226000Y-30216500D01*
X107134000Y-30216500D01*
X107134000Y-31759500D01*
X107134000Y-31759500D01*
G37*
G36*
X99514000Y-31759500D02*
X98606000Y-31759500D01*
X98606000Y-30216500D01*
X99514000Y-30216500D01*
X99514000Y-31759500D01*
X99514000Y-31759500D01*
G37*
G36*
X105864000Y-31759500D02*
X104956000Y-31759500D01*
X104956000Y-30216500D01*
X105864000Y-30216500D01*
X105864000Y-31759500D01*
X105864000Y-31759500D01*
G37*
G36*
X100784000Y-31759500D02*
X99876000Y-31759500D01*
X99876000Y-30216500D01*
X100784000Y-30216500D01*
X100784000Y-31759500D01*
X100784000Y-31759500D01*
G37*
G36*
X57286500Y-31569000D02*
X55743500Y-31569000D01*
X55743500Y-30661000D01*
X57286500Y-30661000D01*
X57286500Y-31569000D01*
X57286500Y-31569000D01*
G37*
G36*
X77606500Y-31569000D02*
X76063500Y-31569000D01*
X76063500Y-30661000D01*
X77606500Y-30661000D01*
X77606500Y-31569000D01*
X77606500Y-31569000D01*
G37*
G36*
X73796500Y-31569000D02*
X72253500Y-31569000D01*
X72253500Y-30661000D01*
X73796500Y-30661000D01*
X73796500Y-31569000D01*
X73796500Y-31569000D01*
G37*
G36*
X67446500Y-31569000D02*
X65903500Y-31569000D01*
X65903500Y-30661000D01*
X67446500Y-30661000D01*
X67446500Y-31569000D01*
X67446500Y-31569000D01*
G37*
G36*
X87766500Y-31569000D02*
X86223500Y-31569000D01*
X86223500Y-30661000D01*
X87766500Y-30661000D01*
X87766500Y-31569000D01*
X87766500Y-31569000D01*
G37*
G36*
X83956500Y-31569000D02*
X82413500Y-31569000D01*
X82413500Y-30661000D01*
X83956500Y-30661000D01*
X83956500Y-31569000D01*
X83956500Y-31569000D01*
G37*
G36*
X94116500Y-31569000D02*
X92573500Y-31569000D01*
X92573500Y-30661000D01*
X94116500Y-30661000D01*
X94116500Y-31569000D01*
X94116500Y-31569000D01*
G37*
G36*
X63636500Y-31569000D02*
X62093500Y-31569000D01*
X62093500Y-30661000D01*
X63636500Y-30661000D01*
X63636500Y-31569000D01*
X63636500Y-31569000D01*
G37*
G36*
X41182000Y-31310000D02*
X39082000Y-31310000D01*
X39082000Y-30010000D01*
X41182000Y-30010000D01*
X41182000Y-31310000D01*
X41182000Y-31310000D01*
G37*
G36*
X120634000Y-30696000D02*
X118634000Y-30696000D01*
X118634000Y-29296000D01*
X120634000Y-29296000D01*
X120634000Y-30696000D01*
X120634000Y-30696000D01*
G37*
G36*
X77606500Y-30299000D02*
X76063500Y-30299000D01*
X76063500Y-29391000D01*
X77606500Y-29391000D01*
X77606500Y-30299000D01*
X77606500Y-30299000D01*
G37*
G36*
X73796500Y-30299000D02*
X72253500Y-30299000D01*
X72253500Y-29391000D01*
X73796500Y-29391000D01*
X73796500Y-30299000D01*
X73796500Y-30299000D01*
G37*
G36*
X94116500Y-30299000D02*
X92573500Y-30299000D01*
X92573500Y-29391000D01*
X94116500Y-29391000D01*
X94116500Y-30299000D01*
X94116500Y-30299000D01*
G37*
G36*
X57286500Y-30299000D02*
X55743500Y-30299000D01*
X55743500Y-29391000D01*
X57286500Y-29391000D01*
X57286500Y-30299000D01*
X57286500Y-30299000D01*
G37*
G36*
X63636500Y-30299000D02*
X62093500Y-30299000D01*
X62093500Y-29391000D01*
X63636500Y-29391000D01*
X63636500Y-30299000D01*
X63636500Y-30299000D01*
G37*
G36*
X83956500Y-30299000D02*
X82413500Y-30299000D01*
X82413500Y-29391000D01*
X83956500Y-29391000D01*
X83956500Y-30299000D01*
X83956500Y-30299000D01*
G37*
G36*
X87766500Y-30299000D02*
X86223500Y-30299000D01*
X86223500Y-29391000D01*
X87766500Y-29391000D01*
X87766500Y-30299000D01*
X87766500Y-30299000D01*
G37*
G36*
X67446500Y-30299000D02*
X65903500Y-30299000D01*
X65903500Y-29391000D01*
X67446500Y-29391000D01*
X67446500Y-30299000D01*
X67446500Y-30299000D01*
G37*
G36*
X102430000Y-27450000D02*
X102432402Y-27474386D01*
X102439515Y-27497835D01*
X102451066Y-27519446D01*
X102466612Y-27538388D01*
X102485554Y-27553934D01*
X102507165Y-27565485D01*
X102530000Y-27572412D01*
X102530000Y-29575000D01*
X101130000Y-29575000D01*
X101130000Y-23715000D01*
X102430000Y-23715000D01*
X102430000Y-27450000D01*
X102430000Y-27450000D01*
G37*
G36*
X110050000Y-27450000D02*
X110052402Y-27474386D01*
X110059515Y-27497835D01*
X110071066Y-27519446D01*
X110086612Y-27538388D01*
X110105554Y-27553934D01*
X110127165Y-27565485D01*
X110150000Y-27572412D01*
X110150000Y-29575000D01*
X108750000Y-29575000D01*
X108750000Y-23715000D01*
X110050000Y-23715000D01*
X110050000Y-27450000D01*
X110050000Y-27450000D01*
G37*
G36*
X107150000Y-29575000D02*
X105750000Y-29575000D01*
X105750000Y-27572412D01*
X105772835Y-27565485D01*
X105794446Y-27553934D01*
X105813388Y-27538388D01*
X105828934Y-27519446D01*
X105840485Y-27497835D01*
X105847598Y-27474386D01*
X105850000Y-27450000D01*
X105850000Y-23715000D01*
X107150000Y-23715000D01*
X107150000Y-29575000D01*
X107150000Y-29575000D01*
G37*
G36*
X117670000Y-27450000D02*
X117672402Y-27474386D01*
X117679515Y-27497835D01*
X117691066Y-27519446D01*
X117706612Y-27538388D01*
X117725554Y-27553934D01*
X117747165Y-27565485D01*
X117770000Y-27572412D01*
X117770000Y-29575000D01*
X116370000Y-29575000D01*
X116370000Y-23715000D01*
X117670000Y-23715000D01*
X117670000Y-27450000D01*
X117670000Y-27450000D01*
G37*
G36*
X114770000Y-29575000D02*
X113370000Y-29575000D01*
X113370000Y-27572412D01*
X113392835Y-27565485D01*
X113414446Y-27553934D01*
X113433388Y-27538388D01*
X113448934Y-27519446D01*
X113460485Y-27497835D01*
X113467598Y-27474386D01*
X113470000Y-27450000D01*
X113470000Y-23715000D01*
X114770000Y-23715000D01*
X114770000Y-29575000D01*
X114770000Y-29575000D01*
G37*
G36*
X99530000Y-29575000D02*
X98130000Y-29575000D01*
X98130000Y-27572412D01*
X98152835Y-27565485D01*
X98174446Y-27553934D01*
X98193388Y-27538388D01*
X98208934Y-27519446D01*
X98220485Y-27497835D01*
X98227598Y-27474386D01*
X98230000Y-27450000D01*
X98230000Y-23715000D01*
X99530000Y-23715000D01*
X99530000Y-29575000D01*
X99530000Y-29575000D01*
G37*
G36*
X73796500Y-29029000D02*
X72253500Y-29029000D01*
X72253500Y-28121000D01*
X73796500Y-28121000D01*
X73796500Y-29029000D01*
X73796500Y-29029000D01*
G37*
G36*
X94116500Y-29029000D02*
X92573500Y-29029000D01*
X92573500Y-28121000D01*
X94116500Y-28121000D01*
X94116500Y-29029000D01*
X94116500Y-29029000D01*
G37*
G36*
X87766500Y-29029000D02*
X86223500Y-29029000D01*
X86223500Y-28121000D01*
X87766500Y-28121000D01*
X87766500Y-29029000D01*
X87766500Y-29029000D01*
G37*
G36*
X83956500Y-29029000D02*
X82413500Y-29029000D01*
X82413500Y-28121000D01*
X83956500Y-28121000D01*
X83956500Y-29029000D01*
X83956500Y-29029000D01*
G37*
G36*
X77606500Y-29029000D02*
X76063500Y-29029000D01*
X76063500Y-28121000D01*
X77606500Y-28121000D01*
X77606500Y-29029000D01*
X77606500Y-29029000D01*
G37*
G36*
X67446500Y-29029000D02*
X65903500Y-29029000D01*
X65903500Y-28121000D01*
X67446500Y-28121000D01*
X67446500Y-29029000D01*
X67446500Y-29029000D01*
G37*
G36*
X57286500Y-29029000D02*
X55743500Y-29029000D01*
X55743500Y-28121000D01*
X57286500Y-28121000D01*
X57286500Y-29029000D01*
X57286500Y-29029000D01*
G37*
G36*
X63636500Y-29029000D02*
X62093500Y-29029000D01*
X62093500Y-28121000D01*
X63636500Y-28121000D01*
X63636500Y-29029000D01*
X63636500Y-29029000D01*
G37*
G36*
X41182000Y-28410000D02*
X39082000Y-28410000D01*
X39082000Y-27110000D01*
X41182000Y-27110000D01*
X41182000Y-28410000D01*
X41182000Y-28410000D01*
G37*
G36*
X68995000Y-26865000D02*
X64990000Y-26865000D01*
X64990000Y-25565000D01*
X68995000Y-25565000D01*
X68995000Y-26865000D01*
X68995000Y-26865000D01*
G37*
G36*
X74710000Y-26865000D02*
X70705000Y-26865000D01*
X70705000Y-25565000D01*
X74710000Y-25565000D01*
X74710000Y-26865000D01*
X74710000Y-26865000D01*
G37*
G36*
X84870000Y-26865000D02*
X80865000Y-26865000D01*
X80865000Y-25565000D01*
X84870000Y-25565000D01*
X84870000Y-26865000D01*
X84870000Y-26865000D01*
G37*
G36*
X79155000Y-26865000D02*
X75150000Y-26865000D01*
X75150000Y-25565000D01*
X79155000Y-25565000D01*
X79155000Y-26865000D01*
X79155000Y-26865000D01*
G37*
G36*
X95030000Y-26865000D02*
X91025000Y-26865000D01*
X91025000Y-25565000D01*
X95030000Y-25565000D01*
X95030000Y-26865000D01*
X95030000Y-26865000D01*
G37*
G36*
X89315000Y-26865000D02*
X85310000Y-26865000D01*
X85310000Y-25565000D01*
X89315000Y-25565000D01*
X89315000Y-26865000D01*
X89315000Y-26865000D01*
G37*
G36*
X64550000Y-26865000D02*
X60545000Y-26865000D01*
X60545000Y-25565000D01*
X64550000Y-25565000D01*
X64550000Y-26865000D01*
X64550000Y-26865000D01*
G37*
G36*
X58835000Y-26865000D02*
X54830000Y-26865000D01*
X54830000Y-25565000D01*
X58835000Y-25565000D01*
X58835000Y-26865000D01*
X58835000Y-26865000D01*
G37*
G36*
X41182000Y-26484000D02*
X39082000Y-26484000D01*
X39082000Y-25184000D01*
X41182000Y-25184000D01*
X41182000Y-26484000D01*
X41182000Y-26484000D01*
G37*
G36*
X122045196Y-22752958D02*
X122281780Y-22850954D01*
X122494705Y-22993226D01*
X122675774Y-23174295D01*
X122818046Y-23387220D01*
X122916042Y-23623804D01*
X122966000Y-23874960D01*
X122966000Y-24131040D01*
X122916042Y-24382196D01*
X122818046Y-24618780D01*
X122675774Y-24831705D01*
X122494705Y-25012774D01*
X122281780Y-25155046D01*
X122045196Y-25253042D01*
X121794040Y-25303000D01*
X121537960Y-25303000D01*
X121286804Y-25253042D01*
X121050220Y-25155046D01*
X120837295Y-25012774D01*
X120656226Y-24831705D01*
X120513954Y-24618780D01*
X120415958Y-24382196D01*
X120366000Y-24131040D01*
X120366000Y-23874960D01*
X120415958Y-23623804D01*
X120513954Y-23387220D01*
X120656226Y-23174295D01*
X120837295Y-22993226D01*
X121050220Y-22850954D01*
X121286804Y-22752958D01*
X121537960Y-22703000D01*
X121794040Y-22703000D01*
X122045196Y-22752958D01*
X122045196Y-22752958D01*
G37*
G36*
X89315000Y-23965000D02*
X85310000Y-23965000D01*
X85310000Y-22665000D01*
X89315000Y-22665000D01*
X89315000Y-23965000D01*
X89315000Y-23965000D01*
G37*
G36*
X68995000Y-23965000D02*
X64990000Y-23965000D01*
X64990000Y-22665000D01*
X68995000Y-22665000D01*
X68995000Y-23965000D01*
X68995000Y-23965000D01*
G37*
G36*
X74710000Y-23965000D02*
X70705000Y-23965000D01*
X70705000Y-22665000D01*
X74710000Y-22665000D01*
X74710000Y-23965000D01*
X74710000Y-23965000D01*
G37*
G36*
X58835000Y-23965000D02*
X54830000Y-23965000D01*
X54830000Y-22665000D01*
X58835000Y-22665000D01*
X58835000Y-23965000D01*
X58835000Y-23965000D01*
G37*
G36*
X64550000Y-23965000D02*
X60545000Y-23965000D01*
X60545000Y-22665000D01*
X64550000Y-22665000D01*
X64550000Y-23965000D01*
X64550000Y-23965000D01*
G37*
G36*
X79155000Y-23965000D02*
X75150000Y-23965000D01*
X75150000Y-22665000D01*
X79155000Y-22665000D01*
X79155000Y-23965000D01*
X79155000Y-23965000D01*
G37*
G36*
X84870000Y-23965000D02*
X80865000Y-23965000D01*
X80865000Y-22665000D01*
X84870000Y-22665000D01*
X84870000Y-23965000D01*
X84870000Y-23965000D01*
G37*
G36*
X95030000Y-23965000D02*
X91025000Y-23965000D01*
X91025000Y-22665000D01*
X95030000Y-22665000D01*
X95030000Y-23965000D01*
X95030000Y-23965000D01*
G37*
G36*
X37760000Y-23860000D02*
X36360000Y-23860000D01*
X36360000Y-21860000D01*
X37760000Y-21860000D01*
X37760000Y-23860000D01*
X37760000Y-23860000D01*
G37*
G36*
X34760000Y-23860000D02*
X33360000Y-23860000D01*
X33360000Y-21860000D01*
X34760000Y-21860000D01*
X34760000Y-23860000D01*
X34760000Y-23860000D01*
G37*
G36*
X41182000Y-23584000D02*
X39082000Y-23584000D01*
X39082000Y-22284000D01*
X41182000Y-22284000D01*
X41182000Y-23584000D01*
X41182000Y-23584000D01*
G37*
M02*
