G04 #@! TF.FileFunction,Legend,Top*
%FSLAX46Y46*%
G04 Gerber Fmt 4.6, Leading zero omitted, Abs format (unit mm)*
G04 Created by KiCad (PCBNEW 4.0.5+dfsg1-4) date Sat Sep 22 09:12:03 2018*
%MOMM*%
%LPD*%
G01*
G04 APERTURE LIST*
%ADD10C,0.100000*%
%ADD11C,0.300000*%
%ADD12C,0.150000*%
%ADD13C,0.010000*%
G04 APERTURE END LIST*
D10*
D11*
X38549429Y-24036571D02*
X38549429Y-23036571D01*
X38549429Y-22536571D02*
X38478000Y-22608000D01*
X38549429Y-22679429D01*
X38620857Y-22608000D01*
X38549429Y-22536571D01*
X38549429Y-22679429D01*
X39192286Y-22679429D02*
X39263715Y-22608000D01*
X39406572Y-22536571D01*
X39763715Y-22536571D01*
X39906572Y-22608000D01*
X39978001Y-22679429D01*
X40049429Y-22822286D01*
X40049429Y-22965143D01*
X39978001Y-23179429D01*
X39120858Y-24036571D01*
X40049429Y-24036571D01*
X41335143Y-23965143D02*
X41192286Y-24036571D01*
X40906572Y-24036571D01*
X40763714Y-23965143D01*
X40692286Y-23893714D01*
X40620857Y-23750857D01*
X40620857Y-23322286D01*
X40692286Y-23179429D01*
X40763714Y-23108000D01*
X40906572Y-23036571D01*
X41192286Y-23036571D01*
X41335143Y-23108000D01*
X42906571Y-23036571D02*
X43478000Y-23036571D01*
X43120857Y-24036571D02*
X43120857Y-22750857D01*
X43192285Y-22608000D01*
X43335143Y-22536571D01*
X43478000Y-22536571D01*
X43978000Y-24036571D02*
X43978000Y-23036571D01*
X43978000Y-23322286D02*
X44049428Y-23179429D01*
X44120857Y-23108000D01*
X44263714Y-23036571D01*
X44406571Y-23036571D01*
X45120857Y-24036571D02*
X44977999Y-23965143D01*
X44906571Y-23893714D01*
X44835142Y-23750857D01*
X44835142Y-23322286D01*
X44906571Y-23179429D01*
X44977999Y-23108000D01*
X45120857Y-23036571D01*
X45335142Y-23036571D01*
X45477999Y-23108000D01*
X45549428Y-23179429D01*
X45620857Y-23322286D01*
X45620857Y-23750857D01*
X45549428Y-23893714D01*
X45477999Y-23965143D01*
X45335142Y-24036571D01*
X45120857Y-24036571D01*
X46263714Y-23036571D02*
X46263714Y-24036571D01*
X46263714Y-23179429D02*
X46335142Y-23108000D01*
X46478000Y-23036571D01*
X46692285Y-23036571D01*
X46835142Y-23108000D01*
X46906571Y-23250857D01*
X46906571Y-24036571D01*
X47406571Y-23036571D02*
X47978000Y-23036571D01*
X47620857Y-22536571D02*
X47620857Y-23822286D01*
X47692285Y-23965143D01*
X47835143Y-24036571D01*
X47978000Y-24036571D01*
X48478000Y-23036571D02*
X48478000Y-24536571D01*
X48478000Y-23108000D02*
X48620857Y-23036571D01*
X48906571Y-23036571D01*
X49049428Y-23108000D01*
X49120857Y-23179429D01*
X49192286Y-23322286D01*
X49192286Y-23750857D01*
X49120857Y-23893714D01*
X49049428Y-23965143D01*
X48906571Y-24036571D01*
X48620857Y-24036571D01*
X48478000Y-23965143D01*
X50478000Y-24036571D02*
X50478000Y-23250857D01*
X50406571Y-23108000D01*
X50263714Y-23036571D01*
X49978000Y-23036571D01*
X49835143Y-23108000D01*
X50478000Y-23965143D02*
X50335143Y-24036571D01*
X49978000Y-24036571D01*
X49835143Y-23965143D01*
X49763714Y-23822286D01*
X49763714Y-23679429D01*
X49835143Y-23536571D01*
X49978000Y-23465143D01*
X50335143Y-23465143D01*
X50478000Y-23393714D01*
X51192286Y-23036571D02*
X51192286Y-24036571D01*
X51192286Y-23179429D02*
X51263714Y-23108000D01*
X51406572Y-23036571D01*
X51620857Y-23036571D01*
X51763714Y-23108000D01*
X51835143Y-23250857D01*
X51835143Y-24036571D01*
X53120857Y-23965143D02*
X52978000Y-24036571D01*
X52692286Y-24036571D01*
X52549429Y-23965143D01*
X52478000Y-23822286D01*
X52478000Y-23250857D01*
X52549429Y-23108000D01*
X52692286Y-23036571D01*
X52978000Y-23036571D01*
X53120857Y-23108000D01*
X53192286Y-23250857D01*
X53192286Y-23393714D01*
X52478000Y-23536571D01*
X54049429Y-24036571D02*
X53906571Y-23965143D01*
X53835143Y-23822286D01*
X53835143Y-22536571D01*
X40192286Y-25586571D02*
X40192286Y-26586571D01*
X39835143Y-25015143D02*
X39478000Y-26086571D01*
X40406572Y-26086571D01*
X40835143Y-26586571D02*
X41620857Y-25586571D01*
X40835143Y-25586571D02*
X41620857Y-26586571D01*
X42049429Y-25086571D02*
X43049429Y-25086571D01*
X42406572Y-26586571D01*
X43549428Y-26515143D02*
X43692285Y-26586571D01*
X43978000Y-26586571D01*
X44120857Y-26515143D01*
X44192285Y-26372286D01*
X44192285Y-26300857D01*
X44120857Y-26158000D01*
X43978000Y-26086571D01*
X43763714Y-26086571D01*
X43620857Y-26015143D01*
X43549428Y-25872286D01*
X43549428Y-25800857D01*
X43620857Y-25658000D01*
X43763714Y-25586571D01*
X43978000Y-25586571D01*
X44120857Y-25658000D01*
X45406571Y-26515143D02*
X45263714Y-26586571D01*
X44978000Y-26586571D01*
X44835143Y-26515143D01*
X44763714Y-26372286D01*
X44763714Y-25800857D01*
X44835143Y-25658000D01*
X44978000Y-25586571D01*
X45263714Y-25586571D01*
X45406571Y-25658000D01*
X45478000Y-25800857D01*
X45478000Y-25943714D01*
X44763714Y-26086571D01*
X46763714Y-25586571D02*
X46763714Y-26800857D01*
X46692285Y-26943714D01*
X46620857Y-27015143D01*
X46478000Y-27086571D01*
X46263714Y-27086571D01*
X46120857Y-27015143D01*
X46763714Y-26515143D02*
X46620857Y-26586571D01*
X46335143Y-26586571D01*
X46192285Y-26515143D01*
X46120857Y-26443714D01*
X46049428Y-26300857D01*
X46049428Y-25872286D01*
X46120857Y-25729429D01*
X46192285Y-25658000D01*
X46335143Y-25586571D01*
X46620857Y-25586571D01*
X46763714Y-25658000D01*
X47120857Y-26729429D02*
X48263714Y-26729429D01*
X49263714Y-25086571D02*
X48978000Y-25086571D01*
X48835143Y-25158000D01*
X48763714Y-25229429D01*
X48620857Y-25443714D01*
X48549428Y-25729429D01*
X48549428Y-26300857D01*
X48620857Y-26443714D01*
X48692285Y-26515143D01*
X48835143Y-26586571D01*
X49120857Y-26586571D01*
X49263714Y-26515143D01*
X49335143Y-26443714D01*
X49406571Y-26300857D01*
X49406571Y-25943714D01*
X49335143Y-25800857D01*
X49263714Y-25729429D01*
X49120857Y-25658000D01*
X48835143Y-25658000D01*
X48692285Y-25729429D01*
X48620857Y-25800857D01*
X48549428Y-25943714D01*
X50049428Y-26586571D02*
X50049428Y-25086571D01*
X50049428Y-25658000D02*
X50192285Y-25586571D01*
X50477999Y-25586571D01*
X50620856Y-25658000D01*
X50692285Y-25729429D01*
X50763714Y-25872286D01*
X50763714Y-26300857D01*
X50692285Y-26443714D01*
X50620856Y-26515143D01*
X50477999Y-26586571D01*
X50192285Y-26586571D01*
X50049428Y-26515143D01*
X51192285Y-25586571D02*
X51763714Y-25586571D01*
X51406571Y-25086571D02*
X51406571Y-26372286D01*
X51477999Y-26515143D01*
X51620857Y-26586571D01*
X51763714Y-26586571D01*
X52263714Y-25586571D02*
X52263714Y-26586571D01*
X52263714Y-25729429D02*
X52335142Y-25658000D01*
X52478000Y-25586571D01*
X52692285Y-25586571D01*
X52835142Y-25658000D01*
X52906571Y-25800857D01*
X52906571Y-26586571D01*
X39870858Y-28136571D02*
X40228001Y-29136571D01*
X40585143Y-28136571D01*
X41942286Y-29136571D02*
X41085143Y-29136571D01*
X41513715Y-29136571D02*
X41513715Y-27636571D01*
X41370858Y-27850857D01*
X41228000Y-27993714D01*
X41085143Y-28065143D01*
X42585143Y-28993714D02*
X42656571Y-29065143D01*
X42585143Y-29136571D01*
X42513714Y-29065143D01*
X42585143Y-28993714D01*
X42585143Y-29136571D01*
X43585143Y-27636571D02*
X43728000Y-27636571D01*
X43870857Y-27708000D01*
X43942286Y-27779429D01*
X44013715Y-27922286D01*
X44085143Y-28208000D01*
X44085143Y-28565143D01*
X44013715Y-28850857D01*
X43942286Y-28993714D01*
X43870857Y-29065143D01*
X43728000Y-29136571D01*
X43585143Y-29136571D01*
X43442286Y-29065143D01*
X43370857Y-28993714D01*
X43299429Y-28850857D01*
X43228000Y-28565143D01*
X43228000Y-28208000D01*
X43299429Y-27922286D01*
X43370857Y-27779429D01*
X43442286Y-27708000D01*
X43585143Y-27636571D01*
X45870857Y-28565143D02*
X47013714Y-28565143D01*
X48870857Y-29136571D02*
X48870857Y-27636571D01*
X49228000Y-27636571D01*
X49442285Y-27708000D01*
X49585143Y-27850857D01*
X49656571Y-27993714D01*
X49728000Y-28279429D01*
X49728000Y-28493714D01*
X49656571Y-28779429D01*
X49585143Y-28922286D01*
X49442285Y-29065143D01*
X49228000Y-29136571D01*
X48870857Y-29136571D01*
X50156571Y-27636571D02*
X50656571Y-29136571D01*
X51156571Y-27636571D01*
X52513714Y-29136571D02*
X52013714Y-28422286D01*
X51656571Y-29136571D02*
X51656571Y-27636571D01*
X52227999Y-27636571D01*
X52370857Y-27708000D01*
X52442285Y-27779429D01*
X52513714Y-27922286D01*
X52513714Y-28136571D01*
X52442285Y-28279429D01*
X52370857Y-28350857D01*
X52227999Y-28422286D01*
X51656571Y-28422286D01*
D12*
X94670000Y-38020000D02*
G75*
G03X94670000Y-38020000I-500000J0D01*
G01*
X93170000Y-37020000D02*
X93170000Y-34020000D01*
X88170000Y-38020000D02*
X92170000Y-38020000D01*
X87170000Y-34020000D02*
X87170000Y-37020000D01*
X88170000Y-33020000D02*
X92170000Y-33020000D01*
X93170000Y-29020000D02*
X93170000Y-32020000D01*
X87170000Y-29020000D02*
X87170000Y-32020000D01*
X88170000Y-28020000D02*
X92170000Y-28020000D01*
X85170000Y-27020000D02*
X85170000Y-39020000D01*
X85170000Y-39020000D02*
X95170000Y-39020000D01*
X95170000Y-39020000D02*
X95170000Y-27020000D01*
X95170000Y-27020000D02*
X85170000Y-27020000D01*
X84510000Y-38020000D02*
G75*
G03X84510000Y-38020000I-500000J0D01*
G01*
X83010000Y-37020000D02*
X83010000Y-34020000D01*
X78010000Y-38020000D02*
X82010000Y-38020000D01*
X77010000Y-34020000D02*
X77010000Y-37020000D01*
X78010000Y-33020000D02*
X82010000Y-33020000D01*
X83010000Y-29020000D02*
X83010000Y-32020000D01*
X77010000Y-29020000D02*
X77010000Y-32020000D01*
X78010000Y-28020000D02*
X82010000Y-28020000D01*
X75010000Y-27020000D02*
X75010000Y-39020000D01*
X75010000Y-39020000D02*
X85010000Y-39020000D01*
X85010000Y-39020000D02*
X85010000Y-27020000D01*
X85010000Y-27020000D02*
X75010000Y-27020000D01*
X74350000Y-38020000D02*
G75*
G03X74350000Y-38020000I-500000J0D01*
G01*
X72850000Y-37020000D02*
X72850000Y-34020000D01*
X67850000Y-38020000D02*
X71850000Y-38020000D01*
X66850000Y-34020000D02*
X66850000Y-37020000D01*
X67850000Y-33020000D02*
X71850000Y-33020000D01*
X72850000Y-29020000D02*
X72850000Y-32020000D01*
X66850000Y-29020000D02*
X66850000Y-32020000D01*
X67850000Y-28020000D02*
X71850000Y-28020000D01*
X64850000Y-27020000D02*
X64850000Y-39020000D01*
X64850000Y-39020000D02*
X74850000Y-39020000D01*
X74850000Y-39020000D02*
X74850000Y-27020000D01*
X74850000Y-27020000D02*
X64850000Y-27020000D01*
X64190000Y-38020000D02*
G75*
G03X64190000Y-38020000I-500000J0D01*
G01*
X62690000Y-37020000D02*
X62690000Y-34020000D01*
X57690000Y-38020000D02*
X61690000Y-38020000D01*
X56690000Y-34020000D02*
X56690000Y-37020000D01*
X57690000Y-33020000D02*
X61690000Y-33020000D01*
X62690000Y-29020000D02*
X62690000Y-32020000D01*
X56690000Y-29020000D02*
X56690000Y-32020000D01*
X57690000Y-28020000D02*
X61690000Y-28020000D01*
X54690000Y-27020000D02*
X54690000Y-39020000D01*
X54690000Y-39020000D02*
X64690000Y-39020000D01*
X64690000Y-39020000D02*
X64690000Y-27020000D01*
X64690000Y-27020000D02*
X54690000Y-27020000D01*
X45965000Y-38701000D02*
X42365000Y-38701000D01*
X45965000Y-40801000D02*
X42365000Y-40801000D01*
X43915000Y-40051000D02*
X43915000Y-39451000D01*
X43915000Y-39451000D02*
X44215000Y-39751000D01*
X44215000Y-39751000D02*
X44015000Y-39951000D01*
X44015000Y-39951000D02*
X44015000Y-39701000D01*
X44015000Y-39701000D02*
X44065000Y-39751000D01*
X44315000Y-40251000D02*
X44315000Y-39251000D01*
X43815000Y-39751000D02*
X43315000Y-39751000D01*
X44315000Y-39751000D02*
X43815000Y-40251000D01*
X43815000Y-40251000D02*
X43815000Y-39251000D01*
X43815000Y-39251000D02*
X44315000Y-39751000D01*
X45965000Y-41622000D02*
X42365000Y-41622000D01*
X45965000Y-43722000D02*
X42365000Y-43722000D01*
X43915000Y-42972000D02*
X43915000Y-42372000D01*
X43915000Y-42372000D02*
X44215000Y-42672000D01*
X44215000Y-42672000D02*
X44015000Y-42872000D01*
X44015000Y-42872000D02*
X44015000Y-42622000D01*
X44015000Y-42622000D02*
X44065000Y-42672000D01*
X44315000Y-43172000D02*
X44315000Y-42172000D01*
X43815000Y-42672000D02*
X43315000Y-42672000D01*
X44315000Y-42672000D02*
X43815000Y-43172000D01*
X43815000Y-43172000D02*
X43815000Y-42172000D01*
X43815000Y-42172000D02*
X44315000Y-42672000D01*
X51578000Y-38930000D02*
X53578000Y-38930000D01*
X53578000Y-41080000D02*
X51578000Y-41080000D01*
X51578000Y-41470000D02*
X53578000Y-41470000D01*
X53578000Y-43620000D02*
X51578000Y-43620000D01*
X42688000Y-36009000D02*
X44688000Y-36009000D01*
X44688000Y-38159000D02*
X42688000Y-38159000D01*
X42688000Y-33469000D02*
X44688000Y-33469000D01*
X44688000Y-35619000D02*
X42688000Y-35619000D01*
X102870000Y-31242000D02*
X102870000Y-27178000D01*
X97790000Y-31242000D02*
X97790000Y-27178000D01*
X110490000Y-31242000D02*
X110490000Y-27178000D01*
X105410000Y-31242000D02*
X105410000Y-27178000D01*
X118110000Y-31242000D02*
X118110000Y-27178000D01*
X113030000Y-31242000D02*
X113030000Y-27178000D01*
X113030000Y-37338000D02*
X113030000Y-41402000D01*
X118110000Y-37338000D02*
X118110000Y-41402000D01*
X105410000Y-37338000D02*
X105410000Y-41402000D01*
X110490000Y-37338000D02*
X110490000Y-41402000D01*
X97790000Y-37338000D02*
X97790000Y-41402000D01*
X102870000Y-37338000D02*
X102870000Y-41402000D01*
X121285000Y-32258000D02*
X121285000Y-39878000D01*
X123825000Y-32258000D02*
X123825000Y-39878000D01*
X124105000Y-29438000D02*
X124105000Y-30988000D01*
X121285000Y-39878000D02*
X123825000Y-39878000D01*
X123825000Y-32258000D02*
X121285000Y-32258000D01*
X121005000Y-30988000D02*
X121005000Y-29438000D01*
X121005000Y-29438000D02*
X124105000Y-29438000D01*
X33782000Y-32258000D02*
X33782000Y-39878000D01*
X36322000Y-32258000D02*
X36322000Y-39878000D01*
X36602000Y-29438000D02*
X36602000Y-30988000D01*
X33782000Y-39878000D02*
X36322000Y-39878000D01*
X36322000Y-32258000D02*
X33782000Y-32258000D01*
X33502000Y-30988000D02*
X33502000Y-29438000D01*
X33502000Y-29438000D02*
X36602000Y-29438000D01*
D13*
G36*
X47494241Y-35124184D02*
X47520753Y-35137282D01*
X47553447Y-35160106D01*
X47577275Y-35184996D01*
X47593594Y-35216249D01*
X47603760Y-35258166D01*
X47609128Y-35315044D01*
X47611056Y-35391184D01*
X47611169Y-35423917D01*
X47610839Y-35495656D01*
X47609473Y-35546927D01*
X47606500Y-35582404D01*
X47601351Y-35606763D01*
X47593457Y-35624680D01*
X47585243Y-35636902D01*
X47532813Y-35688905D01*
X47471070Y-35720184D01*
X47404464Y-35729592D01*
X47337442Y-35715980D01*
X47316208Y-35706354D01*
X47265376Y-35679859D01*
X47265376Y-36095052D01*
X47302475Y-36075868D01*
X47351357Y-36061025D01*
X47411439Y-36057222D01*
X47471436Y-36064243D01*
X47516744Y-36080013D01*
X47554325Y-36110047D01*
X47586436Y-36153024D01*
X47588850Y-36157436D01*
X47599033Y-36178221D01*
X47606470Y-36199170D01*
X47611589Y-36224548D01*
X47614819Y-36258618D01*
X47616587Y-36305641D01*
X47617323Y-36369882D01*
X47617456Y-36442176D01*
X47617456Y-36672822D01*
X47479139Y-36672822D01*
X47479139Y-36247533D01*
X47440451Y-36214979D01*
X47400262Y-36188940D01*
X47362203Y-36184205D01*
X47323934Y-36196389D01*
X47303538Y-36208320D01*
X47288358Y-36225313D01*
X47277562Y-36250995D01*
X47270317Y-36288991D01*
X47265792Y-36342926D01*
X47263156Y-36416425D01*
X47262228Y-36465347D01*
X47259089Y-36666535D01*
X47193074Y-36670336D01*
X47127060Y-36674136D01*
X47127060Y-35425650D01*
X47265376Y-35425650D01*
X47268903Y-35495254D01*
X47280785Y-35543569D01*
X47302980Y-35573631D01*
X47337441Y-35588471D01*
X47372258Y-35591436D01*
X47411671Y-35588028D01*
X47437829Y-35574617D01*
X47454186Y-35556896D01*
X47467063Y-35537835D01*
X47474728Y-35516601D01*
X47478139Y-35486849D01*
X47478251Y-35442236D01*
X47477103Y-35404880D01*
X47474468Y-35348604D01*
X47470544Y-35311658D01*
X47463937Y-35288223D01*
X47453251Y-35272480D01*
X47443167Y-35263380D01*
X47401030Y-35243537D01*
X47351160Y-35240332D01*
X47322524Y-35247168D01*
X47294172Y-35271464D01*
X47275391Y-35318728D01*
X47266288Y-35388624D01*
X47265376Y-35425650D01*
X47127060Y-35425650D01*
X47127060Y-35113614D01*
X47196218Y-35113614D01*
X47237740Y-35115256D01*
X47259162Y-35121087D01*
X47265374Y-35132461D01*
X47265376Y-35132798D01*
X47268258Y-35143938D01*
X47280970Y-35142673D01*
X47306243Y-35130433D01*
X47365131Y-35111707D01*
X47431385Y-35109739D01*
X47494241Y-35124184D01*
X47494241Y-35124184D01*
G37*
X47494241Y-35124184D02*
X47520753Y-35137282D01*
X47553447Y-35160106D01*
X47577275Y-35184996D01*
X47593594Y-35216249D01*
X47603760Y-35258166D01*
X47609128Y-35315044D01*
X47611056Y-35391184D01*
X47611169Y-35423917D01*
X47610839Y-35495656D01*
X47609473Y-35546927D01*
X47606500Y-35582404D01*
X47601351Y-35606763D01*
X47593457Y-35624680D01*
X47585243Y-35636902D01*
X47532813Y-35688905D01*
X47471070Y-35720184D01*
X47404464Y-35729592D01*
X47337442Y-35715980D01*
X47316208Y-35706354D01*
X47265376Y-35679859D01*
X47265376Y-36095052D01*
X47302475Y-36075868D01*
X47351357Y-36061025D01*
X47411439Y-36057222D01*
X47471436Y-36064243D01*
X47516744Y-36080013D01*
X47554325Y-36110047D01*
X47586436Y-36153024D01*
X47588850Y-36157436D01*
X47599033Y-36178221D01*
X47606470Y-36199170D01*
X47611589Y-36224548D01*
X47614819Y-36258618D01*
X47616587Y-36305641D01*
X47617323Y-36369882D01*
X47617456Y-36442176D01*
X47617456Y-36672822D01*
X47479139Y-36672822D01*
X47479139Y-36247533D01*
X47440451Y-36214979D01*
X47400262Y-36188940D01*
X47362203Y-36184205D01*
X47323934Y-36196389D01*
X47303538Y-36208320D01*
X47288358Y-36225313D01*
X47277562Y-36250995D01*
X47270317Y-36288991D01*
X47265792Y-36342926D01*
X47263156Y-36416425D01*
X47262228Y-36465347D01*
X47259089Y-36666535D01*
X47193074Y-36670336D01*
X47127060Y-36674136D01*
X47127060Y-35425650D01*
X47265376Y-35425650D01*
X47268903Y-35495254D01*
X47280785Y-35543569D01*
X47302980Y-35573631D01*
X47337441Y-35588471D01*
X47372258Y-35591436D01*
X47411671Y-35588028D01*
X47437829Y-35574617D01*
X47454186Y-35556896D01*
X47467063Y-35537835D01*
X47474728Y-35516601D01*
X47478139Y-35486849D01*
X47478251Y-35442236D01*
X47477103Y-35404880D01*
X47474468Y-35348604D01*
X47470544Y-35311658D01*
X47463937Y-35288223D01*
X47453251Y-35272480D01*
X47443167Y-35263380D01*
X47401030Y-35243537D01*
X47351160Y-35240332D01*
X47322524Y-35247168D01*
X47294172Y-35271464D01*
X47275391Y-35318728D01*
X47266288Y-35388624D01*
X47265376Y-35425650D01*
X47127060Y-35425650D01*
X47127060Y-35113614D01*
X47196218Y-35113614D01*
X47237740Y-35115256D01*
X47259162Y-35121087D01*
X47265374Y-35132461D01*
X47265376Y-35132798D01*
X47268258Y-35143938D01*
X47280970Y-35142673D01*
X47306243Y-35130433D01*
X47365131Y-35111707D01*
X47431385Y-35109739D01*
X47494241Y-35124184D01*
G36*
X48018790Y-36061555D02*
X48077945Y-36077339D01*
X48122977Y-36105948D01*
X48154754Y-36143419D01*
X48164634Y-36159411D01*
X48171927Y-36176163D01*
X48177026Y-36197592D01*
X48180321Y-36227616D01*
X48182203Y-36270154D01*
X48183063Y-36329122D01*
X48183293Y-36408440D01*
X48183297Y-36429484D01*
X48183297Y-36672822D01*
X48122941Y-36672822D01*
X48084443Y-36670126D01*
X48055977Y-36663295D01*
X48048845Y-36659083D01*
X48029348Y-36651813D01*
X48009434Y-36659083D01*
X47976647Y-36668160D01*
X47929022Y-36671813D01*
X47876236Y-36670228D01*
X47827964Y-36663589D01*
X47799782Y-36655072D01*
X47745247Y-36620063D01*
X47711165Y-36571479D01*
X47695843Y-36506882D01*
X47695701Y-36505223D01*
X47697045Y-36476566D01*
X47818644Y-36476566D01*
X47829274Y-36509161D01*
X47846590Y-36527505D01*
X47881348Y-36541379D01*
X47927227Y-36546917D01*
X47974012Y-36544191D01*
X48011486Y-36533274D01*
X48021985Y-36526269D01*
X48040332Y-36493904D01*
X48044980Y-36457111D01*
X48044980Y-36408763D01*
X47975418Y-36408763D01*
X47909333Y-36413850D01*
X47859236Y-36428263D01*
X47828071Y-36450729D01*
X47818644Y-36476566D01*
X47697045Y-36476566D01*
X47699013Y-36434647D01*
X47722290Y-36378845D01*
X47766052Y-36336647D01*
X47772101Y-36332808D01*
X47798093Y-36320309D01*
X47830265Y-36312740D01*
X47875240Y-36309061D01*
X47928669Y-36308216D01*
X48044980Y-36308169D01*
X48044980Y-36259411D01*
X48040047Y-36221581D01*
X48027457Y-36196236D01*
X48025983Y-36194887D01*
X47997966Y-36183800D01*
X47955674Y-36179503D01*
X47908936Y-36181615D01*
X47867582Y-36189756D01*
X47843043Y-36201965D01*
X47829747Y-36211746D01*
X47815706Y-36213613D01*
X47796329Y-36205600D01*
X47767024Y-36185739D01*
X47723197Y-36152063D01*
X47719175Y-36148909D01*
X47721236Y-36137236D01*
X47738432Y-36117822D01*
X47764567Y-36096248D01*
X47793448Y-36078096D01*
X47802522Y-36073809D01*
X47835620Y-36065256D01*
X47884120Y-36059155D01*
X47938305Y-36056708D01*
X47940839Y-36056703D01*
X48018790Y-36061555D01*
X48018790Y-36061555D01*
G37*
X48018790Y-36061555D02*
X48077945Y-36077339D01*
X48122977Y-36105948D01*
X48154754Y-36143419D01*
X48164634Y-36159411D01*
X48171927Y-36176163D01*
X48177026Y-36197592D01*
X48180321Y-36227616D01*
X48182203Y-36270154D01*
X48183063Y-36329122D01*
X48183293Y-36408440D01*
X48183297Y-36429484D01*
X48183297Y-36672822D01*
X48122941Y-36672822D01*
X48084443Y-36670126D01*
X48055977Y-36663295D01*
X48048845Y-36659083D01*
X48029348Y-36651813D01*
X48009434Y-36659083D01*
X47976647Y-36668160D01*
X47929022Y-36671813D01*
X47876236Y-36670228D01*
X47827964Y-36663589D01*
X47799782Y-36655072D01*
X47745247Y-36620063D01*
X47711165Y-36571479D01*
X47695843Y-36506882D01*
X47695701Y-36505223D01*
X47697045Y-36476566D01*
X47818644Y-36476566D01*
X47829274Y-36509161D01*
X47846590Y-36527505D01*
X47881348Y-36541379D01*
X47927227Y-36546917D01*
X47974012Y-36544191D01*
X48011486Y-36533274D01*
X48021985Y-36526269D01*
X48040332Y-36493904D01*
X48044980Y-36457111D01*
X48044980Y-36408763D01*
X47975418Y-36408763D01*
X47909333Y-36413850D01*
X47859236Y-36428263D01*
X47828071Y-36450729D01*
X47818644Y-36476566D01*
X47697045Y-36476566D01*
X47699013Y-36434647D01*
X47722290Y-36378845D01*
X47766052Y-36336647D01*
X47772101Y-36332808D01*
X47798093Y-36320309D01*
X47830265Y-36312740D01*
X47875240Y-36309061D01*
X47928669Y-36308216D01*
X48044980Y-36308169D01*
X48044980Y-36259411D01*
X48040047Y-36221581D01*
X48027457Y-36196236D01*
X48025983Y-36194887D01*
X47997966Y-36183800D01*
X47955674Y-36179503D01*
X47908936Y-36181615D01*
X47867582Y-36189756D01*
X47843043Y-36201965D01*
X47829747Y-36211746D01*
X47815706Y-36213613D01*
X47796329Y-36205600D01*
X47767024Y-36185739D01*
X47723197Y-36152063D01*
X47719175Y-36148909D01*
X47721236Y-36137236D01*
X47738432Y-36117822D01*
X47764567Y-36096248D01*
X47793448Y-36078096D01*
X47802522Y-36073809D01*
X47835620Y-36065256D01*
X47884120Y-36059155D01*
X47938305Y-36056708D01*
X47940839Y-36056703D01*
X48018790Y-36061555D01*
G36*
X48409644Y-36058020D02*
X48428461Y-36063660D01*
X48434527Y-36076053D01*
X48434782Y-36081647D01*
X48435871Y-36097230D01*
X48443368Y-36099676D01*
X48463619Y-36088993D01*
X48475649Y-36081694D01*
X48513600Y-36066063D01*
X48558928Y-36058334D01*
X48606456Y-36057740D01*
X48651005Y-36063513D01*
X48687398Y-36074884D01*
X48710457Y-36091088D01*
X48715004Y-36111355D01*
X48712709Y-36116843D01*
X48695980Y-36139626D01*
X48670037Y-36167647D01*
X48665345Y-36172177D01*
X48640617Y-36193005D01*
X48619282Y-36199735D01*
X48589445Y-36195038D01*
X48577492Y-36191917D01*
X48540295Y-36184421D01*
X48514141Y-36187792D01*
X48492054Y-36199681D01*
X48471822Y-36215635D01*
X48456921Y-36235700D01*
X48446566Y-36263702D01*
X48439971Y-36303467D01*
X48436351Y-36358823D01*
X48434922Y-36433594D01*
X48434782Y-36478740D01*
X48434782Y-36672822D01*
X48309040Y-36672822D01*
X48309040Y-36056683D01*
X48371911Y-36056683D01*
X48409644Y-36058020D01*
X48409644Y-36058020D01*
G37*
X48409644Y-36058020D02*
X48428461Y-36063660D01*
X48434527Y-36076053D01*
X48434782Y-36081647D01*
X48435871Y-36097230D01*
X48443368Y-36099676D01*
X48463619Y-36088993D01*
X48475649Y-36081694D01*
X48513600Y-36066063D01*
X48558928Y-36058334D01*
X48606456Y-36057740D01*
X48651005Y-36063513D01*
X48687398Y-36074884D01*
X48710457Y-36091088D01*
X48715004Y-36111355D01*
X48712709Y-36116843D01*
X48695980Y-36139626D01*
X48670037Y-36167647D01*
X48665345Y-36172177D01*
X48640617Y-36193005D01*
X48619282Y-36199735D01*
X48589445Y-36195038D01*
X48577492Y-36191917D01*
X48540295Y-36184421D01*
X48514141Y-36187792D01*
X48492054Y-36199681D01*
X48471822Y-36215635D01*
X48456921Y-36235700D01*
X48446566Y-36263702D01*
X48439971Y-36303467D01*
X48436351Y-36358823D01*
X48434922Y-36433594D01*
X48434782Y-36478740D01*
X48434782Y-36672822D01*
X48309040Y-36672822D01*
X48309040Y-36056683D01*
X48371911Y-36056683D01*
X48409644Y-36058020D01*
G36*
X49201812Y-36672822D02*
X49132654Y-36672822D01*
X49092512Y-36671645D01*
X49071606Y-36666772D01*
X49064078Y-36656186D01*
X49063495Y-36649029D01*
X49062226Y-36634676D01*
X49054221Y-36631923D01*
X49033185Y-36640771D01*
X49016827Y-36649029D01*
X48954023Y-36668597D01*
X48885752Y-36669729D01*
X48830248Y-36655135D01*
X48778562Y-36619877D01*
X48739162Y-36567835D01*
X48717587Y-36506450D01*
X48717038Y-36503018D01*
X48713833Y-36465571D01*
X48712239Y-36411813D01*
X48712367Y-36371155D01*
X48849721Y-36371155D01*
X48852903Y-36425194D01*
X48860141Y-36469735D01*
X48869940Y-36494888D01*
X48907011Y-36529260D01*
X48951026Y-36541582D01*
X48996416Y-36531618D01*
X49035203Y-36501895D01*
X49049892Y-36481905D01*
X49058481Y-36458050D01*
X49062504Y-36423230D01*
X49063495Y-36370930D01*
X49061722Y-36319139D01*
X49057037Y-36273634D01*
X49050397Y-36243181D01*
X49049290Y-36240452D01*
X49022509Y-36208000D01*
X48983421Y-36190183D01*
X48939685Y-36187306D01*
X48898962Y-36199674D01*
X48868913Y-36227593D01*
X48865796Y-36233148D01*
X48856039Y-36267022D01*
X48850723Y-36315728D01*
X48849721Y-36371155D01*
X48712367Y-36371155D01*
X48712432Y-36350540D01*
X48713336Y-36317563D01*
X48719486Y-36235981D01*
X48732267Y-36174730D01*
X48753529Y-36129449D01*
X48785122Y-36095779D01*
X48815793Y-36076014D01*
X48858646Y-36062120D01*
X48911944Y-36057354D01*
X48966520Y-36061236D01*
X49013208Y-36073282D01*
X49037876Y-36087693D01*
X49063495Y-36110878D01*
X49063495Y-35817773D01*
X49201812Y-35817773D01*
X49201812Y-36672822D01*
X49201812Y-36672822D01*
G37*
X49201812Y-36672822D02*
X49132654Y-36672822D01*
X49092512Y-36671645D01*
X49071606Y-36666772D01*
X49064078Y-36656186D01*
X49063495Y-36649029D01*
X49062226Y-36634676D01*
X49054221Y-36631923D01*
X49033185Y-36640771D01*
X49016827Y-36649029D01*
X48954023Y-36668597D01*
X48885752Y-36669729D01*
X48830248Y-36655135D01*
X48778562Y-36619877D01*
X48739162Y-36567835D01*
X48717587Y-36506450D01*
X48717038Y-36503018D01*
X48713833Y-36465571D01*
X48712239Y-36411813D01*
X48712367Y-36371155D01*
X48849721Y-36371155D01*
X48852903Y-36425194D01*
X48860141Y-36469735D01*
X48869940Y-36494888D01*
X48907011Y-36529260D01*
X48951026Y-36541582D01*
X48996416Y-36531618D01*
X49035203Y-36501895D01*
X49049892Y-36481905D01*
X49058481Y-36458050D01*
X49062504Y-36423230D01*
X49063495Y-36370930D01*
X49061722Y-36319139D01*
X49057037Y-36273634D01*
X49050397Y-36243181D01*
X49049290Y-36240452D01*
X49022509Y-36208000D01*
X48983421Y-36190183D01*
X48939685Y-36187306D01*
X48898962Y-36199674D01*
X48868913Y-36227593D01*
X48865796Y-36233148D01*
X48856039Y-36267022D01*
X48850723Y-36315728D01*
X48849721Y-36371155D01*
X48712367Y-36371155D01*
X48712432Y-36350540D01*
X48713336Y-36317563D01*
X48719486Y-36235981D01*
X48732267Y-36174730D01*
X48753529Y-36129449D01*
X48785122Y-36095779D01*
X48815793Y-36076014D01*
X48858646Y-36062120D01*
X48911944Y-36057354D01*
X48966520Y-36061236D01*
X49013208Y-36073282D01*
X49037876Y-36087693D01*
X49063495Y-36110878D01*
X49063495Y-35817773D01*
X49201812Y-35817773D01*
X49201812Y-36672822D01*
G36*
X49684524Y-36059237D02*
X49734255Y-36062971D01*
X49864291Y-36452773D01*
X49884678Y-36383614D01*
X49896946Y-36340874D01*
X49913085Y-36283115D01*
X49930512Y-36219625D01*
X49939726Y-36185570D01*
X49974388Y-36056683D01*
X50117391Y-36056683D01*
X50074646Y-36191857D01*
X50053596Y-36258342D01*
X50028167Y-36338539D01*
X50001610Y-36422193D01*
X49977902Y-36496782D01*
X49923902Y-36666535D01*
X49865598Y-36670328D01*
X49807295Y-36674122D01*
X49775679Y-36569734D01*
X49756182Y-36504889D01*
X49734904Y-36433400D01*
X49716308Y-36370263D01*
X49715574Y-36367750D01*
X49701684Y-36324969D01*
X49689429Y-36295779D01*
X49680846Y-36284741D01*
X49679082Y-36286018D01*
X49672891Y-36303130D01*
X49661128Y-36339787D01*
X49645225Y-36391378D01*
X49626614Y-36453294D01*
X49616543Y-36487352D01*
X49562007Y-36672822D01*
X49446264Y-36672822D01*
X49353737Y-36380471D01*
X49327744Y-36298462D01*
X49304066Y-36223987D01*
X49283820Y-36160544D01*
X49268126Y-36111632D01*
X49258102Y-36080749D01*
X49255055Y-36071726D01*
X49257467Y-36062487D01*
X49276408Y-36058441D01*
X49315823Y-36058846D01*
X49321993Y-36059152D01*
X49395086Y-36062971D01*
X49442957Y-36239010D01*
X49460553Y-36303211D01*
X49476277Y-36359649D01*
X49488746Y-36403422D01*
X49496574Y-36429630D01*
X49498020Y-36433903D01*
X49504014Y-36428990D01*
X49516101Y-36403532D01*
X49532893Y-36360997D01*
X49553003Y-36304850D01*
X49570003Y-36254130D01*
X49634794Y-36055504D01*
X49684524Y-36059237D01*
X49684524Y-36059237D01*
G37*
X49684524Y-36059237D02*
X49734255Y-36062971D01*
X49864291Y-36452773D01*
X49884678Y-36383614D01*
X49896946Y-36340874D01*
X49913085Y-36283115D01*
X49930512Y-36219625D01*
X49939726Y-36185570D01*
X49974388Y-36056683D01*
X50117391Y-36056683D01*
X50074646Y-36191857D01*
X50053596Y-36258342D01*
X50028167Y-36338539D01*
X50001610Y-36422193D01*
X49977902Y-36496782D01*
X49923902Y-36666535D01*
X49865598Y-36670328D01*
X49807295Y-36674122D01*
X49775679Y-36569734D01*
X49756182Y-36504889D01*
X49734904Y-36433400D01*
X49716308Y-36370263D01*
X49715574Y-36367750D01*
X49701684Y-36324969D01*
X49689429Y-36295779D01*
X49680846Y-36284741D01*
X49679082Y-36286018D01*
X49672891Y-36303130D01*
X49661128Y-36339787D01*
X49645225Y-36391378D01*
X49626614Y-36453294D01*
X49616543Y-36487352D01*
X49562007Y-36672822D01*
X49446264Y-36672822D01*
X49353737Y-36380471D01*
X49327744Y-36298462D01*
X49304066Y-36223987D01*
X49283820Y-36160544D01*
X49268126Y-36111632D01*
X49258102Y-36080749D01*
X49255055Y-36071726D01*
X49257467Y-36062487D01*
X49276408Y-36058441D01*
X49315823Y-36058846D01*
X49321993Y-36059152D01*
X49395086Y-36062971D01*
X49442957Y-36239010D01*
X49460553Y-36303211D01*
X49476277Y-36359649D01*
X49488746Y-36403422D01*
X49496574Y-36429630D01*
X49498020Y-36433903D01*
X49504014Y-36428990D01*
X49516101Y-36403532D01*
X49532893Y-36360997D01*
X49553003Y-36304850D01*
X49570003Y-36254130D01*
X49634794Y-36055504D01*
X49684524Y-36059237D01*
G36*
X50441411Y-36060417D02*
X50494411Y-36073290D01*
X50509731Y-36080110D01*
X50539428Y-36097974D01*
X50562220Y-36118093D01*
X50579083Y-36143962D01*
X50590998Y-36179073D01*
X50598942Y-36226920D01*
X50603894Y-36290996D01*
X50606831Y-36374794D01*
X50607947Y-36430768D01*
X50612052Y-36672822D01*
X50541932Y-36672822D01*
X50499393Y-36671038D01*
X50477476Y-36664942D01*
X50471812Y-36654706D01*
X50468821Y-36643637D01*
X50455451Y-36645754D01*
X50437233Y-36654629D01*
X50391624Y-36668233D01*
X50333007Y-36671899D01*
X50271354Y-36665903D01*
X50216638Y-36650521D01*
X50211730Y-36648386D01*
X50161723Y-36613255D01*
X50128756Y-36564419D01*
X50113587Y-36507333D01*
X50114746Y-36486824D01*
X50238508Y-36486824D01*
X50249413Y-36514425D01*
X50281745Y-36534204D01*
X50333910Y-36544819D01*
X50361787Y-36546228D01*
X50408247Y-36542620D01*
X50439129Y-36528597D01*
X50446664Y-36521931D01*
X50467076Y-36485666D01*
X50471812Y-36452773D01*
X50471812Y-36408763D01*
X50410513Y-36408763D01*
X50339256Y-36412395D01*
X50289276Y-36423818D01*
X50257696Y-36443824D01*
X50250626Y-36452743D01*
X50238508Y-36486824D01*
X50114746Y-36486824D01*
X50116971Y-36447456D01*
X50139663Y-36390244D01*
X50170624Y-36351580D01*
X50189376Y-36334864D01*
X50207733Y-36323878D01*
X50231619Y-36317180D01*
X50266957Y-36313326D01*
X50319669Y-36310873D01*
X50340577Y-36310168D01*
X50471812Y-36305879D01*
X50471620Y-36266158D01*
X50466537Y-36224405D01*
X50448162Y-36199158D01*
X50411039Y-36183030D01*
X50410043Y-36182742D01*
X50357410Y-36176400D01*
X50305906Y-36184684D01*
X50267630Y-36204827D01*
X50252272Y-36214773D01*
X50235730Y-36213397D01*
X50210275Y-36198987D01*
X50195328Y-36188817D01*
X50166091Y-36167088D01*
X50147980Y-36150800D01*
X50145074Y-36146137D01*
X50157040Y-36122005D01*
X50192396Y-36093185D01*
X50207753Y-36083461D01*
X50251901Y-36066714D01*
X50311398Y-36057227D01*
X50377487Y-36055095D01*
X50441411Y-36060417D01*
X50441411Y-36060417D01*
G37*
X50441411Y-36060417D02*
X50494411Y-36073290D01*
X50509731Y-36080110D01*
X50539428Y-36097974D01*
X50562220Y-36118093D01*
X50579083Y-36143962D01*
X50590998Y-36179073D01*
X50598942Y-36226920D01*
X50603894Y-36290996D01*
X50606831Y-36374794D01*
X50607947Y-36430768D01*
X50612052Y-36672822D01*
X50541932Y-36672822D01*
X50499393Y-36671038D01*
X50477476Y-36664942D01*
X50471812Y-36654706D01*
X50468821Y-36643637D01*
X50455451Y-36645754D01*
X50437233Y-36654629D01*
X50391624Y-36668233D01*
X50333007Y-36671899D01*
X50271354Y-36665903D01*
X50216638Y-36650521D01*
X50211730Y-36648386D01*
X50161723Y-36613255D01*
X50128756Y-36564419D01*
X50113587Y-36507333D01*
X50114746Y-36486824D01*
X50238508Y-36486824D01*
X50249413Y-36514425D01*
X50281745Y-36534204D01*
X50333910Y-36544819D01*
X50361787Y-36546228D01*
X50408247Y-36542620D01*
X50439129Y-36528597D01*
X50446664Y-36521931D01*
X50467076Y-36485666D01*
X50471812Y-36452773D01*
X50471812Y-36408763D01*
X50410513Y-36408763D01*
X50339256Y-36412395D01*
X50289276Y-36423818D01*
X50257696Y-36443824D01*
X50250626Y-36452743D01*
X50238508Y-36486824D01*
X50114746Y-36486824D01*
X50116971Y-36447456D01*
X50139663Y-36390244D01*
X50170624Y-36351580D01*
X50189376Y-36334864D01*
X50207733Y-36323878D01*
X50231619Y-36317180D01*
X50266957Y-36313326D01*
X50319669Y-36310873D01*
X50340577Y-36310168D01*
X50471812Y-36305879D01*
X50471620Y-36266158D01*
X50466537Y-36224405D01*
X50448162Y-36199158D01*
X50411039Y-36183030D01*
X50410043Y-36182742D01*
X50357410Y-36176400D01*
X50305906Y-36184684D01*
X50267630Y-36204827D01*
X50252272Y-36214773D01*
X50235730Y-36213397D01*
X50210275Y-36198987D01*
X50195328Y-36188817D01*
X50166091Y-36167088D01*
X50147980Y-36150800D01*
X50145074Y-36146137D01*
X50157040Y-36122005D01*
X50192396Y-36093185D01*
X50207753Y-36083461D01*
X50251901Y-36066714D01*
X50311398Y-36057227D01*
X50377487Y-36055095D01*
X50441411Y-36060417D01*
G36*
X51038255Y-36056486D02*
X51086595Y-36066015D01*
X51114114Y-36080125D01*
X51143064Y-36103568D01*
X51101876Y-36155571D01*
X51076482Y-36187064D01*
X51059238Y-36202428D01*
X51042102Y-36204776D01*
X51017027Y-36197217D01*
X51005257Y-36192941D01*
X50957270Y-36186631D01*
X50913324Y-36200156D01*
X50881060Y-36230710D01*
X50875819Y-36240452D01*
X50870112Y-36266258D01*
X50865706Y-36313817D01*
X50862811Y-36379758D01*
X50861631Y-36460710D01*
X50861614Y-36472226D01*
X50861614Y-36672822D01*
X50723297Y-36672822D01*
X50723297Y-36056683D01*
X50792456Y-36056683D01*
X50832333Y-36057725D01*
X50853107Y-36062358D01*
X50860789Y-36072849D01*
X50861614Y-36082745D01*
X50861614Y-36108806D01*
X50894745Y-36082745D01*
X50932735Y-36064965D01*
X50983770Y-36056174D01*
X51038255Y-36056486D01*
X51038255Y-36056486D01*
G37*
X51038255Y-36056486D02*
X51086595Y-36066015D01*
X51114114Y-36080125D01*
X51143064Y-36103568D01*
X51101876Y-36155571D01*
X51076482Y-36187064D01*
X51059238Y-36202428D01*
X51042102Y-36204776D01*
X51017027Y-36197217D01*
X51005257Y-36192941D01*
X50957270Y-36186631D01*
X50913324Y-36200156D01*
X50881060Y-36230710D01*
X50875819Y-36240452D01*
X50870112Y-36266258D01*
X50865706Y-36313817D01*
X50862811Y-36379758D01*
X50861631Y-36460710D01*
X50861614Y-36472226D01*
X50861614Y-36672822D01*
X50723297Y-36672822D01*
X50723297Y-36056683D01*
X50792456Y-36056683D01*
X50832333Y-36057725D01*
X50853107Y-36062358D01*
X50860789Y-36072849D01*
X50861614Y-36082745D01*
X50861614Y-36108806D01*
X50894745Y-36082745D01*
X50932735Y-36064965D01*
X50983770Y-36056174D01*
X51038255Y-36056486D01*
G36*
X51435581Y-36059970D02*
X51495685Y-36075597D01*
X51546021Y-36107848D01*
X51570393Y-36131940D01*
X51610345Y-36188895D01*
X51633242Y-36254965D01*
X51641108Y-36336182D01*
X51641148Y-36342748D01*
X51641218Y-36408763D01*
X51261264Y-36408763D01*
X51269363Y-36443342D01*
X51283987Y-36474659D01*
X51309581Y-36507291D01*
X51314935Y-36512500D01*
X51360943Y-36540694D01*
X51413410Y-36545475D01*
X51473803Y-36526926D01*
X51484040Y-36521931D01*
X51515439Y-36506745D01*
X51536470Y-36498094D01*
X51540139Y-36497293D01*
X51552948Y-36505063D01*
X51577378Y-36524072D01*
X51589779Y-36534460D01*
X51615476Y-36558321D01*
X51623915Y-36574077D01*
X51618058Y-36588571D01*
X51614928Y-36592534D01*
X51593725Y-36609879D01*
X51558738Y-36630959D01*
X51534337Y-36643265D01*
X51465072Y-36664946D01*
X51388388Y-36671971D01*
X51315765Y-36663647D01*
X51295426Y-36657686D01*
X51232476Y-36623952D01*
X51185815Y-36572045D01*
X51155173Y-36501459D01*
X51140282Y-36411692D01*
X51138647Y-36364753D01*
X51143421Y-36296413D01*
X51263990Y-36296413D01*
X51275652Y-36301465D01*
X51306998Y-36305429D01*
X51352571Y-36307768D01*
X51383446Y-36308169D01*
X51438981Y-36307783D01*
X51474033Y-36305975D01*
X51493262Y-36301773D01*
X51501330Y-36294203D01*
X51502901Y-36283218D01*
X51492121Y-36249381D01*
X51464980Y-36215940D01*
X51429277Y-36190272D01*
X51393560Y-36179772D01*
X51345048Y-36189086D01*
X51303053Y-36216013D01*
X51273936Y-36254827D01*
X51263990Y-36296413D01*
X51143421Y-36296413D01*
X51145599Y-36265236D01*
X51167055Y-36185949D01*
X51203470Y-36126263D01*
X51255297Y-36085549D01*
X51322990Y-36063179D01*
X51359662Y-36058871D01*
X51435581Y-36059970D01*
X51435581Y-36059970D01*
G37*
X51435581Y-36059970D02*
X51495685Y-36075597D01*
X51546021Y-36107848D01*
X51570393Y-36131940D01*
X51610345Y-36188895D01*
X51633242Y-36254965D01*
X51641108Y-36336182D01*
X51641148Y-36342748D01*
X51641218Y-36408763D01*
X51261264Y-36408763D01*
X51269363Y-36443342D01*
X51283987Y-36474659D01*
X51309581Y-36507291D01*
X51314935Y-36512500D01*
X51360943Y-36540694D01*
X51413410Y-36545475D01*
X51473803Y-36526926D01*
X51484040Y-36521931D01*
X51515439Y-36506745D01*
X51536470Y-36498094D01*
X51540139Y-36497293D01*
X51552948Y-36505063D01*
X51577378Y-36524072D01*
X51589779Y-36534460D01*
X51615476Y-36558321D01*
X51623915Y-36574077D01*
X51618058Y-36588571D01*
X51614928Y-36592534D01*
X51593725Y-36609879D01*
X51558738Y-36630959D01*
X51534337Y-36643265D01*
X51465072Y-36664946D01*
X51388388Y-36671971D01*
X51315765Y-36663647D01*
X51295426Y-36657686D01*
X51232476Y-36623952D01*
X51185815Y-36572045D01*
X51155173Y-36501459D01*
X51140282Y-36411692D01*
X51138647Y-36364753D01*
X51143421Y-36296413D01*
X51263990Y-36296413D01*
X51275652Y-36301465D01*
X51306998Y-36305429D01*
X51352571Y-36307768D01*
X51383446Y-36308169D01*
X51438981Y-36307783D01*
X51474033Y-36305975D01*
X51493262Y-36301773D01*
X51501330Y-36294203D01*
X51502901Y-36283218D01*
X51492121Y-36249381D01*
X51464980Y-36215940D01*
X51429277Y-36190272D01*
X51393560Y-36179772D01*
X51345048Y-36189086D01*
X51303053Y-36216013D01*
X51273936Y-36254827D01*
X51263990Y-36296413D01*
X51143421Y-36296413D01*
X51145599Y-36265236D01*
X51167055Y-36185949D01*
X51203470Y-36126263D01*
X51255297Y-36085549D01*
X51322990Y-36063179D01*
X51359662Y-36058871D01*
X51435581Y-36059970D01*
G36*
X46864739Y-35120148D02*
X46930521Y-35149231D01*
X46980460Y-35197793D01*
X47014626Y-35265908D01*
X47033093Y-35353651D01*
X47034417Y-35367351D01*
X47035454Y-35463939D01*
X47022007Y-35548602D01*
X46994892Y-35617221D01*
X46980373Y-35639294D01*
X46929799Y-35686011D01*
X46865391Y-35716268D01*
X46793334Y-35728824D01*
X46719815Y-35722439D01*
X46663928Y-35702772D01*
X46615868Y-35669629D01*
X46576588Y-35626175D01*
X46575908Y-35625158D01*
X46559956Y-35598338D01*
X46549590Y-35571368D01*
X46543312Y-35537332D01*
X46539627Y-35489310D01*
X46538003Y-35449931D01*
X46537328Y-35414219D01*
X46663045Y-35414219D01*
X46664274Y-35449770D01*
X46668734Y-35497094D01*
X46676603Y-35527465D01*
X46690793Y-35549072D01*
X46704083Y-35561694D01*
X46751198Y-35588122D01*
X46800495Y-35591653D01*
X46846407Y-35572639D01*
X46869362Y-35551331D01*
X46885904Y-35529859D01*
X46895579Y-35509313D01*
X46899826Y-35482574D01*
X46900080Y-35442523D01*
X46898772Y-35405638D01*
X46895957Y-35352947D01*
X46891495Y-35318772D01*
X46883452Y-35296480D01*
X46869897Y-35279442D01*
X46859155Y-35269703D01*
X46814223Y-35244123D01*
X46765751Y-35242847D01*
X46725106Y-35257999D01*
X46690433Y-35289642D01*
X46669776Y-35341620D01*
X46663045Y-35414219D01*
X46537328Y-35414219D01*
X46536521Y-35371621D01*
X46539052Y-35313056D01*
X46546638Y-35269007D01*
X46560319Y-35234248D01*
X46581135Y-35203551D01*
X46588853Y-35194436D01*
X46637111Y-35149021D01*
X46688872Y-35122493D01*
X46752172Y-35111379D01*
X46783039Y-35110471D01*
X46864739Y-35120148D01*
X46864739Y-35120148D01*
G37*
X46864739Y-35120148D02*
X46930521Y-35149231D01*
X46980460Y-35197793D01*
X47014626Y-35265908D01*
X47033093Y-35353651D01*
X47034417Y-35367351D01*
X47035454Y-35463939D01*
X47022007Y-35548602D01*
X46994892Y-35617221D01*
X46980373Y-35639294D01*
X46929799Y-35686011D01*
X46865391Y-35716268D01*
X46793334Y-35728824D01*
X46719815Y-35722439D01*
X46663928Y-35702772D01*
X46615868Y-35669629D01*
X46576588Y-35626175D01*
X46575908Y-35625158D01*
X46559956Y-35598338D01*
X46549590Y-35571368D01*
X46543312Y-35537332D01*
X46539627Y-35489310D01*
X46538003Y-35449931D01*
X46537328Y-35414219D01*
X46663045Y-35414219D01*
X46664274Y-35449770D01*
X46668734Y-35497094D01*
X46676603Y-35527465D01*
X46690793Y-35549072D01*
X46704083Y-35561694D01*
X46751198Y-35588122D01*
X46800495Y-35591653D01*
X46846407Y-35572639D01*
X46869362Y-35551331D01*
X46885904Y-35529859D01*
X46895579Y-35509313D01*
X46899826Y-35482574D01*
X46900080Y-35442523D01*
X46898772Y-35405638D01*
X46895957Y-35352947D01*
X46891495Y-35318772D01*
X46883452Y-35296480D01*
X46869897Y-35279442D01*
X46859155Y-35269703D01*
X46814223Y-35244123D01*
X46765751Y-35242847D01*
X46725106Y-35257999D01*
X46690433Y-35289642D01*
X46669776Y-35341620D01*
X46663045Y-35414219D01*
X46537328Y-35414219D01*
X46536521Y-35371621D01*
X46539052Y-35313056D01*
X46546638Y-35269007D01*
X46560319Y-35234248D01*
X46581135Y-35203551D01*
X46588853Y-35194436D01*
X46637111Y-35149021D01*
X46688872Y-35122493D01*
X46752172Y-35111379D01*
X46783039Y-35110471D01*
X46864739Y-35120148D01*
G36*
X48046301Y-35127614D02*
X48058832Y-35133514D01*
X48102201Y-35165283D01*
X48143210Y-35211646D01*
X48173832Y-35262696D01*
X48182541Y-35286166D01*
X48190488Y-35328091D01*
X48195226Y-35378757D01*
X48195801Y-35399679D01*
X48195871Y-35465693D01*
X47815917Y-35465693D01*
X47824017Y-35500273D01*
X47843896Y-35541170D01*
X47878653Y-35576514D01*
X47920002Y-35599282D01*
X47946351Y-35604010D01*
X47982084Y-35598273D01*
X48024718Y-35583882D01*
X48039201Y-35577262D01*
X48092760Y-35550513D01*
X48138467Y-35585376D01*
X48164842Y-35608955D01*
X48178876Y-35628417D01*
X48179586Y-35634129D01*
X48167049Y-35647973D01*
X48139572Y-35669012D01*
X48114634Y-35685425D01*
X48047336Y-35714930D01*
X47971890Y-35728284D01*
X47897112Y-35724812D01*
X47837505Y-35706663D01*
X47776059Y-35667784D01*
X47732392Y-35616595D01*
X47705074Y-35550367D01*
X47692678Y-35466371D01*
X47691579Y-35427936D01*
X47695978Y-35339861D01*
X47696518Y-35337299D01*
X47822418Y-35337299D01*
X47825885Y-35345558D01*
X47840137Y-35350113D01*
X47869530Y-35352065D01*
X47918425Y-35352517D01*
X47937252Y-35352525D01*
X47994533Y-35351843D01*
X48030859Y-35349364D01*
X48050396Y-35344443D01*
X48057310Y-35336434D01*
X48057555Y-35333862D01*
X48049664Y-35313423D01*
X48029915Y-35284789D01*
X48021425Y-35274763D01*
X47989906Y-35246408D01*
X47957051Y-35235259D01*
X47939349Y-35234327D01*
X47891461Y-35245981D01*
X47851301Y-35277285D01*
X47825827Y-35322752D01*
X47825375Y-35324233D01*
X47822418Y-35337299D01*
X47696518Y-35337299D01*
X47710608Y-35270510D01*
X47736962Y-35215025D01*
X47769193Y-35175639D01*
X47828783Y-35132931D01*
X47898832Y-35110109D01*
X47973339Y-35108046D01*
X48046301Y-35127614D01*
X48046301Y-35127614D01*
G37*
X48046301Y-35127614D02*
X48058832Y-35133514D01*
X48102201Y-35165283D01*
X48143210Y-35211646D01*
X48173832Y-35262696D01*
X48182541Y-35286166D01*
X48190488Y-35328091D01*
X48195226Y-35378757D01*
X48195801Y-35399679D01*
X48195871Y-35465693D01*
X47815917Y-35465693D01*
X47824017Y-35500273D01*
X47843896Y-35541170D01*
X47878653Y-35576514D01*
X47920002Y-35599282D01*
X47946351Y-35604010D01*
X47982084Y-35598273D01*
X48024718Y-35583882D01*
X48039201Y-35577262D01*
X48092760Y-35550513D01*
X48138467Y-35585376D01*
X48164842Y-35608955D01*
X48178876Y-35628417D01*
X48179586Y-35634129D01*
X48167049Y-35647973D01*
X48139572Y-35669012D01*
X48114634Y-35685425D01*
X48047336Y-35714930D01*
X47971890Y-35728284D01*
X47897112Y-35724812D01*
X47837505Y-35706663D01*
X47776059Y-35667784D01*
X47732392Y-35616595D01*
X47705074Y-35550367D01*
X47692678Y-35466371D01*
X47691579Y-35427936D01*
X47695978Y-35339861D01*
X47696518Y-35337299D01*
X47822418Y-35337299D01*
X47825885Y-35345558D01*
X47840137Y-35350113D01*
X47869530Y-35352065D01*
X47918425Y-35352517D01*
X47937252Y-35352525D01*
X47994533Y-35351843D01*
X48030859Y-35349364D01*
X48050396Y-35344443D01*
X48057310Y-35336434D01*
X48057555Y-35333862D01*
X48049664Y-35313423D01*
X48029915Y-35284789D01*
X48021425Y-35274763D01*
X47989906Y-35246408D01*
X47957051Y-35235259D01*
X47939349Y-35234327D01*
X47891461Y-35245981D01*
X47851301Y-35277285D01*
X47825827Y-35322752D01*
X47825375Y-35324233D01*
X47822418Y-35337299D01*
X47696518Y-35337299D01*
X47710608Y-35270510D01*
X47736962Y-35215025D01*
X47769193Y-35175639D01*
X47828783Y-35132931D01*
X47898832Y-35110109D01*
X47973339Y-35108046D01*
X48046301Y-35127614D01*
G36*
X49417017Y-35111452D02*
X49464634Y-35120482D01*
X49514034Y-35139370D01*
X49519312Y-35141777D01*
X49556774Y-35161476D01*
X49582717Y-35179781D01*
X49591103Y-35191508D01*
X49583117Y-35210632D01*
X49563720Y-35238850D01*
X49555110Y-35249384D01*
X49519628Y-35290847D01*
X49473885Y-35263858D01*
X49430350Y-35245878D01*
X49380050Y-35236267D01*
X49331812Y-35235660D01*
X49294467Y-35244691D01*
X49285505Y-35250327D01*
X49268437Y-35276171D01*
X49266363Y-35305941D01*
X49279134Y-35329197D01*
X49286688Y-35333708D01*
X49309325Y-35339309D01*
X49349115Y-35345892D01*
X49398166Y-35352183D01*
X49407215Y-35353170D01*
X49485996Y-35366798D01*
X49543136Y-35389946D01*
X49581030Y-35424752D01*
X49602079Y-35473354D01*
X49608635Y-35532718D01*
X49599577Y-35600198D01*
X49570164Y-35653188D01*
X49520278Y-35691783D01*
X49449800Y-35716081D01*
X49371565Y-35725667D01*
X49307766Y-35725552D01*
X49256016Y-35716845D01*
X49220673Y-35704825D01*
X49176017Y-35683880D01*
X49134747Y-35659574D01*
X49120079Y-35648876D01*
X49082357Y-35618084D01*
X49127852Y-35572049D01*
X49173347Y-35526013D01*
X49225072Y-35560243D01*
X49276952Y-35585952D01*
X49332351Y-35599399D01*
X49385605Y-35600818D01*
X49431049Y-35590443D01*
X49463016Y-35568507D01*
X49473338Y-35549998D01*
X49471789Y-35520314D01*
X49446140Y-35497615D01*
X49396460Y-35481940D01*
X49342031Y-35474695D01*
X49258264Y-35460873D01*
X49196033Y-35434796D01*
X49154507Y-35395699D01*
X49132853Y-35342820D01*
X49129853Y-35280126D01*
X49144671Y-35214642D01*
X49178454Y-35165144D01*
X49231505Y-35131408D01*
X49304126Y-35113207D01*
X49357928Y-35109639D01*
X49417017Y-35111452D01*
X49417017Y-35111452D01*
G37*
X49417017Y-35111452D02*
X49464634Y-35120482D01*
X49514034Y-35139370D01*
X49519312Y-35141777D01*
X49556774Y-35161476D01*
X49582717Y-35179781D01*
X49591103Y-35191508D01*
X49583117Y-35210632D01*
X49563720Y-35238850D01*
X49555110Y-35249384D01*
X49519628Y-35290847D01*
X49473885Y-35263858D01*
X49430350Y-35245878D01*
X49380050Y-35236267D01*
X49331812Y-35235660D01*
X49294467Y-35244691D01*
X49285505Y-35250327D01*
X49268437Y-35276171D01*
X49266363Y-35305941D01*
X49279134Y-35329197D01*
X49286688Y-35333708D01*
X49309325Y-35339309D01*
X49349115Y-35345892D01*
X49398166Y-35352183D01*
X49407215Y-35353170D01*
X49485996Y-35366798D01*
X49543136Y-35389946D01*
X49581030Y-35424752D01*
X49602079Y-35473354D01*
X49608635Y-35532718D01*
X49599577Y-35600198D01*
X49570164Y-35653188D01*
X49520278Y-35691783D01*
X49449800Y-35716081D01*
X49371565Y-35725667D01*
X49307766Y-35725552D01*
X49256016Y-35716845D01*
X49220673Y-35704825D01*
X49176017Y-35683880D01*
X49134747Y-35659574D01*
X49120079Y-35648876D01*
X49082357Y-35618084D01*
X49127852Y-35572049D01*
X49173347Y-35526013D01*
X49225072Y-35560243D01*
X49276952Y-35585952D01*
X49332351Y-35599399D01*
X49385605Y-35600818D01*
X49431049Y-35590443D01*
X49463016Y-35568507D01*
X49473338Y-35549998D01*
X49471789Y-35520314D01*
X49446140Y-35497615D01*
X49396460Y-35481940D01*
X49342031Y-35474695D01*
X49258264Y-35460873D01*
X49196033Y-35434796D01*
X49154507Y-35395699D01*
X49132853Y-35342820D01*
X49129853Y-35280126D01*
X49144671Y-35214642D01*
X49178454Y-35165144D01*
X49231505Y-35131408D01*
X49304126Y-35113207D01*
X49357928Y-35109639D01*
X49417017Y-35111452D01*
G36*
X50013762Y-35121055D02*
X50077363Y-35155692D01*
X50127123Y-35210372D01*
X50150568Y-35254842D01*
X50160634Y-35294121D01*
X50167156Y-35350116D01*
X50169951Y-35414621D01*
X50168836Y-35479429D01*
X50163626Y-35536334D01*
X50157541Y-35566727D01*
X50137014Y-35608306D01*
X50101463Y-35652468D01*
X50058619Y-35691087D01*
X50016211Y-35716034D01*
X50015177Y-35716430D01*
X49962553Y-35727331D01*
X49900188Y-35727601D01*
X49840924Y-35717676D01*
X49818040Y-35709722D01*
X49759102Y-35676300D01*
X49716890Y-35632511D01*
X49689156Y-35574538D01*
X49673651Y-35498565D01*
X49670143Y-35458771D01*
X49670590Y-35408766D01*
X49805376Y-35408766D01*
X49809917Y-35481732D01*
X49822986Y-35537334D01*
X49843756Y-35572861D01*
X49858552Y-35583020D01*
X49896464Y-35590104D01*
X49941527Y-35588007D01*
X49980487Y-35577812D01*
X49990704Y-35572204D01*
X50017659Y-35539538D01*
X50035451Y-35489545D01*
X50043024Y-35428705D01*
X50039325Y-35363497D01*
X50031057Y-35324253D01*
X50007320Y-35278805D01*
X49969849Y-35250396D01*
X49924720Y-35240573D01*
X49878011Y-35250887D01*
X49842132Y-35276112D01*
X49823277Y-35296925D01*
X49812272Y-35317439D01*
X49807026Y-35345203D01*
X49805449Y-35387762D01*
X49805376Y-35408766D01*
X49670590Y-35408766D01*
X49671094Y-35352580D01*
X49688388Y-35265501D01*
X49722029Y-35197530D01*
X49772018Y-35148664D01*
X49838356Y-35118899D01*
X49852601Y-35115448D01*
X49938210Y-35107345D01*
X50013762Y-35121055D01*
X50013762Y-35121055D01*
G37*
X50013762Y-35121055D02*
X50077363Y-35155692D01*
X50127123Y-35210372D01*
X50150568Y-35254842D01*
X50160634Y-35294121D01*
X50167156Y-35350116D01*
X50169951Y-35414621D01*
X50168836Y-35479429D01*
X50163626Y-35536334D01*
X50157541Y-35566727D01*
X50137014Y-35608306D01*
X50101463Y-35652468D01*
X50058619Y-35691087D01*
X50016211Y-35716034D01*
X50015177Y-35716430D01*
X49962553Y-35727331D01*
X49900188Y-35727601D01*
X49840924Y-35717676D01*
X49818040Y-35709722D01*
X49759102Y-35676300D01*
X49716890Y-35632511D01*
X49689156Y-35574538D01*
X49673651Y-35498565D01*
X49670143Y-35458771D01*
X49670590Y-35408766D01*
X49805376Y-35408766D01*
X49809917Y-35481732D01*
X49822986Y-35537334D01*
X49843756Y-35572861D01*
X49858552Y-35583020D01*
X49896464Y-35590104D01*
X49941527Y-35588007D01*
X49980487Y-35577812D01*
X49990704Y-35572204D01*
X50017659Y-35539538D01*
X50035451Y-35489545D01*
X50043024Y-35428705D01*
X50039325Y-35363497D01*
X50031057Y-35324253D01*
X50007320Y-35278805D01*
X49969849Y-35250396D01*
X49924720Y-35240573D01*
X49878011Y-35250887D01*
X49842132Y-35276112D01*
X49823277Y-35296925D01*
X49812272Y-35317439D01*
X49807026Y-35345203D01*
X49805449Y-35387762D01*
X49805376Y-35408766D01*
X49670590Y-35408766D01*
X49671094Y-35352580D01*
X49688388Y-35265501D01*
X49722029Y-35197530D01*
X49772018Y-35148664D01*
X49838356Y-35118899D01*
X49852601Y-35115448D01*
X49938210Y-35107345D01*
X50013762Y-35121055D01*
G36*
X50396367Y-35309342D02*
X50397555Y-35401563D01*
X50401897Y-35471610D01*
X50410558Y-35522381D01*
X50424704Y-35556772D01*
X50445500Y-35577679D01*
X50474110Y-35588000D01*
X50509535Y-35590636D01*
X50546636Y-35587682D01*
X50574818Y-35576889D01*
X50595243Y-35555360D01*
X50609079Y-35520199D01*
X50617491Y-35468510D01*
X50621643Y-35397394D01*
X50622703Y-35309342D01*
X50622703Y-35113614D01*
X50761020Y-35113614D01*
X50761020Y-35717179D01*
X50691862Y-35717179D01*
X50650170Y-35715489D01*
X50628701Y-35709556D01*
X50622703Y-35698293D01*
X50619091Y-35688261D01*
X50604714Y-35690383D01*
X50575736Y-35704580D01*
X50509319Y-35726480D01*
X50438875Y-35724928D01*
X50371377Y-35701147D01*
X50339233Y-35682362D01*
X50314715Y-35662022D01*
X50296804Y-35636573D01*
X50284479Y-35602458D01*
X50276723Y-35556121D01*
X50272516Y-35494007D01*
X50270840Y-35412561D01*
X50270624Y-35349578D01*
X50270624Y-35113614D01*
X50396367Y-35113614D01*
X50396367Y-35309342D01*
X50396367Y-35309342D01*
G37*
X50396367Y-35309342D02*
X50397555Y-35401563D01*
X50401897Y-35471610D01*
X50410558Y-35522381D01*
X50424704Y-35556772D01*
X50445500Y-35577679D01*
X50474110Y-35588000D01*
X50509535Y-35590636D01*
X50546636Y-35587682D01*
X50574818Y-35576889D01*
X50595243Y-35555360D01*
X50609079Y-35520199D01*
X50617491Y-35468510D01*
X50621643Y-35397394D01*
X50622703Y-35309342D01*
X50622703Y-35113614D01*
X50761020Y-35113614D01*
X50761020Y-35717179D01*
X50691862Y-35717179D01*
X50650170Y-35715489D01*
X50628701Y-35709556D01*
X50622703Y-35698293D01*
X50619091Y-35688261D01*
X50604714Y-35690383D01*
X50575736Y-35704580D01*
X50509319Y-35726480D01*
X50438875Y-35724928D01*
X50371377Y-35701147D01*
X50339233Y-35682362D01*
X50314715Y-35662022D01*
X50296804Y-35636573D01*
X50284479Y-35602458D01*
X50276723Y-35556121D01*
X50272516Y-35494007D01*
X50270840Y-35412561D01*
X50270624Y-35349578D01*
X50270624Y-35113614D01*
X50396367Y-35113614D01*
X50396367Y-35309342D01*
G36*
X51620226Y-35118880D02*
X51693080Y-35149830D01*
X51716027Y-35164895D01*
X51745354Y-35188048D01*
X51763764Y-35206253D01*
X51766961Y-35212183D01*
X51757935Y-35225340D01*
X51734837Y-35247667D01*
X51716344Y-35263250D01*
X51665728Y-35303926D01*
X51625760Y-35270295D01*
X51594874Y-35248584D01*
X51564759Y-35241090D01*
X51530292Y-35242920D01*
X51475561Y-35256528D01*
X51437886Y-35284772D01*
X51414991Y-35330433D01*
X51404597Y-35396289D01*
X51404595Y-35396331D01*
X51405494Y-35469939D01*
X51419463Y-35523946D01*
X51447328Y-35560716D01*
X51466325Y-35573168D01*
X51516776Y-35588673D01*
X51570663Y-35588683D01*
X51617546Y-35573638D01*
X51628644Y-35566287D01*
X51656476Y-35547511D01*
X51678236Y-35544434D01*
X51701704Y-35558409D01*
X51727649Y-35583510D01*
X51768716Y-35625880D01*
X51723121Y-35663464D01*
X51652674Y-35705882D01*
X51573233Y-35726785D01*
X51490215Y-35725272D01*
X51435694Y-35711411D01*
X51371970Y-35677135D01*
X51321005Y-35623212D01*
X51297851Y-35585149D01*
X51279099Y-35530536D01*
X51269715Y-35461369D01*
X51269643Y-35386407D01*
X51278824Y-35314409D01*
X51297199Y-35254137D01*
X51300093Y-35247958D01*
X51342952Y-35187351D01*
X51400979Y-35143224D01*
X51469591Y-35116493D01*
X51544201Y-35108073D01*
X51620226Y-35118880D01*
X51620226Y-35118880D01*
G37*
X51620226Y-35118880D02*
X51693080Y-35149830D01*
X51716027Y-35164895D01*
X51745354Y-35188048D01*
X51763764Y-35206253D01*
X51766961Y-35212183D01*
X51757935Y-35225340D01*
X51734837Y-35247667D01*
X51716344Y-35263250D01*
X51665728Y-35303926D01*
X51625760Y-35270295D01*
X51594874Y-35248584D01*
X51564759Y-35241090D01*
X51530292Y-35242920D01*
X51475561Y-35256528D01*
X51437886Y-35284772D01*
X51414991Y-35330433D01*
X51404597Y-35396289D01*
X51404595Y-35396331D01*
X51405494Y-35469939D01*
X51419463Y-35523946D01*
X51447328Y-35560716D01*
X51466325Y-35573168D01*
X51516776Y-35588673D01*
X51570663Y-35588683D01*
X51617546Y-35573638D01*
X51628644Y-35566287D01*
X51656476Y-35547511D01*
X51678236Y-35544434D01*
X51701704Y-35558409D01*
X51727649Y-35583510D01*
X51768716Y-35625880D01*
X51723121Y-35663464D01*
X51652674Y-35705882D01*
X51573233Y-35726785D01*
X51490215Y-35725272D01*
X51435694Y-35711411D01*
X51371970Y-35677135D01*
X51321005Y-35623212D01*
X51297851Y-35585149D01*
X51279099Y-35530536D01*
X51269715Y-35461369D01*
X51269643Y-35386407D01*
X51278824Y-35314409D01*
X51297199Y-35254137D01*
X51300093Y-35247958D01*
X51342952Y-35187351D01*
X51400979Y-35143224D01*
X51469591Y-35116493D01*
X51544201Y-35108073D01*
X51620226Y-35118880D01*
G36*
X52080898Y-35111457D02*
X52113096Y-35119279D01*
X52174825Y-35147921D01*
X52227610Y-35191667D01*
X52264141Y-35244117D01*
X52269160Y-35255893D01*
X52276045Y-35286740D01*
X52280864Y-35332371D01*
X52282505Y-35378492D01*
X52282505Y-35465693D01*
X52100178Y-35465693D01*
X52024979Y-35465978D01*
X51972003Y-35467704D01*
X51938325Y-35472181D01*
X51921020Y-35480720D01*
X51917163Y-35494630D01*
X51923829Y-35515222D01*
X51935770Y-35539315D01*
X51969080Y-35579525D01*
X52015368Y-35599558D01*
X52071944Y-35598905D01*
X52136031Y-35577101D01*
X52191417Y-35550193D01*
X52237375Y-35586532D01*
X52283333Y-35622872D01*
X52240096Y-35662819D01*
X52182374Y-35700563D01*
X52111386Y-35723320D01*
X52035029Y-35729688D01*
X51961199Y-35718268D01*
X51949287Y-35714393D01*
X51884399Y-35680506D01*
X51836130Y-35629986D01*
X51803465Y-35561325D01*
X51785385Y-35473014D01*
X51785175Y-35471121D01*
X51783556Y-35374878D01*
X51790100Y-35340542D01*
X51917852Y-35340542D01*
X51929584Y-35345822D01*
X51961438Y-35349867D01*
X52008397Y-35352176D01*
X52038154Y-35352525D01*
X52093648Y-35352306D01*
X52128346Y-35350916D01*
X52146601Y-35347251D01*
X52152766Y-35340210D01*
X52151195Y-35328690D01*
X52149878Y-35324233D01*
X52127382Y-35282355D01*
X52092003Y-35248604D01*
X52060780Y-35233773D01*
X52019301Y-35234668D01*
X51977269Y-35253164D01*
X51942012Y-35283786D01*
X51920854Y-35321062D01*
X51917852Y-35340542D01*
X51790100Y-35340542D01*
X51799690Y-35290229D01*
X51831698Y-35219191D01*
X51877701Y-35163779D01*
X51935821Y-35126009D01*
X52004180Y-35107896D01*
X52080898Y-35111457D01*
X52080898Y-35111457D01*
G37*
X52080898Y-35111457D02*
X52113096Y-35119279D01*
X52174825Y-35147921D01*
X52227610Y-35191667D01*
X52264141Y-35244117D01*
X52269160Y-35255893D01*
X52276045Y-35286740D01*
X52280864Y-35332371D01*
X52282505Y-35378492D01*
X52282505Y-35465693D01*
X52100178Y-35465693D01*
X52024979Y-35465978D01*
X51972003Y-35467704D01*
X51938325Y-35472181D01*
X51921020Y-35480720D01*
X51917163Y-35494630D01*
X51923829Y-35515222D01*
X51935770Y-35539315D01*
X51969080Y-35579525D01*
X52015368Y-35599558D01*
X52071944Y-35598905D01*
X52136031Y-35577101D01*
X52191417Y-35550193D01*
X52237375Y-35586532D01*
X52283333Y-35622872D01*
X52240096Y-35662819D01*
X52182374Y-35700563D01*
X52111386Y-35723320D01*
X52035029Y-35729688D01*
X51961199Y-35718268D01*
X51949287Y-35714393D01*
X51884399Y-35680506D01*
X51836130Y-35629986D01*
X51803465Y-35561325D01*
X51785385Y-35473014D01*
X51785175Y-35471121D01*
X51783556Y-35374878D01*
X51790100Y-35340542D01*
X51917852Y-35340542D01*
X51929584Y-35345822D01*
X51961438Y-35349867D01*
X52008397Y-35352176D01*
X52038154Y-35352525D01*
X52093648Y-35352306D01*
X52128346Y-35350916D01*
X52146601Y-35347251D01*
X52152766Y-35340210D01*
X52151195Y-35328690D01*
X52149878Y-35324233D01*
X52127382Y-35282355D01*
X52092003Y-35248604D01*
X52060780Y-35233773D01*
X52019301Y-35234668D01*
X51977269Y-35253164D01*
X51942012Y-35283786D01*
X51920854Y-35321062D01*
X51917852Y-35340542D01*
X51790100Y-35340542D01*
X51799690Y-35290229D01*
X51831698Y-35219191D01*
X51877701Y-35163779D01*
X51935821Y-35126009D01*
X52004180Y-35107896D01*
X52080898Y-35111457D01*
G36*
X48648988Y-35124002D02*
X48680283Y-35138950D01*
X48710591Y-35160541D01*
X48733682Y-35185391D01*
X48750500Y-35217087D01*
X48761994Y-35259214D01*
X48769109Y-35315358D01*
X48772793Y-35389106D01*
X48773992Y-35484044D01*
X48774011Y-35493985D01*
X48774287Y-35717179D01*
X48635970Y-35717179D01*
X48635970Y-35511418D01*
X48635872Y-35435189D01*
X48635191Y-35379939D01*
X48633349Y-35341501D01*
X48629767Y-35315706D01*
X48623868Y-35298384D01*
X48615073Y-35285368D01*
X48602820Y-35272507D01*
X48559953Y-35244873D01*
X48513157Y-35239745D01*
X48468576Y-35257217D01*
X48453072Y-35270221D01*
X48441690Y-35282447D01*
X48433519Y-35295540D01*
X48428026Y-35313615D01*
X48424680Y-35340787D01*
X48422949Y-35381170D01*
X48422303Y-35438879D01*
X48422208Y-35509132D01*
X48422208Y-35717179D01*
X48283891Y-35717179D01*
X48283891Y-35113614D01*
X48353050Y-35113614D01*
X48394572Y-35115256D01*
X48415994Y-35121087D01*
X48422205Y-35132461D01*
X48422208Y-35132798D01*
X48425090Y-35143938D01*
X48437801Y-35142674D01*
X48463074Y-35130434D01*
X48520395Y-35112424D01*
X48585963Y-35110421D01*
X48648988Y-35124002D01*
X48648988Y-35124002D01*
G37*
X48648988Y-35124002D02*
X48680283Y-35138950D01*
X48710591Y-35160541D01*
X48733682Y-35185391D01*
X48750500Y-35217087D01*
X48761994Y-35259214D01*
X48769109Y-35315358D01*
X48772793Y-35389106D01*
X48773992Y-35484044D01*
X48774011Y-35493985D01*
X48774287Y-35717179D01*
X48635970Y-35717179D01*
X48635970Y-35511418D01*
X48635872Y-35435189D01*
X48635191Y-35379939D01*
X48633349Y-35341501D01*
X48629767Y-35315706D01*
X48623868Y-35298384D01*
X48615073Y-35285368D01*
X48602820Y-35272507D01*
X48559953Y-35244873D01*
X48513157Y-35239745D01*
X48468576Y-35257217D01*
X48453072Y-35270221D01*
X48441690Y-35282447D01*
X48433519Y-35295540D01*
X48428026Y-35313615D01*
X48424680Y-35340787D01*
X48422949Y-35381170D01*
X48422303Y-35438879D01*
X48422208Y-35509132D01*
X48422208Y-35717179D01*
X48283891Y-35717179D01*
X48283891Y-35113614D01*
X48353050Y-35113614D01*
X48394572Y-35115256D01*
X48415994Y-35121087D01*
X48422205Y-35132461D01*
X48422208Y-35132798D01*
X48425090Y-35143938D01*
X48437801Y-35142674D01*
X48463074Y-35130434D01*
X48520395Y-35112424D01*
X48585963Y-35110421D01*
X48648988Y-35124002D01*
G36*
X51202460Y-35113030D02*
X51245711Y-35126245D01*
X51273558Y-35142941D01*
X51282629Y-35156145D01*
X51280132Y-35171797D01*
X51263931Y-35196385D01*
X51250232Y-35213800D01*
X51221992Y-35245283D01*
X51200775Y-35258529D01*
X51182688Y-35257664D01*
X51129035Y-35244010D01*
X51089630Y-35244630D01*
X51057632Y-35260104D01*
X51046890Y-35269161D01*
X51012505Y-35301027D01*
X51012505Y-35717179D01*
X50874188Y-35717179D01*
X50874188Y-35113614D01*
X50943347Y-35113614D01*
X50984869Y-35115256D01*
X51006291Y-35121087D01*
X51012502Y-35132461D01*
X51012505Y-35132798D01*
X51015439Y-35144713D01*
X51028704Y-35143159D01*
X51047084Y-35134563D01*
X51085046Y-35118568D01*
X51115872Y-35108945D01*
X51155536Y-35106478D01*
X51202460Y-35113030D01*
X51202460Y-35113030D01*
G37*
X51202460Y-35113030D02*
X51245711Y-35126245D01*
X51273558Y-35142941D01*
X51282629Y-35156145D01*
X51280132Y-35171797D01*
X51263931Y-35196385D01*
X51250232Y-35213800D01*
X51221992Y-35245283D01*
X51200775Y-35258529D01*
X51182688Y-35257664D01*
X51129035Y-35244010D01*
X51089630Y-35244630D01*
X51057632Y-35260104D01*
X51046890Y-35269161D01*
X51012505Y-35301027D01*
X51012505Y-35717179D01*
X50874188Y-35717179D01*
X50874188Y-35113614D01*
X50943347Y-35113614D01*
X50984869Y-35115256D01*
X51006291Y-35121087D01*
X51012502Y-35132461D01*
X51012505Y-35132798D01*
X51015439Y-35144713D01*
X51028704Y-35143159D01*
X51047084Y-35134563D01*
X51085046Y-35118568D01*
X51115872Y-35108945D01*
X51155536Y-35106478D01*
X51202460Y-35113030D01*
G36*
X49779964Y-30945018D02*
X49836812Y-31246570D01*
X50256338Y-31419512D01*
X50507984Y-31248395D01*
X50578458Y-31200750D01*
X50642163Y-31158210D01*
X50696126Y-31122715D01*
X50737373Y-31096210D01*
X50762934Y-31080636D01*
X50769895Y-31077278D01*
X50782435Y-31085914D01*
X50809231Y-31109792D01*
X50847280Y-31145859D01*
X50893579Y-31191067D01*
X50945123Y-31242364D01*
X50998909Y-31296701D01*
X51051935Y-31351028D01*
X51101195Y-31402295D01*
X51143687Y-31447451D01*
X51176407Y-31483446D01*
X51196351Y-31507230D01*
X51201119Y-31515190D01*
X51194257Y-31529865D01*
X51175020Y-31562014D01*
X51145430Y-31608492D01*
X51107510Y-31666156D01*
X51063282Y-31731860D01*
X51037654Y-31769336D01*
X50990941Y-31837768D01*
X50949432Y-31899520D01*
X50915140Y-31951519D01*
X50890080Y-31990692D01*
X50876264Y-32013965D01*
X50874188Y-32018855D01*
X50878895Y-32032755D01*
X50891723Y-32065150D01*
X50910738Y-32111485D01*
X50934003Y-32167206D01*
X50959584Y-32227758D01*
X50985545Y-32288586D01*
X51009950Y-32345136D01*
X51030863Y-32392852D01*
X51046349Y-32427181D01*
X51054472Y-32443568D01*
X51054952Y-32444212D01*
X51067707Y-32447341D01*
X51101677Y-32454321D01*
X51153340Y-32464467D01*
X51219176Y-32477092D01*
X51295664Y-32491509D01*
X51340290Y-32499823D01*
X51422021Y-32515384D01*
X51495843Y-32530192D01*
X51558021Y-32543436D01*
X51604822Y-32554305D01*
X51632509Y-32561989D01*
X51638074Y-32564427D01*
X51643526Y-32580930D01*
X51647924Y-32618200D01*
X51651272Y-32671880D01*
X51653574Y-32737612D01*
X51654832Y-32811037D01*
X51655048Y-32887796D01*
X51654227Y-32963532D01*
X51652371Y-33033886D01*
X51649482Y-33094500D01*
X51645565Y-33141016D01*
X51640622Y-33169075D01*
X51637657Y-33174916D01*
X51619934Y-33181917D01*
X51582381Y-33191927D01*
X51529964Y-33203769D01*
X51467652Y-33216267D01*
X51445900Y-33220310D01*
X51341024Y-33239520D01*
X51258180Y-33254991D01*
X51194630Y-33267337D01*
X51147637Y-33277173D01*
X51114463Y-33285114D01*
X51092371Y-33291776D01*
X51078624Y-33297773D01*
X51070484Y-33303719D01*
X51069345Y-33304894D01*
X51057977Y-33323826D01*
X51040635Y-33360669D01*
X51019050Y-33410913D01*
X50994954Y-33470046D01*
X50970079Y-33533556D01*
X50946157Y-33596932D01*
X50924919Y-33655662D01*
X50908097Y-33705235D01*
X50897422Y-33741139D01*
X50894627Y-33758862D01*
X50894860Y-33759483D01*
X50904331Y-33773970D01*
X50925818Y-33805844D01*
X50957063Y-33851789D01*
X50995807Y-33908485D01*
X51039793Y-33972617D01*
X51052319Y-33990842D01*
X51096984Y-34056914D01*
X51136288Y-34117200D01*
X51168088Y-34168235D01*
X51190245Y-34206560D01*
X51200617Y-34228711D01*
X51201119Y-34231432D01*
X51192405Y-34245736D01*
X51168325Y-34274072D01*
X51131976Y-34313396D01*
X51086453Y-34360661D01*
X51034852Y-34412823D01*
X50980267Y-34466835D01*
X50925794Y-34519653D01*
X50874529Y-34568231D01*
X50829567Y-34609523D01*
X50794004Y-34640485D01*
X50770935Y-34658070D01*
X50764554Y-34660941D01*
X50749699Y-34654178D01*
X50719286Y-34635939D01*
X50678268Y-34609297D01*
X50646709Y-34587852D01*
X50589525Y-34548503D01*
X50521806Y-34502171D01*
X50453880Y-34455913D01*
X50417361Y-34431155D01*
X50293752Y-34347547D01*
X50189991Y-34403650D01*
X50142720Y-34428228D01*
X50102523Y-34447331D01*
X50075326Y-34458227D01*
X50068402Y-34459743D01*
X50060077Y-34448549D01*
X50043654Y-34416917D01*
X50020357Y-34367765D01*
X49991414Y-34304010D01*
X49958050Y-34228571D01*
X49921491Y-34144364D01*
X49882964Y-34054308D01*
X49843694Y-33961321D01*
X49804908Y-33868320D01*
X49767830Y-33778223D01*
X49733689Y-33693948D01*
X49703708Y-33618413D01*
X49679116Y-33554534D01*
X49661136Y-33505231D01*
X49650997Y-33473421D01*
X49649366Y-33462496D01*
X49662291Y-33448561D01*
X49690589Y-33425940D01*
X49728346Y-33399333D01*
X49731515Y-33397228D01*
X49829100Y-33319114D01*
X49907786Y-33227982D01*
X49966891Y-33126745D01*
X50005732Y-33018318D01*
X50023628Y-32905614D01*
X50019897Y-32791548D01*
X49993857Y-32679034D01*
X49944825Y-32570985D01*
X49930400Y-32547345D01*
X49855369Y-32451887D01*
X49766730Y-32375232D01*
X49667549Y-32317780D01*
X49560895Y-32279929D01*
X49449836Y-32262078D01*
X49337439Y-32264625D01*
X49226773Y-32287970D01*
X49120906Y-32332510D01*
X49022905Y-32398645D01*
X48992590Y-32425487D01*
X48915438Y-32509512D01*
X48859218Y-32597966D01*
X48820653Y-32697115D01*
X48799174Y-32795303D01*
X48793872Y-32905697D01*
X48811552Y-33016640D01*
X48850419Y-33124381D01*
X48908677Y-33225169D01*
X48984531Y-33315256D01*
X49076183Y-33390892D01*
X49088228Y-33398864D01*
X49126389Y-33424974D01*
X49155399Y-33447595D01*
X49169268Y-33462039D01*
X49169469Y-33462496D01*
X49166492Y-33478121D01*
X49154689Y-33513582D01*
X49135286Y-33565962D01*
X49109512Y-33632345D01*
X49078591Y-33709814D01*
X49043751Y-33795450D01*
X49006217Y-33886337D01*
X48967217Y-33979559D01*
X48927977Y-34072197D01*
X48889724Y-34161335D01*
X48853683Y-34244055D01*
X48821083Y-34317441D01*
X48793148Y-34378575D01*
X48771105Y-34424541D01*
X48756182Y-34452421D01*
X48750172Y-34459743D01*
X48731809Y-34454041D01*
X48697448Y-34438749D01*
X48653016Y-34416599D01*
X48628583Y-34403650D01*
X48524822Y-34347547D01*
X48401213Y-34431155D01*
X48338114Y-34473987D01*
X48269030Y-34521122D01*
X48204293Y-34565503D01*
X48171866Y-34587852D01*
X48126259Y-34618477D01*
X48087640Y-34642747D01*
X48061048Y-34657587D01*
X48052410Y-34660724D01*
X48039839Y-34652261D01*
X48012016Y-34628636D01*
X47971639Y-34592302D01*
X47921405Y-34545711D01*
X47864012Y-34491317D01*
X47827714Y-34456392D01*
X47764210Y-34393996D01*
X47709327Y-34338188D01*
X47665286Y-34291354D01*
X47634305Y-34255882D01*
X47618602Y-34234161D01*
X47617095Y-34229752D01*
X47624086Y-34212985D01*
X47643406Y-34179082D01*
X47672909Y-34131476D01*
X47710455Y-34073599D01*
X47753900Y-34008884D01*
X47766255Y-33990842D01*
X47811273Y-33925267D01*
X47851660Y-33866228D01*
X47885160Y-33817042D01*
X47909514Y-33781028D01*
X47922464Y-33761502D01*
X47923715Y-33759483D01*
X47921844Y-33743922D01*
X47911913Y-33709709D01*
X47895653Y-33661355D01*
X47874795Y-33603371D01*
X47851073Y-33540270D01*
X47826216Y-33476563D01*
X47801958Y-33416761D01*
X47780029Y-33365376D01*
X47762162Y-33326919D01*
X47750087Y-33305902D01*
X47749229Y-33304894D01*
X47741846Y-33298888D01*
X47729375Y-33292948D01*
X47709080Y-33286460D01*
X47678222Y-33278809D01*
X47634066Y-33269380D01*
X47573874Y-33257559D01*
X47494907Y-33242729D01*
X47394430Y-33224277D01*
X47372675Y-33220310D01*
X47308198Y-33207853D01*
X47251989Y-33195666D01*
X47209013Y-33184926D01*
X47184240Y-33176809D01*
X47180918Y-33174916D01*
X47175444Y-33158138D01*
X47170994Y-33120645D01*
X47167572Y-33066794D01*
X47165181Y-33000944D01*
X47163823Y-32927453D01*
X47163501Y-32850680D01*
X47164219Y-32774983D01*
X47165979Y-32704720D01*
X47168784Y-32644250D01*
X47172638Y-32597930D01*
X47177543Y-32570119D01*
X47180500Y-32564427D01*
X47196963Y-32558686D01*
X47234449Y-32549345D01*
X47289225Y-32537215D01*
X47357555Y-32523107D01*
X47435706Y-32507830D01*
X47478284Y-32499823D01*
X47559071Y-32484721D01*
X47631113Y-32471040D01*
X47690889Y-32459467D01*
X47734879Y-32450687D01*
X47759561Y-32445387D01*
X47763623Y-32444212D01*
X47770489Y-32430965D01*
X47785002Y-32399057D01*
X47805229Y-32353047D01*
X47829234Y-32297492D01*
X47855082Y-32236953D01*
X47880840Y-32175986D01*
X47904573Y-32119151D01*
X47924346Y-32071006D01*
X47938224Y-32036110D01*
X47944274Y-32019021D01*
X47944386Y-32018274D01*
X47937528Y-32004793D01*
X47918302Y-31973770D01*
X47888728Y-31928289D01*
X47850827Y-31871432D01*
X47806620Y-31806283D01*
X47780921Y-31768862D01*
X47734093Y-31700247D01*
X47692501Y-31637952D01*
X47658175Y-31585129D01*
X47633143Y-31544927D01*
X47619435Y-31520500D01*
X47617456Y-31515024D01*
X47625966Y-31502278D01*
X47649493Y-31475063D01*
X47685032Y-31436428D01*
X47729577Y-31389423D01*
X47780123Y-31337095D01*
X47833664Y-31282495D01*
X47887195Y-31228670D01*
X47937711Y-31178670D01*
X47982206Y-31135543D01*
X48017675Y-31102339D01*
X48041113Y-31082106D01*
X48048954Y-31077278D01*
X48061720Y-31084067D01*
X48092256Y-31103142D01*
X48137590Y-31132561D01*
X48194756Y-31170381D01*
X48260784Y-31214661D01*
X48310590Y-31248395D01*
X48562236Y-31419512D01*
X48771999Y-31333041D01*
X48981763Y-31246570D01*
X49038611Y-30945018D01*
X49095460Y-30643466D01*
X49723115Y-30643466D01*
X49779964Y-30945018D01*
X49779964Y-30945018D01*
G37*
X49779964Y-30945018D02*
X49836812Y-31246570D01*
X50256338Y-31419512D01*
X50507984Y-31248395D01*
X50578458Y-31200750D01*
X50642163Y-31158210D01*
X50696126Y-31122715D01*
X50737373Y-31096210D01*
X50762934Y-31080636D01*
X50769895Y-31077278D01*
X50782435Y-31085914D01*
X50809231Y-31109792D01*
X50847280Y-31145859D01*
X50893579Y-31191067D01*
X50945123Y-31242364D01*
X50998909Y-31296701D01*
X51051935Y-31351028D01*
X51101195Y-31402295D01*
X51143687Y-31447451D01*
X51176407Y-31483446D01*
X51196351Y-31507230D01*
X51201119Y-31515190D01*
X51194257Y-31529865D01*
X51175020Y-31562014D01*
X51145430Y-31608492D01*
X51107510Y-31666156D01*
X51063282Y-31731860D01*
X51037654Y-31769336D01*
X50990941Y-31837768D01*
X50949432Y-31899520D01*
X50915140Y-31951519D01*
X50890080Y-31990692D01*
X50876264Y-32013965D01*
X50874188Y-32018855D01*
X50878895Y-32032755D01*
X50891723Y-32065150D01*
X50910738Y-32111485D01*
X50934003Y-32167206D01*
X50959584Y-32227758D01*
X50985545Y-32288586D01*
X51009950Y-32345136D01*
X51030863Y-32392852D01*
X51046349Y-32427181D01*
X51054472Y-32443568D01*
X51054952Y-32444212D01*
X51067707Y-32447341D01*
X51101677Y-32454321D01*
X51153340Y-32464467D01*
X51219176Y-32477092D01*
X51295664Y-32491509D01*
X51340290Y-32499823D01*
X51422021Y-32515384D01*
X51495843Y-32530192D01*
X51558021Y-32543436D01*
X51604822Y-32554305D01*
X51632509Y-32561989D01*
X51638074Y-32564427D01*
X51643526Y-32580930D01*
X51647924Y-32618200D01*
X51651272Y-32671880D01*
X51653574Y-32737612D01*
X51654832Y-32811037D01*
X51655048Y-32887796D01*
X51654227Y-32963532D01*
X51652371Y-33033886D01*
X51649482Y-33094500D01*
X51645565Y-33141016D01*
X51640622Y-33169075D01*
X51637657Y-33174916D01*
X51619934Y-33181917D01*
X51582381Y-33191927D01*
X51529964Y-33203769D01*
X51467652Y-33216267D01*
X51445900Y-33220310D01*
X51341024Y-33239520D01*
X51258180Y-33254991D01*
X51194630Y-33267337D01*
X51147637Y-33277173D01*
X51114463Y-33285114D01*
X51092371Y-33291776D01*
X51078624Y-33297773D01*
X51070484Y-33303719D01*
X51069345Y-33304894D01*
X51057977Y-33323826D01*
X51040635Y-33360669D01*
X51019050Y-33410913D01*
X50994954Y-33470046D01*
X50970079Y-33533556D01*
X50946157Y-33596932D01*
X50924919Y-33655662D01*
X50908097Y-33705235D01*
X50897422Y-33741139D01*
X50894627Y-33758862D01*
X50894860Y-33759483D01*
X50904331Y-33773970D01*
X50925818Y-33805844D01*
X50957063Y-33851789D01*
X50995807Y-33908485D01*
X51039793Y-33972617D01*
X51052319Y-33990842D01*
X51096984Y-34056914D01*
X51136288Y-34117200D01*
X51168088Y-34168235D01*
X51190245Y-34206560D01*
X51200617Y-34228711D01*
X51201119Y-34231432D01*
X51192405Y-34245736D01*
X51168325Y-34274072D01*
X51131976Y-34313396D01*
X51086453Y-34360661D01*
X51034852Y-34412823D01*
X50980267Y-34466835D01*
X50925794Y-34519653D01*
X50874529Y-34568231D01*
X50829567Y-34609523D01*
X50794004Y-34640485D01*
X50770935Y-34658070D01*
X50764554Y-34660941D01*
X50749699Y-34654178D01*
X50719286Y-34635939D01*
X50678268Y-34609297D01*
X50646709Y-34587852D01*
X50589525Y-34548503D01*
X50521806Y-34502171D01*
X50453880Y-34455913D01*
X50417361Y-34431155D01*
X50293752Y-34347547D01*
X50189991Y-34403650D01*
X50142720Y-34428228D01*
X50102523Y-34447331D01*
X50075326Y-34458227D01*
X50068402Y-34459743D01*
X50060077Y-34448549D01*
X50043654Y-34416917D01*
X50020357Y-34367765D01*
X49991414Y-34304010D01*
X49958050Y-34228571D01*
X49921491Y-34144364D01*
X49882964Y-34054308D01*
X49843694Y-33961321D01*
X49804908Y-33868320D01*
X49767830Y-33778223D01*
X49733689Y-33693948D01*
X49703708Y-33618413D01*
X49679116Y-33554534D01*
X49661136Y-33505231D01*
X49650997Y-33473421D01*
X49649366Y-33462496D01*
X49662291Y-33448561D01*
X49690589Y-33425940D01*
X49728346Y-33399333D01*
X49731515Y-33397228D01*
X49829100Y-33319114D01*
X49907786Y-33227982D01*
X49966891Y-33126745D01*
X50005732Y-33018318D01*
X50023628Y-32905614D01*
X50019897Y-32791548D01*
X49993857Y-32679034D01*
X49944825Y-32570985D01*
X49930400Y-32547345D01*
X49855369Y-32451887D01*
X49766730Y-32375232D01*
X49667549Y-32317780D01*
X49560895Y-32279929D01*
X49449836Y-32262078D01*
X49337439Y-32264625D01*
X49226773Y-32287970D01*
X49120906Y-32332510D01*
X49022905Y-32398645D01*
X48992590Y-32425487D01*
X48915438Y-32509512D01*
X48859218Y-32597966D01*
X48820653Y-32697115D01*
X48799174Y-32795303D01*
X48793872Y-32905697D01*
X48811552Y-33016640D01*
X48850419Y-33124381D01*
X48908677Y-33225169D01*
X48984531Y-33315256D01*
X49076183Y-33390892D01*
X49088228Y-33398864D01*
X49126389Y-33424974D01*
X49155399Y-33447595D01*
X49169268Y-33462039D01*
X49169469Y-33462496D01*
X49166492Y-33478121D01*
X49154689Y-33513582D01*
X49135286Y-33565962D01*
X49109512Y-33632345D01*
X49078591Y-33709814D01*
X49043751Y-33795450D01*
X49006217Y-33886337D01*
X48967217Y-33979559D01*
X48927977Y-34072197D01*
X48889724Y-34161335D01*
X48853683Y-34244055D01*
X48821083Y-34317441D01*
X48793148Y-34378575D01*
X48771105Y-34424541D01*
X48756182Y-34452421D01*
X48750172Y-34459743D01*
X48731809Y-34454041D01*
X48697448Y-34438749D01*
X48653016Y-34416599D01*
X48628583Y-34403650D01*
X48524822Y-34347547D01*
X48401213Y-34431155D01*
X48338114Y-34473987D01*
X48269030Y-34521122D01*
X48204293Y-34565503D01*
X48171866Y-34587852D01*
X48126259Y-34618477D01*
X48087640Y-34642747D01*
X48061048Y-34657587D01*
X48052410Y-34660724D01*
X48039839Y-34652261D01*
X48012016Y-34628636D01*
X47971639Y-34592302D01*
X47921405Y-34545711D01*
X47864012Y-34491317D01*
X47827714Y-34456392D01*
X47764210Y-34393996D01*
X47709327Y-34338188D01*
X47665286Y-34291354D01*
X47634305Y-34255882D01*
X47618602Y-34234161D01*
X47617095Y-34229752D01*
X47624086Y-34212985D01*
X47643406Y-34179082D01*
X47672909Y-34131476D01*
X47710455Y-34073599D01*
X47753900Y-34008884D01*
X47766255Y-33990842D01*
X47811273Y-33925267D01*
X47851660Y-33866228D01*
X47885160Y-33817042D01*
X47909514Y-33781028D01*
X47922464Y-33761502D01*
X47923715Y-33759483D01*
X47921844Y-33743922D01*
X47911913Y-33709709D01*
X47895653Y-33661355D01*
X47874795Y-33603371D01*
X47851073Y-33540270D01*
X47826216Y-33476563D01*
X47801958Y-33416761D01*
X47780029Y-33365376D01*
X47762162Y-33326919D01*
X47750087Y-33305902D01*
X47749229Y-33304894D01*
X47741846Y-33298888D01*
X47729375Y-33292948D01*
X47709080Y-33286460D01*
X47678222Y-33278809D01*
X47634066Y-33269380D01*
X47573874Y-33257559D01*
X47494907Y-33242729D01*
X47394430Y-33224277D01*
X47372675Y-33220310D01*
X47308198Y-33207853D01*
X47251989Y-33195666D01*
X47209013Y-33184926D01*
X47184240Y-33176809D01*
X47180918Y-33174916D01*
X47175444Y-33158138D01*
X47170994Y-33120645D01*
X47167572Y-33066794D01*
X47165181Y-33000944D01*
X47163823Y-32927453D01*
X47163501Y-32850680D01*
X47164219Y-32774983D01*
X47165979Y-32704720D01*
X47168784Y-32644250D01*
X47172638Y-32597930D01*
X47177543Y-32570119D01*
X47180500Y-32564427D01*
X47196963Y-32558686D01*
X47234449Y-32549345D01*
X47289225Y-32537215D01*
X47357555Y-32523107D01*
X47435706Y-32507830D01*
X47478284Y-32499823D01*
X47559071Y-32484721D01*
X47631113Y-32471040D01*
X47690889Y-32459467D01*
X47734879Y-32450687D01*
X47759561Y-32445387D01*
X47763623Y-32444212D01*
X47770489Y-32430965D01*
X47785002Y-32399057D01*
X47805229Y-32353047D01*
X47829234Y-32297492D01*
X47855082Y-32236953D01*
X47880840Y-32175986D01*
X47904573Y-32119151D01*
X47924346Y-32071006D01*
X47938224Y-32036110D01*
X47944274Y-32019021D01*
X47944386Y-32018274D01*
X47937528Y-32004793D01*
X47918302Y-31973770D01*
X47888728Y-31928289D01*
X47850827Y-31871432D01*
X47806620Y-31806283D01*
X47780921Y-31768862D01*
X47734093Y-31700247D01*
X47692501Y-31637952D01*
X47658175Y-31585129D01*
X47633143Y-31544927D01*
X47619435Y-31520500D01*
X47617456Y-31515024D01*
X47625966Y-31502278D01*
X47649493Y-31475063D01*
X47685032Y-31436428D01*
X47729577Y-31389423D01*
X47780123Y-31337095D01*
X47833664Y-31282495D01*
X47887195Y-31228670D01*
X47937711Y-31178670D01*
X47982206Y-31135543D01*
X48017675Y-31102339D01*
X48041113Y-31082106D01*
X48048954Y-31077278D01*
X48061720Y-31084067D01*
X48092256Y-31103142D01*
X48137590Y-31132561D01*
X48194756Y-31170381D01*
X48260784Y-31214661D01*
X48310590Y-31248395D01*
X48562236Y-31419512D01*
X48771999Y-31333041D01*
X48981763Y-31246570D01*
X49038611Y-30945018D01*
X49095460Y-30643466D01*
X49723115Y-30643466D01*
X49779964Y-30945018D01*
D12*
X88598571Y-36186667D02*
X89074762Y-36186667D01*
X88503333Y-36472381D02*
X88836666Y-35472381D01*
X89170000Y-36472381D01*
X89836667Y-35948571D02*
X89503333Y-35948571D01*
X89503333Y-36472381D02*
X89503333Y-35472381D01*
X89979524Y-35472381D01*
X90693810Y-35948571D02*
X90360476Y-35948571D01*
X90360476Y-36472381D02*
X90360476Y-35472381D01*
X90836667Y-35472381D01*
X91741429Y-36472381D02*
X91170000Y-36472381D01*
X91455714Y-36472381D02*
X91455714Y-35472381D01*
X91360476Y-35615238D01*
X91265238Y-35710476D01*
X91170000Y-35758095D01*
X78438571Y-36186667D02*
X78914762Y-36186667D01*
X78343333Y-36472381D02*
X78676666Y-35472381D01*
X79010000Y-36472381D01*
X79676667Y-35948571D02*
X79343333Y-35948571D01*
X79343333Y-36472381D02*
X79343333Y-35472381D01*
X79819524Y-35472381D01*
X80533810Y-35948571D02*
X80200476Y-35948571D01*
X80200476Y-36472381D02*
X80200476Y-35472381D01*
X80676667Y-35472381D01*
X81010000Y-35567619D02*
X81057619Y-35520000D01*
X81152857Y-35472381D01*
X81390953Y-35472381D01*
X81486191Y-35520000D01*
X81533810Y-35567619D01*
X81581429Y-35662857D01*
X81581429Y-35758095D01*
X81533810Y-35900952D01*
X80962381Y-36472381D01*
X81581429Y-36472381D01*
X68278571Y-36186667D02*
X68754762Y-36186667D01*
X68183333Y-36472381D02*
X68516666Y-35472381D01*
X68850000Y-36472381D01*
X69516667Y-35948571D02*
X69183333Y-35948571D01*
X69183333Y-36472381D02*
X69183333Y-35472381D01*
X69659524Y-35472381D01*
X70373810Y-35948571D02*
X70040476Y-35948571D01*
X70040476Y-36472381D02*
X70040476Y-35472381D01*
X70516667Y-35472381D01*
X70802381Y-35472381D02*
X71421429Y-35472381D01*
X71088095Y-35853333D01*
X71230953Y-35853333D01*
X71326191Y-35900952D01*
X71373810Y-35948571D01*
X71421429Y-36043810D01*
X71421429Y-36281905D01*
X71373810Y-36377143D01*
X71326191Y-36424762D01*
X71230953Y-36472381D01*
X70945238Y-36472381D01*
X70850000Y-36424762D01*
X70802381Y-36377143D01*
X58118571Y-36186667D02*
X58594762Y-36186667D01*
X58023333Y-36472381D02*
X58356666Y-35472381D01*
X58690000Y-36472381D01*
X59356667Y-35948571D02*
X59023333Y-35948571D01*
X59023333Y-36472381D02*
X59023333Y-35472381D01*
X59499524Y-35472381D01*
X60213810Y-35948571D02*
X59880476Y-35948571D01*
X59880476Y-36472381D02*
X59880476Y-35472381D01*
X60356667Y-35472381D01*
X61166191Y-35805714D02*
X61166191Y-36472381D01*
X60928095Y-35424762D02*
X60690000Y-36139048D01*
X61309048Y-36139048D01*
X43076905Y-42203381D02*
X43076905Y-41203381D01*
X43315000Y-41203381D01*
X43457858Y-41251000D01*
X43553096Y-41346238D01*
X43600715Y-41441476D01*
X43648334Y-41631952D01*
X43648334Y-41774810D01*
X43600715Y-41965286D01*
X43553096Y-42060524D01*
X43457858Y-42155762D01*
X43315000Y-42203381D01*
X43076905Y-42203381D01*
X44600715Y-42203381D02*
X44029286Y-42203381D01*
X44315000Y-42203381D02*
X44315000Y-41203381D01*
X44219762Y-41346238D01*
X44124524Y-41441476D01*
X44029286Y-41489095D01*
X43076905Y-45124381D02*
X43076905Y-44124381D01*
X43315000Y-44124381D01*
X43457858Y-44172000D01*
X43553096Y-44267238D01*
X43600715Y-44362476D01*
X43648334Y-44552952D01*
X43648334Y-44695810D01*
X43600715Y-44886286D01*
X43553096Y-44981524D01*
X43457858Y-45076762D01*
X43315000Y-45124381D01*
X43076905Y-45124381D01*
X44029286Y-44219619D02*
X44076905Y-44172000D01*
X44172143Y-44124381D01*
X44410239Y-44124381D01*
X44505477Y-44172000D01*
X44553096Y-44219619D01*
X44600715Y-44314857D01*
X44600715Y-44410095D01*
X44553096Y-44552952D01*
X43981667Y-45124381D01*
X44600715Y-45124381D01*
X52411334Y-42757381D02*
X52078000Y-42281190D01*
X51839905Y-42757381D02*
X51839905Y-41757381D01*
X52220858Y-41757381D01*
X52316096Y-41805000D01*
X52363715Y-41852619D01*
X52411334Y-41947857D01*
X52411334Y-42090714D01*
X52363715Y-42185952D01*
X52316096Y-42233571D01*
X52220858Y-42281190D01*
X51839905Y-42281190D01*
X52744667Y-41757381D02*
X53411334Y-41757381D01*
X52982762Y-42757381D01*
X51935143Y-45297381D02*
X51601809Y-44821190D01*
X51363714Y-45297381D02*
X51363714Y-44297381D01*
X51744667Y-44297381D01*
X51839905Y-44345000D01*
X51887524Y-44392619D01*
X51935143Y-44487857D01*
X51935143Y-44630714D01*
X51887524Y-44725952D01*
X51839905Y-44773571D01*
X51744667Y-44821190D01*
X51363714Y-44821190D01*
X52887524Y-45297381D02*
X52316095Y-45297381D01*
X52601809Y-45297381D02*
X52601809Y-44297381D01*
X52506571Y-44440238D01*
X52411333Y-44535476D01*
X52316095Y-44583095D01*
X53839905Y-45297381D02*
X53268476Y-45297381D01*
X53554190Y-45297381D02*
X53554190Y-44297381D01*
X53458952Y-44440238D01*
X53363714Y-44535476D01*
X53268476Y-44583095D01*
X43045143Y-39836381D02*
X42711809Y-39360190D01*
X42473714Y-39836381D02*
X42473714Y-38836381D01*
X42854667Y-38836381D01*
X42949905Y-38884000D01*
X42997524Y-38931619D01*
X43045143Y-39026857D01*
X43045143Y-39169714D01*
X42997524Y-39264952D01*
X42949905Y-39312571D01*
X42854667Y-39360190D01*
X42473714Y-39360190D01*
X43426095Y-38931619D02*
X43473714Y-38884000D01*
X43568952Y-38836381D01*
X43807048Y-38836381D01*
X43902286Y-38884000D01*
X43949905Y-38931619D01*
X43997524Y-39026857D01*
X43997524Y-39122095D01*
X43949905Y-39264952D01*
X43378476Y-39836381D01*
X43997524Y-39836381D01*
X44378476Y-38931619D02*
X44426095Y-38884000D01*
X44521333Y-38836381D01*
X44759429Y-38836381D01*
X44854667Y-38884000D01*
X44902286Y-38931619D01*
X44949905Y-39026857D01*
X44949905Y-39122095D01*
X44902286Y-39264952D01*
X44330857Y-39836381D01*
X44949905Y-39836381D01*
X43045143Y-37296381D02*
X42711809Y-36820190D01*
X42473714Y-37296381D02*
X42473714Y-36296381D01*
X42854667Y-36296381D01*
X42949905Y-36344000D01*
X42997524Y-36391619D01*
X43045143Y-36486857D01*
X43045143Y-36629714D01*
X42997524Y-36724952D01*
X42949905Y-36772571D01*
X42854667Y-36820190D01*
X42473714Y-36820190D01*
X43426095Y-36391619D02*
X43473714Y-36344000D01*
X43568952Y-36296381D01*
X43807048Y-36296381D01*
X43902286Y-36344000D01*
X43949905Y-36391619D01*
X43997524Y-36486857D01*
X43997524Y-36582095D01*
X43949905Y-36724952D01*
X43378476Y-37296381D01*
X43997524Y-37296381D01*
X44330857Y-36296381D02*
X44949905Y-36296381D01*
X44616571Y-36677333D01*
X44759429Y-36677333D01*
X44854667Y-36724952D01*
X44902286Y-36772571D01*
X44949905Y-36867810D01*
X44949905Y-37105905D01*
X44902286Y-37201143D01*
X44854667Y-37248762D01*
X44759429Y-37296381D01*
X44473714Y-37296381D01*
X44378476Y-37248762D01*
X44330857Y-37201143D01*
X95972381Y-29971905D02*
X96781905Y-29971905D01*
X96877143Y-29924286D01*
X96924762Y-29876667D01*
X96972381Y-29781429D01*
X96972381Y-29590952D01*
X96924762Y-29495714D01*
X96877143Y-29448095D01*
X96781905Y-29400476D01*
X95972381Y-29400476D01*
X96067619Y-28971905D02*
X96020000Y-28924286D01*
X95972381Y-28829048D01*
X95972381Y-28590952D01*
X96020000Y-28495714D01*
X96067619Y-28448095D01*
X96162857Y-28400476D01*
X96258095Y-28400476D01*
X96400952Y-28448095D01*
X96972381Y-29019524D01*
X96972381Y-28400476D01*
X103592381Y-29971905D02*
X104401905Y-29971905D01*
X104497143Y-29924286D01*
X104544762Y-29876667D01*
X104592381Y-29781429D01*
X104592381Y-29590952D01*
X104544762Y-29495714D01*
X104497143Y-29448095D01*
X104401905Y-29400476D01*
X103592381Y-29400476D01*
X103592381Y-29019524D02*
X103592381Y-28400476D01*
X103973333Y-28733810D01*
X103973333Y-28590952D01*
X104020952Y-28495714D01*
X104068571Y-28448095D01*
X104163810Y-28400476D01*
X104401905Y-28400476D01*
X104497143Y-28448095D01*
X104544762Y-28495714D01*
X104592381Y-28590952D01*
X104592381Y-28876667D01*
X104544762Y-28971905D01*
X104497143Y-29019524D01*
X111212381Y-29971905D02*
X112021905Y-29971905D01*
X112117143Y-29924286D01*
X112164762Y-29876667D01*
X112212381Y-29781429D01*
X112212381Y-29590952D01*
X112164762Y-29495714D01*
X112117143Y-29448095D01*
X112021905Y-29400476D01*
X111212381Y-29400476D01*
X111545714Y-28495714D02*
X112212381Y-28495714D01*
X111164762Y-28733810D02*
X111879048Y-28971905D01*
X111879048Y-28352857D01*
X111212381Y-40131905D02*
X112021905Y-40131905D01*
X112117143Y-40084286D01*
X112164762Y-40036667D01*
X112212381Y-39941429D01*
X112212381Y-39750952D01*
X112164762Y-39655714D01*
X112117143Y-39608095D01*
X112021905Y-39560476D01*
X111212381Y-39560476D01*
X111212381Y-38608095D02*
X111212381Y-39084286D01*
X111688571Y-39131905D01*
X111640952Y-39084286D01*
X111593333Y-38989048D01*
X111593333Y-38750952D01*
X111640952Y-38655714D01*
X111688571Y-38608095D01*
X111783810Y-38560476D01*
X112021905Y-38560476D01*
X112117143Y-38608095D01*
X112164762Y-38655714D01*
X112212381Y-38750952D01*
X112212381Y-38989048D01*
X112164762Y-39084286D01*
X112117143Y-39131905D01*
X103592381Y-40131905D02*
X104401905Y-40131905D01*
X104497143Y-40084286D01*
X104544762Y-40036667D01*
X104592381Y-39941429D01*
X104592381Y-39750952D01*
X104544762Y-39655714D01*
X104497143Y-39608095D01*
X104401905Y-39560476D01*
X103592381Y-39560476D01*
X103592381Y-38655714D02*
X103592381Y-38846191D01*
X103640000Y-38941429D01*
X103687619Y-38989048D01*
X103830476Y-39084286D01*
X104020952Y-39131905D01*
X104401905Y-39131905D01*
X104497143Y-39084286D01*
X104544762Y-39036667D01*
X104592381Y-38941429D01*
X104592381Y-38750952D01*
X104544762Y-38655714D01*
X104497143Y-38608095D01*
X104401905Y-38560476D01*
X104163810Y-38560476D01*
X104068571Y-38608095D01*
X104020952Y-38655714D01*
X103973333Y-38750952D01*
X103973333Y-38941429D01*
X104020952Y-39036667D01*
X104068571Y-39084286D01*
X104163810Y-39131905D01*
X95972381Y-40131905D02*
X96781905Y-40131905D01*
X96877143Y-40084286D01*
X96924762Y-40036667D01*
X96972381Y-39941429D01*
X96972381Y-39750952D01*
X96924762Y-39655714D01*
X96877143Y-39608095D01*
X96781905Y-39560476D01*
X95972381Y-39560476D01*
X95972381Y-39179524D02*
X95972381Y-38512857D01*
X96972381Y-38941429D01*
X121793095Y-27900381D02*
X121793095Y-28709905D01*
X121840714Y-28805143D01*
X121888333Y-28852762D01*
X121983571Y-28900381D01*
X122174048Y-28900381D01*
X122269286Y-28852762D01*
X122316905Y-28805143D01*
X122364524Y-28709905D01*
X122364524Y-27900381D01*
X122983571Y-28328952D02*
X122888333Y-28281333D01*
X122840714Y-28233714D01*
X122793095Y-28138476D01*
X122793095Y-28090857D01*
X122840714Y-27995619D01*
X122888333Y-27948000D01*
X122983571Y-27900381D01*
X123174048Y-27900381D01*
X123269286Y-27948000D01*
X123316905Y-27995619D01*
X123364524Y-28090857D01*
X123364524Y-28138476D01*
X123316905Y-28233714D01*
X123269286Y-28281333D01*
X123174048Y-28328952D01*
X122983571Y-28328952D01*
X122888333Y-28376571D01*
X122840714Y-28424190D01*
X122793095Y-28519429D01*
X122793095Y-28709905D01*
X122840714Y-28805143D01*
X122888333Y-28852762D01*
X122983571Y-28900381D01*
X123174048Y-28900381D01*
X123269286Y-28852762D01*
X123316905Y-28805143D01*
X123364524Y-28709905D01*
X123364524Y-28519429D01*
X123316905Y-28424190D01*
X123269286Y-28376571D01*
X123174048Y-28328952D01*
X120165762Y-41726620D02*
X120213381Y-41583763D01*
X120213381Y-41345667D01*
X120165762Y-41250429D01*
X120118143Y-41202810D01*
X120022905Y-41155191D01*
X119927667Y-41155191D01*
X119832429Y-41202810D01*
X119784810Y-41250429D01*
X119737190Y-41345667D01*
X119689571Y-41536144D01*
X119641952Y-41631382D01*
X119594333Y-41679001D01*
X119499095Y-41726620D01*
X119403857Y-41726620D01*
X119308619Y-41679001D01*
X119261000Y-41631382D01*
X119213381Y-41536144D01*
X119213381Y-41298048D01*
X119261000Y-41155191D01*
X120118143Y-40155191D02*
X120165762Y-40202810D01*
X120213381Y-40345667D01*
X120213381Y-40440905D01*
X120165762Y-40583763D01*
X120070524Y-40679001D01*
X119975286Y-40726620D01*
X119784810Y-40774239D01*
X119641952Y-40774239D01*
X119451476Y-40726620D01*
X119356238Y-40679001D01*
X119261000Y-40583763D01*
X119213381Y-40440905D01*
X119213381Y-40345667D01*
X119261000Y-40202810D01*
X119308619Y-40155191D01*
X120213381Y-39250429D02*
X120213381Y-39726620D01*
X119213381Y-39726620D01*
X120165762Y-38202810D02*
X120213381Y-38059953D01*
X120213381Y-37821857D01*
X120165762Y-37726619D01*
X120118143Y-37679000D01*
X120022905Y-37631381D01*
X119927667Y-37631381D01*
X119832429Y-37679000D01*
X119784810Y-37726619D01*
X119737190Y-37821857D01*
X119689571Y-38012334D01*
X119641952Y-38107572D01*
X119594333Y-38155191D01*
X119499095Y-38202810D01*
X119403857Y-38202810D01*
X119308619Y-38155191D01*
X119261000Y-38107572D01*
X119213381Y-38012334D01*
X119213381Y-37774238D01*
X119261000Y-37631381D01*
X120118143Y-36631381D02*
X120165762Y-36679000D01*
X120213381Y-36821857D01*
X120213381Y-36917095D01*
X120165762Y-37059953D01*
X120070524Y-37155191D01*
X119975286Y-37202810D01*
X119784810Y-37250429D01*
X119641952Y-37250429D01*
X119451476Y-37202810D01*
X119356238Y-37155191D01*
X119261000Y-37059953D01*
X119213381Y-36917095D01*
X119213381Y-36821857D01*
X119261000Y-36679000D01*
X119308619Y-36631381D01*
X119927667Y-36250429D02*
X119927667Y-35774238D01*
X120213381Y-36345667D02*
X119213381Y-36012334D01*
X120213381Y-35679000D01*
X119261000Y-34059952D02*
X119213381Y-34155190D01*
X119213381Y-34298047D01*
X119261000Y-34440905D01*
X119356238Y-34536143D01*
X119451476Y-34583762D01*
X119641952Y-34631381D01*
X119784810Y-34631381D01*
X119975286Y-34583762D01*
X120070524Y-34536143D01*
X120165762Y-34440905D01*
X120213381Y-34298047D01*
X120213381Y-34202809D01*
X120165762Y-34059952D01*
X120118143Y-34012333D01*
X119784810Y-34012333D01*
X119784810Y-34202809D01*
X120213381Y-33583762D02*
X119213381Y-33583762D01*
X120213381Y-33012333D01*
X119213381Y-33012333D01*
X120213381Y-32536143D02*
X119213381Y-32536143D01*
X119213381Y-32298048D01*
X119261000Y-32155190D01*
X119356238Y-32059952D01*
X119451476Y-32012333D01*
X119641952Y-31964714D01*
X119784810Y-31964714D01*
X119975286Y-32012333D01*
X120070524Y-32059952D01*
X120165762Y-32155190D01*
X120213381Y-32298048D01*
X120213381Y-32536143D01*
X119213381Y-30917095D02*
X120213381Y-30583762D01*
X119213381Y-30250428D01*
X120165762Y-29488523D02*
X120213381Y-29583761D01*
X120213381Y-29774238D01*
X120165762Y-29869476D01*
X120118143Y-29917095D01*
X120022905Y-29964714D01*
X119737190Y-29964714D01*
X119641952Y-29917095D01*
X119594333Y-29869476D01*
X119546714Y-29774238D01*
X119546714Y-29583761D01*
X119594333Y-29488523D01*
X120165762Y-28631380D02*
X120213381Y-28726618D01*
X120213381Y-28917095D01*
X120165762Y-29012333D01*
X120118143Y-29059952D01*
X120022905Y-29107571D01*
X119737190Y-29107571D01*
X119641952Y-29059952D01*
X119594333Y-29012333D01*
X119546714Y-28917095D01*
X119546714Y-28726618D01*
X119594333Y-28631380D01*
X34290095Y-27900381D02*
X34290095Y-28709905D01*
X34337714Y-28805143D01*
X34385333Y-28852762D01*
X34480571Y-28900381D01*
X34671048Y-28900381D01*
X34766286Y-28852762D01*
X34813905Y-28805143D01*
X34861524Y-28709905D01*
X34861524Y-27900381D01*
X35385333Y-28900381D02*
X35575809Y-28900381D01*
X35671048Y-28852762D01*
X35718667Y-28805143D01*
X35813905Y-28662286D01*
X35861524Y-28471810D01*
X35861524Y-28090857D01*
X35813905Y-27995619D01*
X35766286Y-27948000D01*
X35671048Y-27900381D01*
X35480571Y-27900381D01*
X35385333Y-27948000D01*
X35337714Y-27995619D01*
X35290095Y-28090857D01*
X35290095Y-28328952D01*
X35337714Y-28424190D01*
X35385333Y-28471810D01*
X35480571Y-28519429D01*
X35671048Y-28519429D01*
X35766286Y-28471810D01*
X35813905Y-28424190D01*
X35861524Y-28328952D01*
X38250762Y-41218620D02*
X38298381Y-41075763D01*
X38298381Y-40837667D01*
X38250762Y-40742429D01*
X38203143Y-40694810D01*
X38107905Y-40647191D01*
X38012667Y-40647191D01*
X37917429Y-40694810D01*
X37869810Y-40742429D01*
X37822190Y-40837667D01*
X37774571Y-41028144D01*
X37726952Y-41123382D01*
X37679333Y-41171001D01*
X37584095Y-41218620D01*
X37488857Y-41218620D01*
X37393619Y-41171001D01*
X37346000Y-41123382D01*
X37298381Y-41028144D01*
X37298381Y-40790048D01*
X37346000Y-40647191D01*
X38203143Y-39647191D02*
X38250762Y-39694810D01*
X38298381Y-39837667D01*
X38298381Y-39932905D01*
X38250762Y-40075763D01*
X38155524Y-40171001D01*
X38060286Y-40218620D01*
X37869810Y-40266239D01*
X37726952Y-40266239D01*
X37536476Y-40218620D01*
X37441238Y-40171001D01*
X37346000Y-40075763D01*
X37298381Y-39932905D01*
X37298381Y-39837667D01*
X37346000Y-39694810D01*
X37393619Y-39647191D01*
X38298381Y-38742429D02*
X38298381Y-39218620D01*
X37298381Y-39218620D01*
X38250762Y-37694810D02*
X38298381Y-37551953D01*
X38298381Y-37313857D01*
X38250762Y-37218619D01*
X38203143Y-37171000D01*
X38107905Y-37123381D01*
X38012667Y-37123381D01*
X37917429Y-37171000D01*
X37869810Y-37218619D01*
X37822190Y-37313857D01*
X37774571Y-37504334D01*
X37726952Y-37599572D01*
X37679333Y-37647191D01*
X37584095Y-37694810D01*
X37488857Y-37694810D01*
X37393619Y-37647191D01*
X37346000Y-37599572D01*
X37298381Y-37504334D01*
X37298381Y-37266238D01*
X37346000Y-37123381D01*
X38298381Y-36694810D02*
X37298381Y-36694810D01*
X37298381Y-36456715D01*
X37346000Y-36313857D01*
X37441238Y-36218619D01*
X37536476Y-36171000D01*
X37726952Y-36123381D01*
X37869810Y-36123381D01*
X38060286Y-36171000D01*
X38155524Y-36218619D01*
X38250762Y-36313857D01*
X38298381Y-36456715D01*
X38298381Y-36694810D01*
X38012667Y-35742429D02*
X38012667Y-35266238D01*
X38298381Y-35837667D02*
X37298381Y-35504334D01*
X38298381Y-35171000D01*
X37346000Y-33551952D02*
X37298381Y-33647190D01*
X37298381Y-33790047D01*
X37346000Y-33932905D01*
X37441238Y-34028143D01*
X37536476Y-34075762D01*
X37726952Y-34123381D01*
X37869810Y-34123381D01*
X38060286Y-34075762D01*
X38155524Y-34028143D01*
X38250762Y-33932905D01*
X38298381Y-33790047D01*
X38298381Y-33694809D01*
X38250762Y-33551952D01*
X38203143Y-33504333D01*
X37869810Y-33504333D01*
X37869810Y-33694809D01*
X38298381Y-33075762D02*
X37298381Y-33075762D01*
X38298381Y-32504333D01*
X37298381Y-32504333D01*
X38298381Y-32028143D02*
X37298381Y-32028143D01*
X37298381Y-31790048D01*
X37346000Y-31647190D01*
X37441238Y-31551952D01*
X37536476Y-31504333D01*
X37726952Y-31456714D01*
X37869810Y-31456714D01*
X38060286Y-31504333D01*
X38155524Y-31551952D01*
X38250762Y-31647190D01*
X38298381Y-31790048D01*
X38298381Y-32028143D01*
X37298381Y-30409095D02*
X38298381Y-30075762D01*
X37298381Y-29742428D01*
X38250762Y-28980523D02*
X38298381Y-29075761D01*
X38298381Y-29266238D01*
X38250762Y-29361476D01*
X38203143Y-29409095D01*
X38107905Y-29456714D01*
X37822190Y-29456714D01*
X37726952Y-29409095D01*
X37679333Y-29361476D01*
X37631714Y-29266238D01*
X37631714Y-29075761D01*
X37679333Y-28980523D01*
X38250762Y-28123380D02*
X38298381Y-28218618D01*
X38298381Y-28409095D01*
X38250762Y-28504333D01*
X38203143Y-28551952D01*
X38107905Y-28599571D01*
X37822190Y-28599571D01*
X37726952Y-28551952D01*
X37679333Y-28504333D01*
X37631714Y-28409095D01*
X37631714Y-28218618D01*
X37679333Y-28123380D01*
X33988476Y-41727381D02*
X33988476Y-40727381D01*
X34321810Y-41441667D01*
X34655143Y-40727381D01*
X34655143Y-41727381D01*
X35083714Y-40822619D02*
X35131333Y-40775000D01*
X35226571Y-40727381D01*
X35464667Y-40727381D01*
X35559905Y-40775000D01*
X35607524Y-40822619D01*
X35655143Y-40917857D01*
X35655143Y-41013095D01*
X35607524Y-41155952D01*
X35036095Y-41727381D01*
X35655143Y-41727381D01*
X118189476Y-26868381D02*
X118189476Y-25868381D01*
X118522810Y-26582667D01*
X118856143Y-25868381D01*
X118856143Y-26868381D01*
X119284714Y-25963619D02*
X119332333Y-25916000D01*
X119427571Y-25868381D01*
X119665667Y-25868381D01*
X119760905Y-25916000D01*
X119808524Y-25963619D01*
X119856143Y-26058857D01*
X119856143Y-26154095D01*
X119808524Y-26296952D01*
X119237095Y-26868381D01*
X119856143Y-26868381D01*
X121618476Y-41727381D02*
X121618476Y-40727381D01*
X121951810Y-41441667D01*
X122285143Y-40727381D01*
X122285143Y-41727381D01*
X122713714Y-40822619D02*
X122761333Y-40775000D01*
X122856571Y-40727381D01*
X123094667Y-40727381D01*
X123189905Y-40775000D01*
X123237524Y-40822619D01*
X123285143Y-40917857D01*
X123285143Y-41013095D01*
X123237524Y-41155952D01*
X122666095Y-41727381D01*
X123285143Y-41727381D01*
M02*
