G04 #@! TF.FileFunction,Legend,Bot*
%FSLAX46Y46*%
G04 Gerber Fmt 4.6, Leading zero omitted, Abs format (unit mm)*
G04 Created by KiCad (PCBNEW 4.0.5+dfsg1-4) date Sat Sep 22 09:12:03 2018*
%MOMM*%
%LPD*%
G01*
G04 APERTURE LIST*
%ADD10C,0.100000*%
%ADD11C,0.200000*%
%ADD12C,0.150000*%
%ADD13C,0.120000*%
G04 APERTURE END LIST*
D10*
D11*
X53514428Y-39949381D02*
X53514428Y-38949381D01*
X53181094Y-39663667D01*
X52847761Y-38949381D01*
X52847761Y-39949381D01*
X52371571Y-39949381D02*
X52371571Y-38949381D01*
X51943000Y-39901762D02*
X51800143Y-39949381D01*
X51562047Y-39949381D01*
X51466809Y-39901762D01*
X51419190Y-39854143D01*
X51371571Y-39758905D01*
X51371571Y-39663667D01*
X51419190Y-39568429D01*
X51466809Y-39520810D01*
X51562047Y-39473190D01*
X51752524Y-39425571D01*
X51847762Y-39377952D01*
X51895381Y-39330333D01*
X51943000Y-39235095D01*
X51943000Y-39139857D01*
X51895381Y-39044619D01*
X51847762Y-38997000D01*
X51752524Y-38949381D01*
X51514428Y-38949381D01*
X51371571Y-38997000D01*
X50752524Y-38949381D02*
X50562047Y-38949381D01*
X50466809Y-38997000D01*
X50371571Y-39092238D01*
X50323952Y-39282714D01*
X50323952Y-39616048D01*
X50371571Y-39806524D01*
X50466809Y-39901762D01*
X50562047Y-39949381D01*
X50752524Y-39949381D01*
X50847762Y-39901762D01*
X50943000Y-39806524D01*
X50990619Y-39616048D01*
X50990619Y-39282714D01*
X50943000Y-39092238D01*
X50847762Y-38997000D01*
X50752524Y-38949381D01*
X39060381Y-40211572D02*
X38060381Y-40211572D01*
X38774667Y-40544906D01*
X38060381Y-40878239D01*
X39060381Y-40878239D01*
X38060381Y-41544905D02*
X38060381Y-41735382D01*
X38108000Y-41830620D01*
X38203238Y-41925858D01*
X38393714Y-41973477D01*
X38727048Y-41973477D01*
X38917524Y-41925858D01*
X39012762Y-41830620D01*
X39060381Y-41735382D01*
X39060381Y-41544905D01*
X39012762Y-41449667D01*
X38917524Y-41354429D01*
X38727048Y-41306810D01*
X38393714Y-41306810D01*
X38203238Y-41354429D01*
X38108000Y-41449667D01*
X38060381Y-41544905D01*
X39012762Y-42354429D02*
X39060381Y-42497286D01*
X39060381Y-42735382D01*
X39012762Y-42830620D01*
X38965143Y-42878239D01*
X38869905Y-42925858D01*
X38774667Y-42925858D01*
X38679429Y-42878239D01*
X38631810Y-42830620D01*
X38584190Y-42735382D01*
X38536571Y-42544905D01*
X38488952Y-42449667D01*
X38441333Y-42402048D01*
X38346095Y-42354429D01*
X38250857Y-42354429D01*
X38155619Y-42402048D01*
X38108000Y-42449667D01*
X38060381Y-42544905D01*
X38060381Y-42783001D01*
X38108000Y-42925858D01*
X39060381Y-43354429D02*
X38060381Y-43354429D01*
X41322476Y-37171381D02*
X40989143Y-38171381D01*
X40655809Y-37171381D01*
X39893904Y-38123762D02*
X39989142Y-38171381D01*
X40179619Y-38171381D01*
X40274857Y-38123762D01*
X40322476Y-38076143D01*
X40370095Y-37980905D01*
X40370095Y-37695190D01*
X40322476Y-37599952D01*
X40274857Y-37552333D01*
X40179619Y-37504714D01*
X39989142Y-37504714D01*
X39893904Y-37552333D01*
X39036761Y-38123762D02*
X39131999Y-38171381D01*
X39322476Y-38171381D01*
X39417714Y-38123762D01*
X39465333Y-38076143D01*
X39512952Y-37980905D01*
X39512952Y-37695190D01*
X39465333Y-37599952D01*
X39417714Y-37552333D01*
X39322476Y-37504714D01*
X39131999Y-37504714D01*
X39036761Y-37552333D01*
X48680619Y-46680381D02*
X49013953Y-46204190D01*
X49252048Y-46680381D02*
X49252048Y-45680381D01*
X48871095Y-45680381D01*
X48775857Y-45728000D01*
X48728238Y-45775619D01*
X48680619Y-45870857D01*
X48680619Y-46013714D01*
X48728238Y-46108952D01*
X48775857Y-46156571D01*
X48871095Y-46204190D01*
X49252048Y-46204190D01*
X48299667Y-46632762D02*
X48156810Y-46680381D01*
X47918714Y-46680381D01*
X47823476Y-46632762D01*
X47775857Y-46585143D01*
X47728238Y-46489905D01*
X47728238Y-46394667D01*
X47775857Y-46299429D01*
X47823476Y-46251810D01*
X47918714Y-46204190D01*
X48109191Y-46156571D01*
X48204429Y-46108952D01*
X48252048Y-46061333D01*
X48299667Y-45966095D01*
X48299667Y-45870857D01*
X48252048Y-45775619D01*
X48204429Y-45728000D01*
X48109191Y-45680381D01*
X47871095Y-45680381D01*
X47728238Y-45728000D01*
X47442524Y-45680381D02*
X46871095Y-45680381D01*
X47156810Y-46680381D02*
X47156810Y-45680381D01*
X42417904Y-45728000D02*
X42513142Y-45680381D01*
X42655999Y-45680381D01*
X42798857Y-45728000D01*
X42894095Y-45823238D01*
X42941714Y-45918476D01*
X42989333Y-46108952D01*
X42989333Y-46251810D01*
X42941714Y-46442286D01*
X42894095Y-46537524D01*
X42798857Y-46632762D01*
X42655999Y-46680381D01*
X42560761Y-46680381D01*
X42417904Y-46632762D01*
X42370285Y-46585143D01*
X42370285Y-46251810D01*
X42560761Y-46251810D01*
X41941714Y-46680381D02*
X41941714Y-45680381D01*
X41370285Y-46680381D01*
X41370285Y-45680381D01*
X40894095Y-46680381D02*
X40894095Y-45680381D01*
X40656000Y-45680381D01*
X40513142Y-45728000D01*
X40417904Y-45823238D01*
X40370285Y-45918476D01*
X40322666Y-46108952D01*
X40322666Y-46251810D01*
X40370285Y-46442286D01*
X40417904Y-46537524D01*
X40513142Y-46632762D01*
X40656000Y-46680381D01*
X40894095Y-46680381D01*
D12*
X43365000Y-24315000D02*
X43590000Y-24315000D01*
X43365000Y-31565000D02*
X43690000Y-31565000D01*
X50615000Y-31565000D02*
X50290000Y-31565000D01*
X50615000Y-24315000D02*
X50290000Y-24315000D01*
X43365000Y-24315000D02*
X43365000Y-24640000D01*
X50615000Y-24315000D02*
X50615000Y-24640000D01*
X50615000Y-31565000D02*
X50615000Y-31240000D01*
X43365000Y-31565000D02*
X43365000Y-31240000D01*
X43590000Y-24315000D02*
X43590000Y-22890000D01*
X99330000Y-44890000D02*
X101330000Y-44890000D01*
X101330000Y-42740000D02*
X99330000Y-42740000D01*
X36560000Y-23885000D02*
X34560000Y-23885000D01*
X34560000Y-21835000D02*
X36560000Y-21835000D01*
X99330000Y-27550000D02*
X101330000Y-27550000D01*
X101330000Y-29600000D02*
X99330000Y-29600000D01*
X118609000Y-32496000D02*
X118609000Y-30496000D01*
X120659000Y-30496000D02*
X120659000Y-32496000D01*
X106950000Y-27550000D02*
X108950000Y-27550000D01*
X108950000Y-29600000D02*
X106950000Y-29600000D01*
X114570000Y-27550000D02*
X116570000Y-27550000D01*
X116570000Y-29600000D02*
X114570000Y-29600000D01*
X116570000Y-41030000D02*
X114570000Y-41030000D01*
X114570000Y-38980000D02*
X116570000Y-38980000D01*
X108950000Y-41030000D02*
X106950000Y-41030000D01*
X106950000Y-38980000D02*
X108950000Y-38980000D01*
X101330000Y-41030000D02*
X99330000Y-41030000D01*
X99330000Y-38980000D02*
X101330000Y-38980000D01*
X47331000Y-38283000D02*
X49756000Y-38283000D01*
X47081000Y-40513000D02*
X42581000Y-40513000D01*
X42331000Y-45593000D02*
X42331000Y-45313000D01*
X42331000Y-45593000D02*
X47331000Y-45593000D01*
X47331000Y-45593000D02*
X47331000Y-45313000D01*
X47331000Y-37973000D02*
X47331000Y-38253000D01*
X42331000Y-37973000D02*
X47331000Y-37973000D01*
X42331000Y-40132000D02*
X42331000Y-40259000D01*
X42331000Y-40259000D02*
X42585000Y-40513000D01*
X42585000Y-40513000D02*
X42331000Y-40767000D01*
X42331000Y-40767000D02*
X42331000Y-40894000D01*
X42331000Y-37973000D02*
X42331000Y-38253000D01*
X42331000Y-42672000D02*
X42331000Y-42799000D01*
X47331000Y-40894000D02*
X47331000Y-40767000D01*
X42585000Y-43053000D02*
X42331000Y-43307000D01*
X47077000Y-40513000D02*
X47331000Y-40259000D01*
X42331000Y-43307000D02*
X42331000Y-43434000D01*
X47331000Y-40259000D02*
X47331000Y-40132000D01*
X42331000Y-42799000D02*
X42585000Y-43053000D01*
X47331000Y-40767000D02*
X47077000Y-40513000D01*
X47331000Y-43434000D02*
X47331000Y-43307000D01*
X47331000Y-42799000D02*
X47331000Y-42672000D01*
X47077000Y-43053000D02*
X47331000Y-42799000D01*
X47331000Y-43307000D02*
X47077000Y-43053000D01*
X47081000Y-43053000D02*
X42581000Y-43053000D01*
D13*
X49532000Y-38918000D02*
X49532000Y-37988000D01*
X49532000Y-35758000D02*
X49532000Y-36688000D01*
X49532000Y-35758000D02*
X51692000Y-35758000D01*
X49532000Y-38918000D02*
X50992000Y-38918000D01*
X48512000Y-33726000D02*
X48512000Y-34656000D01*
X48512000Y-36886000D02*
X48512000Y-35956000D01*
X48512000Y-36886000D02*
X46352000Y-36886000D01*
X48512000Y-33726000D02*
X47052000Y-33726000D01*
X93220000Y-45395000D02*
X93220000Y-44465000D01*
X93220000Y-42235000D02*
X93220000Y-43165000D01*
X93220000Y-42235000D02*
X95380000Y-42235000D01*
X93220000Y-45395000D02*
X94680000Y-45395000D01*
X83060000Y-45395000D02*
X83060000Y-44465000D01*
X83060000Y-42235000D02*
X83060000Y-43165000D01*
X83060000Y-42235000D02*
X85220000Y-42235000D01*
X83060000Y-45395000D02*
X84520000Y-45395000D01*
X72900000Y-45395000D02*
X72900000Y-44465000D01*
X72900000Y-42235000D02*
X72900000Y-43165000D01*
X72900000Y-42235000D02*
X75060000Y-42235000D01*
X72900000Y-45395000D02*
X74360000Y-45395000D01*
X62740000Y-45395000D02*
X62740000Y-44465000D01*
X62740000Y-42235000D02*
X62740000Y-43165000D01*
X62740000Y-42235000D02*
X64900000Y-42235000D01*
X62740000Y-45395000D02*
X64200000Y-45395000D01*
D12*
X101330000Y-25595000D02*
X99330000Y-25595000D01*
X99330000Y-27745000D02*
X101330000Y-27745000D01*
X108950000Y-25595000D02*
X106950000Y-25595000D01*
X106950000Y-27745000D02*
X108950000Y-27745000D01*
X116570000Y-25595000D02*
X114570000Y-25595000D01*
X114570000Y-27745000D02*
X116570000Y-27745000D01*
X114570000Y-42985000D02*
X116570000Y-42985000D01*
X116570000Y-40835000D02*
X114570000Y-40835000D01*
X106950000Y-42985000D02*
X108950000Y-42985000D01*
X108950000Y-40835000D02*
X106950000Y-40835000D01*
X99330000Y-42985000D02*
X101330000Y-42985000D01*
X101330000Y-40835000D02*
X99330000Y-40835000D01*
X51578000Y-43620000D02*
X53578000Y-43620000D01*
X53578000Y-41470000D02*
X51578000Y-41470000D01*
X41207000Y-25384000D02*
X41207000Y-23384000D01*
X39057000Y-23384000D02*
X39057000Y-25384000D01*
X53610000Y-45525000D02*
X55610000Y-45525000D01*
X55610000Y-43375000D02*
X53610000Y-43375000D01*
X101330000Y-23690000D02*
X99330000Y-23690000D01*
X99330000Y-25840000D02*
X101330000Y-25840000D01*
X108950000Y-23690000D02*
X106950000Y-23690000D01*
X106950000Y-25840000D02*
X108950000Y-25840000D01*
X116570000Y-23690000D02*
X114570000Y-23690000D01*
X114570000Y-25840000D02*
X116570000Y-25840000D01*
X114570000Y-44890000D02*
X116570000Y-44890000D01*
X116570000Y-42740000D02*
X114570000Y-42740000D01*
X106950000Y-44890000D02*
X108950000Y-44890000D01*
X108950000Y-42740000D02*
X106950000Y-42740000D01*
X42688000Y-35746000D02*
X44688000Y-35746000D01*
X44688000Y-33596000D02*
X42688000Y-33596000D01*
X42688000Y-38159000D02*
X44688000Y-38159000D01*
X44688000Y-36009000D02*
X42688000Y-36009000D01*
X39057000Y-33036000D02*
X39057000Y-35036000D01*
X41207000Y-35036000D02*
X41207000Y-33036000D01*
X41207000Y-30210000D02*
X41207000Y-28210000D01*
X39057000Y-28210000D02*
X39057000Y-30210000D01*
X89340000Y-25765000D02*
X89340000Y-23765000D01*
X87190000Y-23765000D02*
X87190000Y-25765000D01*
X87435000Y-25765000D02*
X87435000Y-23765000D01*
X85285000Y-23765000D02*
X85285000Y-25765000D01*
X85285000Y-40275000D02*
X85285000Y-42275000D01*
X87435000Y-42275000D02*
X87435000Y-40275000D01*
X87190000Y-40275000D02*
X87190000Y-42275000D01*
X89340000Y-42275000D02*
X89340000Y-40275000D01*
X91000000Y-40275000D02*
X91000000Y-42275000D01*
X93150000Y-42275000D02*
X93150000Y-40275000D01*
X95055000Y-25765000D02*
X95055000Y-23765000D01*
X92905000Y-23765000D02*
X92905000Y-25765000D01*
X93150000Y-25765000D02*
X93150000Y-23765000D01*
X91000000Y-23765000D02*
X91000000Y-25765000D01*
X79180000Y-25765000D02*
X79180000Y-23765000D01*
X77030000Y-23765000D02*
X77030000Y-25765000D01*
X77275000Y-25765000D02*
X77275000Y-23765000D01*
X75125000Y-23765000D02*
X75125000Y-25765000D01*
X75125000Y-40275000D02*
X75125000Y-42275000D01*
X77275000Y-42275000D02*
X77275000Y-40275000D01*
X77030000Y-40275000D02*
X77030000Y-42275000D01*
X79180000Y-42275000D02*
X79180000Y-40275000D01*
X80840000Y-40275000D02*
X80840000Y-42275000D01*
X82990000Y-42275000D02*
X82990000Y-40275000D01*
X84895000Y-25765000D02*
X84895000Y-23765000D01*
X82745000Y-23765000D02*
X82745000Y-25765000D01*
X82990000Y-25765000D02*
X82990000Y-23765000D01*
X80840000Y-23765000D02*
X80840000Y-25765000D01*
X69020000Y-25765000D02*
X69020000Y-23765000D01*
X66870000Y-23765000D02*
X66870000Y-25765000D01*
X67115000Y-25765000D02*
X67115000Y-23765000D01*
X64965000Y-23765000D02*
X64965000Y-25765000D01*
X64965000Y-40275000D02*
X64965000Y-42275000D01*
X67115000Y-42275000D02*
X67115000Y-40275000D01*
X66870000Y-40275000D02*
X66870000Y-42275000D01*
X69020000Y-42275000D02*
X69020000Y-40275000D01*
X70680000Y-40275000D02*
X70680000Y-42275000D01*
X72830000Y-42275000D02*
X72830000Y-40275000D01*
X74735000Y-25765000D02*
X74735000Y-23765000D01*
X72585000Y-23765000D02*
X72585000Y-25765000D01*
X72830000Y-25765000D02*
X72830000Y-23765000D01*
X70680000Y-23765000D02*
X70680000Y-25765000D01*
X58860000Y-25765000D02*
X58860000Y-23765000D01*
X56710000Y-23765000D02*
X56710000Y-25765000D01*
X56955000Y-25765000D02*
X56955000Y-23765000D01*
X54805000Y-23765000D02*
X54805000Y-25765000D01*
X54805000Y-40275000D02*
X54805000Y-42275000D01*
X56955000Y-42275000D02*
X56955000Y-40275000D01*
X56710000Y-40275000D02*
X56710000Y-42275000D01*
X58860000Y-42275000D02*
X58860000Y-40275000D01*
X60520000Y-40275000D02*
X60520000Y-42275000D01*
X62670000Y-42275000D02*
X62670000Y-40275000D01*
X64575000Y-25765000D02*
X64575000Y-23765000D01*
X62425000Y-23765000D02*
X62425000Y-25765000D01*
X62670000Y-25765000D02*
X62670000Y-23765000D01*
X60520000Y-23765000D02*
X60520000Y-25765000D01*
X90535000Y-43375000D02*
X88535000Y-43375000D01*
X88535000Y-45525000D02*
X90535000Y-45525000D01*
X80375000Y-43375000D02*
X78375000Y-43375000D01*
X78375000Y-45525000D02*
X80375000Y-45525000D01*
X70215000Y-43375000D02*
X68215000Y-43375000D01*
X68215000Y-45525000D02*
X70215000Y-45525000D01*
X60055000Y-43375000D02*
X58055000Y-43375000D01*
X58055000Y-45525000D02*
X60055000Y-45525000D01*
X107950000Y-36576000D02*
X107950000Y-31750000D01*
X107950000Y-31750000D02*
X97790000Y-31750000D01*
X97790000Y-31750000D02*
X97790000Y-36576000D01*
X97790000Y-36576000D02*
X107950000Y-36576000D01*
X97790000Y-34798000D02*
X98425000Y-34798000D01*
X98425000Y-34798000D02*
X98425000Y-33528000D01*
X98425000Y-33528000D02*
X97790000Y-33528000D01*
X90932000Y-38608000D02*
X90932000Y-37846000D01*
X90932000Y-37846000D02*
X89408000Y-37846000D01*
X89408000Y-37846000D02*
X89408000Y-38608000D01*
X92456000Y-27432000D02*
X87884000Y-27432000D01*
X87884000Y-27432000D02*
X87884000Y-38608000D01*
X87884000Y-38608000D02*
X92456000Y-38608000D01*
X92456000Y-38608000D02*
X92456000Y-27432000D01*
X80772000Y-38608000D02*
X80772000Y-37846000D01*
X80772000Y-37846000D02*
X79248000Y-37846000D01*
X79248000Y-37846000D02*
X79248000Y-38608000D01*
X82296000Y-27432000D02*
X77724000Y-27432000D01*
X77724000Y-27432000D02*
X77724000Y-38608000D01*
X77724000Y-38608000D02*
X82296000Y-38608000D01*
X82296000Y-38608000D02*
X82296000Y-27432000D01*
X70612000Y-38608000D02*
X70612000Y-37846000D01*
X70612000Y-37846000D02*
X69088000Y-37846000D01*
X69088000Y-37846000D02*
X69088000Y-38608000D01*
X72136000Y-27432000D02*
X67564000Y-27432000D01*
X67564000Y-27432000D02*
X67564000Y-38608000D01*
X67564000Y-38608000D02*
X72136000Y-38608000D01*
X72136000Y-38608000D02*
X72136000Y-27432000D01*
X60452000Y-38608000D02*
X60452000Y-37846000D01*
X60452000Y-37846000D02*
X58928000Y-37846000D01*
X58928000Y-37846000D02*
X58928000Y-38608000D01*
X61976000Y-27432000D02*
X57404000Y-27432000D01*
X57404000Y-27432000D02*
X57404000Y-38608000D01*
X57404000Y-38608000D02*
X61976000Y-38608000D01*
X61976000Y-38608000D02*
X61976000Y-27432000D01*
X41392381Y-26963810D02*
X40392381Y-26963810D01*
X41297143Y-28011429D02*
X41344762Y-27963810D01*
X41392381Y-27820953D01*
X41392381Y-27725715D01*
X41344762Y-27582857D01*
X41249524Y-27487619D01*
X41154286Y-27440000D01*
X40963810Y-27392381D01*
X40820952Y-27392381D01*
X40630476Y-27440000D01*
X40535238Y-27487619D01*
X40440000Y-27582857D01*
X40392381Y-27725715D01*
X40392381Y-27820953D01*
X40440000Y-27963810D01*
X40487619Y-28011429D01*
X41392381Y-28963810D02*
X41392381Y-28392381D01*
X41392381Y-28678095D02*
X40392381Y-28678095D01*
X40535238Y-28582857D01*
X40630476Y-28487619D01*
X40678095Y-28392381D01*
X100972857Y-41967381D02*
X101306191Y-41491190D01*
X101544286Y-41967381D02*
X101544286Y-40967381D01*
X101163333Y-40967381D01*
X101068095Y-41015000D01*
X101020476Y-41062619D01*
X100972857Y-41157857D01*
X100972857Y-41300714D01*
X101020476Y-41395952D01*
X101068095Y-41443571D01*
X101163333Y-41491190D01*
X101544286Y-41491190D01*
X100020476Y-41967381D02*
X100591905Y-41967381D01*
X100306191Y-41967381D02*
X100306191Y-40967381D01*
X100401429Y-41110238D01*
X100496667Y-41205476D01*
X100591905Y-41253095D01*
X99687143Y-40967381D02*
X99020476Y-40967381D01*
X99449048Y-41967381D01*
X35726666Y-23217143D02*
X35774285Y-23264762D01*
X35917142Y-23312381D01*
X36012380Y-23312381D01*
X36155238Y-23264762D01*
X36250476Y-23169524D01*
X36298095Y-23074286D01*
X36345714Y-22883810D01*
X36345714Y-22740952D01*
X36298095Y-22550476D01*
X36250476Y-22455238D01*
X36155238Y-22360000D01*
X36012380Y-22312381D01*
X35917142Y-22312381D01*
X35774285Y-22360000D01*
X35726666Y-22407619D01*
X34774285Y-23312381D02*
X35345714Y-23312381D01*
X35060000Y-23312381D02*
X35060000Y-22312381D01*
X35155238Y-22455238D01*
X35250476Y-22550476D01*
X35345714Y-22598095D01*
X100496666Y-26632143D02*
X100544285Y-26679762D01*
X100687142Y-26727381D01*
X100782380Y-26727381D01*
X100925238Y-26679762D01*
X101020476Y-26584524D01*
X101068095Y-26489286D01*
X101115714Y-26298810D01*
X101115714Y-26155952D01*
X101068095Y-25965476D01*
X101020476Y-25870238D01*
X100925238Y-25775000D01*
X100782380Y-25727381D01*
X100687142Y-25727381D01*
X100544285Y-25775000D01*
X100496666Y-25822619D01*
X100115714Y-25822619D02*
X100068095Y-25775000D01*
X99972857Y-25727381D01*
X99734761Y-25727381D01*
X99639523Y-25775000D01*
X99591904Y-25822619D01*
X99544285Y-25917857D01*
X99544285Y-26013095D01*
X99591904Y-26155952D01*
X100163333Y-26727381D01*
X99544285Y-26727381D01*
X117691143Y-31329334D02*
X117738762Y-31281715D01*
X117786381Y-31138858D01*
X117786381Y-31043620D01*
X117738762Y-30900762D01*
X117643524Y-30805524D01*
X117548286Y-30757905D01*
X117357810Y-30710286D01*
X117214952Y-30710286D01*
X117024476Y-30757905D01*
X116929238Y-30805524D01*
X116834000Y-30900762D01*
X116786381Y-31043620D01*
X116786381Y-31138858D01*
X116834000Y-31281715D01*
X116881619Y-31329334D01*
X116786381Y-31662667D02*
X116786381Y-32281715D01*
X117167333Y-31948381D01*
X117167333Y-32091239D01*
X117214952Y-32186477D01*
X117262571Y-32234096D01*
X117357810Y-32281715D01*
X117595905Y-32281715D01*
X117691143Y-32234096D01*
X117738762Y-32186477D01*
X117786381Y-32091239D01*
X117786381Y-31805524D01*
X117738762Y-31710286D01*
X117691143Y-31662667D01*
X108116666Y-26632143D02*
X108164285Y-26679762D01*
X108307142Y-26727381D01*
X108402380Y-26727381D01*
X108545238Y-26679762D01*
X108640476Y-26584524D01*
X108688095Y-26489286D01*
X108735714Y-26298810D01*
X108735714Y-26155952D01*
X108688095Y-25965476D01*
X108640476Y-25870238D01*
X108545238Y-25775000D01*
X108402380Y-25727381D01*
X108307142Y-25727381D01*
X108164285Y-25775000D01*
X108116666Y-25822619D01*
X107259523Y-26060714D02*
X107259523Y-26727381D01*
X107497619Y-25679762D02*
X107735714Y-26394048D01*
X107116666Y-26394048D01*
X115736666Y-26632143D02*
X115784285Y-26679762D01*
X115927142Y-26727381D01*
X116022380Y-26727381D01*
X116165238Y-26679762D01*
X116260476Y-26584524D01*
X116308095Y-26489286D01*
X116355714Y-26298810D01*
X116355714Y-26155952D01*
X116308095Y-25965476D01*
X116260476Y-25870238D01*
X116165238Y-25775000D01*
X116022380Y-25727381D01*
X115927142Y-25727381D01*
X115784285Y-25775000D01*
X115736666Y-25822619D01*
X114831904Y-25727381D02*
X115308095Y-25727381D01*
X115355714Y-26203571D01*
X115308095Y-26155952D01*
X115212857Y-26108333D01*
X114974761Y-26108333D01*
X114879523Y-26155952D01*
X114831904Y-26203571D01*
X114784285Y-26298810D01*
X114784285Y-26536905D01*
X114831904Y-26632143D01*
X114879523Y-26679762D01*
X114974761Y-26727381D01*
X115212857Y-26727381D01*
X115308095Y-26679762D01*
X115355714Y-26632143D01*
X115736666Y-42662143D02*
X115784285Y-42709762D01*
X115927142Y-42757381D01*
X116022380Y-42757381D01*
X116165238Y-42709762D01*
X116260476Y-42614524D01*
X116308095Y-42519286D01*
X116355714Y-42328810D01*
X116355714Y-42185952D01*
X116308095Y-41995476D01*
X116260476Y-41900238D01*
X116165238Y-41805000D01*
X116022380Y-41757381D01*
X115927142Y-41757381D01*
X115784285Y-41805000D01*
X115736666Y-41852619D01*
X114879523Y-41757381D02*
X115070000Y-41757381D01*
X115165238Y-41805000D01*
X115212857Y-41852619D01*
X115308095Y-41995476D01*
X115355714Y-42185952D01*
X115355714Y-42566905D01*
X115308095Y-42662143D01*
X115260476Y-42709762D01*
X115165238Y-42757381D01*
X114974761Y-42757381D01*
X114879523Y-42709762D01*
X114831904Y-42662143D01*
X114784285Y-42566905D01*
X114784285Y-42328810D01*
X114831904Y-42233571D01*
X114879523Y-42185952D01*
X114974761Y-42138333D01*
X115165238Y-42138333D01*
X115260476Y-42185952D01*
X115308095Y-42233571D01*
X115355714Y-42328810D01*
X108116666Y-42662143D02*
X108164285Y-42709762D01*
X108307142Y-42757381D01*
X108402380Y-42757381D01*
X108545238Y-42709762D01*
X108640476Y-42614524D01*
X108688095Y-42519286D01*
X108735714Y-42328810D01*
X108735714Y-42185952D01*
X108688095Y-41995476D01*
X108640476Y-41900238D01*
X108545238Y-41805000D01*
X108402380Y-41757381D01*
X108307142Y-41757381D01*
X108164285Y-41805000D01*
X108116666Y-41852619D01*
X107783333Y-41757381D02*
X107116666Y-41757381D01*
X107545238Y-42757381D01*
X100496666Y-42662143D02*
X100544285Y-42709762D01*
X100687142Y-42757381D01*
X100782380Y-42757381D01*
X100925238Y-42709762D01*
X101020476Y-42614524D01*
X101068095Y-42519286D01*
X101115714Y-42328810D01*
X101115714Y-42185952D01*
X101068095Y-41995476D01*
X101020476Y-41900238D01*
X100925238Y-41805000D01*
X100782380Y-41757381D01*
X100687142Y-41757381D01*
X100544285Y-41805000D01*
X100496666Y-41852619D01*
X99925238Y-42185952D02*
X100020476Y-42138333D01*
X100068095Y-42090714D01*
X100115714Y-41995476D01*
X100115714Y-41947857D01*
X100068095Y-41852619D01*
X100020476Y-41805000D01*
X99925238Y-41757381D01*
X99734761Y-41757381D01*
X99639523Y-41805000D01*
X99591904Y-41852619D01*
X99544285Y-41947857D01*
X99544285Y-41995476D01*
X99591904Y-42090714D01*
X99639523Y-42138333D01*
X99734761Y-42185952D01*
X99925238Y-42185952D01*
X100020476Y-42233571D01*
X100068095Y-42281190D01*
X100115714Y-42376429D01*
X100115714Y-42566905D01*
X100068095Y-42662143D01*
X100020476Y-42709762D01*
X99925238Y-42757381D01*
X99734761Y-42757381D01*
X99639523Y-42709762D01*
X99591904Y-42662143D01*
X99544285Y-42566905D01*
X99544285Y-42376429D01*
X99591904Y-42281190D01*
X99639523Y-42233571D01*
X99734761Y-42185952D01*
X51688143Y-42038715D02*
X51735762Y-41991096D01*
X51783381Y-41848239D01*
X51783381Y-41753001D01*
X51735762Y-41610143D01*
X51640524Y-41514905D01*
X51545286Y-41467286D01*
X51354810Y-41419667D01*
X51211952Y-41419667D01*
X51021476Y-41467286D01*
X50926238Y-41514905D01*
X50831000Y-41610143D01*
X50783381Y-41753001D01*
X50783381Y-41848239D01*
X50831000Y-41991096D01*
X50878619Y-42038715D01*
X50783381Y-42657762D02*
X50783381Y-42848239D01*
X50831000Y-42943477D01*
X50926238Y-43038715D01*
X51116714Y-43086334D01*
X51450048Y-43086334D01*
X51640524Y-43038715D01*
X51735762Y-42943477D01*
X51783381Y-42848239D01*
X51783381Y-42657762D01*
X51735762Y-42562524D01*
X51640524Y-42467286D01*
X51450048Y-42419667D01*
X51116714Y-42419667D01*
X50926238Y-42467286D01*
X50831000Y-42562524D01*
X50783381Y-42657762D01*
X51783381Y-43514905D02*
X50783381Y-43514905D01*
X51783381Y-44086334D01*
X50783381Y-44086334D01*
X51783381Y-45086334D02*
X51783381Y-44514905D01*
X51783381Y-44800619D02*
X50783381Y-44800619D01*
X50926238Y-44705381D01*
X51021476Y-44610143D01*
X51069095Y-44514905D01*
X50387238Y-35385619D02*
X50482476Y-35338000D01*
X50577714Y-35242762D01*
X50720571Y-35099905D01*
X50815810Y-35052286D01*
X50911048Y-35052286D01*
X50863429Y-35290381D02*
X50958667Y-35242762D01*
X51053905Y-35147524D01*
X51101524Y-34957048D01*
X51101524Y-34623714D01*
X51053905Y-34433238D01*
X50958667Y-34338000D01*
X50863429Y-34290381D01*
X50672952Y-34290381D01*
X50577714Y-34338000D01*
X50482476Y-34433238D01*
X50434857Y-34623714D01*
X50434857Y-34957048D01*
X50482476Y-35147524D01*
X50577714Y-35242762D01*
X50672952Y-35290381D01*
X50863429Y-35290381D01*
X49482476Y-35290381D02*
X50053905Y-35290381D01*
X49768191Y-35290381D02*
X49768191Y-34290381D01*
X49863429Y-34433238D01*
X49958667Y-34528476D01*
X50053905Y-34576095D01*
X47847238Y-38353619D02*
X47942476Y-38306000D01*
X48037714Y-38210762D01*
X48180571Y-38067905D01*
X48275810Y-38020286D01*
X48371048Y-38020286D01*
X48323429Y-38258381D02*
X48418667Y-38210762D01*
X48513905Y-38115524D01*
X48561524Y-37925048D01*
X48561524Y-37591714D01*
X48513905Y-37401238D01*
X48418667Y-37306000D01*
X48323429Y-37258381D01*
X48132952Y-37258381D01*
X48037714Y-37306000D01*
X47942476Y-37401238D01*
X47894857Y-37591714D01*
X47894857Y-37925048D01*
X47942476Y-38115524D01*
X48037714Y-38210762D01*
X48132952Y-38258381D01*
X48323429Y-38258381D01*
X47513905Y-37353619D02*
X47466286Y-37306000D01*
X47371048Y-37258381D01*
X47132952Y-37258381D01*
X47037714Y-37306000D01*
X46990095Y-37353619D01*
X46942476Y-37448857D01*
X46942476Y-37544095D01*
X46990095Y-37686952D01*
X47561524Y-38258381D01*
X46942476Y-38258381D01*
X94075238Y-41862619D02*
X94170476Y-41815000D01*
X94265714Y-41719762D01*
X94408571Y-41576905D01*
X94503810Y-41529286D01*
X94599048Y-41529286D01*
X94551429Y-41767381D02*
X94646667Y-41719762D01*
X94741905Y-41624524D01*
X94789524Y-41434048D01*
X94789524Y-41100714D01*
X94741905Y-40910238D01*
X94646667Y-40815000D01*
X94551429Y-40767381D01*
X94360952Y-40767381D01*
X94265714Y-40815000D01*
X94170476Y-40910238D01*
X94122857Y-41100714D01*
X94122857Y-41434048D01*
X94170476Y-41624524D01*
X94265714Y-41719762D01*
X94360952Y-41767381D01*
X94551429Y-41767381D01*
X93789524Y-40767381D02*
X93170476Y-40767381D01*
X93503810Y-41148333D01*
X93360952Y-41148333D01*
X93265714Y-41195952D01*
X93218095Y-41243571D01*
X93170476Y-41338810D01*
X93170476Y-41576905D01*
X93218095Y-41672143D01*
X93265714Y-41719762D01*
X93360952Y-41767381D01*
X93646667Y-41767381D01*
X93741905Y-41719762D01*
X93789524Y-41672143D01*
X83915238Y-41862619D02*
X84010476Y-41815000D01*
X84105714Y-41719762D01*
X84248571Y-41576905D01*
X84343810Y-41529286D01*
X84439048Y-41529286D01*
X84391429Y-41767381D02*
X84486667Y-41719762D01*
X84581905Y-41624524D01*
X84629524Y-41434048D01*
X84629524Y-41100714D01*
X84581905Y-40910238D01*
X84486667Y-40815000D01*
X84391429Y-40767381D01*
X84200952Y-40767381D01*
X84105714Y-40815000D01*
X84010476Y-40910238D01*
X83962857Y-41100714D01*
X83962857Y-41434048D01*
X84010476Y-41624524D01*
X84105714Y-41719762D01*
X84200952Y-41767381D01*
X84391429Y-41767381D01*
X83105714Y-41100714D02*
X83105714Y-41767381D01*
X83343810Y-40719762D02*
X83581905Y-41434048D01*
X82962857Y-41434048D01*
X73755238Y-41862619D02*
X73850476Y-41815000D01*
X73945714Y-41719762D01*
X74088571Y-41576905D01*
X74183810Y-41529286D01*
X74279048Y-41529286D01*
X74231429Y-41767381D02*
X74326667Y-41719762D01*
X74421905Y-41624524D01*
X74469524Y-41434048D01*
X74469524Y-41100714D01*
X74421905Y-40910238D01*
X74326667Y-40815000D01*
X74231429Y-40767381D01*
X74040952Y-40767381D01*
X73945714Y-40815000D01*
X73850476Y-40910238D01*
X73802857Y-41100714D01*
X73802857Y-41434048D01*
X73850476Y-41624524D01*
X73945714Y-41719762D01*
X74040952Y-41767381D01*
X74231429Y-41767381D01*
X72898095Y-40767381D02*
X73374286Y-40767381D01*
X73421905Y-41243571D01*
X73374286Y-41195952D01*
X73279048Y-41148333D01*
X73040952Y-41148333D01*
X72945714Y-41195952D01*
X72898095Y-41243571D01*
X72850476Y-41338810D01*
X72850476Y-41576905D01*
X72898095Y-41672143D01*
X72945714Y-41719762D01*
X73040952Y-41767381D01*
X73279048Y-41767381D01*
X73374286Y-41719762D01*
X73421905Y-41672143D01*
X63595238Y-41862619D02*
X63690476Y-41815000D01*
X63785714Y-41719762D01*
X63928571Y-41576905D01*
X64023810Y-41529286D01*
X64119048Y-41529286D01*
X64071429Y-41767381D02*
X64166667Y-41719762D01*
X64261905Y-41624524D01*
X64309524Y-41434048D01*
X64309524Y-41100714D01*
X64261905Y-40910238D01*
X64166667Y-40815000D01*
X64071429Y-40767381D01*
X63880952Y-40767381D01*
X63785714Y-40815000D01*
X63690476Y-40910238D01*
X63642857Y-41100714D01*
X63642857Y-41434048D01*
X63690476Y-41624524D01*
X63785714Y-41719762D01*
X63880952Y-41767381D01*
X64071429Y-41767381D01*
X62785714Y-40767381D02*
X62976191Y-40767381D01*
X63071429Y-40815000D01*
X63119048Y-40862619D01*
X63214286Y-41005476D01*
X63261905Y-41195952D01*
X63261905Y-41576905D01*
X63214286Y-41672143D01*
X63166667Y-41719762D01*
X63071429Y-41767381D01*
X62880952Y-41767381D01*
X62785714Y-41719762D01*
X62738095Y-41672143D01*
X62690476Y-41576905D01*
X62690476Y-41338810D01*
X62738095Y-41243571D01*
X62785714Y-41195952D01*
X62880952Y-41148333D01*
X63071429Y-41148333D01*
X63166667Y-41195952D01*
X63214286Y-41243571D01*
X63261905Y-41338810D01*
X100496666Y-29422381D02*
X100830000Y-28946190D01*
X101068095Y-29422381D02*
X101068095Y-28422381D01*
X100687142Y-28422381D01*
X100591904Y-28470000D01*
X100544285Y-28517619D01*
X100496666Y-28612857D01*
X100496666Y-28755714D01*
X100544285Y-28850952D01*
X100591904Y-28898571D01*
X100687142Y-28946190D01*
X101068095Y-28946190D01*
X99544285Y-29422381D02*
X100115714Y-29422381D01*
X99830000Y-29422381D02*
X99830000Y-28422381D01*
X99925238Y-28565238D01*
X100020476Y-28660476D01*
X100115714Y-28708095D01*
X108116666Y-29422381D02*
X108450000Y-28946190D01*
X108688095Y-29422381D02*
X108688095Y-28422381D01*
X108307142Y-28422381D01*
X108211904Y-28470000D01*
X108164285Y-28517619D01*
X108116666Y-28612857D01*
X108116666Y-28755714D01*
X108164285Y-28850952D01*
X108211904Y-28898571D01*
X108307142Y-28946190D01*
X108688095Y-28946190D01*
X107735714Y-28517619D02*
X107688095Y-28470000D01*
X107592857Y-28422381D01*
X107354761Y-28422381D01*
X107259523Y-28470000D01*
X107211904Y-28517619D01*
X107164285Y-28612857D01*
X107164285Y-28708095D01*
X107211904Y-28850952D01*
X107783333Y-29422381D01*
X107164285Y-29422381D01*
X115736666Y-29422381D02*
X116070000Y-28946190D01*
X116308095Y-29422381D02*
X116308095Y-28422381D01*
X115927142Y-28422381D01*
X115831904Y-28470000D01*
X115784285Y-28517619D01*
X115736666Y-28612857D01*
X115736666Y-28755714D01*
X115784285Y-28850952D01*
X115831904Y-28898571D01*
X115927142Y-28946190D01*
X116308095Y-28946190D01*
X115403333Y-28422381D02*
X114784285Y-28422381D01*
X115117619Y-28803333D01*
X114974761Y-28803333D01*
X114879523Y-28850952D01*
X114831904Y-28898571D01*
X114784285Y-28993810D01*
X114784285Y-29231905D01*
X114831904Y-29327143D01*
X114879523Y-29374762D01*
X114974761Y-29422381D01*
X115260476Y-29422381D01*
X115355714Y-29374762D01*
X115403333Y-29327143D01*
X115736666Y-40062381D02*
X116070000Y-39586190D01*
X116308095Y-40062381D02*
X116308095Y-39062381D01*
X115927142Y-39062381D01*
X115831904Y-39110000D01*
X115784285Y-39157619D01*
X115736666Y-39252857D01*
X115736666Y-39395714D01*
X115784285Y-39490952D01*
X115831904Y-39538571D01*
X115927142Y-39586190D01*
X116308095Y-39586190D01*
X114879523Y-39395714D02*
X114879523Y-40062381D01*
X115117619Y-39014762D02*
X115355714Y-39729048D01*
X114736666Y-39729048D01*
X108116666Y-40062381D02*
X108450000Y-39586190D01*
X108688095Y-40062381D02*
X108688095Y-39062381D01*
X108307142Y-39062381D01*
X108211904Y-39110000D01*
X108164285Y-39157619D01*
X108116666Y-39252857D01*
X108116666Y-39395714D01*
X108164285Y-39490952D01*
X108211904Y-39538571D01*
X108307142Y-39586190D01*
X108688095Y-39586190D01*
X107211904Y-39062381D02*
X107688095Y-39062381D01*
X107735714Y-39538571D01*
X107688095Y-39490952D01*
X107592857Y-39443333D01*
X107354761Y-39443333D01*
X107259523Y-39490952D01*
X107211904Y-39538571D01*
X107164285Y-39633810D01*
X107164285Y-39871905D01*
X107211904Y-39967143D01*
X107259523Y-40014762D01*
X107354761Y-40062381D01*
X107592857Y-40062381D01*
X107688095Y-40014762D01*
X107735714Y-39967143D01*
X100496666Y-40062381D02*
X100830000Y-39586190D01*
X101068095Y-40062381D02*
X101068095Y-39062381D01*
X100687142Y-39062381D01*
X100591904Y-39110000D01*
X100544285Y-39157619D01*
X100496666Y-39252857D01*
X100496666Y-39395714D01*
X100544285Y-39490952D01*
X100591904Y-39538571D01*
X100687142Y-39586190D01*
X101068095Y-39586190D01*
X99639523Y-39062381D02*
X99830000Y-39062381D01*
X99925238Y-39110000D01*
X99972857Y-39157619D01*
X100068095Y-39300476D01*
X100115714Y-39490952D01*
X100115714Y-39871905D01*
X100068095Y-39967143D01*
X100020476Y-40014762D01*
X99925238Y-40062381D01*
X99734761Y-40062381D01*
X99639523Y-40014762D01*
X99591904Y-39967143D01*
X99544285Y-39871905D01*
X99544285Y-39633810D01*
X99591904Y-39538571D01*
X99639523Y-39490952D01*
X99734761Y-39443333D01*
X99925238Y-39443333D01*
X100020476Y-39490952D01*
X100068095Y-39538571D01*
X100115714Y-39633810D01*
X52744666Y-40697381D02*
X53078000Y-40221190D01*
X53316095Y-40697381D02*
X53316095Y-39697381D01*
X52935142Y-39697381D01*
X52839904Y-39745000D01*
X52792285Y-39792619D01*
X52744666Y-39887857D01*
X52744666Y-40030714D01*
X52792285Y-40125952D01*
X52839904Y-40173571D01*
X52935142Y-40221190D01*
X53316095Y-40221190D01*
X52173238Y-40125952D02*
X52268476Y-40078333D01*
X52316095Y-40030714D01*
X52363714Y-39935476D01*
X52363714Y-39887857D01*
X52316095Y-39792619D01*
X52268476Y-39745000D01*
X52173238Y-39697381D01*
X51982761Y-39697381D01*
X51887523Y-39745000D01*
X51839904Y-39792619D01*
X51792285Y-39887857D01*
X51792285Y-39935476D01*
X51839904Y-40030714D01*
X51887523Y-40078333D01*
X51982761Y-40125952D01*
X52173238Y-40125952D01*
X52268476Y-40173571D01*
X52316095Y-40221190D01*
X52363714Y-40316429D01*
X52363714Y-40506905D01*
X52316095Y-40602143D01*
X52268476Y-40649762D01*
X52173238Y-40697381D01*
X51982761Y-40697381D01*
X51887523Y-40649762D01*
X51839904Y-40602143D01*
X51792285Y-40506905D01*
X51792285Y-40316429D01*
X51839904Y-40221190D01*
X51887523Y-40173571D01*
X51982761Y-40125952D01*
X38284381Y-24217334D02*
X37808190Y-23884000D01*
X38284381Y-23645905D02*
X37284381Y-23645905D01*
X37284381Y-24026858D01*
X37332000Y-24122096D01*
X37379619Y-24169715D01*
X37474857Y-24217334D01*
X37617714Y-24217334D01*
X37712952Y-24169715D01*
X37760571Y-24122096D01*
X37808190Y-24026858D01*
X37808190Y-23645905D01*
X38284381Y-24693524D02*
X38284381Y-24884000D01*
X38236762Y-24979239D01*
X38189143Y-25026858D01*
X38046286Y-25122096D01*
X37855810Y-25169715D01*
X37474857Y-25169715D01*
X37379619Y-25122096D01*
X37332000Y-25074477D01*
X37284381Y-24979239D01*
X37284381Y-24788762D01*
X37332000Y-24693524D01*
X37379619Y-24645905D01*
X37474857Y-24598286D01*
X37712952Y-24598286D01*
X37808190Y-24645905D01*
X37855810Y-24693524D01*
X37903429Y-24788762D01*
X37903429Y-24979239D01*
X37855810Y-25074477D01*
X37808190Y-25122096D01*
X37712952Y-25169715D01*
X55252857Y-42602381D02*
X55586191Y-42126190D01*
X55824286Y-42602381D02*
X55824286Y-41602381D01*
X55443333Y-41602381D01*
X55348095Y-41650000D01*
X55300476Y-41697619D01*
X55252857Y-41792857D01*
X55252857Y-41935714D01*
X55300476Y-42030952D01*
X55348095Y-42078571D01*
X55443333Y-42126190D01*
X55824286Y-42126190D01*
X54300476Y-42602381D02*
X54871905Y-42602381D01*
X54586191Y-42602381D02*
X54586191Y-41602381D01*
X54681429Y-41745238D01*
X54776667Y-41840476D01*
X54871905Y-41888095D01*
X53681429Y-41602381D02*
X53586190Y-41602381D01*
X53490952Y-41650000D01*
X53443333Y-41697619D01*
X53395714Y-41792857D01*
X53348095Y-41983333D01*
X53348095Y-42221429D01*
X53395714Y-42411905D01*
X53443333Y-42507143D01*
X53490952Y-42554762D01*
X53586190Y-42602381D01*
X53681429Y-42602381D01*
X53776667Y-42554762D01*
X53824286Y-42507143D01*
X53871905Y-42411905D01*
X53919524Y-42221429D01*
X53919524Y-41983333D01*
X53871905Y-41792857D01*
X53824286Y-41697619D01*
X53776667Y-41650000D01*
X53681429Y-41602381D01*
X100972857Y-27517381D02*
X101306191Y-27041190D01*
X101544286Y-27517381D02*
X101544286Y-26517381D01*
X101163333Y-26517381D01*
X101068095Y-26565000D01*
X101020476Y-26612619D01*
X100972857Y-26707857D01*
X100972857Y-26850714D01*
X101020476Y-26945952D01*
X101068095Y-26993571D01*
X101163333Y-27041190D01*
X101544286Y-27041190D01*
X100020476Y-27517381D02*
X100591905Y-27517381D01*
X100306191Y-27517381D02*
X100306191Y-26517381D01*
X100401429Y-26660238D01*
X100496667Y-26755476D01*
X100591905Y-26803095D01*
X99639524Y-26612619D02*
X99591905Y-26565000D01*
X99496667Y-26517381D01*
X99258571Y-26517381D01*
X99163333Y-26565000D01*
X99115714Y-26612619D01*
X99068095Y-26707857D01*
X99068095Y-26803095D01*
X99115714Y-26945952D01*
X99687143Y-27517381D01*
X99068095Y-27517381D01*
X108592857Y-27517381D02*
X108926191Y-27041190D01*
X109164286Y-27517381D02*
X109164286Y-26517381D01*
X108783333Y-26517381D01*
X108688095Y-26565000D01*
X108640476Y-26612619D01*
X108592857Y-26707857D01*
X108592857Y-26850714D01*
X108640476Y-26945952D01*
X108688095Y-26993571D01*
X108783333Y-27041190D01*
X109164286Y-27041190D01*
X107640476Y-27517381D02*
X108211905Y-27517381D01*
X107926191Y-27517381D02*
X107926191Y-26517381D01*
X108021429Y-26660238D01*
X108116667Y-26755476D01*
X108211905Y-26803095D01*
X107307143Y-26517381D02*
X106688095Y-26517381D01*
X107021429Y-26898333D01*
X106878571Y-26898333D01*
X106783333Y-26945952D01*
X106735714Y-26993571D01*
X106688095Y-27088810D01*
X106688095Y-27326905D01*
X106735714Y-27422143D01*
X106783333Y-27469762D01*
X106878571Y-27517381D01*
X107164286Y-27517381D01*
X107259524Y-27469762D01*
X107307143Y-27422143D01*
X116212857Y-27517381D02*
X116546191Y-27041190D01*
X116784286Y-27517381D02*
X116784286Y-26517381D01*
X116403333Y-26517381D01*
X116308095Y-26565000D01*
X116260476Y-26612619D01*
X116212857Y-26707857D01*
X116212857Y-26850714D01*
X116260476Y-26945952D01*
X116308095Y-26993571D01*
X116403333Y-27041190D01*
X116784286Y-27041190D01*
X115260476Y-27517381D02*
X115831905Y-27517381D01*
X115546191Y-27517381D02*
X115546191Y-26517381D01*
X115641429Y-26660238D01*
X115736667Y-26755476D01*
X115831905Y-26803095D01*
X114403333Y-26850714D02*
X114403333Y-27517381D01*
X114641429Y-26469762D02*
X114879524Y-27184048D01*
X114260476Y-27184048D01*
X116212857Y-41967381D02*
X116546191Y-41491190D01*
X116784286Y-41967381D02*
X116784286Y-40967381D01*
X116403333Y-40967381D01*
X116308095Y-41015000D01*
X116260476Y-41062619D01*
X116212857Y-41157857D01*
X116212857Y-41300714D01*
X116260476Y-41395952D01*
X116308095Y-41443571D01*
X116403333Y-41491190D01*
X116784286Y-41491190D01*
X115260476Y-41967381D02*
X115831905Y-41967381D01*
X115546191Y-41967381D02*
X115546191Y-40967381D01*
X115641429Y-41110238D01*
X115736667Y-41205476D01*
X115831905Y-41253095D01*
X114355714Y-40967381D02*
X114831905Y-40967381D01*
X114879524Y-41443571D01*
X114831905Y-41395952D01*
X114736667Y-41348333D01*
X114498571Y-41348333D01*
X114403333Y-41395952D01*
X114355714Y-41443571D01*
X114308095Y-41538810D01*
X114308095Y-41776905D01*
X114355714Y-41872143D01*
X114403333Y-41919762D01*
X114498571Y-41967381D01*
X114736667Y-41967381D01*
X114831905Y-41919762D01*
X114879524Y-41872143D01*
X108592857Y-41967381D02*
X108926191Y-41491190D01*
X109164286Y-41967381D02*
X109164286Y-40967381D01*
X108783333Y-40967381D01*
X108688095Y-41015000D01*
X108640476Y-41062619D01*
X108592857Y-41157857D01*
X108592857Y-41300714D01*
X108640476Y-41395952D01*
X108688095Y-41443571D01*
X108783333Y-41491190D01*
X109164286Y-41491190D01*
X107640476Y-41967381D02*
X108211905Y-41967381D01*
X107926191Y-41967381D02*
X107926191Y-40967381D01*
X108021429Y-41110238D01*
X108116667Y-41205476D01*
X108211905Y-41253095D01*
X106783333Y-40967381D02*
X106973810Y-40967381D01*
X107069048Y-41015000D01*
X107116667Y-41062619D01*
X107211905Y-41205476D01*
X107259524Y-41395952D01*
X107259524Y-41776905D01*
X107211905Y-41872143D01*
X107164286Y-41919762D01*
X107069048Y-41967381D01*
X106878571Y-41967381D01*
X106783333Y-41919762D01*
X106735714Y-41872143D01*
X106688095Y-41776905D01*
X106688095Y-41538810D01*
X106735714Y-41443571D01*
X106783333Y-41395952D01*
X106878571Y-41348333D01*
X107069048Y-41348333D01*
X107164286Y-41395952D01*
X107211905Y-41443571D01*
X107259524Y-41538810D01*
X44330857Y-32823381D02*
X44664191Y-32347190D01*
X44902286Y-32823381D02*
X44902286Y-31823381D01*
X44521333Y-31823381D01*
X44426095Y-31871000D01*
X44378476Y-31918619D01*
X44330857Y-32013857D01*
X44330857Y-32156714D01*
X44378476Y-32251952D01*
X44426095Y-32299571D01*
X44521333Y-32347190D01*
X44902286Y-32347190D01*
X43378476Y-32823381D02*
X43949905Y-32823381D01*
X43664191Y-32823381D02*
X43664191Y-31823381D01*
X43759429Y-31966238D01*
X43854667Y-32061476D01*
X43949905Y-32109095D01*
X42807048Y-32251952D02*
X42902286Y-32204333D01*
X42949905Y-32156714D01*
X42997524Y-32061476D01*
X42997524Y-32013857D01*
X42949905Y-31918619D01*
X42902286Y-31871000D01*
X42807048Y-31823381D01*
X42616571Y-31823381D01*
X42521333Y-31871000D01*
X42473714Y-31918619D01*
X42426095Y-32013857D01*
X42426095Y-32061476D01*
X42473714Y-32156714D01*
X42521333Y-32204333D01*
X42616571Y-32251952D01*
X42807048Y-32251952D01*
X42902286Y-32299571D01*
X42949905Y-32347190D01*
X42997524Y-32442429D01*
X42997524Y-32632905D01*
X42949905Y-32728143D01*
X42902286Y-32775762D01*
X42807048Y-32823381D01*
X42616571Y-32823381D01*
X42521333Y-32775762D01*
X42473714Y-32728143D01*
X42426095Y-32632905D01*
X42426095Y-32442429D01*
X42473714Y-32347190D01*
X42521333Y-32299571D01*
X42616571Y-32251952D01*
X44330857Y-35236381D02*
X44664191Y-34760190D01*
X44902286Y-35236381D02*
X44902286Y-34236381D01*
X44521333Y-34236381D01*
X44426095Y-34284000D01*
X44378476Y-34331619D01*
X44330857Y-34426857D01*
X44330857Y-34569714D01*
X44378476Y-34664952D01*
X44426095Y-34712571D01*
X44521333Y-34760190D01*
X44902286Y-34760190D01*
X43378476Y-35236381D02*
X43949905Y-35236381D01*
X43664191Y-35236381D02*
X43664191Y-34236381D01*
X43759429Y-34379238D01*
X43854667Y-34474476D01*
X43949905Y-34522095D01*
X42902286Y-35236381D02*
X42711810Y-35236381D01*
X42616571Y-35188762D01*
X42568952Y-35141143D01*
X42473714Y-34998286D01*
X42426095Y-34807810D01*
X42426095Y-34426857D01*
X42473714Y-34331619D01*
X42521333Y-34284000D01*
X42616571Y-34236381D01*
X42807048Y-34236381D01*
X42902286Y-34284000D01*
X42949905Y-34331619D01*
X42997524Y-34426857D01*
X42997524Y-34664952D01*
X42949905Y-34760190D01*
X42902286Y-34807810D01*
X42807048Y-34855429D01*
X42616571Y-34855429D01*
X42521333Y-34807810D01*
X42473714Y-34760190D01*
X42426095Y-34664952D01*
X42884381Y-33393143D02*
X42408190Y-33059809D01*
X42884381Y-32821714D02*
X41884381Y-32821714D01*
X41884381Y-33202667D01*
X41932000Y-33297905D01*
X41979619Y-33345524D01*
X42074857Y-33393143D01*
X42217714Y-33393143D01*
X42312952Y-33345524D01*
X42360571Y-33297905D01*
X42408190Y-33202667D01*
X42408190Y-32821714D01*
X41979619Y-33774095D02*
X41932000Y-33821714D01*
X41884381Y-33916952D01*
X41884381Y-34155048D01*
X41932000Y-34250286D01*
X41979619Y-34297905D01*
X42074857Y-34345524D01*
X42170095Y-34345524D01*
X42312952Y-34297905D01*
X42884381Y-33726476D01*
X42884381Y-34345524D01*
X41884381Y-34964571D02*
X41884381Y-35059810D01*
X41932000Y-35155048D01*
X41979619Y-35202667D01*
X42074857Y-35250286D01*
X42265333Y-35297905D01*
X42503429Y-35297905D01*
X42693905Y-35250286D01*
X42789143Y-35202667D01*
X42836762Y-35155048D01*
X42884381Y-35059810D01*
X42884381Y-34964571D01*
X42836762Y-34869333D01*
X42789143Y-34821714D01*
X42693905Y-34774095D01*
X42503429Y-34726476D01*
X42265333Y-34726476D01*
X42074857Y-34774095D01*
X41979619Y-34821714D01*
X41932000Y-34869333D01*
X41884381Y-34964571D01*
X38284381Y-28567143D02*
X37808190Y-28233809D01*
X38284381Y-27995714D02*
X37284381Y-27995714D01*
X37284381Y-28376667D01*
X37332000Y-28471905D01*
X37379619Y-28519524D01*
X37474857Y-28567143D01*
X37617714Y-28567143D01*
X37712952Y-28519524D01*
X37760571Y-28471905D01*
X37808190Y-28376667D01*
X37808190Y-27995714D01*
X37379619Y-28948095D02*
X37332000Y-28995714D01*
X37284381Y-29090952D01*
X37284381Y-29329048D01*
X37332000Y-29424286D01*
X37379619Y-29471905D01*
X37474857Y-29519524D01*
X37570095Y-29519524D01*
X37712952Y-29471905D01*
X38284381Y-28900476D01*
X38284381Y-29519524D01*
X38284381Y-30471905D02*
X38284381Y-29900476D01*
X38284381Y-30186190D02*
X37284381Y-30186190D01*
X37427238Y-30090952D01*
X37522476Y-29995714D01*
X37570095Y-29900476D01*
X86417381Y-24122143D02*
X85941190Y-23788809D01*
X86417381Y-23550714D02*
X85417381Y-23550714D01*
X85417381Y-23931667D01*
X85465000Y-24026905D01*
X85512619Y-24074524D01*
X85607857Y-24122143D01*
X85750714Y-24122143D01*
X85845952Y-24074524D01*
X85893571Y-24026905D01*
X85941190Y-23931667D01*
X85941190Y-23550714D01*
X85512619Y-24503095D02*
X85465000Y-24550714D01*
X85417381Y-24645952D01*
X85417381Y-24884048D01*
X85465000Y-24979286D01*
X85512619Y-25026905D01*
X85607857Y-25074524D01*
X85703095Y-25074524D01*
X85845952Y-25026905D01*
X86417381Y-24455476D01*
X86417381Y-25074524D01*
X85750714Y-25931667D02*
X86417381Y-25931667D01*
X85369762Y-25693571D02*
X86084048Y-25455476D01*
X86084048Y-26074524D01*
X84512381Y-24122143D02*
X84036190Y-23788809D01*
X84512381Y-23550714D02*
X83512381Y-23550714D01*
X83512381Y-23931667D01*
X83560000Y-24026905D01*
X83607619Y-24074524D01*
X83702857Y-24122143D01*
X83845714Y-24122143D01*
X83940952Y-24074524D01*
X83988571Y-24026905D01*
X84036190Y-23931667D01*
X84036190Y-23550714D01*
X83607619Y-24503095D02*
X83560000Y-24550714D01*
X83512381Y-24645952D01*
X83512381Y-24884048D01*
X83560000Y-24979286D01*
X83607619Y-25026905D01*
X83702857Y-25074524D01*
X83798095Y-25074524D01*
X83940952Y-25026905D01*
X84512381Y-24455476D01*
X84512381Y-25074524D01*
X83512381Y-25979286D02*
X83512381Y-25503095D01*
X83988571Y-25455476D01*
X83940952Y-25503095D01*
X83893333Y-25598333D01*
X83893333Y-25836429D01*
X83940952Y-25931667D01*
X83988571Y-25979286D01*
X84083810Y-26026905D01*
X84321905Y-26026905D01*
X84417143Y-25979286D01*
X84464762Y-25931667D01*
X84512381Y-25836429D01*
X84512381Y-25598333D01*
X84464762Y-25503095D01*
X84417143Y-25455476D01*
X89112381Y-40632143D02*
X88636190Y-40298809D01*
X89112381Y-40060714D02*
X88112381Y-40060714D01*
X88112381Y-40441667D01*
X88160000Y-40536905D01*
X88207619Y-40584524D01*
X88302857Y-40632143D01*
X88445714Y-40632143D01*
X88540952Y-40584524D01*
X88588571Y-40536905D01*
X88636190Y-40441667D01*
X88636190Y-40060714D01*
X88207619Y-41013095D02*
X88160000Y-41060714D01*
X88112381Y-41155952D01*
X88112381Y-41394048D01*
X88160000Y-41489286D01*
X88207619Y-41536905D01*
X88302857Y-41584524D01*
X88398095Y-41584524D01*
X88540952Y-41536905D01*
X89112381Y-40965476D01*
X89112381Y-41584524D01*
X88112381Y-42441667D02*
X88112381Y-42251190D01*
X88160000Y-42155952D01*
X88207619Y-42108333D01*
X88350476Y-42013095D01*
X88540952Y-41965476D01*
X88921905Y-41965476D01*
X89017143Y-42013095D01*
X89064762Y-42060714D01*
X89112381Y-42155952D01*
X89112381Y-42346429D01*
X89064762Y-42441667D01*
X89017143Y-42489286D01*
X88921905Y-42536905D01*
X88683810Y-42536905D01*
X88588571Y-42489286D01*
X88540952Y-42441667D01*
X88493333Y-42346429D01*
X88493333Y-42155952D01*
X88540952Y-42060714D01*
X88588571Y-42013095D01*
X88683810Y-41965476D01*
X91017381Y-40632143D02*
X90541190Y-40298809D01*
X91017381Y-40060714D02*
X90017381Y-40060714D01*
X90017381Y-40441667D01*
X90065000Y-40536905D01*
X90112619Y-40584524D01*
X90207857Y-40632143D01*
X90350714Y-40632143D01*
X90445952Y-40584524D01*
X90493571Y-40536905D01*
X90541190Y-40441667D01*
X90541190Y-40060714D01*
X90112619Y-41013095D02*
X90065000Y-41060714D01*
X90017381Y-41155952D01*
X90017381Y-41394048D01*
X90065000Y-41489286D01*
X90112619Y-41536905D01*
X90207857Y-41584524D01*
X90303095Y-41584524D01*
X90445952Y-41536905D01*
X91017381Y-40965476D01*
X91017381Y-41584524D01*
X90017381Y-41917857D02*
X90017381Y-42584524D01*
X91017381Y-42155952D01*
X94827381Y-40632143D02*
X94351190Y-40298809D01*
X94827381Y-40060714D02*
X93827381Y-40060714D01*
X93827381Y-40441667D01*
X93875000Y-40536905D01*
X93922619Y-40584524D01*
X94017857Y-40632143D01*
X94160714Y-40632143D01*
X94255952Y-40584524D01*
X94303571Y-40536905D01*
X94351190Y-40441667D01*
X94351190Y-40060714D01*
X93922619Y-41013095D02*
X93875000Y-41060714D01*
X93827381Y-41155952D01*
X93827381Y-41394048D01*
X93875000Y-41489286D01*
X93922619Y-41536905D01*
X94017857Y-41584524D01*
X94113095Y-41584524D01*
X94255952Y-41536905D01*
X94827381Y-40965476D01*
X94827381Y-41584524D01*
X94255952Y-42155952D02*
X94208333Y-42060714D01*
X94160714Y-42013095D01*
X94065476Y-41965476D01*
X94017857Y-41965476D01*
X93922619Y-42013095D01*
X93875000Y-42060714D01*
X93827381Y-42155952D01*
X93827381Y-42346429D01*
X93875000Y-42441667D01*
X93922619Y-42489286D01*
X94017857Y-42536905D01*
X94065476Y-42536905D01*
X94160714Y-42489286D01*
X94208333Y-42441667D01*
X94255952Y-42346429D01*
X94255952Y-42155952D01*
X94303571Y-42060714D01*
X94351190Y-42013095D01*
X94446429Y-41965476D01*
X94636905Y-41965476D01*
X94732143Y-42013095D01*
X94779762Y-42060714D01*
X94827381Y-42155952D01*
X94827381Y-42346429D01*
X94779762Y-42441667D01*
X94732143Y-42489286D01*
X94636905Y-42536905D01*
X94446429Y-42536905D01*
X94351190Y-42489286D01*
X94303571Y-42441667D01*
X94255952Y-42346429D01*
X92132381Y-24122143D02*
X91656190Y-23788809D01*
X92132381Y-23550714D02*
X91132381Y-23550714D01*
X91132381Y-23931667D01*
X91180000Y-24026905D01*
X91227619Y-24074524D01*
X91322857Y-24122143D01*
X91465714Y-24122143D01*
X91560952Y-24074524D01*
X91608571Y-24026905D01*
X91656190Y-23931667D01*
X91656190Y-23550714D01*
X91227619Y-24503095D02*
X91180000Y-24550714D01*
X91132381Y-24645952D01*
X91132381Y-24884048D01*
X91180000Y-24979286D01*
X91227619Y-25026905D01*
X91322857Y-25074524D01*
X91418095Y-25074524D01*
X91560952Y-25026905D01*
X92132381Y-24455476D01*
X92132381Y-25074524D01*
X92132381Y-25550714D02*
X92132381Y-25741190D01*
X92084762Y-25836429D01*
X92037143Y-25884048D01*
X91894286Y-25979286D01*
X91703810Y-26026905D01*
X91322857Y-26026905D01*
X91227619Y-25979286D01*
X91180000Y-25931667D01*
X91132381Y-25836429D01*
X91132381Y-25645952D01*
X91180000Y-25550714D01*
X91227619Y-25503095D01*
X91322857Y-25455476D01*
X91560952Y-25455476D01*
X91656190Y-25503095D01*
X91703810Y-25550714D01*
X91751429Y-25645952D01*
X91751429Y-25836429D01*
X91703810Y-25931667D01*
X91656190Y-25979286D01*
X91560952Y-26026905D01*
X90227381Y-24122143D02*
X89751190Y-23788809D01*
X90227381Y-23550714D02*
X89227381Y-23550714D01*
X89227381Y-23931667D01*
X89275000Y-24026905D01*
X89322619Y-24074524D01*
X89417857Y-24122143D01*
X89560714Y-24122143D01*
X89655952Y-24074524D01*
X89703571Y-24026905D01*
X89751190Y-23931667D01*
X89751190Y-23550714D01*
X89227381Y-24455476D02*
X89227381Y-25074524D01*
X89608333Y-24741190D01*
X89608333Y-24884048D01*
X89655952Y-24979286D01*
X89703571Y-25026905D01*
X89798810Y-25074524D01*
X90036905Y-25074524D01*
X90132143Y-25026905D01*
X90179762Y-24979286D01*
X90227381Y-24884048D01*
X90227381Y-24598333D01*
X90179762Y-24503095D01*
X90132143Y-24455476D01*
X89227381Y-25693571D02*
X89227381Y-25788810D01*
X89275000Y-25884048D01*
X89322619Y-25931667D01*
X89417857Y-25979286D01*
X89608333Y-26026905D01*
X89846429Y-26026905D01*
X90036905Y-25979286D01*
X90132143Y-25931667D01*
X90179762Y-25884048D01*
X90227381Y-25788810D01*
X90227381Y-25693571D01*
X90179762Y-25598333D01*
X90132143Y-25550714D01*
X90036905Y-25503095D01*
X89846429Y-25455476D01*
X89608333Y-25455476D01*
X89417857Y-25503095D01*
X89322619Y-25550714D01*
X89275000Y-25598333D01*
X89227381Y-25693571D01*
X76257381Y-24122143D02*
X75781190Y-23788809D01*
X76257381Y-23550714D02*
X75257381Y-23550714D01*
X75257381Y-23931667D01*
X75305000Y-24026905D01*
X75352619Y-24074524D01*
X75447857Y-24122143D01*
X75590714Y-24122143D01*
X75685952Y-24074524D01*
X75733571Y-24026905D01*
X75781190Y-23931667D01*
X75781190Y-23550714D01*
X75257381Y-24455476D02*
X75257381Y-25074524D01*
X75638333Y-24741190D01*
X75638333Y-24884048D01*
X75685952Y-24979286D01*
X75733571Y-25026905D01*
X75828810Y-25074524D01*
X76066905Y-25074524D01*
X76162143Y-25026905D01*
X76209762Y-24979286D01*
X76257381Y-24884048D01*
X76257381Y-24598333D01*
X76209762Y-24503095D01*
X76162143Y-24455476D01*
X76257381Y-26026905D02*
X76257381Y-25455476D01*
X76257381Y-25741190D02*
X75257381Y-25741190D01*
X75400238Y-25645952D01*
X75495476Y-25550714D01*
X75543095Y-25455476D01*
X74352381Y-24122143D02*
X73876190Y-23788809D01*
X74352381Y-23550714D02*
X73352381Y-23550714D01*
X73352381Y-23931667D01*
X73400000Y-24026905D01*
X73447619Y-24074524D01*
X73542857Y-24122143D01*
X73685714Y-24122143D01*
X73780952Y-24074524D01*
X73828571Y-24026905D01*
X73876190Y-23931667D01*
X73876190Y-23550714D01*
X73352381Y-24455476D02*
X73352381Y-25074524D01*
X73733333Y-24741190D01*
X73733333Y-24884048D01*
X73780952Y-24979286D01*
X73828571Y-25026905D01*
X73923810Y-25074524D01*
X74161905Y-25074524D01*
X74257143Y-25026905D01*
X74304762Y-24979286D01*
X74352381Y-24884048D01*
X74352381Y-24598333D01*
X74304762Y-24503095D01*
X74257143Y-24455476D01*
X73447619Y-25455476D02*
X73400000Y-25503095D01*
X73352381Y-25598333D01*
X73352381Y-25836429D01*
X73400000Y-25931667D01*
X73447619Y-25979286D01*
X73542857Y-26026905D01*
X73638095Y-26026905D01*
X73780952Y-25979286D01*
X74352381Y-25407857D01*
X74352381Y-26026905D01*
X78952381Y-40632143D02*
X78476190Y-40298809D01*
X78952381Y-40060714D02*
X77952381Y-40060714D01*
X77952381Y-40441667D01*
X78000000Y-40536905D01*
X78047619Y-40584524D01*
X78142857Y-40632143D01*
X78285714Y-40632143D01*
X78380952Y-40584524D01*
X78428571Y-40536905D01*
X78476190Y-40441667D01*
X78476190Y-40060714D01*
X77952381Y-40965476D02*
X77952381Y-41584524D01*
X78333333Y-41251190D01*
X78333333Y-41394048D01*
X78380952Y-41489286D01*
X78428571Y-41536905D01*
X78523810Y-41584524D01*
X78761905Y-41584524D01*
X78857143Y-41536905D01*
X78904762Y-41489286D01*
X78952381Y-41394048D01*
X78952381Y-41108333D01*
X78904762Y-41013095D01*
X78857143Y-40965476D01*
X77952381Y-41917857D02*
X77952381Y-42536905D01*
X78333333Y-42203571D01*
X78333333Y-42346429D01*
X78380952Y-42441667D01*
X78428571Y-42489286D01*
X78523810Y-42536905D01*
X78761905Y-42536905D01*
X78857143Y-42489286D01*
X78904762Y-42441667D01*
X78952381Y-42346429D01*
X78952381Y-42060714D01*
X78904762Y-41965476D01*
X78857143Y-41917857D01*
X80857381Y-40632143D02*
X80381190Y-40298809D01*
X80857381Y-40060714D02*
X79857381Y-40060714D01*
X79857381Y-40441667D01*
X79905000Y-40536905D01*
X79952619Y-40584524D01*
X80047857Y-40632143D01*
X80190714Y-40632143D01*
X80285952Y-40584524D01*
X80333571Y-40536905D01*
X80381190Y-40441667D01*
X80381190Y-40060714D01*
X79857381Y-40965476D02*
X79857381Y-41584524D01*
X80238333Y-41251190D01*
X80238333Y-41394048D01*
X80285952Y-41489286D01*
X80333571Y-41536905D01*
X80428810Y-41584524D01*
X80666905Y-41584524D01*
X80762143Y-41536905D01*
X80809762Y-41489286D01*
X80857381Y-41394048D01*
X80857381Y-41108333D01*
X80809762Y-41013095D01*
X80762143Y-40965476D01*
X80190714Y-42441667D02*
X80857381Y-42441667D01*
X79809762Y-42203571D02*
X80524048Y-41965476D01*
X80524048Y-42584524D01*
X84667381Y-40632143D02*
X84191190Y-40298809D01*
X84667381Y-40060714D02*
X83667381Y-40060714D01*
X83667381Y-40441667D01*
X83715000Y-40536905D01*
X83762619Y-40584524D01*
X83857857Y-40632143D01*
X84000714Y-40632143D01*
X84095952Y-40584524D01*
X84143571Y-40536905D01*
X84191190Y-40441667D01*
X84191190Y-40060714D01*
X83667381Y-40965476D02*
X83667381Y-41584524D01*
X84048333Y-41251190D01*
X84048333Y-41394048D01*
X84095952Y-41489286D01*
X84143571Y-41536905D01*
X84238810Y-41584524D01*
X84476905Y-41584524D01*
X84572143Y-41536905D01*
X84619762Y-41489286D01*
X84667381Y-41394048D01*
X84667381Y-41108333D01*
X84619762Y-41013095D01*
X84572143Y-40965476D01*
X83667381Y-42489286D02*
X83667381Y-42013095D01*
X84143571Y-41965476D01*
X84095952Y-42013095D01*
X84048333Y-42108333D01*
X84048333Y-42346429D01*
X84095952Y-42441667D01*
X84143571Y-42489286D01*
X84238810Y-42536905D01*
X84476905Y-42536905D01*
X84572143Y-42489286D01*
X84619762Y-42441667D01*
X84667381Y-42346429D01*
X84667381Y-42108333D01*
X84619762Y-42013095D01*
X84572143Y-41965476D01*
X81972381Y-24122143D02*
X81496190Y-23788809D01*
X81972381Y-23550714D02*
X80972381Y-23550714D01*
X80972381Y-23931667D01*
X81020000Y-24026905D01*
X81067619Y-24074524D01*
X81162857Y-24122143D01*
X81305714Y-24122143D01*
X81400952Y-24074524D01*
X81448571Y-24026905D01*
X81496190Y-23931667D01*
X81496190Y-23550714D01*
X80972381Y-24455476D02*
X80972381Y-25074524D01*
X81353333Y-24741190D01*
X81353333Y-24884048D01*
X81400952Y-24979286D01*
X81448571Y-25026905D01*
X81543810Y-25074524D01*
X81781905Y-25074524D01*
X81877143Y-25026905D01*
X81924762Y-24979286D01*
X81972381Y-24884048D01*
X81972381Y-24598333D01*
X81924762Y-24503095D01*
X81877143Y-24455476D01*
X80972381Y-25931667D02*
X80972381Y-25741190D01*
X81020000Y-25645952D01*
X81067619Y-25598333D01*
X81210476Y-25503095D01*
X81400952Y-25455476D01*
X81781905Y-25455476D01*
X81877143Y-25503095D01*
X81924762Y-25550714D01*
X81972381Y-25645952D01*
X81972381Y-25836429D01*
X81924762Y-25931667D01*
X81877143Y-25979286D01*
X81781905Y-26026905D01*
X81543810Y-26026905D01*
X81448571Y-25979286D01*
X81400952Y-25931667D01*
X81353333Y-25836429D01*
X81353333Y-25645952D01*
X81400952Y-25550714D01*
X81448571Y-25503095D01*
X81543810Y-25455476D01*
X80067381Y-24122143D02*
X79591190Y-23788809D01*
X80067381Y-23550714D02*
X79067381Y-23550714D01*
X79067381Y-23931667D01*
X79115000Y-24026905D01*
X79162619Y-24074524D01*
X79257857Y-24122143D01*
X79400714Y-24122143D01*
X79495952Y-24074524D01*
X79543571Y-24026905D01*
X79591190Y-23931667D01*
X79591190Y-23550714D01*
X79067381Y-24455476D02*
X79067381Y-25074524D01*
X79448333Y-24741190D01*
X79448333Y-24884048D01*
X79495952Y-24979286D01*
X79543571Y-25026905D01*
X79638810Y-25074524D01*
X79876905Y-25074524D01*
X79972143Y-25026905D01*
X80019762Y-24979286D01*
X80067381Y-24884048D01*
X80067381Y-24598333D01*
X80019762Y-24503095D01*
X79972143Y-24455476D01*
X79067381Y-25407857D02*
X79067381Y-26074524D01*
X80067381Y-25645952D01*
X66097381Y-24122143D02*
X65621190Y-23788809D01*
X66097381Y-23550714D02*
X65097381Y-23550714D01*
X65097381Y-23931667D01*
X65145000Y-24026905D01*
X65192619Y-24074524D01*
X65287857Y-24122143D01*
X65430714Y-24122143D01*
X65525952Y-24074524D01*
X65573571Y-24026905D01*
X65621190Y-23931667D01*
X65621190Y-23550714D01*
X65097381Y-24455476D02*
X65097381Y-25074524D01*
X65478333Y-24741190D01*
X65478333Y-24884048D01*
X65525952Y-24979286D01*
X65573571Y-25026905D01*
X65668810Y-25074524D01*
X65906905Y-25074524D01*
X66002143Y-25026905D01*
X66049762Y-24979286D01*
X66097381Y-24884048D01*
X66097381Y-24598333D01*
X66049762Y-24503095D01*
X66002143Y-24455476D01*
X65525952Y-25645952D02*
X65478333Y-25550714D01*
X65430714Y-25503095D01*
X65335476Y-25455476D01*
X65287857Y-25455476D01*
X65192619Y-25503095D01*
X65145000Y-25550714D01*
X65097381Y-25645952D01*
X65097381Y-25836429D01*
X65145000Y-25931667D01*
X65192619Y-25979286D01*
X65287857Y-26026905D01*
X65335476Y-26026905D01*
X65430714Y-25979286D01*
X65478333Y-25931667D01*
X65525952Y-25836429D01*
X65525952Y-25645952D01*
X65573571Y-25550714D01*
X65621190Y-25503095D01*
X65716429Y-25455476D01*
X65906905Y-25455476D01*
X66002143Y-25503095D01*
X66049762Y-25550714D01*
X66097381Y-25645952D01*
X66097381Y-25836429D01*
X66049762Y-25931667D01*
X66002143Y-25979286D01*
X65906905Y-26026905D01*
X65716429Y-26026905D01*
X65621190Y-25979286D01*
X65573571Y-25931667D01*
X65525952Y-25836429D01*
X64192381Y-24122143D02*
X63716190Y-23788809D01*
X64192381Y-23550714D02*
X63192381Y-23550714D01*
X63192381Y-23931667D01*
X63240000Y-24026905D01*
X63287619Y-24074524D01*
X63382857Y-24122143D01*
X63525714Y-24122143D01*
X63620952Y-24074524D01*
X63668571Y-24026905D01*
X63716190Y-23931667D01*
X63716190Y-23550714D01*
X63192381Y-24455476D02*
X63192381Y-25074524D01*
X63573333Y-24741190D01*
X63573333Y-24884048D01*
X63620952Y-24979286D01*
X63668571Y-25026905D01*
X63763810Y-25074524D01*
X64001905Y-25074524D01*
X64097143Y-25026905D01*
X64144762Y-24979286D01*
X64192381Y-24884048D01*
X64192381Y-24598333D01*
X64144762Y-24503095D01*
X64097143Y-24455476D01*
X64192381Y-25550714D02*
X64192381Y-25741190D01*
X64144762Y-25836429D01*
X64097143Y-25884048D01*
X63954286Y-25979286D01*
X63763810Y-26026905D01*
X63382857Y-26026905D01*
X63287619Y-25979286D01*
X63240000Y-25931667D01*
X63192381Y-25836429D01*
X63192381Y-25645952D01*
X63240000Y-25550714D01*
X63287619Y-25503095D01*
X63382857Y-25455476D01*
X63620952Y-25455476D01*
X63716190Y-25503095D01*
X63763810Y-25550714D01*
X63811429Y-25645952D01*
X63811429Y-25836429D01*
X63763810Y-25931667D01*
X63716190Y-25979286D01*
X63620952Y-26026905D01*
X68792381Y-40632143D02*
X68316190Y-40298809D01*
X68792381Y-40060714D02*
X67792381Y-40060714D01*
X67792381Y-40441667D01*
X67840000Y-40536905D01*
X67887619Y-40584524D01*
X67982857Y-40632143D01*
X68125714Y-40632143D01*
X68220952Y-40584524D01*
X68268571Y-40536905D01*
X68316190Y-40441667D01*
X68316190Y-40060714D01*
X68125714Y-41489286D02*
X68792381Y-41489286D01*
X67744762Y-41251190D02*
X68459048Y-41013095D01*
X68459048Y-41632143D01*
X67792381Y-42203571D02*
X67792381Y-42298810D01*
X67840000Y-42394048D01*
X67887619Y-42441667D01*
X67982857Y-42489286D01*
X68173333Y-42536905D01*
X68411429Y-42536905D01*
X68601905Y-42489286D01*
X68697143Y-42441667D01*
X68744762Y-42394048D01*
X68792381Y-42298810D01*
X68792381Y-42203571D01*
X68744762Y-42108333D01*
X68697143Y-42060714D01*
X68601905Y-42013095D01*
X68411429Y-41965476D01*
X68173333Y-41965476D01*
X67982857Y-42013095D01*
X67887619Y-42060714D01*
X67840000Y-42108333D01*
X67792381Y-42203571D01*
X70697381Y-40632143D02*
X70221190Y-40298809D01*
X70697381Y-40060714D02*
X69697381Y-40060714D01*
X69697381Y-40441667D01*
X69745000Y-40536905D01*
X69792619Y-40584524D01*
X69887857Y-40632143D01*
X70030714Y-40632143D01*
X70125952Y-40584524D01*
X70173571Y-40536905D01*
X70221190Y-40441667D01*
X70221190Y-40060714D01*
X70030714Y-41489286D02*
X70697381Y-41489286D01*
X69649762Y-41251190D02*
X70364048Y-41013095D01*
X70364048Y-41632143D01*
X70697381Y-42536905D02*
X70697381Y-41965476D01*
X70697381Y-42251190D02*
X69697381Y-42251190D01*
X69840238Y-42155952D01*
X69935476Y-42060714D01*
X69983095Y-41965476D01*
X74507381Y-40632143D02*
X74031190Y-40298809D01*
X74507381Y-40060714D02*
X73507381Y-40060714D01*
X73507381Y-40441667D01*
X73555000Y-40536905D01*
X73602619Y-40584524D01*
X73697857Y-40632143D01*
X73840714Y-40632143D01*
X73935952Y-40584524D01*
X73983571Y-40536905D01*
X74031190Y-40441667D01*
X74031190Y-40060714D01*
X73840714Y-41489286D02*
X74507381Y-41489286D01*
X73459762Y-41251190D02*
X74174048Y-41013095D01*
X74174048Y-41632143D01*
X73602619Y-41965476D02*
X73555000Y-42013095D01*
X73507381Y-42108333D01*
X73507381Y-42346429D01*
X73555000Y-42441667D01*
X73602619Y-42489286D01*
X73697857Y-42536905D01*
X73793095Y-42536905D01*
X73935952Y-42489286D01*
X74507381Y-41917857D01*
X74507381Y-42536905D01*
X71812381Y-24122143D02*
X71336190Y-23788809D01*
X71812381Y-23550714D02*
X70812381Y-23550714D01*
X70812381Y-23931667D01*
X70860000Y-24026905D01*
X70907619Y-24074524D01*
X71002857Y-24122143D01*
X71145714Y-24122143D01*
X71240952Y-24074524D01*
X71288571Y-24026905D01*
X71336190Y-23931667D01*
X71336190Y-23550714D01*
X71145714Y-24979286D02*
X71812381Y-24979286D01*
X70764762Y-24741190D02*
X71479048Y-24503095D01*
X71479048Y-25122143D01*
X70812381Y-25407857D02*
X70812381Y-26026905D01*
X71193333Y-25693571D01*
X71193333Y-25836429D01*
X71240952Y-25931667D01*
X71288571Y-25979286D01*
X71383810Y-26026905D01*
X71621905Y-26026905D01*
X71717143Y-25979286D01*
X71764762Y-25931667D01*
X71812381Y-25836429D01*
X71812381Y-25550714D01*
X71764762Y-25455476D01*
X71717143Y-25407857D01*
X69907381Y-24122143D02*
X69431190Y-23788809D01*
X69907381Y-23550714D02*
X68907381Y-23550714D01*
X68907381Y-23931667D01*
X68955000Y-24026905D01*
X69002619Y-24074524D01*
X69097857Y-24122143D01*
X69240714Y-24122143D01*
X69335952Y-24074524D01*
X69383571Y-24026905D01*
X69431190Y-23931667D01*
X69431190Y-23550714D01*
X69240714Y-24979286D02*
X69907381Y-24979286D01*
X68859762Y-24741190D02*
X69574048Y-24503095D01*
X69574048Y-25122143D01*
X69240714Y-25931667D02*
X69907381Y-25931667D01*
X68859762Y-25693571D02*
X69574048Y-25455476D01*
X69574048Y-26074524D01*
X55937381Y-24122143D02*
X55461190Y-23788809D01*
X55937381Y-23550714D02*
X54937381Y-23550714D01*
X54937381Y-23931667D01*
X54985000Y-24026905D01*
X55032619Y-24074524D01*
X55127857Y-24122143D01*
X55270714Y-24122143D01*
X55365952Y-24074524D01*
X55413571Y-24026905D01*
X55461190Y-23931667D01*
X55461190Y-23550714D01*
X55270714Y-24979286D02*
X55937381Y-24979286D01*
X54889762Y-24741190D02*
X55604048Y-24503095D01*
X55604048Y-25122143D01*
X54937381Y-25979286D02*
X54937381Y-25503095D01*
X55413571Y-25455476D01*
X55365952Y-25503095D01*
X55318333Y-25598333D01*
X55318333Y-25836429D01*
X55365952Y-25931667D01*
X55413571Y-25979286D01*
X55508810Y-26026905D01*
X55746905Y-26026905D01*
X55842143Y-25979286D01*
X55889762Y-25931667D01*
X55937381Y-25836429D01*
X55937381Y-25598333D01*
X55889762Y-25503095D01*
X55842143Y-25455476D01*
X54032381Y-24122143D02*
X53556190Y-23788809D01*
X54032381Y-23550714D02*
X53032381Y-23550714D01*
X53032381Y-23931667D01*
X53080000Y-24026905D01*
X53127619Y-24074524D01*
X53222857Y-24122143D01*
X53365714Y-24122143D01*
X53460952Y-24074524D01*
X53508571Y-24026905D01*
X53556190Y-23931667D01*
X53556190Y-23550714D01*
X53365714Y-24979286D02*
X54032381Y-24979286D01*
X52984762Y-24741190D02*
X53699048Y-24503095D01*
X53699048Y-25122143D01*
X53032381Y-25931667D02*
X53032381Y-25741190D01*
X53080000Y-25645952D01*
X53127619Y-25598333D01*
X53270476Y-25503095D01*
X53460952Y-25455476D01*
X53841905Y-25455476D01*
X53937143Y-25503095D01*
X53984762Y-25550714D01*
X54032381Y-25645952D01*
X54032381Y-25836429D01*
X53984762Y-25931667D01*
X53937143Y-25979286D01*
X53841905Y-26026905D01*
X53603810Y-26026905D01*
X53508571Y-25979286D01*
X53460952Y-25931667D01*
X53413333Y-25836429D01*
X53413333Y-25645952D01*
X53460952Y-25550714D01*
X53508571Y-25503095D01*
X53603810Y-25455476D01*
X58632381Y-40632143D02*
X58156190Y-40298809D01*
X58632381Y-40060714D02*
X57632381Y-40060714D01*
X57632381Y-40441667D01*
X57680000Y-40536905D01*
X57727619Y-40584524D01*
X57822857Y-40632143D01*
X57965714Y-40632143D01*
X58060952Y-40584524D01*
X58108571Y-40536905D01*
X58156190Y-40441667D01*
X58156190Y-40060714D01*
X57965714Y-41489286D02*
X58632381Y-41489286D01*
X57584762Y-41251190D02*
X58299048Y-41013095D01*
X58299048Y-41632143D01*
X57632381Y-41917857D02*
X57632381Y-42584524D01*
X58632381Y-42155952D01*
X60537381Y-40632143D02*
X60061190Y-40298809D01*
X60537381Y-40060714D02*
X59537381Y-40060714D01*
X59537381Y-40441667D01*
X59585000Y-40536905D01*
X59632619Y-40584524D01*
X59727857Y-40632143D01*
X59870714Y-40632143D01*
X59965952Y-40584524D01*
X60013571Y-40536905D01*
X60061190Y-40441667D01*
X60061190Y-40060714D01*
X59870714Y-41489286D02*
X60537381Y-41489286D01*
X59489762Y-41251190D02*
X60204048Y-41013095D01*
X60204048Y-41632143D01*
X59965952Y-42155952D02*
X59918333Y-42060714D01*
X59870714Y-42013095D01*
X59775476Y-41965476D01*
X59727857Y-41965476D01*
X59632619Y-42013095D01*
X59585000Y-42060714D01*
X59537381Y-42155952D01*
X59537381Y-42346429D01*
X59585000Y-42441667D01*
X59632619Y-42489286D01*
X59727857Y-42536905D01*
X59775476Y-42536905D01*
X59870714Y-42489286D01*
X59918333Y-42441667D01*
X59965952Y-42346429D01*
X59965952Y-42155952D01*
X60013571Y-42060714D01*
X60061190Y-42013095D01*
X60156429Y-41965476D01*
X60346905Y-41965476D01*
X60442143Y-42013095D01*
X60489762Y-42060714D01*
X60537381Y-42155952D01*
X60537381Y-42346429D01*
X60489762Y-42441667D01*
X60442143Y-42489286D01*
X60346905Y-42536905D01*
X60156429Y-42536905D01*
X60061190Y-42489286D01*
X60013571Y-42441667D01*
X59965952Y-42346429D01*
X64347381Y-40632143D02*
X63871190Y-40298809D01*
X64347381Y-40060714D02*
X63347381Y-40060714D01*
X63347381Y-40441667D01*
X63395000Y-40536905D01*
X63442619Y-40584524D01*
X63537857Y-40632143D01*
X63680714Y-40632143D01*
X63775952Y-40584524D01*
X63823571Y-40536905D01*
X63871190Y-40441667D01*
X63871190Y-40060714D01*
X63680714Y-41489286D02*
X64347381Y-41489286D01*
X63299762Y-41251190D02*
X64014048Y-41013095D01*
X64014048Y-41632143D01*
X64347381Y-42060714D02*
X64347381Y-42251190D01*
X64299762Y-42346429D01*
X64252143Y-42394048D01*
X64109286Y-42489286D01*
X63918810Y-42536905D01*
X63537857Y-42536905D01*
X63442619Y-42489286D01*
X63395000Y-42441667D01*
X63347381Y-42346429D01*
X63347381Y-42155952D01*
X63395000Y-42060714D01*
X63442619Y-42013095D01*
X63537857Y-41965476D01*
X63775952Y-41965476D01*
X63871190Y-42013095D01*
X63918810Y-42060714D01*
X63966429Y-42155952D01*
X63966429Y-42346429D01*
X63918810Y-42441667D01*
X63871190Y-42489286D01*
X63775952Y-42536905D01*
X61652381Y-24122143D02*
X61176190Y-23788809D01*
X61652381Y-23550714D02*
X60652381Y-23550714D01*
X60652381Y-23931667D01*
X60700000Y-24026905D01*
X60747619Y-24074524D01*
X60842857Y-24122143D01*
X60985714Y-24122143D01*
X61080952Y-24074524D01*
X61128571Y-24026905D01*
X61176190Y-23931667D01*
X61176190Y-23550714D01*
X60652381Y-25026905D02*
X60652381Y-24550714D01*
X61128571Y-24503095D01*
X61080952Y-24550714D01*
X61033333Y-24645952D01*
X61033333Y-24884048D01*
X61080952Y-24979286D01*
X61128571Y-25026905D01*
X61223810Y-25074524D01*
X61461905Y-25074524D01*
X61557143Y-25026905D01*
X61604762Y-24979286D01*
X61652381Y-24884048D01*
X61652381Y-24645952D01*
X61604762Y-24550714D01*
X61557143Y-24503095D01*
X60652381Y-25693571D02*
X60652381Y-25788810D01*
X60700000Y-25884048D01*
X60747619Y-25931667D01*
X60842857Y-25979286D01*
X61033333Y-26026905D01*
X61271429Y-26026905D01*
X61461905Y-25979286D01*
X61557143Y-25931667D01*
X61604762Y-25884048D01*
X61652381Y-25788810D01*
X61652381Y-25693571D01*
X61604762Y-25598333D01*
X61557143Y-25550714D01*
X61461905Y-25503095D01*
X61271429Y-25455476D01*
X61033333Y-25455476D01*
X60842857Y-25503095D01*
X60747619Y-25550714D01*
X60700000Y-25598333D01*
X60652381Y-25693571D01*
X59747381Y-24122143D02*
X59271190Y-23788809D01*
X59747381Y-23550714D02*
X58747381Y-23550714D01*
X58747381Y-23931667D01*
X58795000Y-24026905D01*
X58842619Y-24074524D01*
X58937857Y-24122143D01*
X59080714Y-24122143D01*
X59175952Y-24074524D01*
X59223571Y-24026905D01*
X59271190Y-23931667D01*
X59271190Y-23550714D01*
X58747381Y-25026905D02*
X58747381Y-24550714D01*
X59223571Y-24503095D01*
X59175952Y-24550714D01*
X59128333Y-24645952D01*
X59128333Y-24884048D01*
X59175952Y-24979286D01*
X59223571Y-25026905D01*
X59318810Y-25074524D01*
X59556905Y-25074524D01*
X59652143Y-25026905D01*
X59699762Y-24979286D01*
X59747381Y-24884048D01*
X59747381Y-24645952D01*
X59699762Y-24550714D01*
X59652143Y-24503095D01*
X59747381Y-26026905D02*
X59747381Y-25455476D01*
X59747381Y-25741190D02*
X58747381Y-25741190D01*
X58890238Y-25645952D01*
X58985476Y-25550714D01*
X59033095Y-25455476D01*
X90177857Y-47202381D02*
X90511191Y-46726190D01*
X90749286Y-47202381D02*
X90749286Y-46202381D01*
X90368333Y-46202381D01*
X90273095Y-46250000D01*
X90225476Y-46297619D01*
X90177857Y-46392857D01*
X90177857Y-46535714D01*
X90225476Y-46630952D01*
X90273095Y-46678571D01*
X90368333Y-46726190D01*
X90749286Y-46726190D01*
X89273095Y-46202381D02*
X89749286Y-46202381D01*
X89796905Y-46678571D01*
X89749286Y-46630952D01*
X89654048Y-46583333D01*
X89415952Y-46583333D01*
X89320714Y-46630952D01*
X89273095Y-46678571D01*
X89225476Y-46773810D01*
X89225476Y-47011905D01*
X89273095Y-47107143D01*
X89320714Y-47154762D01*
X89415952Y-47202381D01*
X89654048Y-47202381D01*
X89749286Y-47154762D01*
X89796905Y-47107143D01*
X88844524Y-46297619D02*
X88796905Y-46250000D01*
X88701667Y-46202381D01*
X88463571Y-46202381D01*
X88368333Y-46250000D01*
X88320714Y-46297619D01*
X88273095Y-46392857D01*
X88273095Y-46488095D01*
X88320714Y-46630952D01*
X88892143Y-47202381D01*
X88273095Y-47202381D01*
X80017857Y-47202381D02*
X80351191Y-46726190D01*
X80589286Y-47202381D02*
X80589286Y-46202381D01*
X80208333Y-46202381D01*
X80113095Y-46250000D01*
X80065476Y-46297619D01*
X80017857Y-46392857D01*
X80017857Y-46535714D01*
X80065476Y-46630952D01*
X80113095Y-46678571D01*
X80208333Y-46726190D01*
X80589286Y-46726190D01*
X79113095Y-46202381D02*
X79589286Y-46202381D01*
X79636905Y-46678571D01*
X79589286Y-46630952D01*
X79494048Y-46583333D01*
X79255952Y-46583333D01*
X79160714Y-46630952D01*
X79113095Y-46678571D01*
X79065476Y-46773810D01*
X79065476Y-47011905D01*
X79113095Y-47107143D01*
X79160714Y-47154762D01*
X79255952Y-47202381D01*
X79494048Y-47202381D01*
X79589286Y-47154762D01*
X79636905Y-47107143D01*
X78732143Y-46202381D02*
X78113095Y-46202381D01*
X78446429Y-46583333D01*
X78303571Y-46583333D01*
X78208333Y-46630952D01*
X78160714Y-46678571D01*
X78113095Y-46773810D01*
X78113095Y-47011905D01*
X78160714Y-47107143D01*
X78208333Y-47154762D01*
X78303571Y-47202381D01*
X78589286Y-47202381D01*
X78684524Y-47154762D01*
X78732143Y-47107143D01*
X69857857Y-47202381D02*
X70191191Y-46726190D01*
X70429286Y-47202381D02*
X70429286Y-46202381D01*
X70048333Y-46202381D01*
X69953095Y-46250000D01*
X69905476Y-46297619D01*
X69857857Y-46392857D01*
X69857857Y-46535714D01*
X69905476Y-46630952D01*
X69953095Y-46678571D01*
X70048333Y-46726190D01*
X70429286Y-46726190D01*
X68953095Y-46202381D02*
X69429286Y-46202381D01*
X69476905Y-46678571D01*
X69429286Y-46630952D01*
X69334048Y-46583333D01*
X69095952Y-46583333D01*
X69000714Y-46630952D01*
X68953095Y-46678571D01*
X68905476Y-46773810D01*
X68905476Y-47011905D01*
X68953095Y-47107143D01*
X69000714Y-47154762D01*
X69095952Y-47202381D01*
X69334048Y-47202381D01*
X69429286Y-47154762D01*
X69476905Y-47107143D01*
X68048333Y-46535714D02*
X68048333Y-47202381D01*
X68286429Y-46154762D02*
X68524524Y-46869048D01*
X67905476Y-46869048D01*
X59697857Y-47202381D02*
X60031191Y-46726190D01*
X60269286Y-47202381D02*
X60269286Y-46202381D01*
X59888333Y-46202381D01*
X59793095Y-46250000D01*
X59745476Y-46297619D01*
X59697857Y-46392857D01*
X59697857Y-46535714D01*
X59745476Y-46630952D01*
X59793095Y-46678571D01*
X59888333Y-46726190D01*
X60269286Y-46726190D01*
X58793095Y-46202381D02*
X59269286Y-46202381D01*
X59316905Y-46678571D01*
X59269286Y-46630952D01*
X59174048Y-46583333D01*
X58935952Y-46583333D01*
X58840714Y-46630952D01*
X58793095Y-46678571D01*
X58745476Y-46773810D01*
X58745476Y-47011905D01*
X58793095Y-47107143D01*
X58840714Y-47154762D01*
X58935952Y-47202381D01*
X59174048Y-47202381D01*
X59269286Y-47154762D01*
X59316905Y-47107143D01*
X57840714Y-46202381D02*
X58316905Y-46202381D01*
X58364524Y-46678571D01*
X58316905Y-46630952D01*
X58221667Y-46583333D01*
X57983571Y-46583333D01*
X57888333Y-46630952D01*
X57840714Y-46678571D01*
X57793095Y-46773810D01*
X57793095Y-47011905D01*
X57840714Y-47107143D01*
X57888333Y-47154762D01*
X57983571Y-47202381D01*
X58221667Y-47202381D01*
X58316905Y-47154762D01*
X58364524Y-47107143D01*
X103631905Y-35012381D02*
X103631905Y-35821905D01*
X103584286Y-35917143D01*
X103536667Y-35964762D01*
X103441429Y-36012381D01*
X103250952Y-36012381D01*
X103155714Y-35964762D01*
X103108095Y-35917143D01*
X103060476Y-35821905D01*
X103060476Y-35012381D01*
X102060476Y-36012381D02*
X102631905Y-36012381D01*
X102346191Y-36012381D02*
X102346191Y-35012381D01*
X102441429Y-35155238D01*
X102536667Y-35250476D01*
X102631905Y-35298095D01*
X90892381Y-31654905D02*
X91701905Y-31654905D01*
X91797143Y-31702524D01*
X91844762Y-31750143D01*
X91892381Y-31845381D01*
X91892381Y-32035858D01*
X91844762Y-32131096D01*
X91797143Y-32178715D01*
X91701905Y-32226334D01*
X90892381Y-32226334D01*
X91892381Y-33226334D02*
X91892381Y-32654905D01*
X91892381Y-32940619D02*
X90892381Y-32940619D01*
X91035238Y-32845381D01*
X91130476Y-32750143D01*
X91178095Y-32654905D01*
X90892381Y-33845381D02*
X90892381Y-33940620D01*
X90940000Y-34035858D01*
X90987619Y-34083477D01*
X91082857Y-34131096D01*
X91273333Y-34178715D01*
X91511429Y-34178715D01*
X91701905Y-34131096D01*
X91797143Y-34083477D01*
X91844762Y-34035858D01*
X91892381Y-33940620D01*
X91892381Y-33845381D01*
X91844762Y-33750143D01*
X91797143Y-33702524D01*
X91701905Y-33654905D01*
X91511429Y-33607286D01*
X91273333Y-33607286D01*
X91082857Y-33654905D01*
X90987619Y-33702524D01*
X90940000Y-33750143D01*
X90892381Y-33845381D01*
X80732381Y-31654905D02*
X81541905Y-31654905D01*
X81637143Y-31702524D01*
X81684762Y-31750143D01*
X81732381Y-31845381D01*
X81732381Y-32035858D01*
X81684762Y-32131096D01*
X81637143Y-32178715D01*
X81541905Y-32226334D01*
X80732381Y-32226334D01*
X81732381Y-33226334D02*
X81732381Y-32654905D01*
X81732381Y-32940619D02*
X80732381Y-32940619D01*
X80875238Y-32845381D01*
X80970476Y-32750143D01*
X81018095Y-32654905D01*
X81732381Y-34178715D02*
X81732381Y-33607286D01*
X81732381Y-33893000D02*
X80732381Y-33893000D01*
X80875238Y-33797762D01*
X80970476Y-33702524D01*
X81018095Y-33607286D01*
X70572381Y-31654905D02*
X71381905Y-31654905D01*
X71477143Y-31702524D01*
X71524762Y-31750143D01*
X71572381Y-31845381D01*
X71572381Y-32035858D01*
X71524762Y-32131096D01*
X71477143Y-32178715D01*
X71381905Y-32226334D01*
X70572381Y-32226334D01*
X71572381Y-33226334D02*
X71572381Y-32654905D01*
X71572381Y-32940619D02*
X70572381Y-32940619D01*
X70715238Y-32845381D01*
X70810476Y-32750143D01*
X70858095Y-32654905D01*
X70667619Y-33607286D02*
X70620000Y-33654905D01*
X70572381Y-33750143D01*
X70572381Y-33988239D01*
X70620000Y-34083477D01*
X70667619Y-34131096D01*
X70762857Y-34178715D01*
X70858095Y-34178715D01*
X71000952Y-34131096D01*
X71572381Y-33559667D01*
X71572381Y-34178715D01*
X60412381Y-31654905D02*
X61221905Y-31654905D01*
X61317143Y-31702524D01*
X61364762Y-31750143D01*
X61412381Y-31845381D01*
X61412381Y-32035858D01*
X61364762Y-32131096D01*
X61317143Y-32178715D01*
X61221905Y-32226334D01*
X60412381Y-32226334D01*
X61412381Y-33226334D02*
X61412381Y-32654905D01*
X61412381Y-32940619D02*
X60412381Y-32940619D01*
X60555238Y-32845381D01*
X60650476Y-32750143D01*
X60698095Y-32654905D01*
X60412381Y-33559667D02*
X60412381Y-34178715D01*
X60793333Y-33845381D01*
X60793333Y-33988239D01*
X60840952Y-34083477D01*
X60888571Y-34131096D01*
X60983810Y-34178715D01*
X61221905Y-34178715D01*
X61317143Y-34131096D01*
X61364762Y-34083477D01*
X61412381Y-33988239D01*
X61412381Y-33702524D01*
X61364762Y-33607286D01*
X61317143Y-33559667D01*
M02*
