M48
;DRILL file {KiCad 4.0.5+dfsg1-4} date Mon Sep 10 20:32:55 2018
;FORMAT={-:-/ absolute / metric / decimal}
FMAT,2
METRIC,TZ
T1C0.400
T2C1.016
%
G90
G05
M71
T1
X34.29Y-26.162
X34.417Y-28.702
X35.687Y-22.479
X36.576Y-32.004
X36.576Y-33.909
X37.211Y-26.289
X38.1Y-26.416
X38.1Y-31.75
X38.227Y-37.338
X38.608Y-35.941
X38.862Y-36.703
X39.243Y-33.782
X39.497Y-32.512
X40.132Y-25.908
X40.767Y-36.576
X41.402Y-44.323
X42.164Y-31.623
X42.395Y-39.751
X42.418Y-33.147
X43.18Y-31.75
X43.307Y-35.306
X43.307Y-37.211
X43.942Y-34.671
X44.069Y-37.465
X44.196Y-25.781
X44.45Y-29.972
X44.577Y-28.575
X44.958Y-25.4
X45.085Y-27.94
X45.72Y-25.019
X45.72Y-28.575
X46.355Y-29.591
X46.482Y-33.528
X46.736Y-28.194
X47.371Y-33.401
X47.371Y-37.592
X48.26Y-33.909
X48.26Y-37.084
X48.387Y-28.448
X48.623Y-22.334
X50.292Y-37.465
X50.292Y-41.275
X50.8Y-23.495
X51.181Y-44.323
X52.705Y-24.13
X52.705Y-26.67
X52.705Y-39.37
X52.959Y-41.275
X53.34Y-27.305
X53.34Y-38.608
X53.975Y-40.005
X54.61Y-32.385
X54.61Y-33.655
X54.61Y-34.925
X54.61Y-36.195
X55.245Y-27.305
X55.88Y-23.315
X55.88Y-42.725
X56.06Y-44.45
X57.785Y-23.315
X57.785Y-27.94
X57.785Y-32.385
X57.785Y-33.655
X57.785Y-34.925
X57.785Y-36.195
X57.785Y-42.725
X58.42Y-29.21
X58.42Y-33.02
X58.928Y-45.085
X59.055Y-38.735
X59.69Y-25.4
X59.69Y-27.94
X60.325Y-29.21
X61.595Y-23.315
X61.595Y-33.02
X61.595Y-42.725
X62.865Y-43.815
X63.5Y-23.315
X65.405Y-27.305
X65.405Y-38.735
X66.04Y-23.315
X66.04Y-38.1
X66.04Y-42.725
X67.945Y-23.315
X67.945Y-27.94
X67.945Y-32.385
X67.945Y-33.655
X67.945Y-34.925
X67.945Y-36.195
X67.945Y-42.725
X68.58Y-29.21
X68.58Y-33.02
X69.215Y-38.735
X69.215Y-45.085
X69.85Y-25.4
X69.85Y-27.94
X70.485Y-29.21
X71.755Y-23.315
X71.755Y-33.02
X71.755Y-42.725
X73.025Y-43.815
X73.66Y-23.315
X75.565Y-27.305
X75.565Y-37.465
X76.2Y-23.315
X76.2Y-42.725
X78.105Y-23.315
X78.105Y-27.94
X78.105Y-32.385
X78.105Y-33.655
X78.105Y-34.925
X78.105Y-36.195
X78.105Y-42.725
X78.74Y-29.21
X78.74Y-33.02
X79.121Y-45.085
X79.375Y-38.735
X80.01Y-25.4
X80.01Y-27.94
X80.645Y-29.21
X81.915Y-23.315
X81.915Y-33.02
X81.915Y-42.725
X83.185Y-43.815
X83.82Y-23.315
X85.725Y-27.305
X85.725Y-36.83
X86.36Y-23.315
X86.36Y-42.725
X88.265Y-23.315
X88.265Y-27.94
X88.265Y-32.385
X88.265Y-33.655
X88.265Y-34.925
X88.265Y-36.195
X88.265Y-42.725
X88.9Y-29.21
X88.9Y-33.02
X89.408Y-45.085
X89.535Y-38.735
X90.17Y-25.4
X90.17Y-27.94
X90.805Y-29.21
X92.075Y-23.315
X92.075Y-33.02
X92.075Y-42.725
X93.345Y-43.815
X93.98Y-23.315
X94.615Y-43.815
X95.885Y-29.21
X95.885Y-30.48
X95.885Y-31.75
X95.885Y-33.02
X95.885Y-34.29
X95.885Y-35.56
X95.885Y-40.005
X95.885Y-41.275
X97.155Y-27.305
X97.155Y-29.21
X97.79Y-38.1
X98.88Y-26.67
X99.695Y-28.575
X100.33Y-24.13
X100.33Y-44.45
X100.965Y-40.005
X101.78Y-41.91
X104.14Y-29.21
X106.5Y-26.67
X107.95Y-24.13
X107.95Y-28.575
X107.95Y-32.258
X107.95Y-39.37
X107.95Y-44.45
X109.4Y-41.91
X111.125Y-29.845
X114.12Y-26.67
X114.935Y-28.575
X115.57Y-24.13
X115.57Y-39.37
X115.57Y-44.45
X117.02Y-41.91
X119.634Y-32.996
T2
X35.052Y-30.988
X35.052Y-33.528
X35.052Y-36.068
X35.052Y-38.608
X122.555Y-30.988
X122.555Y-33.528
X122.555Y-36.068
X122.555Y-38.608
T0
M30
