G04 #@! TF.FileFunction,Copper,L2,Bot,Signal*
%FSLAX46Y46*%
G04 Gerber Fmt 4.6, Leading zero omitted, Abs format (unit mm)*
G04 Created by KiCad (PCBNEW 4.0.5+dfsg1-4) date Mon Sep 10 20:32:53 2018*
%MOMM*%
%LPD*%
G01*
G04 APERTURE LIST*
%ADD10C,0.100000*%
%ADD11R,0.550000X1.600000*%
%ADD12R,1.600000X0.550000*%
%ADD13R,0.900000X1.700000*%
%ADD14R,1.000000X1.600000*%
%ADD15R,1.600000X1.000000*%
%ADD16R,3.600000X1.270000*%
%ADD17R,0.900000X0.800000*%
%ADD18R,1.700000X0.900000*%
%ADD19R,0.508000X1.143000*%
%ADD20R,2.032000X1.727200*%
%ADD21O,2.032000X1.727200*%
%ADD22R,1.143000X0.508000*%
%ADD23C,0.600000*%
%ADD24C,0.250000*%
G04 APERTURE END LIST*
D10*
D11*
X44190000Y-23690000D03*
X44990000Y-23690000D03*
X45790000Y-23690000D03*
X46590000Y-23690000D03*
X47390000Y-23690000D03*
X48190000Y-23690000D03*
X48990000Y-23690000D03*
X49790000Y-23690000D03*
D12*
X51240000Y-25140000D03*
X51240000Y-25940000D03*
X51240000Y-26740000D03*
X51240000Y-27540000D03*
X51240000Y-28340000D03*
X51240000Y-29140000D03*
X51240000Y-29940000D03*
X51240000Y-30740000D03*
D11*
X49790000Y-32190000D03*
X48990000Y-32190000D03*
X48190000Y-32190000D03*
X47390000Y-32190000D03*
X46590000Y-32190000D03*
X45790000Y-32190000D03*
X44990000Y-32190000D03*
X44190000Y-32190000D03*
D12*
X42740000Y-30740000D03*
X42740000Y-29940000D03*
X42740000Y-29140000D03*
X42740000Y-28340000D03*
X42740000Y-27540000D03*
X42740000Y-26740000D03*
X42740000Y-25940000D03*
X42740000Y-25140000D03*
D13*
X101780000Y-43815000D03*
X98880000Y-43815000D03*
D14*
X34060000Y-22860000D03*
X37060000Y-22860000D03*
X101830000Y-28575000D03*
X98830000Y-28575000D03*
D15*
X119634000Y-29996000D03*
X119634000Y-32996000D03*
D14*
X109450000Y-28575000D03*
X106450000Y-28575000D03*
X117070000Y-28575000D03*
X114070000Y-28575000D03*
X114070000Y-40005000D03*
X117070000Y-40005000D03*
X106450000Y-40005000D03*
X109450000Y-40005000D03*
X98830000Y-40005000D03*
X101830000Y-40005000D03*
D16*
X48031000Y-39243000D03*
X48031000Y-41783000D03*
X48031000Y-44323000D03*
X41631000Y-44323000D03*
X41631000Y-41783000D03*
X41631000Y-39243000D03*
D17*
X51292000Y-36388000D03*
X51292000Y-38288000D03*
X49292000Y-37338000D03*
X46752000Y-36256000D03*
X46752000Y-34356000D03*
X48752000Y-35306000D03*
X94980000Y-42865000D03*
X94980000Y-44765000D03*
X92980000Y-43815000D03*
X84820000Y-42865000D03*
X84820000Y-44765000D03*
X82820000Y-43815000D03*
X74660000Y-42865000D03*
X74660000Y-44765000D03*
X72660000Y-43815000D03*
X64500000Y-42865000D03*
X64500000Y-44765000D03*
X62500000Y-43815000D03*
D13*
X98880000Y-26670000D03*
X101780000Y-26670000D03*
X106500000Y-26670000D03*
X109400000Y-26670000D03*
X114120000Y-26670000D03*
X117020000Y-26670000D03*
X117020000Y-41910000D03*
X114120000Y-41910000D03*
X109400000Y-41910000D03*
X106500000Y-41910000D03*
X101780000Y-41910000D03*
X98880000Y-41910000D03*
X54028000Y-42545000D03*
X51128000Y-42545000D03*
D18*
X40132000Y-22934000D03*
X40132000Y-25834000D03*
D13*
X56060000Y-44450000D03*
X53160000Y-44450000D03*
X98880000Y-24765000D03*
X101780000Y-24765000D03*
X106500000Y-24765000D03*
X109400000Y-24765000D03*
X114120000Y-24765000D03*
X117020000Y-24765000D03*
X117020000Y-43815000D03*
X114120000Y-43815000D03*
X109400000Y-43815000D03*
X106500000Y-43815000D03*
X45138000Y-34671000D03*
X42238000Y-34671000D03*
X45138000Y-37084000D03*
X42238000Y-37084000D03*
D18*
X40132000Y-35486000D03*
X40132000Y-32586000D03*
X40132000Y-27760000D03*
X40132000Y-30660000D03*
X88265000Y-23315000D03*
X88265000Y-26215000D03*
X86360000Y-23315000D03*
X86360000Y-26215000D03*
X86360000Y-42725000D03*
X86360000Y-39825000D03*
X88265000Y-42725000D03*
X88265000Y-39825000D03*
X92075000Y-42725000D03*
X92075000Y-39825000D03*
X93980000Y-23315000D03*
X93980000Y-26215000D03*
X92075000Y-23315000D03*
X92075000Y-26215000D03*
X78105000Y-23315000D03*
X78105000Y-26215000D03*
X76200000Y-23315000D03*
X76200000Y-26215000D03*
X76200000Y-42725000D03*
X76200000Y-39825000D03*
X78105000Y-42725000D03*
X78105000Y-39825000D03*
X81915000Y-42725000D03*
X81915000Y-39825000D03*
X83820000Y-23315000D03*
X83820000Y-26215000D03*
X81915000Y-23315000D03*
X81915000Y-26215000D03*
X67945000Y-23315000D03*
X67945000Y-26215000D03*
X66040000Y-23315000D03*
X66040000Y-26215000D03*
X66040000Y-42725000D03*
X66040000Y-39825000D03*
X67945000Y-42725000D03*
X67945000Y-39825000D03*
X71755000Y-42725000D03*
X71755000Y-39825000D03*
X73660000Y-23315000D03*
X73660000Y-26215000D03*
X71755000Y-23315000D03*
X71755000Y-26215000D03*
X57785000Y-23315000D03*
X57785000Y-26215000D03*
X55880000Y-23315000D03*
X55880000Y-26215000D03*
X55880000Y-42725000D03*
X55880000Y-39825000D03*
X57785000Y-42725000D03*
X57785000Y-39825000D03*
X61595000Y-42725000D03*
X61595000Y-39825000D03*
X63500000Y-23315000D03*
X63500000Y-26215000D03*
X61595000Y-23315000D03*
X61595000Y-26215000D03*
D13*
X88085000Y-44450000D03*
X90985000Y-44450000D03*
X77925000Y-44450000D03*
X80825000Y-44450000D03*
X67765000Y-44450000D03*
X70665000Y-44450000D03*
X57605000Y-44450000D03*
X60505000Y-44450000D03*
D19*
X99060000Y-30988000D03*
X100330000Y-30988000D03*
X101600000Y-30988000D03*
X102870000Y-30988000D03*
X104140000Y-30988000D03*
X105410000Y-30988000D03*
X106680000Y-30988000D03*
X106680000Y-37338000D03*
X105410000Y-37338000D03*
X102870000Y-37338000D03*
X101600000Y-37338000D03*
X100330000Y-37338000D03*
X99060000Y-37338000D03*
X104140000Y-37338000D03*
D20*
X122555000Y-30988000D03*
D21*
X122555000Y-33528000D03*
X122555000Y-36068000D03*
X122555000Y-38608000D03*
D20*
X35052000Y-30988000D03*
D21*
X35052000Y-33528000D03*
X35052000Y-36068000D03*
X35052000Y-38608000D03*
D22*
X93345000Y-37465000D03*
X93345000Y-34925000D03*
X93345000Y-33655000D03*
X93345000Y-32385000D03*
X93345000Y-31115000D03*
X93345000Y-29845000D03*
X93345000Y-28575000D03*
X86995000Y-28575000D03*
X86995000Y-29845000D03*
X86995000Y-31115000D03*
X86995000Y-32385000D03*
X86995000Y-33655000D03*
X86995000Y-34925000D03*
X86995000Y-36195000D03*
X86995000Y-37465000D03*
X93345000Y-36195000D03*
X83185000Y-37465000D03*
X83185000Y-34925000D03*
X83185000Y-33655000D03*
X83185000Y-32385000D03*
X83185000Y-31115000D03*
X83185000Y-29845000D03*
X83185000Y-28575000D03*
X76835000Y-28575000D03*
X76835000Y-29845000D03*
X76835000Y-31115000D03*
X76835000Y-32385000D03*
X76835000Y-33655000D03*
X76835000Y-34925000D03*
X76835000Y-36195000D03*
X76835000Y-37465000D03*
X83185000Y-36195000D03*
X73025000Y-37465000D03*
X73025000Y-34925000D03*
X73025000Y-33655000D03*
X73025000Y-32385000D03*
X73025000Y-31115000D03*
X73025000Y-29845000D03*
X73025000Y-28575000D03*
X66675000Y-28575000D03*
X66675000Y-29845000D03*
X66675000Y-31115000D03*
X66675000Y-32385000D03*
X66675000Y-33655000D03*
X66675000Y-34925000D03*
X66675000Y-36195000D03*
X66675000Y-37465000D03*
X73025000Y-36195000D03*
X62865000Y-37465000D03*
X62865000Y-34925000D03*
X62865000Y-33655000D03*
X62865000Y-32385000D03*
X62865000Y-31115000D03*
X62865000Y-29845000D03*
X62865000Y-28575000D03*
X56515000Y-28575000D03*
X56515000Y-29845000D03*
X56515000Y-31115000D03*
X56515000Y-32385000D03*
X56515000Y-33655000D03*
X56515000Y-34925000D03*
X56515000Y-36195000D03*
X56515000Y-37465000D03*
X62865000Y-36195000D03*
D23*
X42395140Y-39751000D03*
X95885000Y-40005000D03*
X35687000Y-22479000D03*
X34417000Y-28702000D03*
X34290000Y-26162000D03*
X53340000Y-38608000D03*
X97155000Y-29210000D03*
X97155000Y-27305000D03*
X115570000Y-44450000D03*
X107950000Y-44450000D03*
X100330000Y-44450000D03*
X89535000Y-38735000D03*
X79375000Y-38735000D03*
X69215000Y-38735000D03*
X59055000Y-38735000D03*
X65405000Y-38735000D03*
X115570000Y-24130000D03*
X107950000Y-24130000D03*
X100330000Y-24130000D03*
X90170000Y-25400000D03*
X90805000Y-29210000D03*
X88900000Y-29210000D03*
X80010000Y-25400000D03*
X80645000Y-29210000D03*
X78740000Y-29210000D03*
X68580000Y-29210000D03*
X70485000Y-29210000D03*
X69850000Y-25400000D03*
X58420000Y-29210000D03*
X60325000Y-29210000D03*
X59690000Y-25400000D03*
X88265000Y-23315000D03*
X86360000Y-23315000D03*
X92075000Y-23315000D03*
X93980000Y-23315000D03*
X88265000Y-42725000D03*
X86360000Y-42725000D03*
X92075000Y-42725000D03*
X93345000Y-43815000D03*
X78105000Y-23315000D03*
X76200000Y-23315000D03*
X81915000Y-23315000D03*
X83820000Y-23315000D03*
X78105000Y-42725000D03*
X76200000Y-42725000D03*
X81915000Y-42725000D03*
X83185000Y-43815000D03*
X67945000Y-23315000D03*
X66040000Y-23315000D03*
X71755000Y-23315000D03*
X73660000Y-23315000D03*
X67945000Y-42725000D03*
X66040000Y-42725000D03*
X71755000Y-42725000D03*
X73025000Y-43815000D03*
X57785000Y-23315000D03*
X55880000Y-23315000D03*
X61595000Y-23315000D03*
X63500000Y-23315000D03*
X57785000Y-42725000D03*
X55880000Y-42725000D03*
X61595000Y-42725000D03*
X62865000Y-43815000D03*
X119634000Y-32996000D03*
X41402000Y-44323000D03*
X107950000Y-32258000D03*
X97790000Y-38100000D03*
X95885000Y-41275000D03*
X89408000Y-45085000D03*
X79121000Y-45085000D03*
X69215000Y-45085000D03*
X58928000Y-45085000D03*
X44450000Y-29972000D03*
X44577000Y-28575000D03*
X107950000Y-28575000D03*
X85725000Y-27305000D03*
X75565000Y-27305000D03*
X65405000Y-27305000D03*
X55245000Y-27305000D03*
X99695000Y-28575000D03*
X114935000Y-28575000D03*
X115570000Y-39370000D03*
X107950000Y-39370000D03*
X100965000Y-40005000D03*
X111125000Y-29845000D03*
X104140000Y-29210000D03*
X54610000Y-36195000D03*
X57785000Y-36195000D03*
X67945000Y-36195000D03*
X78105000Y-36195000D03*
X88265000Y-36195000D03*
X50292000Y-41275000D03*
X50292000Y-37465000D03*
X40132000Y-25908000D03*
X38227000Y-37338000D03*
X39243000Y-33782000D03*
X46355000Y-29591000D03*
X42164000Y-31623000D03*
X38862000Y-36703000D03*
X54610000Y-34925000D03*
X88265000Y-34925000D03*
X78105000Y-34925000D03*
X67945000Y-34925000D03*
X57785000Y-34925000D03*
X47371000Y-37592000D03*
X48260000Y-37084000D03*
X95885000Y-35560000D03*
X44196000Y-25781000D03*
X95885000Y-34290000D03*
X44958000Y-25400000D03*
X95885000Y-33020000D03*
X45720000Y-25019000D03*
X48623220Y-22334220D03*
X52705000Y-24130000D03*
X52705000Y-26670000D03*
X95885000Y-31750000D03*
X53340000Y-27305000D03*
X95885000Y-30480000D03*
X50800000Y-23495000D03*
X95885000Y-29210000D03*
X85725000Y-36830000D03*
X45085000Y-27940000D03*
X75565000Y-37465000D03*
X45720000Y-28575000D03*
X46736000Y-28194000D03*
X66040000Y-38100000D03*
X48387000Y-28448000D03*
X52705000Y-39370000D03*
X54610000Y-32385000D03*
X88265000Y-32385000D03*
X78105000Y-32385000D03*
X67945000Y-32385000D03*
X57785000Y-32385000D03*
X54610000Y-33655000D03*
X88265000Y-33655000D03*
X78105000Y-33655000D03*
X67945000Y-33655000D03*
X57785000Y-33655000D03*
X48260000Y-33909000D03*
X47371000Y-33401000D03*
X51181000Y-44323000D03*
X43942000Y-34671000D03*
X39497000Y-32512000D03*
X38608000Y-35941000D03*
X36576000Y-32004000D03*
X36576000Y-33909000D03*
X38100000Y-26416000D03*
X38100000Y-31750000D03*
X40767000Y-36576000D03*
X37211000Y-26289000D03*
X43307000Y-37211000D03*
X42418000Y-33147000D03*
X46482000Y-33528000D03*
X43180000Y-31750000D03*
X44069000Y-37465000D03*
X43307000Y-35306000D03*
X56060000Y-44450000D03*
X94615000Y-43815000D03*
X53975000Y-40005000D03*
X52959000Y-41275000D03*
X98880000Y-26670000D03*
X106500000Y-26670000D03*
X114120000Y-26670000D03*
X117020000Y-41910000D03*
X109400000Y-41910000D03*
X101780000Y-41910000D03*
X88265000Y-27940000D03*
X90170000Y-27940000D03*
X92075000Y-33020000D03*
X88900000Y-33020000D03*
X78105000Y-27940000D03*
X80010000Y-27940000D03*
X81915000Y-33020000D03*
X78740000Y-33020000D03*
X67945000Y-27940000D03*
X69850000Y-27940000D03*
X71755000Y-33020000D03*
X68580000Y-33020000D03*
X57785000Y-27940000D03*
X59690000Y-27940000D03*
X61595000Y-33020000D03*
X58420000Y-33020000D03*
D24*
X119634000Y-29996000D02*
X121563000Y-29996000D01*
X121563000Y-29996000D02*
X122555000Y-30988000D01*
X90170000Y-25400000D02*
X95250000Y-25400000D01*
X95250000Y-25400000D02*
X97155000Y-27305000D01*
X45847000Y-30480000D02*
X46990000Y-30480000D01*
X44069699Y-29209301D02*
X43942000Y-29081602D01*
X46590000Y-25038000D02*
X45085000Y-26543000D01*
X46590000Y-23690000D02*
X46590000Y-25038000D01*
X43942000Y-27178000D02*
X43942000Y-28194000D01*
X44577000Y-26543000D02*
X43942000Y-27178000D01*
X45085000Y-26543000D02*
X44577000Y-26543000D01*
X44576301Y-29209301D02*
X45847000Y-30480000D01*
X44576301Y-29209301D02*
X44069699Y-29209301D01*
X43942000Y-29081602D02*
X43942000Y-28194000D01*
X48990000Y-30956000D02*
X48990000Y-32190000D01*
X48768000Y-30734000D02*
X48990000Y-30956000D01*
X47244000Y-30734000D02*
X48768000Y-30734000D01*
X46990000Y-30480000D02*
X47244000Y-30734000D01*
X42395140Y-39751000D02*
X41887140Y-39243000D01*
X41887140Y-39243000D02*
X41631000Y-39243000D01*
X40132000Y-37744000D02*
X41631000Y-39243000D01*
X40132000Y-35486000D02*
X40132000Y-37744000D01*
X96012000Y-38862000D02*
X96012000Y-39878000D01*
X97536000Y-37338000D02*
X96012000Y-38862000D01*
X99060000Y-37338000D02*
X97536000Y-37338000D01*
X96012000Y-39878000D02*
X95885000Y-40005000D01*
X35306000Y-22860000D02*
X35687000Y-22479000D01*
X34060000Y-22860000D02*
X35306000Y-22860000D01*
X34060000Y-22860000D02*
X34060000Y-25932000D01*
X34417000Y-28702000D02*
X35052000Y-28702000D01*
X34060000Y-25932000D02*
X34290000Y-26162000D01*
X35814000Y-31750000D02*
X35814000Y-32131000D01*
X35814000Y-32131000D02*
X36957000Y-33274000D01*
X35814000Y-31750000D02*
X35052000Y-30988000D01*
X35052000Y-30988000D02*
X35941000Y-30988000D01*
X40132000Y-35486000D02*
X39169000Y-35486000D01*
X39169000Y-35486000D02*
X36957000Y-33274000D01*
X40132000Y-27760000D02*
X35052000Y-27760000D01*
X35052000Y-27760000D02*
X35052000Y-27813000D01*
X40132000Y-22934000D02*
X39550000Y-22934000D01*
X39550000Y-22934000D02*
X35052000Y-27432000D01*
X35052000Y-27432000D02*
X35052000Y-27813000D01*
X35052000Y-27813000D02*
X35052000Y-28194000D01*
X46590000Y-23690000D02*
X46590000Y-22460000D01*
X40714000Y-22352000D02*
X40132000Y-22934000D01*
X46482000Y-22352000D02*
X40714000Y-22352000D01*
X46590000Y-22460000D02*
X46482000Y-22352000D01*
X35052000Y-30988000D02*
X35052000Y-28702000D01*
X35052000Y-28702000D02*
X35052000Y-28194000D01*
X55245000Y-36830000D02*
X53340000Y-38608000D01*
X97155000Y-27305000D02*
X97155000Y-29210000D01*
X116205000Y-43815000D02*
X117020000Y-43815000D01*
X115570000Y-44450000D02*
X116205000Y-43815000D01*
X108585000Y-43815000D02*
X109400000Y-43815000D01*
X107950000Y-44450000D02*
X108585000Y-43815000D01*
X100965000Y-43815000D02*
X101780000Y-43815000D01*
X100330000Y-44450000D02*
X100965000Y-43815000D01*
X90805000Y-37465000D02*
X89535000Y-38735000D01*
X93345000Y-37465000D02*
X90805000Y-37465000D01*
X83185000Y-37465000D02*
X80645000Y-37465000D01*
X80645000Y-37465000D02*
X79375000Y-38735000D01*
X73025000Y-37465000D02*
X70485000Y-37465000D01*
X70485000Y-37465000D02*
X69215000Y-38735000D01*
X62865000Y-37465000D02*
X60325000Y-37465000D01*
X60325000Y-37465000D02*
X59055000Y-38735000D01*
X65405000Y-32385000D02*
X65405000Y-31750000D01*
X65405000Y-38735000D02*
X65405000Y-32385000D01*
X66040000Y-31115000D02*
X66675000Y-31115000D01*
X65405000Y-31750000D02*
X66040000Y-31115000D01*
X55880000Y-31115000D02*
X56515000Y-31115000D01*
X55245000Y-31750000D02*
X55880000Y-31115000D01*
X55245000Y-33020000D02*
X55245000Y-31750000D01*
X55245000Y-36830000D02*
X55245000Y-33020000D01*
X114935000Y-24765000D02*
X114120000Y-24765000D01*
X115570000Y-24130000D02*
X114935000Y-24765000D01*
X98880000Y-24765000D02*
X99695000Y-24765000D01*
X107315000Y-24765000D02*
X106500000Y-24765000D01*
X107950000Y-24130000D02*
X107315000Y-24765000D01*
X99695000Y-24765000D02*
X100330000Y-24130000D01*
X86995000Y-31115000D02*
X88265000Y-31115000D01*
X90170000Y-26670000D02*
X90170000Y-25400000D01*
X90805000Y-27305000D02*
X90170000Y-26670000D01*
X90805000Y-27940000D02*
X90805000Y-27305000D01*
X90805000Y-29210000D02*
X90805000Y-27940000D01*
X88900000Y-30480000D02*
X88900000Y-29210000D01*
X88265000Y-31115000D02*
X88900000Y-30480000D01*
X76835000Y-31115000D02*
X78105000Y-31115000D01*
X80010000Y-26670000D02*
X80010000Y-25400000D01*
X80645000Y-27305000D02*
X80010000Y-26670000D01*
X80645000Y-29210000D02*
X80645000Y-27305000D01*
X78740000Y-30480000D02*
X78740000Y-29210000D01*
X78105000Y-31115000D02*
X78740000Y-30480000D01*
X66675000Y-31115000D02*
X67945000Y-31115000D01*
X67945000Y-31115000D02*
X68580000Y-30480000D01*
X68580000Y-30480000D02*
X68580000Y-29210000D01*
X70485000Y-29210000D02*
X70485000Y-27305000D01*
X70485000Y-27305000D02*
X69850000Y-26670000D01*
X69850000Y-26670000D02*
X69850000Y-25400000D01*
X56515000Y-31115000D02*
X57785000Y-31115000D01*
X57785000Y-31115000D02*
X58420000Y-30480000D01*
X58420000Y-30480000D02*
X58420000Y-29210000D01*
X60325000Y-29210000D02*
X60325000Y-27305000D01*
X60325000Y-27305000D02*
X59690000Y-26670000D01*
X59690000Y-26670000D02*
X59690000Y-25400000D01*
X93345000Y-43815000D02*
X92980000Y-43815000D01*
X93345000Y-43450000D02*
X92980000Y-43815000D01*
X83185000Y-43815000D02*
X82820000Y-43815000D01*
X83185000Y-43450000D02*
X82820000Y-43815000D01*
X73025000Y-43815000D02*
X72660000Y-43815000D01*
X73025000Y-43450000D02*
X72660000Y-43815000D01*
X62865000Y-43815000D02*
X62500000Y-43815000D01*
X62865000Y-43450000D02*
X62500000Y-43815000D01*
X41402000Y-44323000D02*
X41631000Y-44323000D01*
X107950000Y-32258000D02*
X106680000Y-30988000D01*
X74803000Y-24765000D02*
X84963000Y-24765000D01*
X84963000Y-24765000D02*
X85090000Y-24892000D01*
X85090000Y-24892000D02*
X85090000Y-27305000D01*
X85090000Y-27305000D02*
X85725000Y-27305000D01*
X64770000Y-25146000D02*
X64770000Y-24765000D01*
X64770000Y-24765000D02*
X64770000Y-24892000D01*
X64770000Y-24892000D02*
X64770000Y-24765000D01*
X65151000Y-24765000D02*
X54229000Y-24765000D01*
X54229000Y-24765000D02*
X54102000Y-24892000D01*
X75565000Y-27305000D02*
X74930000Y-27305000D01*
X74930000Y-27305000D02*
X74930000Y-24892000D01*
X74930000Y-24892000D02*
X74803000Y-24765000D01*
X74803000Y-24765000D02*
X74676000Y-24765000D01*
X74676000Y-24765000D02*
X65151000Y-24765000D01*
X65151000Y-24765000D02*
X64770000Y-24765000D01*
X64770000Y-24765000D02*
X64770000Y-24765000D01*
X65405000Y-27305000D02*
X64770000Y-27305000D01*
X64770000Y-27305000D02*
X64770000Y-25146000D01*
X54102000Y-22606000D02*
X54102000Y-24638000D01*
X48260000Y-21717000D02*
X48387000Y-21590000D01*
X47733000Y-22244000D02*
X48260000Y-21717000D01*
X47390000Y-22244000D02*
X47733000Y-22244000D01*
X53340000Y-21844000D02*
X54102000Y-22606000D01*
X49657000Y-21844000D02*
X53340000Y-21844000D01*
X49403000Y-21590000D02*
X49657000Y-21844000D01*
X48387000Y-21590000D02*
X49403000Y-21590000D01*
X54102000Y-24638000D02*
X54102000Y-24892000D01*
X54102000Y-24892000D02*
X54102000Y-26797000D01*
X54610000Y-27305000D02*
X55245000Y-27305000D01*
X54102000Y-26797000D02*
X54610000Y-27305000D01*
X38608000Y-22987000D02*
X37187000Y-22987000D01*
X37187000Y-22987000D02*
X37060000Y-22860000D01*
X95885000Y-41275000D02*
X96520000Y-40640000D01*
X96520000Y-40640000D02*
X96520000Y-39370000D01*
X96520000Y-39370000D02*
X97790000Y-38100000D01*
X88773000Y-44450000D02*
X88085000Y-44450000D01*
X89408000Y-45085000D02*
X88773000Y-44450000D01*
X78486000Y-44450000D02*
X77925000Y-44450000D01*
X79121000Y-45085000D02*
X78486000Y-44450000D01*
X57605000Y-44450000D02*
X58293000Y-44450000D01*
X68580000Y-44450000D02*
X67765000Y-44450000D01*
X69215000Y-45085000D02*
X68580000Y-44450000D01*
X58293000Y-44450000D02*
X58928000Y-45085000D01*
X44958000Y-28702000D02*
X44704000Y-28702000D01*
X47390000Y-24998602D02*
X45210602Y-27178000D01*
X45210602Y-27178000D02*
X44831000Y-27178000D01*
X44831000Y-27178000D02*
X44450000Y-27559000D01*
X44450000Y-27559000D02*
X44450000Y-28194000D01*
X44450000Y-28194000D02*
X44958000Y-28702000D01*
X47390000Y-23690000D02*
X47390000Y-24998602D01*
X46590000Y-31007000D02*
X46590000Y-32190000D01*
X46609000Y-30988000D02*
X46590000Y-31007000D01*
X45466000Y-30988000D02*
X46609000Y-30988000D01*
X44450000Y-29972000D02*
X45466000Y-30988000D01*
X44704000Y-28702000D02*
X44577000Y-28575000D01*
X38608000Y-22352000D02*
X38862000Y-22352000D01*
X33528000Y-28194000D02*
X38608000Y-23114000D01*
X38608000Y-23114000D02*
X38608000Y-22987000D01*
X38608000Y-22987000D02*
X38608000Y-22352000D01*
X35052000Y-33528000D02*
X33782000Y-33528000D01*
X33782000Y-33528000D02*
X33528000Y-33274000D01*
X33528000Y-33274000D02*
X33528000Y-28194000D01*
X47390000Y-22244000D02*
X47390000Y-23690000D01*
X46990000Y-21844000D02*
X47390000Y-22244000D01*
X39370000Y-21844000D02*
X46990000Y-21844000D01*
X38862000Y-22352000D02*
X39370000Y-21844000D01*
X57605000Y-44450000D02*
X57605000Y-44905000D01*
X57605000Y-44905000D02*
X57785000Y-45085000D01*
X106450000Y-28575000D02*
X107950000Y-28575000D01*
X85725000Y-27305000D02*
X86995000Y-28575000D01*
X75565000Y-27305000D02*
X76835000Y-28575000D01*
X56515000Y-28575000D02*
X55245000Y-27305000D01*
X65405000Y-27305000D02*
X66675000Y-28575000D01*
X86995000Y-28575000D02*
X86995000Y-29845000D01*
X76835000Y-28575000D02*
X76835000Y-29845000D01*
X66675000Y-28575000D02*
X66675000Y-29845000D01*
X56515000Y-28575000D02*
X56515000Y-29845000D01*
X98830000Y-28575000D02*
X99695000Y-28575000D01*
X114070000Y-28575000D02*
X114935000Y-28575000D01*
X117070000Y-40005000D02*
X116205000Y-40005000D01*
X116205000Y-40005000D02*
X115570000Y-39370000D01*
X109450000Y-40005000D02*
X108585000Y-40005000D01*
X108585000Y-40005000D02*
X107950000Y-39370000D01*
X101830000Y-40005000D02*
X100965000Y-40005000D01*
X99060000Y-30988000D02*
X99060000Y-30480000D01*
X99060000Y-30480000D02*
X100965000Y-28575000D01*
X100965000Y-28575000D02*
X101830000Y-28575000D01*
X101780000Y-26670000D02*
X101780000Y-28525000D01*
X101780000Y-28525000D02*
X101830000Y-28575000D01*
X102870000Y-29845000D02*
X102870000Y-28575000D01*
X105410000Y-28575000D02*
X105410000Y-29845000D01*
X102870000Y-28575000D02*
X105410000Y-28575000D01*
X101600000Y-30988000D02*
X101600000Y-30480000D01*
X101600000Y-30480000D02*
X102235000Y-29845000D01*
X102235000Y-29845000D02*
X102870000Y-29845000D01*
X105410000Y-29845000D02*
X107950000Y-29845000D01*
X107950000Y-29845000D02*
X109220000Y-28575000D01*
X109220000Y-28575000D02*
X109450000Y-28575000D01*
X109450000Y-28575000D02*
X109450000Y-26720000D01*
X109450000Y-26720000D02*
X109400000Y-26670000D01*
X104140000Y-30988000D02*
X104140000Y-29210000D01*
X116205000Y-28575000D02*
X117070000Y-28575000D01*
X114935000Y-29845000D02*
X116205000Y-28575000D01*
X111125000Y-29845000D02*
X114935000Y-29845000D01*
X117070000Y-28575000D02*
X117070000Y-26720000D01*
X117070000Y-26720000D02*
X117020000Y-26670000D01*
X106680000Y-37338000D02*
X111403000Y-37338000D01*
X111403000Y-37338000D02*
X114070000Y-40005000D01*
X114070000Y-40005000D02*
X114070000Y-41860000D01*
X114070000Y-41860000D02*
X114120000Y-41910000D01*
X104140000Y-37338000D02*
X104140000Y-39370000D01*
X104775000Y-40005000D02*
X106450000Y-40005000D01*
X104140000Y-39370000D02*
X104775000Y-40005000D01*
X106450000Y-40005000D02*
X106450000Y-41860000D01*
X106450000Y-41860000D02*
X106500000Y-41910000D01*
X101600000Y-37338000D02*
X101600000Y-38100000D01*
X99695000Y-40005000D02*
X98830000Y-40005000D01*
X101600000Y-38100000D02*
X99695000Y-40005000D01*
X98830000Y-40005000D02*
X98830000Y-41860000D01*
X98830000Y-41860000D02*
X98880000Y-41910000D01*
X49911000Y-40513000D02*
X51943000Y-40513000D01*
X48641000Y-39243000D02*
X49911000Y-40513000D01*
X52578000Y-38227000D02*
X54610000Y-36195000D01*
X52578000Y-38608000D02*
X52578000Y-38227000D01*
X51943000Y-39243000D02*
X52578000Y-38608000D01*
X51943000Y-39243000D02*
X51943000Y-40513000D01*
X51240000Y-33528000D02*
X52070000Y-33528000D01*
X54610000Y-36195000D02*
X54102000Y-35687000D01*
X51240000Y-30740000D02*
X51240000Y-32639000D01*
X51240000Y-32639000D02*
X51240000Y-33528000D01*
X52070000Y-33528000D02*
X54102000Y-35560000D01*
X54102000Y-35560000D02*
X54102000Y-35687000D01*
X48031000Y-39243000D02*
X48641000Y-39243000D01*
X57785000Y-36195000D02*
X56515000Y-36195000D01*
X67945000Y-36195000D02*
X66675000Y-36195000D01*
X86995000Y-36195000D02*
X88265000Y-36195000D01*
X78105000Y-36195000D02*
X76835000Y-36195000D01*
X52006500Y-37274500D02*
X50482500Y-37274500D01*
X50292000Y-41275000D02*
X49784000Y-41783000D01*
X50482500Y-37274500D02*
X50292000Y-37465000D01*
X49784000Y-41783000D02*
X48031000Y-41783000D01*
X49790000Y-32772000D02*
X51308000Y-34290000D01*
X51308000Y-34290000D02*
X51562000Y-34290000D01*
X51562000Y-34290000D02*
X52578000Y-35306000D01*
X52578000Y-35306000D02*
X52578000Y-36703000D01*
X52578000Y-36703000D02*
X52006500Y-37274500D01*
X52006500Y-37274500D02*
X51943000Y-37338000D01*
X48031000Y-41783000D02*
X48031000Y-42697000D01*
X52508998Y-45085000D02*
X50546000Y-45085000D01*
X50546000Y-45085000D02*
X50165000Y-44704000D01*
X50165000Y-44704000D02*
X50165000Y-43942000D01*
X52508998Y-45085000D02*
X53143998Y-44450000D01*
X50165000Y-43561000D02*
X50165000Y-43942000D01*
X49911000Y-43307000D02*
X50165000Y-43561000D01*
X48641000Y-43307000D02*
X49911000Y-43307000D01*
X48031000Y-42697000D02*
X48641000Y-43307000D01*
X53160000Y-44450000D02*
X53143998Y-44450000D01*
X48260000Y-42012000D02*
X48031000Y-41783000D01*
X48031000Y-41783000D02*
X48768000Y-41783000D01*
X39404501Y-42579501D02*
X39404501Y-42452501D01*
X39404501Y-42452501D02*
X38227000Y-41275000D01*
X39404501Y-43341501D02*
X39404501Y-42579501D01*
X38227000Y-41275000D02*
X38227000Y-37338000D01*
X39404501Y-45050499D02*
X39404501Y-43341501D01*
X45789002Y-45396998D02*
X39751000Y-45396998D01*
X45974000Y-45212000D02*
X45789002Y-45396998D01*
X46863000Y-44323000D02*
X45974000Y-45212000D01*
X39751000Y-45396998D02*
X39404501Y-45050499D01*
X40132000Y-25908000D02*
X40132000Y-25834000D01*
X40206000Y-25834000D02*
X40132000Y-25834000D01*
X48031000Y-44323000D02*
X46863000Y-44323000D01*
X42740000Y-27540000D02*
X41764000Y-27540000D01*
X41764000Y-27540000D02*
X40132000Y-25908000D01*
X40132000Y-25908000D02*
X40132000Y-25834000D01*
X42164000Y-31623000D02*
X41656000Y-32131000D01*
X41656000Y-33274000D02*
X41148000Y-33782000D01*
X41148000Y-33782000D02*
X39243000Y-33782000D01*
X51240000Y-29940000D02*
X46704000Y-29940000D01*
X46704000Y-29940000D02*
X46355000Y-29591000D01*
X41656000Y-32131000D02*
X41656000Y-33274000D01*
X39497000Y-41783000D02*
X41631000Y-41783000D01*
X39116000Y-41402000D02*
X39497000Y-41783000D01*
X39116000Y-36957000D02*
X39116000Y-41402000D01*
X38862000Y-36703000D02*
X39116000Y-36957000D01*
X53340000Y-33655000D02*
X53340000Y-30480000D01*
X54610000Y-34925000D02*
X53975000Y-34290000D01*
X53975000Y-34290000D02*
X53340000Y-33655000D01*
X53245000Y-29940000D02*
X51240000Y-29940000D01*
X53340000Y-29845000D02*
X53245000Y-29940000D01*
X53340000Y-30480000D02*
X53340000Y-29845000D01*
X88265000Y-34925000D02*
X86995000Y-34925000D01*
X78105000Y-34925000D02*
X76835000Y-34925000D01*
X56515000Y-34925000D02*
X57785000Y-34925000D01*
X67945000Y-34925000D02*
X66675000Y-34925000D01*
X47371000Y-37592000D02*
X47503502Y-37592000D01*
X49022000Y-37776998D02*
X49292000Y-37506998D01*
X47688500Y-37776998D02*
X49022000Y-37776998D01*
X47503502Y-37592000D02*
X47688500Y-37776998D01*
X49292000Y-37506998D02*
X49292000Y-37338000D01*
X48752000Y-36465000D02*
X48260000Y-36957000D01*
X48260000Y-36957000D02*
X48260000Y-37084000D01*
X48752000Y-35306000D02*
X48752000Y-36465000D01*
X96520000Y-36195000D02*
X95885000Y-35560000D01*
X44194700Y-25527003D02*
X44196000Y-25781000D01*
X44194700Y-25527003D02*
X44190000Y-23690000D01*
X97155000Y-36195000D02*
X96520000Y-36195000D01*
X99695000Y-36195000D02*
X97155000Y-36195000D01*
X100330000Y-36830000D02*
X99695000Y-36195000D01*
X100330000Y-37338000D02*
X100330000Y-36830000D01*
X102870000Y-36830000D02*
X101600000Y-35560000D01*
X97155000Y-35560000D02*
X101600000Y-35560000D01*
X96520000Y-34925000D02*
X97155000Y-35560000D01*
X95885000Y-34290000D02*
X96520000Y-34925000D01*
X44863000Y-25305000D02*
X44958000Y-25400000D01*
X44990000Y-23690000D02*
X44863000Y-25305000D01*
X102870000Y-37338000D02*
X102870000Y-36830000D01*
X96520000Y-33655000D02*
X96520000Y-33020000D01*
X103505000Y-34925000D02*
X105410000Y-36830000D01*
X103505000Y-34925000D02*
X98425000Y-34925000D01*
X96520000Y-33020000D02*
X95885000Y-33020000D01*
X96520000Y-33655000D02*
X97155000Y-34290000D01*
X97790000Y-34925000D02*
X97155000Y-34290000D01*
X97790000Y-34925000D02*
X98425000Y-34925000D01*
X45790000Y-24949000D02*
X45720000Y-25019000D01*
X45790000Y-23690000D02*
X45790000Y-24949000D01*
X105410000Y-37338000D02*
X105410000Y-36830000D01*
X48190000Y-23690000D02*
X48190000Y-22767440D01*
X48190000Y-22767440D02*
X48623220Y-22334220D01*
X48553220Y-22404220D02*
X48623220Y-22334220D01*
X98425000Y-34290000D02*
X98423602Y-34290000D01*
X52705000Y-24130000D02*
X52705000Y-26670000D01*
X96517204Y-31750000D02*
X95885000Y-31750000D01*
X97153602Y-32386398D02*
X96517204Y-31750000D01*
X97153602Y-33020000D02*
X97153602Y-32386398D01*
X98423602Y-34290000D02*
X97153602Y-33020000D01*
X105410000Y-32385000D02*
X105410000Y-30988000D01*
X103505000Y-34290000D02*
X98425000Y-34290000D01*
X105410000Y-32385000D02*
X103505000Y-34290000D01*
X52832000Y-22352000D02*
X49784000Y-22352000D01*
X49530000Y-22352000D02*
X48990000Y-22892000D01*
X49784000Y-22352000D02*
X49530000Y-22352000D01*
X95885000Y-30480000D02*
X96520000Y-30480000D01*
X102870000Y-31115000D02*
X100330000Y-33655000D01*
X100330000Y-33655000D02*
X98425000Y-33655000D01*
X96520000Y-30480000D02*
X97790000Y-31750000D01*
X97790000Y-31750000D02*
X97790000Y-33020000D01*
X97790000Y-33020000D02*
X98425000Y-33655000D01*
X53340000Y-22860000D02*
X53340000Y-24765000D01*
X52832000Y-22352000D02*
X53340000Y-22860000D01*
X53340000Y-27305000D02*
X53340000Y-24765000D01*
X48990000Y-23690000D02*
X48990000Y-22892000D01*
X102870000Y-30988000D02*
X102870000Y-31115000D01*
X98425000Y-32385000D02*
X99695000Y-32385000D01*
X96520000Y-29845000D02*
X97155000Y-29845000D01*
X98425000Y-31115000D02*
X98425000Y-32385000D01*
X97155000Y-29845000D02*
X98425000Y-31115000D01*
X95885000Y-29210000D02*
X96520000Y-29845000D01*
X50800000Y-23495000D02*
X50605000Y-23690000D01*
X49790000Y-23690000D02*
X50605000Y-23690000D01*
X100330000Y-30988000D02*
X100330000Y-31750000D01*
X100330000Y-31750000D02*
X99695000Y-32385000D01*
X86360000Y-37465000D02*
X85725000Y-36830000D01*
X86995000Y-37465000D02*
X86360000Y-37465000D01*
X47879000Y-25140000D02*
X47879000Y-25146000D01*
X47879000Y-25146000D02*
X45085000Y-27940000D01*
X47879000Y-25140000D02*
X51240000Y-25140000D01*
X76835000Y-37465000D02*
X75565000Y-37465000D01*
X45720000Y-28194000D02*
X45847000Y-28194000D01*
X45847000Y-28194000D02*
X48101000Y-25940000D01*
X45720000Y-28194000D02*
X45720000Y-28575000D01*
X48101000Y-25940000D02*
X51240000Y-25940000D01*
X51240000Y-26740000D02*
X48190000Y-26740000D01*
X46355000Y-28575000D02*
X46736000Y-28194000D01*
X48190000Y-26740000D02*
X46355000Y-28575000D01*
X66040000Y-38100000D02*
X66675000Y-37465000D01*
X48323500Y-28384500D02*
X48323500Y-28511500D01*
X48387000Y-28448000D02*
X48323500Y-28384500D01*
X55880000Y-37465000D02*
X53975000Y-39370000D01*
X53975000Y-39370000D02*
X52705000Y-39370000D01*
X48323500Y-28511500D02*
X49295000Y-27540000D01*
X49295000Y-27540000D02*
X51240000Y-27540000D01*
X56515000Y-37465000D02*
X55880000Y-37465000D01*
X54375000Y-28340000D02*
X51240000Y-28340000D01*
X54610000Y-28575000D02*
X54375000Y-28340000D01*
X54610000Y-32385000D02*
X54610000Y-28575000D01*
X88265000Y-32385000D02*
X86995000Y-32385000D01*
X78105000Y-32385000D02*
X76835000Y-32385000D01*
X56515000Y-32385000D02*
X57785000Y-32385000D01*
X67945000Y-32385000D02*
X66675000Y-32385000D01*
X53905000Y-29140000D02*
X51240000Y-29140000D01*
X53975000Y-29210000D02*
X53905000Y-29140000D01*
X53975000Y-33020000D02*
X53975000Y-29210000D01*
X54610000Y-33655000D02*
X53975000Y-33020000D01*
X88265000Y-33655000D02*
X86995000Y-33655000D01*
X78105000Y-33655000D02*
X76835000Y-33655000D01*
X56515000Y-33655000D02*
X57785000Y-33655000D01*
X67945000Y-33655000D02*
X66675000Y-33655000D01*
X48317000Y-33852000D02*
X48190000Y-32190000D01*
X48317000Y-33852000D02*
X48260000Y-33909000D01*
X47390000Y-33382000D02*
X47390000Y-32190000D01*
X47371000Y-33401000D02*
X47390000Y-33382000D01*
X51181000Y-44323000D02*
X51128000Y-44270000D01*
X51128000Y-44270000D02*
X51128000Y-42545000D01*
X43815000Y-34544000D02*
X43942000Y-34671000D01*
X45790000Y-32190000D02*
X45790000Y-33204000D01*
X44577000Y-33401000D02*
X43815000Y-34163000D01*
X45593000Y-33401000D02*
X44577000Y-33401000D01*
X45790000Y-33204000D02*
X45593000Y-33401000D01*
X43815000Y-34163000D02*
X43815000Y-34544000D01*
X118745000Y-38735000D02*
X119888000Y-38735000D01*
X38954499Y-44450000D02*
X38954499Y-45236895D01*
X38954499Y-45236895D02*
X39086302Y-45368698D01*
X37719000Y-41529000D02*
X38354000Y-42164000D01*
X38954499Y-42799000D02*
X38954499Y-44450000D01*
X38354000Y-42198501D02*
X38954499Y-42799000D01*
X38354000Y-42164000D02*
X38354000Y-42198501D01*
X35052000Y-36068000D02*
X37719000Y-38735000D01*
X37719000Y-38735000D02*
X37719000Y-41529000D01*
X39564604Y-45847000D02*
X39624000Y-45847000D01*
X39624000Y-45847000D02*
X51054000Y-45847000D01*
X51054000Y-45847000D02*
X117094000Y-45847000D01*
X39086302Y-45368698D02*
X39564604Y-45847000D01*
X118110000Y-39370000D02*
X118110000Y-44831000D01*
X118110000Y-44831000D02*
X117094000Y-45847000D01*
X118745000Y-38735000D02*
X118110000Y-39370000D01*
X119888000Y-38735000D02*
X122555000Y-36068000D01*
X39497000Y-32512000D02*
X39571000Y-32586000D01*
X39571000Y-32586000D02*
X40132000Y-32586000D01*
X35052000Y-36068000D02*
X38481000Y-36068000D01*
X38481000Y-36068000D02*
X38608000Y-35941000D01*
X41465500Y-29146500D02*
X42733500Y-29146500D01*
X42733500Y-29146500D02*
X42740000Y-29140000D01*
X41465500Y-31432500D02*
X41465500Y-29146500D01*
X41465500Y-29146500D02*
X41529000Y-29083000D01*
X40132000Y-32586000D02*
X40312000Y-32586000D01*
X40312000Y-32586000D02*
X41465500Y-31432500D01*
X41465500Y-31432500D02*
X41529000Y-31369000D01*
X118618000Y-39751000D02*
X121412000Y-39751000D01*
X35052000Y-38608000D02*
X36703000Y-40259000D01*
X36703000Y-40259000D02*
X36760998Y-40259000D01*
X36760998Y-40259000D02*
X37141998Y-40640000D01*
X37141998Y-40640000D02*
X37141998Y-41529000D01*
X37141998Y-41622897D02*
X38504497Y-42985396D01*
X37141998Y-41529000D02*
X37141998Y-41622897D01*
X38481000Y-44069000D02*
X38504497Y-44092497D01*
X38481000Y-45466000D02*
X38481000Y-44069000D01*
X39370000Y-46355000D02*
X38481000Y-45466000D01*
X117094000Y-46355000D02*
X39624000Y-46355000D01*
X39624000Y-46355000D02*
X39370000Y-46355000D01*
X38504497Y-42985396D02*
X38504497Y-44069000D01*
X38504497Y-44069000D02*
X38504497Y-44092497D01*
X117348000Y-46355000D02*
X118618000Y-45085000D01*
X118618000Y-45085000D02*
X118618000Y-39751000D01*
X117094000Y-46355000D02*
X117348000Y-46355000D01*
X121412000Y-39751000D02*
X122555000Y-38608000D01*
X33655000Y-35687000D02*
X33655000Y-35560000D01*
X33655000Y-35560000D02*
X34417000Y-34798000D01*
X37920000Y-30660000D02*
X40132000Y-30660000D01*
X36576000Y-32004000D02*
X37920000Y-30660000D01*
X35687000Y-34798000D02*
X36576000Y-33909000D01*
X34417000Y-34798000D02*
X35687000Y-34798000D01*
X35052000Y-38608000D02*
X35052000Y-37973000D01*
X35052000Y-37973000D02*
X33655000Y-36576000D01*
X33655000Y-36576000D02*
X33655000Y-35687000D01*
X40767000Y-29591000D02*
X40767000Y-30025000D01*
X41510000Y-28340000D02*
X40767000Y-29083000D01*
X40767000Y-29083000D02*
X40767000Y-29591000D01*
X42740000Y-28340000D02*
X41510000Y-28340000D01*
X40767000Y-30025000D02*
X40132000Y-30660000D01*
X38100000Y-32639000D02*
X38100000Y-33528000D01*
X39116000Y-34544000D02*
X40132000Y-34544000D01*
X38100000Y-33528000D02*
X39116000Y-34544000D01*
X42238000Y-34544000D02*
X40132000Y-34544000D01*
X41688000Y-25940000D02*
X41402000Y-25654000D01*
X41402000Y-25654000D02*
X41402000Y-24638000D01*
X41402000Y-24638000D02*
X39624000Y-24638000D01*
X39624000Y-24638000D02*
X39370000Y-24638000D01*
X39370000Y-24638000D02*
X38354000Y-25654000D01*
X41688000Y-25940000D02*
X42740000Y-25940000D01*
X38354000Y-26162000D02*
X38354000Y-25654000D01*
X38100000Y-26416000D02*
X38354000Y-26162000D01*
X38100000Y-32639000D02*
X38100000Y-31750000D01*
X41275000Y-37084000D02*
X42238000Y-37084000D01*
X40767000Y-36576000D02*
X41275000Y-37084000D01*
X37783199Y-25337199D02*
X36957699Y-26162699D01*
X39244398Y-23876000D02*
X37783199Y-25337199D01*
X41656000Y-23876000D02*
X39244398Y-23876000D01*
X42740000Y-24960000D02*
X41656000Y-23876000D01*
X37211699Y-26288301D02*
X37211000Y-26289000D01*
X36957699Y-26162699D02*
X37211699Y-26288301D01*
X42740000Y-25140000D02*
X42740000Y-24960000D01*
X45138000Y-34671000D02*
X45593000Y-34671000D01*
X51292000Y-35671000D02*
X51292000Y-36388000D01*
X50165000Y-34544000D02*
X51292000Y-35671000D01*
X48133000Y-34544000D02*
X50165000Y-34544000D01*
X47498000Y-35179000D02*
X48133000Y-34544000D01*
X46101000Y-35179000D02*
X47498000Y-35179000D01*
X45593000Y-34671000D02*
X46101000Y-35179000D01*
X45138000Y-34671000D02*
X45339000Y-34671000D01*
X43307000Y-37211000D02*
X43307000Y-38227000D01*
X43307000Y-38227000D02*
X43815000Y-38227000D01*
X45720000Y-39179500D02*
X45720000Y-38608000D01*
X51292000Y-38288000D02*
X50226000Y-38288000D01*
X50165000Y-38227000D02*
X46101000Y-38227000D01*
X50226000Y-38288000D02*
X50165000Y-38227000D01*
X43942000Y-38481000D02*
X43815000Y-38227000D01*
X44069000Y-39370000D02*
X45466000Y-39370000D01*
X45466000Y-39370000D02*
X45720000Y-39116000D01*
X45720000Y-39116000D02*
X45720000Y-39179500D01*
X43942000Y-38481000D02*
X43942000Y-38862000D01*
X43942000Y-38862000D02*
X44069000Y-38989000D01*
X44069000Y-38989000D02*
X44069000Y-39370000D01*
X45720000Y-38608000D02*
X46101000Y-38227000D01*
X45138000Y-37084000D02*
X45670000Y-37084000D01*
X45670000Y-37084000D02*
X46752000Y-36002000D01*
X42418000Y-33147000D02*
X42418000Y-32512000D01*
X46752000Y-33798000D02*
X46482000Y-33528000D01*
X46752000Y-33798000D02*
X46752000Y-34356000D01*
X42418000Y-32512000D02*
X43180000Y-31750000D01*
X43307000Y-35306000D02*
X43688000Y-36195000D01*
X44069000Y-36576000D02*
X44069000Y-37465000D01*
X43688000Y-36195000D02*
X44069000Y-36576000D01*
X94980000Y-43450000D02*
X94615000Y-43815000D01*
X94980000Y-42865000D02*
X94980000Y-43450000D01*
X94980000Y-44765000D02*
X91300000Y-44765000D01*
X91300000Y-44765000D02*
X90985000Y-44450000D01*
X54737000Y-40640000D02*
X54610000Y-40640000D01*
X54610000Y-40640000D02*
X53975000Y-40005000D01*
X84820000Y-42865000D02*
X84140000Y-42865000D01*
X63500000Y-40640000D02*
X54737000Y-40640000D01*
X64135000Y-41275000D02*
X63500000Y-40640000D01*
X82550000Y-41275000D02*
X64135000Y-41275000D01*
X84140000Y-42865000D02*
X82550000Y-41275000D01*
X84820000Y-44765000D02*
X81140000Y-44765000D01*
X81140000Y-44765000D02*
X80825000Y-44450000D01*
X53975000Y-41275000D02*
X52959000Y-41275000D01*
X64135000Y-41910000D02*
X63501398Y-41910000D01*
X64770000Y-41910000D02*
X69850000Y-41910000D01*
X73980000Y-42865000D02*
X73025000Y-41910000D01*
X73025000Y-41910000D02*
X69850000Y-41910000D01*
X74660000Y-42865000D02*
X73980000Y-42865000D01*
X64135000Y-41910000D02*
X64770000Y-41910000D01*
X62866398Y-41275000D02*
X60960000Y-41275000D01*
X63501398Y-41910000D02*
X62866398Y-41275000D01*
X53975000Y-41275000D02*
X60960000Y-41275000D01*
X74660000Y-44765000D02*
X70980000Y-44765000D01*
X70980000Y-44765000D02*
X70665000Y-44450000D01*
X62865000Y-41910000D02*
X53975000Y-41910000D01*
X63820000Y-42865000D02*
X62865000Y-41910000D01*
X64500000Y-42865000D02*
X63820000Y-42865000D01*
X64500000Y-44765000D02*
X60820000Y-44765000D01*
X60820000Y-44765000D02*
X60505000Y-44450000D01*
X98880000Y-26670000D02*
X99695000Y-26670000D01*
X99695000Y-26670000D02*
X101600000Y-24765000D01*
X101600000Y-24765000D02*
X101780000Y-24765000D01*
X106500000Y-26670000D02*
X107495000Y-26670000D01*
X107495000Y-26670000D02*
X109400000Y-24765000D01*
X114120000Y-26670000D02*
X115115000Y-26670000D01*
X115115000Y-26670000D02*
X117020000Y-24765000D01*
X117020000Y-41910000D02*
X116025000Y-41910000D01*
X116025000Y-41910000D02*
X114120000Y-43815000D01*
X109400000Y-41910000D02*
X108405000Y-41910000D01*
X108405000Y-41910000D02*
X106500000Y-43815000D01*
X101780000Y-41910000D02*
X100785000Y-41910000D01*
X100785000Y-41910000D02*
X98880000Y-43815000D01*
X93345000Y-36195000D02*
X89535000Y-36195000D01*
X89535000Y-27305000D02*
X88445000Y-26215000D01*
X89535000Y-36195000D02*
X89535000Y-27305000D01*
X88445000Y-26215000D02*
X88265000Y-26215000D01*
X86360000Y-26215000D02*
X86360000Y-26670000D01*
X90170000Y-34925000D02*
X93345000Y-34925000D01*
X87630000Y-27305000D02*
X86995000Y-27305000D01*
X88265000Y-27940000D02*
X87630000Y-27305000D01*
X90170000Y-34925000D02*
X90170000Y-27940000D01*
X86360000Y-26670000D02*
X86995000Y-27305000D01*
X86360000Y-39825000D02*
X86360000Y-39370000D01*
X92710000Y-33655000D02*
X93345000Y-33655000D01*
X92075000Y-33020000D02*
X92710000Y-33655000D01*
X88900000Y-37465000D02*
X88900000Y-33020000D01*
X87630000Y-38735000D02*
X88900000Y-37465000D01*
X86995000Y-38735000D02*
X87630000Y-38735000D01*
X86360000Y-39370000D02*
X86995000Y-38735000D01*
X88265000Y-39825000D02*
X89715000Y-39825000D01*
X89715000Y-39825000D02*
X90805000Y-38735000D01*
X93345000Y-32385000D02*
X94615000Y-32385000D01*
X93980000Y-38735000D02*
X90805000Y-38735000D01*
X94615000Y-38100000D02*
X93980000Y-38735000D01*
X94615000Y-32385000D02*
X94615000Y-38100000D01*
X93345000Y-31115000D02*
X95250000Y-31115000D01*
X93980000Y-40005000D02*
X92255000Y-40005000D01*
X95250000Y-38735000D02*
X93980000Y-40005000D01*
X95250000Y-31115000D02*
X95250000Y-38735000D01*
X92255000Y-40005000D02*
X92075000Y-39825000D01*
X93345000Y-29845000D02*
X93980000Y-29845000D01*
X94615000Y-26850000D02*
X93980000Y-26215000D01*
X94615000Y-29210000D02*
X94615000Y-26850000D01*
X93980000Y-29845000D02*
X94615000Y-29210000D01*
X92075000Y-26215000D02*
X92075000Y-27305000D01*
X92075000Y-27305000D02*
X93345000Y-28575000D01*
X83185000Y-36195000D02*
X79190002Y-36195000D01*
X79375000Y-27485000D02*
X78105000Y-26215000D01*
X79375000Y-36010002D02*
X79375000Y-27485000D01*
X79190002Y-36195000D02*
X79375000Y-36010002D01*
X83185000Y-34925000D02*
X80010000Y-34925000D01*
X76200000Y-26670000D02*
X76200000Y-26215000D01*
X76835000Y-27305000D02*
X76200000Y-26670000D01*
X77470000Y-27305000D02*
X76835000Y-27305000D01*
X78105000Y-27940000D02*
X77470000Y-27305000D01*
X80010000Y-34925000D02*
X80010000Y-27940000D01*
X76200000Y-39825000D02*
X76200000Y-39370000D01*
X82550000Y-33655000D02*
X83185000Y-33655000D01*
X81915000Y-33020000D02*
X82550000Y-33655000D01*
X78740000Y-37465000D02*
X78740000Y-33020000D01*
X77470000Y-38735000D02*
X78740000Y-37465000D01*
X76835000Y-38735000D02*
X77470000Y-38735000D01*
X76200000Y-39370000D02*
X76835000Y-38735000D01*
X78105000Y-39825000D02*
X79555000Y-39825000D01*
X79555000Y-39825000D02*
X80645000Y-38735000D01*
X84455000Y-38100000D02*
X83820000Y-38735000D01*
X83820000Y-38735000D02*
X80645000Y-38735000D01*
X83185000Y-32385000D02*
X84455000Y-32385000D01*
X84455000Y-32385000D02*
X84455000Y-38100000D01*
X85090000Y-31115000D02*
X85090000Y-38735000D01*
X83185000Y-31115000D02*
X85090000Y-31115000D01*
X83820000Y-40005000D02*
X82095000Y-40005000D01*
X85090000Y-38735000D02*
X83820000Y-40005000D01*
X82095000Y-40005000D02*
X81915000Y-39825000D01*
X83185000Y-29845000D02*
X83820000Y-29845000D01*
X84455000Y-26850000D02*
X83820000Y-26215000D01*
X84455000Y-29210000D02*
X84455000Y-26850000D01*
X83820000Y-29845000D02*
X84455000Y-29210000D01*
X81915000Y-26215000D02*
X81915000Y-27305000D01*
X81915000Y-27305000D02*
X83185000Y-28575000D01*
X67945000Y-26215000D02*
X67945000Y-26670000D01*
X69215000Y-36195000D02*
X73025000Y-36195000D01*
X69215000Y-27940000D02*
X69215000Y-36195000D01*
X67945000Y-26670000D02*
X69215000Y-27940000D01*
X73025000Y-34925000D02*
X69850000Y-34925000D01*
X66040000Y-26670000D02*
X66040000Y-26215000D01*
X66675000Y-27305000D02*
X66040000Y-26670000D01*
X67310000Y-27305000D02*
X66675000Y-27305000D01*
X67945000Y-27940000D02*
X67310000Y-27305000D01*
X69850000Y-34925000D02*
X69850000Y-27940000D01*
X66675000Y-38735000D02*
X67310000Y-38735000D01*
X66040000Y-39370000D02*
X66675000Y-38735000D01*
X66040000Y-39825000D02*
X66040000Y-39370000D01*
X72390000Y-33655000D02*
X73025000Y-33655000D01*
X71755000Y-33020000D02*
X72390000Y-33655000D01*
X68580000Y-37465000D02*
X68580000Y-33020000D01*
X67310000Y-38735000D02*
X68580000Y-37465000D01*
X67945000Y-39825000D02*
X69395000Y-39825000D01*
X69395000Y-39825000D02*
X70485000Y-38735000D01*
X73660000Y-38735000D02*
X70485000Y-38735000D01*
X73025000Y-32385000D02*
X74295000Y-32385000D01*
X74295000Y-38100000D02*
X73660000Y-38735000D01*
X74295000Y-32385000D02*
X74295000Y-38100000D01*
X73025000Y-31115000D02*
X74930000Y-31115000D01*
X73840000Y-39825000D02*
X71755000Y-39825000D01*
X74930000Y-38735000D02*
X73840000Y-39825000D01*
X74930000Y-31115000D02*
X74930000Y-38735000D01*
X73025000Y-29845000D02*
X73660000Y-29845000D01*
X74295000Y-26850000D02*
X73660000Y-26215000D01*
X74295000Y-29210000D02*
X74295000Y-26850000D01*
X73660000Y-29845000D02*
X74295000Y-29210000D01*
X71755000Y-26215000D02*
X71755000Y-27305000D01*
X71755000Y-27305000D02*
X73025000Y-28575000D01*
X57785000Y-26215000D02*
X57785000Y-26670000D01*
X59055000Y-36195000D02*
X62865000Y-36195000D01*
X59055000Y-27940000D02*
X59055000Y-36195000D01*
X57785000Y-26670000D02*
X59055000Y-27940000D01*
X62865000Y-34925000D02*
X59690000Y-34925000D01*
X55880000Y-26670000D02*
X55880000Y-26215000D01*
X56515000Y-27305000D02*
X55880000Y-26670000D01*
X57150000Y-27305000D02*
X56515000Y-27305000D01*
X57785000Y-27940000D02*
X57150000Y-27305000D01*
X59690000Y-34925000D02*
X59690000Y-27940000D01*
X56515000Y-38735000D02*
X57150000Y-38100000D01*
X57150000Y-38100000D02*
X57785000Y-38100000D01*
X55880000Y-39825000D02*
X55880000Y-39370000D01*
X62230000Y-33655000D02*
X62865000Y-33655000D01*
X61595000Y-33020000D02*
X62230000Y-33655000D01*
X58420000Y-37465000D02*
X58420000Y-33020000D01*
X57785000Y-38100000D02*
X58420000Y-37465000D01*
X55880000Y-39370000D02*
X56515000Y-38735000D01*
X57785000Y-39825000D02*
X59235000Y-39825000D01*
X59235000Y-39825000D02*
X60325000Y-38735000D01*
X64135000Y-38100000D02*
X63500000Y-38735000D01*
X63500000Y-38735000D02*
X60325000Y-38735000D01*
X62865000Y-32385000D02*
X64135000Y-32385000D01*
X64135000Y-32385000D02*
X64135000Y-38100000D01*
X62865000Y-31115000D02*
X64770000Y-31115000D01*
X63680000Y-39825000D02*
X61595000Y-39825000D01*
X64770000Y-38735000D02*
X63680000Y-39825000D01*
X64770000Y-37465000D02*
X64770000Y-38735000D01*
X64770000Y-31115000D02*
X64770000Y-37465000D01*
X62865000Y-29845000D02*
X63500000Y-29845000D01*
X64135000Y-26850000D02*
X63500000Y-26215000D01*
X64135000Y-29210000D02*
X64135000Y-26850000D01*
X63500000Y-29845000D02*
X64135000Y-29210000D01*
X61595000Y-26215000D02*
X61595000Y-27305000D01*
X61595000Y-27305000D02*
X62865000Y-28575000D01*
M02*
